<svg id="Layer_1" data-name="Layer 1" xmlns="http://www.w3.org/2000/svg" xmlns:xlink="http://www.w3.org/1999/xlink" width="485" height="496" viewBox="0 0 485 496"><defs><linearGradient id="linear-gradient" x1="99.9188" y1="380.781" x2="131.0256" y2="380.781" gradientUnits="userSpaceOnUse"><stop offset="0" stop-color="#a9a7a6"/><stop offset="0.247" stop-color="#a4a2a2"/><stop offset="0.5377" stop-color="#969596"/><stop offset="0.8292" stop-color="#808083"/><stop offset="0.9053" stop-color="#828285"/><stop offset="0.9327" stop-color="#89898b"/><stop offset="0.9522" stop-color="#949497"/><stop offset="0.968" stop-color="#a5a5a7"/><stop offset="0.9815" stop-color="#bbbbbc"/><stop offset="0.9933" stop-color="#d6d5d6"/><stop offset="1" stop-color="#e9e8e8"/></linearGradient><linearGradient id="linear-gradient-2" x1="-1922.4841" y1="388.0018" x2="-1902.1479" y2="388.0018" gradientTransform="matrix(-1, 0, 0, 1, -1746.6499, 0)" xlink:href="#linear-gradient"/><linearGradient id="linear-gradient-3" x1="314.1911" y1="387.1215" x2="358.7742" y2="387.1215" xlink:href="#linear-gradient"/><linearGradient id="linear-gradient-4" x1="364.1895" y1="390.9525" x2="400.7852" y2="390.9525" xlink:href="#linear-gradient"/><linearGradient id="linear-gradient-5" x1="96.3449" y1="180.1353" x2="378.8826" y2="180.1353" gradientUnits="userSpaceOnUse"><stop offset="0" stop-color="#2a3c90" stop-opacity="0.6"/><stop offset="0.4646" stop-color="#586189" stop-opacity="0.8154"/><stop offset="0.8108" stop-color="#757785" stop-opacity="0.9493"/><stop offset="0.9975" stop-color="#808083"/></linearGradient></defs><title>python-infographic</title><path d="M441.3226,399.7292c29.2384-31.7134,40.3137-60.283,38.0023-101.48-1.761-31.37-6.9157-63.9571-47.8327-82.5305-62.4386-28.3382-95.8,28.4765-158.0242,18.1546-53.5025-8.8781-54.2724-59.7878-110.6463-75.2157-29.4268-8.0563-68.3576,6.9175-108.62,45.81-70.9916,68.5721-78.8563,224.77,73.9075,272.39C239.3087,511.522,380.3853,465.8314,441.3226,399.7292Z" fill="#f1f4f8" opacity="0.4"/><polygon points="195.166 211.914 210.812 249.554 231.668 242.918 220.603 208.643 195.166 211.914" fill="#a9a7a6"/><polygon points="196.742 213.398 211.037 247.788 230.092 241.725 219.982 210.409 196.742 213.398" fill="#e9e8e8"/><path d="M245.2588,218.9109a8.1182,8.1182,0,0,1,3.0169-8.1242c1.8038-1.3947,3.95-2.2431,5.4095-4.0579,2.4026-2.9866,2.5363-7.0814,2.2708-10.731-.0464-.6381-1.0468-.6431-1,0a18.9532,18.9532,0,0,1-.5824,7.3614c-1.0906,3.2828-3.7294,4.4873-6.3424,6.3494a9.2,9.2,0,0,0-3.7367,9.4681c.12.6316,1.0836.3641.9643-.2658Z" fill="#e9e8e8"/><path d="M245.6575,191.9781c-.1123-.0007-.2423-.0038-.3582-.0044l-5.4455-9.9931c.0319-.3569.0612-.7144.065-1.079.0076-.8407-.4959-.227-1.3053,0-3.842,1.0739-1.4494,6.3881-4.05,8.5946a.6606.6606,0,0,0,0,.9236c2.6426,2.6118,6.4628,1.019,11.0938,2.8635C246.4375,193.5945,246.4975,191.98,245.6575,191.9781Z" fill="#eda4a8"/><path d="M210.24,410.0671c1.6226-3.1211,4.2358-5.587,6.5481-8.2378A52.88,52.88,0,0,0,228.0412,380.6l-11.3423-3.6081c-6.6781,9.3258-7.731,21.8815-14.7891,30.9224a23.0019,23.0019,0,0,0,7.7872,3.4269" fill="#f8acae"/><path d="M298.5064,409.5489c-.5519-3.4748.0816-7.0109.3659-10.5175a52.8883,52.8883,0,0,0-3.5768-23.7592q-5.633,1.9217-11.2645,3.844c.176,11.4691,6.7955,22.1887,6.4971,33.6553a23.0059,23.0059,0,0,0,8.2984-1.8758" fill="#f8acae"/><path d="M213.3719,402.3844a77.5842,77.5842,0,0,0-4.7483,9.7547c-.1364.339-.3276.7285-.6883.7877a1.0777,1.0777,0,0,1-.668-.1919q-2.283-1.2513-4.5672-2.5034a1.4757,1.4757,0,0,1-.6042-.49c-.2894-.4959.074-1.1065.4232-1.5628q3.3557-4.3652,6.8158-8.6469" fill="#f8acae"/><path d="M301.4345,390.1575q-3.2085-42.4005-10.4169-84.37c-2.0815-12.0873-4.5188-24.4181-10.8286-34.9356L247.02,286.1325A221.4779,221.4779,0,0,0,266.1367,353.88c6.05,13.0191,13.4851,25.9745,17.33,39.6138A89.5387,89.5387,0,0,0,301.4345,390.1575Z" fill="#273a82"/><path d="M247.0125,280.1918c-3.531,19.9949-16.0128,37.11-23.5565,55.96-5.8789,14.69-8.7444,30.4234-12.9689,45.6675a56.3124,56.3124,0,0,0,12.125,6.1248c.7674.2825,4.1517.5469,4.93.7992,6.292-10.2951,10.0753-18.1765,15.0389-23.6743,5.8292-6.4575,12.1951-12.4448,17.5832-19.2759,15.0619-19.0956,21.5055-43.3972,27.5845-66.9459Z" fill="#2a3c90"/><path d="M271.4485,197.3058c-.8375-1.1651-2.8414-2.7629-2.5928-4.4111.2372-1.5769,2.3594-2.7859,3.3882-3.8515,5.6469-5.8579,6.5941-13.45,4.9293-20.7215-.176-.2237-.3365-.4552-.5264-.6712-3.3868-3.88-8.5125-5.7744-13.6049-6.6807a27.96,27.96,0,0,0-13.1383.4245,16.03,16.03,0,0,0-9.9771,8.4182c-1.4913,3.434-1.4,7.2842-1.2211,10.986.3951,7.79,2.5481,12.4735,2.2639,18.6387s8.1033,5.3353,11.1127,4.2708a2.5916,2.5916,0,0,1,.7611-.1694c1.5-.1231,2.6106,1.1376,3.5805,3.2109a43.1917,43.1917,0,0,1,1.8292,5.0841c1.1893,3.8286,14.8451.96,22.3646-.9363C277.4256,206.4639,274.639,201.7391,271.4485,197.3058Z" fill="#f8acae"/><path d="M257.6231,205.404a11.9784,11.9784,0,0,1-1.2,1.3454c-.97-2.0733-2.08-3.334-3.5805-3.2109a12.1122,12.1122,0,0,0,3.8394-2.78,31.4978,31.4978,0,0,0,4.2051-6.1384,7.4157,7.4157,0,0,1,.02,2.7808A17.1524,17.1524,0,0,1,257.6231,205.404Z" fill="#eda4a8"/><path d="M240.6811,192.5684a3.2839,3.2839,0,0,0-.529,1.4346,6.8845,6.8845,0,0,1,2.8031-.0535,12.1631,12.1631,0,0,1,2.1006.239c1.21.4187,1.9223,2.7475,2.31,3.8279a25.3517,25.3517,0,0,0,1.7577,4.37q.7152-.1662,1.429-.3327-1.742-3.4922-3.7732-6.8311a3.1023,3.1023,0,0,0-2.0318-1.7075,23.8989,23.8989,0,0,0-3.68-.9412" fill="#3e4278"/><path d="M247.8118,185.8825l-.1569-.0911a12.0371,12.0371,0,0,1-3.9681,1.0829,11.91,11.91,0,0,1-2.0484.0133c.0127-.5481,0-1.8273-.0268-2.8458,0-.796-.0128-1.4225-.0128-1.4225a13.8738,13.8738,0,0,1,4.32,1.5666c.3007.2479.6.5085.8884.7827C247.1335,185.2688,247.4726,185.5823,247.8118,185.8825Z" fill="#f7f3e5"/><path d="M243.6868,186.8743a11.91,11.91,0,0,1-2.0484.0133c.0127-.5481,0-1.8273-.0268-2.8458a2.7728,2.7728,0,0,1,2.0229,2.3888A1.8477,1.8477,0,0,1,243.6868,186.8743Z" fill="#3e4278"/><g opacity="0.5"><path d="M241.632,187.1433a12.7837,12.7837,0,0,0,6.1466-1.131c.2928-.1321.0389-.5631-.2524-.4317a12.26,12.26,0,0,1-5.8942,1.0627c-.3213-.02-.32.48,0,.5Z" fill="#edcbaf"/></g><path d="M258.8175,181.2732a4.5237,4.5237,0,0,1,3.0006-1.2186,4.0881,4.0881,0,0,1,3.1856,2.3671,8.0981,8.0981,0,0,1,.6832,4.0835,9.0328,9.0328,0,0,1-.1861,1.4627,4.448,4.448,0,0,1-2.58,3.2933,3.226,3.226,0,0,1-3.8446-1.3831" fill="#b14c38"/><path d="M259.7175,152.5861c-2.7662.7782-5.7133.38-8.5405-.1249s-5.7-1.1154-8.5494-.7438-5.7336,1.95-6.7916,4.6207a7.9934,7.9934,0,0,0,.599,6.45,21.7917,21.7917,0,0,0,4.1263,5.2148,15.9217,15.9217,0,0,1,6.0994-2.5793,5.6751,5.6751,0,0,1,4.371.5583c1.3549.9681,1.805,2.7463,2.1605,4.3742q1.0134,4.6587,2.0294,9.3161a1.3134,1.3134,0,0,0,1.2849,1.281q1.5047.326,3.0083.6526a4.066,4.066,0,0,1,1.6239.6068,4.3915,4.3915,0,0,1,1.2033,1.9113,28.862,28.862,0,0,0,6.8987,9.8471c1.2874-1.3092,2.8335-2.3353,4.18-3.5851a22.4939,22.4939,0,0,0,6.1759-11.5437,66.5473,66.5473,0,0,0,1.2467-13.2071,5.3435,5.3435,0,0,0-3.0452-5.8318q-2.5794-1.7821-5.1575-3.5641c-2.0075-1.3869-4.116-2.8145-6.5353-3.1357" fill="#3e4278"/><path d="M256.3165,186.1827q-1.7858.8078-3.57,1.615a2.4859,2.4859,0,0,0-1.2989.9854,2.1777,2.1777,0,0,0-.1656,1.063,22.4965,22.4965,0,0,0,.3556,2.8414,52.9355,52.9355,0,0,1,.6157,6.3142,1.504,1.504,0,0,1-.2.9987,1.4382,1.4382,0,0,1-.6361.4,13.4824,13.4824,0,0,1-5.0339.9332c-1.2313-.01-2.6232-.2907-3.2683-1.3384a11.2352,11.2352,0,0,0-.7508-1.4844c-.3582-.4264-1.1689-.5494-1.3957-.0414a1.1208,1.1208,0,0,0-.065.47q.0076,3.4483.0166,6.8974a.5344.5344,0,0,0,.622.6157q1.09.1433,2.18.2881a13.1739,13.1739,0,0,0,2.1516.1645,11.5982,11.5982,0,0,0,4.66-1.4437,23.4462,23.4462,0,0,0,7.9427-5.8585,11.69,11.69,0,0,0,2.766-9.2326" fill="#3e4278"/><path d="M274.8583,258.1682a23.1754,23.1754,0,0,1-6.241,5.6539,20.2063,20.2063,0,0,1-5.7553,2.1288,169.9622,169.9622,0,0,0,29.4341,1.9955c-2.5838-18.7572-5.2466-37.6056-10.9254-55.71a5.5734,5.5734,0,0,0-1.6175-2.9108c-1.3194-1.0312-3.2123-.796-4.8822-.5092q-8.44,1.4685-16.8782,2.9892l-.6132,1.919q-3.8967,12.6872-7.805,25.3614-1.631,5.2782-3.2785,10.5659L282.88,234.2644C283.8168,242.8418,280.2949,251.4677,274.8583,258.1682Z" fill="#fada8a"/><path d="M293.4587,276.3651a221.8317,221.8317,0,0,1-54.4705-4.4244c-5.3512,15.3372-11.4863,30.3607-19.4876,44.536,11.6559,7.31,25.466,10.9911,39.3016,11.9828,13.85.979,27.7642-.6526,41.3652-3.3156Q296.8193,300.7483,293.4587,276.3651Z" fill="#fada8a"/><path d="M262.862,265.9508a20.2063,20.2063,0,0,0,5.7553-2.1288,23.1754,23.1754,0,0,0,6.241-5.6539c5.4365-6.7,8.9585-15.3263,8.0217-23.9038l-36.5839,15.3876q-1.86,5.9465-3.7961,11.8725A169.2136,169.2136,0,0,0,262.862,265.9508Z" fill="#fada8a"/><path d="M293.4587,276.3651c-.3137-2.31-.64-4.6207-.9535-6.9311-.065-.4959-.13-.9918-.2091-1.4876a169.9622,169.9622,0,0,1-29.4341-1.9955,52.3747,52.3747,0,0,1-5.8814.8808q-8.285.8719-16.6208,1.1154c-.4525,1.3321-.9051,2.6648-1.3716,3.9937A221.8317,221.8317,0,0,0,293.4587,276.3651Z" fill="#f4cf7a"/><path d="M262.862,265.9508a169.2136,169.2136,0,0,1-20.362-4.4264q-1.05,3.2189-2.14,6.4226,8.3269-.2524,16.6208-1.1154A52.3747,52.3747,0,0,0,262.862,265.9508Z" fill="#f4cf7a"/><path d="M200.0041,404.9861a28.11,28.11,0,0,0,11.8483,5.02,15.23,15.23,0,0,1-2.0128,4.114,1.653,1.653,0,0,1-2.3352.7559,52.63,52.63,0,0,1-20.204-12.2517C192.194,401.6643,196.0691,403.5782,200.0041,404.9861Z" fill="#483f73"/><path d="M289.1222,412.5189c-2.766,1.8726-7.5908,1.0057-8.7113,4.4768q10.455-.8433,20.9407-.7419s.8923-3.0554-.0611-5.0134-2.4258.109-6.153.7616A28.7439,28.7439,0,0,1,289.1222,412.5189Z" fill="#483f73"/><path d="M228.0666,389.6158a55.5514,55.5514,0,0,1-19.11-8.4824,2.6849,2.6849,0,0,0,.1886-4.2645,4.2064,4.2064,0,0,0,1.0555-2.58,15.7182,15.7182,0,0,0,3.9172,2.2071c2.2867.8859,4.7443,1.2237,7.1039,1.8942,4.1938,1.1919,8.01,3.4111,11.7769,5.6081-1.6991.5016-.7546,3.485-2.1414,4.5864-.8349.6622-2.1682.3257-2.9942.9967" fill="#273471"/><path d="M302.4441,390.2487q-9.8606,2.36-19.8586,4.095c-.5315.0918-1.2033.123-1.4774-.3422a3.0766,3.0766,0,0,1-.1911-.7846c-.2078-.7718-1.0746-1.13-1.8343-1.38a1.4333,1.4333,0,0,0,.6169-2.0229c-.2612-.3933-.7049-.6278-1.0006-.9955s-.3593-1.02.0625-1.2295a1.0668,1.0668,0,0,1,.4486-.0765c7.6215-.2109,14.742-4.0191,22.3392-4.6558.6705-.0568,1.5692.0847,1.6571.7521.0855.6405-.7227,1.26-.413,1.8266.1339.2447.4271.346.6476.5181.6476.508.5571,1.4965.4041,2.3054" fill="#273471"/><path d="M241.53,181.7578c.4744-.5587.8838-1.1259,1.7567-1.1308a5.1982,5.1982,0,0,1,2.1814.9542c1.4008.9248,1.9883,2.4321,2.7068,3.8775.1432.2882.5747.0352.4317-.2524-.9924-1.9965-1.7557-3.6313-3.8681-4.5751a4.6079,4.6079,0,0,0-2.2288-.6186c-.8163.1231-.8648.84-1.3333,1.3917-.2071.2439.1449.5993.3536.3536Z" fill="#f8acae"/><circle cx="262.4096" cy="185.6327" r="8.6476" fill="#a9a7a6"/><circle cx="262.6266" cy="185.5237" r="4.949" fill="#808083"/><path d="M258.6607,152.7683a4.77,4.77,0,0,1,2.9139,2.8331c1.564,3.2715,1.652,7.0343,1.5692,10.66-.1352,6.0178-.659,12.02-1.1817,18.0159a6.5029,6.5029,0,0,0,3.28.5456q.7744-3.1617,1.55-6.3239c1.78-7.2612,3.5666-14.5729,3.9694-22.0382.0739-1.357.0115-2.9229-1.0453-3.7776a4.266,4.266,0,0,0-2.15-.731,38.7019,38.7019,0,0,0-5.7476-.3583,4.7119,4.7119,0,0,0-3.1306.8452" fill="#e9e8e8"/><path d="M221.7679,246.3271,217.58,240.7l-4.1759-.7438a26.4015,26.4015,0,0,0-10.174-1.6477,50.9932,50.9932,0,0,1,3.5031,5.9761,1.311,1.311,0,0,0,.518.6448,2.0794,2.0794,0,0,0,1.2142.008,14.042,14.042,0,0,1,4.769.2907q1.982.3563,3.9636.712" fill="#f8acae"/><path d="M239.8244,177.35v-1.4118a.7121.7121,0,0,1,.0918-.4283.6959.6959,0,0,1,.3-.204,14.2952,14.2952,0,0,1,6.4488-1.5468,6.4031,6.4031,0,0,1,5.4938,3.2429,9.5716,9.5716,0,0,0-5.1931-.0561c-1.7132.3785-3.3716.9828-5.0923,1.32-.654.1288-1.4737.1505-1.8279-.4136" fill="#3e4278"/><path d="M280.3191,162.12a9.196,9.196,0,0,1,16.2919-1.9248c4.028,6.0586-.0383,14.8057,3.3525,21.2435a10.182,10.182,0,0,0,5.9464,4.9287c-4.8553.49-9.8521.9617-14.538-.4s-9.0453-5.0076-9.7437-9.8362c-.3188-2.2.1325-4.4309.1835-6.6527s-.41-4.6532-2.1032-6.0931" fill="#3e4278"/><path d="M261.7668,192.0275c1.1305,6.5226.6952,14.0527-4.6611,18.6935-3.88,3.3615-10.4634,2.5091-13.06,7.4319-.3.5688.5628,1.0748.8635.5047,1.9409-3.6794,6.3212-3.6851,9.7139-5.189a13.3882,13.3882,0,0,0,5.2052-4.2187c3.8052-5.0277,3.9376-11.5193,2.9031-17.4882-.11-.6329-1.0735-.3646-.9643.2658Z" fill="#e9e8e8"/><path d="M244.7445,218.8077c-2.4681,5.8566.2469,12.0181,4.191,16.4964,5.0054,5.6834,11.1925,9.9105,15.4268,16.3275,4.1688,6.3176,6.47,13.8871,4.4943,21.3877-1.8542,7.0409-6.7755,12.8982-12.2719,17.4733-2.195,1.8271-4.9663,2.4616-7.7341,3.1107-4.6067,1.08-10.0515,1.7457-14.47-.378-2.836-1.3631-4.395-3.9056-5.8294-6.6022-1.2493-2.3485-2.4353-5.04-1.9783-7.7641.6978-4.16,4.0945-7.54,3.8819-11.9607a6.3353,6.3353,0,0,0-1.8244-3.88c-1.4114-1.7-1.543-3.4695-2.34-5.4617a58.7946,58.7946,0,0,0-6.4-11.198c-.3626-.5267-1.23-.0272-.8635.5047a58.4389,58.4389,0,0,1,6.3,10.9591c.6672,1.6538.7456,3.4706,1.7986,4.9464,1.0439,1.4629,2.2966,2.3985,2.3315,4.3632.0833,4.7-3.9929,8.3424-3.9839,12.9993a14.87,14.87,0,0,0,2.0376,6.6547c1.1992,2.31,2.5132,4.6946,4.6479,6.2671,3.7271,2.7454,8.7808,2.8221,13.18,2.22a33.608,33.608,0,0,0,9.877-2.5828,19.679,19.679,0,0,0,4.4518-3.5906,41.1855,41.1855,0,0,0,6.6634-7.9552,25.4279,25.4279,0,0,0,3.7146-19c-1.6534-7.7242-6.63-14.4308-12.2516-19.7892-6.22-5.929-16.2651-13.36-12.0837-23.2822.25-.5921-.7178-.8508-.9643-.2658Z" fill="#e9e8e8"/><path d="M280.07,242.7471c-1.8064,5.4221-6.3513,9.4892-10.9343,12.9693a129.6361,129.6361,0,0,1-27.9227,16.1559q-12.6656-13.1579-25.33-26.3158,2.0663-1.8317,4.1327-3.6629,11.4263,7.0407,22.5445,14.55c5.88-3.8863,8.2538-11.238,9.4954-18.1078s1.8777-14.1379,5.737-20.0083,12.3984-9.5168,18.0562-5.4714c2.0776,1.4854,3.4321,3.74,4.7283,5.9326,2.9124,4.9265,5.9235,10.367,5.0475,16.0577-.8178,5.3138-4.8369,9.5422-8.6568,13.3915" fill="#f8acae"/><circle cx="213.4168" cy="223.2178" r="6.5214" fill="#fada8a"/><rect x="209.0135" y="232.9648" width="16.7669" height="1.2996" rx="0.6368" ry="0.6368" transform="matrix(0.9564, -0.2919, 0.2919, 0.9564, -58.7282, 73.6392)" fill="#2a3c90"/><path d="M220.5848,247.0665a1.3365,1.3365,0,0,1-1.1272-.4559c-1.9732-1.7957-2.8047-4.7315-5.1282-6.0568-1.9642-1.12-4.6693-.8682-6.2558-2.4692a6.759,6.759,0,0,1-1.1036-1.67c-.5628-1.0738-1.1091-2.3877-.4958-3.45a12.2234,12.2234,0,0,0,8.8725,4.378,4.29,4.29,0,0,1,1.82.2891,3.1331,3.1331,0,0,1,.9695.8856,13.29,13.29,0,0,1,2.4938,5.0734" fill="#f8acae"/><path d="M243.3656,218.632a12.2267,12.2267,0,0,0,2.3709.6858c-.0051.422-.0089.8445-.014,1.267a5.2453,5.2453,0,0,0-1.8828-.6124c-.6412-.183-1.3142-.7158-1.1932-1.37" fill="#a9a7a6"/><path d="M121.69,390.2765a11.3992,11.3992,0,0,1-1.5-5.05,22.02,22.02,0,0,1,.4048-5.0543,13.3028,13.3028,0,0,0,.3264-4.89c-.5562-5.1242-2.7177-4.8064-3.5237-4.51-.7919.2913-1.2371,1.0722-1.4216,2.3891-.1484,1.0591.06,6.1123-1.4818,5.2031-1.784-1.0525-1.1693-6.24-1.28-8.0021A12.5846,12.5846,0,0,0,110.49,362.84c-.8824-.99-2.25-1.7916-3.495-1.3359a3.0678,3.0678,0,0,0-1.6127,1.6677c-1.0049,2.17-.4718,4.5917.19,6.7755.2769.9131,2.8551,5.2721.415,4.6176-.5828-.1563-5.1177-4.55-6.0242-.5882-.3193,1.3952,1.1083,3.0114,3.4263,5.0891,1.4475,1.2975,6.934,4.8646,6.4773,6.3971s-3.4071-1.3031-3.3332,1.6476c.0414,1.6531,2.059,3.0531,3.4469,3.8213.66.3655,1.3912.5984,2.0262,1.0061.7532.4836,1.6244,1.5544.9182,2.4337-.3084.3841-.8432.5358-1.1388.93a1.402,1.402,0,0,0-.061,1.4252,3.2465,3.2465,0,0,0,.9981,1.1021,13.04,13.04,0,0,0,9.1144,2.2925,30.1026,30.1026,0,0,0,9.1881-2.7078" fill="url(#linear-gradient)"/><g opacity="0.25"><path d="M108.2515,364.3869s1.4943,17.3829,10.7156,29.0925" fill="none" stroke="#fff" stroke-linecap="round" stroke-linejoin="round" stroke-width="0.7496"/><path d="M102.3529,375.1217s5.3009,5.1148,9.983,6.2636" fill="none" stroke="#fff" stroke-linecap="round" stroke-linejoin="round" stroke-width="0.7496"/><path d="M118.0472,372.9888c.0207,2.7105-.529,10.2129-3.4438,13.5538" fill="none" stroke="#fff" stroke-linecap="round" stroke-linejoin="round" stroke-width="0.7496"/><path d="M108.6047,387.8928s2.0624,2.2,8.9975,3.7338" fill="none" stroke="#fff" stroke-linecap="round" stroke-linejoin="round" stroke-width="0.7496"/><path d="M113.1138,395.9165a11.179,11.179,0,0,0,6.98-.5371" fill="none" stroke="#fff" stroke-linecap="round" stroke-linejoin="round" stroke-width="0.7496"/></g><path d="M125.6028,390.471c-.3607-2.0433-4.1241-14.8879-10.7284-11.477-3.923,2.0261-3.2175,9.4866,2.91,15.123-1.2026-1.1633-2.5915-2.4823-4.2327-2.8082a3.27,3.27,0,0,0-2.6357.8453,3.0917,3.0917,0,0,0-.792,2.211,8.7039,8.7039,0,0,0,3.8768,7.4446c-1.3552-.7572-2.53-1.7054-4.0764-1.8382a1.8955,1.8955,0,0,0-1.5871.6922c-.2531.4873-.2354,2.3134,2.748,3.6773-12.1611-2.3065-12.87,2.8773-8.4991,2.8773h28.8895" fill="#fada8a"/><path d="M161.6015,394.21a7.4522,7.4522,0,0,0,.9809-3.3013,14.3959,14.3959,0,0,0-.2646-3.3043,8.6968,8.6968,0,0,1-.2134-3.1966c.3636-3.35,1.7767-3.1422,2.3036-2.9484.5177.19.8087.7009.9294,1.5618.097.6924-.039,3.996.9687,3.4015,1.1663-.688.7645-4.08.8371-5.2314a8.2272,8.2272,0,0,1,1.78-4.918,2.2405,2.2405,0,0,1,2.2849-.8733,2.0056,2.0056,0,0,1,1.0543,1.09,6.2133,6.2133,0,0,1-.1245,4.4295c-.181.5969-1.8665,3.4467-.2713,3.0188.381-.1022,3.3457-2.9747,3.9384-.3845.2087.9121-.7245,1.9687-2.24,3.327-.9463.8483-4.5331,3.18-4.2345,4.1821s2.2274-.8519,2.1791,1.0771c-.0271,1.0807-1.3461,1.996-2.2534,2.4982-.4316.239-.9095.3912-1.3246.6578-.4924.3162-1.0619,1.0162-.6,1.591.2016.2511.5512.35.7445.6079a.9165.9165,0,0,1,.04.9317,2.1224,2.1224,0,0,1-.6525.72,8.525,8.525,0,0,1-5.9585,1.4988,19.68,19.68,0,0,1-6.0068-1.77" fill="url(#linear-gradient-2)"/><g opacity="0.25"><path d="M170.3867,377.2841s-.9769,11.3641-7.0054,19.0193" fill="none" stroke="#fff" stroke-linecap="round" stroke-linejoin="round" stroke-width="0.7496"/><path d="M174.2429,384.302s-3.4655,3.3438-6.5264,4.0949" fill="none" stroke="#fff" stroke-linecap="round" stroke-linejoin="round" stroke-width="0.7496"/><path d="M163.9827,382.9077c-.0135,1.772.3458,6.6767,2.2514,8.8608" fill="none" stroke="#fff" stroke-linecap="round" stroke-linejoin="round" stroke-width="0.7496"/><path d="M170.1558,392.6512s-1.3483,1.4382-5.8821,2.441" fill="none" stroke="#fff" stroke-linecap="round" stroke-linejoin="round" stroke-width="0.7496"/><path d="M167.2079,397.8967a7.3083,7.3083,0,0,1-4.5629-.3511" fill="none" stroke="#fff" stroke-linecap="round" stroke-linejoin="round" stroke-width="0.7496"/></g><path d="M159.0432,394.3367c.2358-1.3358,2.6962-9.733,7.0137-7.5031,2.5646,1.3246,2.1034,6.2019-1.9025,9.8867a6.0939,6.0939,0,0,1,2.7671-1.8358,2.1381,2.1381,0,0,1,1.7231.5526,2.0212,2.0212,0,0,1,.5178,1.4455,5.69,5.69,0,0,1-2.5344,4.8669,6.8031,6.8031,0,0,1,2.6649-1.2018,1.2392,1.2392,0,0,1,1.0376.4525c.1655.3186.1539,1.5124-1.7965,2.404,7.95-1.5079,8.4141,1.8811,5.5563,1.8811H155.2038" fill="#fada8a"/><ellipse cx="142.5989" cy="407.5125" rx="22.2437" ry="2.8421" fill="#2e5175" opacity="0.1"/><path d="M128.942,357.9794c3.5484,17.51,9.9632,26.7466,15.5114,26.0875L131.459,319.945C130.35,323.9368,125.7309,342.1344,128.942,357.9794Z" fill="#f4cf7a"/><path d="M131.69,319.1419s-.0858.2821-.2306.8031l12.9944,64.1218c.1278-.0153.2556-.0295.3822-.0552,5.633-1.1415,8.1351-12.2527,4.505-30.1661S131.69,319.1419,131.69,319.1419Z" fill="#fada8a"/><path d="M141.8173,369.5683q-1.3295-6.4688-2.6416-12.9411-2.6384-12.9423-5.444-25.85a.0761.0761,0,0,0-.149.03q1.658,8.7682,3.3863,17.5229a35.64,35.64,0,0,0-6.4-4.1718c-.1163-.0553-.2365.1262-.14.2117a36.6331,36.6331,0,0,0,6.6344,4.4373c.5207,2.6436,1.0366,5.2881,1.5687,7.9295q1.304,6.4738,2.605,12.9484c.8574,4.2915,1.4724,8.7279,2.6764,12.934a.2419.2419,0,0,0,.474-.096C143.8591,378.1813,142.6982,373.8546,141.8173,369.5683Z" fill="#2e5175"/><path d="M140.5089,364.209a74.51,74.51,0,0,0-10.6979-7.06.083.083,0,0,0-.0916.1382,74.4936,74.4936,0,0,0,10.6674,7.1055A.1105.1105,0,0,0,140.5089,364.209Z" fill="#2e5175"/><path d="M144.2449,348.0644c-1.0239,1.3646-1.991,2.7707-2.9735,4.1654a21.7931,21.7931,0,0,0-2.4359,3.9136.1252.1252,0,0,0,.2006.1328,21.7752,21.7752,0,0,0,2.6564-3.7673c.9021-1.4478,1.8208-2.8861,2.6791-4.36A.076.076,0,0,0,144.2449,348.0644Z" fill="#2e5175"/><path d="M147.3618,364.5091a65.2134,65.2134,0,0,0-4.9577,7.34.1383.1383,0,0,0,.23.1528,65.1946,65.1946,0,0,0,4.831-7.4244A.0622.0622,0,0,0,147.3618,364.5091Z" fill="#2e5175"/><path d="M143.6356,377.3137a58.3443,58.3443,0,0,0-8.7986-5.7755.09.09,0,0,0-.0993.15,58.35,58.35,0,0,0,8.7453,5.8559A.1382.1382,0,0,0,143.6356,377.3137Z" fill="#2e5175"/><path d="M149.2166,357.429c-5.4349,13.85-5.1244,23.21-.9463,25.2575l19.9025-50.7195C165.5921,334.2571,154.1348,344.8958,149.2166,357.429Z" fill="#f4cf7a"/><path d="M168.6973,331.51s-.1875.1585-.5245.4574L148.27,382.6865c.0961.0471.192.095.2923.1343,4.4556,1.7484,11.2291-4.8912,16.7892-19.06S168.6973,331.51,168.6973,331.51Z" fill="#fada8a"/><path d="M152.9816,371.3548q1.9948-5.125,4.0035-10.2447,4.0063-10.2444,7.88-20.54a.0633.0633,0,0,0-.1178-.0462q-2.8049,6.8818-5.5543,13.7857a29.6676,29.6676,0,0,0-2.5894-5.8109.11.11,0,0,0-.1939.0846,30.5,30.5,0,0,0,2.6337,6.1027c-.8311,2.0843-1.666,4.1669-2.488,6.2548q-2.0147,5.1173-4.0323,10.2335c-1.3406,3.389-2.9164,6.77-3.9759,10.2557a.2015.2015,0,0,0,.3749.1471C150.5156,378.3016,151.66,374.7509,152.9816,371.3548Z" fill="#2e5175"/><path d="M154.49,367.0152a62.0464,62.0464,0,0,0-4.29-9.7738.0691.0691,0,0,0-.1265.0552,62.053,62.053,0,0,0,4.2479,9.7923A.0921.0921,0,0,0,154.49,367.0152Z" fill="#2e5175"/><path d="M164.4017,357.4134c-1.3331.4915-2.6451,1.0376-3.9628,1.5688a18.1455,18.1455,0,0,0-3.473,1.6358.1042.1042,0,0,0,.08.1836,18.12,18.12,0,0,0,3.5611-1.4337c1.2855-.6046,2.5783-1.1953,3.8453-1.8383A.0634.0634,0,0,0,164.4017,357.4134Z" fill="#2e5175"/><path d="M159.1467,370.3234a54.2956,54.2956,0,0,0-6.7859,2.8922.1151.1151,0,0,0,.092.2108,54.2964,54.2964,0,0,0,6.7354-3.0082A.0518.0518,0,0,0,159.1467,370.3234Z" fill="#2e5175"/><path d="M150.7516,377.5939a48.5916,48.5916,0,0,0-3.5423-8.0172.0749.0749,0,0,0-.1371.06,48.5756,48.5756,0,0,0,3.4685,8.0493A.1151.1151,0,0,0,150.7516,377.5939Z" fill="#2e5175"/><path d="M119.7992,365.9917c5.7142,12.0849,12.0288,17.6458,15.9413,16.1732L114.8151,337.91C114.724,341.009,114.6284,355.0562,119.7992,365.9917Z" fill="#f4cf7a"/><path d="M114.8388,337.2857s-.0118.22-.0237.6248L135.74,382.1649c.09-.0339.18-.0671.2677-.1085,3.8876-1.8382,3.7151-10.3583-2.1306-22.7215S114.8388,337.2857,114.8388,337.2857Z" fill="#fada8a"/><path d="M131.2283,372.1044q-2.1245-4.4613-4.237-8.928-4.2347-8.93-8.5849-17.8037a.0569.0569,0,0,0-.1027.0487q2.7749,6.0728,5.5985,12.1232a26.6644,26.6644,0,0,0-5.3964-1.8843.0989.0989,0,0,0-.064.1789,27.3993,27.3993,0,0,0,5.6144,2.0351c.8518,1.8273,1.7,3.656,2.56,5.48q2.1069,4.4695,4.2117,8.94c1.3916,2.964,2.6328,6.0767,4.2611,8.9166a.181.181,0,0,0,.3271-.1547C134.2544,377.9957,132.636,375.06,131.2283,372.1044Z" fill="#2e5175"/><path d="M129.3179,368.4454a55.7456,55.7456,0,0,0-9.0361-3.2123.0621.0621,0,0,0-.0418.1168,55.7517,55.7517,0,0,0,9.0222,3.2511A.0827.0827,0,0,0,129.3179,368.4454Z" fill="#2e5175"/><path d="M129.14,356.0478c-.4994,1.1748-.95,2.3695-1.414,3.5586a16.3059,16.3059,0,0,0-1.0686,3.28.0936.0936,0,0,0,.1695.0605,16.2877,16.2877,0,0,0,1.2549-3.2126c.3961-1.2133.8058-2.4229,1.1653-3.6476A.0569.0569,0,0,0,129.14,356.0478Z" fill="#2e5175"/><path d="M134.35,367.436a48.8,48.8,0,0,0-2.2868,6.22.1034.1034,0,0,0,.1946.07,48.7711,48.7711,0,0,0,2.18-6.2588A.0466.0466,0,0,0,134.35,367.436Z" fill="#2e5175"/><path d="M133.9367,377.4055a43.6583,43.6583,0,0,0-7.4264-2.62.0672.0672,0,0,0-.0452.1265A43.652,43.652,0,0,0,133.867,377.6.1034.1034,0,0,0,133.9367,377.4055Z" fill="#2e5175"/><path d="M161.8241,394.6906,161.83,378.71l-38.6041-.0154-.0008,2.0838L150.06,407.6338A13.01,13.01,0,0,0,161.8241,394.6906Z" fill="#ced1d3"/><path d="M123.2254,381.2614l-.0055,13.8971a13.0113,13.0113,0,0,0,13.0062,13.0164l12.5814.005c.4228,0,.84-.0234,1.2524-.0628Z" fill="#e2e2e2"/><ellipse cx="366.1114" cy="407.1614" rx="20.5246" ry="2.1653" fill="#eae8ea"/><path d="M344.8524,383.5037c-1.086-2.2769-2.1964-4.6618-2.1345-7.1838a31.3263,31.3263,0,0,1,.5759-7.19,18.9246,18.9246,0,0,0,.4644-6.956c-.7912-7.29-3.8662-6.8375-5.0128-6.4159-1.1266.4144-1.76,1.5253-2.0224,3.3987-.2112,1.5067.0849,8.6954-2.108,7.4019-2.5379-1.4972-1.6635-8.8774-1.8215-11.3838-.2364-3.7492-1.3272-7.8444-3.8741-10.7019-1.2552-1.4083-3.2-2.5487-4.972-1.9a4.3643,4.3643,0,0,0-2.2942,2.3724c-1.43,3.0869-.6711,6.5322.2709,9.6388.3939,1.2989,4.0616,7.5.59,6.569-.829-.2224-7.28-6.4731-8.57-.8367-.4542,1.9849,1.5766,4.284,4.8742,7.24,2.0593,1.8459,9.8644,6.92,9.2146,9.1005s-4.8469-1.8539-4.7418,2.3438c.059,2.3517,2.9292,4.3434,4.9035,5.4362.9392.52,1.9791.8512,2.8824,1.4313,1.0715.688,2.3108,2.2112,1.3063,3.4622-.4388.5464-1.1995.7623-1.62,1.3229a1.9944,1.9944,0,0,0-.0867,2.0275,4.6185,4.6185,0,0,0,1.42,1.5678c3.6173,2.78,8.4227,3.6752,12.9661,3.2614a42.8241,42.8241,0,0,0,13.0711-3.8521" fill="#e2e2e2"/><g opacity="0.25"><path d="M325.7354,346.6731s2.1258,24.7289,15.2441,41.3871" fill="none" stroke="#fff" stroke-linecap="round" stroke-linejoin="round" stroke-width="0.7496"/><path d="M317.344,361.9445s7.5411,7.2763,14.2018,8.9106" fill="none" stroke="#fff" stroke-linecap="round" stroke-linejoin="round" stroke-width="0.7496"/><path d="M339.6708,358.91c.0295,3.856-.7525,14.5289-4.8992,19.2817" fill="none" stroke="#fff" stroke-linecap="round" stroke-linejoin="round" stroke-width="0.7496"/><path d="M326.2378,380.1127s2.9339,3.13,12.8,5.3117" fill="none" stroke="#fff" stroke-linecap="round" stroke-linejoin="round" stroke-width="0.7496"/><path d="M332.6525,391.5273a15.9033,15.9033,0,0,0,9.9291-.7641" fill="none" stroke="#fff" stroke-linecap="round" stroke-linejoin="round" stroke-width="0.7496"/></g><path d="M350.4193,383.78c-.5132-2.9068-5.867-21.18-15.2623-16.3273-5.5808,2.8824-4.5772,13.4957,4.14,21.514-1.7109-1.6549-3.6867-3.5313-6.0214-3.9949a4.6526,4.6526,0,0,0-3.75,1.2025,4.3983,4.3983,0,0,0-1.1267,3.1454,12.3822,12.3822,0,0,0,5.5151,10.5907c-1.9279-1.0772-3.5986-2.4261-5.7991-2.6151a2.6965,2.6965,0,0,0-2.2578.9847c-.36.6932-.3349,3.2911,3.9093,5.2313-17.3-3.2813-18.31,4.0933-12.0909,4.0933h41.0982" fill="url(#linear-gradient-3)"/><path d="M375.6171,388.0113a13.0909,13.0909,0,0,0,1.7521-5.84,25.23,25.23,0,0,0-.4727-5.8455,15.2422,15.2422,0,0,1-.3812-5.655c.6495-5.9263,3.1735-5.5587,4.1147-5.2159.9248.3369,1.4446,1.24,1.66,2.763.1733,1.2249-.07,7.0692,1.73,6.0175,2.0832-1.2172,1.3655-7.2171,1.4952-9.2548a14.47,14.47,0,0,1,3.18-8.7c1.03-1.1449,2.6269-2.072,4.0812-1.545a3.5639,3.5639,0,0,1,1.8832,1.9287c1.1735,2.51.5509,5.31-.2223,7.8361-.3233,1.056-3.334,6.0974-.4846,5.34.68-.1808,5.9761-5.2625,7.0347-.68.3728,1.6137-1.2942,3.4828-4.001,5.8858-1.69,1.5006-8.0971,5.6261-7.5637,7.3985s3.9785-1.5071,3.8923,1.9055c-.0484,1.9119-2.4044,3.5311-4.025,4.42-.771.4227-1.6245.692-2.366,1.1636-.88.5594-1.8968,1.7977-1.0722,2.8147.36.4442.9846.62,1.33,1.0755a1.6081,1.6081,0,0,1,.0712,1.6483,3.7677,3.7677,0,0,1-1.1655,1.2746,15.34,15.34,0,0,1-10.6432,2.6514,35.4074,35.4074,0,0,1-10.7293-3.1316" fill="#e2e2e2"/><g opacity="0.25"><path d="M391.3092,358.069s-1.7449,20.104-12.513,33.6467" fill="none" stroke="#fff" stroke-linecap="round" stroke-linejoin="round" stroke-width="0.7496"/><path d="M398.1971,370.4843s-6.19,5.9155-11.6574,7.2441" fill="none" stroke="#fff" stroke-linecap="round" stroke-linejoin="round" stroke-width="0.7496"/><path d="M379.87,368.0175c-.0242,3.1348.6177,11.8116,4.0215,15.6755" fill="none" stroke="#fff" stroke-linecap="round" stroke-linejoin="round" stroke-width="0.7496"/><path d="M390.8968,385.2545s-2.4083,2.5443-10.5066,4.3183" fill="none" stroke="#fff" stroke-linecap="round" stroke-linejoin="round" stroke-width="0.7496"/><path d="M385.6313,394.5343a13.1733,13.1733,0,0,1-8.15-.6212" fill="none" stroke="#fff" stroke-linecap="round" stroke-linejoin="round" stroke-width="0.7496"/></g><path d="M371.0475,388.2363c.4212-2.3632,4.8159-17.2185,12.528-13.2736,4.581,2.3433,3.7572,10.9717-3.3982,17.49,1.4043-1.3454,3.0262-2.8709,4.9426-3.2478a3.843,3.843,0,0,1,3.0778.9776,3.5553,3.5553,0,0,1,.9248,2.5571,10.0388,10.0388,0,0,1-4.527,8.61c1.5825-.8758,2.9539-1.9724,4.76-2.126a2.2229,2.2229,0,0,1,1.8533.8006c.2956.5636.2749,2.6756-3.2089,4.2529,14.2009-2.6676,15.0292,3.3277,9.9247,3.3277H364.1895" fill="url(#linear-gradient-4)"/><path d="M348.4185,375.0982c-.029,20.9651,5.1792,33.09,11.7128,33.634l.1062-76.7736C358.0251,336.2877,348.4448,356.1268,348.4185,375.0982Z" fill="#f4cf7a"/><path d="M360.6912,331.0893s-.1649.3041-.4537.8693l-.1062,76.7736c.15.0125.3007.0261.4524.0263,6.7444.0093,12.2286-12.1788,12.2583-33.6266S360.6912,331.0893,360.6912,331.0893Z" fill="#fada8a"/><path d="M360.5024,391.4436q-.0105-7.7493,0-15.4988.0036-15.5-.1933-30.9982a.0892.0892,0,0,0-.1783,0q-.1516,10.47-.2188,20.9415a41.8042,41.8042,0,0,0-6.3789-6.2982c-.1207-.0908-.3017.09-.2111.21a42.9775,42.9775,0,0,0,6.5867,6.6585c-.0217,3.1618-.0493,6.3233-.0572,9.4851q-.0195,7.7494-.0432,15.4988c-.0212,5.1354-.3553,10.38.0421,15.4991a.2839.2839,0,0,0,.5674.0007C360.8291,401.8257,360.5094,396.5787,360.5024,391.4436Z" fill="#2e5175"/><path d="M360.2558,384.9748a87.4289,87.4289,0,0,0-10.6433-10.6271.0973.0973,0,0,0-.1378.1373,87.4381,87.4381,0,0,0,10.5975,10.6729A.13.13,0,0,0,360.2558,384.9748Z" fill="#2e5175"/><path d="M368.34,367.2892c-1.4975,1.3288-2.9393,2.7185-4.3962,4.0914a25.5686,25.5686,0,0,0-3.7191,3.9282.1468.1468,0,0,0,.1993.2,25.5333,25.5333,0,0,0,3.9383-3.7082c1.377-1.4529,2.7708-2.8911,4.1038-4.3849A.0893.0893,0,0,0,368.34,367.2892Z" fill="#2e5175"/><path d="M368.0646,386.9279a76.5073,76.5073,0,0,0-7.4225,7.2763.1622.1622,0,0,0,.2289.23,76.5084,76.5084,0,0,0,7.2968-7.4026A.073.073,0,0,0,368.0646,386.9279Z" fill="#2e5175"/><path d="M360.7758,400.7758a68.47,68.47,0,0,0-8.7611-8.7052.1055.1055,0,0,0-.1492.1489,68.4473,68.4473,0,0,0,8.6807,8.7851A.1622.1622,0,0,0,360.7758,400.7758Z" fill="#2e5175"/><path d="M367.4669,384.85c-.02,14.2477,3.52,22.4876,7.96,22.8574l.0722-52.1748C373.9955,358.4748,367.4848,371.9574,367.4669,384.85Z" fill="#f4cf7a"/><path d="M375.8074,354.942s-.112.2067-.3084.5908l-.0722,52.1748c.1022.0085.2044.0178.3075.0179,4.5835.0063,8.31-8.2766,8.3306-22.8524S375.8074,354.942,375.8074,354.942Z" fill="#fada8a"/><path d="M375.679,395.9584q-.0072-5.2664,0-10.5329.0024-10.5336-.1314-21.0661a.0606.0606,0,0,0-.1212,0q-.103,7.1156-.1487,14.2317a28.41,28.41,0,0,0-4.3351-4.28c-.082-.0617-.205.0609-.1434.143a29.2072,29.2072,0,0,0,4.4763,4.5251c-.0147,2.1487-.0335,4.2972-.0389,6.446q-.0132,5.2665-.0294,10.5329c-.0144,3.49-.2415,7.0545.0286,10.5331a.1929.1929,0,0,0,.3856,0C375.901,403.014,375.6838,399.4482,375.679,395.9584Z" fill="#2e5175"/><path d="M375.5114,391.5623a59.4161,59.4161,0,0,0-7.2331-7.2221.0661.0661,0,0,0-.0936.0933,59.4224,59.4224,0,0,0,7.202,7.2532A.0882.0882,0,0,0,375.5114,391.5623Z" fill="#2e5175"/><path d="M381.0052,379.5432c-1.0177.903-1.9975,1.8474-2.9876,2.78a17.3763,17.3763,0,0,0-2.5275,2.67.1.1,0,0,0,.1355.1358,17.3522,17.3522,0,0,0,2.6764-2.52c.9358-.9874,1.883-1.9648,2.7889-2.98A.0607.0607,0,0,0,381.0052,379.5432Z" fill="#2e5175"/><path d="M380.8182,392.89a51.9938,51.9938,0,0,0-5.0443,4.945.11.11,0,0,0,.1555.156,51.9946,51.9946,0,0,0,4.9589-5.0308A.05.05,0,0,0,380.8182,392.89Z" fill="#2e5175"/><path d="M375.8648,402.3005a46.5316,46.5316,0,0,0-5.954-5.916.0717.0717,0,0,0-.1014.1012,46.5163,46.5163,0,0,0,5.8994,5.97A.11.11,0,0,0,375.8648,402.3005Z" fill="#2e5175"/><path d="M370.4467,138.6341a88.1064,88.1064,0,0,1,3.84,24.0962,94.8421,94.8421,0,0,1-2.7178,24.2778c-3.8154,15.9129-11.4575,30.7926-21.4207,43.7789a152.9529,152.9529,0,0,1-35.791,33.5307,177.4381,177.4381,0,0,1-93.0952,30.2118,152.1369,152.1369,0,0,1-49.4382-6.5413,130.3049,130.3049,0,0,1-23.2261-9.7941,107.2114,107.2114,0,0,1-20.7766-14.5589,99.0793,99.0793,0,0,1-16.6538-19.35,88.8714,88.8714,0,0,1-14.814-48.509,99.0718,99.0718,0,0,1,3.01-25.3538,106.4432,106.4432,0,0,1,9.0945-23.6871,130.334,130.334,0,0,1,13.8015-21.097,141.3573,141.3573,0,0,1,17.3577-18.098A158.2548,158.2548,0,0,1,159.621,92.596a177.3642,177.3642,0,0,1,94.1123-26.9176,152.8091,152.8091,0,0,1,48.417,7.8382c15.5166,5.2112,30.1675,13.2864,42.2153,24.3609A94.8456,94.8456,0,0,1,360.1771,116.5,88.1114,88.1114,0,0,1,370.4467,138.6341Zm0,0a88.0256,88.0256,0,0,0-10.4133-22.0406,94.5829,94.5829,0,0,0-15.8979-18.4616,102.2788,102.2788,0,0,0-19.949-13.9713A125.86,125.86,0,0,0,301.76,74.7173a137.2975,137.2975,0,0,0-23.7544-5.1389,153.7475,153.7475,0,0,0-24.238-1.181,172.9394,172.9394,0,0,0-90.6836,29.4855,148.5659,148.5659,0,0,0-34.71,32.5394,113.2205,113.2205,0,0,0-20.5986,42.0855,90.3243,90.3243,0,0,0-2.5857,23.1169,84.1288,84.1288,0,0,0,3.6367,22.8609,86.4806,86.4806,0,0,0,24.7976,38.734c11.4941,10.5918,25.5881,18.3788,40.5884,23.4224a148.1338,148.1338,0,0,0,46.9709,7.6168,172.864,172.864,0,0,0,91.7-26.1912A153.7684,153.7684,0,0,0,332.3312,247.55a137.1055,137.1055,0,0,0,16.8328-17.5329,125.85,125.85,0,0,0,13.33-20.3589,102.2266,102.2266,0,0,0,8.7441-22.7318,94.59,94.59,0,0,0,2.8784-24.1929A88.0314,88.0314,0,0,0,370.4467,138.6341Z" fill="url(#linear-gradient-5)"/><polygon points="124.259 84.449 134.777 109.506 164.39 112.522 153.171 87.848 124.259 84.449" fill="#e8e8ea"/><polygon points="142.628 62.025 124.259 84.449 153.171 87.848 171.208 64.612 142.628 62.025" fill="#f2f2f3"/><polygon points="182.082 90.264 171.208 64.612 153.171 87.848 164.39 112.522 182.082 90.264" fill="#ddd"/><polygon points="355.246 187.279 381.881 189.716 398.184 165.376 371.559 163.725 355.246 187.279" fill="#f2f2f3"/><polygon points="344.247 160.955 355.246 187.279 371.559 163.725 359.7 137.314 344.247 160.955" fill="#e8e8ea"/><polygon points="387.017 139.717 359.7 137.314 371.559 163.725 398.184 165.376 387.017 139.717" fill="#ddd"/><polygon points="277.817 60.968 277.092 75.983 291.153 84.55 291.437 69.56 277.817 60.968" fill="#e8e8ea"/><polygon points="292.333 54.157 277.817 60.968 291.437 69.56 305.981 62.264 292.333 54.157" fill="#f2f2f3"/><polygon points="305.291 77.66 305.981 62.264 291.437 69.56 291.153 84.55 305.291 77.66" fill="#ddd"/><circle cx="303.6296" cy="267.4195" r="16.1541" fill="#e8e8ea"/><circle cx="120.3551" cy="236.7365" r="27.2966" fill="#f1f2f2"/></svg>