<svg id="Layer_1" data-name="Layer 1" xmlns="http://www.w3.org/2000/svg" xmlns:xlink="http://www.w3.org/1999/xlink" width="170" height="120" viewBox="0 0 170 120"><defs><clipPath id="clip-path"><path id="_Rectangle_" data-name="&lt;Rectangle&gt;" d="M39.6764,11.1376h80.9175a.3994.3994,0,0,1,.3994.3994V71.3248a.3994.3994,0,0,1-.3994.3994H39.6765a.3994.3994,0,0,1-.3994-.3994V11.5369A.3993.3993,0,0,1,39.6764,11.1376Z" fill="#e3e3e5"/></clipPath></defs><title>django-python</title><path d="M69.9671,11.2123A74.1285,74.1285,0,0,0,98.46,5.548c5.37-2.2615,18.0813-3.5845,26.2761-1.9721,7.1141,1.4,24.0411,7.6624,16.7416,28.3774S125.02,54.7571,131.6607,68.3659c4.8773,9.9946,13.304,19.9442,5.8021,27.8489-11.6664,12.2929-59.3747,30.2787-83.9868,15.1394S23.6614,90.795,31.2457,67.4313,19.6045,41.0805,29.777,23.79C35.8783,13.42,55.3547,11.2712,69.9671,11.2123Z" fill="#f1f3f7"/><path d="M110.4082,17.23c-5.88,9.4108-6.9339,16.3156-4.1508,18.3885L127.7912,1.1565C125.5857,2.4823,115.7293,8.714,110.4082,17.23Z" fill="#f4cf7a"/><path d="M128.2383.8929s-.1592.0905-.4471.2636L106.2573,35.6183c.0641.0477.1278.0959.1959.1384,3.0274,1.8918,8.9022-2.0491,14.918-11.6765S128.2383.8929,128.2383.8929Z" fill="#fbdb8a"/><path d="M111.2625,27.9552q2.1641-3.4846,4.3374-6.9633,4.3393-6.9624,8.5883-13.98a.0472.0472,0,0,0-.08-.05q-2.9982,4.6616-5.9589,9.3472a22.1366,22.1366,0,0,0-1.1033-4.6149.0821.0821,0,0,0-.1537.0355,22.7533,22.7533,0,0,0,1.0957,4.8348q-1.3419,2.1216-2.68,4.2453-2.1776,3.4759-4.357,6.9509c-1.4468,2.3012-3.0647,4.5642-4.3187,6.9749a.15.15,0,0,0,.2547.1592C108.5037,32.7108,109.8286,30.2641,111.2625,27.9552Z" fill="#2e5175"/><path d="M121.5435,19.2968c-1.0446.1779-2.0813.3987-3.12.6078a13.536,13.536,0,0,0-2.77.7239.0777.0777,0,0,0,.0337.1456,13.5249,13.5249,0,0,0,2.8071-.5638c1.0252-.2674,2.0539-.5234,3.0707-.8215A.0472.0472,0,0,0,121.5435,19.2968Z" fill="#2e5175"/><path d="M119.7845,25.6429c-8.3673,3.9229-12.2257,8.2756-11.2166,10.9836l30.6407-14.3657C137.0668,22.1909,127.3561,22.0931,119.7845,25.6429Z" fill="#f4cf7a"/><path d="M139.64,22.2787s-.1522-.0087-.4319-.0178L108.5679,36.6265c.0232.0623.046.1249.0744.1854,1.262,2.6917,7.1524,2.5917,15.7123-1.4215S139.64,22.2787,139.64,22.2787Z" fill="#fbdb8a"/><path d="M115.533,33.53q3.0888-1.4585,6.1815-2.9088,6.1827-2.9074,12.3272-5.8945a.0393.0393,0,0,0-.0334-.0712q-4.2045,1.9045-8.3935,3.8428a18.4269,18.4269,0,0,0,1.3149-3.7262.0684.0684,0,0,0-.1236-.0447,18.9441,18.9441,0,0,0-1.42,3.8767c-1.2651.5847-2.5312,1.167-3.7938,1.7573q-3.0945,1.4466-6.19,2.8914c-2.0522.9553-4.2069,1.8064-6.1738,2.9255a.1251.1251,0,0,0,.1062.2265C111.4535,35.6087,113.4862,34.4966,115.533,33.53Z" fill="#2e5175"/><path d="M118.0668,32.2177a38.5379,38.5379,0,0,0,2.2411-6.2394.0429.0429,0,0,0-.0806-.0292,38.542,38.542,0,0,0-2.268,6.23A.0572.0572,0,0,0,118.0668,32.2177Z" fill="#2e5175"/><path d="M126.6377,32.1229c-.811-.3479-1.6359-.6622-2.4569-.9856a11.27,11.27,0,0,0-2.2647-.7462.0647.0647,0,0,0-.0423.117,11.2548,11.2548,0,0,0,2.2181.8749c.8379.2766,1.6731.5626,2.519.8139A.0394.0394,0,0,0,126.6377,32.1229Z" fill="#2e5175"/><path d="M118.7533,35.6987a33.7237,33.7237,0,0,0-4.2951-1.5949.0715.0715,0,0,0-.0486.1344,33.7243,33.7243,0,0,0,4.3219,1.5211A.0322.0322,0,0,0,118.7533,35.6987Z" fill="#2e5175"/><path d="M111.8622,35.39a30.1809,30.1809,0,0,0,1.8278-5.128.0465.0465,0,0,0-.0874-.0316,30.171,30.171,0,0,0-1.8748,5.111A.0715.0715,0,0,0,111.8622,35.39Z" fill="#2e5175"/><path d="M102.8631,16.9365c-2.5863,7.89-2.1148,13.0947.2783,14.1021l9.4707-28.8923C111.2474,3.5045,105.2033,9.7971,102.8631,16.9365Z" fill="#f4cf7a"/><path d="M112.89,1.8748s-.0994.0943-.2776.2716l-9.4707,28.8923c.0551.0232.11.0468.1671.0654,2.5381.832,6.1-3.0832,8.7459-11.1546S112.89,1.8748,112.89,1.8748Z" fill="#fbdb8a"/><path d="M105.4048,24.5751q.9479-2.9191,1.9037-5.8354,1.9054-5.8352,3.735-11.6947a.0353.0353,0,0,0-.0671-.0219q-1.3432,3.9235-2.6547,7.8577a16.5616,16.5616,0,0,0-1.6281-3.1549.0614.0614,0,0,0-.1053.0533,17.0181,17.0181,0,0,0,1.662,3.3161c-.3965,1.1878-.7953,2.3747-1.1867,3.5641q-.9594,2.9152-1.92,5.83c-.6387,1.9309-1.4089,3.8645-1.888,5.8406a.1124.1124,0,0,0,.2136.07C104.2525,28.524,104.7767,26.5093,105.4048,24.5751Z" fill="#2e5175"/><path d="M106.1066,22.1092a34.6243,34.6243,0,0,0-2.7019-5.3085.0385.0385,0,0,0-.0687.0348,34.6282,34.6282,0,0,0,2.679,5.32A.0514.0514,0,0,0,106.1066,22.1092Z" fill="#2e5175"/><path d="M111.3227,16.4436c-.727.3163-1.4406.6624-2.1577,1a10.1278,10.1278,0,0,0-1.8828,1.0221.0582.0582,0,0,0,.0506.1,10.1165,10.1165,0,0,0,1.9382-.9124c.6969-.3779,1.3984-.7481,2.0836-1.1468A.0354.0354,0,0,0,111.3227,16.4436Z" fill="#2e5175"/><path id="_Rectangle_2" data-name="&lt;Rectangle&gt;" d="M39.6764,11.1376h80.9175a.3994.3994,0,0,1,.3994.3994V71.3248a.3994.3994,0,0,1-.3994.3994H39.6765a.3994.3994,0,0,1-.3994-.3994V11.5369A.3993.3993,0,0,1,39.6764,11.1376Z" fill="#e3e3e5"/><g clip-path="url(#clip-path)"><rect x="41.6857" y="16.0733" width="76.899" height="53.9193" rx="0.2924" ry="0.2924" fill="#fff"/></g><path d="M120.9933,11.1517H40.1219a.8473.8473,0,0,0-.8448.8448v3.1991h81.7162Z" fill="#edeef4"/><circle cx="44.2675" cy="13.2223" r="1.1717" transform="matrix(0.0041, -1, 1, 0.0041, 30.8639, 57.4352)" fill="#d3d3d3"/><circle cx="47.9128" cy="13.2372" r="1.1717" transform="translate(34.4793 61.0953) rotate(-89.7652)" fill="#d3d3d3"/><circle cx="51.558" cy="13.2521" r="1.1717" transform="translate(38.0947 64.7554) rotate(-89.7652)" fill="#d3d3d3"/><rect x="45.6373" y="18.0952" width="23.5583" height="16.6148" rx="0.7584" ry="0.7584" fill="#edeef4"/><rect x="45.6373" y="36.73" width="23.5583" height="1.3652" fill="#edeef4"/><rect x="45.6373" y="40.0457" width="23.5583" height="1.3652" fill="#edeef4"/><rect x="94.5243" y="18.949" width="15.4276" height="9.7879" rx="0.3195" ry="0.3195" fill="#edeef4"/><rect x="76.6505" y="18.949" width="15.4276" height="9.7879" rx="0.3195" ry="0.3195" fill="#edeef4"/><path d="M109.29,31.38H77.3125a.662.662,0,0,0-.662.662v8.4639a.662.662,0,0,0,.662.662H109.29a.662.662,0,0,0,.662-.662V32.0424A.662.662,0,0,0,109.29,31.38Z" fill="#edeef4"/><rect x="137.0145" y="88.9582" width="0.939" height="28.7537" transform="translate(274.3101 207.5398) rotate(-179.6367)" fill="#524e64"/><path d="M133.5871,88.51l8.4168.0534a2.24,2.24,0,0,0,2.1995-2.2782h0a2.24,2.24,0,0,0-2.17-2.3059l-8.4168-.0534a2.24,2.24,0,0,0-2.1991,2.2782h0A2.24,2.24,0,0,0,133.5871,88.51Z" fill="#524e64"/><rect x="133.5345" y="88.5349" width="8.0872" height="0.8473" transform="translate(274.5893 178.7876) rotate(-179.6367)" fill="#2a272d"/><path d="M141.84,43.763q-1.3539,5.7878-2.7077,11.5756-.3173-.0563-.6345-.1112,1.33-5.7919,2.6607-11.5835.341.0592.6815.1192" fill="#e2ebf4"/><path d="M139.78,49.6424q-.0612.2677-.1231.5356a6.2434,6.2434,0,0,0,.6472.148q.0433-.1854.0871-.3706c.012-.053.0245-.106.037-.1589a5.4214,5.4214,0,0,1-.6482-.1541" fill="#d2dcf7"/><path d="M137.8119,42.2087c-1.49.3313-2.7842,2.5747-2.9269,3.9a6.1467,6.1467,0,0,0,6.2705,6.3443,5.3087,5.3087,0,0,0,5.5608-6.0546c-.2485-1.2262-1.0971-3.9576-3.3605-4.2169A20.2232,20.2232,0,0,0,137.8119,42.2087Z" fill="#3d4177"/><path d="M146.3868,46.8969a.8617.8617,0,0,0-.1028-.0556,6.4963,6.4963,0,0,0-12.6026-.1926.9.9,0,0,0-.5355.1643,1.7636,1.7636,0,0,0-.0186,2.9388.9257.9257,0,0,0,.6964.1652c.5756,1.511,2.3959,3.9137,5.1388,4.104a3.01,3.01,0,0,1-.4826,1.9172c-1.1744,1.59-1.3425,1.8325-1.3425,1.8325a1.64,1.64,0,0,0,.6955,2.4236,2.2752,2.2752,0,0,0,1.0431.2569,2.1285,2.1285,0,0,0,1.7591-.8463c.0216-.0307.23-.3237,1.29-1.7592a6.6675,6.6675,0,0,0,1.1115-4.3773,6.5346,6.5346,0,0,0,3.0433-3.5018.8777.8777,0,0,0,.2883-.131,1.7636,1.7636,0,0,0,.0186-2.9388Z" fill="#feadae"/><path d="M136.7189,59.07c0,.0161-.09.486-.22,1.242-.13.7615-.3117,1.8148-.4937,2.9812l-.2668,1.6583-4.5315,7.0319c.4172-5.6417,1.0812-12.7794,1.8732-15.472a1.8817,1.8817,0,0,1,.5825-.2558,2.2354,2.2354,0,0,1,1.1935.0076,2.597,2.597,0,0,1,1.7581,1.6223A2.2484,2.2484,0,0,1,136.7189,59.07Z" fill="#d6b97b"/><path d="M135.4439,56.1209c-.006-.0109-.006-.0109-.0121-.0056a2.0682,2.0682,0,0,0-.5115-.1653,2.5271,2.5271,0,0,0-1.1749.0358,2.2891,2.2891,0,0,0-.9779.5236c-.0067.0053-.0189.0107-.019.0216a1.4868,1.4868,0,0,0-.1525.3665c-.0637.2375-.8067,3.082-1.589,6.2562-.8207,3.2711-1.7,6.888-1.9593,8.3568-.538,3.062-6.0954,5.4918-8.1933,6.1707-.0324.01-.06.0265-.0912.0385a1.7962,1.7962,0,0,0-.197.0837,1.6856,1.6856,0,0,0-.1636.1024c-.0313.0209-.0649.0366-.0949.06l-.0295.0231-.0117.0094c-.4471.3525-2.1957,1.8588-1.9932,3.7069.0842.7719.1.9737.9407,1.1939a5.0549,5.0549,0,0,0,1.3173.1192c.9549.0034,1.5019-.2286,1.4113-1.0517-.0231-.2087-.46-2.1755-.062-2.5458,4.9436-1.7748,9.7159-2.5355,10.5886-7.4507.2336-1.3232,1.0226-4.5942,1.786-7.6873.859-3.4438,1.6916-6.6608,1.7109-6.7256A1.3821,1.3821,0,0,0,135.4439,56.1209Z" fill="#feadae"/><path d="M130.8142,62.6793l4.4385.7969L135.3661,63l.3435-1.44c.2414-1.0133.4717-1.926.6382-2.586s.2753-1.0682.2772-1.079a1.6781,1.6781,0,0,0-.0448-1.019,2.1659,2.1659,0,0,0-1.6556-1.3333,2.5681,2.5681,0,0,0-1.178.0371,2.0987,2.0987,0,0,0-1.5376,1.43c-.0175.0664-.4439,1.6724-.9373,3.7529l-.3435,1.44Z" fill="#f4cf7a"/><polygon points="126.317 111.328 125.367 116.199 122.705 116.414 123.663 110.973 126.317 111.328" fill="#feadae"/><path d="M125.7355,115.8658a.2545.2545,0,0,0-.3939-.1354,1.9847,1.9847,0,0,1-1.4729.3583,1.1751,1.1751,0,0,1-1.084-.784.2605.2605,0,0,0-.3452-.1739l-4.9927,1.8656a1.1386,1.1386,0,0,0-.6158.62h0a.4053.4053,0,0,0,.3546.5673l8.16.0984a.5416.5416,0,0,0,.5362-.5726l-.06-1.5464a.2758.2758,0,0,0-.0135-.0755Z" fill="#473e73"/><polygon points="139.609 83.058 131.746 95.983 126.706 113.971 122.241 113.942 125.553 93.937 139.609 83.058" fill="#293882"/><polygon points="137.172 104.099 140.722 108.026 138.148 108.896 134.587 104.742 137.172 104.099" fill="#feadae"/><path d="M140.6045,107.4944a.26.26,0,0,0-.4208.02,1.8175,1.8175,0,0,1-1.189.8655,2.03,2.03,0,0,1-1.6982-.6184.2725.2725,0,0,0-.3925-.0335l-4.393,2.76a1.0329,1.0329,0,0,0-.29.7928h0a.4415.4415,0,0,0,.5757.39l8.6712-1.9319a.4993.4993,0,0,0,.2373-.72l-.8913-1.2829a.3067.3067,0,0,0-.0456-.0641Z" fill="#473e73"/><path d="M145.4616,79.677s.0456,4.9939-9.4915,7.8821l-6.6114,5.5057,10.1049,12.4408-4.5629,1.4663-12.288-12.019a2.5755,2.5755,0,0,1-.0652-3.4612l8.543-11.9058Z" fill="#0088cc"/><path d="M147.9542,57.0328c-1.038,5.01-2.27,18.115-1.8712,23.1887l-14.9925-.6357a62.2465,62.2465,0,0,1,.1162-7.6025c.4172-5.6417,1.0812-12.7794,1.8732-15.472.0125-.0379.0188-.0756.0318-.108a1.4075,1.4075,0,0,1,1.3929-.91l5.838.0883,7.0189.1062C148.29,55.8544,148.1152,56.2715,147.9542,57.0328Z" fill="#fbdb8a"/><path d="M149.6106,73.7683c.57-1.0463.45-3.6772.05-6.5309-.33-2.3109-.8279-4.7566-1.2317-6.59a1.7421,1.7421,0,0,0-2.0268-1.1887,1.5124,1.5124,0,0,0-1.3682,1.7468c.4854,2.1774.924,4.58,1.2042,6.614a18.2318,18.2318,0,0,1,.2989,4.51c-1.1318.7442-6.2347,2.3534-10.54,3.4652a1.7766,1.7766,0,0,0-.1909.0677c-.0338.0124-.0707.0218-.1028.0361a1.652,1.652,0,0,0-.2157.1183c-.0223.0136-.0463.0242-.0678.0388a1.6122,1.6122,0,0,0-.1891.156c-.0162.0149-.035.0283-.05.0441a1.4268,1.4268,0,0,0-.1457.1779c-.0147.02-.032.0376-.0451.058a1.4277,1.4277,0,0,0-.0964.1841c-.0126.0269-.0286.0525-.0391.08a1.2552,1.2552,0,0,0-.05.1837c-.0081.0334-.02.0655-.0244.0992a1.309,1.309,0,0,0-.0079.1853c0,.0363-.0043.0723-.0012.1087a1.3692,1.3692,0,0,0,.0367.1925c.0074.0311.0082.0618.0178.0925l.008.0249.0034.0137.0049.01a6.29,6.29,0,0,0,1.6877,2.6779,1.7493,1.7493,0,0,0,.4713.2847c.6474.2652-2.0614-1.0888-1.5325-1.5557.6678-.5892,1.8813-1.0694,2.6877-1.6388.0175-.0123-.0331-.0334-.0494-.0494C144.2218,76.2347,148.7605,75.3277,149.6106,73.7683Z" fill="#feadae"/><path d="M148.32,57.1081c.0213.3036.3485,3.2691.767,6.8584l-3.49-.209c-.3859-3.23-.692-6.1361-.7159-6.3791a5.5832,5.5832,0,0,1,1.8727-1.5213,2.162,2.162,0,0,1,.5452.0211c.004-.0066.004-.0066.0135.0021A1.5335,1.5335,0,0,1,148.32,57.1081Z" fill="#e5989b"/><path d="M117.961,81.4056a.538.538,0,0,0,.496.2993l18.3068.1161a.5383.5383,0,0,0,.5-.293.1252.1252,0,0,0-.1307-.1661l-19.039-.1207A.1256.1256,0,0,0,117.961,81.4056Z" fill="#e2e2e2"/><path d="M122.7186,81.4357a.5374.5374,0,0,0,.496.2993l18.3062.1161a.5383.5383,0,0,0,.5-.293.1252.1252,0,0,0-.1307-.1661l-19.039-.1207A.1252.1252,0,0,0,122.7186,81.4357Z" fill="#e2e2e2"/><path d="M130.6344,81.3207l0,.075a.17.17,0,0,0,.18.1574l3.112.02a.17.17,0,0,0,.1809-.1551l0-.075Z" fill="#e2e2e2"/><path d="M149.4815,63.4831l-2.4408.02-2.0911.02-.0073-.49-.0168-1.4687c-.01-1.0416-.032-1.97-.0557-2.6458-.0184-.6731-.0345-1.0987-.0369-1.1065a1.7181,1.7181,0,0,1,.1636-.7861,2.0362,2.0362,0,0,1,1.807-1.341,4.0162,4.0162,0,0,1,1.1245.2459,2.139,2.139,0,0,1,.4509.2116,1.9025,1.9025,0,0,1,.98,1.545c.0052.066.0694,1.7176.0949,3.8417l.02,1.4644Z" fill="#f4cf7a"/><path d="M144.8658,43.9665c-1.64,1.9639-11.2749,3.12-11.2468-1.318a1.717,1.717,0,0,1,.6757-1.3867s.0767.6707.4266.8654a13.8649,13.8649,0,0,1,3.303-1.2031s-.3208.6737.9019.529C142.4532,41.0357,147.5872,40.7073,144.8658,43.9665Z" fill="#3d4177"/><rect x="133.3937" y="110.7313" width="8.0872" height="0.8469" transform="translate(274.167 223.1788) rotate(-179.6367)" fill="#2a272d"/><polygon points="137.402 116.26 143.044 118.326 131.74 118.255 137.402 116.26" fill="#524e64"/><path d="M121.0954,81.26l15.0034.0951a.6428.6428,0,0,0,.637-.875l-2.4551-8.9193a1.2515,1.2515,0,0,0-1.1216-.8862L118.1558,70.58a.6426.6426,0,0,0-.637.8751l2.4545,8.9193A1.2528,1.2528,0,0,0,121.0954,81.26Z" fill="#0088cc"/><path d="M121.4233,81.2622l15.0039.0951a.6425.6425,0,0,0,.6365-.8751l-2.4545-8.9193a1.2528,1.2528,0,0,0-1.1222-.8862l-15.0033-.0951a.6428.6428,0,0,0-.637.875l2.455,8.9193A1.2515,1.2515,0,0,0,121.4233,81.2622Z" fill="#0088cc"/><path d="M121.3947,79.1211l-1.6107-5.8528a.99.99,0,0,1,.9609-1.2526l11.8229.075a.99.99,0,0,1,.9479.7272l1.6112,5.8528a.99.99,0,0,1-.9609,1.2526l-11.8235-.075A.99.99,0,0,1,121.3947,79.1211Z" fill="#0088cc"/><polygon points="83.427 82.44 75.811 118.176 75.187 118.167 81.237 82.416 83.427 82.44" fill="#e2e2e2"/><polygon points="93.738 82.505 100.9 118.335 101.524 118.334 95.928 82.509 93.738 82.505" fill="#e2e2e2"/><polygon points="125.805 82.709 118.188 118.444 117.565 118.435 123.615 82.685 125.805 82.709" fill="#e2e2e2"/><polygon points="136.115 82.774 143.278 118.603 143.902 118.602 138.305 82.778 136.115 82.774" fill="#e2e2e2"/><rect x="77.9899" y="82.3451" width="64.1663" height="1.2263" transform="translate(0.5283 -0.6963) rotate(0.3633)" fill="#e2e2e2"/><rect x="76.5341" y="81.3195" width="67.0884" height="1.6409" transform="translate(0.5231 -0.6964) rotate(0.3633)" fill="#e2e2e2"/><rect x="33.0756" y="57.1531" width="29.5171" height="13.7458" rx="2.5992" ry="2.5992" transform="translate(68.8371 -13.0863) rotate(51.9996)" fill="#d3d3d3"/><rect x="38.6116" y="52.7768" width="6.7587" height="7.979" transform="translate(60.8707 -11.272) rotate(51.9996)" fill="#f7f7f7"/><rect x="40.9315" y="66.5857" width="8.9064" height="0.7654" transform="translate(70.2144 -10.0252) rotate(51.9996)" fill="#f7f7f7"/><rect x="41.8865" y="66.9934" width="13.638" height="0.7654" transform="translate(71.8119 -12.4853) rotate(51.9996)" fill="#f7f7f7"/><rect x="43.7507" y="65.5369" width="13.638" height="0.7654" transform="translate(71.3807 -14.5142) rotate(51.9996)" fill="#f7f7f7"/><rect x="45.615" y="64.0804" width="13.638" height="0.7654" transform="translate(70.9494 -16.543) rotate(51.9996)" fill="#f7f7f7"/><path d="M30.888,57.1529c1.3837,1.6217,2.5381,5.4706,3.95,7.0673a52.3672,52.3672,0,0,0,9.0067,6.8064c.1434-.9955,2.2521-.3982,1.498-1.0637-2.3447-2.069-6.3847-4.1614-7.79-7.9846a72.8463,72.8463,0,0,0-4.3133-8.092" fill="#e5989b"/><path d="M25.0117,111.5459a15.9181,15.9181,0,0,0-.3474,3.0815,4.7841,4.7841,0,0,0,1.3233,1.6906c.6076.3684,1.9441.7917,2.0541.9552a.4119.4119,0,0,1-.063.5582,2.7477,2.7477,0,0,1-1.8784.5242c-1.8042-.2538-2.0092-1.0442-3.0592-1.1463-.1813-.0177-.51.2576-1.016.0137a1.1889,1.1889,0,0,1-.7275-1.1364,5.1458,5.1458,0,0,1,.75-1.9429,15.6755,15.6755,0,0,0,.4374-3.1069" fill="#feadae"/><path d="M29.0651,65.9518l-7.166.1761s-2.7839,3.9711-1.61,7.71a34.74,34.74,0,0,0,1.58,3.6121c.2909.814,2.4291,12.386,2.3105,13.2386s-1.0609,3.2528-1.3827,5.7609c-.3869,3.0165-.0753,12.8073-.3689,15.4123a4.2351,4.2351,0,0,0,2.4511.4491c.9478-7.5349,3.4193-17.6495,3.7463-21.4128A243.0171,243.0171,0,0,0,29.0651,65.9518Z" fill="#0088cc"/><path d="M28.4006,78.3569s-4.9818-10.573-5.9473-8.2491a4.8188,4.8188,0,0,0,1.4426,5.9292c1.1792,1.8881,3.852,12.6861,3.9935,14.9756.0735,1.1892-.003,2.3842.0583,3.5743a2.2252,2.2252,0,0,0,.0684.3513c.3182-1.7734.5262-3.3278.6088-4.2777a113.34,113.34,0,0,0-.0914-12.3135A1.12,1.12,0,0,0,28.4006,78.3569Z" fill="#293882"/><path d="M28.122,117.9591c.1256-.2273.1509-.5672.0271-.6471a10.4845,10.4845,0,0,0-1.135-.6466c-.3524-.1523-.9087-.2805-.7114-.18s-.1519.5022-.4785.49c-1.1282-.0422-1.9768-.7711-2.6223-.9162a2.2041,2.2041,0,0,1-1.3907-1.47,4.32,4.32,0,0,0-.6348,1.2842,2.2167,2.2167,0,0,0-.1142.9717,2.2545,2.2545,0,0,1,.125.9207,1.7677,1.7677,0,0,0,.6714.2243,2.6263,2.6263,0,0,0,.7171-.0068l.0658-.5836a2.6366,2.6366,0,0,1,.5741.0427,3.11,3.11,0,0,1,.8851.3877c.1322.15.2417.4279.4141.51a3.59,3.59,0,0,0,1.4864.3333C27.2108,118.7152,27.9073,118.3476,28.122,117.9591Z" fill="#473e73"/><path d="M30.963,112.699c.7875.0061,1.47.019,2.2571.04a8.3863,8.3863,0,0,0,.2317,2.5257,3.8648,3.8648,0,0,0,1.5816,1.4765c.6749.2738,2.11.4924,2.2439.6378a.4008.4008,0,0,1,.0058.5627,3.0014,3.0014,0,0,1-1.8749.8019c-1.8968.02-2.2086-.7327-3.3067-.676-.19.01-.4943.3319-1.0482.1663a1.16,1.16,0,0,1-.8958-1.0169c-.0372-.7539.545-1.4622.77-2.0625C30.9662,115.0518,30.948,112.876,30.963,112.699Z" fill="#feadae"/><path d="M23.7686,65.0581l7.1194,1.8588c2.181,8.7106,3.6776,18.3605,3.484,23.8024-.1115,3.1307-.9674,16.2081-1.0473,21.5568-.0019.128-.0037.2912-.005.466q-1.1782-.0331-2.3567-.043c-.0044-.0729-.009-.1464-.0122-.2056-.273-3.2745-1.6531-11.8624-1.6365-14.714A26.54,26.54,0,0,1,30.22,91.38S25.3631,77.3252,25.0386,76.454s-2.1949-1.1987-2.6415-3.445C21.6272,69.1372,23.7686,65.0581,23.7686,65.0581Z" fill="#0088cc"/><path d="M37.4473,118.0472c.1011-.2442.084-.5848-.0541-.6454a10.8632,10.8632,0,0,0-1.2547-.47c-.3836-.0978-.9745-.1413-.758-.0712s-.0933.5206-.4325.5576c-1.1712.1279-2.1405-.4668-2.826-.5136a1.801,1.801,0,0,1-1.4313-1.25,4.5317,4.5317,0,0,0-.6854,1.37,2.14,2.14,0,0,0,.0049.98,2.1437,2.1437,0,0,1,.2458.8937,1.8692,1.8692,0,0,0,.7223.1213,2.8738,2.8738,0,0,0,.74-.1144l-.006-.5883a2.8648,2.8648,0,0,1,.5988-.0441,1.9874,1.9874,0,0,1,.97.332c.1622.12.3339.3221.5243.368a3.9769,3.9769,0,0,0,1.5406.1007C36.6013,118.9334,37.2746,118.4645,37.4473,118.0472Z" fill="#473e73"/><path d="M30.322,46.9662c.4907.1571.32,1.3244.81,1.4816.3555.114,1.0482-.0493,1.3753.1307,1.733.9543,1.3107,2.8984,1.5431,5.3.7478,1.837.9592,3.506.3882,4.5421-.7087,1.2858-1.4682,1.6542-2.3433,2.7226-.6546.799-.8551,2.43-.9735,4.1816-.02.3013.2357.8271.1658,1.1211-.1339.5636-.9863.7468-1.94.7747-2.1915.0641-5.5237-.7-6.5016-.6539-.9211.0435-1.7941-.3947-1.71-.9392.0589-.38.4378-.54.5806-1.2756.3146-1.6205.5275-5.6659.7713-7.039a38.2589,38.2589,0,0,1,2.4868-9.3814" fill="#fbdb8a"/><path d="M35.387,55.3315a16.4087,16.4087,0,0,0-2.0151-2.5854l-1.8642.8619c.8978,1.68,1.0783,3.6682,1.501,5.5112a4.3727,4.3727,0,0,0,1.08-.1172c.1792-.2992.1125-.15.35-.5819A7.5724,7.5724,0,0,0,35.387,55.3315Z" fill="#fbdb8a"/><path d="M36.533,42.1617a9.346,9.346,0,0,0,.2943-2.4268c-.068-1.3918-.2649-3.4069-2.5872-4.212s-4.87-.2821-5.6113,1.3945-.539,4.2011-.6362,5.5528a8.3359,8.3359,0,0,1-1.0711,2.9785l5.0048,2.0947a9.45,9.45,0,0,1,1.129-1.9935c.3328-.2154.4582.6262,1.5673.5214.471-.0445.9653-.8957,1.3357-1.94.011-.0312.0235-.07.0348-.103a5.1812,5.1812,0,0,0,.5923-.057c.3426-.1059.314-.2575.2346-.4748A5.65,5.65,0,0,1,36.533,42.1617Z" fill="#feadae"/><path d="M43.7168,70.6333a2.6692,2.6692,0,0,0,1.3939,1.6616.8888.8888,0,0,0,.5847-.0206c.2719.1187,1.1331.2049.8076-.2979a2.45,2.45,0,0,0,1.8631.3821c.2319-.0137.2214-.2843-.2868-.4169a2.5485,2.5485,0,0,1-1.5947-1.3144c.1047-.0817.191.0654.4781.108.3182.0472.4865-.0973.4952-.236.0065-.1048-.3762-.223-.46-.2772l-.9579-.6193a1.8138,1.8138,0,0,0-1.0039-.3559c-.07-.0043-.7532.0431-.5813.29" fill="#feadae"/><path d="M32.3236,54.7825c.8426,1.6983,3.0689,7.3332,3.4119,7.9819,1.3517,2.5556,8.2017,8.0615,8.2017,8.0615a1.38,1.38,0,0,0,1.1388-1.3534c-1.9588-1.33-5.6684-7.0862-6.432-7.7717-.495-.4443-2.79-9.3641-2.79-9.3641" fill="#feadae"/><path d="M34.1183,48.4625c-1.9009-.7044-3.7114-.69-5.1766-2.1254-1.46,1.1468,1.8548,7.66,2.66,7.8272.8227.1713,1.9285,3.7739,2.1346,4.263a4.3886,4.3886,0,0,0,3.5656-1.5351C36.1981,53.6138,35.9608,49.1452,34.1183,48.4625Z" fill="#f4cf7a"/><path d="M32.6014,48.6564c-.1352-.4912-.5114-.8789-.6-1.3811a2.2636,2.2636,0,0,1,.2636-1.4948,2.7312,2.7312,0,0,1,.6424-.6183c1.0335-.8321,1.39-1.5143,1.0277-2.74a3.3431,3.3431,0,0,1-.19-1.2315c.0338-.3769.1066-.771.5111-.8224.2814-.0358.4633.0306.5648.2674.0709.1654-.0536,1.3581.3345.68A2.7582,2.7582,0,0,0,35.83,39.124c-.004-.1764-.0715-.8947.037-1.0014a2.84,2.84,0,0,1,.9933,1.9929,1.4537,1.4537,0,0,0,.6546-1.2614,3.3231,3.3231,0,0,0-.2892-1.4891,4.3775,4.3775,0,0,0-2.7017-2.6143,6.012,6.012,0,0,0-2.4618-.6261c-.8519.0316-1.9059.2953-2.1458.9366-1.1843-.2924-1.8491.7464-2.1243,1.12a6.01,6.01,0,0,0-.8941,1.7681c-.2921.9358-.3527,1.93-.5814,2.8839a4.1932,4.1932,0,0,1-1.1037,2.1291c-.57.5262-1.3785.5825-1.9987,1.066a3.1464,3.1464,0,0,0-1.1677,2.6265c.0532.999.5781,2.0715-.0162,2.9946-.1932.3-.4659.541-.6563.8433a2.2748,2.2748,0,0,0,.0687,2.3478A4.1686,4.1686,0,0,0,23.4963,54.56a5.9755,5.9755,0,0,0,2.2046.2805c1.4347-.0935,2.6433-.0237,4.1489-1.3367.8524-.7436.2979-1.1579,1.1155-1.9459.4583-.4416,1.1128-.6811,1.4461-1.2521a2.2106,2.2106,0,0,0,.2046-1.5913Q32.6093,48.685,32.6014,48.6564Z" fill="#3d4177"/><path d="M56.93,20.2171h2.0256v9.284a13.3974,13.3974,0,0,1-2.6278.2735c-2.474-.0026-3.7618-1.1078-3.7618-3.2306a3.2145,3.2145,0,0,1,3.4829-3.3726,3.2956,3.2956,0,0,1,.8811.1033V20.2171ZM57,24.9477a2.0394,2.0394,0,0,0-.683-.1033,1.5207,1.5207,0,0,0-1.6163,1.72A1.4688,1.4688,0,0,0,56.3045,28.22,4.7791,4.7791,0,0,0,57,28.1682V24.9477Z" fill="#d3d3d3"/><path d="M62.2675,23.4206v4.6484a6.2028,6.2028,0,0,1-.4719,3.0343A3.2276,3.2276,0,0,1,60.14,32.5881l-1.88-.8857a2.917,2.917,0,0,0,1.6033-1.3431,6.469,6.469,0,0,0,.3806-2.9824V23.4206h2.023ZM60.04,20.2171H62.066v2.0582H60.04Z" fill="#d3d3d3"/><rect x="80.7294" y="48.8655" width="29.5171" height="13.7458" rx="2.5992" ry="2.5992" transform="translate(190.4978 112.288) rotate(-179.512)" fill="#d3d3d3"/><rect x="84.1423" y="51.8632" width="6.7587" height="7.979" transform="translate(0.4789 -0.7434) rotate(0.488)" fill="#f7f7f7"/><rect x="93.1661" y="59.1629" width="8.9064" height="0.7654" transform="translate(0.5107 -0.8292) rotate(0.488)" fill="#f7f7f7"/><rect x="93.1862" y="56.8174" width="13.638" height="0.7654" transform="translate(0.4908 -0.8496) rotate(0.488)" fill="#f7f7f7"/><rect x="93.2063" y="54.4517" width="13.638" height="0.7654" transform="translate(0.4706 -0.8499) rotate(0.488)" fill="#f7f7f7"/><rect x="93.2265" y="52.086" width="13.638" height="0.7654" transform="translate(0.4505 -0.8502) rotate(0.488)" fill="#f7f7f7"/><ellipse cx="126.0531" cy="75.9607" rx="0.9385" ry="1.0847" transform="translate(49.2946 201.5297) rotate(-89.6367)" fill="#fff"/><ellipse cx="61.9565" cy="117.457" rx="7.8056" ry="0.9973" fill="#2e5175" opacity="0.1"/><path d="M57.1641,100.0752c1.2452,6.1446,3.4962,9.3858,5.4432,9.1545l-4.56-22.5013C57.6581,88.1291,56.0373,94.5149,57.1641,100.0752Z" fill="#f4cf7a"/><path d="M58.1283,86.4465s-.03.099-.0809.2818l4.56,22.5013c.0448-.0054.09-.01.1341-.0194,1.9767-.4006,2.8547-4.3,1.5809-10.5857S58.1283,86.4465,58.1283,86.4465Z" fill="#fbdb8a"/><path d="M61.6823,104.1419q-.4665-2.27-.927-4.5412-.9259-4.5416-1.91-9.071a.0267.0267,0,0,0-.0523.0106q.5818,3.0769,1.1883,6.149a12.5066,12.5066,0,0,0-2.2457-1.4639c-.0408-.0194-.083.0443-.0493.0743a12.8551,12.8551,0,0,0,2.3281,1.5571c.1827.9277.3637,1.8557.55,2.7826q.4576,2.2718.9141,4.5438c.3009,1.506.5167,3.0628.9392,4.5387a.0849.0849,0,0,0,.1663-.0337C62.3988,107.1643,61.9914,105.646,61.6823,104.1419Z" fill="#2e5175"/><path d="M61.2231,102.2612a26.1466,26.1466,0,0,0-3.754-2.4773.0291.0291,0,0,0-.0322.0485,26.1409,26.1409,0,0,0,3.7433,2.4934A.0388.0388,0,0,0,61.2231,102.2612Z" fill="#2e5175"/><path d="M62.5342,96.5959c-.3593.4789-.6987.9723-1.0434,1.4617a7.6475,7.6475,0,0,0-.8548,1.3733.0439.0439,0,0,0,.07.0466,7.6412,7.6412,0,0,0,.9322-1.322c.3166-.5081.639-1.0128.94-1.53A.0267.0267,0,0,0,62.5342,96.5959Z" fill="#2e5175"/><path d="M63.6279,102.3665a22.8843,22.8843,0,0,0-1.74,2.5758.0485.0485,0,0,0,.0808.0536,22.8777,22.8777,0,0,0,1.6953-2.6053A.0218.0218,0,0,0,63.6279,102.3665Z" fill="#2e5175"/><path d="M62.32,106.86a20.4738,20.4738,0,0,0-3.0876-2.0267.0316.0316,0,0,0-.0348.0526,20.4758,20.4758,0,0,0,3.0688,2.0549A.0485.0485,0,0,0,62.32,106.86Z" fill="#2e5175"/><path d="M64.2788,99.882c-1.9072,4.86-1.7982,8.1447-.3321,8.8632l6.9841-17.7982C70.0252,91.7507,66.0046,95.4839,64.2788,99.882Z" fill="#f4cf7a"/><path d="M71.1148,90.7866s-.0658.0556-.184.1605l-6.9841,17.7982c.0337.0165.0674.0333.1026.0471,1.5635.6135,3.94-1.7164,5.8915-6.6886S71.1148,90.7866,71.1148,90.7866Z" fill="#fbdb8a"/><path d="M65.6,104.7688q.7-1.7984,1.4049-3.595,1.4059-3.5949,2.7651-7.2076a.0222.0222,0,0,0-.0413-.0162q-.9843,2.4149-1.9491,4.8376a10.4108,10.4108,0,0,0-.9087-2.0391.0386.0386,0,0,0-.068.03A10.7029,10.7029,0,0,0,67.727,98.92c-.2916.7314-.5846,1.4622-.8731,2.1949q-.707,1.7957-1.415,3.5911c-.47,1.1892-1.0234,2.3756-1.3952,3.5989a.0707.0707,0,0,0,.1316.0516C64.7346,107.2065,65.1361,105.9605,65.6,104.7688Z" fill="#2e5175"/><path d="M66.1292,103.246a21.773,21.773,0,0,0-1.5054-3.43.0242.0242,0,0,0-.0444.0194,21.7753,21.7753,0,0,0,1.4906,3.4363A.0323.0323,0,0,0,66.1292,103.246Z" fill="#2e5175"/><path d="M69.6074,99.8765c-.4678.1725-.9282.3641-1.3906.5505a6.3675,6.3675,0,0,0-1.2187.574.0366.0366,0,0,0,.0281.0644,6.3587,6.3587,0,0,0,1.25-.5031c.4511-.2122.9048-.4194,1.3494-.6451A.0222.0222,0,0,0,69.6074,99.8765Z" fill="#2e5175"/><path d="M67.7634,104.4069a19.0531,19.0531,0,0,0-2.3813,1.0149.04.04,0,0,0,.0323.074A19.0534,19.0534,0,0,0,67.778,104.44.0182.0182,0,0,0,67.7634,104.4069Z" fill="#2e5175"/><path d="M64.8174,106.9582a17.0515,17.0515,0,0,0-1.243-2.8134.0263.0263,0,0,0-.0481.021,17.0459,17.0459,0,0,0,1.2172,2.8246A.04.04,0,0,0,64.8174,106.9582Z" fill="#2e5175"/><path d="M53.9558,102.8868c2.0052,4.2408,4.2211,6.1922,5.594,5.6754l-7.343-15.5295C52.1749,94.12,52.1413,99.0494,53.9558,102.8868Z" fill="#f4cf7a"/><path d="M52.2151,92.8134s-.0041.0773-.0083.2192l7.343,15.5295c.0316-.0119.0633-.0236.094-.0381,1.3642-.645,1.3037-3.6349-.7477-7.9733S52.2151,92.8134,52.2151,92.8134Z" fill="#fbdb8a"/><path d="M57.9664,105.0318q-.7455-1.5655-1.4868-3.133-1.486-3.1335-3.0126-6.2476a.02.02,0,0,0-.036.0171q.9738,2.131,1.9646,4.2542a9.3569,9.3569,0,0,0-1.8937-.6612.0347.0347,0,0,0-.0224.0628,9.6148,9.6148,0,0,0,1.97.7142c.2989.6412.5966,1.2829.8983,1.9228q.7394,1.5684,1.478,3.1372c.4883,1.04.9239,2.1324,1.4953,3.129a.0635.0635,0,0,0,.1148-.0543C59.0283,107.0992,58.46,106.0692,57.9664,105.0318Z" fill="#2e5175"/><path d="M57.296,103.7478a19.5619,19.5619,0,0,0-3.1709-1.1272.0218.0218,0,0,0-.0147.041,19.5641,19.5641,0,0,0,3.166,1.1409A.029.029,0,0,0,57.296,103.7478Z" fill="#2e5175"/><path d="M57.2337,99.3973c-.1752.4122-.3334.8315-.4962,1.2487a5.722,5.722,0,0,0-.375,1.1508.0329.0329,0,0,0,.0595.0212,5.7156,5.7156,0,0,0,.44-1.1273c.139-.4258.2828-.85.4089-1.28A.02.02,0,0,0,57.2337,99.3973Z" fill="#2e5175"/><path d="M59.0619,103.3936a17.1244,17.1244,0,0,0-.8025,2.1829.0363.0363,0,0,0,.0683.0245,17.1145,17.1145,0,0,0,.7649-2.1963A.0163.0163,0,0,0,59.0619,103.3936Z" fill="#2e5175"/><path d="M58.9169,106.892a15.32,15.32,0,0,0-2.606-.9193.0236.0236,0,0,0-.0159.0444,15.3181,15.3181,0,0,0,2.5974.9431A.0363.0363,0,0,0,58.9169,106.892Z" fill="#2e5175"/><path d="M68.7029,112.9576l.0022-5.6079-13.5467-.0054,0,.7312L64.5748,117.5A4.5653,4.5653,0,0,0,68.7029,112.9576Z" fill="#cdd1d3"/><path d="M55.1581,108.2451l-.0019,4.8767a4.5658,4.5658,0,0,0,4.5641,4.5676l4.415.0018c.1484,0,.2948-.0082.4395-.022Z" fill="#e2e2e2"/></svg>