<svg id="Layer_1" data-name="Layer 1" xmlns="http://www.w3.org/2000/svg" width="60" height="60" viewBox="0 0 60 60"><title>end-to-end</title><path d="M24.0541,43.5423a4.6547,4.6547,0,0,0-1.13.1076v3.5682a4.1316,4.1316,0,0,0,.9149.0724c1.4528,0,2.3494-.7351,2.3494-1.9733C26.1881,44.2062,25.4167,43.5423,24.0541,43.5423Z" fill="none" stroke="#0088cc" stroke-miterlimit="10"/><path d="M49.5778,15.9409a1.0445,1.0445,0,0,0-.2517-.6855L38.9142,3.3619l-.0083-.0072a1.048,1.048,0,0,0-.21-.1769c-.0227-.015-.0455-.0282-.0692-.0413a1.1408,1.1408,0,0,0-.2089-.0875c-.02-.0057-.0371-.0137-.0568-.0191a1.0746,1.0746,0,0,0-.243-.03H12.5294a2.12,2.12,0,0,0-2.1177,2.1177V54.8824A2.12,2.12,0,0,0,12.5294,57H47.47a2.12,2.12,0,0,0,2.1178-2.1176V16.059A1.0918,1.0918,0,0,0,49.5778,15.9409ZM27.7838,48.1158a5.6049,5.6049,0,0,1-3.9272,1.2728,6.83,6.83,0,0,1-.9329-.0537V53.657H20.2164V41.7307a22.4006,22.4006,0,0,1,3.6943-.2512,5.8,5.8,0,0,1,3.6942.9683,3.5347,3.5347,0,0,1,1.2912,2.798A3.8646,3.8646,0,0,1,27.7838,48.1158Zm8.018.502V53.657H33.0761v-4.95l-3.82-7.1366h3.1209l1.2373,2.9044c.3762.8789.6281,1.5242.9326,2.3137h.0363c.2688-.7534.5558-1.4528.9144-2.3137l1.2192-2.9044h3.0669ZM12.5294,38.956V5.1177h24.53V15.9524a1.0588,1.0588,0,0,0,1.0589,1.0588h9.3525l.0011,21.9447H12.5294Z" fill="none" stroke="#0088cc" stroke-miterlimit="10"/><path d="M31.6431,23.3643a2.35,2.35,0,0,0,2.2551-2.3475c.0135-.8135.0021-1.6283.0026-2.442s.0053-1.6286-.0026-2.4424a2.005,2.005,0,0,0-.0764-.5658,2.5919,2.5919,0,0,0-2.2893-1.897,28.7137,28.7137,0,0,0-3.9778-.1724,8.2391,8.2391,0,0,0-2.1637.416,1.7509,1.7509,0,0,0-1.3938,1.8651c-.0213.5772.001,1.1558-.0329,1.7317-.0243.4183.1392.5247.54.5182,1.3615-.0218,2.7238.0021,4.0854-.0111.32-.0031.3986.1161.3986.4157,0,.4113-.28.3471-.52.3483-2.1314.0064-4.2639.0413-6.3949,0A3.1316,3.1316,0,0,0,18.93,21.2536a9.706,9.706,0,0,0-.3265,3.07,7.6974,7.6974,0,0,0,.7915,3.1574,2.2974,2.2974,0,0,0,1.9486,1.28c.5015.03,1.0063-.0046,1.5094.0135.3.0105.3823-.1177.3758-.3971-.0142-.6212.0055-1.2436-.0067-1.8646a2.7763,2.7763,0,0,1,.4991-1.6265,3.351,3.351,0,0,1,2.9917-1.5049C28.3577,23.3809,30.0016,23.4077,31.6431,23.3643ZM26.1,16.8467a1.0033,1.0033,0,0,1-1.0009-.9736A1.0388,1.0388,0,0,1,26.1,14.8386a1.0642,1.0642,0,0,1,1.0061.9916A1.0058,1.0058,0,0,1,26.1,16.8467Z" fill="#0088cc"/><path d="M39.5418,23.4476a7.7128,7.7128,0,0,0-.791-3.1577,2.3,2.3,0,0,0-1.9492-1.279c-.5014-.029-1.007.0054-1.509-.0132-.3-.0105-.3832.1182-.3759.3971.0136.6215-.0061,1.2442.0063,1.8646a2.7826,2.7826,0,0,1-.4994,1.6271,3.35,3.35,0,0,1-2.9915,1.5044c-1.6432,0-3.2865-.0268-4.9288.0166a2.35,2.35,0,0,0-2.2546,2.3467c-.0134.8137-.0029,1.6285-.0034,2.4423s-.0051,1.6277.0027,2.4426a2.0217,2.0217,0,0,0,.0762.5655,2.5927,2.5927,0,0,0,2.29,1.8969,28.6736,28.6736,0,0,0,3.9775.1723,8.2458,8.2458,0,0,0,2.1638-.4158,1.75,1.75,0,0,0,1.3933-1.8653c.0216-.5769-.0011-1.1555.0325-1.7309.0248-.419-.1386-.5252-.54-.5185-1.3619.0212-2.7236-.0016-4.0854.0119-.32.0026-.3986-.1171-.3986-.4156,0-.4122.28-.348.5209-.3484,2.1315-.0062,4.2639-.0414,6.3951-.001a3.13,3.13,0,0,0,3.1423-2.4714A9.7388,9.7388,0,0,0,39.5418,23.4476Zm-7.4949,7.4774a1.0023,1.0023,0,0,1,1.0008.973,1.04,1.04,0,0,1-1.0008,1.0351,1.0637,1.0637,0,0,1-1.0062-.9921A1.0053,1.0053,0,0,1,32.0469,30.9249Z" fill="#0088cc"/></svg>