<svg id="Layer_1" data-name="Layer 1" xmlns="http://www.w3.org/2000/svg" width="60" height="60" viewBox="0 0 60 60"><title>extesive-requirement</title><path d="M2.6367,5.6728c.0332-.0812.0731-.16.0987-.244a3.1936,3.1936,0,0,1,3.292-2.4273Q17.7044,2.9983,29.3813,3q7.0008,0,14.0016.0008a3.2227,3.2227,0,0,1,3.5079,3.5278q.001,23.4607,0,46.9214a3.23,3.23,0,0,1-3.51,3.5283q-7.2947.0018-14.5895,0a2.85,2.85,0,0,1-.48-.0111.7584.7584,0,0,1-.7046-.8019.7452.7452,0,0,1,.7153-.7871,4.1274,4.1274,0,0,1,.5338-.0107q7.2413-.0021,14.4826-.0034c1.3536,0,1.94-.5928,1.94-1.96Q45.28,30.05,45.2812,6.6964c0-1.5438-.5427-2.0842-2.0874-2.0842q-18.5441,0-37.0882,0a1.6546,1.6546,0,0,0-1.8584,1.883q0,23.4073,0,46.8146c0,1.5025.5557,2.0572,2.0631,2.0571q8.9781-.0008,17.9563-.0023a3.99,3.99,0,0,1,.587.0128.7994.7994,0,0,1,.0372,1.5822,3.0929,3.0929,0,0,1-.5862.0185C18.39,56.9789,12.4756,56.9416,6.562,57c-1.9749.0194-3.3866-.7136-3.9253-2.693Z" fill="#0088cc"/><path d="M49.9221,44.0453h5.7866V17.4283H49.9221v.63q0,4.3823-.0008,8.7646a4.5528,4.5528,0,0,1-.02.5867.79.79,0,0,1-1.5581.07,2.0107,2.0107,0,0,1-.0389-.4765c-.002-3.8657-.01-7.7314.0014-11.597a4.53,4.53,0,0,1,9.0482-.4554c.0114.2311.0085.463.0085.6946q.0006,14.3761-.0085,28.7522a3.6462,3.6462,0,0,1-.2082,1.192q-1.0347,2.9158-2.1234,5.8124a2.2667,2.2667,0,0,1-2.65,1.6293,2.1474,2.1474,0,0,1-1.6354-1.3965c-.8074-2.1467-1.5821-4.3058-2.3594-6.4637a1.7412,1.7412,0,0,1-.0721-.5781q-.0078-6.5734-.0046-13.1469a1.8461,1.8461,0,0,1,.0593-.5264.7326.7326,0,0,1,.8057-.5592.7249.7249,0,0,1,.7275.6541,3.8711,3.8711,0,0,1,.0272.6393q.0021,5.852.001,11.7039Zm5.8167-28.2985a2.9789,2.9789,0,0,0-1.4162-3.027,2.74,2.74,0,0,0-3.1569.12,2.927,2.927,0,0,0-1.214,2.9072Zm-.3534,29.9784h-5.098c.3351.9171.6394,1.784.9783,2.6371a.5257.5257,0,0,0,.4049.2218c.7813.0213,1.5637.019,2.3453.0015a.4836.4836,0,0,0,.375-.1894C54.7333,47.5291,55.0459,46.65,55.3854,45.7252ZM51.9943,50.24c.1474.836.4282,1.27.8388,1.2183.69-.0863.6667-.72.9015-1.2183Z" fill="#0088cc"/><path d="M18.1363,42.0588c.34-.29.6354-.5425.9316-.7936.5886-.4992,1.0359-.5313,1.39-.101.327.398.2121.865-.3247,1.3237-.4465.3816-.8705.7941-1.3449,1.1369a1.1486,1.1486,0,0,0-.488,1.0879c.0288,1.0316.0145,2.0647.0075,3.0971A1.8966,1.8966,0,0,1,16.1841,49.91q-2.3764.0036-4.7528,0a1.8746,1.8746,0,0,1-2.0308-2.03q-.0153-2.43,0-4.86a1.8372,1.8372,0,0,1,2.0013-1.9922c1.5842-.0087,3.1688.0169,4.7526-.01A2.0622,2.0622,0,0,1,18.1363,42.0588Zm-4.0785,3.487c.842-.7157,1.652-1.3809,2.4268-2.085a.86.86,0,0,0,.15-.6179c-.0042-.0743-.2694-.19-.4164-.1913-1.5831-.0139-3.1663-.0029-4.7494-.0137-.3161-.0021-.454.1038-.4527.4269.0064,1.6009-.0074,3.2021.0211,4.8026a.5811.5811,0,0,0,.3923.41c1.6182.03,3.2372.026,4.8558.0126.1255-.001.356-.1366.3585-.2153.0263-.8345.0163-1.67.0163-2.61-.7387.6276-1.3708,1.1712-2.01,1.7059a.8588.8588,0,0,1-1.4194-.11c-.4519-.5026-.9045-1.0048-1.3454-1.5169a.8035.8035,0,0,1-.0157-1.188.8152.8152,0,0,1,1.22.121C13.4066,44.8117,13.71,45.1605,14.0578,45.5459Z" fill="#0088cc"/><path d="M18.1513,29.8672c.3649-.31.6973-.6009,1.0388-.8807.4836-.3962.9443-.3936,1.27-.0036.3106.372.2228.851-.241,1.2546-.51.4439-1.0122.8989-1.5462,1.3123a.9054.9054,0,0,0-.3649.8208c.015,1.1032.01,2.2068-.0015,3.31a1.8785,1.8785,0,0,1-2.0694,2.044c-1.6017.0038-3.2035.0068-4.8052-.0008A1.8763,1.8763,0,0,1,9.4,35.6943q-.0158-2.4025-.0042-4.8052a1.8659,1.8659,0,0,1,2.0628-2.0441c1.5661-.0034,3.1323.0011,4.6984.0031A1.9977,1.9977,0,0,1,18.1513,29.8672Zm-1.47,3.4029c-.77.6546-1.4118,1.2109-2.0654,1.7534a.8361.8361,0,0,1-1.3426-.1052c-.4673-.5126-.9312-1.0286-1.3846-1.5535a.8033.8033,0,0,1,.0165-1.2236.8144.8144,0,0,1,1.18.1493c.3266.3444.6388.7024.9773,1.0765.8429-.719,1.6652-1.3964,2.4506-2.1141a.83.83,0,0,0,.116-.624c-.0089-.0737-.2845-.1629-.439-.1641-1.5653-.0118-3.1309,0-4.6962-.0119-.343-.0026-.4788.1212-.4772.4636q.011,2.3748-.0007,4.75c-.0012.3115.1216.4533.4425.4521q2.4015-.0094,4.803-.0013c.2886.0007.4237-.12.4216-.4141C16.6778,34.9416,16.6816,34.18,16.6816,33.27Z" fill="#0088cc"/><path d="M17.7944,18.0678c.38-.3214.7275-.6233,1.0839-.914A.8132.8132,0,1,1,19.914,18.386c-.52.46-1.0395.9221-1.5848,1.3506a.9589.9589,0,0,0-.3863.867c.023,1.1034.0207,2.2076.0077,3.3113a1.8159,1.8159,0,0,1-1.9958,1.9862q-2.4835.015-4.9672-.0028A1.8252,1.8252,0,0,1,9.06,23.945q-.0133-2.4836,0-4.9673a1.8491,1.8491,0,0,1,1.9433-1.9519c1.6557-.0124,3.3115.0016,4.9672-.0053A2.0113,2.0113,0,0,1,17.7944,18.0678ZM13.717,21.557c.8356-.7129,1.6581-1.3911,2.4445-2.1088a.886.886,0,0,0,.1317-.6231c-.0035-.07-.2465-.1819-.3808-.183-1.6026-.0127-3.2054-.0187-4.8076.0095a.5816.5816,0,0,0-.4152.3866q-.0437,2.43-.002,4.8608a.5334.5334,0,0,0,.3637.3733c1.6379.0243,3.2764.02,4.9144.0007.1213-.0015.3413-.176.3448-.276.0284-.8068.0159-1.6151.0159-2.5366-.416.3547-.7368.6286-1.058.9019-.339.2884-.672.5844-1.0194.8624a.81.81,0,0,1-1.3-.0951q-.7057-.766-1.39-1.5517a.8314.8314,0,0,1-.0187-1.233.8158.8158,0,0,1,1.2207.1567C13.0757,20.8373,13.3794,21.1833,13.717,21.557Z" fill="#0088cc"/><path d="M31.9208,19.7952c-2.69,0-5.38-.0046-8.07.0041-.4767.0015-.8514-.1239-.9941-.6171a.796.796,0,0,1,.6577-.9867,2.4916,2.4916,0,0,1,.4265-.013q7.8825-.0006,15.7651,0a4.7241,4.7241,0,0,1,.534.008.8168.8168,0,0,1,.7573.82.7941.7941,0,0,1-.7938.777c-.6227.0219-1.2467.007-1.87.0071Q35.1273,19.7955,31.9208,19.7952Z" fill="#0088cc"/><path d="M31.9,44.4861q-4.06,0-8.12-.0026c-.7068-.0016-1.1253-.53-.8851-1.0957a.87.87,0,0,1,.91-.5162c1.5492.0049,3.0984.0017,4.6477.0017q5.6627,0,11.3254.0007a2.5676,2.5676,0,0,1,.5324.02.7623.7623,0,0,1,.6748.8292.75.75,0,0,1-.751.7555c-.1592.0137-.32.007-.4805.007Q35.826,44.4865,31.9,44.4861Z" fill="#0088cc"/><path d="M31.9035,49.0885q-3.9273,0-7.8547-.0005a3.55,3.55,0,0,1-.5333-.0152.7359.7359,0,0,1-.6722-.7139.7277.7277,0,0,1,.54-.8179,1.7394,1.7394,0,0,1,.5253-.0595q8.015-.0043,16.03.0013c.1918,0,.4566-.0162.56.0943.2106.2248.4808.5477.4523.7991s-.3666.4995-.6162.6854c-.1171.0872-.3453.03-.5232.03q-3.9541.0016-7.9081.0007Z" fill="#0088cc"/><path d="M31.9269,24.3975H24.1813c-.1424,0-.285.003-.4273-.0012-.5793-.0172-.925-.3238-.9175-.8109.0074-.4809.3581-.7929.94-.799,1.05-.011,2.1011-.0062,3.1517-.006q6.4636.0008,12.9273.006c.21,0,.49-.0262.6145.0906a1.4635,1.4635,0,0,1,.4945.7881.676.676,0,0,1-.6521.7151,3.6477,3.6477,0,0,1-.5332.0168Q35.8532,24.3982,31.9269,24.3975Z" fill="#0088cc"/><path d="M31.9221,30.8474q3.9259,0,7.8518.0011c.8175.0009,1.21.262,1.22.793q.0161.8313-1.2415.8331-7.8518.0007-15.7035-.0008a2.63,2.63,0,0,1-.5315-.0284.7951.7951,0,0,1,.0728-1.58,5.1766,5.1766,0,0,1,.5335-.0134q3.8992-.0011,7.7983,0Z" fill="#0088cc"/><path d="M31.8953,35.4585q3.9,0,7.8.0008c.178,0,.3566-.0013.5338.0126a.7671.7671,0,0,1,.76.7511.8051.8051,0,0,1-.7307.8415,2.8443,2.8443,0,0,1-.4265.0133q-7.96.0022-15.9205.0022a1.7766,1.7766,0,0,1-.4242-.0289.7511.7511,0,0,1-.6458-.7961.72.72,0,0,1,.7213-.7743c.782-.0343,1.5663-.021,2.35-.0218Q28.9035,35.456,31.8953,35.4585Z" fill="#0088cc"/><path d="M33.8512,10.5573c.2369-.7483.4324-1.366.6283-1.9837a3.277,3.277,0,0,1,.1509-.4553.6407.6407,0,0,1,.8409-.3689.6077.6077,0,0,1,.4537.7926c-.4339,1.2414-.8862,2.4783-1.398,3.6887a.7489.7489,0,0,1-1.3987-.094c-.2795-.6246-.4687-1.2895-.7307-2.0445-.2462.71-.46,1.3108-.6623,1.9155-.1208.3607-.3048.6648-.7195.6907a.8278.8278,0,0,1-.8438-.6158c-.4328-1.1289-.8592-2.26-1.2683-3.3981a.6769.6769,0,0,1,.43-.9426.6664.6664,0,0,1,.8732.4905c.24.722.4617,1.45.7423,2.3383.2028-.6052.3578-1.0643.51-1.5242.0671-.2026.1248-.4084.1945-.61.1251-.362.2641-.73.7334-.7291.489.0007.6476.3757.7731.7593.1658.5069.3185,1.0181.4806,1.5263C33.6877,10.1379,33.747,10.2787,33.8512,10.5573Z" fill="#0088cc"/><path d="M24.499,10.3431q-.2988.8765-.5979,1.7529c-.1285.3748-.3248.6936-.7734.691a.8707.8707,0,0,1-.8167-.6591c-.4169-1.095-.8316-2.1911-1.2291-3.2933A.7109.7109,0,0,1,21.4862,7.83c.411-.1232.7569.0848.9189.5832.23.7078.4417,1.4216.7065,2.28.2373-.73.43-1.3263.625-1.9217a1.3284,1.3284,0,0,1,.1847-.4935c.1788-.1894.4474-.47.63-.438a1.0464,1.0464,0,0,1,.6826.5376c.2927.7006.4883,1.4418.77,2.3146.2649-.8511.4881-1.5674.7107-2.2839a.7037.7037,0,0,1,.8691-.5845.6832.6832,0,0,1,.4685.97c-.4109,1.1538-.8272,2.3078-1.31,3.4322a1.0114,1.0114,0,0,1-.7572.5241,1.0574,1.0574,0,0,1-.71-.5741,18.0052,18.0052,0,0,1-.6606-1.8424Z" fill="#0088cc"/><path d="M15.42,10.52c.2187-.6663.435-1.3334.6572-1.9985.1214-.3633.2581-.7236.7369-.7155.466.0079.6241.3546.7456.7194a16.562,16.562,0,0,0,.7489,1.9962c.2169-.6864.4293-1.3742.652-2.0586.1814-.5576.4961-.7653.9268-.6293.4123.13.572.5385.3844,1.0551q-.5825,1.6036-1.189,3.1985a.8958.8958,0,0,1-.8422.7029c-.4781-.002-.655-.3551-.7867-.7465-.1973-.5863-.4032-1.17-.6449-1.8686-.2386.7023-.4364,1.2874-.6363,1.872-.1327.3883-.3155.7418-.7946.74-.4615-.0021-.6909-.3239-.8379-.7093-.4052-1.0628-.8088-2.1263-1.1991-3.1946-.1869-.5116-.0158-.9324.396-1.0565s.7426.0777.912.5891c.2318.7.4458,1.4059.6675,2.1093Z" fill="#0088cc"/></svg>