<svg xmlns="http://www.w3.org/2000/svg" width="170" height="120" viewBox="0 0 170 120"><title>flsk-python</title><g style="isolation:isolate"><g id="Layer_1" data-name="Layer 1"><path d="M55.3253,16.5393c5.4134,8.6633,6.3832,15.02,3.8211,16.9279L39.323,1.7426C41.3533,2.9631,50.4268,8.7,55.3253,16.5393Z" fill="#f4cf7a"/><path d="M38.9114,1.5s.1465.0833.4116.2426L59.1464,33.4672c-.059.0439-.1177.0883-.18.1274-2.7869,1.7415-8.1951-1.8864-13.7331-10.7491S38.9114,1.5,38.9114,1.5Z" fill="#fbdb8a"/><path d="M54.5388,26.4127q-1.9922-3.2078-3.9929-6.41-3.9946-6.4094-7.9061-12.87a.0435.0435,0,0,1,.0737-.046q2.76,4.2914,5.4856,8.6047a20.3782,20.3782,0,0,1,1.0156-4.2483.0756.0756,0,0,1,.1415.0326,20.946,20.946,0,0,1-1.0086,4.4508q1.2353,1.953,2.4673,3.9081,2.0047,3.2,4.0109,6.3988c1.3318,2.1184,2.8213,4.2016,3.9756,6.4209a.1383.1383,0,0,1-.2345.1466C57.0785,30.7906,55.8588,28.5382,54.5388,26.4127Z" fill="#2e5175"/><path d="M45.0744,18.4421c.9616.1637,1.916.367,2.8723.56a12.4608,12.4608,0,0,1,2.55.6664.0716.0716,0,0,1-.031.134,12.4506,12.4506,0,0,1-2.5841-.519c-.9438-.2461-1.8908-.4819-2.8268-.7563A.0435.0435,0,0,1,45.0744,18.4421Z" fill="#2e5175"/><path d="M46.6937,24.2841c7.7026,3.6113,11.2546,7.6183,10.3257,10.1112L28.8125,21.1707C30.7842,21.1063,39.7235,21.0162,46.6937,24.2841Z" fill="#f4cf7a"/><path d="M28.4149,21.1871s.14-.008.3976-.0164L57.0193,34.3953c-.0214.0574-.0424.1149-.0685.1707-1.1618,2.4779-6.5843,2.3859-14.4643-1.3086S28.4149,21.1871,28.4149,21.1871Z" fill="#fbdb8a"/><path d="M50.6075,31.5447q-2.8434-1.3427-5.6905-2.6777-5.6916-2.6765-11.348-5.4263a.0362.0362,0,0,1,.0307-.0655q3.8706,1.7532,7.7268,3.5376a16.9633,16.9633,0,0,1-1.21-3.43.0629.0629,0,0,1,.1137-.0411A17.4393,17.4393,0,0,1,41.5366,27.01c1.1646.5383,2.33,1.0743,3.4925,1.6177Q47.8777,29.96,50.7271,31.29c1.8892.8794,3.8727,1.6629,5.6834,2.6931a.1152.1152,0,0,1-.0978.2085C54.363,33.4583,52.4917,32.4345,50.6075,31.5447Z" fill="#2e5175"/><path d="M48.275,30.3366a35.4768,35.4768,0,0,1-2.0631-5.7438.04.04,0,0,1,.0742-.0269,35.4805,35.4805,0,0,1,2.0878,5.7349A.0526.0526,0,0,1,48.275,30.3366Z" fill="#2e5175"/><path d="M40.3848,30.2493c.7466-.32,1.5059-.61,2.2617-.9073a10.3752,10.3752,0,0,1,2.0848-.6869.06.06,0,0,1,.0389.1077,10.3609,10.3609,0,0,1-2.0419.8054c-.7714.2546-1.54.5179-2.319.7492A.0362.0362,0,0,1,40.3848,30.2493Z" fill="#2e5175"/><path d="M47.643,33.5412A31.045,31.045,0,0,1,51.597,32.073a.0658.0658,0,0,1,.0447.1237,31.0455,31.0455,0,0,1-3.9786,1.4A.03.03,0,0,1,47.643,33.5412Z" fill="#2e5175"/><path d="M53.9867,33.2574a27.7836,27.7836,0,0,1-1.6826-4.7207.0428.0428,0,0,1,.08-.0291,27.7745,27.7745,0,0,1,1.7259,4.705A.0658.0658,0,0,1,53.9867,33.2574Z" fill="#2e5175"/><path d="M62.271,16.2693c2.3808,7.2632,1.9468,12.0545-.2562,12.982L53.2964,2.6539C54.5527,3.9042,60.1167,9.6969,62.271,16.2693Z" fill="#f4cf7a"/><path d="M53.0408,2.4039s.0915.0868.2555.25l8.7184,26.5974c-.0507.0213-.1013.0431-.1538.06-2.3365.7659-5.6156-2.8383-8.0512-10.2686S53.0408,2.4039,53.0408,2.4039Z" fill="#fbdb8a"/><path d="M59.9312,23.3011q-.8726-2.6872-1.7525-5.3719Q56.4247,12.5575,54.74,7.1635a.0325.0325,0,0,1,.0618-.02q1.2365,3.6119,2.4439,7.2335a15.2461,15.2461,0,0,1,1.4988-2.9043.0565.0565,0,0,1,.0969.0491,15.6663,15.6663,0,0,1-1.53,3.0527c.365,1.0934.7321,2.186,1.0924,3.281q.8832,2.6837,1.7677,5.3669C60.76,25,61.4688,26.78,61.91,28.5989a.1035.1035,0,0,1-.1966.0644C60.992,26.9364,60.5094,25.0816,59.9312,23.3011Z" fill="#2e5175"/><path d="M59.2852,21.0311a31.8741,31.8741,0,0,1,2.4872-4.8868.0355.0355,0,0,1,.0633.0321A31.8776,31.8776,0,0,1,59.37,21.0738.0473.0473,0,0,1,59.2852,21.0311Z" fill="#2e5175"/><path d="M54.4834,15.8155c.6693.2912,1.3262.61,1.9863.9209a9.3233,9.3233,0,0,1,1.7333.9409.0535.0535,0,0,1-.0465.0918,9.3129,9.3129,0,0,1-1.7843-.84c-.6416-.3478-1.2873-.6887-1.9181-1.0557A.0326.0326,0,0,1,54.4834,15.8155Z" fill="#2e5175"/><g id="_Group_" data-name="&lt;Group&gt;"><path d="M32.1484,86.2166S5.987,60.109,40.6346,36.4878s72.04-34.392,93.8-31.6876,16.0856,56.216-2.8088,88.8071S67.5817,124.5475,32.1484,86.2166Z" fill="#f1f3f7"/></g><rect x="43.2611" y="9.6263" width="84.3579" height="61.3214" rx="1.4076" ry="1.4076" fill="#fff"/><path d="M44.6061,9.6263h81.6677a1.3451,1.3451,0,0,1,1.3451,1.3451v6.0614a0,0,0,0,1,0,0H43.2611a0,0,0,0,1,0,0V10.9714A1.3451,1.3451,0,0,1,44.6061,9.6263Z" fill="#edeef4"/><path d="M96.8892,22.3007h26.3762a.4342.4342,0,0,1,.4342.4342V32.99a.4341.4341,0,0,1-.4341.4341H96.8892a.4341.4341,0,0,1-.4341-.4341V22.7348a.4341.4341,0,0,1,.4341-.4341Z" fill="#edeef4"/><path d="M46.6587,49.11H69.32a.4342.4342,0,0,1,.4342.4342V66.3233a.4341.4341,0,0,1-.4341.4341H46.6587a.4341.4341,0,0,1-.4341-.4341V49.5446a.4341.4341,0,0,1,.4341-.4341Z" fill="#edeef4"/><path d="M46.6587,21.66H69.32a.4342.4342,0,0,1,.4342.4342V34.951a.4341.4341,0,0,1-.4341.4341H46.6587a.4341.4341,0,0,1-.4341-.4341V22.0938a.4341.4341,0,0,1,.4341-.4341Z" fill="#edeef4"/><path d="M48.6195,39.3066H66.683a.4342.4342,0,0,1,.4342.4342v1.0925a.4341.4341,0,0,1-.4341.4341H48.62a.4341.4341,0,0,1-.4341-.4341V39.7407a.4341.4341,0,0,1,.4341-.4341Z" fill="#edeef4"/><path d="M52.541,43.2282h10.22a.4342.4342,0,0,1,.4342.4342v1.0925a.4341.4341,0,0,1-.4341.4341H52.541a.4341.4341,0,0,1-.4341-.4341V43.6622a.4341.4341,0,0,1,.4341-.4341Z" fill="#edeef4"/><path d="M74.1095,22.3007H92.8489a.4342.4342,0,0,1,.4342.4342v4.373a.4341.4341,0,0,1-.4341.4341H74.1095a.4341.4341,0,0,1-.4341-.4341V22.7348a.4341.4341,0,0,1,.4341-.4341Z" fill="#edeef4"/><path d="M85.8742,29.5028H92.849a.4342.4342,0,0,1,.4342.4342V32.99a.4341.4341,0,0,1-.4341.4341H85.8742A.4341.4341,0,0,1,85.44,32.99V29.9369a.4341.4341,0,0,1,.4341-.4341Z" fill="#edeef4"/><path d="M74.11,29.5028h6.9748a.4342.4342,0,0,1,.4342.4342V32.99a.4341.4341,0,0,1-.4341.4341H74.11a.4341.4341,0,0,1-.4341-.4341V29.9369a.4341.4341,0,0,1,.4341-.4341Z" fill="#edeef4"/><path d="M82.5282,61.8511V42.6161a4.7873,4.7873,0,0,1,4.7817-4.782h31.6216a4.7874,4.7874,0,0,1,4.7818,4.782V61.8511a4.7873,4.7873,0,0,1-4.7818,4.782H87.31A4.7872,4.7872,0,0,1,82.5282,61.8511ZM87.31,38.4335a4.1873,4.1873,0,0,0-4.1824,4.1827V61.8511A4.1872,4.1872,0,0,0,87.31,66.0337h31.6216a4.1873,4.1873,0,0,0,4.1825-4.1826V42.6161a4.1873,4.1873,0,0,0-4.1825-4.1827Z" fill="#dfe1e8"/><rect x="112.0638" y="11.9303" width="12.0319" height="2.7988" rx="0.5536" ry="0.5536" transform="translate(236.1594 26.6593) rotate(-180)" fill="#d3d3d3"/><path d="M74.1992,38.1338H78.09a1.2735,1.2735,0,0,1,1.2735,1.2735v3.8908A1.2734,1.2734,0,0,1,78.09,44.5715H74.1994a1.2735,1.2735,0,0,1-1.2735-1.2735V39.4072A1.2734,1.2734,0,0,1,74.1992,38.1338Z" transform="translate(152.2895 82.7053) rotate(-180)" fill="#f7f7f7"/><path d="M75.941,42.7706l-1.6277-1.4189a.3206.3206,0,1,1,.4213-.4833l1.1509,1.0034,1.641-1.8306a.3206.3206,0,1,1,.4773.4281Z" fill="#d1d1d1"/><path d="M74.1992,46.3835H78.09a1.2735,1.2735,0,0,1,1.2735,1.2735v3.8907A1.2733,1.2733,0,0,1,78.09,52.821h-3.891a1.2735,1.2735,0,0,1-1.2735-1.2735V47.6568a1.2733,1.2733,0,0,1,1.2733-1.2733Z" transform="translate(152.2895 99.2044) rotate(-180)" fill="#f7f7f7"/><path d="M75.941,51.02l-1.6277-1.4189a.3206.3206,0,1,1,.4213-.4833l1.1509,1.0033,1.641-1.83a.3205.3205,0,1,1,.4773.428Z" fill="#d1d1d1"/><rect x="72.9259" y="54.633" width="6.4378" height="6.4378" rx="1.2735" ry="1.2735" transform="translate(152.2895 115.7038) rotate(-180)" fill="#f7f7f7"/><path d="M98.339,60.5129a11.4606,11.4606,0,0,1-2.5311-2.3563,19.1206,19.1206,0,0,1-3.1895-5.722c-.442-1.3417-.5933-2.78-1.1634-4.07a1.5476,1.5476,0,0,1,1.1288-2.2582c.4566-.088,1.26-.519.29-.2106-.8695.6375-.9532-.5794-.0618-.6565a.7066.7066,0,0,0,.6241-1.0266c-.6533-.4262,1.5836-.8938.4579-1.53-1.1718-1.2646,1.64-1.5081.946-.0716-.1658,1.1045,1.9653-.2029,1.47,1.0728.5028.6127,1.8823.14,1.8477.9988.7322.05.9836.666,1.67.7134.7128.3218,2.0037.5749,2.2459,1.3776-.7066.5592-2.3424-1.1554-2.4214.393.2137,2.2877.1592,4.6442.9959,6.8226a9.9771,9.9771,0,0,0,2.222,3.3845,9.7233,9.7233,0,0,0,3.0978,2.3108,12.78,12.78,0,0,0,3.1816.9848c.4438-.3395,1.2276-1.6017,1.92-1.07.0334.5988-1.3738,1.2508-.066,1.1846.7686-.2319,1.3011.5937,1.9337-.1513.5829.69,2.4225-.4408,2.0079.97-.561.3619-1.3789.1433-1.94.6412-.9259-.4627-1.6632.4135-2.6886.303a19.7459,19.7459,0,0,1-3.451.2877,20.97,20.97,0,0,1-5.6291-.8719,11.4092,11.4092,0,0,1-2.8975-1.4511Zm1.5993.6934a11.2678,11.2678,0,0,0,3.0462,1.0164,16.015,16.015,0,0,0,5.2318.2721c-.7826-.3533-1.5919.1372-2.3715-.2526a8.6854,8.6854,0,0,1-2.89-.1761,26.5363,26.5363,0,0,1-3.26-1.4378c-1.2654-.4619.654.5927.9957.6784.7905.4485-.87-.23-1.104-.4166-.6622-.3716-.7465-.2939-.0654.0832.1371.08.2726.1646.4164.2332Zm-1.8858-1.3327c.9606.3558-.0043-.6752-.4438-.6156-.195-.3383-.745-.552-.357-.7335-.6976.2423-.731-.9211-1.0588-.7546-.7384-.2332-.2873-1.059-1.1671-1.5664-.08-.5345-.8737-.9977-1.1263-1.8035-.1117-.4128-.8968-1.5973-.4147-.4949a15.5591,15.5591,0,0,0,1.7335,2.8787,5.9406,5.9406,0,0,0,1.8671,2.3078c.2866.275.5628.6957.9671.782Zm-2.7662-3.0377C95.32,56.6908,95.4618,57.15,95.2863,56.8359ZM99.2031,60.3C99.4155,60.2045,98.8971,60.18,99.2031,60.3Zm.5209.19C99.67,60.2275,99.486,60.6368,99.724,60.49Zm.6528.2721C100.687,60.4661,99.8976,60.5754,100.3768,60.762Zm1.1184.6233C101.6839,61.1067,100.891,61.28,101.4952,61.3853Zm-2.1475-1.4971C99.83,59.5761,98.7241,59.8839,99.3477,59.8883Zm.4893.244C99.823,59.9676,99.6627,60.2063,99.837,60.1323Zm2.4462,1.527c.3934.2484,2.297.544,1.1051.102C103.1884,61.8031,101.1782,61.1923,102.2832,61.6592ZM98.4,58.6344C98.3616,58.4694,97.7889,58.4516,98.4,58.6344Zm1.1384.6644C99.8351,59.0917,98.9232,59.139,99.5382,59.2987Zm.958.5871C100.9219,59.7256,99.8066,59.7249,100.4963,59.8858Zm-2.56-1.756c.4615.3539,1.8617.0455.7067-.2112-.5252-.28-1.7091-.4717-.9021.1688Zm3.21,1.9587C101.3379,59.7612,100.3391,59.9014,101.1455,60.0885Zm-.9752-.7749c1.1282.3189-.9489-.714-.2786-.1177l.1488.0674Zm1.9553,1.13C103.1941,60.4539,101.16,60.2962,102.1255,60.4437ZM97.525,57.5116C97.483,57.3125,97.2615,57.5281,97.525,57.5116Zm6.408,3.946C103.9615,61.0983,103.5844,61.7254,103.933,61.4576Zm-4.5841-2.8294C99.2839,58.4388,99.015,58.62,99.3489,58.6282Zm-1.7226-1.2416C98.24,57.35,96.786,57.1164,97.6263,57.3866Zm-2.0407-1.3189C95.5092,55.7734,94.9183,55.5391,95.5856,56.0678Zm5.3571,3.4C100.83,59.3392,100.89,59.4953,100.9427,59.4674Zm3.3339,2.0462C104.2663,61.3174,104.095,61.5875,104.2765,61.5136Zm-3.6289-2.351C100.7078,58.91,100.1243,59.086,100.6476,59.1626Zm-2.484-1.5744C98.62,57.54,97.4319,57.28,98.1636,57.5882Zm4.2017,2.6109C103.0769,59.9173,101.6719,60.0618,102.3654,60.1991ZM100.18,58.7158c.82.1055-.9757-.558-.18-.06Zm2.8487,1.7516c.7658-.4571.5132,1.0717,1.2989.1293.7747-.5658-.6692.6995.2853.1008.6909-.4621,1.7109.2191,2.3552.4408.4631-.0225.9138.4007,1.3891.1432.9144-.2465-1.7886-.3654-1.08-.8021a1.7341,1.7341,0,0,1-1.8663-.8263,3.8449,3.8449,0,0,1-2.4924-1.5276c-.1913-.3114.2758.0444-.1651-.4657a6.81,6.81,0,0,1-1.2271-1.6855c-.4536-.2417-.507-.9539-.5526-.0236.0037-.5872-.5476-.9825-.6825-.8185-.0024-.5654.59-.2818.1755-.7-.0891-.586-.3831-1.1967-.4712-1.8585-.137-.3188-.0195-1.0018-.4686-.28-.1634.7632-.054-.9374.2-.377.3339-.572-.12-.5047-.1385-.4256.2175-.4826.1379-1.1676-.057-.9065.116-.5119.1834-1.8834-.173-1.64.2161-.5355.41-2.4494-.529-1.7194a3.9853,3.9853,0,0,0-1.35.2927c.9757.538-.0984.1942-.4961.1086-.0516.4979-.445.2829-.9369.2877.7857.0971-.3826.8032-.8323.5289-.5853.2793.5046.9775.0115,1.1936.0608.3249-.8962-.1176-.8215.634-.5678-.2394-.0777.8913.2064.5088.966.2617.68.8573.7043,1.4237-.1573.33-.7772-.7753-.1379-.7242-.5046-.8192-.5579-.2964-.9769.0843-.0971.0274,1.0686.5415.3371.7954.6436.1.6624.6631.7936,1.02.3867.403.3071-.4452.77.0395-.2934-.4318-1.552-1.2164-.5385-.9647-.0056-.4342-.1835-.7846.1274-.7762.3079-.5567-.3224,1.3735.371.6656.1917-.0838.24-.5574.5847.0449.5008.493.181.85-.5258.3982.1263.4293.9453.5822.7911,1.2532.1632.59.3917.3727.5907.3387.156.5732.2449.1518.2521-.1215.7146.1532.547.5757.771.8708.4924.2221-.7048-1.5064.14-.52.8893.8033.3339,1.1384-.4644,1.01.5051-.0409.6677.6831,1.3.6576.5761.2744.9666,1.3272-.0267.8888-.3443-.3109-1.5642-.694-.5677-.1032a23.5656,23.5656,0,0,1,2.5373,1.2156c.6346.4529.9088.9719,1.1493,1.0747-.5336.2549-1.6076-.2034-.81-.3436-.4979-.0905-1.0576-.3424-.5811.2774.4056.3388,1.436.3029,1.6212.3411-.1566.3449-.4255.3723.006.399-.4815.2568.1549.2969.1992.4432Zm-.9848-2.7814c-.2932-.3066-.3691-.88-.0522-.3814C102.1546,57.37,102.5123,58.2428,102.044,57.686Zm3.2078,2.0376C105.4345,59.7116,105.2572,59.8625,105.2518,59.7236Zm-3.67-2.7893C101.57,56.471,101.687,57.2918,101.5815,56.9343Zm-.3189-.4287C100.8936,55.7935,101.7271,56.7072,101.2627,56.5056Zm-3.864-2.6666C97.6154,53.7812,97.5055,54.2092,97.3986,53.839Zm3.0754,1.6666C100.6069,55.0059,100.63,55.9247,100.474,55.5056Zm-2.1725-1.5107C98.1486,53.7193,98.6216,54.2537,98.3015,53.9949Zm1.864.5975c-.3491-.782.2477-.4275.0777.1281Zm-3.2149-2.144a2.4835,2.4835,0,0,1-.3309-1.24c.0747.3746.796,1.6114.3533.5125-.4887-.9211.5848.2986.6953.5288.0516.2283-.3018-.0625-.0626.4735C97.1692,52.1134,97.3482,53.0606,96.9506,52.4485Zm-.9933-.6848C95.9979,51.1668,96.1844,52.1729,95.9573,51.7637Zm.4469.1541C96.6173,51.4675,96.7654,52.5457,96.4042,51.9178Zm-1.0753-.8317c-.37-.3681-.6376-.7068.0175-.2284.252.01-.5609-.77.0608-.2477.6532.1191.3223,1.0718-.0784.4761Zm.5646-.0146C96.1085,50.8585,96.0077,51.281,95.8935,51.0716Zm.3479.1111C95.9153,50.5724,96.6367,51.4389,96.2414,51.1826Zm-.6909-.66c-1.0752-.9577,1.3509.5.1755.1772Zm3.0813,1.79c-.4657-.2787-.1239-1.9641.0353-.8117.4524-.1464-.0251.5956.312.5883C98.9263,52.5571,98.7751,52.7255,98.6318,52.3125Zm1.14.6739C99.8169,52.4784,99.8674,53.3339,99.7715,52.9865Zm-.1979-.1961C99.6246,52.5736,99.5784,53.046,99.5736,52.79Zm-3.8125-2.5822c-.6908-.9533,2.0079.9641.4427.2417C96.04,50.4068,95.8432,50.3915,95.7611,50.2081Zm2.1949,1.1634C97.8905,50.5689,98.1018,51.5044,97.956,51.3716Zm1.666,1.069C99.7507,51.9835,99.6319,52.7431,99.6221,52.4406Zm-3.7547-2.5961c.41-.088,1.7012.7207.5161.2307-.1317-.1458-.4128-.08-.5161-.2308Zm3.5257,1.7571c.0439-.8208.2455-.49.0019.1178l-.0019-.1179Zm-3.22-2.043c.1675-.2454-.4446-1.1093.0879-.31.23.1827.666.306.2812.3831C97.1472,50.1657,96.3944,49.7765,96.1728,49.5585Zm3.046,1.7868C99.3343,50.41,99.3209,51.893,99.2188,51.3454Zm-3.3958-2.65C95.9511,48.64,95.891,48.8656,95.823,48.6951Zm.7948.473C96.8223,48.7388,96.9948,49.6465,96.6178,49.1681Zm2.241,1.2464C98.8569,50.25,98.9012,50.6544,98.8588,50.4145Zm-.13-.2871C98.4179,49.36,99.0185,50.5336,98.7288,50.1274Zm-.1907-.5034C98.4861,49.307,98.7154,50.0223,98.5381,49.624Zm.3109-.5051c-.2137-.376.27-1.6576.3238-.8628-.2254.6193-.065.9655.0916.1348.29-.6533-.0625,1.29-.4153.728Zm.3194-1.9059C99.2614,47.0988,99.1891,47.3507,99.1684,47.213Zm-.5335,10.5118C98.5085,57.6143,98.6511,57.7947,98.6348,57.7248Zm1.0989.5556c.6113.1573.6084-.0948.0557-.17-.2968-.2761-1.2349-.5695-.3952-.034C99.45,58.2173,99.6251,58.2136,99.7338,58.28Zm-2.17-1.4415c.3363.2515,1.2683.7116.48.0961.2659-.3092-.5088-.4736-.2519-.6806-.654-.4-.5163-.3644-.0577-.3516-.7857-.3516.1135-.3249.071-.5051-.303-.06-1.5052-.5345-.7979.0388-.7189-.3662-.1713.1366-.3886.0838-.7354-.2.6546.56-.1166.371.4215.3339,1.1348.8561.1779.3533-.1256.1815.685.4566.884.5943ZM98.713,57.5C100.11,57.9495,98.0275,56.9488,98.713,57.5Zm5.8835,3.564C104.6147,60.7861,104.4058,61.3,104.5965,61.0636Zm.6047.2544c.3224-.312.0134.4979.5343-.0764.0054-.4111-.0158-.6539-.5986-.1543-.161.0893-.2325.4675.0643.2308ZM95.602,55.29C95.5029,54.9,94.9079,54.9021,95.602,55.29Zm.6453.423C96.0075,55.3151,95.3918,55.3527,96.2473,55.7127Zm3.674,2.2155c.359.3189,1.6473.2338.4355.04C100.1776,57.7024,99.2177,57.7662,99.9213,57.9282Zm5.05,3.1192C105.523,60.5841,104.4362,61.2538,104.9711,61.0474Zm1.1482.7886C106.1228,61.6873,105.8813,61.901,106.1193,61.836Zm.0019-.2083C106.7325,60.9806,105.5291,61.666,106.1211,61.6277ZM94.0136,53.96c-.5209-.7432-.3236-1.0772-.8263-1.6843-.0955-.4644-.8621-1.5173-.3965-.402.4262.6528.5525,1.663,1.2229,2.0863Zm11.9156,7.4621C107.0544,60.695,105.4678,61.1055,105.9292,61.4219Zm.8586.3363C107.3512,61.2748,106.4314,61.6574,106.7878,61.7582Zm-11.3772-7.29C95.5717,54.2281,94.9942,54.437,95.4106,54.4679Zm11.198,7.0608c.5452-.3514-.1256-.2975-.0989.0321Zm-7.4-4.6642C99.19,56.6264,98.92,56.8845,99.2085,56.8644Zm.4572.263C99.52,56.8335,99.4423,57.1735,99.6657,57.1274Zm7.8179,4.6388c.6988-.5041-.4231-.0967-.1463.0959Zm-.2677-.1293C107.7853,61.16,106.6153,61.8481,107.2159,61.6368Zm1.3672.91C108.9651,62.2913,108.1187,62.4643,108.583,62.5469Zm-12.8219-8.252c.5118.1147,2.0466,1.261,1.1414.08-.4638-.1372-.1857-1.2709-.6587-1.07.3176.5307.2609.7558-.4058.422-.8372-.4093-.47.2022-.3064.371-.2236.051.295.1937.2293.1978Zm-2.3334-1.8427c.0916-.38-.8446-2.0863-.442-.8555C93.1308,51.8548,93.1157,52.3435,93.4277,52.4523Zm4.2829,2.64C97.4465,54.8724,97.6979,55.0611,97.7106,55.0927Zm.649.1513C98.36,54.842,97.6421,55.0806,98.36,55.2441Zm5.6285,3.5476C103.8807,58.5171,103.5638,58.7855,103.9881,58.7917Zm.27.1972C104.2181,58.8353,104.1022,59.0187,104.2583,58.9889Zm2.2307,1.4056C106.7034,60.2361,106.2212,60.374,106.489,60.3945ZM94.5929,52.75C95.2067,52.5123,93.9352,52.58,94.5929,52.75Zm8.9,5.6064C103.4854,57.9592,103.101,58.4553,103.4926,58.3562Zm-9.142-6.1718C94.7446,52.0516,93.9856,52.0971,94.3506,52.1844Zm1.1439.5543C95.4877,52.6083,95.3737,52.7886,95.4945,52.7387Zm13.9557,8.558c.507-.1026,1.6624.2581,1.8488-.1341-.6156-.0152-2.1293-.4348-2.201.0994l.1348.0214.2175.0133ZM95.8581,52.83C95.8674,52.4279,95.5443,52.8153,95.8581,52.83ZM92.85,50.7436C92.7139,49.9767,92.3307,50.6276,92.85,50.7436Zm.717.18C93.5766,50.6774,92.911,50.7023,93.5674,50.9239Zm.41.2016C93.8589,51.03,93.885,51.2462,93.9773,51.1255Zm2.58,1.6545C96.6786,52.6683,96.2693,52.6975,96.5571,52.78Zm-2.8524-2.1087C93.6349,50.0922,92.8735,50.5846,93.7047,50.6714Zm-1.4712-.9545C92.2127,49.45,92.09,49.8176,92.2334,49.7169Zm.2191-.165C92.4168,49.2348,92.2644,49.5918,92.4526,49.5519Zm1.2085.7212c.5112-.2-.9309-.4153-.1045-.0376Zm16.1773,9.9927C110.1655,59.9659,109.423,60.1729,109.8383,60.2658Zm1.9544,1.0127C111.9239,60.8912,111.4624,61.33,111.7927,61.2785ZM93.7845,49.64C93.8387,49.2647,93.379,49.7144,93.7845,49.64Zm-1.72-1.1523c-.0923-.5294-.08-1.4591.8039-1.1451-1.1792.2344.8166,1.4661.5646.4935.496.0244.97-.2931.71.1882.9775-.1074,1.6546-.955,2.5987-.8359a10.2975,10.2975,0,0,0,2.3315-.4675c.6515-.0468,1.2786-.7481.9217-1.164a10.0792,10.0792,0,0,0-2.8.2314c-1.0879.2258-2.0764.6556-3.1742.84-1.07.1439.215.3958-.0917.4523-.558.1937.6661.3242-.0722.5288-.4559-.0867-.9307-.2434-.7359-.7242-1.0249.1335-1.9259.5585-1.1159,1.6016l.06.0006Zm2.4706-1.2581c.24-.8852,1.2871.7287.3934.1178A.5568.5568,0,0,0,94.5352,47.2293Zm.0466-.4293C94.9287,46.5421,94.7659,46.9452,94.5819,46.8Zm.44.0074c.0318-.4074,1.0087.2155.161.1463l-.161-.1464Zm.6023-.2423C95.8448,46.3076,95.6883,46.7934,95.6244,46.5652Zm.1543-.1032c.3667-.44,2.0746-.2812.8244-.0433-.3352-.2526-.5919.1487-.8244.0433Zm2.2294-.3437C97.9529,44.9154,99.1162,46.5451,98.0081,46.1183Zm.6328-.0037c.2312-.6059.8979-.2434.1074-.122C98.7652,46.0576,98.7246,46.3059,98.6409,46.1146Zm-5.1057,3.2144C94.226,48.9057,92.8017,48.9617,93.5352,49.3289Zm.5112.1415C94.2887,49.213,93.5193,49.366,94.0464,49.47Zm-1.5057-1.068C92.9353,48.0988,92.0732,48.2871,92.5407,48.4024ZM112.9462,61.168C112.9578,60.8158,112.6445,61.3264,112.9462,61.168Zm-2.0735-1.4153C110.9316,59.3479,110.6063,59.788,110.8728,59.7527Zm2.6436,1.552c.552.0019,1.6726-.172.4717-.1713C113.7993,61.1626,112.89,61.1566,113.5163,61.3047ZM94.4958,49.222c.4469-.03.6988-.4925-.0869-.4663-1.2173-.1256,1.074.4172-.156.2618C94.0878,49.1267,94.4859,49.2523,94.4958,49.222Zm.3934.1993C94.8424,49.1346,94.7507,49.5735,94.8892,49.4212Zm.4669-1.2448C95.55,47.936,95.0877,48.1121,95.3561,48.1764ZM93.87,45.6926c.7979-.2708,1.8883-.5756,2.2648.1337-.3832-.4608-.1548-.9151.2071-.24.5118.6819.7679-.31.4352-.5392.38.4711.8106.6941.2538.03.6054-.7281-1.2113.0953-1.6241.0867-.1985.0891-2.051.4723-1.5367.5293Zm.4675-.8948c.4549-.343,1.5732.2046.8555-.3413C95.1223,44.3947,93.6215,44.8706,94.3372,44.7978Zm1.6582.0685c.5319.0134-.2294-.7152.4044-.385-.1038-.34-.7383-.4037-1.0485-.54C95.1758,44.2526,95.7081,44.8706,95.9954,44.8664ZM94.628,43.3611C94.812,43.1116,94.3051,43.4881,94.628,43.3611Zm.6778.162c.8578-.1135-.2188-.3691-.1733-.009l.1732.009Zm-1.2656-.99c-.6042-.7887,1.136.1324.5221-.6934-.5166-.411-1.0126.4633-.5221.6934Zm7.75,4.1744c.2771-.4907-1.1432-.6618-.1864-.1738.088.0292.0682.2077.1864.1738Z" fill="#d1d1d1"/><path d="M124.803,85.9862v5.4761l1.3031,20.8994a5.5835,5.5835,0,0,1-.3119,2.6861l3.3013-.6846a31.6089,31.6089,0,0,1-.5372-4.1822c.0346-1.1437.8751-11.6449.9791-13.9359a25.0414,25.0414,0,0,0-.5112-5.21,35.0442,35.0442,0,0,0,1.187-7.2674" fill="#f7aaad"/><path d="M126.1472,113.1829a3.3466,3.3466,0,0,1-.5774,1.6464,3.7405,3.7405,0,0,1-1.2824.9011l-.3986.7105s.2773.4332.4506.3813,1.8543-.9185,1.9236-.9878.97-.7865.97-.7865l.0866-.8424Z" fill="#f7aaad"/><path d="M128.7489,112.2637a5.9835,5.9835,0,0,1,.72,2.9208c-.0718.8352-.71,1.4667-.7579,2.6569h-.4119s-.0823-.5574-.117-.98c-.13-1.5857-.5719-1.1567-.5719-1.1567a18.5678,18.5678,0,0,1-1.3647,1.4643,4.3288,4.3288,0,0,1-2.4088.6737,3.3815,3.3815,0,0,1-1.9409-.5177c-.2271-.2518-.2643-.7322.4636-.8015a6.4236,6.4236,0,0,0,1.9279-.7928s-.2253.3185.104.4712a5.5756,5.5756,0,0,0,3.3373-2.3874C128.1965,112.6185,128.3252,112.39,128.7489,112.2637Z" fill="#473e73"/><path d="M131.73,115.0478a23.6634,23.6634,0,0,1,.8383-2.4043c.2132-.86.7863-.8643.7863-.8643l-.1.25,2.0352.4263s.5447,2.9106,0,4.0544a2.9265,2.9265,0,0,1-.55.8018,1.8139,1.8139,0,0,1-1.2976.5294h-.506a1.0582,1.0582,0,0,1-.939-.5451A3.2683,3.2683,0,0,1,131.73,115.0478Z" fill="#473e73"/><path d="M131.1207,85.2117a36.4881,36.4881,0,0,1,1.1235,5.6766c.02,1.6145-.2228,3.2172-.1332,5.042s1.3372,11.778.9709,14.5319a19.6362,19.6362,0,0,1-.7149,3.4711c-.2051,1.0429-.2372,1.6531.24,1.9886a2.3462,2.3462,0,0,0,2.398-.1049c.6764-.55.218-3.5714.2-4.618s1.5269-13.555,1.4756-16.87a32.7845,32.7845,0,0,0-.75-6.2025,26.3059,26.3059,0,0,1-.0991-4.7953" fill="#f7aaad"/><path d="M136.1322,65.7216s2.5647,5.1946,1.7329,10.3415a89.4753,89.4753,0,0,0-.97,10.3977s-7.3934.7843-12.1764.0219c0,0-1.7219-12.0547.15-18.1139" fill="#293b8f"/><path d="M128.102,52.8169a.9609.9609,0,0,1-.1508.6135,1.2685,1.2685,0,0,1-.5614.49c-.6248.2785-1.344.4121-2.3551.896-1.6234.776-3.2882,1.5743-4.0379,1.9046a5.086,5.086,0,0,1-1.8146.5436.2272.2272,0,0,1-.0466.0013l-.0092-.004c-.1479-.0542-.2349-.3009-.283-.5606-.0593-.2811-.0739-.5809-.0907-.654a1.3368,1.3368,0,0,1,.7142-1.4125c.0971-.0614,3.6908-2.0877,4.7879-2.6542a3.17,3.17,0,0,1,1.47-.2772,3.8146,3.8146,0,0,1,1.1819.0932C127.51,51.9446,128.0455,52.241,128.102,52.8169Z" fill="#f7aaad"/><path d="M120.4816,56.14a1.1,1.1,0,0,1-.0677.3305q-.0291.07-.0614.1293a1.6333,1.6333,0,0,1-1.0681.6747l-.0035.0012c-.05.0023-.1007.0013-.1585.0027-.0162-.0018-.0359-.0024-.0555-.003-1.14-.058-7.987-2.1231-7.987-2.1231l-.1943-.3957.58-.6942s4.2162.5075,5.914.49a10.9314,10.9314,0,0,1,2.0095.0765,2.0305,2.0305,0,0,1,.1982.0455A1.7306,1.7306,0,0,1,120.4816,56.14Z" fill="#f7aaad"/><path d="M109.9767,53.5184a9.2676,9.2676,0,0,1-1.1509-1.1128,5.059,5.059,0,0,0-1.6265-.9348c-.105.013-.1361.1338-.0457.2777a.6594.6594,0,0,0-.3989-.1047c-.0935.0216-.0355.2618.1288.4129.0346.0319.0779.0639.1186.096-.0355.0787.0023.26.1843.4366a1.37,1.37,0,0,0,.412.2643.511.511,0,0,0,.1185.2525c.1239.1194.4773.4733.6214.6481a1.9612,1.9612,0,0,0,1.693,1.3106c.46.0173,1.283.1132,1.283.1132l.3617-1.091A4.1389,4.1389,0,0,1,109.9767,53.5184Z" fill="#f7aaad"/><path d="M109.6558,54.5677a1.3371,1.3371,0,0,1-.6751-1.0794,4.5764,4.5764,0,0,0-.1316-.65,2.8735,2.8735,0,0,1-.1712-.6718c.0353-.1626.1321-.2338.2237-.2228s.1991.58.311.7084a5.7955,5.7955,0,0,1,.79.888C110.1141,53.79,110.3712,54.6428,109.6558,54.5677Z" fill="#f7aaad"/><path d="M122.8217,52.5934a3.92,3.92,0,0,0,.4616,1.5305,9.78,9.78,0,0,0,.69,1.073,2.7956,2.7956,0,0,0,.2162.262,11.2545,11.2545,0,0,0,3.2275-1.7468l.0208-.0333,2.4-3.9262A19.3848,19.3848,0,0,0,122.8217,52.5934Z" fill="#f9d989"/><path d="M123.9738,55.197a2.7956,2.7956,0,0,0,.2162.262,11.2545,11.2545,0,0,0,3.2275-1.7468l.0208-.0333c-.2537-.9982-.5657-2.2085-.5657-2.2085l-.1788.4658a6.5968,6.5968,0,0,1-.7528,2.2043A8.0379,8.0379,0,0,1,123.9738,55.197Z" fill="#f3ce7a"/><path d="M124.818,68.452c3.3231.6571,11.2794,1.3434,12.1029-.4159.3993-.8526-.2-.7112-.5739-3.0985-.0416-.2662-.0791-.5657-.1164-.9025-.0084-.104-.0208-.208-.0292-.32a13.8043,13.8043,0,0,1,.915-5.3444c.2745-.8318.5657-1.63.8152-2.3748a10.3549,10.3549,0,0,0,.62-2.5911c.0832-1.909-.6114-2.3457-1.1728-2.6785a31.1291,31.1291,0,0,0-4.5542-1.202,7.4439,7.4439,0,0,0-2.4455.0749s-3.3315.8859-3.5061,1.3184a28.2194,28.2194,0,0,0-.4117,3.1027c-.1289,1.0356-.6821,1.622-.4076,2.8531,1.0814,2.4331.2953,4.8162.0624,6.4424C125.6956,66.2352,124.39,68.3646,124.818,68.452Z" fill="#f9d989"/><path d="M126.8151,44.4125a16.9487,16.9487,0,0,1,.0154,4.4217,7.66,7.66,0,0,0,3.3324-.4531c2.048-.67-.963-4.9681-.963-4.9681l-1.2986-1.5382s-1.5041.1044-1.533.151S126.8151,44.4125,126.8151,44.4125Z" fill="#3d4277"/><path d="M128.503,47.3719a1.79,1.79,0,0,0,1.2144.6239,5.8049,5.8049,0,0,1,.0749.5948,5.2266,5.2266,0,0,1,.0474,1.08,1.39,1.39,0,0,0,1.5513,1.4515,2.4,2.4,0,0,0,1.6179-.9566.4858.4858,0,0,0,.0873-.3618,14.962,14.962,0,0,1,.04-3.8877,6.6136,6.6136,0,0,0,.9482-1.73c1.0273-2.8241.62-4.5542-2.1253-5.44-2.7491-.8775-3.4479-.1123-3.4479-.1123a6.66,6.66,0,0,0-1.5763,2.9155A8.1342,8.1342,0,0,0,128.503,47.3719Z" fill="#f7aaad"/><path d="M129.7174,47.9958a5.8049,5.8049,0,0,1,.0749.5948,3.16,3.16,0,0,0,2.0171-1.751A3.5175,3.5175,0,0,1,129.7174,47.9958Z" fill="#e4979b"/><path d="M128.6295,38.2177a1.6941,1.6941,0,0,0,.8283,2.6547c1.309.6184,3.27.78,3.779,1.9346s-.2993,4.8455-1.1906,6.3433a12.3462,12.3462,0,0,0,4.4592-.9952s-.0192-6.0136-2.0495-8.5582S129.8434,37.01,128.6295,38.2177Z" fill="#3d4277"/><path d="M129.1377,39.3746a2.095,2.095,0,0,1-.7375,2.0486c-1.0646,1.029-1.7105,1.1214-1.5851,2.9893a5.6233,5.6233,0,0,1-.5043-4.1641C127.0368,38.248,128.5593,38.0636,129.1377,39.3746Z" fill="#3d4277"/><path d="M129.4319,37.684a3.9718,3.9718,0,0,0-2.4545,1.4l1.4827.3533,1.2655-.526Z" fill="#3d4277"/><path d="M134.4588,57.4263a5.63,5.63,0,0,0,2.6577.9441c.2745-.8318.5657-1.63.8152-2.3748-.1913-.3245-.3535-.549-.3535-.549l-2.35-1.7343S134.6668,55.9165,134.4588,57.4263Z" fill="#f3ce7a"/><path d="M126.6439,62.2716s4.9118,2.4414,6.3884,2.9779c1.4723.5365,1.8175.7445,2.5953.3452a1.4286,1.4286,0,0,0,.72-.6571c-.0416-.2662-.0791-.5657-.1164-.9025l-.3245-.1372-6.0473-1.09Z" opacity="0.08"/><path d="M138.4649,53.7433a1.1,1.1,0,0,1,.4367.5769,1.4526,1.4526,0,0,1,.0305.853c-.2033.7566-.6036,1.4925-.9032,2.7408-.4818,2.0038-.9737,4.06-1.2211,4.9653a5.8249,5.8249,0,0,1-.8264,2.0059.2524.2524,0,0,1-.0325.0425l-.01.0053c-.1549.0923-.437-.0084-.7028-.1531-.2928-.15-.57-.3536-.6469-.3915a1.531,1.531,0,0,1-.74-1.6546c.0156-.1306.8077-4.7886,1.0959-6.1732a3.63,3.63,0,0,1,.8144-1.5069,4.3684,4.3684,0,0,1,.9359-.9837A1.5272,1.5272,0,0,1,138.4649,53.7433Z" fill="#f7aaad"/><path d="M136.2746,64.2945a1.2565,1.2565,0,0,1-.123.3663,1.6228,1.6228,0,0,1-.0878.1384,1.87,1.87,0,0,1-1.3083.6179l-.0042.0009c-.0569-.0044-.1146-.0125-.1805-.019-.0182-.0043-.04-.0078-.0627-.0112-1.2875-.2249-8.1506-3.24-8.1506-3.24l.06-.245.4-.8735a48.6734,48.6734,0,0,0,6.2515.9452,8.6322,8.6322,0,0,1,2.1746.45,2.3188,2.3188,0,0,1,.2189.0794A1.9819,1.9819,0,0,1,136.2746,64.2945Z" fill="#f7aaad"/><path d="M121.1632,60.7395c.0159.09.1365.1305.206.1439.0159.0024.0259.0006.0418.003a.0316.0316,0,0,0,.0218.0064c.1235-.0012.237-.0007.237-.0007a.1285.1285,0,0,0,.0548.1347.8209.8209,0,0,0,.2753.07.6279.6279,0,0,0,.0676.0035.09.09,0,0,0,.026.0006,8.5169,8.5169,0,0,1,1.2562.0225,5.9325,5.9325,0,0,0,3.0079,1.0245l.8441-1.0211a7.5564,7.5564,0,0,1-.8156-.2373c-.38-.1486-1.3683-1.1753-1.836-1.2832C124.0865,59.4921,121.39,59.663,121.1632,60.7395Z" fill="#f7aaad"/><path d="M125.8687,60.5835a2.2893,2.2893,0,0,0-.38-.4827c-.2106-.1882-.8546-.7354-1.0416-.8791s-.374-.3645-.4427-.3644-.15.1826-.1192.2764a1.3055,1.3055,0,0,0,.3349.5431A8.7319,8.7319,0,0,0,125.8687,60.5835Z" fill="#f7aaad"/><path d="M137.38,50.7273s2.9114,1.56,1.1781,7.2262a12.3951,12.3951,0,0,1-2.01-.2077,8.546,8.546,0,0,1-1.733-.6412,16.9938,16.9938,0,0,1,.5025-3.76" fill="#f9d989"/><path d="M133.03,49.6139a.8957.8957,0,0,1,.4484.2794c.143.2015-.8613.9207-1.639,1.1266S133.03,49.6139,133.03,49.6139Z" fill="#f3ce7a"/><path d="M130.2447,49.7527a1.0983,1.0983,0,0,0-.6527.2526c-.2532.2185.4574,1.2048,1.4539,1.128" fill="#f3ce7a"/><polygon points="84.212 68.294 84.615 65.322 84.47 64.781 84.146 65.234 83.773 68.264 84.212 68.294" fill="#404041"/><polygon points="82.256 68.489 81.834 65.52 81.548 65.039 81.359 65.563 81.826 68.58 82.256 68.489" fill="#404041"/><polygon points="83.619 68.719 83.582 65.677 83.323 65.197 83.1 65.685 83.141 68.723 83.619 68.719" fill="#404041"/><polygon points="81.812 71.654 84.112 71.654 84.529 67.841 81.509 67.841 81.812 71.654" fill="#808083"/><rect x="77.9382" y="72.4598" width="11.0116" height="1.0613" fill="#b5b5b5"/><rect x="78.8684" y="71.4052" width="9.9746" height="0.8514" fill="#d6d6d6"/><rect x="78.35" y="72.0536" width="11.0115" height="0.4062" fill="#d8d8d8"/><rect x="79.0733" y="71.7317" width="9.5649" height="0.0877" fill="#a5a5af"/><rect x="79.0733" y="71.9221" width="9.5649" height="0.0878" fill="#a5a5af"/><rect x="79.0733" y="71.5327" width="9.5649" height="0.0878" fill="#a5a5af"/><rect x="39.0942" y="71.5848" width="6.9987" height="1.7366" fill="#f1f2f2"/><rect x="39.0942" y="71.5848" width="2.2087" height="1.7366" fill="#a7a9ac"/><rect x="39.5264" y="71.5848" width="6.9987" height="0.1995" fill="#a7a9ac"/><rect x="39.5264" y="73.122" width="6.9987" height="0.1995" fill="#a7a9ac"/><rect x="31.9799" y="71.5848" width="9.133" height="1.7366" fill="#383838"/><rect x="35.2451" y="71.9886" width="4.8861" height="0.929" fill="#a7a9ac"/><rect x="35.5083" y="72.0386" width="4.3598" height="0.829" fill="#e6e7e8"/><ellipse cx="33.2544" cy="72.4539" rx="0.5709" ry="0.4653" fill="#a7a9ac"/><rect x="41.685" y="71.9008" width="3.9916" height="0.1755" fill="#a7a9ac"/><rect x="41.685" y="72.5771" width="3.9916" height="0.1755" fill="#a7a9ac"/><rect x="41.685" y="72.83" width="3.9916" height="0.1755" fill="#a7a9ac"/><rect x="41.9382" y="72.2892" width="2.4871" height="0.1755" fill="#a7a9ac"/><rect x="44.6249" y="72.2892" width="1.0516" height="0.1755" fill="#a7a9ac"/><rect x="40.4121" y="69.8894" width="6.9987" height="1.7367" fill="#f1f2f2"/><rect x="40.4121" y="69.8894" width="2.2087" height="1.7367" fill="#a7a9ac"/><rect x="40.8442" y="69.8894" width="6.9987" height="0.1996" fill="#a7a9ac"/><rect x="40.8442" y="71.4266" width="6.9987" height="0.1995" fill="#a7a9ac"/><rect x="33.2978" y="69.8894" width="9.133" height="1.7367" fill="#58595b"/><rect x="36.563" y="70.2933" width="4.886" height="0.929" fill="#a7a9ac"/><rect x="36.8261" y="70.3433" width="4.3598" height="0.829" fill="#e6e7e8"/><ellipse cx="34.5723" cy="70.7586" rx="0.5708" ry="0.4653" fill="#a7a9ac"/><rect x="43.0029" y="70.2055" width="3.9914" height="0.1755" fill="#a7a9ac"/><rect x="43.0029" y="70.8816" width="3.9914" height="0.1755" fill="#a7a9ac"/><rect x="43.0029" y="71.1346" width="3.9914" height="0.1755" fill="#a7a9ac"/><rect x="43.2561" y="70.5939" width="2.4871" height="0.1755" fill="#a7a9ac"/><rect x="45.9427" y="70.5939" width="1.0516" height="0.1755" fill="#a7a9ac"/><rect x="39.0942" y="68.1941" width="6.9987" height="1.7366" fill="#f1f2f2"/><rect x="39.0942" y="68.1941" width="2.2087" height="1.7366" fill="#a7a9ac"/><rect x="39.5264" y="68.1941" width="6.9987" height="0.1995" fill="#a7a9ac"/><rect x="39.5264" y="69.7313" width="6.9987" height="0.1995" fill="#a7a9ac"/><rect x="31.9799" y="68.1941" width="9.133" height="1.7366" fill="#594a42"/><rect x="35.2451" y="68.5979" width="4.8861" height="0.929" fill="#a7a9ac"/><rect x="35.5083" y="68.648" width="4.3598" height="0.829" fill="#e6e7e8"/><ellipse cx="33.2544" cy="69.0633" rx="0.5709" ry="0.4654" fill="#a7a9ac"/><rect x="41.685" y="68.5103" width="3.9916" height="0.1755" fill="#a7a9ac"/><rect x="41.685" y="69.1863" width="3.9916" height="0.1756" fill="#a7a9ac"/><rect x="41.685" y="69.4393" width="3.9916" height="0.1755" fill="#a7a9ac"/><rect x="41.9382" y="68.8985" width="2.4871" height="0.1755" fill="#a7a9ac"/><rect x="44.6249" y="68.8985" width="1.0516" height="0.1755" fill="#a7a9ac"/><polygon points="31.376 73.275 30.989 67.526 34.646 67.526 34.26 73.275 31.376 73.275" fill="#fafeff"/><polygon points="33.931 72.924 34.271 67.877 31.364 67.877 31.704 72.924 33.931 72.924" fill="#b4eff9"/><polygon points="34.16 69.533 33.931 72.924 31.704 72.924 31.476 69.533 34.16 69.533" fill="#75d9ef"/><g opacity="0.5"><path d="M33.6963,72.1935h-.6079l.3592-3.61c.0736-.6447.6763-.68.5813.0553Z" fill="#fff"/></g><rect x="82.6165" y="74.7584" width="2.0237" height="39.8021" fill="#d8d8d8"/><rect x="33.5522" y="74.7584" width="2.0238" height="39.8021" fill="#d8d8d8"/><rect x="29.0914" y="73.599" width="59.6252" height="1.7558" fill="#d8d8d8"/><rect x="28.466" y="73.2481" width="60.8759" height="0.7869" fill="#d8d8d8"/><rect x="58.251" y="72.842" width="20.1814" height="0.4061" fill="#b5b5b5"/><path d="M59.1033,72.318s7.9776-.4723,9.15.3509c1.6093-.7335,9.3267-.3509,9.3267-.3509v.524H59.1033Z" fill="#d6d6d6"/><path d="M59.1033,72.6689c.7651-.0611,1.5311-.11,2.2973-.1512.7661-.0441,1.5326-.08,2.2994-.1015s1.5342-.0272,2.3,0c.3827.0147.7653.0386,1.1445.0844a5.6117,5.6117,0,0,1,.5632.0941,1.6515,1.6515,0,0,1,.5207.1952l.02.0137.023-.01a2.9093,2.9093,0,0,1,.5513-.1608c.19-.0378.3823-.0644.5752-.0878.3864-.0437.7756-.0671,1.1649-.0833.7789-.0314,1.56-.0286,2.34-.0133s1.56.0464,2.34.0857q1.17.0531,2.338.1345c-1.5552-.14-3.1145-.2385-4.6762-.2788-.7808-.02-1.5623-.0281-2.3438-.0016-.3907.0137-.7814.0347-1.1711.0763-.1947.0223-.3892.048-.5826.0851a2.8336,2.8336,0,0,0-.5711.1647l.043.004a1.7189,1.7189,0,0,0-.5522-.2054,5.714,5.714,0,0,0-.5722-.0919c-.3831-.0437-.7674-.0653-1.1516-.0776-.7685-.0225-1.5368-.0107-2.3043.0146C62.1632,72.4089,60.631,72.5187,59.1033,72.6689Z" fill="#a5a5af"/><path d="M59.1033,72.6689q1.1452-.0308,2.2906-.0471c.7635-.0148,1.527-.0269,2.2906-.0319s1.5271-.0032,2.29.0137c.3814.0091.7627.0217,1.1431.0447.19.0118.38.0249.5688.0465a2.82,2.82,0,0,1,.5525.1l.0119.004.0121-.0024a4.7541,4.7541,0,0,1,.57-.0613c.1921-.0128.385-.02.5779-.0269.3858-.0128.7721-.0191,1.1585-.0231.7727-.0071,1.5456-.0044,2.3186.0021l4.6379.0668-2.3181-.0789-2.3191-.0465c-.7732-.0115-1.5464-.0192-2.32-.0171-.3867.0016-.7735.0053-1.16.0157-.1935.0054-.387.0116-.5806.0233a4.4165,4.4165,0,0,0-.5828.0607l.0239.0016a2.8691,2.8691,0,0,0-.573-.1015c-.191-.0207-.382-.0325-.5731-.0432-.3821-.0207-.7643-.0308-1.1463-.0376-.7642-.012-1.5282-.0083-2.292.001s-1.5275.0257-2.2909.0475Q60.2477,72.618,59.1033,72.6689Z" fill="#a5a5af"/><polygon points="48.538 107.33 48.202 109.345 46.666 109.345 46.005 109.231 46.489 106.1 48.538 107.33" fill="#feadae"/><path id="_Path_" data-name="&lt;Path&gt;" d="M46.2792,106.7531c.147.0678.3025.1272.4636.1838a12.9609,12.9609,0,0,0,1.9909.44c1.8373-3.0134,6.6027-17.6919,6.6027-17.6919.4381-1.8544-2.3464.52-3.5054.4493a2.4588,2.4588,0,0,0-1.0685.1555c-1.108.4692-2.7335,3.6041-2.7335,3.6041a19.29,19.29,0,0,0-1.012,3.3214A86.11,86.11,0,0,0,46.2792,106.7531Z" fill="#293882"/><path id="_Path_2" data-name="&lt;Path&gt;" d="M46.2792,106.7531c.147.0678.3025.1272.4636.1838.1159-.8933.2883-2.318.5427-4.5879.5682-5.0881,3.7935-10.914,4.5455-12.2144a2.4588,2.4588,0,0,0-1.0685.1555c-1.108.4692-2.7335,3.6041-2.7335,3.6041a19.29,19.29,0,0,0-1.012,3.3214A86.11,86.11,0,0,0,46.2792,106.7531Z" fill="#0088cc"/><path id="_Path_3" data-name="&lt;Path&gt;" d="M48.3028,109.0513a3.73,3.73,0,0,1-1.1742-.18,2.8006,2.8006,0,0,1-.9888-.6265,3.5558,3.5558,0,0,0-1.6284,2.7836.2275.2275,0,0,0,.1492.21s3.91,1.737,5.2549,2.2122a20.0579,20.0579,0,0,0,2.1579.5581.1889.1889,0,0,0,.23-.1032.6618.6618,0,0,0-.2931-.8061c-.6061-.4648-1.269-.8442-1.7289-1.2293s-.93-1.4469-1.3024-1.749A2.4668,2.4668,0,0,1,48.3028,109.0513Z" fill="#473e73"/><path d="M40.2032,117.9394l-.5709-30.524H41.663l-.571,30.524a.4564.4564,0,1,1-.8887,0Z" fill="#b5b5b5"/><path d="M58.8639,114.3688l-11.793-28.16,1.8873-.7492L59.69,114.0409a.4564.4564,0,1,1-.826.3279Z" fill="#b5b5b5"/><path d="M22.4314,114.3688l11.793-28.16L32.3371,85.46l-10.7317,28.581a.4564.4564,0,1,0,.826.3279Z" fill="#b5b5b5"/><g opacity="0.3" style="mix-blend-mode:multiply"><path d="M49.2859,86.3327l-1.201.4768L59.17,114.703a.6474.6474,0,0,1-.306-.3342l-11.793-28.16,1.8873-.7492Z" fill="#b5b5b5"/><path d="M41.6479,88.2189h-1.513l.5662,30.2742a.3275.3275,0,0,1-.0535.007.5225.5225,0,0,1-.4444-.5606l-.5709-30.524H41.663Z" fill="#b5b5b5"/><path d="M21.6054,114.0409,32.3371,85.46l1.8873.7492-.2169.5179L32.84,86.2633,22.17,114.68a.4021.4021,0,0,1-.3579.0455A.5225.5225,0,0,1,21.6054,114.0409Z" fill="#b5b5b5"/></g><path id="_Path_4" data-name="&lt;Path&gt;" d="M54.95,71.93H73.61l3.6939-11.613a.9069.9069,0,0,0-.8642-1.1818H59.6833a.9069.9069,0,0,0-.8642.632Z" fill="#b5b5b5" opacity="0.5"/><path id="_Path_5" data-name="&lt;Path&gt;" d="M55.252,71.93H73.1179L76.777,60.5318a.8915.8915,0,0,0-.8561-1.16H59.94a.8976.8976,0,0,0-.8561.62Z" fill="#cecece"/><path id="_Path_6" data-name="&lt;Path&gt;" d="M66.4608,61.5266H74.6a.22.22,0,0,0,.22-.22h0a.22.22,0,0,0-.22-.22h-8.14a.22.22,0,0,0-.22.22h0A.22.22,0,0,0,66.4608,61.5266Z" fill="#b5b5b5" opacity="0.5"/><path id="_Path_7" data-name="&lt;Path&gt;" d="M65.2,62.5416h9.0765a.22.22,0,0,0,.22-.22h0a.22.22,0,0,0-.22-.22H65.2a.22.22,0,0,0-.22.22h0A.22.22,0,0,0,65.2,62.5416Z" fill="#b5b5b5" opacity="0.5"/><path id="_Path_8" data-name="&lt;Path&gt;" d="M66.0411,63.5566h7.9052a.22.22,0,0,0,.22-.22h0a.22.22,0,0,0-.22-.22H66.0411a.22.22,0,0,0-.22.22h0A.22.22,0,0,0,66.0411,63.5566Z" fill="#b5b5b5" opacity="0.5"/><path id="_Path_9" data-name="&lt;Path&gt;" d="M67.3586,64.5716h6.2657a.22.22,0,0,0,.22-.22h0a.22.22,0,0,0-.22-.22H67.3586a.22.22,0,0,0-.22.22h0A.22.22,0,0,0,67.3586,64.5716Z" fill="#b5b5b5" opacity="0.5"/><path id="_Path_10" data-name="&lt;Path&gt;" d="M64.216,65.5865h9.0764a.22.22,0,0,0,.22-.22h0a.22.22,0,0,0-.22-.22H64.216a.22.22,0,0,0-.22.22h0A.22.22,0,0,0,64.216,65.5865Z" fill="#b5b5b5" opacity="0.5"/><path id="_Path_11" data-name="&lt;Path&gt;" d="M65.0624,66.6015h7.9052a.22.22,0,0,0,.22-.22h0a.22.22,0,0,0-.22-.22H65.0624a.22.22,0,0,0-.22.22h0A.22.22,0,0,0,65.0624,66.6015Z" fill="#b5b5b5" opacity="0.5"/><path id="_Path_12" data-name="&lt;Path&gt;" d="M63.2434,68.6315H72.32a.22.22,0,0,0,.22-.22h0a.22.22,0,0,0-.22-.22H63.2434a.22.22,0,0,0-.22.22h0A.22.22,0,0,0,63.2434,68.6315Z" fill="#b5b5b5" opacity="0.5"/><path id="_Path_13" data-name="&lt;Path&gt;" d="M62.913,69.6466h9.0764a.22.22,0,0,0,.22-.22h0a.22.22,0,0,0-.22-.22H62.913a.22.22,0,0,0-.22.22h0A.22.22,0,0,0,62.913,69.6466Z" fill="#b5b5b5" opacity="0.5"/><path id="_Path_14" data-name="&lt;Path&gt;" d="M58.0868,69.6466h2.9318a.6263.6263,0,0,0,.5972-.4376l2.4442-7.736a.6263.6263,0,0,0-.5972-.8149H60.5309a.6263.6263,0,0,0-.5972.4376L57.49,68.8316A.6263.6263,0,0,0,58.0868,69.6466Z" fill="#b5b5b5" opacity="0.5"/><path id="_Path_15" data-name="&lt;Path&gt;" d="M53.3868,72.7757H73.6783a.6.6,0,0,0,.6-.6h0a.6.6,0,0,0-.6-.6H53.3868a.6.6,0,0,0-.6.6h0A.6.6,0,0,0,53.3868,72.7757Z" fill="#c1c0bf"/><g id="_Group_2" data-name="&lt;Group&gt;"><path id="_Compound_Path_" data-name="&lt;Compound Path&gt;" d="M47.2878,56.6689l-1.8451-1.002a.5074.5074,0,0,1-.2035-.689l.6412-1.1773a.51.51,0,0,1,.683-.2061l1.8789.9924a.5072.5072,0,0,1,.2043.7l-.675,1.1872a.51.51,0,0,1-.4436.2559A.5026.5026,0,0,1,47.2878,56.6689Zm-1.2016-2.7563L45.4451,55.09a.2735.2735,0,0,0,.1093.371l1.845,1.0021a.2751.2751,0,0,0,.3685-.105l.6751-1.1872h0a.2734.2734,0,0,0-.11-.3771l-1.8789-.9922a.2692.2692,0,0,0-.1267-.0315A.2746.2746,0,0,0,46.0862,53.9126Z" fill="#3d4177"/></g><path id="_Path_16" data-name="&lt;Path&gt;" d="M55.2286,69.0036a3.5509,3.5509,0,0,0,.2366.2764,8.1806,8.1806,0,0,1,1.2578-.8151,6.2125,6.2125,0,0,1,1.19.1663c.3326.0211.36-.1782.36-.1782s1.27.5295,1.4736.5787c.2061.0492.342-.0188.2155-.342a1.3722,1.3722,0,0,0-.2343-.3186l-.0023-.0023a8.7529,8.7529,0,0,0-1.6466-1.4266,2.0083,2.0083,0,0,0-1.4147-.3114A15.5477,15.5477,0,0,0,54.76,67.8886,1.81,1.81,0,0,0,55.2286,69.0036Z" fill="#feadae"/><path id="_Path_17" data-name="&lt;Path&gt;" d="M54.9264,67.9542l.3022,1.0494a3.5509,3.5509,0,0,0,.2366.2764,8.1806,8.1806,0,0,1,1.2578-.8151,6.2125,6.2125,0,0,1,1.19.1663c.3326.0211.36-.1782.36-.1782s1.27.5295,1.4736.5787c.2061.0492.342-.0188.2155-.342a1.3722,1.3722,0,0,0-.2343-.3186c.1077.1489.227.3024.1564.4921-.086.2312-1.4486-.4186-2.433-1.0121-.0153-.0092-.0944-.0485-.122-.0027-.0179.0313.0393.0946.054.11.1641.1762.9894.2382.8222.5013-.2353.37-1.0822-.3092-1.5459-.1569a4.7757,4.7757,0,0,0-1.0447.5762S55.35,68.09,54.9264,67.9542Z" fill="#e5989b"/><path id="_Path_18" data-name="&lt;Path&gt;" d="M55.6149,69.2805s-4.8262,4.2211-8.4372,4.65-9.701-6.4219-9.701-6.4219.3832-3.65,2.6351-3.2207,5.27,5.8558,6.5779,6.11S54.7975,67.77,54.7975,67.77a1.7677,1.7677,0,0,1,.4207.5181A4.5373,4.5373,0,0,1,55.6149,69.2805Z" fill="#e5c683"/><path id="_Path_19" data-name="&lt;Path&gt;" d="M39.1944,48.478a5.354,5.354,0,0,1,4.78-1.5076,4.9927,4.9927,0,0,1,4.2694,3.46,4.4443,4.4443,0,0,1-.09,2.85c-1.23,3.3964-2.518,5.563-3.7184,6.2071a3.3443,3.3443,0,0,1-2.27-.2469.264.264,0,0,0-.3213.123l-.3949.7389L37.9745,59.35a11.8388,11.8388,0,0,0,.684-1.984C38.1535,56.7286,36.7779,51.2438,39.1944,48.478Z" fill="#feadae"/><path id="_Path_20" data-name="&lt;Path&gt;" d="M46.2156,53.3237a.9953.9953,0,0,0-1.0095.5925,7.0127,7.0127,0,0,1-1.0734,1.94.3533.3533,0,0,1-.3818.0036.2989.2989,0,0,1-.1744-.2964,8.0594,8.0594,0,0,1,.4015-1.3535.9114.9114,0,0,0-.6845-1.262,1.542,1.542,0,0,0-.565.0349c-1.0271.3116-.32,1.9222-.2988,2.7637a3.6554,3.6554,0,0,1-1.01,2.091,3.2254,3.2254,0,0,1-3.4256-.9858c-.83-1.0247-1.01-4.45-.5563-6.5a4.7477,4.7477,0,0,1,2.6351-3.3378,1.9085,1.9085,0,0,1,.6441-.05.5987.5987,0,0,0,.4528-.1479,4.313,4.313,0,0,1,4.7589-.4463,5.9832,5.9832,0,0,1,3.7038,5.7093c-.0381.8754-.7255.8108-1.2022.6582a.7958.7958,0,0,0-.7568.1637A1.9284,1.9284,0,0,1,46.2156,53.3237Z" fill="#3d4177"/><path id="_Path_21" data-name="&lt;Path&gt;" d="M41.5562,60.658s.2989-.3331.1854-.5368a4.8639,4.8639,0,0,0-3.4451-1.3957c-.2766.01-.6148.01-.9467.732a5.2177,5.2177,0,0,0-.41,1.2Z" fill="#f4cf7a"/><path id="_Path_22" data-name="&lt;Path&gt;" d="M34.7826,89.8444c.1078.0258.2249.0516.3467.075a30.1008,30.1008,0,0,0,3.9678.3138c4.8439-.0866,7.2924-4.5993,8.0794-5.9461a5.03,5.03,0,0,0,.3865-.7894c-.2765-.1475-3.5669-1.9218-3.3913-7.98.0364-1.2555.0188-4.0663.6441-5.1578a36.2416,36.2416,0,0,0,2.0027-3.0965,2.9673,2.9673,0,0,0,.2225-2.9911,10.7813,10.7813,0,0,0-3.67-3.2043,18.98,18.98,0,0,0-7.6336-1.2765c-2.2275.2342-4.2114,1.2836-4.7408,4.0874C29.6308,71.1,34.7826,89.8444,34.7826,89.8444Z" fill="#fbdb8a"/><path id="_Path_23" data-name="&lt;Path&gt;" d="M42.825,73.9317a11.9766,11.9766,0,0,0,4.3516,10.3554,5.03,5.03,0,0,0,.3865-.7894,10.2591,10.2591,0,0,1-3.3913-7.98c-.0053-1.2559.0188-4.0663.6441-5.1578a36.2416,36.2416,0,0,0,2.0027-3.0965l-.2717-.1054-1.6536-.2741-.8386.6839A31.9483,31.9483,0,0,0,42.825,73.9317Z" fill="#e5c683"/><path id="_Path_24" data-name="&lt;Path&gt;" d="M34.7826,89.8444c.1078.0258.2249.0516.3467.075-.3092-1.628-2.2662-11.8512-2.9033-15.559-1.2578-7.32.0514-11.0274.7894-12.3556a6.6353,6.6353,0,0,1,2.7217-2.2135c-2.2275.2342-4.2114,1.2836-4.7408,4.0874C29.6308,71.1,34.7826,89.8444,34.7826,89.8444Z" fill="#e5c683"/><path id="_Path_25" data-name="&lt;Path&gt;" d="M58.549,111.6869a3.2112,3.2112,0,0,0,1.1521.2215c.7114,0,.9179-.2659.9179-.2659v-1.6219l-2.3431-.3016Z" fill="#feadae"/><path id="_Path_26" data-name="&lt;Path&gt;" d="M40.14,89.0042c.0141,1.0544.294,2.7363,1.8741,3.2112,2.3575.7068,4.0988.3053,6.8322-.1668,2.29-.3929,8.32-1.6909,9.4278-2.1121a.1918.1918,0,0,1,.2572.2176,47.9464,47.9464,0,0,0-1.28,7.4946c-.2848,3.2217.953,12.3409.953,12.3409a6.54,6.54,0,0,0,.78.1809,3.1544,3.1544,0,0,0,.4494.04,10.23,10.23,0,0,0,1.3088-.11s2.445-13.43,2.7757-18.8715c.3279-5.4415-.1895-5.891-2.6629-7.0443s-13.53-.7257-13.53-.7257l-.0029.0027a8.4354,8.4354,0,0,1-2.4875,3.3328A10.4849,10.4849,0,0,1,40.14,89.0042Z" fill="#0088cc"/><path d="M46.8637,84.3983a6.2351,6.2351,0,0,0,.4589-.9373l.0027-.0029s.1282-.0049.35-.0119A9.1854,9.1854,0,0,1,46.8637,84.3983Z" fill="#293882"/><path d="M41.6638,88.58A2.5125,2.5125,0,0,0,43.36,90.4561c2.3575.7066,4.0988.3053,6.8322-.1668,2.29-.3929,8.32-1.6909,9.4279-2.1121a.1918.1918,0,0,1,.2572.2176,47.9382,47.9382,0,0,0-1.28,7.4945c-.2218,2.5086-.1273,10.6867-.0745,14.1851-.185-.0454-.3182-.0849-.3182-.0849s-1.2378-9.1192-.953-12.3409a47.9277,47.9277,0,0,1,1.28-7.4945.192.192,0,0,0-.2573-.2178c-1.1081.4213-7.1381,1.7192-9.4278,2.1121-2.7335.4722-4.4747.8735-6.8322.1669-1.58-.4749-1.86-2.1568-1.8741-3.2112A11.8578,11.8578,0,0,0,41.6638,88.58Z" fill="#293882"/><path id="_Path_27" data-name="&lt;Path&gt;" d="M60.6591,111.4163a3.729,3.729,0,0,1-1.163.2415,2.8017,2.8017,0,0,1-1.1455-.2415,3.556,3.556,0,0,0-.553,3.1771.2276.2276,0,0,0,.2131.1443h7.9133a.1772.1772,0,0,0,.1794-.1716.6617.6617,0,0,0-.5562-.6528c-.73-.2239-1.4841-.3475-2.0494-.5478s-1.377-1.0306-1.8315-1.1837A2.4665,2.4665,0,0,1,60.6591,111.4163Z" fill="#473e73"/><path id="_Path_28" data-name="&lt;Path&gt;" d="M64.2487,71.7546s.7041-.184,1.0691-.2588a3.8831,3.8831,0,0,1,.391-.0571,2.0325,2.0325,0,0,1,.4638.0146l3.7842.5236a.201.201,0,0,0,.2249-.1723.4359.4359,0,0,0-.1468-.3915l-.37-.3184L68.56,70.1425a2.404,2.404,0,0,0-1.704-.5911,6.6131,6.6131,0,0,0-.78.1581c-.7414.1358-.91.2211-1.4045.3229a3.2747,3.2747,0,0,1-.4134.0658.3892.3892,0,0,1-.1647-.0062A2.2921,2.2921,0,0,0,64.2487,71.7546Z" fill="#feadae"/><path id="_Path_29" data-name="&lt;Path&gt;" d="M58.4731,72.13a.0173.0173,0,0,0,.0226.0063c.097-.04.6881-.2834,1.01-.3972.1186-.0416.2307-.0731.3275-.0974a2.55,2.55,0,0,1,.5159-.0619h3.7976a.2147.2147,0,0,0,.2192-.21.4353.4353,0,0,0-.199-.36l-.41-.2647c.3877.2947.45.5165.256.54a4.8671,4.8671,0,0,1-1.4556-.2815c-.021-.0058-.0293.027-.0107.0385a.2086.2086,0,0,1-.1295.3943c-.1566-.0077-.8225-.05-.9759-.0585-.5954-.0342-1.4631-.09-1.63-.06a2.8552,2.8552,0,0,0-.8344.2889c-.1631.0849-.3182-.1009-.3776-.2749a7.1087,7.1087,0,0,0-.335-.8331.39.39,0,0,1-.164.0165A2.3066,2.3066,0,0,0,58.4731,72.13Z" fill="#f4f4f4"/><path id="_Path_30" data-name="&lt;Path&gt;" d="M43.5236,63.0164c.5005-.3057,2.0145-1.1465,3.9664,1.8977s3.5133,5.3279,4.1965,5.7378,2.3619.1171,2.9669.1171,9.4634-.691,9.4634-.691a6.239,6.239,0,0,1,.4977,1.7055S56.4981,73.9115,51.467,73.931s-8.8568-7.593-9.0324-8.51A1.9821,1.9821,0,0,1,43.5236,63.0164Z" fill="#f4cf7a"/><g id="_Group_3" data-name="&lt;Group&gt;"><path id="_Path_31" data-name="&lt;Path&gt;" d="M48.38,55.9275a.1171.1171,0,0,0,.0535-.2213l-4.3646-2.237a1.5538,1.5538,0,0,0-2.2553.33.1171.1171,0,0,0,.1935.1319c.5851-.8588,1.2829-.5982,1.9467-.2576l4.3726,2.241A.1173.1173,0,0,0,48.38,55.9275Z" fill="#3d4177"/></g><path id="_Path_32" data-name="&lt;Path&gt;" d="M43.9961,53.7481l-.527,1.6835a.5349.5349,0,0,1-.8053-.0585c-.3953-.455-.7392-2.0349-.0146-2.2983A.9522.9522,0,0,1,43.9961,53.7481Z" fill="#feadae"/><path d="M24.1587,78.1279c0-8.5017.2-14.4925,5.5852-15.3936,7.3274-1.2262,13.0583,5.1179,11.8856,17.2729-.6721,6.9648,2.184,9.3553,4.6161,10.7156,1.5727.88,4.6171.6909,4.6171.6909s1.41-.1672,2.3564-.2562c-.5856.27-13.1307,6.4521-22.0825,1.8844C23.2018,88.993,24.1587,83.13,24.1587,78.1279Z" fill="#b5b5b5"/><path d="M24.1587,78.1279c0-8.5017.2-14.4925,5.5852-15.3936.2588-.0433.5154-.0761.77-.1006,5.87.5811,9.7168,6.7635,8.6927,17.3772-.6721,6.9648,2.184,9.3552,4.6161,10.7156,1.5727.88,4.6171.6909,4.6171.6909s.0714-.0224.2022-.0617a15.149,15.149,0,0,0,2.2206.0581s1.41-.1672,2.3564-.2562c-.5856.27-13.1307,6.4521-22.0825,1.8844C23.2018,88.993,24.1587,83.13,24.1587,78.1279Z" fill="#cecece"/><ellipse cx="93.0195" cy="114.7321" rx="6.1459" ry="0.6484" fill="#e9e8ea"/><path d="M87.1093,104.69c-.0087,6.2778,1.5509,9.9084,3.5073,10.0713l.0318-22.9891C89.9859,93.0684,87.1172,99.009,87.1093,104.69Z" fill="#f4cf7a"/><path d="M90.7842,91.5118s-.0494.0911-.1359.26l-.0318,22.9891c.045.0037.09.0078.1355.0079,2.02.0028,3.6617-3.6468,3.6706-10.0691S90.7842,91.5118,90.7842,91.5118Z" fill="#fbdb8a"/><path d="M90.7277,109.5843q-.0032-2.32,0-4.641.0011-4.6413-.0579-9.2821a.0267.0267,0,0,0-.0534,0q-.0454,3.1353-.0655,6.2707a12.5178,12.5178,0,0,0-1.91-1.8859c-.0361-.0272-.09.0268-.0632.063a12.8692,12.8692,0,0,0,1.9723,1.9938c-.0065.9468-.0147,1.8934-.0171,2.84q-.0058,2.32-.0129,4.641c-.0064,1.5377-.1064,3.1083.0126,4.641a.085.085,0,0,0,.17,0C90.8255,112.6931,90.73,111.1219,90.7277,109.5843Z" fill="#2e5175"/><path d="M90.6538,107.6473a26.18,26.18,0,0,0-3.187-3.1822.0291.0291,0,0,0-.0413.0411,26.1825,26.1825,0,0,0,3.1733,3.1959A.0388.0388,0,0,0,90.6538,107.6473Z" fill="#2e5175"/><path d="M93.0745,102.3515c-.4484.3979-.88.814-1.3164,1.2251a7.6563,7.6563,0,0,0-1.1136,1.1763.044.044,0,0,0,.06.06,7.6457,7.6457,0,0,0,1.1793-1.11c.4123-.4351.83-.8657,1.2288-1.313A.0267.0267,0,0,0,93.0745,102.3515Z" fill="#2e5175"/><path d="M92.9921,108.2321a22.9093,22.9093,0,0,0-2.2226,2.1788.0486.0486,0,0,0,.0685.0687,22.91,22.91,0,0,0,2.185-2.2166A.0219.0219,0,0,0,92.9921,108.2321Z" fill="#2e5175"/><path d="M90.81,112.3787a20.5026,20.5026,0,0,0-2.6234-2.6067.0316.0316,0,0,0-.0447.0446,20.4958,20.4958,0,0,0,2.5994,2.6306A.0486.0486,0,0,0,90.81,112.3787Z" fill="#2e5175"/><path d="M93.4254,108.0512c-.0059,4.2663,1.0539,6.7337,2.3835,6.8444l.0216-15.6232A21.7862,21.7862,0,0,0,93.4254,108.0512Z" fill="#f4cf7a"/><path d="M95.9228,99.0955s-.0335.0619-.0923.1769l-.0216,15.6232c.0306.0025.0612.0053.0921.0054,1.3725.0019,2.4885-2.4784,2.4945-6.8429S95.9228,99.0955,95.9228,99.0955Z" fill="#fbdb8a"/><path d="M95.8844,111.3775q-.0021-1.577,0-3.154.0007-3.1542-.0393-6.308a.0182.0182,0,0,0-.0363,0q-.0308,2.1307-.0445,4.2615a8.507,8.507,0,0,0-1.2981-1.2817c-.0246-.0185-.0614.0182-.043.0428a8.7458,8.7458,0,0,0,1.34,1.355c-.0044.6434-.01,1.2868-.0116,1.93q-.004,1.577-.0088,3.154c-.0043,1.045-.0723,2.1124.0086,3.154a.0578.0578,0,0,0,.1155,0C95.9509,113.49,95.8859,112.4224,95.8844,111.3775Z" fill="#2e5175"/><path d="M95.8342,110.0611a17.7915,17.7915,0,0,0-2.1659-2.1626.02.02,0,0,0-.028.0279,17.7934,17.7934,0,0,0,2.1566,2.1719A.0264.0264,0,0,0,95.8342,110.0611Z" fill="#2e5175"/><path d="M97.4793,106.4621c-.3047.27-.5981.5532-.8946.8326a5.2031,5.2031,0,0,0-.7568.7994.03.03,0,0,0,.0406.0407,5.196,5.196,0,0,0,.8014-.7546c.28-.2957.5639-.5883.8351-.8923A.0182.0182,0,0,0,97.4793,106.4621Z" fill="#2e5175"/><path d="M97.4233,110.4585a15.569,15.569,0,0,0-1.51,1.4807.033.033,0,0,0,.0466.0467,15.5693,15.5693,0,0,0,1.4849-1.5064A.0149.0149,0,0,0,97.4233,110.4585Z" fill="#2e5175"/><path d="M95.94,113.2765a13.9334,13.9334,0,0,0-1.7829-1.7715.0215.0215,0,0,0-.03.03,13.9288,13.9288,0,0,0,1.7665,1.7877A.033.033,0,0,0,95.94,113.2765Z" fill="#2e5175"/></g></g></svg>