<svg xmlns="http://www.w3.org/2000/svg" xmlns:xlink="http://www.w3.org/1999/xlink" width="170" height="120" viewBox="0 0 170 120"><defs><linearGradient id="linear-gradient" x1="-246.756" y1="62.2608" x2="-245.2913" y2="62.2608" gradientTransform="matrix(-1, 0, 0, 1, -110.889, 0)" gradientUnits="userSpaceOnUse"><stop offset="0" stop-color="#fff"/><stop offset="0.6429" stop-color="#c5bfb8"/></linearGradient><linearGradient id="linear-gradient-2" x1="-237.9029" y1="63.0347" x2="-235.7138" y2="63.0347" xlink:href="#linear-gradient"/></defs><title>pyramid-python</title><g style="isolation:isolate"><g id="Layer_1" data-name="Layer 1"><path d="M71.5438,10.4214a75.2981,75.2981,0,0,0,28.9419-5.7537c5.4549-2.2971,18.3665-3.641,26.6907-2.0032,7.2263,1.4218,24.42,7.7833,17.0058,28.8251s-16.7172,23.1636-9.9714,36.9871c4.9543,10.1523,13.5139,20.2589,5.8937,28.2883-11.8505,12.4869-60.3115,30.7565-85.3119,15.3782S24.5075,91.26,32.2114,67.5274,20.3865,40.7608,30.72,23.1978C36.9171,12.6638,56.7008,10.4812,71.5438,10.4214Z" fill="#f1f3f7"/><path d="M133.7474,23.2482c-5.6825,5.4049-10.3138,7.1126-12.1434,5.4794L142.413,8.9354C141.8076,10.65,138.89,18.3575,133.7474,23.2482Z" fill="#f4cf7a"/><path d="M142.5322,8.5885s-.04.123-.1191.3469L121.604,28.7277c-.0421-.0376-.0845-.0749-.1236-.116-1.7387-1.828.1574-6.4539,5.9706-11.9832S142.5322,8.5885,142.5322,8.5885Z" fill="#fbdb8a"/><path d="M126.2005,24.1764q2.106-1.9921,4.2065-3.99,4.2057-3.9909,8.4627-7.9272a.0334.0334,0,0,1,.046.0484q-2.8027,2.7364-5.6273,5.45a15.6443,15.6443,0,0,1,3.3515.11.058.058,0,0,1-.0028.1114,16.08,16.08,0,0,1-3.5027-.0735q-1.2788,1.23-2.56,2.4572-2.0981,2-4.1952,4.0015c-1.3883,1.3278-2.7258,2.7686-4.2173,3.9784a.1062.1062,0,0,1-.1463-.1538C123.2988,26.76,124.8051,25.4964,126.2005,24.1764Z" fill="#2e5175"/><path d="M130.7385,15.8314c.0249.7484.0189,1.4975.0213,2.2464a9.5661,9.5661,0,0,1-.1087,2.0205.0549.0549,0,0,1-.1056-.0027,9.5583,9.5583,0,0,1-.0074-2.0234c.04-.7477.0714-1.4962.1337-2.2425A.0334.0334,0,0,1,130.7385,15.8314Z" fill="#2e5175"/><path d="M126.5939,17.9485c-1.5305,6.3491-3.9975,9.6373-6.0154,9.3223l5.6047-23.25C126.5352,5.4937,127.9789,12.2032,126.5939,17.9485Z" fill="#f4cf7a"/><path d="M126.11,3.7242s.0276.1042.0735.2965l-5.6047,23.25c-.0464-.0073-.093-.0142-.1389-.0252-2.0425-.4924-2.8079-4.5848-1.2421-11.08S126.11,3.7242,126.11,3.7242Z" fill="#fbdb8a"/><path d="M121.7356,22.01q.5722-2.3452,1.138-4.692,1.1369-4.6926,2.3345-9.37a.0278.0278,0,0,1,.054.013q-.7229,3.1809-1.4713,6.3559a13.0226,13.0226,0,0,1,2.3936-1.4384c.0432-.0186.0847.0493.0484.0792a13.3881,13.3881,0,0,1-2.4829,1.5322c-.2256.9588-.4494,1.9179-.6791,2.8757q-.5631,2.3475-1.1249,4.6952c-.3706,1.5562-.6546,3.1687-1.1507,4.6891a.0884.0884,0,0,1-.1718-.0414C120.8744,25.1287,121.3564,23.5637,121.7356,22.01Z" fill="#2e5175"/><path d="M122.2852,20.0694a27.2353,27.2353,0,0,1,4.0024-2.4358.03.03,0,0,1,.0316.0517,27.2382,27.2382,0,0,1-3.9919,2.453A.04.04,0,0,1,122.2852,20.0694Z" fill="#2e5175"/><path d="M121.1364,14.1217c.3558.5122.69,1.0388,1.03,1.5614a7.965,7.965,0,0,1,.8375,1.4623.0457.0457,0,0,1-.075.0458,7.954,7.954,0,0,1-.92-1.4118c-.31-.541-.6266-1.0787-.92-1.6288A.0278.0278,0,0,1,121.1364,14.1217Z" fill="#2e5175"/><path d="M119.7778,20.0873a23.8331,23.8331,0,0,1,1.7128,2.7478.0505.0505,0,0,1-.0861.0527,23.8334,23.8334,0,0,1-1.6655-2.7768A.0227.0227,0,0,1,119.7778,20.0873Z" fill="#2e5175"/><path d="M120.9676,24.8147a21.3293,21.3293,0,0,1,3.2915-1.9921.0329.0329,0,0,1,.0342.056,21.3223,21.3223,0,0,1-3.273,2.0222A.0505.0505,0,0,1,120.9676,24.8147Z" fill="#2e5175"/><path d="M135.02,28.4306c-5.0962,2.9086-8.7666,3.32-9.8032,1.8055l18.6621-10.651C143.1315,20.7224,139.6311,25.7987,135.02,28.4306Z" fill="#f4cf7a"/><path d="M144.0271,19.3544s-.0512.0822-.1487.2307l-18.6621,10.651c-.0239-.0348-.048-.07-.069-.1064-.9357-1.6394,1.27-4.66,6.4839-7.6359S144.0271,19.3544,144.0271,19.3544Z" fill="#fbdb8a"/><path d="M129.3708,27.7532q1.8867-1.07,3.77-2.1449,3.77-2.146,7.5677-4.243a.025.025,0,0,1,.0247.0434q-2.5262,1.4859-5.0642,2.9514a11.7043,11.7043,0,0,1,2.415.68.0434.0434,0,0,1-.022.08,12.0269,12.0269,0,0,1-2.5314-.6808c-.7662.4428-1.5314.8871-2.3,1.3266q-1.8825,1.0773-3.7644,2.1555c-1.2464.7158-2.4761,1.523-3.7763,2.1347a.08.08,0,0,1-.0787-.1379C126.8,29.1105,128.1206,28.4621,129.3708,27.7532Z" fill="#2e5175"/><path d="M130.9786,26.9179a24.47,24.47,0,0,1,4.0583,1.1185.0272.0272,0,0,1-.0144.0525,24.4722,24.4722,0,0,1-4.063-1.101A.0363.0363,0,0,1,130.9786,26.9179Z" fill="#2e5175"/><path d="M134.1622,22.5037c-.116.5482-.2545,1.0913-.3869,1.6357a7.1575,7.1575,0,0,1-.4409,1.4484.0411.0411,0,0,1-.0762-.0209,7.15,7.15,0,0,1,.3571-1.4712c.1629-.5361.32-1.0742.4987-1.6051A.025.025,0,0,1,134.1622,22.5037Z" fill="#2e5175"/><path d="M44.3761,56.47c5.19,5.8793,6.7247,10.5708,5.0247,12.3385L30.3949,47.279C32.0861,47.9477,39.68,51.15,44.3761,56.47Z" fill="#f4cf7a"/><path d="M30.0527,47.1471s.1215.0447.3422.1319l19.0059,21.53c-.0392.0407-.078.0817-.1205.1192-1.8913,1.67-6.4436-.3969-11.7532-6.4115S30.0527,47.1471,30.0527,47.1471Z" fill="#fbdb8a"/><path d="M45.0234,64.0463q-1.9125-2.1785-3.8308-4.3518-3.832-4.351-7.6075-8.7512a.0334.0334,0,0,1,.05-.0441q2.63,2.9024,5.2375,5.8258a15.6443,15.6443,0,0,1,.2343-3.3451.058.058,0,0,1,.1113.0069,16.08,16.08,0,0,1-.2036,3.4976q1.1813,1.3235,2.36,2.649,1.921,2.1709,3.843,4.3409c1.2753,1.4366,2.6655,2.8268,3.819,4.3621a.1062.1062,0,0,1-.1591.1405C47.4979,67.042,46.2906,65.49,45.0234,64.0463Z" fill="#2e5175"/><path d="M36.8527,59.2015c.7488.0029,1.4972.0367,2.2456.0621a9.5661,9.5661,0,0,1,2.0151.1836.0549.0549,0,0,1-.0066.1054,9.5583,9.5583,0,0,1-2.0223-.0677c-.7457-.0676-1.4925-.1269-2.2359-.2169A.0334.0334,0,0,1,36.8527,59.2015Z" fill="#2e5175"/><path d="M38.8144,63.4219c6.2878,1.7652,9.4822,4.3526,9.0925,6.3574L24.8809,63.3151C26.366,63.0181,33.1244,61.8245,38.8144,63.4219Z" fill="#f4cf7a"/><path d="M24.5819,63.3775s.1051-.0237.299-.0625l23.0259,6.4642c-.009.0461-.0176.0924-.03.1379-.5679,2.0228-4.6859,2.6357-11.1186.83S24.5819,63.3775,24.5819,63.3775Z" fill="#fbdb8a"/><path d="M42.6923,68.4277q-2.3224-.6589-4.6465-1.3115-4.6472-1.31-9.277-2.6808a.0278.0278,0,0,1,.015-.0535q3.1519.84,6.2968,1.7063a13.0226,13.0226,0,0,1-1.3485-2.4453.0483.0483,0,0,1,.081-.0455,13.3881,13.3881,0,0,1,1.4389,2.5381c.95.261,1.9.52,2.8485.7854q2.3249.65,4.65,1.2984c1.5414.4282,3.1422.7718,4.6431,1.3241a.0884.0884,0,0,1-.0478.17C45.7772,69.4041,44.2312,68.8643,42.6923,68.4277Z" fill="#2e5175"/><path d="M40.7738,67.8064a27.2353,27.2353,0,0,1-2.2855-4.09.03.03,0,0,1,.0528-.03,27.2382,27.2382,0,0,1,2.3031,4.08A.04.04,0,0,1,40.7738,67.8064Z" fill="#2e5175"/><path d="M34.7876,68.7336c.5251-.3365,1.0637-.6512,1.5986-.9718a7.965,7.965,0,0,1,1.4924-.7826.0457.0457,0,0,1,.043.0767,7.954,7.954,0,0,1-1.445.8669c-.5521.29-1.1012.5861-1.6618.8593A.0278.0278,0,0,1,34.7876,68.7336Z" fill="#2e5175"/><path d="M40.6986,70.3128a23.8331,23.8331,0,0,1,2.81-1.61.0505.0505,0,0,1,.0494.088,23.8334,23.8334,0,0,1-2.8367,1.5612A.0227.0227,0,0,1,40.6986,70.3128Z" fill="#2e5175"/><path d="M45.467,69.2993a21.3293,21.3293,0,0,1-1.8685-3.3632.0329.0329,0,0,1,.0573-.0321A21.3223,21.3223,0,0,1,45.555,69.25.0505.0505,0,0,1,45.467,69.2993Z" fill="#2e5175"/><path d="M49.6022,55.3913c2.7173,5.2007,2.9918,8.8839,1.44,9.8635L41.0917,46.21C42.2005,46.9988,47.1433,50.6852,49.6022,55.3913Z" fill="#f4cf7a"/><path d="M40.8667,46.0529s.08.0542.225.1572l9.9507,19.0447c-.0357.0226-.0713.0454-.1089.065-1.673.8742-4.61-1.4425-7.39-6.7629S40.8667,46.0529,40.8667,46.0529Z" fill="#fbdb8a"/><path d="M48.7154,61.0111q-.9991-1.9252-2.0034-3.8475-2.0045-3.8472-3.9591-7.72a.025.025,0,0,1,.0442-.0231q1.3911,2.58,2.7613,5.17a11.7043,11.7043,0,0,1,.7694-2.3881.0434.0434,0,0,1,.08.025,12.0269,12.0269,0,0,1-.7744,2.5044c.4141.7821.83,1.5633,1.24,2.3472Q47.88,59,48.8877,60.921c.6691,1.2721,1.43,2.5309,1.993,3.853a.08.08,0,0,1-.1408.0735C49.9764,63.6305,49.3774,62.2867,48.7154,61.0111Z" fill="#2e5175"/><path d="M47.94,59.3733a24.47,24.47,0,0,1,1.2684-4.0139.0272.0272,0,0,1,.0519.0163A24.4722,24.4722,0,0,1,48.01,59.3951.0363.0363,0,0,1,47.94,59.3733Z" fill="#2e5175"/><path d="M43.6475,56.028c.5435.1363,1.0811.2949,1.62.4474a7.1575,7.1575,0,0,1,1.4311.4944.0411.0411,0,0,1-.0237.0754,7.15,7.15,0,0,1-1.457-.4114c-.53-.1827-1.0616-.36-1.5855-.558A.025.025,0,0,1,43.6475,56.028Z" fill="#2e5175"/><rect x="35.5192" y="12.9705" width="94.6979" height="58.8015" rx="1.497" ry="1.497" transform="translate(165.7362 84.7426) rotate(-180)" fill="#fff"/><g opacity="0.6"><rect x="84.3638" y="28.7589" width="5.2368" height="1.1025" transform="translate(173.9643 58.6204) rotate(-180)" fill="#ccc"/><rect x="80.1261" y="28.7589" width="3.1351" height="1.1025" transform="translate(163.3874 58.6204) rotate(-180)" fill="#7c7c7c"/><rect x="71.8996" y="28.7589" width="7.1241" height="1.1025" transform="translate(150.9232 58.6204) rotate(-180)" fill="#ccc"/><rect x="69.1532" y="31.1076" width="7.1241" height="1.1025" transform="translate(145.4305 63.3177) rotate(-180)" fill="#ccc"/><rect x="69.1494" y="26.3702" width="20.4512" height="1.1025" transform="translate(158.7499 53.8429) rotate(-180)" fill="#ccc"/><rect x="83.2613" y="31.1477" width="6.3393" height="1.1025" transform="translate(172.8618 63.3978) rotate(-180)" fill="#ccc"/><rect x="80.1261" y="31.1477" width="2.0672" height="1.1025" transform="translate(162.3195 63.3978) rotate(-180)" fill="#ccc"/><rect x="76.9565" y="31.1477" width="2.0672" height="1.1025" transform="translate(155.9802 63.3978) rotate(-180)" fill="#ccc"/></g><rect x="39.6858" y="60.5423" width="5.3038" height="1.1025" fill="#ccc"/><rect x="39.6858" y="62.931" width="5.3038" height="1.1025" fill="#ccc"/><rect x="46.404" y="62.931" width="43.0592" height="1.1025" fill="#ccc"/><rect x="46.404" y="60.5423" width="6.3253" height="1.1025" fill="#ccc"/><rect x="54.1437" y="60.5423" width="18.367" height="1.1025" fill="#ccc"/><rect x="73.925" y="60.5423" width="15.5382" height="1.1025" fill="#ccc"/><rect x="39.6858" y="58.1536" width="49.7774" height="1.1025" fill="#ccc"/><path d="M35.5192,12.9705H130.217a0,0,0,0,1,0,0v5.165a1.3994,1.3994,0,0,1-1.3994,1.3994H36.9186a1.3994,1.3994,0,0,1-1.3994-1.3994v-5.165a0,0,0,0,1,0,0Z" transform="translate(165.7362 32.5054) rotate(-180)" fill="#ccc"/><circle cx="126.5894" cy="16.2527" r="0.9135" fill="#fff"/><circle cx="123.3925" cy="16.2527" r="0.9135" fill="#fff"/><circle cx="120.1956" cy="16.2527" r="0.9135" fill="#fff"/><g opacity="0.6"><rect x="39.6858" y="28.7589" width="5.2368" height="1.1025" fill="#ccc"/><rect x="46.0251" y="28.7589" width="3.1351" height="1.1025" fill="#ccc"/><rect x="50.2627" y="31.1477" width="7.1241" height="1.1025" fill="#7c7c7c"/><rect x="53.0091" y="26.3702" width="7.1241" height="1.1025" fill="#ccc"/><rect x="39.6858" y="26.3702" width="9.4744" height="1.1025" fill="#ccc"/><rect x="39.6858" y="31.1477" width="6.3393" height="1.1025" fill="#7c7c7c"/><rect x="47.0931" y="31.1477" width="2.0672" height="1.1025" fill="#ccc"/><rect x="50.2627" y="26.3702" width="2.0672" height="1.1025" fill="#ccc"/><rect x="50.2627" y="28.7589" width="6.0216" height="1.1025" fill="#ccc"/><rect x="39.6858" y="33.2858" width="20.4512" height="1.1025" fill="#ccc"/></g><path d="M103.0806,26.1039h23.0808a.9691.9691,0,0,1,.9691.9691V63.1252a.97.97,0,0,1-.97.97h-23.08a.9692.9692,0,0,1-.9692-.9692V27.0725a.9686.9686,0,0,1,.9686-.9686Z" transform="translate(229.2425 90.1987) rotate(-180)" fill="#efefef" opacity="0.6"/><rect x="44.8997" y="30.5897" width="12.9661" height="24.1087" transform="translate(8.7386 94.0268) rotate(-90)" fill="#efefef" opacity="0.6"/><rect x="70.9259" y="30.5897" width="12.9661" height="24.1087" transform="translate(34.7648 120.0529) rotate(-90)" fill="#efefef" opacity="0.6"/><rect x="48.4603" y="41.7609" width="5.8448" height="24.1087" transform="translate(-2.4325 105.1979) rotate(-90)" fill="#efefef" opacity="0.6"/><rect x="74.4865" y="41.7609" width="5.8448" height="24.1087" transform="translate(23.5937 131.2241) rotate(-90)" fill="#efefef" opacity="0.6"/><g opacity="0.6"><path d="M107.5138,35.5546a4.0919,4.0919,0,0,0,5.1343-2.2217c.0363-.0836.07-.1687.1008-.2558a4.0952,4.0952,0,1,0-5.2351,2.4775Zm-1.512-4.8906a3.07,3.07,0,1,1,5.7821,2.0682c-.0233.0648-.0486.1292-.0757.1915a3.07,3.07,0,0,1-5.7064-2.26Z" fill="#ccc"/></g><path d="M111.8239,30.7831l.9784-.3055a4.1017,4.1017,0,0,0-3.7872-2.8741l-.03,1.0247a3.0751,3.0751,0,0,1,2.8392,2.1548Z" fill="#999"/><path d="M111.7081,32.9237l.94.4093c.0363-.0836.07-.1687.1008-.2558a4.0752,4.0752,0,0,0,.0534-2.6l-.9784.3055a3.0572,3.0572,0,0,1-.04,1.9492C111.7606,32.7971,111.7353,32.8614,111.7081,32.9237Z" fill="#a0a0a0"/><path d="M112.0133,34.3521a4.0828,4.0828,0,0,0,.6347-1.0191l-.94-.4093a3.0514,3.0514,0,0,1-.4759.7644Z" fill="#aaa"/><path d="M116.9845,30.0622h6.2778a.7174.7174,0,0,0,.7175-.7178h0a.7173.7173,0,0,0-.7175-.7173h-6.2778a.7173.7173,0,0,0-.7175.7173h0A.7174.7174,0,0,0,116.9845,30.0622Z" fill="#ccc" opacity="0.6"/><path d="M116.9845,32.5661h6.2778a.7175.7175,0,0,0,.7175-.7178h0a.7178.7178,0,0,0-.7175-.7178h-6.2778a.7178.7178,0,0,0-.7175.7178h0A.7175.7175,0,0,0,116.9845,32.5661Z" fill="#ccc" opacity="0.6"/><path d="M116.9845,35.07h6.2778a.7174.7174,0,0,0,.7175-.7178h0a.7178.7178,0,0,0-.7175-.7178h-6.2778a.7178.7178,0,0,0-.7175.7178h0A.7174.7174,0,0,0,116.9845,35.07Z" fill="#ccc" opacity="0.6"/><g opacity="0.6"><circle cx="120.6162" cy="58.2578" r="2.3256" fill="#ccc"/><circle cx="114.3371" cy="58.2578" r="2.3256" fill="#ccc"/><circle cx="108.1743" cy="58.2578" r="2.3256" fill="#ccc"/></g><path id="path3093" d="M108.6911,42.1536a3.0941,3.0941,0,0,1,3.094-3.0941h7.1107a3.0938,3.0938,0,0,1,3.0938,3.0941V49.11a3.0942,3.0942,0,0,1-3.0938,3.0941h-7.1107a3.0944,3.0944,0,0,1-3.094-3.0941Z" fill="#b5b5b5" opacity="0.5"/><polygon id="polygon3106" points="115.417 47.095 110.799 48.053 115.417 41.898 115.417 47.095" fill="#ccc"/><polygon id="polygon3113" points="120.036 48.053 115.417 47.095 115.417 41.898 120.036 48.053" fill="#efefef" opacity="0.6"/><polygon id="polygon3115" points="115.417 48.802 110.799 48.053 115.417 47.095 120.036 48.053 115.417 48.802" fill="#fff" stroke="#b3b3b3" stroke-width="0.15"/><path d="M61.4769,81.1093a10.3327,10.3327,0,0,0,1.1866.1733c.384.0123,2.16-.7931,2.7281-.7163a41.4589,41.4589,0,0,1,4.4423,1.7664c.1683.1145-.0791.368-.0791.368l-8.5082.1Z" fill="#feadae"/><rect x="58.6052" y="82.6802" width="14.1523" height="1.296" transform="translate(-0.6322 0.5022) rotate(-0.436)" fill="#323657"/><rect x="67.1404" y="76.3182" width="14.1521" height="1.2963" transform="translate(-21.0903 125.4281) rotate(-72.9946)" fill="#323657"/><path d="M46.9193,110.11l-.5458,1.1808s-2.299-.8571-2.31-.8857.633-1.64.633-1.64Z" fill="#feadae"/><path d="M66.6081,110.0843l.6361,1.8589s-2.5228.5553-2.8894.5261c-.0322-.0028-.477-2.1052-.477-2.1052Z" fill="#feadae"/><path d="M64.0726,111.9275s1.763-.479,1.8155-.5553a1.8259,1.8259,0,0,1,1.0324-.4572c.3332.0561.3635.4543.6967.5363s2.9093.9053,3.2663,1.1157,2.0612-.4095,2.39.0319.6468,1.6015-2.0314,2.0031-5.5448,1.5964-6.186,1.4332S63.9747,112.6415,64.0726,111.9275Z" fill="#473e73"/><path d="M43.8821,110.09s1.634.6978,1.72.6708a1.7736,1.7736,0,0,1,1.0635.2738c.2207.2434.0034.566.2084.829s1.37,1.8045,1.7106,2.1608c.2788.2905,1.8081.5626,2.2987,1.0753.37.3865-.0648,1.9313-2.6664,1.1931-2.5334-.7191-5.67-1.9649-6.0614-2.4754S43.3768,110.5756,43.8821,110.09Z" fill="#473e73"/><path d="M45.5576,86.9205s7.1867,3.1956,8.71,4.2884,4.8574,3.1047,4.9685,3.5973.771.0129-.4114,2.4731-6.7736,8.3809-7.298,9.0248c-.5466.6709-4.4249,4.6922-4.4249,4.6922l-2.9168-2.1972s5.6085-8.2468,6.42-9.46,1.1774-1.3922.6975-1.9279-2.3974-.5273-12.2679-4.6159c-.9861-.4084-3.738-1.3547-4.1007-2.679-.6555-2.3935-.0937-5.4265,2.56-6.76S45.5576,86.9205,45.5576,86.9205Z" fill="#293882"/><path d="M48.9754,63.786a1.0478,1.0478,0,0,0-.203.345,8.4205,8.4205,0,0,0-.3183.9452c-.3256,1.14-.6218,2.6021-.6218,2.6021S43.7189,64.2516,44.3,64.0362,45.312,62.819,45.312,62.819,49.409,63.4012,48.9754,63.786Z" fill="#feadae"/><path d="M48.7188,75.6245S45.381,82.0073,45.2363,84.4s-6.9693-.7527-6.9693-.7527Z" fill="#eddcc5"/><path d="M45.2494,84.2471l.0766.5952.1189.7847v.0006h-.0014c-.1026-.0068-6.6641-.42-7.14-.2985-.479.1223.9034-1.547.9034-1.547Z" fill="#323657"/><path d="M45.4449,85.6276s7.4245,1.7467,9.26,2.3335a53.3084,53.3084,0,0,1,5.8435,2.1035c.451.2574,1.1395.6422,1.9638,3.3257.9345,3.0414,3.0683,11.5956,3.5527,12.9278.304.8363,1.1788,4.1279,1.1788,4.1279l-3.7939.658s-4.5186-9.0966-4.8852-11.5216c-.6167-4.0814-2.1988-4.1032-2.8383-4.4751s-3.717.3259-14.6678-.5475c-1.0944-.0875-4.0864-.1419-4.86-1.3227-1.3992-2.1332-2.8114-4.557-.6383-6.702S45.4449,85.6276,45.4449,85.6276Z" fill="#0088cc"/><path d="M44.3,64.0362s-5.21,3.0358-6.3859,8.3372-3.3014,14.6106-3.339,15.7134c0,0,7.05-3.3931,10.8694-2.4591,0,0,2.4045-8.639,3.6693-10.68s-.6151-6.8367-.6151-6.8367A12.7117,12.7117,0,0,0,44.3,64.0362Z" fill="#fbdb8a"/><path d="M25.3032,66.4089l4.1983,12.3119a1.1223,1.1223,0,0,1,.0572.29L30.5656,95.2l17.5533.391,5.1149,18.619a1.9573,1.9573,0,0,1-.2827,1.648,1.4291,1.4291,0,0,1-.9855.649c-1.1129.1358-23.6484,0-23.6484,0v-.9312a.8489.8489,0,0,1,.8579-.84H50.2423a1.1406,1.1406,0,0,0,.8947-.42.739.739,0,0,0,.1792-.5761c-.0928-.5935-4.59-15.7639-4.59-15.7639l-16.9733-.3006A1.447,1.447,0,0,1,28.32,96.3038l-.7374-17.4192a1.3688,1.3688,0,0,0-.0539-.327L24.0975,66.7864s-.3593-.8206.3015-.9A.7334.7334,0,0,1,25.3032,66.4089Z" fill="#ccc"/><path d="M48.2128,95.9331s.0132-1.344-1.8292-1.4377c-2.1153-.1077-15.8747-.203-15.8747-.203l.092,1.43Z" fill="#e2e2e2"/><path d="M56.711,84.9752v.6271H86.6129v-.6271a.9813.9813,0,0,0-.8778-1.059H57.5888A.9813.9813,0,0,0,56.711,84.9752Z" fill="#ccc"/><path d="M75.8822,114.745H84.918a0,0,0,0,1,0,0v.7126a.7324.7324,0,0,1-.7324.7324H75.8822a0,0,0,0,1,0,0v-1.445A0,0,0,0,1,75.8822,114.745Z" transform="translate(160.8002 230.935) rotate(180)" fill="#ccc"/><rect x="83.1499" y="85.6023" width="1.1942" height="30.5877" transform="translate(167.4941 201.7923) rotate(180)" fill="#ccc"/><rect x="80.7509" y="85.6023" width="1.1942" height="30.5877" transform="translate(162.696 201.7923) rotate(180)" fill="#ccc"/><path d="M48.7724,64.131a8.4205,8.4205,0,0,0-.3183.9452,9.8584,9.8584,0,0,1-1.8261-1.3737A17.092,17.092,0,0,0,48.7724,64.131Z" fill="#eda4a7"/><path d="M69.3984,85.6023H90.76v-.6271a1.0912,1.0912,0,0,0-1.121-1.059H72.7427Z" fill="#e2e2e2"/><path d="M46.587,68.1417s1.24,1.7579,2.0073,3.089c.8694,1.5095,1.7243,3,1.9127,3.3348.384.6821,1.7487,1.0461,2.3528,1.3053.5553.2384,9.8088,5.1909,9.9263,5.18a14.8836,14.8836,0,0,1-.9965,1.8455s-12.8487-3.6842-13.4262-4.212a44.5315,44.5315,0,0,1-2.9931-3.92c-.6681-.9429-1.6926-2.4894-2.2359-3.1558-.6075-.7444-1.8822-3.2938-.2617-4.5648C44.9434,65.4194,46.0883,67.3956,46.587,68.1417Z" fill="#f4cf7a"/><path d="M43.0652,71.52a42.1915,42.1915,0,0,0,2.38,5.4046,26.2175,26.2175,0,0,0,1.88,2.5158l.4757-1.3906S43.9545,72.76,43.0652,71.52Z" fill="#d19e4c"/><path d="M80.9847,78.0483h8.12a0,0,0,0,1,0,0V80.01a0,0,0,0,1,0,0H80.9843a.4971.4971,0,0,1-.4971-.4971v-.9676A.4975.4975,0,0,1,80.9847,78.0483Z" transform="translate(169.5923 158.0587) rotate(180)" fill="#323657"/><path d="M79.8658,80.01h8.12a0,0,0,0,1,0,0V81.972a0,0,0,0,1,0,0H79.8653a.4969.4969,0,0,1-.4969-.4969v-.9673A.4973.4973,0,0,1,79.8658,80.01Z" transform="translate(167.3544 161.9824) rotate(180)" fill="#545a77"/><path d="M77.2543,78.0483h8.12a0,0,0,0,1,0,0V80.01a0,0,0,0,1,0,0h-8.12a.4973.4973,0,0,1-.4973-.4973v-.9676A.4973.4973,0,0,1,77.2543,78.0483Z" transform="translate(162.1316 158.0587) rotate(-180)" fill="#323657"/><path d="M76.1353,80.01h8.1205a0,0,0,0,1,0,0V81.972a0,0,0,0,1,0,0H76.1349a.4969.4969,0,0,1-.4969-.4969v-.9673A.4973.4973,0,0,1,76.1353,80.01Z" transform="translate(159.8938 161.9824) rotate(180)" fill="#545a77"/><path d="M77.1519,78.25H85.139a0,0,0,0,1,0,0v1.5577a0,0,0,0,1,0,0H77.1516a.3946.3946,0,0,1-.3946-.3946v-.7681a.3949.3949,0,0,1,.3949-.3949Z" transform="translate(161.896 158.0581) rotate(-180)" fill="#edebeb"/><path d="M76.0182,80.2409H84.02a0,0,0,0,1,0,0v1.5a0,0,0,0,1,0,0H76.0182a.38.38,0,0,1-.38-.38v-.74A.38.38,0,0,1,76.0182,80.2409Z" transform="translate(159.6579 161.9824) rotate(-180)" fill="#edebeb"/><path d="M80.4487,81.972h8.12a0,0,0,0,1,0,0v1.9621a0,0,0,0,1,0,0H80.4483a.4971.4971,0,0,1-.4971-.4971v-.9676a.4975.4975,0,0,1,.4975-.4975Z" transform="translate(168.5204 165.9061) rotate(180)" fill="#323657"/><path d="M76.7183,81.972h8.12a0,0,0,0,1,0,0v1.9621a0,0,0,0,1,0,0h-8.12a.4973.4973,0,0,1-.4973-.4973v-.9676A.4973.4973,0,0,1,76.7183,81.972Z" transform="translate(161.0597 165.9061) rotate(-180)" fill="#323657"/><path d="M76.6013,82.2026H84.603a0,0,0,0,1,0,0v1.5a0,0,0,0,1,0,0H76.6013a.38.38,0,0,1-.38-.38v-.74a.38.38,0,0,1,.38-.38Z" transform="translate(160.8241 165.9056) rotate(-180)" fill="#edebeb"/><path d="M50.4254,55.1936s1.2851,2.2191.9923,2.8232,1.3423,2.0676,1.0739,2.3778-.8215.6854-.8123.7758-.4751,2.9824-1.1058,3.047-4.9416-.1588-5.2991-1.5073-1.4088-4.3023-1.6567-4.8509S45.8552,53.0744,50.4254,55.1936Z" fill="#feadae"/><path d="M45.1106,54.7651a4.7468,4.7468,0,0,0-.8807.8364c-.2827.1329-1.95.9608-1.6031,1.8561.4664,1.2043,2.3514,4.4308,2.51,4.7679.0213.0449.0213-.04.0059-.221a5.0645,5.0645,0,0,1,1.5181-2.4159l.748-.3377a2.1911,2.1911,0,0,1-.2362-1.4041c.8468-.9075,3.6607-1.8853,3.6607-1.8853C50.4324,51.9469,46.9967,53.3656,45.1106,54.7651Z" fill="#3d4177"/><path d="M46.3839,58.6439a.6661.6661,0,0,0-1.0955.6417c.1528.8958,1.441,1.6144,1.7215,1.215S46.5962,58.9676,46.3839,58.6439Z" fill="#feadae"/><path id="_Path_" data-name="&lt;Path&gt;" d="M129.3107,46.8857s-3.1049.089-1.46,3.6294S129.3107,46.8857,129.3107,46.8857Z" fill="#3d4277"/><path id="_Path_2" data-name="&lt;Path&gt;" d="M128.447,48.1747s-.8356.5127-.8236,3.2837c0,.0959-.3393.9144-.37,1.011-.1175.3712.1165.3954.4338.5525.1285,2.09.4423,2.052.7173,2.2361.3139.21,2.7169-.2852,4.26-1.05a3.6072,3.6072,0,0,0,1.4153-4.4479C133.4273,48.36,130.2512,46.9677,128.447,48.1747Z" fill="#f7aaad"/><path id="_Path_3" data-name="&lt;Path&gt;" d="M134.3306,48.4163a1.8858,1.8858,0,0,1,2.1754-1.1314c1.5592.3851,1.8593,3.7028-1.5219,3.0744A2.5384,2.5384,0,0,0,134.3306,48.4163Z" fill="#3d4277"/><path id="_Path_4" data-name="&lt;Path&gt;" d="M134.0946,47.9233s.372-.6125,1.0189.2069c.4314.5466,1.1136,2.1547.1792,2.5493Z" fill="#f9d989"/><path id="_Path_5" data-name="&lt;Path&gt;" d="M135.3933,50.1333c.2473,1.3135-.3956,3.3205-2.9709,4.1894,0,0-.229-.793-.3935-1.57s-2.3476-1.667-3.2948-2.5152q-.071-.0637-.1327-.1288a1.9629,1.9629,0,0,1-.0223-2.5809,3.201,3.201,0,0,1,3.8034-1.0228A4.3712,4.3712,0,0,1,135.3933,50.1333Z" fill="#3d4277"/><path id="_Path_6" data-name="&lt;Path&gt;" d="M129.1873,53.0553a3.2681,3.2681,0,0,1,.4477,2.1737c-.0092.1442-.0183.2884-.0275.4284a13.3321,13.3321,0,0,1-.2315,1.5935l2.9705-.0736a18.1586,18.1586,0,0,1,.0731-2.86S128.23,52.0162,129.1873,53.0553Z" fill="#f7aaad"/><path id="_Path_7" data-name="&lt;Path&gt;" d="M130.87,51.5528a.8576.8576,0,0,1,1.1169-.3667c.7107.3456.27,1.602-.2457,1.81a.675.675,0,0,1-.7224-.1055Z" fill="#7f7f7f" opacity="0.4" style="mix-blend-mode:multiply"/><path id="_Path_8" data-name="&lt;Path&gt;" d="M130.68,51.5576a.8576.8576,0,0,1,1.1168-.3667c.7107.3456.3168,1.6726-.2457,1.81a.6157.6157,0,0,1-.6721-.25Z" fill="#f7aaad"/><path id="_Path_9" data-name="&lt;Path&gt;" d="M129.6075,55.6573a8.802,8.802,0,0,0,1.97-.9973c-.8317.27-1.9421.5689-1.9421.5689C129.6259,55.3732,129.6167,55.5174,129.6075,55.6573Z" fill="#e4979b"/><path id="_Path_10" data-name="&lt;Path&gt;" d="M122.9372,56.9181l2.3482,10.3146a.4935.4935,0,0,1-.4111.5981l-7.3092,1.05a.4936.4936,0,0,1-.5514-.379l-2.3482-10.3146a.4935.4935,0,0,1,.4111-.5981l7.3092-1.05A.4935.4935,0,0,1,122.9372,56.9181Z" fill="#e2e2e2"/><polygon id="_Path_11" data-name="&lt;Path&gt;" points="122.48 57.251 124.728 67.127 117.471 68.169 115.223 58.293 122.48 57.251" fill="#fff"/><g id="_Group_" data-name="&lt;Group&gt;"><line id="_Path_12" data-name="&lt;Path&gt;" x1="115.9915" y1="59.0206" x2="122.1588" y2="58.135" fill="none" stroke="#e2e2e2" stroke-miterlimit="10" stroke-width="0.15"/><line id="_Path_13" data-name="&lt;Path&gt;" x1="116.1991" y1="59.954" x2="122.3664" y2="59.0684" fill="none" stroke="#e2e2e2" stroke-miterlimit="10" stroke-width="0.15"/><line id="_Path_14" data-name="&lt;Path&gt;" x1="118.7667" y1="60.7278" x2="122.6208" y2="60.1743" fill="none" stroke="#e2e2e2" stroke-miterlimit="10" stroke-width="0.15"/><line id="_Path_15" data-name="&lt;Path&gt;" x1="119.0406" y1="61.5301" x2="122.8947" y2="60.9767" fill="none" stroke="#e2e2e2" stroke-miterlimit="10" stroke-width="0.15"/><line id="_Path_16" data-name="&lt;Path&gt;" x1="119.3146" y1="62.3324" x2="123.1687" y2="61.779" fill="none" stroke="#e2e2e2" stroke-miterlimit="10" stroke-width="0.15"/><line id="_Path_17" data-name="&lt;Path&gt;" x1="117.9013" y1="66.7663" x2="121.7554" y2="66.2129" fill="none" stroke="#e2e2e2" stroke-miterlimit="10" stroke-width="0.15"/></g><g id="_Group_2" data-name="&lt;Group&gt;"><path d="M125.75,67.3561a3.1959,3.1959,0,0,1-1.016-.9064l-.8712-1.0372a.8629.8629,0,0,1-.2475-.4631c.4129-.0336.7011.4162,1.0763.5764a.1176.1176,0,0,0,.153-.1441,10.1967,10.1967,0,0,0-.9091-2.1.7058.7058,0,0,1-.1395-.5721,3.7126,3.7126,0,0,1,1.3527.9878,7.2212,7.2212,0,0,1,.733.9325,10.0381,10.0381,0,0,1,1.3117,3.2222Z" fill="#e4979b"/></g><path id="_Path_18" data-name="&lt;Path&gt;" d="M127.0713,76.1044l4.6439-5.0059s2.8119,2.9739,2.2908,6.24a29.3,29.3,0,0,1-.8757,3.21c-.143.7154-.5081,10.64-.3044,11.337s1.2851,2.5857,1.8615,4.64c.6932,2.4711,1.6346,10.684,2.2,12.8229s-.3642,4.9933-.5651,4.2708c-1.7161-6.1748-6.4474-17.9115-7.1822-21.0136S127.84,83.7267,127.0713,76.1044Z" fill="#f7aaad"/><g id="_Group_3" data-name="&lt;Group&gt;"><path d="M127.8168,82.3049l2.8869,4.8929a11.6674,11.6674,0,0,0-.9069,5.6111c.0846,1.002.2951,1.99.39,2.9914a.9964.9964,0,0,1-.0038.2206c-.4834-1.4416-.858-2.6327-1.0434-3.4157a95.63,95.63,0,0,1-1.435-10.2921A1.0092,1.0092,0,0,1,127.8168,82.3049Z" fill="#e4979b"/></g><path id="_Path_19" data-name="&lt;Path&gt;" d="M134.91,109.1343s1.4231,4.04,1.3091,4.553c-.07.3134-.3861,1.3692-.4579,1.5192-.0287.06-1.0484.87-.3709.8531.6687-.0169,2.2548-2.1252,2.49-2.2846a1.0033,1.0033,0,0,0,.468-1.0382,4.3467,4.3467,0,0,0-.8643-1.53,13.2246,13.2246,0,0,1-.7465-2.54Z" fill="#f7aaad"/><path id="_Path_20" data-name="&lt;Path&gt;" d="M134.4876,116.241a4.0745,4.0745,0,0,1,1.0974-.875h0c.1257-.16.2275-.2623.1762-.16-.0876.1716.365.2591.5876.0766.7774-.6241,1-1.5548,1.3832-1.9964a1.5173,1.5173,0,0,0,.1058-1.5949,3.6186,3.6186,0,0,1,1.1185.5014,2.0958,2.0958,0,0,1,.5931.6615,8.95,8.95,0,0,0,.5319,1.2152l-.7372.5868-.7143-.6474-.1971.208a1.6946,1.6946,0,0,0-.38.7774,4.1818,4.1818,0,0,1-.1861.5766,1.7812,1.7812,0,0,1-.5438.7555s-.1528.1254-.3135.2571a1.3138,1.3138,0,0,1-.8327.2977h-1.2663l0-.0012-.1945-.0008a.3334.3334,0,0,1-.34-.3679A.6976.6976,0,0,1,134.4876,116.241Z" fill="#473e73"/><path id="_Path_21" data-name="&lt;Path&gt;" d="M123.7567,115.62c.1006-.1335,1.287-.4378,1.8306-.7246a3.2616,3.2616,0,0,0,1.2037-1.3729,13.6147,13.6147,0,0,0-.1448-2.5207c-.5175-4.4846-2.3372-15.3934-2.6943-18.013-.6208-4.5531-.4523-9.3256.6457-16.8235l6.0974-5.6167a11.6912,11.6912,0,0,1,1.821,6.5609c-.1859,1.9238-1.7289,2.3561-1.928,3.1151s-3.0944,12.97-3.0944,12.97a22.396,22.396,0,0,1,1.2994,5.2968c.2541,2.3932-.1817,9.7207-.1352,12.4931a9.091,9.091,0,0,0,.2436,2.2328c.24.4852.7881,1.0309.82,1.6671a.9791.9791,0,0,1-.6666.9293c-.4512.1858-.7341-.0591-.8941-.0514-.9269.0449-1.1255.703-2.72.8461a2.5328,2.5328,0,0,1-1.6419-.5155A.3384.3384,0,0,1,123.7567,115.62Z" fill="#f7aaad"/><path id="_Path_22" data-name="&lt;Path&gt;" d="M123.6707,116.1955a1.184,1.184,0,0,0,.33.365,1.6846,1.6846,0,0,0,1.026.3212h.78a1.7959,1.7959,0,0,0,.9013-.2418,4.3059,4.3059,0,0,0,.5066-.3276,1.68,1.68,0,0,1,.7883-.3613,2.2936,2.2936,0,0,1,.5037-.0109l.0547.9416h1.0766a5.3238,5.3238,0,0,1,.2737-1.3468,1.8221,1.8221,0,0,0-.0766-.8248,3.8292,3.8292,0,0,0-.6934-1.0913,1.5158,1.5158,0,0,1-1.0949,1.1679,8.7667,8.7667,0,0,1-2.3321.6679c-.2883,0-.584-.354-.4088-.4306s-.3175.0109-.6314.1241a9.09,9.09,0,0,0-1.0146.5C123.55,115.71,123.5649,115.9984,123.6707,116.1955Z" fill="#473e73"/><path id="_Path_23" data-name="&lt;Path&gt;" d="M123.59,88.7472s1.0334.5168,4.8019.6548c.3385.0178.6949.0267,1.078.0312.245.0044.4766.0044.6949.0044,2.0446-.0044,3.0068-.1915,2.9934-.3875-.0089-.2138,1.0424-8.0848,1.39-9.2786a9.9837,9.9837,0,0,0,.6325-4.0269,10.5724,10.5724,0,0,0-2.303-5.1939l-7.9334-.1292a21.7571,21.7571,0,0,0-1.5012,5.234C123.1663,79.87,123.59,88.7472,123.59,88.7472Z" fill="#293b8f"/><path id="_Path_24" data-name="&lt;Path&gt;" d="M136.7328,64.2006s-.314,1.6065-.51,2.2686-1.1678,4.865-2.0883,4.7919-5.9625-4.2825-5.9625-4.2825l.714-1.4281,4.4382,2.1157a57.1774,57.1774,0,0,1,.7526-5.949Z" fill="#f7aaad"/><g id="_Group_4" data-name="&lt;Group&gt;"><path d="M135.4515,64.3774a27.9962,27.9962,0,0,1-1.7205,4.6984c-.1551.2152-3.1312-.8587-3.138-2.013l3.0848-3.4966Z" fill="#e4979b"/></g><path id="_Path_25" data-name="&lt;Path&gt;" d="M132.6469,56.6539a5.3657,5.3657,0,0,1,2.696.9143c1.9227,1.43,1.4662,6.8317,1.4662,6.8317s.0938.2821-1.1836.21a9.1982,9.1982,0,0,1-2.3018-.4352l.3692-4.33Z" fill="#f3ce7a"/><path id="_Path_26" data-name="&lt;Path&gt;" d="M135.8455,59.9234a16.16,16.16,0,0,1-.4011,4.6748,5.07,5.07,0,0,1-1.0421-.1369Z" fill="url(#linear-gradient)" style="mix-blend-mode:multiply"/><g id="_Group_5" data-name="&lt;Group&gt;"><path d="M132.9705,56.945c-.0523-.3519-.1474-.7622-.475-.901a1.0237,1.0237,0,0,0-.2891-.0614,9.478,9.478,0,0,0-1.8949-.1441,2.8126,2.8126,0,0,0-1.2223.2144,3.0075,3.0075,0,0,0-1.19,1.5138Z" fill="#f3ce7a"/></g><g id="_Group_6" data-name="&lt;Group&gt;"><path d="M125.0569,69.1593a10.7191,10.7191,0,0,0,.4264-3.4424c-.1027-.6315-.6615-.9711-.9137-2.3764a5.1976,5.1976,0,0,1,.8325-3.82c.5866-.8522,1.3922-2.5819,1.5584-2.6324,2.451-.7458,2.85-.39,4.498-.3175a10.9178,10.9178,0,0,1,2.1381.2467c.886.1954,1.95.4911,2.132,1.6935a12.11,12.11,0,0,1-.52,5.5033c-.3748,1.169-2.612,5.2133-2.0577,5.996a2.6731,2.6731,0,0,1,.4821.7418c.14.8174-1.1805,1.0181-2.497,1.17a21.0089,21.0089,0,0,1-3.7933-.0239C123.62,71.6463,124.9408,69.3875,125.0569,69.1593Z" fill="#f9d989"/></g><path id="_Path_27" data-name="&lt;Path&gt;" d="M124.8248,63.69a3.2553,3.2553,0,0,0,.2429.943,2.8048,2.8048,0,0,0,1.22.18,21.6931,21.6931,0,0,0,.7264-3.56A17.6068,17.6068,0,0,0,124.8248,63.69Z" fill="url(#linear-gradient-2)" style="mix-blend-mode:multiply"/><g id="_Group_7" data-name="&lt;Group&gt;"><path id="_Path_28" data-name="&lt;Path&gt;" d="M125.9928,62.9323s-3.0117,7.2782-4.3184,7.2782c-.95,0-3.2812-6.7187-3.2812-6.7187l1.4726-.6972,1.6423,2.8138,2.0079-4.9462Z" fill="#f7aaad"/><path id="_Path_29" data-name="&lt;Path&gt;" d="M120.1581,63.2954a2.8659,2.8659,0,0,1-.4525-1.3138,5.5742,5.5742,0,0,0,.034-1.3919,5.8,5.8,0,0,0-.4923-.955c-.1415-.1238-.6646-.3227-.7926-.2343s-.2871-.3183-.4993-.2829a.45.45,0,0,0-.3891.4067c0,.1946-.283.23-.3183.3714a1.98,1.98,0,0,1-.0707.3714c-.053.1061-.2094.0537-.2653.3183-.0512.2422.0176.2653,0,.389s-.1238.1124-.0884.348a2.955,2.955,0,0,0,.3383.8067,2.33,2.33,0,0,0,.8214.8318,1.5694,1.5694,0,0,1,.479.6615Z" fill="#f7aaad"/><path id="_Path_30" data-name="&lt;Path&gt;" d="M119.3489,57.6716a.18.18,0,0,1,.26-.07.2323.2323,0,0,1,.0577.289c-.0261.0587-.8905,2.015-.8905,2.015s-.072.0826-.21-.0385c-.15-.1316-.1017-.1976-.1017-.1976S119.3117,57.7295,119.3489,57.6716Z" fill="#8c8b8c"/><g id="_Group_8" data-name="&lt;Group&gt;"><path id="_Path_31" data-name="&lt;Path&gt;" d="M118.4108,59.54a2.0639,2.0639,0,0,0,.5428.5659c.1385.13.1214.2144.2742.3483-.2679-.02-.2219-.1781-.5691-.4285a.7346.7346,0,0,1-.3586-.4391.0609.0609,0,0,1,.1108-.0466Z" fill="#f7aaad"/></g></g><g id="_Group_9" data-name="&lt;Group&gt;"><path d="M129.1676,56.431a6.0221,6.0221,0,0,0-4.7956,2.5116,19.7638,19.7638,0,0,0-2.0056,4.1225,4.9424,4.9424,0,0,0,3.4325,1.4338,12.632,12.632,0,0,0,1.2724-3.5222Z" fill="#f3ce7a"/></g><ellipse cx="99.2036" cy="117.2735" rx="6.1524" ry="0.7861" fill="#2e5175" opacity="0.1"/><path d="M95.4262,103.5731c.9815,4.8432,2.7557,7.3978,4.29,7.2155L96.1224,93.0532C95.8156,94.1573,94.5381,99.1906,95.4262,103.5731Z" fill="#f4cf7a"/><path d="M96.1862,92.8311s-.0237.078-.0638.2221l3.5941,17.7354c.0353-.0042.0707-.0082.1057-.0153,1.558-.3157,2.25-3.389,1.246-8.3436S96.1862,92.8311,96.1862,92.8311Z" fill="#fbdb8a"/><path d="M98.9874,106.7785q-.3677-1.7892-.7306-3.5794-.73-3.58-1.5058-7.15a.021.021,0,0,0-.0412.0084q.4586,2.4252.9366,4.8466a9.8577,9.8577,0,0,0-1.77-1.1539c-.0322-.0153-.0654.0349-.0388.0585a10.1323,10.1323,0,0,0,1.835,1.2273c.144.7312.2867,1.4626.4339,2.1932q.3607,1.7906.7205,3.5814c.2371,1.187.4072,2.4141.74,3.5774a.0669.0669,0,0,0,.1311-.0265C99.5522,109.1607,99.2311,107.964,98.9874,106.7785Z" fill="#2e5175"/><path d="M98.6255,105.2962a20.6087,20.6087,0,0,0-2.9589-1.9526.0229.0229,0,0,0-.0253.0382,20.6042,20.6042,0,0,0,2.95,1.9653A.0306.0306,0,0,0,98.6255,105.2962Z" fill="#2e5175"/><path d="M99.6589,100.8307c-.2832.3774-.5507.7663-.8224,1.1521a6.0277,6.0277,0,0,0-.6738,1.0825.0346.0346,0,0,0,.0555.0367,6.0228,6.0228,0,0,0,.7347-1.042c.25-.4.5036-.7983.741-1.2061A.021.021,0,0,0,99.6589,100.8307Z" fill="#2e5175"/><path d="M100.521,105.3792a18.0374,18.0374,0,0,0-1.3712,2.03.0382.0382,0,0,0,.0637.0422,18.0322,18.0322,0,0,0,1.3362-2.0535A.0172.0172,0,0,0,100.521,105.3792Z" fill="#2e5175"/><path d="M99.49,108.9208a16.1375,16.1375,0,0,0-2.4336-1.5974.0249.0249,0,0,0-.0275.0414,16.139,16.139,0,0,0,2.4189,1.62A.0382.0382,0,0,0,99.49,108.9208Z" fill="#2e5175"/><path d="M101.034,103.4209c-1.5032,3.8309-1.4174,6.42-.2617,6.986l5.5048-14.0285A21.0146,21.0146,0,0,0,101.034,103.4209Z" fill="#f4cf7a"/><path d="M106.4222,96.2519s-.0519.0438-.1451.1265l-5.5048,14.0285c.0266.013.0531.0263.0808.0371,1.2324.4836,3.1059-1.3529,4.6437-5.2719A21.3475,21.3475,0,0,0,106.4222,96.2519Z" fill="#fbdb8a"/><path d="M102.0754,107.2726q.5518-1.4175,1.1073-2.8336,1.1081-2.8335,2.1795-5.681a.0175.0175,0,0,0-.0326-.0128q-.7758,1.9034-1.5363,3.813a8.2057,8.2057,0,0,0-.7162-1.6072.03.03,0,0,0-.0536.0234,8.436,8.436,0,0,0,.7285,1.6879c-.23.5765-.4608,1.1525-.6882,1.73q-.5573,1.4154-1.1153,2.83c-.3708.9374-.8066,1.8724-1.1,2.8366a.0557.0557,0,0,0,.1037.0407C101.3933,109.194,101.71,108.2119,102.0754,107.2726Z" fill="#2e5175"/><path d="M102.4925,106.0723a17.1614,17.1614,0,0,0-1.1866-2.7033.0191.0191,0,0,0-.035.0153,17.1632,17.1632,0,0,0,1.1749,2.7084A.0255.0255,0,0,0,102.4925,106.0723Z" fill="#2e5175"/><path d="M105.234,103.4166c-.3687.1359-.7316.287-1.0961.4339a5.0189,5.0189,0,0,0-.9606.4524.0288.0288,0,0,0,.0222.0508,5.0119,5.0119,0,0,0,.985-.3966c.3556-.1672.7131-.3306,1.0636-.5085A.0175.0175,0,0,0,105.234,103.4166Z" fill="#2e5175"/><path d="M103.7805,106.9873a15.0176,15.0176,0,0,0-1.8769.8.0318.0318,0,0,0,.0254.0583,15.0178,15.0178,0,0,0,1.8629-.832A.0143.0143,0,0,0,103.7805,106.9873Z" fill="#2e5175"/><path d="M101.4586,108.9983a13.44,13.44,0,0,0-.98-2.2175.0207.0207,0,0,0-.0379.0166,13.4355,13.4355,0,0,0,.9594,2.2264A.0318.0318,0,0,0,101.4586,108.9983Z" fill="#2e5175"/><path d="M92.8974,105.7892c1.58,3.3426,3.327,4.8807,4.4092,4.4733l-5.7877-12.24A18.8807,18.8807,0,0,0,92.8974,105.7892Z" fill="#f4cf7a"/><path d="M91.5254,97.8494s-.0033.0609-.0066.1728l5.7877,12.24c.0249-.0094.05-.0186.0741-.03,1.0753-.5084,1.0276-2.865-.5893-6.2845A19.18,19.18,0,0,0,91.5254,97.8494Z" fill="#fbdb8a"/><path d="M96.0586,107.48q-.5876-1.2339-1.1719-2.4694-1.1713-2.47-2.3745-4.9243a.0157.0157,0,0,0-.0284.0135q.7675,1.68,1.5485,3.3531a7.3751,7.3751,0,0,0-1.4926-.5212.0273.0273,0,0,0-.0177.0495,7.5784,7.5784,0,0,0,1.5529.5629c.2356.5054.47,1.0112.708,1.5156q.5828,1.2362,1.1649,2.4727c.3849.82.7282,1.6807,1.1786,2.4663a.05.05,0,0,0,.09-.0428C96.8956,109.1094,96.448,108.2976,96.0586,107.48Z" fill="#2e5175"/><path d="M95.53,106.4679a15.4186,15.4186,0,0,0-2.4993-.8885.0172.0172,0,0,0-.0115.0323,15.42,15.42,0,0,0,2.4954.8992A.0229.0229,0,0,0,95.53,106.4679Z" fill="#2e5175"/><path d="M95.4811,103.0389c-.1381.3249-.2628.6554-.3911.9843a4.51,4.51,0,0,0-.2956.9071.0259.0259,0,0,0,.0469.0167,4.505,4.505,0,0,0,.3471-.8886c.11-.3356.2229-.67.3223-1.0089A.0157.0157,0,0,0,95.4811,103.0389Z" fill="#2e5175"/><path d="M96.9221,106.1887a13.4975,13.4975,0,0,0-.6325,1.7205.0286.0286,0,0,0,.0538.0193,13.49,13.49,0,0,0,.6029-1.7311A.0129.0129,0,0,0,96.9221,106.1887Z" fill="#2e5175"/><path d="M96.8077,108.9462a12.0755,12.0755,0,0,0-2.0541-.7246.0186.0186,0,0,0-.0125.035A12.0737,12.0737,0,0,0,96.7884,109,.0286.0286,0,0,0,96.8077,108.9462Z" fill="#2e5175"/><path d="M104.5211,113.727l.0018-4.42-10.6775-.0043,0,.5764,7.4222,7.428A3.5984,3.5984,0,0,0,104.5211,113.727Z" fill="#cdd1d3"/><path d="M93.8451,110.0127l-.0015,3.8438a3.5988,3.5988,0,0,0,3.5974,3.6l3.48.0014c.1169,0,.2323-.0065.3464-.0174Z" fill="#e2e2e2"/></g></g></svg>