<svg id="Layer_1" data-name="Layer 1" xmlns="http://www.w3.org/2000/svg" width="60" height="60" viewBox="0 0 60 60"><title>seo-python</title><path d="M9.1962,22.6962a.7912.7912,0,0,0,1.1189-1.1189L8.394,19.6562l1.9211-1.9207a.7912.7912,0,1,0-1.1189-1.1189l-2.48,2.48a.7911.7911,0,0,0,0,1.1189Z" fill="#0088cc"/><path d="M17.0473,19.6562l-1.9211,1.9211a.7912.7912,0,1,0,1.1189,1.1189l2.4808-2.4808a.7908.7908,0,0,0,0-1.1185l-2.4808-2.4808a.7911.7911,0,0,0-1.1185,1.1189Z" fill="#0088cc"/><path d="M11.5413,22.8731a.791.791,0,0,0,1.0257-.4471l1.9488-4.9612a.791.791,0,1,0-1.4724-.5786l-1.9492,4.9612A.7913.7913,0,0,0,11.5413,22.8731Z" fill="#0088cc"/><path d="M7.723,27.57h5.33a.7913.7913,0,0,0,0-1.5825H7.723a.7913.7913,0,0,0,0,1.5825Z" fill="#0088cc"/><path d="M25.3286,25.987H15.9581a.7913.7913,0,0,0,0,1.5825h9.3705a.7913.7913,0,1,0,0-1.5825Z" fill="#0088cc"/><path d="M7.723,30.9065h2.27a.7913.7913,0,0,0,0-1.5825H7.723a.7913.7913,0,0,0,0,1.5825Z" fill="#0088cc"/><path d="M22.4341,29.324a.7913.7913,0,0,0,0,1.5825h1.3825a.7913.7913,0,1,0,0-1.5825Z" fill="#0088cc"/><path d="M20.3517,30.1151a.7912.7912,0,0,0-.791-.791H12.77a.7913.7913,0,0,0,0,1.5825h6.7911A.7913.7913,0,0,0,20.3517,30.1151Z" fill="#0088cc"/><path d="M25.5344,30.1151a.7913.7913,0,0,0,.791.7915h2.59a.7913.7913,0,1,0,0-1.5825h-2.59A.7912.7912,0,0,0,25.5344,30.1151Z" fill="#0088cc"/><path d="M21.2257,20.2909h2.7316a.7913.7913,0,1,0,0-1.5825H21.2257a.7913.7913,0,1,0,0,1.5825Z" fill="#0088cc"/><path d="M27.0167,20.2909H43.6835a.7913.7913,0,0,0,0-1.5825H27.0167a.7913.7913,0,1,0,0,1.5825Z" fill="#0088cc"/><path d="M41.152,22.1893H34.4a.7913.7913,0,0,0,0,1.5825H41.152a.7913.7913,0,0,0,0-1.5825Z" fill="#0088cc"/><path d="M31.8689,22.1893H29.5482a.7913.7913,0,0,0,0,1.5825h2.3208a.7913.7913,0,0,0,0-1.5825Z" fill="#0088cc"/><path d="M21.2257,23.7718h5.6854a.7913.7913,0,0,0,0-1.5825H21.2257a.7913.7913,0,1,0,0,1.5825Z" fill="#0088cc"/><path d="M19.5706,32.633H14.2411a.791.791,0,1,0,0,1.5821h5.3295a.791.791,0,0,0,0-1.5821Z" fill="#0088cc"/><path d="M11.8176,32.633H7.723a.791.791,0,0,0,0,1.5821h4.0946a.791.791,0,0,0,0-1.5821Z" fill="#0088cc"/><path d="M29.2318,32.633H22.27a.791.791,0,1,0,0,1.5821h6.9623a.791.791,0,0,0,0-1.5821Z" fill="#0088cc"/><path d="M38.6473,28.5689H34.84a.7913.7913,0,0,0,0,1.5825h3.8072a.7913.7913,0,0,0,0-1.5825Z" fill="#0088cc"/><path d="M45.2537,30.1514h5.3744a.7913.7913,0,1,0,0-1.5825H45.2537a.7913.7913,0,0,0,0,1.5825Z" fill="#0088cc"/><path d="M42.5662,28.5689H41.3347a.7913.7913,0,1,0,0,1.5825h1.2315a.7913.7913,0,0,0,0-1.5825Z" fill="#0088cc"/><path d="M34.84,38.7729h3.8072a.791.791,0,1,0,0-1.5821H34.84a.791.791,0,0,0,0,1.5821Z" fill="#0088cc"/><path d="M45.2537,38.7729h5.3744a.791.791,0,1,0,0-1.5821H45.2537a.791.791,0,0,0,0,1.5821Z" fill="#0088cc"/><path d="M41.3347,38.7729h1.2315a.791.791,0,1,0,0-1.5821H41.3347a.791.791,0,0,0,0,1.5821Z" fill="#0088cc"/><path d="M38.6473,45.8127H34.84a.791.791,0,0,0,0,1.5821h3.8072a.791.791,0,1,0,0-1.5821Z" fill="#0088cc"/><path d="M50.6281,45.8127H45.2537a.791.791,0,0,0,0,1.5821h5.3744a.791.791,0,1,0,0-1.5821Z" fill="#0088cc"/><path d="M42.5662,45.8127H41.3347a.791.791,0,1,0,0,1.5821h1.2315a.791.791,0,1,0,0-1.5821Z" fill="#0088cc"/><path d="M53.5477,3H6.4531A3.4861,3.4861,0,0,0,2.9709,6.4822V44.7631a3.486,3.486,0,0,0,3.4822,3.4818H9.43a.791.791,0,0,0,0-1.5821H6.4531a1.9017,1.9017,0,0,1-1.9-1.9V41.7618H33.3772v1.3635H32.75a1.5576,1.5576,0,0,0-1.5561,1.5561v1.9813H14.2407a.791.791,0,1,0,0,1.5821h7.6069v2.8375H19.4588a2.8933,2.8933,0,0,0-2.89,2.89v1.7091A1.32,1.32,0,0,0,17.8874,57H42.0528a1.32,1.32,0,0,0,1.3186-1.3186V53.9723a2.8933,2.8933,0,0,0-2.89-2.89H38.0926v-1H52.7187a1.5575,1.5575,0,0,0,1.5557-1.5561v-.3724a3.4869,3.4869,0,0,0,2.6948-3.3906l.06-38.2813A3.4851,3.4851,0,0,0,53.5477,3ZM32.7763,39.8782V36.0859h19.916v3.7923Zm2.183-5.3748V32.8388h15.55v1.6646Zm15.55,6.9569v1.665h-15.55V41.46ZM23.43,48.2448h7.7641v.2817A1.5575,1.5575,0,0,0,32.75,50.0822H36.51v1H23.43Zm17.0521,4.42a1.3089,1.3089,0,0,1,1.3074,1.3074v1.4456H18.151V53.9723a1.3092,1.3092,0,0,1,1.3078-1.3074ZM52.6923,48.5H32.7763V44.7078h19.916Zm2.6948-3.7367A1.9,1.9,0,0,1,54.2748,46.49V44.681a1.5578,1.5578,0,0,0-1.5561-1.5557h-.6273V41.7618h3.2958Zm0-4.5834H54.2489c.0161-.0895.026-4.12.026-4.12a1.5578,1.5578,0,0,0-1.5561-1.5561h-.6273V32.8388h.6273a1.5581,1.5581,0,0,0,1.5561-1.5561V27.4375a1.5581,1.5581,0,0,0-1.5561-1.5561H48.25a.7913.7913,0,0,0,0,1.5825h4.4423v3.7923H32.7763V27.4639H43.3272a.7913.7913,0,0,0,0-1.5825H32.75a1.5578,1.5578,0,0,0-1.5561,1.5561v3.8451A1.5578,1.5578,0,0,0,32.75,32.8388h.6273v1.6646H32.75a1.5578,1.5578,0,0,0-1.5561,1.5561s.01,4.0307.026,4.12H4.5534V13.7621H55.3872Zm0-28H4.6116V6.4818a1.9016,1.9016,0,0,1,1.9-1.8993H53.4875a1.9017,1.9017,0,0,1,1.9,1.9Z" fill="#0088cc"/><path d="M8.8056,6.0368a2.3218,2.3218,0,1,0,2.322,2.3216A2.3241,2.3241,0,0,0,8.8056,6.0368Zm0,3.0611a.7395.7395,0,1,1,.7395-.7395A.74.74,0,0,1,8.8056,9.0978Z" fill="#0088cc"/><path d="M14.717,6.0368a2.3218,2.3218,0,1,0,2.3216,2.3216A2.3245,2.3245,0,0,0,14.717,6.0368Zm0,3.0611a.7395.7395,0,1,1,.7395-.7395A.74.74,0,0,1,14.717,9.0978Z" fill="#0088cc"/><path d="M20.6281,6.0368A2.3218,2.3218,0,1,0,22.95,8.3583,2.3241,2.3241,0,0,0,20.6281,6.0368Zm0,3.0611a.7395.7395,0,1,1,.7395-.7395A.74.74,0,0,1,20.6281,9.0978Z" fill="#0088cc"/></svg>