<svg id="Layer_1" data-name="Layer 1" xmlns="http://www.w3.org/2000/svg" width="60" height="60" viewBox="0 0 60 60"><title>web-app</title><path d="M27.2215,17.94l-1.1931-1.1931-2.5312,2.5313a.8428.8428,0,0,0,0,1.1931l2.5313,2.5313L27.2215,21.81,25.2868,19.875Z" fill="#0088cc"/><path d="M36.5028,19.2785l-2.5312-2.5312L32.7785,17.94l1.9347,1.9347L32.7785,21.81l1.1931,1.1931,2.5313-2.5312A.8428.8428,0,0,0,36.5028,19.2785Z" fill="#0088cc"/><rect x="27.3312" y="19.0338" width="5.3365" height="1.6875" transform="matrix(0.3164, -0.9486, 0.9486, 0.3164, 1.6511, 42.0462)" fill="#0088cc"/><path d="M41.8125,3H18.1875A1.6892,1.6892,0,0,0,16.5,4.6875v50.625A1.6892,1.6892,0,0,0,18.1875,57h23.625A1.6892,1.6892,0,0,0,43.5,55.3125V4.6875A1.6892,1.6892,0,0,0,41.8125,3Zm0,52.3125H18.1875V4.6875l23.625-.0008Z" fill="#0088cc"/><path d="M24.0938,11.4375V9.75h-3.375a.8435.8435,0,0,0-.8437.8438v33.75a.8435.8435,0,0,0,.8438.8438h3.375V43.5H21.5625V11.4375Z" fill="#0088cc"/><path d="M39.2813,9.75h-3.375v1.6875h2.5313V43.5H35.9063v1.6875h3.375a.8435.8435,0,0,0,.8438-.8437v-33.75A.8435.8435,0,0,0,39.2813,9.75Z" fill="#0088cc"/><rect x="25.7813" y="9.75" width="8.4375" height="1.6875" fill="#0088cc"/><path d="M30,46.875a3.375,3.375,0,1,0,3.375,3.375A3.3784,3.3784,0,0,0,30,46.875Zm0,5.0625A1.6875,1.6875,0,1,1,31.6875,50.25,1.6892,1.6892,0,0,1,30,51.9375Z" fill="#0088cc"/><rect x="26.625" y="6.375" width="6.75" height="1.6875" fill="#0088cc"/><rect x="25.7813" y="43.5" width="8.4375" height="1.6875" fill="#0088cc"/><path d="M14.8125,9.75V8.0625H3.8438A.8435.8435,0,0,0,3,8.9063V51.0938a.8435.8435,0,0,0,.8438.8438H14.8125V50.25H4.6875V16.5h10.125V14.8125H4.6875V9.75Z" fill="#0088cc"/><rect x="6.375" y="11.4375" width="1.6875" height="1.6875" fill="#0088cc"/><rect x="9.75" y="11.4375" width="1.6875" height="1.6875" fill="#0088cc"/><rect x="13.125" y="11.4375" width="1.6875" height="1.6875" fill="#0088cc"/><path d="M56.1563,8.0625H45.1875V9.75h10.125v5.0625H45.1875V16.5h10.125V50.25H45.1875v1.6875H56.1563A.8435.8435,0,0,0,57,51.0938V8.9063A.8435.8435,0,0,0,56.1563,8.0625Z" fill="#0088cc"/><rect x="48.5625" y="11.4375" width="5.0625" height="1.6875" fill="#0088cc"/><rect x="24.0938" y="26.625" width="3.375" height="1.6875" fill="#0088cc"/><rect x="29.1563" y="26.625" width="6.75" height="1.6875" fill="#0088cc"/><rect x="32.5313" y="30" width="3.375" height="1.6875" fill="#0088cc"/><rect x="24.0938" y="30" width="6.75" height="1.6875" fill="#0088cc"/><rect x="24.0938" y="33.375" width="3.375" height="1.6875" fill="#0088cc"/><rect x="29.1563" y="33.375" width="6.75" height="1.6875" fill="#0088cc"/><rect x="32.5313" y="36.75" width="3.375" height="1.6875" fill="#0088cc"/><rect x="24.0938" y="36.75" width="6.75" height="1.6875" fill="#0088cc"/></svg>