<svg id="Layer_1" data-name="Layer 1" xmlns="http://www.w3.org/2000/svg" width="170" height="120" viewBox="0 0 170 120"><title>zope-python</title><g id="_Group_" data-name="&lt;Group&gt;"><path d="M31.487,85.0566S5.2757,58.8993,39.9894,35.233,112.1669.7754,133.9681,3.485s16.1163,56.3232-2.8142,88.9765S66.9878,123.4606,31.487,85.0566Z" fill="#f1f3f7"/></g><path d="M119.236,21.5381c-7.1627,8.4335-9.2008,15.0929-6.755,17.5406L138.71,8.1957C136.3426,9.1846,125.7174,13.9066,119.236,21.5381Z" fill="#f4cf7a"/><path d="M139.1895,8s-.17.0663-.4792.1953L112.481,39.0787c.0564.0564.1122.1131.1733.1649,2.713,2.3042,9.0788-.7338,16.4064-9.3614S139.1895,8,139.1895,8Z" fill="#fbdb8a"/><path d="M118.5274,32.2427q2.639-3.1246,5.2863-6.2421,5.2881-6.241,10.4951-12.55a.0471.0471,0,0,0-.0718-.0609q-3.6322,4.1652-7.2309,8.3594a22.0722,22.0722,0,0,0-.4208-4.7124.0818.0818,0,0,0-.1568.0127,22.6871,22.6871,0,0,0,.3815,4.9283q-1.6307,1.8989-3.2582,3.8-2.6512,3.1141-5.3039,6.2271c-1.76,2.0609-3.6837,4.0594-5.27,6.2563a.15.15,0,0,0,.2282.1939C115.1177,36.5353,116.7788,34.3132,118.5274,32.2427Z" fill="#2e5175"/><path d="M129.9225,25.1881c-1.0563.0244-2.111.0922-3.166.1483a13.4966,13.4966,0,0,0-2.8376.3134.0775.0775,0,0,0,.0122.1485,13.4856,13.4856,0,0,0,2.8509-.15c1.05-.1155,2.102-.2193,3.1482-.3663A.0471.0471,0,0,0,129.9225,25.1881Z" fill="#2e5175"/><path d="M127.2692,31.1943c-8.8221,2.66-13.2583,6.3957-12.6545,9.2133l32.3064-9.74C144.8182,30.2888,135.2524,28.7876,127.2692,31.1943Z" fill="#f4cf7a"/><path d="M147.3446,30.7478s-.1489-.0306-.4235-.08l-32.3064,9.74c.0139.0648.0273.13.0466.1937.8557,2.8381,6.6812,3.5915,15.7065.8705S147.3446,30.7478,147.3446,30.7478Z" fill="#fbdb8a"/><path d="M121.934,38.36q3.2582-.9921,6.5191-1.9754,6.52-1.9739,13.014-4.0319a.0392.0392,0,0,0-.0226-.075q-4.4235,1.2707-8.8364,2.5769a18.3733,18.3733,0,0,0,1.8362-3.4858.0682.0682,0,0,0-.1154-.062,18.889,18.889,0,0,0-1.9613,3.6191c-1.3327.3939-2.666.7852-3.997,1.1848q-3.2621.9794-6.5247,1.9571c-2.1628.6456-4.4116,1.1735-6.5139,1.993a.1248.1248,0,0,0,.072.2388C117.6086,39.8209,119.7749,39.0178,121.934,38.36Z" fill="#2e5175"/><path d="M124.6235,37.4322a38.4258,38.4258,0,0,0,3.1135-5.8312.0428.0428,0,0,0-.0753-.04,38.43,38.43,0,0,0-3.1387,5.8178A.057.057,0,0,0,124.6235,37.4322Z" fill="#2e5175"/><path d="M133.0928,38.5785c-.75-.4605-1.5181-.89-2.2812-1.3277a11.2377,11.2377,0,0,0-2.1263-1.0637.0645.0645,0,0,0-.0586.1093,11.2221,11.2221,0,0,0,2.0617,1.1839c.7866.3941,1.5692.797,2.3674,1.1673A.0393.0393,0,0,0,133.0928,38.5785Z" fill="#2e5175"/><path d="M124.7971,40.9657a33.6257,33.6257,0,0,0-4.0066-2.1947.0713.0713,0,0,0-.0674.1255,33.6262,33.6262,0,0,0,4.0437,2.1258A.0321.0321,0,0,0,124.7971,40.9657Z" fill="#2e5175"/><path d="M118.0434,39.6647a30.0931,30.0931,0,0,0,2.545-4.7946.0464.0464,0,0,0-.0817-.0438,30.0832,30.0832,0,0,0-2.5889,4.771A.0713.0713,0,0,0,118.0434,39.6647Z" fill="#2e5175"/><path d="M111.8349,20.1573c-3.6928,7.41-3.9806,12.6125-1.7654,13.9526L123.5923,6.9764C122.0494,8.1189,115.1765,13.4525,111.8349,20.1573Z" fill="#f4cf7a"/><path d="M123.9054,6.7487s-.1117.0786-.3131.2278L110.07,34.11c.051.0308.1018.0621.1554.0887,2.3836,1.188,6.464-2.1593,10.2418-9.7394S123.9054,6.7487,123.9054,6.7487Z" fill="#fbdb8a"/><path d="M113.2375,28.0608q1.3574-2.7426,2.7222-5.4815,2.7238-5.481,5.3765-10.997a.0352.0352,0,0,0-.063-.0313q-1.8927,3.6764-3.7557,7.3679a16.5134,16.5134,0,0,0-1.15-3.348.0612.0612,0,0,0-.1116.0374,16.9686,16.9686,0,0,0,1.16,3.5118c-.563,1.1144-1.1281,2.2277-1.6863,3.3445q-1.3682,2.7372-2.7377,5.4738c-.9095,1.8125-1.9489,3.6087-2.7074,5.4889a.1121.1121,0,0,0,.2006.1C111.5294,31.79,112.338,29.878,113.2375,28.0608Z" fill="#2e5175"/><path d="M114.2865,25.73a34.5236,34.5236,0,0,0-1.8976-5.6279.0384.0384,0,0,0-.0728.0244,34.5274,34.5274,0,0,0,1.8733,5.636A.0512.0512,0,0,0,114.2865,25.73Z" fill="#2e5175"/><path d="M120.252,20.8948c-.763.2069-1.5171.4451-2.2734.6748a10.0983,10.0983,0,0,0-2.0053.736.058.058,0,0,0,.0355.1057,10.0871,10.0871,0,0,0,2.0441-.62c.7422-.272,1.4878-.5358,2.2215-.83A.0353.0353,0,0,0,120.252,20.8948Z" fill="#2e5175"/><path d="M36.1521,12.7993h83.6958A1.1521,1.1521,0,0,1,121,13.9513V75.0106A1.2889,1.2889,0,0,1,119.7111,76.3H36.2889A1.2889,1.2889,0,0,1,35,75.0106V13.9513A1.1521,1.1521,0,0,1,36.1521,12.7993Z" fill="#fff"/><path d="M36.0558,12.7993h83.93A1.0141,1.0141,0,0,1,121,13.8133v7.59a0,0,0,0,1,0,0H35.0417a0,0,0,0,1,0,0v-7.59a1.0141,1.0141,0,0,1,1.0141-1.0141Z" fill="#e2e2e2"/><circle cx="38.484" cy="17.0922" r="0.602" fill="#fff"/><circle cx="40.7697" cy="17.0922" r="0.602" fill="#fff"/><circle cx="43.1947" cy="17.0922" r="0.602" fill="#fff"/><rect x="38.484" y="24.5284" width="12.2964" height="12.2964" fill="#e2e2e2"/><rect x="38.7447" y="38.5178" width="12.0357" height="1.8494" fill="#e2e2e2"/><rect x="53.7419" y="24.5284" width="21.8919" height="2.0505" fill="#e2e2e2"/><rect x="53.7419" y="27.7477" width="21.8919" height="2.0505" fill="#e2e2e2"/><rect x="53.7419" y="31.1263" width="21.8919" height="2.0505" fill="#e2e2e2"/><rect x="53.7419" y="34.5884" width="21.8919" height="2.0505" fill="#e2e2e2"/><rect x="38.7447" y="41.1897" width="6.0987" height="1.8494" fill="#e2e2e2"/><rect x="82.8116" y="25.3494" width="34.7085" height="33.3242" fill="#d8d8d8"/><path d="M21.3679,55.0485s5.5591,1.4522,10.1427.1622c6.5169-1.7836,9.33-3.7365,9.33-3.7365l.6709.1278-1.3791,2.6858a26.195,26.195,0,0,1-4.9463,3.8288,15.6739,15.6739,0,0,1-9.16,2.4469Z" fill="#f4cf7a"/><polygon points="24.822 116.304 24.816 117.745 30.797 117.768 26.748 116.311 24.822 116.304" fill="#473e73"/><polygon points="10.541 116.251 10.536 117.692 14.144 119.361 15.767 119.367 12.749 116.259 10.541 116.251" fill="#473e73"/><path d="M26.8915,77.7813l-.1433,38.53-1.9265-.0072s-3.1775-9.0023-2.6308-17.8623L20.0573,85.0767,12.749,116.2593l-2.1834-.0081S8.71,104.721,11.405,97.76l1.1019-20.0318Z" fill="#0088cc"/><path d="M26.8915,77.7813s-3.5236,2.7316-14.5173,2.3592l.1327-2.4127,8.31-1.5045" fill="#293882"/><polygon points="20.057 85.077 22.538 80.178 22.191 98.442 20.057 85.077" fill="#293882"/><path d="M22.0067,41.2181a4.0784,4.0784,0,0,0-5.2242,2.9378s-3.6644,3.5946,1.1738,7.0234l1.5216.1742,2.2038-1.8056,3.0185-4.17a3.5937,3.5937,0,0,0,1.3211-1.9547C26.2869,40.7131,23.056,40.1763,22.0067,41.2181Z" fill="#3d4177"/><path d="M19.0329,51.1833a6.9087,6.9087,0,0,0,1.1206-2.5182s-1.6095-.3387-1.3322-1.5111c.23-.9744,1.4551-.6419,1.8424.1991L20.66,48.4724s.6307-.0141.75-2.1607l.742-.9437,2.5491.0095a10.2723,10.2723,0,0,1,.63,4.7667,22.9486,22.9486,0,0,1-.6573,2.45l-2.5414-.0095-.0069,2.1609.4924,1.1684-.6054.66-3.6734-1.5784-.3915-.3742.0091-3.442Z" fill="#feadae"/><path d="M12.5069,77.7278c.0006,0,7.8735,2.169,14.3846.0535,0,0-.7115-12.6221-1.0639-18.8706-.096-1.7034-1.5646-4.1474-3.2708-4.1537l-.4318-.0209-.1129,1.8377-4.1646-1.9377-.3016-.0148a3.5658,3.5658,0,0,0-2.1185.8521,4.9851,4.9851,0,0,0-1.7405,3.3879L12.2423,77.9671Z" fill="#fbdb8a"/><path d="M39.7507,53.0539l.6406.1221,1.1812-1.3167a9.6916,9.6916,0,0,0,1.531-1.4691c.2738-.4707-.273-.7836-.273-.7836l-1.22.7878,1.2178-2.589a10.9753,10.9753,0,0,0-2.3791,2.2352A13.6405,13.6405,0,0,0,39.7507,53.0539Z" fill="#feadae"/><path d="M39.9116,52.0241l.872.996a8.6472,8.6472,0,0,1-1.1735.8245A8.38,8.38,0,0,1,39.9116,52.0241Z" fill="#f4cf7a"/><path d="M71.8277,52.8884,68.257,48.6872l-.0045.0034-.2243-.5184a.9078.9078,0,0,0-.9385-.5412l-.6853-.0173a3.9187,3.9187,0,0,0-.7036-.2868l-1.1023-.3249,1.8477,2.6642a1.0316,1.0316,0,0,0,.4991.2752l3.474,4.51Z" fill="#feadae"/><path d="M87.0985,55.5516a2.0619,2.0619,0,0,0-2.6113-1.2978l-7.2852,2.448-6.7333-6.55-2.1857,1.761,6.8623,8.53a1.8892,1.8892,0,0,0,2.068.6049l.1138-.0382,8.4738-2.8473A2.0619,2.0619,0,0,0,87.0985,55.5516Z" fill="#f4cf7a"/><polygon points="70.474 50.149 69.637 49.278 67.457 50.938 68.283 51.913 70.474 50.149" fill="#fbdb8a"/><circle cx="87.962" cy="44.5192" r="5.1961" fill="#3d4177"/><path d="M99.5125,104.9692c-.0809-.06-5.0693-3.493-5.0693-3.493l1.6207-2.3644L100.67,103.28Z" fill="#feadae"/><path d="M98.7493,104.9525l.424,2.9436a1.5144,1.5144,0,0,1-.0115.5l-1.0724,3.4693,5.25-7.5421-1.4141-.6731-1.3549-1.0328a.2108.2108,0,0,0-.33.035Z" fill="#473e73"/><path d="M98.0894,111.8658l.3817.285a.4146.4146,0,0,0,.5943-.1029l4.8551-6.97a.4573.4573,0,0,0-.0986-.62l-.3816-.285Z" fill="#fbdb8a"/><path d="M90.2551,112.9644c0-.1038-.228-6.3357-.228-6.3357h2.7853l-.5677,6.3357Z" fill="#feadae"/><path d="M88.6657,51.4511l-1.1447.5228c-1.955.8448-3.25,2.3568-3.1353,3.706l.5152,15.7745h9.6834V56.3886c0-1.8919.0088-3.23-1.4262-3.7139Z" fill="#fbdb8a"/><path d="M87.4213,47.1777h3.0157a.0631.0631,0,0,1,.0631.0631v4.8572a1.3164,1.3164,0,0,1-1.3164,1.3164H87.3582a0,0,0,0,1,0,0V47.2408a.0631.0631,0,0,1,.0631-.0631Z" fill="#feadae"/><path d="M84.6257,71.4543,80.8131,89.3736a3.18,3.18,0,0,0,1.21,3.2945l14.16,10.81,1.9632-3.1613-11.66-10.7878,8.107-18.0746Z" fill="#293882"/><polygon points="99.382 100.378 96.724 104.521 94.811 103.151 97.469 99.007 99.382 100.378" fill="#473e73"/><path d="M89.824,112.3068l-2.0469,2.0727a1.4367,1.4367,0,0,1-.3759.2744l-3.2673,1.1831h8.8506l-.2984-1.5921.0163-1.751a.2225.2225,0,0,0-.2194-.26Z" fill="#473e73"/><path d="M84.1339,115.837v.49a.4356.4356,0,0,0,.426.4447h8.2411a.4356.4356,0,0,0,.426-.4447v-.49Z" fill="#fbdb8a"/><path d="M90.5722,50.8967l-3.7335,2.761,2.8648.4128,2.211-1.6979L91.2719,51.01A.4256.4256,0,0,0,90.5722,50.8967Z" fill="#f4cf7a"/><path d="M87.3582,51.433c-.03.0753,2.3324.263,3.1366-4.0578l-3.1365,2.0731Z" fill="#e5989b"/><circle cx="94.1897" cy="39.3231" r="4.1088" transform="translate(48.6259 130.6574) rotate(-86.1468)" fill="#3d4177"/><path d="M83.5823,43.2922h6.9125a0,0,0,0,1,0,0v5.774a1.4481,1.4481,0,0,1-1.4481,1.4481H85.03a1.4481,1.4481,0,0,1-1.4481-1.4481v-5.774A0,0,0,0,1,83.5823,43.2922Z" fill="#feadae"/><circle cx="90.5935" cy="46.2317" r="0.946" fill="#e5989b"/><path d="M83.1493,43.1939s-.3834,3.0378,7.3455,2.0918l.7138-3.0821-5.3052-.595Z" fill="#3d4177"/><path d="M95.3959,74.4633l-.8028-3.009H84.6257l3.0084,6.2008,1.94,31.2689h3.6645l1.0992-30.4094A4.31,4.31,0,0,0,95.3959,74.4633Z" fill="#0088cc"/><rect x="88.9969" y="107.8925" width="4.6891" height="2.0975" fill="#473e73"/><path d="M66.8159,48.6548a.1732.1732,0,0,1-.1069-.15.1863.1863,0,0,1,.162-.199l1.04-.1123a.1705.1705,0,0,1,.1875.1612.1863.1863,0,0,1-.162.199l-1.04.1123A.1671.1671,0,0,1,66.8159,48.6548Z" fill="#feadae"/><path d="M54.1935,74.8257A16.0551,16.0551,0,1,1,70.2489,58.85,16.0112,16.0112,0,0,1,54.1935,74.8257ZM46.153,65.1608a1.6249,1.6249,0,0,0,.2909.0763q2.4295-.0671,4.8588-.14c1.45-.0414,2.9008-.1314,4.35-.1083,1.8036.0288,3.6056.1525,5.4083.2337,1.9106.086,3.8216.1661,5.7318.26a.5665.5665,0,0,0,.6442-.3669,14.5282,14.5282,0,0,0,1.2481-8.6912,14.7093,14.7093,0,0,0-1.8882-5.1824c-.1594-.2714-.312-.38-.6215-.2245-.4814.2422-1.004.4108-1.4639.6861-1.8389,1.1007-3.6841,2.1939-5.4832,3.3577a100.1183,100.1183,0,0,0-9.443,6.9921C48.5865,63.0456,47.4191,64.0756,46.153,65.1608Zm-5.6937-.9765.1746-.0157a.676.676,0,0,0,.091-.1408,9.4776,9.4776,0,0,1,2.119-3.2819,48.6044,48.6044,0,0,1,7.5717-6.6392,82.9369,82.9369,0,0,1,10.018-6.1182c.1394-.0735.2721-.16.4862-.2865a1.91,1.91,0,0,0-.3464-.127c-1.6078-.1586-3.2148-.4188-4.8248-.44-1.9065-.0246-3.8179.1254-5.7229.26a17.0887,17.0887,0,0,0-6.06,1.5213A4.1351,4.1351,0,0,0,42.3918,50.07a14.298,14.298,0,0,0-2.6383,11.4086C39.9158,62.3936,40.22,63.2831,40.4592,64.1843Zm1.8679,3.28a14.7295,14.7295,0,0,0,23.5756.2008C64.4381,67.1994,44.9967,67.0361,42.3272,67.4647ZM61.7164,46.2482a14.1283,14.1283,0,0,0-7.4332-2.1657c-2.79-.084-7.4619,1.433-8.7369,2.9043A29.2452,29.2452,0,0,1,61.7164,46.2482Z" fill="#d3d3d3"/><path d="M33.0353,65.6275a8.3015,8.3015,0,0,1,1.2641-1.2857s1.9079-1.5256,2.22-1.7428c0,0,.5267.2366.123.8055a12.2837,12.2837,0,0,1-1.0287,1.21,7.5056,7.5056,0,0,0,1.6023-.5755,5.5893,5.5893,0,0,1,2.2067-.8807c.4166.0953.1731.4554.1731.4554s-1.8358.9774-2.2277,1.19c-.3441.1866-.1732.2751-.1732.2751s2.2011-.9525,2.6217-1.07.641-.0182.6149.3581c0,0-1.6843.7949-1.9335.9178s-1.1223.3791-.9924.65c0,0,1.9523-.7191,2.294-.8208s.5691.0515.4287.3864l-2.6349,1.1288s-.1843.0835-.0878.1784a6.5541,6.5541,0,0,0,1.47-.0425c.1447-.0267.6055-.075.587.2842,0,0-.0241.1218-.4554.173s-2.3744.536-2.3744.536a6.652,6.652,0,0,1-2.7964-.0069c-1.4875-.3409-1.6166-.9082-1.1072-.2394l.1014-.7883Z" fill="#feadae"/><path d="M14.2221,57.1431c.4792-1.2385,2.97-2.4041,4.9737,1.5429,2.5238,4.9707,3.5158,10.349,14.155,6.2l.5467,2.7866S23.55,75.6841,16.1855,64.2365C15.26,62.798,13.2787,59.5811,14.2221,57.1431Z" fill="#f4cf7a"/><path d="M78.2439,65.11l.1846-2.0962-5.1359-1.153-.4834-.6963-1.4083.1546-2.3653-.7081a.2039.2039,0,0,0-.2575.14.2176.2176,0,0,0,.1489.2621l1.3685.41-.0574.2212L69.0917,61.33a.2034.2034,0,0,0-.2539.1465.2177.2177,0,0,0,.1549.2587l1.1407.3132-.0316.122-.9271-.2031a.2024.2024,0,0,0-.2453.16.218.218,0,0,0,.1682.25l.8991.197-.0412.1586-.5864-.1069a.2024.2024,0,0,0-.239.169.2181.2181,0,0,0,.1769.2446l.5432.099h0l2.3411.5384a1.032,1.032,0,0,0,.5642-.08Z" fill="#feadae"/><polygon points="88.738 64.407 86.544 63.992 86.218 66.096 88.738 64.407" fill="#f4cf7a"/><path d="M90.278,66.8254l.0153-.0987,3.95-10.4751a2.0619,2.0619,0,0,0-4.0752-.631l-3.6239,8.3714,2.1945.4147-2.52,1.6891.3258-2.1038L75.0014,61.8107l-.4874,2.7082,13.259,3.8969a2.17,2.17,0,0,0,.2543.0568A1.9722,1.9722,0,0,0,90.278,66.8254Z" fill="#f4cf7a"/><polygon points="75.001 61.811 73.817 61.603 73.348 64.212 74.514 64.519 75.001 61.811" fill="#fbdb8a"/><rect x="134.7912" y="101.0585" width="4.4299" height="1.9395" transform="translate(274.0123 204.0565) rotate(180)" fill="#e8e8ea"/><path d="M139.7922,103.7666c2.9791,4.1331,3.671,7.2643,2.4588,8.2983L131.3417,96.93C132.3923,97.47,137.0965,100.0266,139.7922,103.7666Z" fill="#f4cf7a"/><path d="M131.1289,96.8227s.0757.0366.2128.1072l10.9093,15.1351c-.0279.0238-.0557.0478-.0856.0693-1.33.9584-4.14-.669-7.188-4.8972S131.1289,96.8227,131.1289,96.8227Z" fill="#fbdb8a"/><path d="M139.7258,108.706q-1.097-1.5308-2.198-3.0586-2.1989-3.0581-4.3581-6.1445a.0217.0217,0,0,1,.0352-.0253q1.5148,2.0447,3.0131,4.1015a10.1633,10.1633,0,0,1,.3656-2.1476.0377.0377,0,0,1,.0715.0116,10.4465,10.4465,0,0,1-.3554,2.2481q.679.9313,1.3565,1.8636,1.103,1.5264,2.2067,3.0523c.7325,1.01,1.5423,1.9981,2.19,3.0645a.069.069,0,0,1-.1119.0807C141.1338,110.801,140.4527,109.72,139.7258,108.706Z" fill="#2e5175"/><path d="M138.8571,107.3945a21.2476,21.2476,0,0,1,.5931-3.6066.0237.0237,0,0,1,.0467.0076,21.243,21.243,0,0,1-.5776,3.6091A.0315.0315,0,0,1,138.8571,107.3945Z" fill="#2e5175"/><path d="M134.7536,105.051c.4839.05.9656.12,1.4478.1839a6.2146,6.2146,0,0,1,1.291.2477.0357.0357,0,0,1-.011.0677,6.21,6.21,0,0,1-1.3031-.1732c-.4778-.0914-.9568-.1776-1.4316-.2833A.0217.0217,0,0,1,134.7536,105.051Z" fill="#2e5175"/><path d="M137.5931,108.8874a18.5966,18.5966,0,0,1,2.4967.3831.0394.0394,0,0,1-.0126.0778,18.5912,18.5912,0,0,1-2.49-.4259A.0177.0177,0,0,1,137.5931,108.8874Z" fill="#2e5175"/><path d="M140.9954,110.5863a16.6378,16.6378,0,0,1,.4943-2.96.0256.0256,0,0,1,.0506.0082,16.6394,16.6394,0,0,1-.4671,2.9647A.0394.0394,0,0,1,140.9954,110.5863Z" fill="#2e5175"/><path d="M135.7517,107.9049c3.9521,1.5436,5.8516,3.4207,5.4714,4.6919l-14.4724-5.6527A21.6661,21.6661,0,0,1,135.7517,107.9049Z" fill="#f4cf7a"/><path d="M126.5534,106.9654s.0695-.0086.1973-.0213l14.4724,5.6527c-.0088.0292-.0173.0586-.0285.0872-.4966,1.2714-3.1981,1.4041-7.2412-.1751S126.5534,106.9654,126.5534,106.9654Z" fill="#fbdb8a"/><path d="M137.9384,111.3893q-1.4592-.5746-2.92-1.1452-2.9205-1.1446-5.8259-2.3268a.0181.0181,0,0,1,.0131-.0336q1.9839.7451,3.9617,1.5061a8.46,8.46,0,0,1-.7153-1.6672.0314.0314,0,0,1,.0553-.0242,8.6976,8.6976,0,0,1,.7678,1.7329c.5973.23,1.195.4579,1.7913.69q1.4615.5689,2.9232,1.137c.9691.3754,1.982.7,2.917,1.1531a.0575.0575,0,0,1-.0418.107C139.87,112.218,138.9053,111.77,137.9384,111.3893Z" fill="#2e5175"/><path d="M136.7378,110.8649a17.6935,17.6935,0,0,1-1.2158-2.79.02.02,0,0,1,.0361-.0158,17.6954,17.6954,0,0,1,1.2278,2.7852A.0263.0263,0,0,1,136.7378,110.8649Z" fill="#2e5175"/><path d="M132.8085,111.0812c.361-.1839.7294-.3529,1.0957-.526a5.1745,5.1745,0,0,1,1.0149-.41.03.03,0,0,1,.0229.0523,5.1673,5.1673,0,0,1-.99.468c-.3755.1521-.7494.3084-1.1294.4492A.0181.0181,0,0,1,132.8085,111.0812Z" fill="#2e5175"/><path d="M136.5289,112.48a15.4832,15.4832,0,0,1,1.9193-.8608.0328.0328,0,0,1,.0263.06,15.4835,15.4835,0,0,1-1.9338.8278A.0148.0148,0,0,1,136.5289,112.48Z" fill="#2e5175"/><path d="M139.6764,112.13a13.8566,13.8566,0,0,1-.9928-2.2938.0213.0213,0,0,1,.0391-.0171,13.8521,13.8521,0,0,1,1.0138,2.2846A.0328.0328,0,0,1,139.6764,112.13Z" fill="#2e5175"/><path d="M143.24,103.4036c1.4239,3.5361,1.3656,5.9348.3,6.4689l-5.2142-12.9491A19.4661,19.4661,0,0,1,143.24,103.4036Z" fill="#f4cf7a"/><path d="M140.1546,96.8074s.0484.04.1354.116l5.2142,12.9491c-.0245.0123-.049.0248-.0746.035-1.1375.4581-2.888-1.2276-4.3447-4.8451A19.775,19.775,0,0,1,140.1546,96.8074Z" fill="#fbdb8a"/><path d="M142.3069,106.98q-.5227-1.3085-1.0489-2.6156-1.05-2.6155-2.0654-5.2443a.0162.0162,0,0,1,.03-.0121q.7342,1.7567,1.4543,3.5193a7.6037,7.6037,0,0,1,.65-1.4947.0282.0282,0,0,1,.05.0212,7.8133,7.8133,0,0,1-.6609,1.57c.2177.5321.4363,1.0638.6516,1.5968q.5279,1.3065,1.0563,2.6126c.3511.8652.7625,1.7277,1.0419,2.6185a.0516.0516,0,0,1-.0957.0385C142.9545,108.7542,142.6533,107.8471,142.3069,106.98Z" fill="#2e5175"/><path d="M141.9107,105.8716a15.8967,15.8967,0,0,1,1.0769-2.5138.0177.0177,0,0,1,.0325.0139,15.8984,15.8984,0,0,1-1.0661,2.5184A.0236.0236,0,0,1,141.9107,105.8716Z" fill="#2e5175"/><path d="M139.3494,103.4342c.3426.1229.68.26,1.0188.3929a4.65,4.65,0,0,1,.8935.4112.0267.0267,0,0,1-.02.0472,4.6447,4.6447,0,0,1-.9156-.3592c-.3307-.152-.6633-.3-.9893-.4622A.0162.0162,0,0,1,139.3494,103.4342Z" fill="#2e5175"/><path d="M140.7251,106.73a13.9159,13.9159,0,0,1,1.7451.7256.03.03,0,0,1-.0231.0542,13.9078,13.9078,0,0,1-1.7324-.7554A.0133.0133,0,0,1,140.7251,106.73Z" fill="#2e5175"/><path d="M142.8924,108.5734a12.45,12.45,0,0,1,.8893-2.062.0192.0192,0,0,1,.0352.015,12.448,12.448,0,0,1-.87,2.07A.03.03,0,0,1,142.8924,108.5734Z" fill="#2e5175"/><rect x="139.2211" y="101.0585" width="20.15" height="13.6513" fill="#e2e2e2"/><rect x="135.1356" y="101.0585" width="4.0855" height="13.6513" transform="translate(274.3566 215.7683) rotate(180)" fill="#a4a4a5"/><rect x="139.2211" y="101.0585" width="20.413" height="1.9395" fill="#edeef4"/><rect x="137.8827" y="99.9683" width="20.1931" height="1.0902" fill="#a4a4a5"/><rect x="137.1783" y="98.8859" width="20.1931" height="1.0902" fill="#edeef4"/><rect x="137.0062" y="96.721" width="20.1931" height="1.0902" fill="#edeef4"/><rect x="138.0747" y="95.6386" width="20.1931" height="1.0902" fill="#a4a4a5"/><rect x="138.6579" y="97.8035" width="20.1931" height="1.0902" fill="#a4a4a5"/></svg>