<svg id="Layer_1" data-name="Layer 1" xmlns="http://www.w3.org/2000/svg" width="35" height="35" viewBox="0 0 35 35"><title>android-brand</title><path d="M25.5445,12.1129H9.4555a.648.648,0,0,0-.648.648v13.492a.648.648,0,0,0,.648.648h2.8683v4.5468a1.91,1.91,0,0,0,1.91,1.91h0a1.91,1.91,0,0,0,1.91-1.91V26.9009H18.816v4.5468a1.91,1.91,0,0,0,1.91,1.91h0a1.91,1.91,0,0,0,1.91-1.91V26.9009h2.9081a.648.648,0,0,0,.648-.648h0V12.7609A.6481.6481,0,0,0,25.5445,12.1129Z" fill="#ccd0d2"/><path d="M6.0836,12.11h0a1.91,1.91,0,0,0-1.91,1.91v7.7586a1.91,1.91,0,0,0,1.91,1.91h0a1.91,1.91,0,0,0,1.91-1.91V14.02a1.91,1.91,0,0,0-1.91-1.91Z" fill="#ccd0d2"/><path d="M28.9164,12.11h0a1.91,1.91,0,0,0-1.91,1.91v7.7586a1.91,1.91,0,0,0,1.91,1.91h0a1.91,1.91,0,0,0,1.91-1.91V14.02a1.91,1.91,0,0,0-1.91-1.91Z" fill="#ccd0d2"/><path d="M9.5857,11.1667H25.3763a.649.649,0,0,0,.6346-.7827,8.7284,8.7284,0,0,0-4.258-5.7993l1.35-2.4356a.3414.3414,0,1,0-.5973-.3309l-1.36,2.454a8.7365,8.7365,0,0,0-7.329,0l-1.36-2.4541a.3414.3414,0,1,0-.6013.3234l.0041.0075,1.35,2.4356a8.7286,8.7286,0,0,0-4.258,5.7994.6489.6489,0,0,0,.6343.7827Zm12.6071-3.63a.7343.7343,0,1,1-.7343-.7343.7343.7343,0,0,1,.7343.7343h0Zm-8.6893-.7343a.7343.7343,0,1,1-.7343.7343h0a.7343.7343,0,0,1,.7342-.7342Z" fill="#ccd0d2"/></svg>