<svg xmlns="http://www.w3.org/2000/svg" xmlns:xlink="http://www.w3.org/1999/xlink" width="371" height="339" viewBox="0 0 371 339"><defs><linearGradient id="linear-gradient" x1="329.4334" y1="185.2626" x2="350.5808" y2="185.2626" gradientUnits="userSpaceOnUse"><stop offset="0" stop-color="#fff"/><stop offset="0.6429" stop-color="#c6c0b9"/></linearGradient><linearGradient id="linear-gradient-2" x1="317.3365" y1="184.5253" x2="328.901" y2="184.5253" xlink:href="#linear-gradient"/></defs><title>android-banner</title><g style="isolation:isolate"><g id="Layer_1" data-name="Layer 1"><path d="M143.6541,33.329a207.7369,207.7369,0,0,0,79.94-15.3954c15.0871-6.2473,50.73-9.7416,73.6675-5.0857,19.9125,4.0419,67.2427,21.8759,46.44,79.8037s-46.502,63.6279-28.12,101.8757c13.5,28.09,36.9478,56.1136,15.7925,78.1394-32.8995,34.2533-166.8958,83.8554-235.6132,41.017s-83.2061-58.1138-61.56-123.46S2.02,116.1851,30.8167,67.9027C48.0886,38.9437,102.7042,33.249,143.6541,33.329Z" fill="#f1f3f7"/><path d="M325.7008,168.3663c-2.1807,2.3427-3.7185,17.3546-3.7755,17.9119s-11.0392,6.7365-11.0392,6.7365l1.5461,1.7689s11.7029-2.9477,13.8077-5.493c1.7853-2.1589,5.9114-19.807,5.9114-19.807S329.3193,164.4787,325.7008,168.3663Z" fill="#f4cf7a"/><path d="M113.088,124.0693c16.8648,20.722,31.7766,28.496,38.6655,23.7683L89.9954,71.9549C91.3,78.0118,97.827,105.3183,113.088,124.0693Z" fill="#f4cf7a"/><path d="M89.7428,70.7312s.0823.4331.2526,1.2237l61.7581,75.8827c.1586-.109.318-.2166.4678-.3387,6.6662-5.4253,2.26-21.8774-14.9934-43.0763S89.7428,70.7312,89.7428,70.7312Z" fill="#fbdb8a"/><path d="M138.1894,130.47q-6.2549-7.6424-12.4893-15.3015-12.4859-15.3052-25.1689-30.4479a.1137.1137,0,0,0-.1762.1436q8.2875,10.4591,16.6588,20.8512a53.2967,53.2967,0,0,0-11.3731-1.0779.1976.1976,0,0,0-.0388.3778,54.7817,54.7817,0,0,0,11.8683,1.2664q3.7894,4.7084,7.5866,9.41,6.2247,7.6667,12.4459,15.3365c4.117,5.0872,8.0137,10.5347,12.53,15.2679a.3618.3618,0,0,0,.5609-.4564C146.8774,140.4567,142.334,135.5338,138.1894,130.47Z" fill="#2e5175"/><path d="M132.7332,124.2822a111.4232,111.4232,0,0,0-19.0712-1.9157.1241.1241,0,0,0-.0253.2467,111.3989,111.3989,0,0,0,19.0627,1.9977A.1653.1653,0,0,0,132.7332,124.2822Z" fill="#2e5175"/><path d="M126.4636,100.3076c-.4077,2.5184-.7115,5.0523-1.0435,7.5818a32.59,32.59,0,0,0-.5066,6.8749.1872.1872,0,0,0,.3579.0366,32.563,32.563,0,0,0,.9-6.8344c.1887-2.544.4059-5.0869.5181-7.6356A.1137.1137,0,0,0,126.4636,100.3076Z" fill="#2e5175"/><path d="M142.0165,119.9183c-.6086,4.3552-1.4549,8.758-1.4651,13.1645a.2067.2067,0,0,0,.4111.0423c.885-4.3175.95-8.7994,1.239-13.1881A.093.093,0,0,0,142.0165,119.9183Z" fill="#2e5175"/><path d="M145.9787,139.4631a87.249,87.249,0,0,0-15.664-1.5348.1345.1345,0,0,0-.0274.2674,87.2574,87.2574,0,0,0,15.6492,1.6784A.2067.2067,0,0,0,145.9787,139.4631Z" fill="#2e5175"/><path d="M139.5535,109.254c2.426,22.1168,9.34,34.2955,16.2954,34.1038L146.965,62.3665C145.1387,67.192,137.3583,89.24,139.5535,109.254Z" fill="#f4cf7a"/><path d="M147.3417,61.3965s-.1383.34-.3767.97l8.8839,80.9913c.16-.0044.32-.0077.48-.0252,7.1149-.78,11.4714-14.2788,8.99-36.9049S147.3417,61.3965,147.3417,61.3965Z" fill="#fbdb8a"/><path d="M154.2146,125.0788q-.9192-8.1725-1.8164-16.3477-1.8124-16.3492-3.8361-32.6735a.0947.0947,0,0,0-.1881.0207q1.067,11.0617,2.2231,22.1143a44.3653,44.3653,0,0,0-7.4663-5.8958c-.138-.0816-.3077.13-.198.2467A45.61,45.61,0,0,0,150.66,98.795c.3476,3.3375.689,6.6754,1.0511,10.0114q.8875,8.1762,1.77,16.3528c.5794,5.4191.8416,10.9907,1.8606,16.3431a.3013.3013,0,0,0,.5986-.0657C155.7757,135.9913,154.8237,130.4944,154.2146,125.0788Z" fill="#2e5175"/><path d="M153.1965,118.2846a92.7851,92.7851,0,0,0-12.4715-9.962.1033.1033,0,0,0-.1292.161,92.795,92.795,0,0,0,12.4286,10.0157A.1377.1377,0,0,0,153.1965,118.2846Z" fill="#2e5175"/><path d="M159.6509,98.683c-1.4238,1.577-2.7818,3.2118-4.1576,4.8306a27.1351,27.1351,0,0,0-3.4625,4.5791.1558.1558,0,0,0,.2337.1874,27.0976,27.0976,0,0,0,3.72-4.3728c1.2822-1.6938,2.5838-3.3742,3.8148-5.1059A.0948.0948,0,0,0,159.6509,98.683Z" fill="#2e5175"/><path d="M161.6619,119.43a81.1944,81.1944,0,0,0-6.9765,8.5446.1721.1721,0,0,0,.2683.2153,81.1957,81.1957,0,0,0,6.8291-8.6631A.0775.0775,0,0,0,161.6619,119.43Z" fill="#2e5175"/><path d="M155.5964,134.89a72.6645,72.6645,0,0,0-10.261-8.1554.1119.1119,0,0,0-.14.1746,72.6407,72.6407,0,0,0,10.1856,8.2492A.1721.1721,0,0,0,155.5964,134.89Z" fill="#2e5175"/><path d="M106.5478,141.0316c15.9633,12.0329,28.1887,15.0094,32.3465,10.341L80.4374,107.309C82.47,111.4754,92.1028,130.1433,106.5478,141.0316Z" fill="#f4cf7a"/><path d="M80.0347,106.4652s.1374.3.4027.8438l58.4569,44.0636c.0957-.1074.1922-.2142.2791-.33,3.8709-5.1352-2.2772-16.2978-18.6079-28.6077S80.0347,106.4652,80.0347,106.4652Z" fill="#fbdb8a"/><path d="M125.9294,141.1854q-5.913-4.4315-11.8137-8.8788-11.8118-8.8824-23.738-17.6112a.085.085,0,0,0-.1021.1358q7.8939,6.1138,15.8366,12.1639a39.8743,39.8743,0,0,0-8.4552,1.2541.1479.1479,0,0,0,.04.2813,40.9733,40.9733,0,0,0,8.8487-1.2058q3.5964,2.7418,7.1969,5.4775,5.8954,4.4547,11.7886,8.9122c3.9021,2.958,7.7084,6.2176,11.8377,8.847a.2707.2707,0,0,0,.3256-.4321C134.03,146.8842,129.8473,144.1218,125.9294,141.1854Z" fill="#2e5175"/><path d="M120.8574,137.6675a83.3627,83.3627,0,0,0-14.1975,2.0244.0928.0928,0,0,0,.0259.1837,83.3719,83.3719,0,0,0,14.2061-1.9633A.1237.1237,0,0,0,120.8574,137.6675Z" fill="#2e5175"/><path d="M112.0085,121.3738c.1549,1.9026.388,3.7979.6,5.6947a24.384,24.384,0,0,0,.8634,5.0853.14.14,0,0,0,.2665-.0376,24.3568,24.3568,0,0,0-.57-5.1261c-.3185-1.8819-.6163-3.7683-.9911-5.64A.0851.0851,0,0,0,112.0085,121.3738Z" fill="#2e5175"/><path d="M126.82,132.8344a72.9756,72.9756,0,0,0,1.2937,9.8261.1546.1546,0,0,0,.3061-.0429,72.933,72.933,0,0,0-1.462-9.8025A.07.07,0,0,0,126.82,132.8344Z" fill="#2e5175"/><path d="M133.199,146.3234a65.2873,65.2873,0,0,0-11.6543,1.6909.1005.1005,0,0,0,.028.1989,65.2778,65.2778,0,0,0,11.6691-1.5837A.1546.1546,0,0,0,133.199,146.3234Z" fill="#2e5175"/><path d="M222.5986,80.9939c-.7265-11.947-12.9952-12.3579-12.9952-12.3579H134.3942s-12.2678.411-12.9932,12.3579,0,172.4946,0,172.4946,0,13.3335,13.6537,13.5173c10.2649.1419,28.515.0688,36.944.025,8.4311.0438,26.6835.1169,36.9452-.025,13.6546-.1838,13.6546-13.5173,13.6546-13.5173S223.3251,92.94,222.5986,80.9939Z" fill="#e2e2e2"/><path d="M221.2821,83.4981s-1.5356-6.506-7.2084-6.5477c-4.4346-.0325-79.6426-.0325-84.0749,0-5.6751.0417-7.2118,6.5477-7.2118,6.5477s-.2438,162.2122-.0671,168.5776c.1765,6.3631,6.9479,7.5109,6.9479,7.5109h84.7366s6.77-1.1478,6.9447-7.5109C221.5279,245.71,221.2821,83.4981,221.2821,83.4981Z" fill="#f7f7f7"/><ellipse id="_Path_" data-name="&lt;Path&gt;" cx="186.639" cy="73.6059" rx="0.8929" ry="0.8335" fill="#a4a4a5"/><ellipse id="_Path_2" data-name="&lt;Path&gt;" cx="190.0351" cy="73.6059" rx="0.8923" ry="0.8335" fill="#a4a4a5"/><ellipse id="_Path_3" data-name="&lt;Path&gt;" cx="154.6486" cy="73.6059" rx="1.656" ry="1.5461" fill="#a4a4a5"/><path id="_Rectangle_" data-name="&lt;Rectangle&gt;" d="M161.0606,72.696h20.47a.8311.8311,0,0,1,.8311.8311v.1577a.8311.8311,0,0,1-.8311.8311H161.0612a.8317.8317,0,0,1-.8317-.8317v-.1572A.8311.8311,0,0,1,161.0606,72.696Z" fill="#a4a4a5"/><path id="path5043-3-9-23-3-0-3-6" d="M304.9866,184.3029s-5.2557,6.9061-8.8265,6.3074c-3.1244-.5241-2.4078-7.2176-5.5322-7.7418s-7.2063,2.3938-7.723,5.5188,6.0485,4.616,5.5322,7.7418c-.59,3.5722-8.8265,6.3074-8.8265,6.3074s2.7517,8.2486,6.3219,8.8468c3.1244.5241,4.5991-6.0423,7.7232-5.519s6.0485,4.616,5.5322,7.7418-7.2069,2.3932-7.7232,5.519c-.5906,3.5714,6.3223,8.8474,6.3223,8.8474s5.2557-6.9061,8.8265-6.3074c3.1239.5235,2.4074,7.217,5.5318,7.7411s7.2063-2.3938,7.723-5.5188-6.0485-4.6161-5.5318-7.7411c.59-3.5722,8.8265-6.3074,8.8265-6.3074l-18.1764-25.4359Z" fill="#e2e2e2"/><path id="path5043-5-82-0-1-4-0-2" d="M188.2948,166.2716s2.6826,8.204,0,10.7342c-2.3468,2.2141-7.6106-2.2141-9.9576,0s-2.347,7.1779,0,9.392,7.6108-2.2141,9.9576,0c2.6826,2.53,0,10.7342,0,10.7342s-8.6978-2.53-11.38,0c-2.347,2.2133,2.347,7.1779,0,9.392s-7.6108,2.2141-9.9578,0,2.347-7.1787,0-9.392c-2.6824-2.53-11.38,0-11.38,0s-2.6821-8.204,0-10.7342c2.347-2.2141,7.6108,2.2141,9.958,0s2.3468-7.1779,0-9.392-7.611,2.2141-9.958,0c-2.6821-2.53,0-10.7342,0-10.7342Z" fill="#e2e2e2"/><path id="path5043-5-82-0-1-4-0-2-2" data-name="path5043-5-82-0-1-4-0-2" d="M188.2948,259.5992s2.6826-8.3591,0-10.9371c-2.3468-2.256-7.6106,2.256-9.9576,0s-2.347-7.3136,0-9.57,7.6108,2.256,9.9576,0c2.6826-2.578,0-10.9371,0-10.9371s-8.6978,2.578-11.38,0c-2.347-2.2552,2.347-7.3136,0-9.57s-7.6108-2.256-9.9578,0,2.347,7.3144,0,9.57c-2.6824,2.578-11.38,0-11.38,0s-2.6821,8.3591,0,10.9371c2.347,2.256,7.6108-2.256,9.958,0s2.3468,7.3136,0,9.57-7.611-2.256-9.958,0c-2.6821,2.578,0,10.9371,0,10.9371Z" fill="#e2e2e2"/><path d="M232.6222,163.21l-5.967-7.02-.0075.0057-.3748-.8663a1.517,1.517,0,0,0-1.5683-.9043l-1.1451-.0289a6.5485,6.5485,0,0,0-1.1758-.4793l-1.842-.5429,3.0876,4.4521a1.7239,1.7239,0,0,0,.834.46l5.8052,7.537Z" fill="#feadae"/><path d="M258.14,167.66a3.4456,3.4456,0,0,0-4.3636-2.1687l-12.1741,4.0907L230.351,158.6373l-3.6525,2.9428,11.4674,14.2549a3.1569,3.1569,0,0,0,3.4557,1.0109l.19-.0638,14.16-4.758A3.4456,3.4456,0,0,0,258.14,167.66Z" fill="#f4cf7a"/><polygon points="230.359 158.633 228.962 157.178 225.318 159.951 226.698 161.58 230.359 158.633" fill="#fbdb8a"/><circle cx="259.5835" cy="149.2248" r="8.6831" fill="#3d4177"/><path d="M278.885,250.24c-.1352-.101-8.4711-5.837-8.4711-5.837l2.7083-3.9511,7.6973,6.9659Z" fill="#feadae"/><path d="M277.61,250.2124l.7084,4.9189a2.5307,2.5307,0,0,1-.0192.8363l-1.792,5.7974,8.7724-12.6033-2.3631-1.1247-2.2641-1.7258a.3522.3522,0,0,0-.5521.0584Z" fill="#473e73"/><path d="M276.5069,261.765l.6378.4763a.6929.6929,0,0,0,.9932-.1719l8.1131-11.6477a.7642.7642,0,0,0-.1648-1.0366l-.6377-.4763Z" fill="#fbdb8a"/><path d="M263.4153,263.6007c0-.1735-.3811-10.5874-.3811-10.5874h4.6544l-.9487,10.5874Z" fill="#feadae"/><path d="M260.7594,160.8083l-1.9128.8736c-3.2669,1.4117-5.4305,3.9383-5.2393,6.1929l.861,26.36H270.65V169.0593c0-3.1615.0147-5.3972-2.3832-6.2062Z" fill="#fbdb8a"/><path d="M258.8045,153.6672h4.79a.23.23,0,0,1,.23.23v5.3951a4.797,4.797,0,0,1-4.797,4.797h-.4534a0,0,0,0,1,0,0v-10.192A.23.23,0,0,1,258.8045,153.6672Z" fill="#feadae"/><path d="M254.0084,194.2349l-6.3711,29.9441a5.3137,5.3137,0,0,0,2.0213,5.5054l23.6625,18.0642,3.2806-5.2828-19.4845-18.0271,13.5473-30.2037Z" fill="#293882"/><polygon points="278.667 242.568 274.226 249.492 271.029 247.202 275.47 240.278 278.667 242.568" fill="#473e73"/><path d="M262.695,262.5019l-3.42,3.4636a2.4009,2.4009,0,0,1-.6281.4586l-5.46,1.977h14.79l-.4987-2.66.0273-2.9261a.3719.3719,0,0,0-.3667-.4347Z" fill="#473e73"/><path d="M253.1866,268.401v.8185a.728.728,0,0,0,.7119.7431H267.67a.728.728,0,0,0,.7119-.7431v-.8185Z" fill="#fbdb8a"/><path d="M263.9453,159.8819l-6.239,4.6137,4.7872.69,3.6947-2.8372-1.0737-2.2775A.7112.7112,0,0,0,263.9453,159.8819Z" fill="#f4cf7a"/><path d="M258.5745,160.7781c-.05.1258,3.8975.44,5.2414-6.7808l-5.2413,3.4643Z" fill="#e5989b"/><circle cx="269.9904" cy="140.5417" r="6.8661" transform="translate(111.6229 400.4773) rotate(-86.1468)" fill="#3d4177"/><path d="M252.2647,147.1743h11.5512a0,0,0,0,1,0,0v6.7918a5.2769,5.2769,0,0,1-5.2769,5.2769h-.9975a5.2769,5.2769,0,0,1-5.2769-5.2769v-6.7918a0,0,0,0,1,0,0Z" fill="#feadae"/><circle cx="263.9809" cy="152.0864" r="1.5808" fill="#e5989b"/><path d="M251.5412,147.01s-.6407,5.0764,12.2747,3.4956l1.1928-5.15-8.8652-.9942Z" fill="#3d4177"/><path d="M272.006,199.2632l-1.3415-5.0282H254.0084l5.0272,10.3618,3.242,52.2521h6.1236l1.8368-50.8159A7.2027,7.2027,0,0,0,272.006,199.2632Z" fill="#0088cc"/><rect x="261.3129" y="255.1254" width="7.8357" height="3.5051" fill="#473e73"/><path d="M247.2335,183.633l.3085-3.5028-8.5824-1.9267-.8077-1.1635-2.3534.2584-3.9526-1.1833a.3407.3407,0,0,0-.43.2347.3637.3637,0,0,0,.2489.438l2.2869.6847-.0959.37-1.9157-.526a.34.34,0,0,0-.4244.2448.3638.3638,0,0,0,.2588.4324l1.9061.5233-.0529.2039-1.5492-.3394a.3382.3382,0,0,0-.41.2675.3643.3643,0,0,0,.281.4186l1.5025.3292-.0688.2651-.98-.1786a.3383.3383,0,0,0-.3995.2824.3645.3645,0,0,0,.2956.4087l.9078.1655h0l3.9121.9a1.7245,1.7245,0,0,0,.9428-.1344Z" fill="#feadae"/><polygon points="264.77 182.458 261.103 181.765 260.559 185.28 264.77 182.458" fill="#f4cf7a"/><path d="M267.3434,186.5l.0255-.165,2.7105-17.5046a3.4456,3.4456,0,0,0-6.81-1.0545l-2.1661,13.9891,3.6671.6929-4.2115,2.8226.5444-3.5155L241.8152,178.12l-.8145,4.5256,22.1565,6.5119a3.6256,3.6256,0,0,0,.4249.0949A3.2957,3.2957,0,0,0,267.3434,186.5Z" fill="#f4cf7a"/><polygon points="241.815 178.12 239.837 177.773 239.053 182.133 241.001 182.645 241.815 178.12" fill="#fbdb8a"/><path d="M224.2471,156.1356a.2894.2894,0,0,1-.1786-.2511.3113.3113,0,0,1,.2707-.3326l1.7377-.1877a.2849.2849,0,0,1,.3134.2694.3113.3113,0,0,1-.2707.3325l-1.7377.1877A.2793.2793,0,0,1,224.2471,156.1356Z" fill="#feadae"/><circle cx="142.093" cy="100.5444" r="13.5745" fill="#edeef4"/><rect x="165.3307" y="106.0663" width="50.1566" height="2.991" rx="1.3664" ry="1.3664" fill="#edeef4"/><rect x="165.3307" y="111.5881" width="50.1566" height="2.7609" rx="1.2613" ry="1.2613" fill="#edeef4"/><rect x="177.9849" y="88.5805" width="37.5024" height="14.0346" rx="6.4114" ry="6.4114" fill="#edeef4"/><rect x="130.1291" y="123.0919" width="85.3582" height="14.0346" rx="6.4114" ry="6.4114" fill="#edeef4"/><path id="path5043-0-6-9-84-1-9-9-4" d="M155.683,227.9923s2.6824-8.2048,0-10.7342c-2.3472-2.2141-7.6106,2.2133-9.9578,0s-2.3472-7.1787,0-9.3928,7.6106,2.2141,9.9578,0c2.6824-2.5294,0-10.7334,0-10.7334s8.698-2.53,11.38,0c2.347,2.2133-2.3472,7.1779,0,9.392s7.6106,2.2141,9.9578,0-2.3472-7.1787,0-9.392c2.6824-2.53,11.38,0,11.38,0s-2.6824,8.204,0,10.7334c2.3472,2.2141,7.6108-2.2133,9.958,0s2.347,7.1787,0,9.3928-7.6108-2.2141-9.958,0c-2.6824,2.5294,0,10.7342,0,10.7342s-8.6978,2.5294-11.38,0c-2.3472-2.2141,2.347-7.1787,0-9.3928s-7.6108-2.2141-9.9578,0,2.347,7.1787,0,9.3928C164.381,230.5217,155.683,227.9923,155.683,227.9923Z" fill="#edeef4"/><path id="path5043-4-6-5-1-0-2" d="M129.5915,259.5992h25.919s-2.6972-8.3591,0-10.9371c2.36-2.256,7.6536,2.2552,10.014,0s2.36-7.3144,0-9.57-7.6538,2.2552-10.014,0c-2.6972-2.578,0-10.9371,0-10.9371s-8.7467-2.578-11.4443,0c-2.36,2.256,2.36,7.3144,0,9.57s-7.6534,2.256-10.0136,0,2.36-7.3136,0-9.57c-2.6976-2.578-11.4443,0-11.4443,0v24.3688C123.3795,257.2984,128.29,259.5992,129.5915,259.5992Z" fill="#edeef4"/><path id="path5043-4-6-5-1-0-2-2" data-name="path5043-4-6-5-1-0-2" d="M214.4087,259.5992H188.49s2.6972-8.3591,0-10.9371c-2.36-2.256-7.6536,2.2552-10.014,0s-2.36-7.3144,0-9.57,7.6538,2.2552,10.014,0c2.6972-2.578,0-10.9371,0-10.9371s8.7467-2.578,11.4443,0c2.36,2.256-2.36,7.3144,0,9.57s7.6534,2.256,10.0136,0-2.36-7.3136,0-9.57c2.6976-2.578,11.4443,0,11.4443,0v24.3688C220.6207,257.2984,215.71,259.5992,214.4087,259.5992Z" fill="#edeef4"/><path id="path5043-4-6-5-1-0-2-3" data-name="path5043-4-6-5-1-0-2" d="M223.0121,150.1817l-32.4026,13.9615s6.3766,7.49,4.8677,11.2972c-1.32,3.3318-8.541.9183-9.8619,4.2493s.9312,8.5567,4.2591,9.8846,6.5339-5.5772,9.8619-4.2493c3.8036,1.5184,4.8677,11.2972,4.8677,11.2972s9.7613-1.0486,11.2706-4.8562c1.32-3.3318-5.58-6.5537-4.2591-9.8846s6.5331-5.5778,9.8615-4.2491.9306,8.5559,4.2591,9.8846c3.804,1.5182,11.2706-4.8562,11.2706-4.8562Z" fill="#edeef4"/><path id="path5043-4-6-5-1-0-2-4" data-name="path5043-4-6-5-1-0-2" d="M123.4323,149.4184l31.5192,13.3654s-6.1453,7.3033-4.66,10.9892c1.3,3.2255,8.2927.8431,9.593,4.0678s-.8556,8.3079-4.0772,9.6151-6.3712-5.375-9.593-4.0678c-3.6822,1.4947-4.66,10.9892-4.66,10.9892s-9.4774-.9627-10.9633-4.6489c-1.3-3.2255,5.3774-6.39,4.0772-9.6151s-6.37-5.3756-9.5926-4.0677-.855,8.3072-4.0772,9.6151c-3.6826,1.4945-10.9633-4.6489-10.9633-4.6489Z" fill="#edeef4"/><path d="M85.7633,164.5191s9.29,2.4268,16.9491.271c10.89-2.9805,15.5913-6.2439,15.5913-6.2439l1.1211.2136L117.12,163.248s-2.1782,2.459-8.2656,6.3982a26.1921,26.1921,0,0,1-15.307,4.0889Z" fill="#f4cf7a"/><path d="M115.5618,161.1859l1.0705.204,1.9738-2.2a16.1953,16.1953,0,0,0,2.5583-2.4549c.4575-.7865-.4562-1.3095-.4562-1.3095l-2.0386,1.3165,2.035-4.3263s-3.2733,2.3587-3.9756,3.7351A22.7942,22.7942,0,0,0,115.5618,161.1859Z" fill="#feadae"/><polygon points="91.535 266.881 91.526 269.289 101.52 269.327 94.754 266.893 91.535 266.881" fill="#473e73"/><polygon points="67.671 266.792 67.662 269.201 73.692 271.989 76.405 271.999 71.361 266.806 67.671 266.792" fill="#473e73"/><path d="M94.9936,202.507l-.2395,64.386-3.2192-.012s-5.31-15.0434-4.3962-29.849L83.5733,214.698,71.3607,266.806l-3.6486-.0136s-3.1-19.2675,1.4026-30.9l1.8414-33.4744Z" fill="#0088cc"/><path d="M94.9936,202.507s-5.8881,4.5646-24.2592,3.9423l.2217-4.0317,13.8865-2.514" fill="#293882"/><polygon points="83.573 214.698 87.718 206.512 87.139 237.032 83.573 214.698" fill="#293882"/><path d="M86.8307,141.4077c-4.2453-1.0243-7.9583,1.1948-8.73,4.9092,0,0-6.1235,6.0068,1.9615,11.7365l2.5426.2911,3.6827-3.0172,5.044-6.969s2.0406-1.5613,2.2077-3.2664C93.9832,140.5637,88.5842,139.6668,86.8307,141.4077Z" fill="#3d4177"/><path d="M81.8614,158.06a11.5448,11.5448,0,0,0,1.8727-4.2081s-2.69-.5661-2.2262-2.5252c.3847-1.6283,2.4316-1.0727,3.0787.3327L84.58,153.53s1.0539-.0236,1.2525-3.6106l1.24-1.577,4.26.0158a17.1657,17.1657,0,0,1,1.0536,7.9654,38.3485,38.3485,0,0,1-1.0984,4.0936l-4.2468-.0158-.0115,3.611.8229,1.9525-1.0116,1.103L80.7014,164.43l-.6543-.6252.0152-5.7518Z" fill="#feadae"/><path d="M70.9561,202.4176c.001,0,13.1571,3.6246,24.0375.0894,0,0-1.189-21.0923-1.7778-31.534-.16-2.8465-2.6146-6.93-5.4658-6.9411l-.7216-.0349-.1887,3.0709L79.88,163.83l-.5039-.0248a5.9587,5.9587,0,0,0-3.54,1.4239,8.33,8.33,0,0,0-2.9085,5.6614l-2.414,31.927Z" fill="#fbdb8a"/><path d="M105.26,182.1972a13.8724,13.8724,0,0,1,2.1125-2.1484s3.1882-2.5494,3.7095-2.9124c0,0,.88.3954.2055,1.3461a20.5269,20.5269,0,0,1-1.719,2.0217,12.5424,12.5424,0,0,0,2.6775-.9616c.9949-.5663,2.9914-1.6309,3.6875-1.4717s.2892.761.2892.761-3.0678,1.6332-3.7226,1.9884c-.575.3118-.29.46-.29.46s3.6782-1.5916,4.381-1.7878,1.0712-.03,1.0275.5984c0,0-2.8146,1.3283-3.231,1.5337s-1.8754.6336-1.6584,1.0864c0,0,3.2624-1.2016,3.8334-1.3715s.951.086.7164.6457l-4.403,1.8864s-.308.1395-.1468.2981a10.9524,10.9524,0,0,0,2.4572-.0711c.2419-.0447,1.0119-.1253.9809.4749,0,0-.04.2035-.761.2891s-3.9678.8957-3.9678.8957a11.116,11.116,0,0,1-4.673-.0115c-2.4857-.57-2.7015-1.5176-1.85-.4l.1694-1.3174Z" fill="#feadae"/><path d="M73.8223,168.0193c.8008-2.07,4.9626-4.0175,8.3113,2.5782,4.2175,8.3063,5.875,17.2938,23.6539,10.36l.9136,4.6565s-17.2917,13.3883-29.5979-5.7413C75.5567,177.4689,72.2458,172.0933,73.8223,168.0193Z" fill="#f4cf7a"/><ellipse cx="240.1692" cy="268.4371" rx="9.0209" ry="1.1526" fill="#2e5175" opacity="0.1"/><path d="M234.6227,248.3514c1.4419,7.1007,4.0449,10.8454,6.2948,10.5772l-5.28-26.0023C235.188,234.5453,233.3178,241.926,234.6227,248.3514Z" fill="#f4cf7a"/><path d="M235.7307,232.6s-.0348.1144-.0934.3257l5.28,26.0023c.0518-.0062.1036-.012.155-.0224,2.2843-.4638,3.2972-4.97,1.8221-12.2345S235.7307,232.6,235.7307,232.6Z" fill="#fbdb8a"/><path d="M239.8461,253.0491q-.54-2.6232-1.0734-5.2478-1.0721-5.2483-2.212-10.4823a.0308.0308,0,0,0-.06.0123q.6738,3.5557,1.3762,7.1058a14.4537,14.4537,0,0,0-2.5961-1.6908c-.0472-.0224-.0959.0512-.0569.0859a14.8565,14.8565,0,0,0,2.6913,1.7985c.2116,1.072.4212,2.1444.6375,3.2155q.53,2.6252,1.0585,5.2508c.3484,1.74.5985,3.5394,1.0875,5.2449a.0981.0981,0,0,0,.1922-.039C240.6755,256.5418,240.204,254.7873,239.8461,253.0491Z" fill="#2e5175"/><path d="M239.3146,250.8759a30.2173,30.2173,0,0,0-4.34-2.8613.0336.0336,0,0,0-.0371.0561,30.2107,30.2107,0,0,0,4.3273,2.88A.0448.0448,0,0,0,239.3146,250.8759Z" fill="#2e5175"/><path d="M240.8271,244.3279c-.415.5536-.807,1.124-1.2052,1.69a8.8381,8.8381,0,0,0-.9873,1.5875.0508.0508,0,0,0,.0814.0538,8.8309,8.8309,0,0,0,1.0767-1.5283c.3656-.5873.738-1.1708,1.0858-1.7688A.0308.0308,0,0,0,240.8271,244.3279Z" fill="#2e5175"/><path d="M242.0938,250.9965a26.4471,26.4471,0,0,0-2.0094,2.9776.0561.0561,0,0,0,.0934.0619,26.44,26.44,0,0,0,1.958-3.0117A.0252.0252,0,0,0,242.0938,250.9965Z" fill="#2e5175"/><path d="M240.5848,256.19a23.6614,23.6614,0,0,0-3.5692-2.3408.0365.0365,0,0,0-.04.0608,23.6637,23.6637,0,0,0,3.5476,2.3734A.0561.0561,0,0,0,240.5848,256.19Z" fill="#2e5175"/><path d="M242.8449,248.1249c-2.2019,5.6178-2.0744,9.4136-.38,10.2433l8.0632-20.5724C249.4822,238.7249,244.8374,243.0413,242.8449,248.1249Z" fill="#f4cf7a"/><path d="M250.741,237.61s-.076.0643-.2126.1856l-8.0632,20.5724c.039.0191.0779.0385.1185.0544,1.8073.7083,4.5531-1.9854,6.8057-7.7326S250.741,237.61,250.741,237.61Z" fill="#fbdb8a"/><path d="M244.374,253.7718q.8082-2.0787,1.6219-4.1554,1.6231-4.1552,3.1923-8.331a.0257.0257,0,0,0-.0478-.0187q-1.1364,2.7913-2.25,5.5917a12.0316,12.0316,0,0,0-1.0511-2.3562.0446.0446,0,0,0-.0786.0343,12.3693,12.3693,0,0,0,1.0691,2.4745c-.3367.8454-.675,1.69-1.008,2.537q-.8162,2.0756-1.6336,4.1508c-.5431,1.3746-1.1816,2.7459-1.6108,4.16a.0817.0817,0,0,0,.1521.06C243.3751,256.59,243.8385,255.1493,244.374,253.7718Z" fill="#2e5175"/><path d="M244.9849,252.0117a25.1628,25.1628,0,0,0-1.7414-3.9631.028.028,0,0,0-.0513.0224,25.1654,25.1654,0,0,0,1.7243,3.9705A.0373.0373,0,0,0,244.9849,252.0117Z" fill="#2e5175"/><path d="M249.0031,248.1161c-.5405.2-1.0725.4212-1.6068.6369a7.3589,7.3589,0,0,0-1.4082.6639.0423.0423,0,0,0,.0325.0744,7.3487,7.3487,0,0,0,1.444-.582c.5212-.2454,1.0454-.4851,1.5591-.7461A.0257.0257,0,0,0,249.0031,248.1161Z" fill="#2e5175"/><path d="M246.8741,253.3526a22.0194,22.0194,0,0,0-2.7515,1.174.0467.0467,0,0,0,.0373.0855,22.02,22.02,0,0,0,2.731-1.221A.021.021,0,0,0,246.8741,253.3526Z" fill="#2e5175"/><path d="M243.4707,256.3024a19.7062,19.7062,0,0,0-1.4379-3.2508.03.03,0,0,0-.0556.0243,19.7,19.7,0,0,0,1.408,3.2638A.0467.0467,0,0,0,243.4707,256.3024Z" fill="#2e5175"/><path d="M230.9161,251.6022c2.3193,4.9,4.8811,7.1543,6.4676,6.5564L228.89,240.2147C228.8539,241.4714,228.8173,247.1682,230.9161,251.6022Z" fill="#f4cf7a"/><path d="M228.9,239.9614s-.0048.0893-.01.2534l8.4934,17.9439c.0365-.0138.0731-.0273.1086-.0441,1.5763-.7461,1.505-4.2014-.8677-9.2143S228.9,239.9614,228.9,239.9614Z" fill="#fbdb8a"/><path d="M235.5522,254.0794q-.8623-1.8089-1.72-3.62-1.7188-3.6207-3.4845-7.2189a.0231.0231,0,0,0-.0416.02q1.1263,2.4624,2.2724,4.9156a10.8136,10.8136,0,0,0-2.1888-.7633.04.04,0,0,0-.0259.0726,11.1117,11.1117,0,0,0,2.2772.8244c.3458.7409.69,1.4824,1.039,2.2218q.8552,1.8122,1.7095,3.6249c.5648,1.2018,1.0687,2.464,1.73,3.6154a.0734.0734,0,0,0,.1326-.0628C236.78,256.4681,236.1235,255.2779,235.5522,254.0794Z" fill="#2e5175"/><path d="M234.7768,252.5958a22.6075,22.6075,0,0,0-3.6651-1.3013.0252.0252,0,0,0-.0169.0474,22.61,22.61,0,0,0,3.6594,1.317A.0336.0336,0,0,0,234.7768,252.5958Z" fill="#2e5175"/><path d="M234.7027,247.568c-.2023.4765-.385.9611-.5729,1.4434a6.6128,6.6128,0,0,0-.4329,1.33.038.038,0,0,0,.0687.0245,6.6054,6.6054,0,0,0,.5084-1.3031c.16-.4921.3264-.9827.472-1.4794A.0231.0231,0,0,0,234.7027,247.568Z" fill="#2e5175"/><path d="M236.8174,252.1856a19.7905,19.7905,0,0,0-.9264,2.5231.0419.0419,0,0,0,.0789.0282,19.779,19.779,0,0,0,.883-2.5386A.0189.0189,0,0,0,236.8174,252.1856Z" fill="#2e5175"/><path d="M236.6514,256.2287a17.7055,17.7055,0,0,0-3.0122-1.0612.0273.0273,0,0,0-.0183.0513,17.7029,17.7029,0,0,0,3.0023,1.0888A.0419.0419,0,0,0,236.6514,256.2287Z" fill="#2e5175"/><path d="M247.9639,263.2342v-6.481H232.3081v.8451l10.887,10.8869A5.2761,5.2761,0,0,0,247.9639,263.2342Z" fill="#cdd1d3"/><path d="M232.3081,257.7942V263.43a5.2767,5.2767,0,0,0,5.2767,5.2767h5.1024c.1715,0,.3406-.01.5079-.0257Z" fill="#e2e2e2"/><path d="M135.5177,97.3388a1.0868,1.0868,0,0,0-.7986.3282,1.0742,1.0742,0,0,0-.3282.7877v4.7044a1.1206,1.1206,0,0,0,1.1268,1.127,1.07,1.07,0,0,0,.7933-.3282,1.0968,1.0968,0,0,0,.3227-.7988V98.4546a1.12,1.12,0,0,0-1.1161-1.1158Z" fill="#e2e2e2"/><path d="M144.5766,93.1157l.7768-1.433a.1441.1441,0,0,0-.0546-.2188.1515.1515,0,0,0-.2188.0655l-.7876,1.4444a5.4874,5.4874,0,0,0-4.3982,0l-.7877-1.4444a.1517.1517,0,0,0-.2188-.0655.1439.1439,0,0,0-.0546.2188l.7768,1.433a4.7969,4.7969,0,0,0-1.8818,1.68,4.2419,4.2419,0,0,0-.7,2.3578h10.12a4.243,4.243,0,0,0-.7-2.3578A4.8172,4.8172,0,0,0,144.5766,93.1157ZM140.0855,95.2a.41.41,0,0,1-.301.1261.3915.3915,0,0,1-.2953-.1261.4362.4362,0,0,1,0-.6015.3929.3929,0,0,1,.2953-.1257.4252.4252,0,0,1,.301.7272Zm4.6113,0a.3924.3924,0,0,1-.2953.1261.4267.4267,0,0,1,0-.8534.3932.3932,0,0,1,.2953.1257.4362.4362,0,0,1,0,.6015Z" fill="#e2e2e2"/><path d="M137.0714,104.8329a1.1948,1.1948,0,0,0,1.2033,1.2033h.81l.0111,2.4838a1.0874,1.0874,0,0,0,.3282.7988,1.0744,1.0744,0,0,0,.7877.3282,1.1206,1.1206,0,0,0,1.1268-1.127v-2.4835h1.51V108.52a1.1267,1.1267,0,1,0,2.2535,0v-2.4835h.8206a1.1948,1.1948,0,0,0,1.1924-1.2033V97.5465H137.0714Z" fill="#e2e2e2"/><path d="M148.6683,97.3388a1.0841,1.0841,0,0,0-.7877.3227,1.07,1.07,0,0,0-.3282.7931v4.7044a1.0866,1.0866,0,0,0,.3282.7988,1.0745,1.0745,0,0,0,.7877.3282,1.1205,1.1205,0,0,0,1.1267-1.127V98.4546a1.07,1.07,0,0,0-.3282-.7931A1.0973,1.0973,0,0,0,148.6683,97.3388Z" fill="#e2e2e2"/><path d="M359.25,257.614a20.3192,20.3192,0,0,0,1.3451,2.2708c.4506.5452,2.4071-.6893,2.4207-1.1361a19.0186,19.0186,0,0,0-1.738-3.1609" fill="#feadae"/><path d="M363.8824,258.9184c.4231.5992,1.1176,1.7889,1.1176,1.7889l-1.7274,1.5763-.4518-.1941a3.8593,3.8593,0,0,1-.8085,1.2775,8.926,8.926,0,0,1-1.7868,1.2185c-1.7213.8016-3.1624.9233-3.359.7168-.8218-.8627,1.4543-1.9482,1.8809-2.231a3.1907,3.1907,0,0,0,1.432-2.977c-.0929-.568-.2624-.6152.0478-.7029a.7894.7894,0,0,1,.6009.06,1.4031,1.4031,0,0,0,1.5812-.1674,1.5762,1.5762,0,0,0,.5076-.8413A.9751.9751,0,0,1,363.8824,258.9184Z" fill="#473e73"/><path d="M327.0645,263.5323a5.0389,5.0389,0,0,0-.3783,1.7616c.0542.6994,2.3785.7512,2.6487.3885a18.8636,18.8636,0,0,0,.4054-3.5748" fill="#feadae"/><path d="M329.9492,266.2994a14.2792,14.2792,0,0,1-.2117,1.917h-2.6786l-.1319-.4285a4.342,4.342,0,0,1-1.5507.4285h-2.2609c-1.655,0-2.5948-.202-2.6366-.4812-.1748-1.1665,1.8023-1.1135,2.317-1.1135,1.4783,0,3.0787-.6633,3.4275-1.3825.2532-.5219.1412-.654.4472-.5562a.7615.7615,0,0,1,.459.38,1.371,1.371,0,0,0,1.3968.73,1.6453,1.6453,0,0,0,.9053-.4184A.9354.9354,0,0,1,329.9492,266.2994Z" fill="#473e73"/><path d="M340.7146,214.894c-.0158.0977-2.1869-2.39-2.2105-2.2852-.8628,4.3528-4.879,18.91-6.2124,22.7288v.0075a4.0211,4.0211,0,0,1-2.0811,1.9039,4.0858,4.0858,0,0,1-5.342-3.9112c-.0313-.4134.0629-.8652.0157-1.3532-.559-5.778,4.9669-31.2524,5.1082-32.8763.1334-1.6238,3.3288-.452,4.223-.7527C338.6786,196.8747,341.8832,208.8046,340.7146,214.894Z" fill="#0088cc"/><path d="M332.5487,237.3994c-.9065-2.711.47-5.8873.47-5.8873s-7.7053-5.9245-8.0976-2.3085c-.0392.2856-.3255,2.7359-.3247,4.1179.0028,4.9447,1.7215,20.6046,1.596,30.1671v.624a19.13,19.13,0,0,0,3.5454.233c.1019,0,.2117,0,.3216-.0076.6439-5.9548,2.0371-14.0529,2.6979-22.1994A18.677,18.677,0,0,0,332.5487,237.3994Z" fill="#0088cc"/><path d="M352.21,236.18c-1.542-1.9159-3.1693-2.7736-3.651-4.2327-1.12-3.3929-.8165-17.1554-.9234-20.9759.3184-.7817,3.2873-8.5935-2.7378-14.3489a36.2454,36.2454,0,0,1-9.7549,2.6046,22.3676,22.3676,0,0,1-5.15-.1182s3.226,4.8662,3.4143,7.0236c.32,3.6647,7.1708,25.7968,7.6937,27.01a14.4621,14.4621,0,0,0,2.94,4.4156c3.0371,3.9519,10.1454,12.2632,15.5352,20.2232l.3644.5147a14.8572,14.8572,0,0,0,3.0983-1.7546C360.1346,251.2409,357.0966,242.2513,352.21,236.18Z" fill="#0088cc"/><path d="M325.7008,168.3663c1.0818-1.2411,5.7241-3.1592,10.3138-3.0143,3.1622.1,13.2137,1.1347,14.176,3.25.4919,1.0813.4443,11.3455-.2759,15.1638-.5415,2.8711-2.1773,10.2492-2.1773,11.9657s.922,2.4522.4918,2.9508c-.9637,1.1164-8.1667,1.6163-11.26,1.6163-2.7536,0-7.44-.7341-7.6782-1.6163-.3529-1.31.5373-1.2606.658-2.633s.7694-10.4256-.0369-11.7414a36.1964,36.1964,0,0,1-3.3219-9.581C326.4916,173.1534,324.619,169.6074,325.7008,168.3663Z" fill="#fbdb8a"/><path d="M350.1907,168.6022a1.1779,1.1779,0,0,0-.1755-.2621l-6.6294,6.4837c-1.5792,4.2056-4.7288,15.2718-4.7288,15.2718s-2.984,1.4-4.9864,2.4392c-.5075.2635-1.94,1.2277-3.6371,2.4044-.0355.505-.0665.9029-.0847,1.11a5.1081,5.1081,0,0,0,.0437,2.6731,26.23,26.23,0,0,1-.5591,3.4625c4.9811-1.273,15.2615-4.4956,15.6509-4.707.5838-.317,3.61-12.49,5.3628-19.8828C350.7172,173.093,350.5507,169.3937,350.1907,168.6022Z" fill="url(#linear-gradient)" style="mix-blend-mode:multiply"/><path d="M333.3146,161.4547a35.9471,35.9471,0,0,1-.1848,3.9734,6.0307,6.0307,0,0,1-.9085.5108s.5381,3.3191,1.37,3.0727,6.324-3.02,6.324-3.02-.779-.3168-.779-.6248.7393-6.3143.7393-6.3143" fill="#feadae"/><path d="M334.798,148.8983a2.3264,2.3264,0,0,0-2.37-.1577,3.4573,3.4573,0,0,0-1.617,1.8318,2.7233,2.7233,0,0,0-.0031,2.332,1.43,1.43,0,0,0-.8964,1.3621,3.4182,3.4182,0,0,0,.7058,1.7528,1.5953,1.5953,0,0,0,1.5827.6592,1.7935,1.7935,0,0,0,1.0082-.7056,4.6444,4.6444,0,0,0,.5682-1.1167,30.8426,30.8426,0,0,0,1.5364-5.6129" fill="#3d4177"/><path d="M337.1289,147.582c-.8.2183-2.91-.2182-3.4922.6548a19.8561,19.8561,0,0,0-1.31,3.5652c-.4345,1.1587-.7178,2.3971-1.0335,3.5915-.4114,1.5566-1.4687,4.4888.0542,5.791a3.0882,3.0882,0,0,0,1.5543.5155c.7208.1306,1.4384.2782,2.1594.4076a7.2446,7.2446,0,0,0,3.4649.074c1.4828-.4816,2.2958-2.52,2.6769-3.9045l2.1826-7.93Z" fill="#feadae"/><path d="M340.4041,159.0682a.6743.6743,0,0,0,1.09.644,2.3259,2.3259,0,0,0,1.25-1.9579c.0655-.9405-.5357-1.8039-1.3506-1.4669a1.2523,1.2523,0,0,0-.655,1.304" fill="#feadae"/><path d="M342.4086,154.7279c-.2583.7873-.9322,2.5771-1.6482,2.4034s.291-2.9759.9105-4.1009c-.9011-.0029-2.0119-.1417-2.3361-.9823-.0728-.1887-.1308-.4334-.3284-.4764-.1621-.0351-.3063.0959-.4455.1861a1.6565,1.6565,0,0,1-1.9981-.5506c-.1155-.1284-.25-.2778-.422-.2658a.586.586,0,0,0-.2824.1373c-1.0387.7372-3.7975.7006-3.7881-.5961-.9085.4619-1.4972-.663-1.4427-1.4327s.6305-2.055,1.8828-2.0229c-.0625-.946.68-1.5389,1.4324-2.1159a4.7077,4.7077,0,0,1,2.6594-.8773c1.4955-.0682,3.1973.5489,3.7077,1.9563a.4787.4787,0,0,0,.1669.27.4592.4592,0,0,0,.3494-.0034,3.6227,3.6227,0,0,1,3.3189.6588,2.5161,2.5161,0,0,1,.4953,3.1869,1.8789,1.8789,0,0,1,1.2093,2.139,4.643,4.643,0,0,1-1.3279,2.3073,1.7717,1.7717,0,0,1,.8476,2.4757,2.7868,2.7868,0,0,1-2.7039,1.2029,1.6331,1.6331,0,0,0-1.0339-2.0979" fill="#3d4177"/><path d="M332.5487,237.3994a6.39,6.39,0,0,1-.3058-1.955c.0157-.0328.0379-.07.0486-.0993v-.0075c.8968-2.5686,3.0064-9.9925,4.5549-15.9044l-2.4015-8.56s-1.4565,17.4224-1.934,18.6736-1.9633,5.2741-1.8188,6.1412,1.0838,2.4564.9393,3.8291c-.1442,1.3691-.1234,13.6811-.1232,13.7465.4752-3.5583.9413-7.3351,1.2488-11.1253A18.6731,18.6731,0,0,0,332.5487,237.3994Z" fill="#293882"/><path d="M320.7107,202.86a1.6625,1.6625,0,0,0-.4159-1.3971,3.0143,3.0143,0,0,0-1.216-.7558c-.12-.0444-.2812-.073-.3522.0333a.2487.2487,0,0,0,.0249.2565c.172.2914.5324.427.7171.71a3,3,0,0,1,.1659.3433,1.4985,1.4985,0,0,0,1.0762.8094" fill="#ffbe9d"/><path d="M328.901,182.0531a50.94,50.94,0,0,1-2.1561-6.3838c-.8726,4.4337-.5839,12.1967-1.32,12.8592s-8.0888,4.8525-8.0888,4.8525l0,0c3.4727-1.0906,7.7155-2.6546,8.9031-4.0907.6709-.8114,1.6724-3.81,2.6611-7.2372Z" fill="url(#linear-gradient-2)" style="mix-blend-mode:multiply"/><path d="M333.3112,161.7756a25.8316,25.8316,0,0,0,3.6577.5882c.5505-.089-1.1951.9468-1.5212.9852s-2.1365-.211-2.1365-.211Z" fill="#e5989b"/><path d="M323.9561,200.1381s-1.4247.445-2.1608.6579c-.48.139-2.7593-.1055-4.1.2013a3.032,3.032,0,0,0-1.7385.8915,1.2571,1.2571,0,0,0,.1019,1.7685c.156.1069.3671.1982.3857.3863a.7211.7211,0,0,1-.0663.2775.7376.7376,0,0,0,1.0723.8594,1.2461,1.2461,0,0,0,1.1548,1.1918.9922.9922,0,0,1,.3615-.8947,1.98,1.98,0,0,1,.9428-.1941,2.5371,2.5371,0,0,0,1.52-.7232c.2884-.2887.5021-.6425.7656-.9541a3.8514,3.8514,0,0,1,2.1153-1.2678" fill="#feadae"/><path d="M343.35,174.1163c-.6135,1.7549-3.8678,17.2086-3.8678,17.2086a29.5587,29.5587,0,0,0-5.1856,1.8387c-1.5522.8056-12.3711,7.525-12.3711,7.525l1.0768,2.5337s19.258-6.8253,20.1022-7.2836,8.5771-19.97,8.5767-23.4524a8.0331,8.0331,0,0,0-1.66-4.1508" fill="#f4cf7a"/><path d="M34.4486,153.0646c1.2615,2.179.1721,5.1571,1.4453,7.3294.51.8694,1.373,1.5525,1.6176,2.53a2.2064,2.2064,0,0,1-3.1733,2.4853,2.7178,2.7178,0,0,0-.49-.2434c-.63-.1842-1.1991.3748-1.7405.745a2.657,2.657,0,0,1-2.2915.4051,3.3993,3.3993,0,0,1-1.908-2.2909c-.9106-2.7344-.264-5.7279.5778-8.4842.4205-1.3773,1.0414-2.9051,2.3919-3.4052" fill="#3d4177"/><path d="M29.1942,162.7893s-.0539,2.504.3308,2.6676a9.8154,9.8154,0,0,0,1.6182.5005l.0255,5.1825L24.26,170.0981l-4.7533-2.6457s4.94-1.6375,4.9832-2.13-.2713-3.264-.2713-3.264" fill="#feadae"/><path d="M18.5793,237.776l-.004.0188c-1.89,8.9627-.99,21.2747-1.4108,28.0217.0988.0276,2.5684.3364,2.5684.3364s5.8455-28.4381,6.9068-33.8841a7.7344,7.7344,0,0,0,.1352-1.0547c.2544-4.0978-3.4387-4.3067-5.52-.9193a14.3624,14.3624,0,0,0-.9519,1.8289c-.1174.2678-.2266.538-.34.8271l-.002.0094a26.5477,26.5477,0,0,0-.9168,2.8608l-.0219.1041c-.0866.2865-.1566.5776-.2267.8687l-.014.0663C18.709,237.1607,18.6452,237.4636,18.5793,237.776Z" fill="#feadae"/><path d="M29.6473,205.6088c-.0691.7415-.4647,4.2709-.9392,8.4331-.4053,3.5-.85,7.4443-1.1962,10.5684-.257,2.3431-.4448,4.2115-.5239,5.0914a11.3952,11.3952,0,0,1-.2076,1.5127v.02c-.89,4.0929-3.7172,4.33-5.4374,3.3813a3.453,3.453,0,0,1-.6525-.4449,2.1917,2.1917,0,0,1-.7316-1.2062v-.01c-.1088-.8405-.2175-1.9872-.3164-3.3515v-.02c-.01-.01-.01-.01-.01-.02l-.01-.03c-.2076-2.6595-.3855-6.08-.5437-9.4119-.1879-4.093-.3065-8.0376-.3361-10.2621-.01-.1285-.01-.2472-.02-.3658-.03-6.8215,6.2382-11.1913,10.1335-9.0755a.8923.8923,0,0,1,.1384.0692,1.467,1.467,0,0,0,.1483.0889c.4449.2966.5932,1.3148.6031,2.4814C29.766,203.9083,29.7067,204.8376,29.6473,205.6088Z" fill="#feadae"/><path d="M20.1088,231.3483l-.4769-1.7866c-.002.0094-.002.0094.0042.0212a28.5136,28.5136,0,0,1-.5924,6.2383l-.0219.1041c-.0681.2816-.14.5821-.2267.8687l-.014.0663a4.7951,4.7951,0,0,0-.2017.9158l-.004.0188c-.0054.81,1.72-2.7869,2.1153-3.6285.0486-.1067.0791-.1684.0791-.1684l-.4673-1.874Z" fill="#feadae"/><path d="M33.6127,239.4875l0,.02c-.1791,9.3841,2.7192,20.4182,3.4854,27.2337.0934.0029,2.3672-.3031,2.3672-.3031s.4329-28.7491.4634-34.4295a8.7814,8.7814,0,0,0-.0572-1.0825c-.4665-4.1392-3.8236-3.43-5.1215.4564a16.84,16.84,0,0,0-.546,2.0554c-.06.2956-.1125.5914-.1654.907l0,.01a30.9167,30.9167,0,0,0-.3393,3.0733l-.0021.1089c-.0293.3064-.0429.6134-.0565.92l-.0012.0692C33.6249,238.8433,33.6189,239.16,33.6127,239.4875Z" fill="#feadae"/><path d="M35.5629,235.6607a2.4676,2.4676,0,0,1-.66-.2875,1.881,1.881,0,0,1-.8629-1.0165l.0008-.01c-.2459-.8082-.5395-1.937-.8655-3.2693-.0072-.0114-.0072-.0114-.0064-.0217l-.0137-.0333c-.6338-2.5887-1.3849-5.9475-2.0859-9.2156-.8608-4.0231-1.6415-7.92-2.0431-10.132-.0312-.1193-.3783-1.73-.4014-1.848-1.2027-6.8554,4.1441-11.3215,8.03-10.0149.0562.018.1041.0349.1521.0519.781.314.998,3.0618,1.1736,4.9186s1.4965,21.1056,1.8258,24.5859a13.9878,13.9878,0,0,1,.0685,1.56C39.7817,235.2309,37.2744,236.173,35.5629,235.6607Z" fill="#feadae"/><path d="M33.8979,232.7142l-.7321-1.6586c0,.01,0,.01.0074.02a31.9283,31.9283,0,0,1,.5255,6.3521l-.0021.1089c-.0135.297-.0273.6139-.0565.92l-.0012.0692a5.5286,5.5286,0,0,0-.0262.9611l0,.02c.1327.8072,1.0743-3.1991,1.287-4.1345.0257-.1183.0426-.187.0426-.187l-.7383-1.7481Z" fill="#feadae"/><path d="M21.9861,192.4408s-5.0322,6.3918-4.5155,12.8141c.2152,2.6733.5466,5.0288.8511,7.7186.0439.3875.6473,6.0353.477,6.0411,0,0,10.3676,3.2037,20.3835-.9938,0-.6843.801-13.83-4.61-26.3628A87.2568,87.2568,0,0,1,21.9861,192.4408Z" fill="#0088cc"/><path d="M37.7425,177.6835c-.04,1.8313-1.0138,2.9459-2.411,4.4893a54.5882,54.5882,0,0,0-.7589,7.07c-.077,1.4122.5262,2.2994,0,2.4156-2.0113,1.7543-9.2595,3.1753-12.5844.7806.3488-2.9518-.9733-9.4532-1.8654-12.7593-.1392-.509-.2613-.9385-.3725-1.27-.8306-2.5108-2.33-10.563-1.2205-10.9142.2211-.07.5651-.1606.9627-.2806,1.7378-.5244,4.3054-1.4239,4.3054-1.4239s1.5061,4.4552,5.4219,4.9931c2.1375-.88,1.9489-3.5836,1.9234-4.8263.699.1933,1.0071.3854,3.1736,1.0271.6073.8753.0834,2.7029,1.0643,5.427C35.6253,173.0891,37.7907,175.4538,37.7425,177.6835Z" fill="#fbdb8a"/><path d="M34.1941,152.5613s.3958,4.8409-.43,7.3777a6.0226,6.0226,0,0,1-5.2224,3.61c-5.78,0-6.8168-7.8512-6.7867-8.231s8.525-3.6756,8.525-3.6756Z" fill="#feadae"/><path d="M45.2,269.4577c-2.0572.37-4.256-.2084-5.1573-.0519-.7447.1269-2.6584.6125-3.3749-.0315s-.6006-2.9156.2226-3.2178a3.02,3.02,0,0,0,.5343.1286,5.6393,5.6393,0,0,0,2.4352-.1993,12.9707,12.9707,0,0,0,3.4032,1.2845,11.5891,11.5891,0,0,1,2.2674.6882C46.2983,268.41,46.36,269.25,45.2,269.4577Z" fill="#473e73"/><path d="M22.9906,270.3629c-2.0614-.3467-3.3665-1.4869-4.2678-1.6443-.7438-.1322-2.6188-.4972-2.8152-1.2657-.1461-.5717.42-2.947,1.2967-2.9533a3.0218,3.0218,0,0,0,.4594.3016,5.6414,5.6414,0,0,0,2.3594.6353,12.9686,12.9686,0,0,0,2.769,2.3586,11.5916,11.5916,0,0,1,1.9015,1.4139C25.2977,269.799,24.1524,270.56,22.9906,270.3629Z" fill="#473e73"/><path d="M18.7465,166.9273c-.1288-.0686-.2549-.1425-.3776-.2157a3.1841,3.1841,0,0,1-1.55-1.5637,5.18,5.18,0,0,1-.0322-3.8012,15.0788,15.0788,0,0,1,1.586-1.82,5.6116,5.6116,0,0,0,.9346-3.16,20.857,20.857,0,0,1,.2252-3.3345c.4-1.8653.9312-3.6413,2.3688-4.843,2.3021-1.9242,6.9175-3.065,9.4269-.9185.4565.39.5459.7034,1.1624.7632a4.5426,4.5426,0,0,1,2.1062.6153c.8236.476,1.822,1.1474,1.7063,2.228a3.8675,3.8675,0,0,1-1.57,2.285,1.906,1.906,0,0,1-.8874.199c-.9782.019-1.79-.6178-2.75-.5146a1.828,1.828,0,0,0-1.2046.6684c-.3462.427-.2995,1.0226-.7033,1.4218-.648.6405-1.6523.5866-2.42,1.0033a.8065.8065,0,0,0-.3307.2726.865.865,0,0,0-.084.4114l-.0446,1.2128c-.3807-.1676-.4205-.71-.7347-.9826a.8728.8728,0,0,0-1.1008.0711,1.8464,1.8464,0,0,0-.5306,1.0547,3.04,3.04,0,0,0,.2142,1.4487c.2512.824.9573,1.5659,1.5274,1.0214.4137.6083-.0385,1.6243-.0535,2.3127-.012.5458-.0021,1.6275.5085,1.9861.4691.3295,1.2125.0793,1.241.929a1.6334,1.6334,0,0,1-1.524,1.48,5.7066,5.7066,0,0,1-2.2809-.3979,3.577,3.577,0,0,0-2.2869-.1121,6.9346,6.9346,0,0,1-1.2842.5779A2.0071,2.0071,0,0,1,18.7465,166.9273Z" fill="#3d4177"/><path d="M29.8308,200.1816c-.2229.2064-.1357.7293-.8251.8909-1.5375.36-4.4123-.0628-5.31-2.6188-.1005-.0616-15.1843-5.87-15.8615-6.7086s.1176-10.9183,5.3-18.1888c1.2364-1.7346,3.2545-3.0771,5.27-2.2331a4.5441,4.5441,0,0,1-.17,3.5335c-1.3371,3.124-6.0829,13.0771-5.7119,14.1347,1.5089.4729,7.0159,4.2634,11.991,6.9168a3.5136,3.5136,0,0,0,2.5711.5095,16.7218,16.7218,0,0,1,3.97-.4338c.3957.0376,3.6044,1.3938,3.1845,1.7334a5.1462,5.1462,0,0,1-2.7715-.4319c-.6755-.2288-.36.4047-.6684.5032-.4333.0927.5978,1.098.0772,1.7752C30.8035,199.6642,29.9469,200.0736,29.8308,200.1816Z" fill="#feadae"/><path d="M20.1723,166.834s-2.36.03-3.3745.8653-5.8616,8.5189-5.8616,8.5189a3.4136,3.4136,0,0,0,1.2746,2.6687,7.0712,7.0712,0,0,0,3.4911,1.5111s2.4336-2.4217,3.8049-3.5233c.8545-.6865.9391,1.0129.9391,1.0129l4.29-4.1883Z" fill="#fbdb8a"/><path id="path5043-3-9-23-3-0-3-6-2" data-name="path5043-3-9-23-3-0-3-6" d="M45.0009,189.2412s.3022,9.5214,3.8762,11.26c3.1274,1.5207,6.7485-4.9205,9.8759-3.4s4.9194,6.7287,3.3916,9.852-8.3473.2763-9.8759,3.4c-1.7466,3.57,3.8762,11.26,3.8762,11.26s-7.7124,5.6235-11.2855,3.8851c-3.1273-1.5207-.265-8.331-3.3917-9.8522s-8.3473.2763-9.8759,3.4,4.92,6.7287,3.3917,9.8522c-1.7459,3.5694-11.2863,3.8854-11.2863,3.8854s-.3022-9.5214-3.8762-11.26c-3.1266-1.521-6.7477,4.92-9.8751,3.4s-4.9193-6.7287-3.3916-9.852,8.3474-.2763,9.8751-3.4c1.7467-3.57-3.8762-11.26-3.8762-11.26l32.4477-11.17Z" fill="#e2e2e2"/><path d="M28.3427,198.7636c.2717.1358.3344.6622,1.0415.6244,1.5769-.0843,4.2184-1.2952,4.3652-4,.0793-.0873,12.9348-9.8847,13.35-10.88s-3.1686-10.4491-10.1785-15.9787c-1.6725-1.3193-3.9857-2.0433-5.6843-.669a4.5441,4.5441,0,0,0,1.1525,3.3446c2.1579,2.6249,9.5,10.8521,9.4394,11.9713-1.3163.8763-5.5424,6.0566-9.576,9.9963a3.5136,3.5136,0,0,1-2.3258,1.2087,16.7218,16.7218,0,0,0-3.9324.6945c-.3694.1469-3.07,2.3468-2.5721,2.5554a5.1462,5.1462,0,0,0,2.54-1.19,2.8177,2.8177,0,0,1,1.6686-.3863c.442-.0322-1.1527,1.9038-.4634,2.4082C27.2641,198.5391,28.2011,198.6924,28.3427,198.7636Z" fill="#feadae"/><path d="M32.96,166.7837a6.3028,6.3028,0,0,1,4.96,1.8339,13.0426,13.0426,0,0,1,.9359,1.0748c1.281,1.584,2.7757,2.9123,4.0566,4.4963a11.1684,11.1684,0,0,1-2.6614,2.5032,7.0171,7.0171,0,0,1-2.7981,1.3136,1.5534,1.5534,0,0,1-.5261.0469,1.7027,1.7027,0,0,1-.65-.2781q-.6216-.38-1.2251-.7876a3.0793,3.0793,0,0,1-.9185-.8332,3.2469,3.2469,0,0,1-.3615-1.635" fill="#fbdb8a"/><polygon points="31.466 166.706 30.382 172.126 33.634 173.21 34.718 171.042 33.939 167.244 32.55 166.706 31.466 166.706" fill="#fbdb8a"/></g></g></svg>