<svg id="Layer_1" data-name="Layer 1" xmlns="http://www.w3.org/2000/svg" width="170" height="120" viewBox="0 0 170 120"><title>architecture</title><path d="M168.62,71.8049c-2.9415-7.5028-7.5733-9.7861-11.9787-14.5985-5.3807-5.8778-9.01-10.15-7.6129-17.71C151.3108,27.1425,152.2881-3.667,116.5419.36,103.73,1.8037,93.605,10.7867,86.2394,19.7534c-6.2674,7.63-17.5414,8.3028-26.6159,10.0816A142.4933,142.4933,0,0,0,26.8007,40.1594C5.5554,50.1219-.79,64.4438.0765,82.7682c.2618,5.5361,1.1182,14.2565,11.34,24.46,13.7965,13.7726,33.8444,15.6168,57.9741,9.2919,5.5233-1.4478,10.7441-3.7186,16.1773-5.4281a82.4823,82.4823,0,0,1,17.4591-3.4684c13.8588-1.226,28.2247.9912,41.5191-2.7944a44.6062,44.6062,0,0,0,18.57-10.5368C169.4656,88.2079,171.7242,79.7239,168.62,71.8049Z" fill="#f1f3f7"/><path d="M62.9227,48.827c.0311.2108-1.7916.4229-1.8241.6363-.0444.2913,1.6047,1.1467,1.4619,1.4175-.0877.1661-1.9-.2746-1.9356-.0966s1.0685-.3314,1.2723-.3043c.1407.0188.485,1.6873.6182,1.6357.6143-.2379.5119-1.6212,1.0067-2.0205.1482-.12,1.52.9967,1.6359.8532.4016-.4977-.4606-1.8883-.1429-2.4269.2616-.4435,1.9566-.645,1.8775-1.1246s-2.0265-.5852-2.138-1.0586c-.0746-.3172,1.5487-1.2926,1.3878-1.5817-.2221-.3991-1.9357.5032-2.3369.23-.4537-.3089-.1987-2.2521-.7611-2.3889-.5887-.1433-1.4064,1.7062-2.0265,1.7286-.5113.0185-1.2135-1.7891-1.7189-1.7015-1.2954.2247-1.61,2.64-2.5665,3.4511-.31.263-1.97-.6469-2.18-.32-.2161.3362,1.3508,1.2846,1.3183,1.6612-.0645.7476-1.67,1.6176-1.4957,2.3419.0937.3888,1.7776.0084,2.037.3305.1582.1963-1.083,1.4325-.9429,1.6393.0787.1163,1.5277-.8966,1.6286-.7943.15.1522-.102,1.7554.1333,1.7177.28-.0449-.4125-1.5819-.2843-1.8038s1.8519-.0034,1.8562-.2466c.0095-.5386-1.8742-1.4147-1.6836-1.9354.0394-.1075,1.5374.78,1.6305.699.1014-.088-.652-1.6751-.52-1.721.3628-.126,1.32,1.458,1.6824,1.332.5349-.1857,1.0092-2.0087,1.54-1.8231A3.575,3.575,0,0,1,62.9227,48.827Z" fill="#3d4177"/><polygon points="114.023 83.47 118.917 113.343 119.876 113.343 116.024 83.47 114.023 83.47" fill="#524e64"/><polygon points="109.493 83.469 104.583 113.341 103.623 113.341 107.492 83.469 109.493 83.469" fill="#524e64"/><rect x="105.6539" y="82.2755" width="12.3764" height="1.729" transform="translate(0.2545 -0.3412) rotate(0.175)" fill="#524e64"/><rect x="104.5179" y="108.9371" width="14.5801" height="0.9176" transform="translate(0.3349 -0.3412) rotate(0.1751)" fill="#524e64"/><rect x="107.4819" y="89.2872" width="8.7714" height="1.185" transform="matrix(1, 0.0031, -0.0031, 1, 0.2752, -0.3415)" fill="#524e64"/><path d="M106.8314,55.1608c-1.09.9208-1.8123,2.0761-2.1011,4.6755s-.2888,7.2207-.7221,8.376c0,0,1.7881,2.0218,2.2214,1.8774s1.4612-7.3651,1.8944-9.6035S106.8314,55.1608,106.8314,55.1608Z" fill="#feadae"/><path d="M107.9714,106.1025c-.6517.6215-2.1286,1.7429-1.86,2.4059s2.9686.4427,4.7062-.9273A27.082,27.082,0,0,1,113.6,105.52c.6862-.4247,1.2749-1.6945-.6225-2.68a10.96,10.96,0,0,1-2.7078,2.2A14.5559,14.5559,0,0,1,107.9714,106.1025Z" fill="#4e477f"/><path d="M109.65,101.9661c.1328-.07.5411,1.4647.5411,1.4647s-1.8454,2.2-2.2192,2.6718,1.7674.7484,3.0126-.1736c.6284-.4653,2.2849-1.72,2.3781-2.3446s-1.1773-2.2685-1.5583-3.5351Z" fill="#feadae"/><path d="M106.2049,74.4s-2.7561,4.9932-4.1564,7.843a14.1566,14.1566,0,0,0-1.7147,4.8536c-.0468,1.4181,2.2219,4.6346,3.9664,7.996,1.0944,2.1089,4.9268,7.98,4.9268,7.98a9.5857,9.5857,0,0,0,2.9133-2.0708s-5.0526-11.5993-5.49-13.4411a33.7905,33.7905,0,0,1,3.8584-5.92c2.1558-2.5126,4.5159-4.3369,3.7051-6.4364,0,0-4.6674-3.1072-5.9229-2.9215S106.2049,74.4,106.2049,74.4Z" fill="#293882"/><path d="M103.8436,108.7782c-.7493.5-3.2351,1.3488-3.0852,2.0482s3.6847,1.1584,5.6329.1094a16.2284,16.2284,0,0,1,3.0972-1.3393c.7493-.3,1.5486-1.8673-.15-3.1661a10.96,10.96,0,0,1-3.0473,1.6984A14.5531,14.5531,0,0,1,103.8436,108.7782Z" fill="#473e73"/><path d="M106.691,104.9817c.15,0-.2,1.5486-.2,1.5486s-2.198,1.8483-2.6476,2.248,1.6114,1.0426,2.9973.35c.6994-.35,2.5477-1.2988,2.7475-1.8983s-.35-1.6485-.1-2.9473Z" fill="#feadae"/><path d="M106.0376,81.5831c-1.0013,2.17-2.4491,4.9751-2.7908,6-.4487,1.3461,3.1221,18.2551,3.1221,18.2551s2.6922.1508,3.769-.6569c0,0-1.3-14.6916-1.1947-16.5817a44.64,44.64,0,0,1,5.4669-5.111c.5825-.4591,2.9371-.8618,3.76-1.7443,1.4419-1.5458,1.0052-4.7469.9143-5.8827,0,0-5.0928-2.8906-6.3491-3.07S107.836,77.6866,106.0376,81.5831Z" fill="#0088cc"/><path d="M111.8584,45.769l-.7735-2.9421a3.2011,3.2011,0,0,0-2.6421.4369,8.8063,8.8063,0,0,0-2.758,2.7741,4.22,4.22,0,0,0,.6982,4.034,17.24,17.24,0,0,1,1.849,3.1823,19.2169,19.2169,0,0,1,.0437,3.3689,4.19,4.19,0,0,0,3.6826-.65c1.5811-1.3253,1.4114-6.1393,1.4114-6.1393Z" fill="#3d4177"/><path d="M107.4019,46.0254a15.72,15.72,0,0,1,2.321-2.5677c2.5722-2.1063,6.0012.7266,6.5435,2.7316,1.2435,4.5971.2106,8.4334.361,9.0981s-3.6943,1.769-3.6943,1.769.1819-5.4987-.9572-7.4444S107.4019,46.0254,107.4019,46.0254Z" fill="#3d4177"/><path d="M107.7424,45.8677c1.261.2193,2.9675,2.0692,3.95,2.4918s.9448-.4557,1.67-.4586.7494.9338.3052,1.7045a6.1251,6.1251,0,0,1-.5165.7861c-.5493.7566-.2047,1.6076-1.8841,2.4983-.903.4789-2.2688-.0507-3.1354-1.3863s-1.4452-5.316-1.4452-5.316S106.7354,45.6926,107.7424,45.8677Z" fill="#feadae"/><path d="M110.5178,52.4386a8.092,8.092,0,0,1-.1956,2.2989s3.1358-.4429,4.0651-.6385a16.4556,16.4556,0,0,1-1.4755-3.5758Z" fill="#feadae"/><path d="M112.1319,54.0527l1.1739-.6848s1.4184.44,2.6413.6848,1.5629.331,1.5629.331-1.3184,5.196-5.0357,5.2449-4.451-4.7934-4.451-4.7934l2.3967-.88Z" fill="#feadae"/><path d="M107.4572,63.3023a6.9322,6.9322,0,0,1,.8665,5.9932c-.407,2.2384-1.5533,3.3919-2.3332,4.8515,2.3354.4025,3.3507,2.8318,5.4894,2.5173,3.5583-.5233,5.9956.1742,8.0932.0349-.4661-4.8645-.3028-6.8077-.7673-10.2911a76.6861,76.6861,0,0,0-1.5285-7.6043,12.2255,12.2255,0,0,1-.0775-2.1712,5.8063,5.8063,0,0,1,.8142-2.1712l-2.8824-.5816s-2.0549,2.0549-3.6833,1.6672a2.6543,2.6543,0,0,1-2-1.4573,6.3069,6.3069,0,0,0-2.6168,1.0712c-.3442.616.4509,3.6477.4509,3.6477C107.05,59.8166,106.3741,61.4249,107.4572,63.3023Z" fill="#fbdb8a"/><path d="M111.6091,73.7723s-1.1192.1083-1.733.2166a9.9713,9.9713,0,0,0-2.0579.8665,5.6169,5.6169,0,0,0-.4332.3971s1.6608-.1444,1.9857-.1444,3.4228.2386,3.4228.2386l1.1623-2.0076Z" fill="#feadae"/><path d="M118.014,54.4613a2.9423,2.9423,0,0,1,2.0968,1.6422c.7377,1.4755.7217,12.3674.7217,12.3674s.0958.6893-1.9982,2.7111a33.6919,33.6919,0,0,1-6.0408,4.1647l-1.5314-1.0921a32.3423,32.3423,0,0,0,4.0006-3.8992c1.2432-1.8679,2.3889-3.6456,2.3889-3.6456s-.2568-6.8044-.3743-7.9061S116.6549,55.893,118.014,54.4613Z" fill="#feadae"/><path d="M83.8456,73.339l-2.9327-.973-2.5963.6573c-1.4617-.38-1.9481-.3588-4.941-1.1284a40.8306,40.8306,0,0,1-5.4293-1.9458l-2.1511-3.6063a18.0107,18.0107,0,0,0-4.3155,1.645s3.9992,5.441,5.138,5.8206,11.7433.98,11.7433.98l3.5617-1.0433,1.4784.3462,1.8045,1.218.3151-.2607-.7179-.7863Z" fill="#feadae"/><polygon points="84.803 74.262 84.062 73.917 81.066 73.231 80.668 73.628 82.193 73.808 83.401 74.091 85.206 75.309 85.521 75.048 84.803 74.262" fill="#feadae"/><path d="M63.3872,60.0244s-3.729.6242-3.6657,3.9774c.0412,2.184,3.0369,6.2635,3.0369,6.2635a8.8019,8.8019,0,0,1,3.67-2.91s-1.315-3.8572-1.7171-5.0637A5.6947,5.6947,0,0,0,63.3872,60.0244Z" fill="#f4cf7a"/><path d="M77.7905,74.6828s1.6787.286,2.0723.3057,2.22-.1431,2.22-.1431l.6317.0638a.731.731,0,0,0,.7442-.4367l.0363-.0838-.8227-.49L81.1559,73.52l.2579-.9874-1.8821.7692-1.8688.681Z" fill="#feadae"/><path d="M63.3613,113.2155H47.7974l.3016-.6695c1.3255-2.9426,6.3416-1.798,7.48-4.8348h0c.949,3.0369,6.1549,1.8922,7.48,4.8348Z" fill="#5e5b72"/><rect x="52.859" y="89.0019" width="5.2418" height="3.0935" fill="#524e64"/><path d="M72.5279,105.537l1.3027,1.3277a8.4694,8.4694,0,0,0,.2032,1.175c.1167.3643,3.6808,1.17,3.6808,1.17l-6.9492,2.1139s-.2453-3.6418-.5193-4.8642Z" fill="#feadae"/><rect x="54.4405" y="90.3777" width="2.0879" height="19.5498" fill="#524e64"/><path d="M57.3874,74.306q.57-7.5376.8041-15.0946c-5.0285-1.1752-13.0186-.1512-13.8577,2.506-1.0128,3.2072,2.8471,12.3373,2.8471,15.7537s-1.3286,5.8839-1.5184,7.4024a3.7752,3.7752,0,0,0,.7592,2.6572h9.8022C56.5216,83.1168,57.0547,78.71,57.3874,74.306Z" fill="#524e64"/><path d="M59.4035,74.4354q.57-7.5376.8041-15.0946c-5.0285-1.1752-13.0186-.1512-13.8577,2.506C45.337,65.054,49.1969,74.184,49.1969,77.6005s-1.3286,5.8839-1.5184,7.4024a3.7752,3.7752,0,0,0,.7592,2.6572H58.24C58.5376,83.2462,59.0707,78.8393,59.4035,74.4354Z" fill="#6b697f"/><path d="M68.1811,87.2569H46.1638a4.8813,4.8813,0,0,0,.4267,2.016H68.1811Z" fill="#524e64"/><path d="M61.1555,79.2426s10.5025,6.4533,11.3882,7.7187,1.2869,19.9034,1.2869,19.9034c.38.7639-1.9738,1.1879-4.3212.2465,0,0-1.6476-13.5068-2.09-14.5507-1.0838-2.5548-10.3127-5.5992-13.223-8.383a9.6287,9.6287,0,0,1-3.1634-5.4411Z" fill="#293882"/><path d="M67.9633,95.4767c.0164-.127.0311-.2545.0478-.3814.4619-3.509,1.06-7.002,1.45-10.5184-3.389-2.3133-8.3052-5.3343-8.3052-5.3343l-10.1229-.5061a9.6285,9.6285,0,0,0,3.1634,5.4411c2.91,2.7838,12.1392,5.8282,13.223,8.383A22.8514,22.8514,0,0,1,67.9633,95.4767Z" fill="#293882"/><polygon points="53.753 103.284 52.14 104.898 49.862 102.051 55.651 95.787 53.753 103.284" fill="#feadae"/><path d="M50.583,101.2374l-2.8925.8158,3.1264,10.6543a4.2015,4.2015,0,0,0,2.0262-2.8693,23.8075,23.8075,0,0,0,.0084-4.9147Z" fill="#473e73"/><path d="M49.1141,76.4439s-3.5877,7.48-.361,10.5173c1.4772,1.39,10.3146.1265,10.8207,1.5184L51.57,100.0577a9.228,9.228,0,0,0,3.2267,3.6063S63.47,93.0857,65.521,91.1369c2.5307-2.4042,2.6572-2.9736,1.5184-5.5043s-8.7942-3.9859-9.1738-5.3778a30.8119,30.8119,0,0,1-.6327-3.67Z" fill="#0088cc"/><path d="M55.9737,57.9608c.4249-1.0265,1.6666-2.2149,1.97-3.2835a.86.86,0,0,0,.0436-.4461q1.0262.87,1.9815,1.819c.2177.2164,1.5354.0939,1.3761.3874-.0863.1589-1.2647,2.89-1.38,3.0369A6.4858,6.4858,0,0,1,55.9737,57.9608Z" fill="#ffba83"/><path d="M55.9737,57.9608c.4249-1.0265,1.6666-2.2149,1.97-3.2835a.86.86,0,0,0,.0436-.4461q1.0262.87,1.9815,1.819c.2177.2164,1.5354.0939,1.3761.3874-.0863.1589-1.2647,2.89-1.38,3.0369A6.4858,6.4858,0,0,1,55.9737,57.9608Z" fill="#feadae"/><path d="M64.3335,56.1535a2.7766,2.7766,0,0,1-1.489,2.1083,2.9428,2.9428,0,0,1-2.3256-.582,6.4841,6.4841,0,0,1-2.2148-1.8536,6.95,6.95,0,0,1-.6573-4.291,2.6786,2.6786,0,0,1,.392-1.4884,2.3341,2.3341,0,0,1,.8879-.6372A9.284,9.284,0,0,1,61.42,48.63c1.44-.2346,3.0407.0874,3.3285,1.6684A14.0453,14.0453,0,0,1,64.3335,56.1535Z" fill="#feadae"/><path d="M57.4227,57.1621a14.4194,14.4194,0,0,1-2.2144.8225c-1.0123.2531-1.0123,0-1.0123,0s-.6327,4.7451,1.2653,5.7574a22.6838,22.6838,0,0,0,4.8084,1.645l2.594-1.4552-.8857-4.9349a18.6483,18.6483,0,0,0-1.8348-1.2653A10.82,10.82,0,0,0,57.4227,57.1621Z" fill="#feadae"/><path d="M55.2083,57.9846a5.7294,5.7294,0,0,0,2.6572,2.2144c1.898.8225,3.6063-1.645,3.6063-1.645l1.9153,1.47s.1725,6.727-.65,10.3966-1.5817,8.8216-1.5817,8.8216A3.1382,3.1382,0,0,1,59.223,80.56c-1.3264.09-3.1532-.9489-6.0393-.4314a16.0144,16.0144,0,0,1-5.586.07S50.061,68.1615,50.63,65.7573s2.0471-7.33,2.0471-7.33A20.333,20.333,0,0,1,55.2083,57.9846Z" fill="#fbdb8a"/><path d="M70.2381,74.5407s1.6787.286,2.0723.3057,2.22-.1431,2.22-.1431l.6317.0638a.731.731,0,0,0,.7442-.4367l.0363-.0838-.6634-.3242-.5966-.2215-.4234-.8032-2.28.2615-1.8688.681Z" fill="#e5989b"/><path d="M76.2932,73.1969l-2.9327-.973-2.5963.6573c-1.4617-.38-4.3894-1.1828-7.2985-2.2257-4.1634-1.4926-6.4227-2.295-6.4227-2.295l-2.1511-3.6063a18.0111,18.0111,0,0,0-4.3155,1.645s3.9992,5.441,5.138,5.8206,15.0942,2.4263,15.0942,2.4263L74.37,73.6029l1.4784.3462,1.8044,1.218.3151-.2607L77.25,74.12Z" fill="#f9a5a9"/><path d="M52.6776,58.4274s-3.9226.6327-3.8593,3.9859c.0412,2.184,3.0369,6.2635,3.0369,6.2635a8.8017,8.8017,0,0,1,3.67-2.91,20.5914,20.5914,0,0,1-1.7083-4.3655A9.3369,9.3369,0,0,0,52.6776,58.4274Z" fill="#f4cf7a"/><path d="M70.55,110.4264l.7515,2.91,10.7209-2.89a4.2015,4.2015,0,0,0-2.8238-2.0893,23.8074,23.8074,0,0,0-4.9133-.1173Z" fill="#473e73"/><path d="M77.6532,74.95H89.5023a0,0,0,0,1,0,0v0a.9555.9555,0,0,1-.9555.9555H77.6532a0,0,0,0,1,0,0V74.95A0,0,0,0,1,77.6532,74.95Z" fill="#293882"/><path d="M68.8753,74.95H80.7243a0,0,0,0,1,0,0v0a.9555.9555,0,0,1-.9555.9555H68.8753a0,0,0,0,1,0,0V74.95A0,0,0,0,1,68.8753,74.95Z" fill="#293882"/><rect x="69.9812" y="75.2542" width="3.9497" height="0.2962" fill="#fff"/><rect x="74.5233" y="75.2542" width="0.5842" height="0.2962" fill="#fff"/><path d="M85.2227,64.062a.7826.7826,0,0,0-.7356.516L80.7243,74.9634l.2323.0968-.0613.1813,8.6069-.291,3.6634-9.8349a.7826.7826,0,0,0-.7336-1.0558Z" fill="#0088cc"/><path d="M88.1671,70.2105c-.2553.98-.7557,1.7613-1.1178,1.7452s-.4487-.8233-.1934-1.8032.7557-1.7613,1.1178-1.7452S88.4224,69.2306,88.1671,70.2105Z" fill="#fff"/><rect x="111.1216" y="75.4708" width="0.5842" height="0.2962" transform="translate(222.8274 151.2378) rotate(180)" fill="#fff"/><polygon points="69.976 77.278 62.586 113.062 61.962 113.057 67.786 77.268 69.976 77.278" fill="#e2e2e2"/><polygon points="80.286 77.278 87.676 113.062 88.3 113.057 82.477 77.268 80.286 77.278" fill="#e2e2e2"/><polygon points="112.355 77.278 104.965 113.062 104.341 113.057 110.164 77.268 112.355 77.278" fill="#e2e2e2"/><polygon points="122.665 77.278 130.055 113.062 130.679 113.057 124.856 77.268 122.665 77.278" fill="#e2e2e2"/><rect x="64.5411" y="77.0143" width="64.1671" height="1.2263" fill="#cdd1d3"/><rect x="63.08" y="75.9887" width="67.0892" height="1.641" fill="#e2e2e2"/><g id="_Group_" data-name="&lt;Group&gt;"><path id="_Path_" data-name="&lt;Path&gt;" d="M97.3688,75.3818l0,0a.036.036,0,0,0,.047-.02l.0719-.1761a.0363.0363,0,0,0-.02-.0471.0358.0358,0,0,0-.047.02l-.0716.176A.0369.0369,0,0,0,97.3688,75.3818Z" fill="#0088cc" fill-rule="evenodd"/><ellipse id="_Path_2" data-name="&lt;Path&gt;" cx="99.6036" cy="69.8625" rx="0.1726" ry="0.103" transform="translate(-2.6325 135.8126) rotate(-67.8711)" fill="#0088cc"/><path id="_Path_3" data-name="&lt;Path&gt;" d="M97.3559,75.1966c.0053-.0887.0248-.3968.0309-.423a1.3343,1.3343,0,0,1,.0471-.1757c.0321-.0948.0668-.102.2847-.6692S99.2,70.3349,99.277,70.1458s.0692-.2278.1323-.2781.0732-.0444.1081-.0323c.0145.0051.0511.0179.0922.0332.04.018.0752.0342.0894.0407.0337.0158.0453.0182.0549.0983s-.0225.1031-.0994.2916-1.2829,3.2394-1.5223,3.7977-.22.5876-.2627.6779a1.3921,1.3921,0,0,1-.0888.1585c-.0139.0232-.2149.2576-.2731.3247Z" fill="#0088cc" fill-rule="evenodd"/><path id="_Path_4" data-name="&lt;Path&gt;" d="M97.822,74.1424l.0872.0354a.0512.0512,0,0,0,.0663-.0283L98.48,72.908a.051.051,0,0,0-.0282-.0663l-.0869-.0353a.0511.0511,0,0,0-.0667.0278l-.5045,1.2418A.0513.0513,0,0,0,97.822,74.1424Z" fill="#0088cc" fill-rule="evenodd"/><path id="_Path_5" data-name="&lt;Path&gt;" d="M97.9755,74.15a.0512.0512,0,0,1-.0663.0283l-.0437-.0177.5433-1.336.0432.0176a.051.051,0,0,1,.0282.0663Z" fill="#0088cc" fill-rule="evenodd"/><path id="_Path_6" data-name="&lt;Path&gt;" d="M97.9092,74.1779a.0512.0512,0,0,0,.0663-.0283L98.48,72.908a.051.051,0,0,0-.0282-.0663l-.0432-.0176L99.61,69.8686c.04.018.0752.0342.0894.0407.0337.0158.0453.0182.0549.0983s-.0225.1031-.0994.2916-1.2829,3.2394-1.5223,3.7977-.22.5876-.2627.6779a1.3921,1.3921,0,0,1-.0888.1585c-.0139.0232-.2149.2576-.2731.3247l-.0422-.017-.0337-.0137.0361-.0888.3978-.9784Z" fill="#0088cc" fill-rule="evenodd"/><path id="_Path_7" data-name="&lt;Path&gt;" d="M97.4316,75.2273l.0337.0137-.0492.1207a.0365.0365,0,0,1-.0473.02Z" fill="#0088cc" fill-rule="evenodd"/></g><path d="M59.0751,52.2926a.6607.6607,0,0,0-.3888-.6088.5211.5211,0,0,0-.6509.242c-.1268.2824.055.5963.1525.89a3.4411,3.4411,0,0,1-.6846,2.8723,6.49,6.49,0,0,0-1.2352-2.0071c-.3761-.4371-.8487-.8834-.849-1.46,0-.3127.1453-.6118.1459-.9245.0007-.4334-.276-.836-.2523-1.2688a1.7416,1.7416,0,0,1,.7642-1.1475,10.9278,10.9278,0,0,1,2.8352-1.6795,1.3275,1.3275,0,0,0,.7575-.5278,2.426,2.426,0,0,1,.1866-.4395.8357.8357,0,0,1,.7688-.1777,6.5524,6.5524,0,0,1,2.4633.5978,2.1658,2.1658,0,0,0,.5865.2705c.4134.0833.8346-.16,1.2527-.1054a1.1917,1.1917,0,0,1,.9212.9569,2.9969,2.9969,0,0,1-.1111,1.3966l-.9216.202a1.2789,1.2789,0,0,1-.22,1.3013,3.0653,3.0653,0,0,1-1.5983-.5912,1.9772,1.9772,0,0,0-1.025-.56,2.0842,2.0842,0,0,0-1.0708.5067c-.34.2135-.8563.3136-1.0917-.012A5.3,5.3,0,0,0,59.0751,52.2926Z" fill="#3d4177"/><path d="M64.41,51.6323a1.1373,1.1373,0,0,0-.8059.3491.7863.7863,0,0,0-.51-.2256.8894.8894,0,0,0-.6034.21,1.1342,1.1342,0,0,0-.791-.3333,1.46,1.46,0,1,0,1.2394,1.4434,1.5851,1.5851,0,0,0-.288-.9235.6257.6257,0,0,1,.43-.15.5476.5476,0,0,1,.3649.1691,1.5884,1.5884,0,0,0-.2747.9041A1.2538,1.2538,0,1,0,64.41,51.6323Zm-2.7107,2.64a1.2173,1.2173,0,1,1,.9922-1.1964A1.11,1.11,0,0,1,61.6993,54.2721Zm2.7107,0a1.2173,1.2173,0,1,1,.9923-1.1964A1.11,1.11,0,0,1,64.41,54.2721Z" fill="#3d4177"/><rect id="_Path_8" data-name="&lt;Path&gt;" x="88.3758" y="83.5383" width="2.1669" height="28.7603" fill="#cfd0d2"/><rect id="_Path_9" data-name="&lt;Path&gt;" x="89.4593" y="83.5383" width="1.0835" height="28.7603" fill="#babcbe"/><g id="_Group_2" data-name="&lt;Group&gt;"><rect id="_Path_10" data-name="&lt;Path&gt;" x="80.8836" y="97.2199" width="21.9048" height="2.167" transform="translate(-15.7515 179.0643) rotate(-83.8419)" fill="#cfd0d2"/><rect id="_Path_11" data-name="&lt;Path&gt;" x="81.4222" y="97.8198" width="21.9048" height="1.0835" transform="translate(-15.3287 179.6514) rotate(-83.8418)" fill="#babcbe"/></g><g id="_Group_3" data-name="&lt;Group&gt;"><rect id="_Path_12" data-name="&lt;Path&gt;" x="91.0203" y="87.3293" width="2.167" height="21.9048" transform="translate(-12.9494 13.9833) rotate(-8.1138)" fill="#cfd0d2"/><rect id="_Path_13" data-name="&lt;Path&gt;" x="92.0983" y="87.2528" width="1.0835" height="21.9048" transform="translate(-12.9346 14.0598) rotate(-8.1147)" fill="#babcbe"/></g><path id="_Compound_Path_" data-name="&lt;Compound Path&gt;" d="M88.02,95.5843h7.6494v17.578H88.02V95.5843Zm1.5947,4.293H89.198v8.503h.4167v-8.503Zm1.6256,0h-.4168v8.503H91.24v-8.503Zm1.6256,0h-.4168v8.503h.4168v-8.503Zm1.6256,0h-.4168v8.503h.4168Z" fill="#5e5b72" fill-rule="evenodd"/><rect id="_Path_14" data-name="&lt;Path&gt;" x="88.02" y="112.2986" width="7.6494" height="0.9074" fill="#59574b"/><rect id="_Path_15" data-name="&lt;Path&gt;" x="85.604" y="83.5383" width="2.1669" height="28.7603" fill="#cfd0d2"/><rect id="_Path_16" data-name="&lt;Path&gt;" x="85.604" y="83.5383" width="1.0835" height="28.7603" fill="#babcbe"/><g id="_Group_4" data-name="&lt;Group&gt;"><rect id="_Path_17" data-name="&lt;Path&gt;" x="83.2272" y="87.351" width="2.167" height="21.9048" transform="translate(-10.0587 9.6114) rotate(-6.1581)" fill="#cfd0d2"/><rect id="_Path_18" data-name="&lt;Path&gt;" x="83.2304" y="87.4091" width="1.0835" height="21.9048" transform="translate(-10.0683 9.5542) rotate(-6.1582)" fill="#babcbe"/></g><g id="_Group_5" data-name="&lt;Group&gt;"><rect id="_Path_19" data-name="&lt;Path&gt;" x="73.0905" y="97.1982" width="21.9048" height="2.167" transform="translate(-25.1167 167.612) rotate(-81.8862)" fill="#cfd0d2"/><rect id="_Path_20" data-name="&lt;Path&gt;" x="72.5542" y="97.6635" width="21.9048" height="1.0835" transform="translate(-25.5027 167.0137) rotate(-81.8853)" fill="#babcbe"/></g><path id="_Compound_Path_2" data-name="&lt;Compound Path&gt;" d="M88.1267,95.5843v17.578H80.4773V95.5843Zm-1.5947,4.293v8.503h.4167v-8.503Zm-1.6256,0v8.503h.4168v-8.503Zm-1.6256,0v8.503h.4168v-8.503Zm-1.6256,8.503h.4168v-8.503h-.4168Z" fill="#5e5b72" fill-rule="evenodd"/><rect id="_Path_21" data-name="&lt;Path&gt;" x="80.4773" y="112.2986" width="7.6494" height="0.9074" fill="#59574b"/><rect x="91.2947" y="75.1484" width="24.7401" height="0.7543" fill="#babcbe"/><path d="M100.1442,73.4706s-1.1192.1083-1.733.2166a9.9714,9.9714,0,0,0-2.0579.8665,5.6518,5.6518,0,0,0,1.5524.2527c.3249,0,3.4228.2386,3.4228.2386l2.2183-4.4213Z" fill="#feadae"/><path d="M106.5309,68.9634c-.2707-.3787-2.3264-1.5638-2.5645-.7543-.7543,2.5645-3.1679,5.4308-3.9222,5.7325-1.3532.5413-.2464.3493.1509.9051s2.2579-.5479,3.47-1.3577,3.2628-4.0946,2.8656-4.65" fill="#feadae"/></svg>