<svg id="Layer_1" data-name="Layer 1" xmlns="http://www.w3.org/2000/svg" width="170" height="120" viewBox="0 0 170 120"><title>building-trust</title><path d="M65.9578,23.1974c-3.5806,9.4266-3.2054,22.3524-8.5416,26.448-7.0149,5.3845-13.4824.7212-29.6944,5.2717-6.1051,1.7134-14.8183,4.1592-20.1495,9.8215C-3.9836,77.013,1.848,102.8152,18.7688,111.6174c12.04,6.2633,19.3309-1.4724,48.1732-.477,31.6246,1.0913,36.3107,10.8556,59.0628,7.2275,6.2974-1.0042,28.7052-4.5776,38.7207-20.3369,9.7767-15.3837,4.3114-36.9767-8.2365-41.6295-11.7791-4.3677-25.5089,7.7834-37.526,1.1127-.8474-.47-6.6026-3.7684-8.1029-9.6648a12.0513,12.0513,0,0,1,.9677-9.1345c10.3-21.5779.9661-32.3408-10.352-36.1379S73.8177,2.5046,65.9578,23.1974Z" fill="#f1f3f7"/><path d="M121.4923,51.6494a141.569,141.569,0,0,0-61.821,0,2.2116,2.2116,0,0,1-2.643-1.61Q53.8242,36.6927,50.62,23.346a2.4343,2.4343,0,0,1,2.112-2.7125,173.3548,173.3548,0,0,1,75.7,0,2.4346,2.4346,0,0,1,2.112,2.7125Q127.34,36.6928,124.1353,50.04a2.2115,2.2115,0,0,1-2.643,1.61" fill="#e2e2e2" opacity="0.4"/><path d="M58.9161,48.3879q-2.7414-12.24-5.4823-24.4811a1.3523,1.3523,0,0,1,1.18-1.4943,171.2047,171.2047,0,0,1,71.9357,0,1.3526,1.3526,0,0,1,1.18,1.4943q-2.7407,12.2407-5.4819,24.4811a1.234,1.234,0,0,1-1.4758.9119,143.7039,143.7039,0,0,0-60.3809,0,1.2337,1.2337,0,0,1-1.4753-.9119" fill="#fff"/><path d="M60.5781,43.104,56.8819,27.3113a2.4416,2.4416,0,0,1,2.0773-2.9795l10.2271-1.2662a2.4416,2.4416,0,0,1,2.7293,2.1784l1.5758,15.645a2.4416,2.4416,0,0,1-2.01,2.65l-8.1066,1.4139A2.4416,2.4416,0,0,1,60.5781,43.104Z" fill="#edeef4"/><path d="M76.1236,40.6982,74.579,24.5525a2.4416,2.4416,0,0,1,2.4582-2.6739l10.3045.1169A2.4416,2.4416,0,0,1,89.754,24.52l-.5368,15.715a2.4416,2.4416,0,0,1-2.347,2.3564l-8.223.3139A2.4416,2.4416,0,0,1,76.1236,40.6982Z" fill="#edeef4"/><path d="M119.9478,44.674l4.9446-15.4474a2.4416,2.4416,0,0,0-1.8329-3.1357l-10.0934-2.0783a2.4416,2.4416,0,0,0-2.8944,1.9536l-2.8192,15.4694a2.4416,2.4416,0,0,0,1.7919,2.8018l7.968,2.0563A2.4416,2.4416,0,0,0,119.9478,44.674Z" fill="#edeef4"/><path d="M104.6438,41.6222l2.8281-15.971A2.4416,2.4416,0,0,0,105.235,22.79L94.954,22.0838a2.4416,2.4416,0,0,0-2.6062,2.3242l-.7189,15.7077A2.4416,2.4416,0,0,0,93.78,42.6519l8.1718.9691A2.4416,2.4416,0,0,0,104.6438,41.6222Z" fill="#edeef4"/><ellipse cx="58.3737" cy="23.207" rx="0.7418" ry="0.7136" transform="translate(-3.3282 11.4199) rotate(-10.8657)" fill="#ffc550" opacity="0.4"/><ellipse cx="61.1083" cy="22.7052" rx="0.7413" ry="0.7137" transform="matrix(0.9851, -0.1722, 0.1722, 0.9851, -2.9976, 10.8652)" fill="#ffc550" opacity="0.4"/><ellipse cx="63.849" cy="22.2489" rx="0.7407" ry="0.7137" transform="translate(-2.6904 10.24) rotate(-8.981)" fill="#ffc550" opacity="0.4"/><path d="M60.133,33.48,58.681,27.276a.9592.9592,0,0,1,.8161-1.17l4.0177-.4974a.9592.9592,0,0,1,1.0722.8558l.619,6.1461a.9592.9592,0,0,1-.79,1.041l-3.1847.5555A.9592.9592,0,0,1,60.133,33.48Z" fill="#d9dbe2" opacity="0.47"/><path d="M82.8065,40.23l-.8075-6.32a.9592.9592,0,0,1,.9319-1.0805l4.0475-.0824a.9592.9592,0,0,1,.9787.9613l-.0152,6.1772a.9592.9592,0,0,1-.8922.9545l-3.2249.2256A.9592.9592,0,0,1,82.8065,40.23Z" fill="#d9dbe2" opacity="0.47"/><path d="M113.9745,42.1835l.8862-6.31a.9592.9592,0,0,1,1.1837-.7968l3.9262.9869a.9592.9592,0,0,1,.6908,1.1852l-1.6421,5.955a.9592.9592,0,0,1-1.1122.6857l-3.17-.632A.9592.9592,0,0,1,113.9745,42.1835Z" fill="#d9dbe2" opacity="0.47"/><path d="M110.5262,30.483l.558-3.9729a.6039.6039,0,0,1,.7453-.5017l2.4721.6214a.6039.6039,0,0,1,.435.7462l-1.0339,3.7494a.6039.6039,0,0,1-.7.4317l-1.9962-.3979A.6039.6039,0,0,1,110.5262,30.483Z" fill="#d9dbe2" opacity="0.47"/><path d="M114.5655,31.3828l1.1-3.858a.6039.6039,0,0,1,.8073-.3941l2.3628.9563a.6039.6039,0,0,1,.3279.7991l-1.541,3.5711a.6039.6039,0,0,1-.7531.3311l-1.9222-.6694A.6039.6039,0,0,1,114.5655,31.3828Z" fill="#d9dbe2" opacity="0.47"/><path d="M118.5,32.847l1.6144-3.6727a.6039.6039,0,0,1,.8534-.2808l2.2109,1.2685a.6039.6039,0,0,1,.2163.8362l-2.0119,3.3286a.6039.6039,0,0,1-.7911.2257l-1.8135-.9243A.6039.6039,0,0,1,118.5,32.847Z" fill="#d9dbe2" opacity="0.47"/><path d="M93.5391,31.2272l.3258-6.3635a.9592.9592,0,0,1,1.1087-.8982l3.998.6365a.9592.9592,0,0,1,.7927,1.12l-1.11,6.0767a.9592.9592,0,0,1-1.0473.7812l-3.2138-.35A.9592.9592,0,0,1,93.5391,31.2272Z" fill="#d9dbe2" opacity="0.47"/><rect x="75.6259" y="24.2256" width="13.2021" height="6.7478" rx="3.3739" ry="3.3739" fill="#d9dbe2" opacity="0.47"/><rect x="92.9379" y="35.7122" width="11.1992" height="5.998" rx="2.999" ry="2.999" transform="translate(6.243 -13.1533) rotate(7.8859)" fill="#d9dbe2" opacity="0.47"/><g opacity="0.2"><path d="M22.4709,69.5814a14.5264,14.5264,0,0,1,10.4-19.5772l1.5477,7.0679a7.2989,7.2989,0,0,0-5.7372,7.127A7.2183,7.2183,0,0,0,29.1989,66.9Z" fill="#afbdef" opacity="0.4"/><path d="M45.574,75.4507A14.5073,14.5073,0,0,1,35.2974,79.709a14.69,14.69,0,0,1-1.9715-.1328,14.4882,14.4882,0,0,1-8.31-4.1255c-.1134-.1131-.2219-.2316-.33-.35l5.2838-4.9438a7.2929,7.2929,0,1,0,8.5513-11.5235l3.2037-6.4912a14.3872,14.3872,0,0,1,3.85,2.7554A14.538,14.538,0,0,1,45.574,75.4507Z" fill="#50549e" opacity="0.4"/><path d="M41.7243,52.1423l-3.2037,6.4912a7.2172,7.2172,0,0,0-3.2232-.7542,7.3011,7.3011,0,0,0-1.5576.168l-1.5477-7.0681c.3747-.0838.7542-.1528,1.1338-.2022a14.1,14.1,0,0,1,1.9814-.1379,14.4624,14.4624,0,0,1,4.0908.5913A14.14,14.14,0,0,1,41.7243,52.1423Z" fill="#7a92ea" opacity="0.4"/><path d="M24.6865,76.4519a14.3225,14.3225,0,0,1-2.8933-4.5442l6.728-2.6815a7.2169,7.2169,0,0,0,1.4491,2.282Z" fill="#d1d9fe" opacity="0.4"/></g><path d="M61.3483,38.312q.8216,4.2586,1.6438,8.5168-.2513.0484-.5011.0977-.8368-4.2555-1.6736-8.5111Q61.0823,38.3632,61.3483,38.312Z" fill="#e2ebf4"/><polygon points="55.181 110.12 55.457 105.993 57.385 106.198 56.674 110.408 55.181 110.12" fill="#feadae"/><path d="M57.0163,109.4177a.8278.8278,0,0,1,.3836.14,10.5175,10.5175,0,0,0,2.35,1.3751c1.1341.3745,1.7936.9723.0283.9723s-2.301-.0482-2.8333-.0592c-.7872-.0164-.433.0592-2.3982.0592-.9671,0-.5135-1.5749.0178-2.3388.1615-.2325.2165-.4255.54-.3856Z" fill="#473e73"/><polygon points="60.555 110.12 61.423 106.096 63.333 106.301 62.034 110.408 60.555 110.12" fill="#feadae"/><path d="M62.8429,109.4177a.8278.8278,0,0,1,.3836.14,13.1542,13.1542,0,0,0,4.2018,1.6519c1.2546.1569,1.3184.6956-.4469.6956s-3.06-.1367-3.8471-.1194-1.0875.1194-3.0232.1194c-1.4855,0-.5157-1.6428.0161-2.4066a.8537.8537,0,0,1,.8038-.3177Z" fill="#473e73"/><path d="M83.8207,37.3777a14.5569,14.5569,0,0,1-1.7021.94,2.88,2.88,0,0,0-1.0448.3629A6.71,6.71,0,0,0,78.2717,41.54c-.25.4633-.5063.9266-.7733,1.38-.0566.0987-.1138.1971-.17.2958-.0572.0936-.1082.1824-.1593.271-.267.4387-.5285.8625-.79,1.2618a12.075,12.075,0,0,1-2.3193,2.9525c-1.5349.67-6.1619.2216-8.9531-.3155a1.5977,1.5977,0,0,0-1.8758,1.04,1.3748,1.3748,0,0,0,1.1991,1.6267,40.2356,40.2356,0,0,0,6.8786.72,10.9816,10.9816,0,0,0,4.1668-.6359c1.1253-.4929,2.2111-2.5038,3.0183-4.3423.1821-.4043.347-.8033.4946-1.173.1138-.2811.2215-.5422.3181-.7838.0061-.02.0172-.0395.0227-.059.1593-.4289.3015-.7788.398-1.0153.1987-.4782.3187-.6753.5-1.0351.1766-.36,1.8874-.3649,2.5863-.774.7278-.4188.6429-1.4933.347-2.1932a.694.694,0,0,0-.0827-.1259c.1315-.0727.2654-.1488.403-.2284C84.4836,37.8256,85.3118,36.38,83.8207,37.3777Z" fill="#feadae"/><path d="M64.4677,41.3831c0-2.5555-2.192-4.6021-5.1393-4.6021s-5.3368,2.0718-5.3368,4.6273A5.1329,5.1329,0,0,0,56.777,45.92a5.2252,5.2252,0,0,0,.8847,3.5088c.8667,1.1924,1.0351,1.4325,1.05,1.4535a1.743,1.743,0,0,0,1.4416.7086,1.8734,1.8734,0,0,0,.8587-.2056,1.3529,1.3529,0,0,0,.5819-1.9955s-.1373-.2-1.0922-1.5135a2.1452,2.1452,0,0,1-.38-1.4866C63.5213,46.948,64.4677,43.6852,64.4677,41.3831Z" fill="#feadae"/><path d="M55.6379,77.5469a14.6319,14.6319,0,0,1-.5751-8.443H68.2982a44.3225,44.3225,0,0,1,.0517,7.19Z" fill="#0088cc"/><path d="M57.9683,73.43h-.0467c-1.4394,0-3.152,0-2.644,2.747.02.1073.6067,11.1616.1776,15.8059-.4042,4.3811-.7667,16.5265-.7767,16.6594H57.62c.01-.1324,2.7073-11.9433,3.1087-16.293.4424-4.7873.7977-15.649.8066-16.0986C61.5606,74.9843,59.4289,73.4522,57.9683,73.43Z" fill="#0088cc"/><path d="M68.3615,75.7785c-.1-1.264-1.5366-1.9465-2.9883-1.85-1.4572.0866-4.3894,1.0892-4.2889,2.3532.0072.0953,2.588,9.6757,2.6846,13.999.0849,3.83-.2571,7.0275-3.2176,18.3993l2.8844.17c.6456-1.5022,5.7429-13.2683,5.6223-18.6577C68.9593,85.7564,68.3925,76.1727,68.3615,75.7785Z" fill="#0088cc"/><path d="M56.0565,48.75s-2.1545,8.9114-2.558,10.5575A1.6747,1.6747,0,0,1,52.1167,60.53a2.22,2.22,0,0,1-.4657.0539c-.6256,0-1.2507-.8278-3.1381-3.2528-.0566-.0741-.1194-.1528-.1816-.2318-.222-.2808-.4552-.5817-.705-.9068-.0628-.084-.131-.1678-.1993-.2515-.4374-.5521-.932-1.1682-1.4777-1.8483a15.2867,15.2867,0,0,1-2.8084.9316c-.8693,0-1.938-.0739-1.5971-.7689a3.0844,3.0844,0,0,1,2.03-1.4344,10.8055,10.8055,0,0,0,1.5572-.4633.4535.4535,0,0,0,.0744-.03,1.2112,1.2112,0,0,1,.1477-.0541c.0455-.02.0966-.03.1421-.0443.0511-.01.1022-.02.1477-.03.0566-.0051.1082-.0149.1593-.0149a1.3976,1.3976,0,0,1,.1421-.0048c.0511,0,.1077.0048.1588.01a1.2646,1.2646,0,0,1,.1366.02,1.1389,1.1389,0,0,1,.1538.0344.6178.6178,0,0,1,.136.0443.6892.6892,0,0,1,.1421.0592.9686.9686,0,0,1,.1255.064,1.0682,1.0682,0,0,1,.125.084.6209.6209,0,0,1,.1138.0886c.0338.03.0738.0691.1077.1035.0172.02.0344.0346.0516.0544.6079.7244,1.279,1.4984,1.938,2.218.0744.0787.1483.1625.222.2414.2726.2958.54.5817.7955.8479.0738.0739.1421.1478.21.2216.1876.1923.3642.37.5346.5324.1022-.4238.216-.8871.33-1.37.0167-.0642.0338-.1331.051-.2021.7505-3.1149,1.7054-7.0383,1.7054-7.0383Z" fill="#feadae"/><path d="M54.9167,56.2716l-1.6019,1.06c-.0491-.0741-.1035-.1528-.1574-.2318-.1925-.2808-.3947-.5817-.6113-.9068-.0544-.084-.1136-.1678-.1728-.2515l1.4786-.9807c.0645.0787.1285.1625.1925.2414.2363.2958.4683.5817.69.8479C54.7983,56.1239,54.8575,56.1977,54.9167,56.2716Z" fill="#e5989b"/><path d="M76.7822,43.6c-1.8985,3.1544-2.7512,3.815-2.8822,3.9036-1.4145.5831-4.7869.3359-7.477-.1365a8.63,8.63,0,0,0-1.4411-.2741H54.0258a1.2808,1.2808,0,0,0-1.2707.8743l-.0017,0s-1.2279,5.0716-2.0179,8.32c-.1876-.1923-.398-.4091-.6312-.6556l-2.8872,2.006c2.2055,2.3414,3.3424,3.1693,4.4732,3.1741h.0117a2.759,2.759,0,0,0,.5229-.0539,2.1927,2.1927,0,0,0,.58-.2075,1.8346,1.8346,0,0,0,.9609-1.1927c.0855-.347.25-1.0243.4574-1.8774.6028,4.4217,1.5322,5.3194.84,11.6244H68.2982S67.7947,57.4,66.86,51.1325a24.5923,24.5923,0,0,0,4.8469.0891A11.7482,11.7482,0,0,0,75.6,50.3523c.534-.2318,1.1952-.5078,3.9236-5.0422Z" fill="#fbdb8a"/><path d="M54.6948,55.631l-2.5034,2.006c-.1285-.1577-.2614-.3252-.4-.4977l2.5039-2.0011C54.4387,55.3155,54.5716,55.4782,54.6948,55.631Z" fill="#fbdb8a"/><path d="M79.3286,43.7773c-.0055.02-.0167.0392-.0227.059-.0966.2416-.2043.5027-.3181.7838l-1.8192-1.1338c.0511-.0886.1022-.1774.1593-.271.0566-.0987.1138-.1971.17-.2958Z" fill="#ed8c62"/><path d="M79.83,44.7975c-.1021.1773-.2048.3449-.307.5126L76.7822,43.6q.145-.2441.307-.5174Z" fill="#fbdb8a"/><path d="M54.2256,57.4892c-.21.8479-.3747,1.5178-.46,1.8678a1.8346,1.8346,0,0,1-.9609,1.1927l.6656-8.0533C53.7255,54.0291,53.9869,55.7393,54.2256,57.4892Z" fill="#d6b97b"/><path d="M63.2452,40.5283a1.7493,1.7493,0,0,0,.6224,1.34.6955.6955,0,0,0,1.1311-.5468V39.7355a.6955.6955,0,0,0-1.1311-.5468A1.7491,1.7491,0,0,0,63.2452,40.5283Z" fill="none"/><rect x="116.3466" y="84.9786" width="0.8561" height="26.214" transform="translate(233.5493 196.1711) rotate(-180)" fill="#524e64"/><path d="M113.1363,84.5924H120.81a2.0424,2.0424,0,0,0,1.992-2.09h0a2.0426,2.0426,0,0,0-1.992-2.09h-7.6736a2.0426,2.0426,0,0,0-1.9917,2.09h0A2.0423,2.0423,0,0,0,113.1363,84.5924Z" fill="#524e64"/><rect x="113.0909" y="84.5924" width="7.3728" height="0.7724" transform="translate(233.5546 169.9572) rotate(-180)" fill="#2a272d"/><path d="M120.4013,43.7513Q119.2,49.0356,118,54.32q-.29-.0495-.5791-.0977,1.179-5.2879,2.3587-10.5755.3112.052.6219.1047" fill="#e2ebf4"/><path d="M118.5577,49.1232q-.0543.2444-.1091.489a5.692,5.692,0,0,0,.5908.1312q.0384-.1693.0773-.3384c.0106-.0484.0217-.0968.0328-.1451a4.9426,4.9426,0,0,1-.5919-.1367" fill="#d2dcf7"/><path d="M116.72,42.3576c-1.3563.3107-2.5234,2.3633-2.6458,3.5727a5.6038,5.6038,0,0,0,5.7532,5.7475,4.84,4.84,0,0,0,5.0345-5.5519c-.2336-1.1165-1.023-3.6016-3.088-3.8249A18.4369,18.4369,0,0,0,116.72,42.3576Z" fill="#3d4177"/><path d="M124.5646,46.582a.7856.7856,0,0,0-.094-.05,5.9225,5.9225,0,0,0-11.49-.1028.8206.8206,0,0,0-.4873.1528,1.6078,1.6078,0,0,0,0,2.6793.844.844,0,0,0,.6358.1466,5.873,5.873,0,0,0,4.7085,3.7117,2.7443,2.7443,0,0,1-.4289,1.7506c-1.0614,1.4567-1.2133,1.6784-1.2133,1.6784a1.4954,1.4954,0,0,0,.6481,2.2054,2.0743,2.0743,0,0,0,.9524.2282,1.9405,1.9405,0,0,0,1.5988-.7817c.0195-.0281.208-.2965,1.166-1.6112a6.0785,6.0785,0,0,0,.988-3.997,5.9574,5.9574,0,0,0,2.7542-3.21.8.8,0,0,0,.262-.1211,1.6079,1.6079,0,0,0,0-2.6793Z" fill="#feadae"/><path d="M115.8212,57.7356c0,.0146-.08.4435-.1936,1.1335-.114.695-.2737,1.6562-.4328,2.7207l-.2336,1.5133-4.09,6.4368c.3477-5.1457.9118-11.6566,1.6183-14.116a1.7155,1.7155,0,0,1,.53-.2366,2.038,2.038,0,0,1,1.0881,0,2.3676,2.3676,0,0,1,1.6122,1.4688A2.05,2.05,0,0,1,115.8212,57.7356Z" fill="#d6b97b"/><path d="M114.6419,55.0544c-.0055-.01-.0055-.01-.0111-.005a1.8855,1.8855,0,0,0-.4673-.1478,2.3039,2.3039,0,0,0-1.0709.0394,2.087,2.087,0,0,0-.8884.483c-.0061.0048-.0172.01-.0172.02a1.3555,1.3555,0,0,0-.1369.335c-.0567.2169-.7176,2.8144-1.4124,5.7127-.7293,2.9869-1.51,6.2893-1.7379,7.63-.4728,2.7946-5.5252,5.0419-7.4338,5.6729-.0295.01-.0545.0245-.0829.0356a1.6376,1.6376,0,0,0-.1791.0775,1.5367,1.5367,0,0,0-.1486.0943c-.0284.0193-.059.0337-.0862.0549l-.0267.0212-.0106.0087c-.4055.3239-1.991,1.7073-1.7957,3.391.0812.7032.0968.8871.8645,1.083a4.6085,4.6085,0,0,0,1.2016.1011c.8706-.0024,1.3679-.2171,1.2806-.967-.0223-.19-.4317-1.9806-.0712-2.32,4.4966-1.6466,8.8429-2.3677,9.61-6.8537.2053-1.2077.9057-4.1943,1.5838-7.0185.7632-3.1445,1.5037-6.0821,1.5209-6.1413A1.26,1.26,0,0,0,114.6419,55.0544Z" fill="#feadae"/><path d="M110.4591,61.06l4.0509.7008.1007-.4352.3049-1.315c.2142-.9251.4189-1.7586.5669-2.3612s.2448-.9754.2464-.9853a1.53,1.53,0,0,0-.0467-.9287,1.9746,1.9746,0,0,0-1.517-1.2059,2.3413,2.3413,0,0,0-1.0737.0407,1.9134,1.9134,0,0,0-1.3935,1.3128c-.0156.0606-.395,1.5272-.8328,3.4268l-.3048,1.315Z" fill="#f4cf7a"/><polygon points="106.64 105.437 105.802 109.883 103.377 110.095 104.219 105.129 106.64 105.437" fill="#feadae"/><path d="M106.1365,109.5772a.232.232,0,0,0-.36-.1211,1.8094,1.8094,0,0,1-1.3407.3352,1.0713,1.0713,0,0,1-.9927-.7085.2375.2375,0,0,0-.3157-.1565l-4.5408,1.73a1.0381,1.0381,0,0,0-.5578.5686h0a.37.37,0,0,0,.3265.5152l7.4393.0425a.4937.4937,0,0,0,.4855-.5251l-.0637-1.4094a.2514.2514,0,0,0-.0127-.0687Z" fill="#473e73"/><polygon points="118.595 79.588 111.501 91.416 107.011 107.844 102.94 107.844 105.844 89.587 118.595 79.588" fill="#293882"/><polygon points="116.495 98.784 119.754 102.343 117.412 103.151 114.141 99.385 116.495 98.784" fill="#feadae"/><path d="M119.6435,101.8594a.2375.2375,0,0,0-.3835.02,1.6569,1.6569,0,0,1-1.079.7959,1.85,1.85,0,0,1-1.5517-.554.2484.2484,0,0,0-.358-.0283l-3.989,2.5412a.9416.9416,0,0,0-.2594.7245h0a.4025.4025,0,0,0,.5271.3525l7.894-1.8113a.4552.4552,0,0,0,.2122-.6578l-.82-1.1644a.28.28,0,0,0-.042-.0582Z" fill="#473e73"/><path d="M123.9107,76.4715s.07,4.5524-8.6074,7.2406L109.3078,88.77l9.2841,11.2833-4.1513,1.3631L103.1687,90.53a2.348,2.348,0,0,1-.0795-3.1551l7.7195-10.9034Z" fill="#0088cc"/><path d="M126.0521,55.8134c-.9174,4.5738-1.9651,16.5278-1.5718,21.1509l-13.6716-.4929a56.7485,56.7485,0,0,1,.062-6.9315c.3477-5.1457.9118-11.6566,1.6183-14.116.0112-.0346.0167-.069.0283-.0987a1.2831,1.2831,0,0,1,1.2645-.8378l5.3227.0467,6.3994.0562C126.3517,54.7372,126.1945,55.1184,126.0521,55.8134Z" fill="#fbdb8a"/><path d="M127.659,71.0608c.5137-.9572.3892-3.3549.008-5.9542-.3138-2.1048-.7823-4.3316-1.161-6a1.5882,1.5882,0,0,0-1.8546-1.0719,1.3788,1.3788,0,0,0-1.2372,1.6c.4551,1.9822.8688,4.17,1.1361,6.0227a16.6214,16.6214,0,0,1,.2985,4.11c-1.0275.685-5.67,2.1816-9.5889,3.22a1.62,1.62,0,0,0-.1736.0628c-.0307.0115-.0643.02-.0935.0335a1.5061,1.5061,0,0,0-.196.1091c-.02.0125-.0421.0223-.0615.0357a1.47,1.47,0,0,0-.1715.1433c-.0147.0137-.0317.026-.0457.0405a1.3008,1.3008,0,0,0-.1318.1631c-.0133.018-.029.0345-.0408.0531a1.3015,1.3015,0,0,0-.0868.1684c-.0113.0246-.0258.048-.0351.0735a1.1443,1.1443,0,0,0-.0448.1678c-.0072.0305-.0174.06-.0216.0905a1.1933,1.1933,0,0,0-.0061.169c.0006.0331-.0035.066,0,.0991a1.2483,1.2483,0,0,0,.0346.1753c.0069.0283.0078.0563.0167.0842l.0074.0226.0032.0124.0045.0087a5.7344,5.7344,0,0,0,1.5541,2.4315,1.5948,1.5948,0,0,0,.4313.2568c.5917.238-1.8855-.9807-1.4061-1.4094.6054-.541,1.709-.9858,2.4408-1.51.0159-.0114-.03-.03-.0453-.0447C122.76,73.3405,126.893,72.4873,127.659,71.0608Z" fill="#feadae"/><path d="M126.3861,55.88c.0211.2767.3366,2.9783.7389,6.2481l-3.1832-.17c-.3705-2.9426-.6663-5.59-.69-5.8114a5.09,5.09,0,0,1,1.6985-1.3977,1.971,1.971,0,0,1,.4972.0161c.0036-.0061.0036-.0061.0124.0018A1.3981,1.3981,0,0,1,126.3861,55.88Z" fill="#e5989b"/><path d="M98.85,78.2063a.49.49,0,0,0,.4539.27h16.69a.4907.4907,0,0,0,.4545-.27.1141.1141,0,0,0-.12-.1507H98.97A.1145.1145,0,0,0,98.85,78.2063Z" fill="#e2e2e2"/><path d="M103.1871,78.2063a.49.49,0,0,0,.454.27h16.69a.4907.4907,0,0,0,.4545-.27.1142.1142,0,0,0-.12-.1507H103.3073A.1142.1142,0,0,0,103.1871,78.2063Z" fill="#e2e2e2"/><path d="M110.4029,78.0557v.0684a.1554.1554,0,0,0,.1647.1424h2.8371a.1549.1549,0,0,0,.1641-.1424v-.0684Z" fill="#e2e2e2"/><path d="M127.4818,61.685l-2.2251.0319-1.9062.03L123.341,61.3l-.0238-1.3388c-.0147-.95-.0406-1.7957-.066-2.4117-.0207-.6135-.0378-1.0015-.04-1.0085a1.5663,1.5663,0,0,1,.1446-.7176,1.8563,1.8563,0,0,1,1.64-1.233,3.6615,3.6615,0,0,1,1.0266.2176,1.95,1.95,0,0,1,.4123.19,1.7345,1.7345,0,0,1,.9025,1.4028c.0051.06.0732,1.5655.1087,3.5018l.027,1.3349Z" fill="#f4cf7a"/><ellipse cx="106.1954" cy="73.1957" rx="0.9889" ry="0.8556" fill="#fff"/><path d="M123.1611,43.9193c-1.484,1.8-10.2608,2.9092-10.2608-1.1365a1.5653,1.5653,0,0,1,.608-1.2681s.0738.611.3939.7865a12.64,12.64,0,0,1,3.0042-1.1159s-.2885.616.8253.477C120.9447,41.2613,125.6232,40.9323,123.1611,43.9193Z" fill="#3d4177"/><rect x="113.0909" y="104.8287" width="7.3728" height="0.7721" transform="translate(233.5546 210.4294) rotate(-180)" fill="#2a272d"/><polygon points="116.775 109.869 121.93 111.72 111.625 111.72 116.775 109.869" fill="#524e64"/><path d="M101.7063,78.0557h13.6785a.586.586,0,0,0,.5757-.8014l-2.29-8.1171a1.141,1.141,0,0,0-1.0276-.8014H98.9646a.5858.5858,0,0,0-.5756.8014l2.2892,8.1171A1.1421,1.1421,0,0,0,101.7063,78.0557Z" fill="#0088cc"/><path d="M102.0052,78.0557h13.6789a.5857.5857,0,0,0,.5752-.8014L113.97,69.1371a1.1421,1.1421,0,0,0-1.0282-.8014H99.2636a.586.586,0,0,0-.5757.8014l2.29,8.1171A1.141,1.141,0,0,0,102.0052,78.0557Z" fill="#0088cc"/><path d="M101.9667,76.1038l-1.5023-5.3264a.9028.9028,0,0,1,.8688-1.1475h10.7789a.9024.9024,0,0,1,.8684.6575l1.5027,5.3264a.9026.9026,0,0,1-.8688,1.1475H102.835A.9023.9023,0,0,1,101.9667,76.1038Z" fill="#0088cc"/><path d="M64.6651,36.05s-.0907.7086-1.9724-.0278c-3.53-1.3814-7.1287-.6491-8.1162,0-.9669.6358-1.0957,1.2973-.7979,1.823a3.0775,3.0775,0,0,0-1.2978,2.062c-.0165,2.6331,1.9008,5.3116,3.9829,5.3116,3.3243,0,4.7884-3.5106,4.6014-5.5341-.0165-.18-.0341-.362-.0541-.5433.1068.0171.2125.0341.32.0517C65.2311,39.8324,64.6651,36.05,64.6651,36.05Z" fill="#3d4177"/><polygon points="67.373 79.349 60.636 111.972 60.067 111.967 65.376 79.34 67.373 79.349" fill="#e2e2e2"/><polygon points="76.773 79.349 83.51 111.972 84.078 111.967 78.769 79.34 76.773 79.349" fill="#e2e2e2"/><polygon points="106.008 79.349 99.271 111.972 98.702 111.967 104.011 79.34 106.008 79.349" fill="#e2e2e2"/><polygon points="115.408 79.349 122.145 111.972 122.714 111.967 117.405 79.34 115.408 79.349" fill="#e2e2e2"/><rect x="62.4182" y="79.1084" width="58.4987" height="1.118" fill="#e2e2e2"/><rect x="61.0862" y="78.1734" width="61.1627" height="1.496" fill="#e2e2e2"/><path d="M57.696,58.3554A27.9415,27.9415,0,0,0,59.25,55.3632l.8771-1.8656a14.3562,14.3562,0,0,0,.953-2.4014,19.0465,19.0465,0,0,0,.4253-4.6513q.0292-2.8709.0586-5.7419a3.86,3.86,0,0,0-.0992-1.1249c-.1049-.3518-.35-.6456-.5913-.579a2.6719,2.6719,0,0,0,.0735-2.3278,3.0559,3.0559,0,0,0-1.3532-1.4843A4.767,4.767,0,0,0,54,36c-1.361,1.521-2,4-1.3434,6.94a6.4085,6.4085,0,0,1-.156,3.6658c-.3943.936-1.2728,1.3805-1.3816,2.5006-.0955.9839.48,1.9035.5133,2.9072.0382,1.1509-.6188,1.9857-.9305,3.0059a5.8734,5.8734,0,0,0,.8437,4.828,2.9013,2.9013,0,0,0,3.2874,1.1442A6.0038,6.0038,0,0,0,57.696,58.3554Z" fill="#3d4177"/><path d="M109.1545,73.3266a1.0158,1.0158,0,0,1-1.0329,1.3306,1.85,1.85,0,0,1-1.705-1.3306A1.0158,1.0158,0,0,1,107.45,71.996,1.8505,1.8505,0,0,1,109.1545,73.3266Z" fill="#fff"/></svg>