<svg id="Layer_1" data-name="Layer 1" xmlns="http://www.w3.org/2000/svg" width="40" height="40" viewBox="0 0 40 40"><title>chat-ic</title><path d="M20,10.0977a.7617.7617,0,1,0,.7617.7617h0A.762.762,0,0,0,20,10.0977Z" fill="#0088cc"/><path d="M7.3555,23.8086a.7617.7617,0,1,0-.7617-.7617h0A.762.762,0,0,0,7.3555,23.8086Z" fill="#0088cc"/><path d="M26.0938,2.48c-6.8576,0-12.4859,4.728-12.9212,10.6834C6.6417,13.4915.5,18.2007.5,24.57a10.6438,10.6438,0,0,0,2.9707,7.2845,4.6325,4.6325,0,0,1-1.2241,4.3644.7617.7617,0,0,0,.5386,1.3,8.4023,8.4023,0,0,0,5.8215-2.353,17.3583,17.3583,0,0,0,5.3.83c6.8567,0,12.4845-4.7268,12.921-10.681a17.1284,17.1284,0,0,0,4.5661-.8126,8.4023,8.4023,0,0,0,5.8215,2.353.7617.7617,0,0,0,.5386-1.3A4.6325,4.6325,0,0,1,36.53,21.1909a10.6438,10.6438,0,0,0,2.97-7.2846C39.5,7.2879,32.8852,2.48,26.0938,2.48ZM13.9063,34.4727a15.3984,15.3984,0,0,1-5.2187-.8989.7618.7618,0,0,0-.8438.1934,6.873,6.873,0,0,1-3.4185,2.0287A6.16,6.16,0,0,0,4.89,31.2621a.76.76,0,0,0-.1863-.3219,9.1537,9.1537,0,0,1-2.68-6.37c0-5.3677,5.4415-9.9023,11.8828-9.9023,6.0824,0,11.4258,4.23,11.4258,9.9023C25.332,30.0306,20.2065,34.4727,13.9063,34.4727Zm21.39-14.1965a.7638.7638,0,0,0-.1863.3219,6.16,6.16,0,0,0,.4645,4.5337,6.8708,6.8708,0,0,1-3.4185-2.0287.7623.7623,0,0,0-.8438-.1934,15.0054,15.0054,0,0,1-4.4876.88,10.9031,10.9031,0,0,0-4.116-7.5981h9.9357a.7617.7617,0,0,0,0-1.5234H20.3687A14.2064,14.2064,0,0,0,14.7,13.1668c.4377-5.116,5.3808-9.1629,11.3939-9.1629,6.4413,0,11.8828,4.5346,11.8828,9.9023a9.1537,9.1537,0,0,1-2.68,6.37Z" fill="#0088cc"/><path d="M20,22.2852H10.4023a.7617.7617,0,0,0,0,1.5234H20a.7617.7617,0,0,0,0-1.5234Z" fill="#0088cc"/><path d="M20,26.8555H7.3555a.7617.7617,0,0,0,0,1.5234H20a.7617.7617,0,0,0,0-1.5234Z" fill="#0088cc"/><path d="M32.6445,10.0977H23.0469a.7617.7617,0,0,0,0,1.5234h9.5977a.7617.7617,0,0,0,0-1.5234Z" fill="#0088cc"/></svg>