<svg id="Layer_1" data-name="Layer 1" xmlns="http://www.w3.org/2000/svg" width="40" height="40" viewBox="0 0 40 40"><title>client-demonstration</title><g id="Tool-File"><path d="M38.3667,18.1633V13.2656a.6122.6122,0,0,0-.1794-.4328l-2.27-2.27V8.3678a.6122.6122,0,0,0-.6122-.6122h0V4.6944a.6122.6122,0,0,0-.6122-.6122H32.2444a.6122.6122,0,0,0-.6122.6122V7.7556a.6122.6122,0,0,0-.6122.6122V20.6122H29.7956V4.6944a3.0648,3.0648,0,0,0-3.0611-3.0611H4.6944A3.0648,3.0648,0,0,0,1.6333,4.6944V35.3056a3.0648,3.0648,0,0,0,3.0611,3.0611h22.04a3.0648,3.0648,0,0,0,3.0611-3.0611V27.9589H31.02v3.6733a.6122.6122,0,0,0,.0612.2737l1.2244,2.4489a.6122.6122,0,0,0,.551.3386v2.4489H34.081v-2.449a.6122.6122,0,0,0,.551-.3386l1.2244-2.4489a.6122.6122,0,0,0,.0612-.2737V27.9589h1.8367a.6122.6122,0,0,0,.6122-.6122h0V21.2244a.6122.6122,0,0,0-.6122-.6122H35.9178V12.2946l1.2244,1.2244v4.6443ZM32.2444,8.98h2.4489v2.4489H32.2444Zm.6122-3.6733H34.081V7.7556H32.8567ZM24.8978,2.8578V6.89l-.7916-.7916a.6122.6122,0,0,0-.8657,0l-.7916.7916V2.8578Zm3.6733,32.4478a1.8367,1.8367,0,0,1-1.8367,1.8367H4.6944a1.8367,1.8367,0,0,1-1.8367-1.8367h0V4.6944A1.8367,1.8367,0,0,1,4.6944,2.8578h16.53v5.51a.6122.6122,0,0,0,1.0451.4328l1.4038-1.4038,1.4038,1.4038a.6122.6122,0,0,0,1.0451-.4328v-5.51h.6122a1.8367,1.8367,0,0,1,1.8367,1.8367h0V20.6122H5.9189a.6122.6122,0,0,0-.6122.6122v6.1222a.6122.6122,0,0,0,.6122.6122H28.5711Zm5.1316-1.8367H33.235l-.9183-1.8367h2.3044Zm.9906-3.0611H32.2444V27.9589h2.4489Zm2.4489-3.6733H6.5311V21.8367h3.6733v1.2244h1.2244V21.8367h2.4489v1.2244h1.2244V21.8367H17.551v1.2244h1.2244V21.8367h2.4489v1.2244h1.2244V21.8367h2.4489v1.2244H26.122V21.8367h2.4489v1.2244h1.2244V21.8367h2.4489v1.2244h1.2244V21.8367h3.6733Zm-4.8978-6.1222v-7.959h2.4489v7.9589Z" fill="#0088cc"/></g></svg>