<svg id="Layer_1" data-name="Layer 1" xmlns="http://www.w3.org/2000/svg" width="40" height="40" viewBox="0 0 40 40"><title>client-ratio</title><path d="M20,12.9667a5.9833,5.9833,0,1,0-5.9833-5.9834A5.99,5.99,0,0,0,20,12.9667ZM20,2.2128A4.7706,4.7706,0,1,1,15.23,6.9833,4.7759,4.7759,0,0,1,20,2.2128Z" fill="#0088cc"/><path d="M20,15.3922a9.1509,9.1509,0,0,1,9.1194,8.5329H15.1053a.6064.6064,0,0,0,0,1.2128h14.64a.6063.6063,0,0,0,.6064-.6064,10.3521,10.3521,0,0,0-20.7043,0,.6063.6063,0,0,0,.6064.6064h6.4681a.6064.6064,0,0,0,0-1.2128H10.8806A9.1511,9.1511,0,0,1,20,15.3922Z" fill="#0088cc"/><path d="M12.3522,31.5384,9.0258,30.98,7.4669,27.989a.6064.6064,0,0,0-1.0755,0L4.8325,30.98l-3.3264.5583a.6063.6063,0,0,0-.3324,1.0228l2.363,2.4069L3.04,38.3042a.6064.6064,0,0,0,.87.6322l3.0193-1.5036,3.0193,1.5036a.6064.6064,0,0,0,.87-.6323l-.497-3.3361,2.363-2.4069a.6063.6063,0,0,0-.3322-1.0227ZM9.2445,34.3339a.6063.6063,0,0,0-.167.5141l.37,2.484L7.2,36.2125a.6062.6062,0,0,0-.5406,0l-2.2481,1.12.37-2.484a.606.606,0,0,0-.167-.5141L2.8543,32.5418l2.4768-.4157a.6066.6066,0,0,0,.4374-.3178l1.1607-2.2271L8.09,31.8082a.6066.6066,0,0,0,.4374.3178l2.4768.4157Z" fill="#0088cc"/><path d="M25.4231,31.5384,22.0967,30.98,20.5378,27.989a.6064.6064,0,0,0-1.0755,0L17.9034,30.98l-3.3264.5583a.6063.6063,0,0,0-.3324,1.0228l2.363,2.4069-.4969,3.3361a.6064.6064,0,0,0,.87.6322L20,37.4328l3.0193,1.5036a.6065.6065,0,0,0,.87-.6323l-.4969-3.3361,2.363-2.4069a.6063.6063,0,0,0-.3324-1.0227Zm-3.1077,2.7956a.6063.6063,0,0,0-.167.5141l.37,2.484-2.2481-1.12a.6066.6066,0,0,0-.5406,0l-2.2481,1.12.37-2.484a.606.606,0,0,0-.167-.5141l-1.7595-1.7921,2.4768-.4157a.6066.6066,0,0,0,.4374-.3178L20,29.5812l1.1607,2.2271a.6066.6066,0,0,0,.4374.3178l2.4768.4157-1.7595,1.7921Z" fill="#0088cc"/><path d="M38.97,31.949a.6063.6063,0,0,0-.4764-.4106L35.1675,30.98,33.6086,27.989a.6064.6064,0,0,0-1.0755,0L30.9742,30.98l-3.3264.5583a.6063.6063,0,0,0-.3324,1.0228l2.363,2.4069-.497,3.3361a.6064.6064,0,0,0,.87.6322l3.0193-1.5036L36.09,38.9364a.6065.6065,0,0,0,.87-.6323l-.497-3.3361,2.363-2.4069a.6058.6058,0,0,0,.1442-.612Zm-3.584,2.3849a.6063.6063,0,0,0-.167.5141l.37,2.484-2.2481-1.12a.6065.6065,0,0,0-.5406,0l-2.2481,1.12.37-2.484a.606.606,0,0,0-.167-.5141l-1.7595-1.7921,2.4768-.4157a.6066.6066,0,0,0,.4374-.3178l1.1607-2.2271,1.1607,2.2271a.6066.6066,0,0,0,.4374.3178l2.4768.4157-1.76,1.7921Z" fill="#0088cc"/><path d="M20,9.7326a2.7491,2.7491,0,0,0,2.0746-.9477.6064.6064,0,0,0-.9152-.7957,1.5319,1.5319,0,0,1-2.3188,0,.6064.6064,0,1,0-.9152.7957A2.7494,2.7494,0,0,0,20,9.7326Z" fill="#0088cc"/></svg>