<svg id="Layer_1" data-name="Layer 1" xmlns="http://www.w3.org/2000/svg" width="170" height="120" viewBox="0 0 170 120"><title>client-relationship</title><g id="Layer_1-2" data-name="Layer 1"><path d="M25.76,81.83c1.92-5.94,8.49-9.51,8.07-16.4-.19-3.17-1.87-5.69-3-8.54-2.66-6.7-4.9-17.25-.83-23.83,5.22-8.42,17.45-7.48,25.16-11.32,4.18-2.08,7.58-5.59,10.74-9.19,2.29-2.62,4.54-5.35,7.35-7.31a17.85,17.85,0,0,1,19.59-.41c6,3.84,9.86,10.64,17.67,9.16,3.24-.61,6.54-1.94,9.81-1a13.74,13.74,0,0,1,7.91,6.47c4.74,8.49-3,17.46.24,26.22,2.41,6.53,9.36,9,13.24,14.26,3.12,4.25,3.86,9.66,2.9,14.86-1.93,10.49-3.47,21.64-7.15,31.61-4,10.95-16.09,11.05-25.5,11.06-14.3,0-29.12,1.2-43.3-.63C57.59,115.44,44.7,112,35.51,105,28.88,99.9,22.83,90.91,25.76,81.83Z" fill="#f1f3f7"/><path id="_Path_" data-name=" Path " d="M55.61,55.43l12.87.21a.9144.9144,0,0,1,1,.79l-.9,9.17c0,.41-.53.73-1.1.71l-12.84-.19c-.93-.17-1.27-.42-1.23-.84l.85-9.11C54.27,55.75,54.54,55.51,55.61,55.43Z" fill="#cbd3d8"/><path id="_Path_2" data-name=" Path 2" d="M55.94,55.42l12.9.21a.9143.9143,0,0,1,1,.8l-.91,9.21c0,.41-.53.73-1.11.71l-12.86-.19c-.61,0-1.07-.38-1-.81l.86-9.19C54.81,55.73,55.33,55.4,55.94,55.42Z" fill="#e7edf2"/><path d="M89.65,49.94a5,5,0,0,0-.2,1l.63.28.48-.34.76.06Z" fill="#e5989b"/><path d="M92.84,50.74l-1.52.16-1.09-.34-.46.34-1.65,2,2,.94h1a3.59,3.59,0,0,1,1-.84l1.4-.43Z" fill="#e5989b"/><path d="M91.62,50.87l1,2.49s8.35-2.71,8.79-3.07,7.1-8.84,7.1-8.84-.51-4.13-2-5.07a5.41,5.41,0,0,0-2.68-.94L98.18,46.31Z" fill="#f4cf7a"/><path d="M117.7,111.07v2.62h-5s.19-.95,2.57-1.38l.35-1.23Z" fill="#473e73"/><path d="M108,111.07v2.62h-5s.19-.95,2.57-1.38l.35-1.23Z" fill="#473e73"/><path d="M112.27,29.58a6.37,6.37,0,0,0,.52,2.7c.24.67,2.54,1.45,2.54,1.45s-6.94,7.71-9.62,7.66,1.17-7.27,1.17-7.27,1.12-.68,1.37-1.42a15.08,15.08,0,0,0,.39-2.39l3.14-4Z" fill="#feadae"/><path d="M107.13,21.94c-.46.29-1.24.91-1.27,1.37a19.2305,19.2305,0,0,0-.13,2.57c.07.78.1,2.8.23,3.71a7.53,7.53,0,0,0,.46,2.31,7,7,0,0,0,2.86,0c.46-.23,2.7-2.47,2.6-4.43,0,0,.86.41,1.55-1.35.18-.46-1.35-2.21-1.54-2.75-.46-1.3-3.09-.94-3.81-1A1.45,1.45,0,0,1,107.13,21.94Z" fill="#feadae"/><path d="M105.86,23.3s.26-.62.78-.36a5.68,5.68,0,0,0,2.47.36,5.86,5.86,0,0,0,1.66-.42,4.39,4.39,0,0,0,.23,1.53c.23.33.75.72.78,1.11a5.3792,5.3792,0,0,1,0,.78s.52-.68.94-.55.42.85,0,1.17a7,7,0,0,1-.85.55,5.21,5.21,0,0,0,.1,1c.1.42.29,1.14.29,1.14a19.4,19.4,0,0,1,1.66-3.48c.75-1,1.11-3.09-.36-3.87a2.39,2.39,0,0,0-2.05-2.31c-2.05-.36-3.84.16-4.72-.13a2.74,2.74,0,0,1-1.11-.55,3.63,3.63,0,0,0-.33,2.47A6.08,6.08,0,0,1,105.86,23.3Z" fill="#3d4177"/><path d="M115.72,58.72A76.38,76.38,0,0,1,118,76c0,8.93.12,35.09.12,35.09H114.5s-2.84-25.26-4.19-31-4.87-22.54-4.87-22.54Z" fill="#0088cc"/><path d="M109.63,67.85s-.68,13.61-.81,16.29,0,26.91,0,26.91-3.38.09-3.38,0-3.19-25.57-3.6-32.17-.17-14.43-.72-15.34,1.48-6.08,1.48-6.08l4.78,1.28Z" fill="#0088cc"/><path d="M114.5,33l5.07,3.33s-2.1,5-2.16,7-1.69,15.39-1.69,15.39-4.9.83-8.33,0-4.78-1.28-4.78-1.28.14-14.12.41-16.1.95-5.93.95-5.93L106.64,34l1.49,1.15Z" fill="#fbdb8a"/><path id="_Path_3" data-name=" Path 3" d="M107.28,64.48l1.31-7.24a1,1,0,0,1,1.2078-.7357l.0222.0057,12.65,2.37a1,1,0,0,1,.85,1.1L122,67.2c-.35.79-.74,1.05-1.32.95L108.1,65.83C107.56,65.73,107.26,65.45,107.28,64.48Z" fill="#cbd3d8"/><path id="_Path_4" data-name=" Path 4" d="M107.31,64.19l1.31-7.26a1,1,0,0,1,1.2078-.7357l.0222.0057,12.71,2.39a1,1,0,0,1,.85,1.11l-1.28,7.24a1.06,1.06,0,0,1-1.26.77l-12.69-2.34a1,1,0,0,1-.8812-1.1061Q107.303,64.2267,107.31,64.19Z" fill="#e7edf2"/><path d="M114.47,62.32l-.7,1a13.68,13.68,0,0,0-1.66,1.19c-.07.17-.32.94-.32.94l.36.17.66-.66a5.09,5.09,0,0,1-.07.87c-.07.28-.28.8-.28.8a8.5488,8.5488,0,0,0,1,.42c.35.1,1.67.31,1.67.31a8.2,8.2,0,0,0,1.33-1.85c.07-.45.26-2.12.26-2.12L116,62.18Z" fill="#feadae"/><path d="M119.57,36.37s2.64,13,2.64,13.59-4.16,12.2-5.53,13.48c0,0-1.07.54-2.22-1.12,0,0,1-2.78,1.59-4.76a66.349,66.349,0,0,0,1.08-8.43s-3.35-4.65-3.38-7.4C113.7,35.86,119.57,36.37,119.57,36.37Z" fill="#f4cf7a"/><path d="M86.84,50.21s1.87.27,2.25.35a7.59,7.59,0,0,1,2,.92A5.69,5.69,0,0,1,92,53a1.4,1.4,0,0,1-.66.13,1.85,1.85,0,0,0-1,.11c-.68.19-1.22.48-1.75.23a2.62,2.62,0,0,1-1.17-.8,3.39,3.39,0,0,0-1.19-.84Z" fill="#e5989b"/><path d="M69.93,101.09c-.84-7.3.34-22.46.34-22.46l-5.68.85A49.7,49.7,0,0,0,63.91,87c0,3.71,2.75,13.74,3.13,15.11a23.8681,23.8681,0,0,1,.58,2.37,2.38,2.38,0,0,1-.18,1.15,6,6,0,0,0-.64,2.18l5.58,3.58,2.19-.43a12.41,12.41,0,0,1-3.43-4.59A20,20,0,0,1,69.93,101.09Z" fill="#e5989b"/><path d="M66.4,108.94l.74,3.73h.48a12.81,12.81,0,0,1,.35-1.87,4.3,4.3,0,0,1,.9-.94S67.27,108.75,66.4,108.94Z" fill="#473e73"/><path d="M67.06,106.5a35.42,35.42,0,0,0,3.13,2.12c1.41.81,2,1.6,2.45,1.56l.82-.07s1.1.45,1.74.64,2.26.83,2.65,1.92H72.69s-3.29-2.33-4.29-2.88a11.48,11.48,0,0,0-2-.85,2.85,2.85,0,0,1-.16-1.32A1.5,1.5,0,0,1,67.06,106.5Z" fill="#473e73"/><path d="M67.47,79.31s-4.56,19.8-3.53,25,4,6.7,4,6.7l-2.19.43-5.58-3.58a6,6,0,0,1,.64-2.18c.34-.55.13-2.18,0-3.58s-1.41-11.73-.85-15.4a49.7,49.7,0,0,1,1.79-7.34Z" fill="#feadae"/><path d="M71.37,56.31a53.13,53.13,0,0,1,.55,12.12c-.43,7.08-1.07,14.38-1.07,14.38A38.67,38.67,0,0,1,60,82.59a20.7,20.7,0,0,0,.77-3.11C60.7,79,60,70,60,70s-2.7-4.8-1.6-9.73a12.54,12.54,0,0,1,1.71-4Z" fill="#0088cc"/><path d="M59.07,31.47l-.52,2.07,7.21,5.1s-2.13-3.95-2.22-4.22A28.0008,28.0008,0,0,1,64.42,31l-4-3.33Z" fill="#feadae"/><path d="M61.88,35.9l3.49.67s3.73,4.76,4.1,5.87a16.88,16.88,0,0,1,.32,3.75Z" fill="#fbdb8a"/><path d="M60.15,28.31a21.54,21.54,0,0,0,3.53,5.27c.25-1,.73-2.62.73-2.62l-4-3.33Z" fill="#e5989b"/><path d="M66.89,21.44s1.18,3.52,1.18,3.87-.16.78-.13.94.83,1.6.83,1.71-.62.43-.89.53c0,0-.06.54-.06.57a4.81,4.81,0,0,1-.48.34,1.5,1.5,0,0,1,0,.38S67,30,67,30.2a14.207,14.207,0,0,1-.18,1.46,1.39,1.39,0,0,1-.88.29,12,12,0,0,1-3.57-1.34,4.42,4.42,0,0,1-1.14-1.9s-2.66-2.22-1.5-5.07S64.91,19.78,66.89,21.44Z" fill="#feadae"/><ellipse cx="56.03" cy="25.73" rx="2.13" ry="2.86" fill="#3d4177"/><path d="M67.18,22.32s-.05-.71-1.13-.55S64.39,23.79,64,25a2.25,2.25,0,0,1-2.66,1.55l-2.27,4.9a16.69,16.69,0,0,0-1.52-3c-.94-1.42-1.86-4-.66-6.27s4.58-3.58,7.66-2.9a2.54,2.54,0,0,1,1.74-.08C67.42,19.7,67.41,21,67.18,22.32Z" fill="#3d4177"/><path d="M61.88,26.94s-.54-1.39-1.14-1.39-1,.93-.74,2.08,1.47,1.55,1.6,1.17A16.12,16.12,0,0,0,61.88,26.94Z" fill="#feadae"/><path d="M62.62,26a2.48,2.48,0,0,0-.29,1.74,1.5,1.5,0,0,1-.67-1.57Z" fill="#3d4177"/><path d="M57.59,34.35s-2.13,3.18-2.2,4.86.34,3.84,2.09,8.06S60,53.45,60,53.45s-2.5,6.22-2.79,8.68c-.13,1.07.3,3.05,6.49,3.65s7-.38,7.28-1.49a37.15,37.15,0,0,0,.53-10.22c-.51-3.26-.85-6.66-1.58-8.15S63.46,36.78,57.59,34.35Z" fill="#fbdb8a"/><path d="M68.78,56.31a6.21,6.21,0,0,0,2.91.2,17.4093,17.4093,0,0,0-.17-2.44c-.15-1-.29-2-.43-2.91l-13.77-7S67.85,55.71,68.78,56.31Z" fill="#7762ef" opacity="0.35" style="isolation:isolate"/><path d="M59,31.8s9.36,8.05,11,13.62v.49s-5.57-7.83-12.35-11.56Z" fill="#f4cf7a"/><path d="M80.49,50.16s2.9.15,3,.12S85.1,49,85.36,49.06a10.44,10.44,0,0,1,1.34.32c.13.08,3.73,2.69,3.71,2.77s-1.86,2.14-2.94,2-3.3-1.2-3.7-1.23-3.28.08-3.28.08Z" fill="#feadae"/><path d="M56.95,43.8S67.19,53.75,68.17,54s13.53-.3,13.53-.3l.17-4L69.79,49s-6.62-8.79-7.64-9.9-3.93-2.09-5.46-.64a3.64,3.64,0,0,0,.0478,5.1475Q56.84,43.7079,56.95,43.8Z" fill="#f4cf7a"/><path d="M59.79,108.94l.74,3.73H61a12.81,12.81,0,0,1,.35-1.87,4.3,4.3,0,0,1,.9-.94S60.66,108.75,59.79,108.94Z" fill="#473e73"/><path d="M60.46,106.5a35.42,35.42,0,0,0,3.13,2.12c1.41.81,2,1.6,2.45,1.56l.82-.07s1.1.45,1.74.64,2.26.83,2.65,1.92H66.08s-3.29-2.33-4.29-2.88a11.48,11.48,0,0,0-2-.85,2.85,2.85,0,0,1-.16-1.32A1.5,1.5,0,0,1,60.46,106.5Z" fill="#473e73"/></g></svg>