<svg id="Layer_1" data-name="Layer 1" xmlns="http://www.w3.org/2000/svg" width="40" height="40" viewBox="0 0 40 40"><title>coding-development</title><path d="M14.3834,17.8528a.6222.6222,0,0,0-.8529-.2163h0L6.28,21.9547a.6222.6222,0,0,0,0,1.0693l7.25,4.3181a.6223.6223,0,0,0,.6369-1.0693h0L7.8151,22.4894l6.3521-3.7835a.6222.6222,0,0,0,.2163-.8529Z" fill="#0088cc"/><path d="M25.6167,27.126a.622.622,0,0,0,.8526.2165l.0005,0,7.25-4.3181a.6223.6223,0,0,0,0-1.0693l-7.25-4.3181a.6223.6223,0,1,0-.6369,1.0693h0L32.185,22.49,25.8329,26.273a.6221.6221,0,0,0-.2163.8528Z" fill="#0088cc"/><path d="M22.3831,17.8243l-5.8,8.6363a.6223.6223,0,0,0,1.0333.6939l5.8-8.6363a.6223.6223,0,1,0-1.0333-.6939Z" fill="#0088cc"/><path d="M38.8777,2.367H1.1223A.6223.6223,0,0,0,.5,2.9893h0V37.0106a.6223.6223,0,0,0,.6223.6223H38.8777a.6223.6223,0,0,0,.6223-.6223V30.3723a.6224.6224,0,0,0-1.2447,0v6.016H1.7447V8.59H38.2553V30.883a.6224.6224,0,0,0,1.2447,0V2.9894a.6223.6223,0,0,0-.6222-.6224ZM1.7447,3.6117H24.7713v3.734H1.7447ZM26.016,7.3457V3.6117H38.2553v3.734Z" fill="#0088cc"/><path d="M32.1564,4.8149a.6638.6638,0,1,0,.6638.6638h0A.6646.6646,0,0,0,32.1564,4.8149Z" fill="#0088cc"/><path d="M28.7543,4.8149a.6638.6638,0,1,0,.6638.6638h0A.6646.6646,0,0,0,28.7543,4.8149Z" fill="#0088cc"/><path d="M35.5585,4.8149a.6638.6638,0,1,0,.6638.6638h0A.6646.6646,0,0,0,35.5585,4.8149Z" fill="#0088cc"/></svg>