<svg id="Layer_1" data-name="Layer 1" xmlns="http://www.w3.org/2000/svg" width="40" height="40" viewBox="0 0 40 40"><title>communication </title><path d="M20,12.393c-4.1739,0-6.7665,2.1368-6.7665,5.5984a.7123.7123,0,0,0,.7123.7123H26.0542a.7123.7123,0,0,0,.7123-.7123C26.7665,14.5369,24.1739,12.393,20,12.393Zm-5.2921,4.8861c.47-3.1981,4.124-3.4616,5.2921-3.4616s4.822.2635,5.2921,3.4616Z" fill="#0088cc"/><path d="M20,4.9142a3.3833,3.3833,0,1,0,3.3833,3.3833A3.3832,3.3832,0,0,0,20,4.9142Zm0,5.342a1.9587,1.9587,0,1,1,1.9587-1.9587A1.9588,1.9588,0,0,1,20,10.2562Z" fill="#0088cc"/><path d="M7.8915,28.7751c-4.1739,0-6.7665,2.1368-6.7665,5.5984a.7123.7123,0,0,0,.7123.7123H13.9458a.7123.7123,0,0,0,.7123-.7123C14.658,30.919,12.0654,28.7751,7.8915,28.7751ZM2.5994,33.6612C3.0695,30.4632,6.7163,30.2,7.8915,30.2s4.822.2635,5.2921,3.4616Z" fill="#0088cc"/><path d="M7.8915,21.2963A3.3833,3.3833,0,1,0,11.2748,24.68,3.3832,3.3832,0,0,0,7.8915,21.2963Zm0,5.342A1.9587,1.9587,0,1,1,9.85,24.68,1.9588,1.9588,0,0,1,7.8915,26.6383Z" fill="#0088cc"/><path d="M32.1085,28.7751c-4.1739,0-6.7665,2.1368-6.7665,5.5984a.7123.7123,0,0,0,.7123.7123H38.1627a.7123.7123,0,0,0,.7123-.7123C38.875,30.919,36.2824,28.7751,32.1085,28.7751Zm-5.2921,4.8861c.47-3.1981,4.1169-3.4616,5.2921-3.4616s4.822.2635,5.2921,3.4616Z" fill="#0088cc"/><path d="M32.1085,21.2963A3.3833,3.3833,0,1,0,35.4917,24.68,3.3832,3.3832,0,0,0,32.1085,21.2963Zm0,5.342A1.9587,1.9587,0,1,1,34.0672,24.68,1.9588,1.9588,0,0,1,32.1085,26.6383Z" fill="#0088cc"/><path d="M23.6824,27.5429l-2.97-2.9844V20.3561a.7123.7123,0,1,0-1.4245,0v4.2024l-2.97,2.97a.7152.7152,0,1,0,1.0043,1.0185L20,25.8619l2.6781,2.6852a.7123.7123,0,0,0,1.0043-1.0043Z" fill="#0088cc"/></svg>