<svg id="Layer_1" data-name="Layer 1" xmlns="http://www.w3.org/2000/svg" width="40" height="40" viewBox="0 0 40 40"><title>Connect-with-us</title><path d="M31.1007,24.4481c-.7523-1.5684-3.4436-3.7455-6.0439-5.8491-1.45-1.1724-2.8207-2.2808-3.6944-3.1545a.7983.7983,0,0,0-.8353-.1869c-.5382.1949-.8705.345-1.1324.4616a2.6411,2.6411,0,0,1-1.0718.2939.7983.7983,0,0,0-.5846.35c-1.1293,1.6882-2.2984,1.5445-3.08,1.2826-.2492-.083-.2939-.19-.3178-.2923-.1677-.7012.6741-2.3335,1.7649-3.4245,2.5955-2.5971,3.934-3.2472,6.761-1.9838,3.2072,1.4343,6.4208,2.5572,6.4528,2.5683a.7991.7991,0,1,0,.5254-1.5094h0c-.032-.0112-3.1817-1.1117-6.325-2.5188-3.6624-1.6372-5.6718-.5591-8.542,2.3128-1.0925,1.0925-2.5763,3.303-2.193,4.9243a1.9754,1.9754,0,0,0,1.372,1.4391,3.9965,3.9965,0,0,0,4.691-1.6068,4.0318,4.0318,0,0,0,1.1995-.38c.15-.0671.3258-.1453.5591-.24.9136.8577,2.1467,1.8559,3.4452,2.9053,2.3479,1.8991,5.01,4.0522,5.6095,5.298a.9358.9358,0,0,1-.238,1.1995.88.88,0,0,1-.9839.1932.7984.7984,0,0,0-1.2474.7427.9648.9648,0,0,1-.6118.8993,1.2257,1.2257,0,0,1-1.2443.0288.7984.7984,0,0,0-1.34.51,1.5175,1.5175,0,0,1-.9424,1.2234.8421.8421,0,0,1-.9168-.1422.8079.8079,0,0,0-.73-.1853.7974.7974,0,0,0-.5606.5031c-.03.08-.0991.2716-.8466.2716a4.5987,4.5987,0,0,1-1.9566-.6693c-.5606-.369-4.0761-2.9916-7.1124-5.5344-.4265-.3594-1.1644-1.1293-1.816-1.81-.5782-.6037-1.1069-1.1516-1.3784-1.3816a.799.799,0,0,0-1.0318,1.22c.2476.2093.7268.7155,1.2554,1.2666.7124.7443,1.4487,1.5142,1.9438,1.93,2.9741,2.49,6.5486,5.1782,7.2609,5.6462a6.1271,6.1271,0,0,0,2.8351.93,2.7487,2.7487,0,0,0,1.8128-.5334,2.486,2.486,0,0,0,1.816-.0192,3.146,3.146,0,0,0,1.6627-1.5349,3.0884,3.0884,0,0,0,2.0045-.2891A2.71,2.71,0,0,0,28.63,28.2095a2.6118,2.6118,0,0,0,1.832-.6565A2.5391,2.5391,0,0,0,31.1007,24.4481Z" fill="#0088cc"/><path d="M16.8055,11.2151H9.618a.7987.7987,0,1,0,0,1.5973h7.1875a.7987.7987,0,0,0,0-1.5973Z" fill="#0088cc"/><path d="M33.4406,22.7486a.7966.7966,0,0,0-1.105-.22l-.0034.0023L29.9971,24.1a.7987.7987,0,1,0,.8913,1.3257h0l2.3351-1.5684A.7993.7993,0,0,0,33.4406,22.7486Z" fill="#0088cc"/><path d="M28.4828,26.56c-.5718-.45-3.129-3.0682-4.71-4.7166A.7987.7987,0,0,0,22.62,22.9487c.41.428,4.0314,4.2023,4.8731,4.8668a.7953.7953,0,0,0,.4935.1709.8069.8069,0,0,0,.6293-.3051.798.798,0,0,0-.1321-1.1208Z" fill="#0088cc"/><path d="M25.2916,28.1616c-.9568-.7651-3.3605-3.3191-3.9036-3.91a.7992.7992,0,0,0-1.1772,1.0813h0c.0288.03,2.8974,3.1274,4.0825,4.0761a.7989.7989,0,0,0,.9983-1.2475Z" fill="#0088cc"/><path d="M22.1131,29.77c-1.1388-.96-3.4692-3.44-3.9244-3.9276A.799.799,0,1,0,17.01,26.9218l.0108.0115c.6549.7012,2.8846,3.0651,4.0618,4.0585a.7991.7991,0,0,0,1.03-1.2219Z" fill="#0088cc"/><path d="M10.1675,9.8367C8.7987,8.54,3.325,8.12,1.68,8.0222A.7979.7979,0,0,0,.8349,8.77q-.0015.0246-.0015.0493v14.375a.7989.7989,0,0,0,.7986.7986H6.4236a.7978.7978,0,0,0,.7587-.551c.1166-.3578,2.8686-8.8039,3.2312-12.9567A.7945.7945,0,0,0,10.1675,9.8367ZM5.8406,22.3957h-3.41V9.6754a24.2632,24.2632,0,0,1,6.3426,1.1324A83.8,83.8,0,0,1,5.8406,22.3957Z" fill="#0088cc"/><path d="M38.368,9.6179c-6.2707,0-9.75,1.6052-9.8948,1.6723a.7946.7946,0,0,0-.4265.4968.8053.8053,0,0,0,.0878.6484c.9871,1.5893,4.0777,10.4155,4.6719,12.5685a.7985.7985,0,0,0,.77.5862H38.368a.7989.7989,0,0,0,.7986-.7986V10.4164a.7979.7979,0,0,0-.7973-.7985Zm-.7986,14.375H34.1738c-.7571-2.4661-2.9932-8.8966-4.2406-11.5543a26.0113,26.0113,0,0,1,7.6363-1.2139Z" fill="#0088cc"/></svg>