<svg id="Layer_1" data-name="Layer 1" xmlns="http://www.w3.org/2000/svg" width="40" height="40" viewBox="0 0 40 40"><title>control-team</title><path d="M22.8628,9.1516a4.2583,4.2583,0,1,0-5.7256,0A5.482,5.482,0,0,0,12.7,14.525v2.4333a.6082.6082,0,0,0,.6083.6083H26.6917a.6082.6082,0,0,0,.6083-.6083V14.525A5.482,5.482,0,0,0,22.8628,9.1516ZM16.9583,6.0083A3.0417,3.0417,0,1,1,20,9.05,3.0451,3.0451,0,0,1,16.9583,6.0083ZM26.0833,16.35H13.9167V14.525a4.2634,4.2634,0,0,1,4.2583-4.2583h3.65a4.2634,4.2634,0,0,1,4.2583,4.2583Z" fill="#0088cc"/><path d="M11.9128,29.8349a4.2583,4.2583,0,1,0-5.7256,0A5.482,5.482,0,0,0,1.75,35.2083v2.4333a.6082.6082,0,0,0,.6083.6083H15.7417a.6082.6082,0,0,0,.6083-.6083V35.2083A5.482,5.482,0,0,0,11.9128,29.8349ZM6.0083,26.6917A3.0417,3.0417,0,1,1,9.05,29.7333,3.0451,3.0451,0,0,1,6.0083,26.6917Zm9.125,10.3417H2.9667v-1.825A4.2634,4.2634,0,0,1,7.225,30.95h3.65a4.2634,4.2634,0,0,1,4.2583,4.2583Z" fill="#0088cc"/><path d="M33.8128,29.8349a4.2583,4.2583,0,1,0-5.7256,0A5.482,5.482,0,0,0,23.65,35.2083v2.4333a.6082.6082,0,0,0,.6083.6083H37.6417a.6082.6082,0,0,0,.6083-.6083V35.2083A5.482,5.482,0,0,0,33.8128,29.8349Zm-5.9045-3.1433A3.0417,3.0417,0,1,1,30.95,29.7333,3.0451,3.0451,0,0,1,27.9083,26.6917Zm9.125,10.3417H24.8667v-1.825A4.2634,4.2634,0,0,1,29.125,30.95h3.65a4.2634,4.2634,0,0,1,4.2583,4.2583Z" fill="#0088cc"/><path d="M5.4116,21.1972l-1.2155.0475c.0164.4191.05.8438.1,1.2611l1.2082-.1448C5.4578,21.9759,5.4268,21.5841,5.4116,21.1972Z" fill="#0088cc"/><path d="M4.2953,18.7207c-.0493.4149-.0833.8389-.0992,1.26l1.2155.0474c.0152-.3893.0462-.78.0919-1.1643Z" fill="#0088cc"/><path d="M10.4121,8.0268c-.3328.2537-.6607.525-.9752.8073l.8133.9052c.29-.26.5919-.511.8991-.7446Z" fill="#0088cc"/><path d="M5.6841,13.8741c-.1789.38-.3443.772-.4927,1.1668l1.1388.4277c.1369-.3638.29-.7251.4544-1.0749Z" fill="#0088cc"/><path d="M4.7935,16.2423c-.1156.4021-.216.8164-.2993,1.2288l1.1929.24c.0766-.38.1691-.7622.2762-1.1339Z" fill="#0088cc"/><path d="M8.5311,9.7173c-.2914.3066-.5712.626-.834.95l.946.7653c.2421-.2993.5013-.5949.77-.8778Z" fill="#0088cc"/><path d="M12.5376,6.66c-.368.1965-.7349.4125-1.0913.6418l.6594,1.0232c.3285-.2123.6667-.4112,1.005-.5919Z" fill="#0088cc"/><path d="M6.9415,11.681c-.2379.3474-.4642.7075-.6728,1.0719l1.0555.6047c.1922-.3358.4015-.6686.6211-.9885Z" fill="#0088cc"/><path d="M17.1177,34.9236l-.24,1.1929c.4094.0827.83.149,1.2507.1983l.1411-1.2082C17.883,35.0611,17.4949,35,17.1177,34.9236Z" fill="#0088cc"/><path d="M22.9206,34.9163c-.3778.0766-.7653.1393-1.1534.1868l.1466,1.2082c.42-.0511.84-.1192,1.2483-.202Z" fill="#0088cc"/><path d="M20.6041,35.1962c-.3887.0152-.7817.017-1.168.0018l-.0481,1.2155c.2026.0085.407.0122.6138.0122.2178-.0012.435-.0055.6509-.014Z" fill="#0088cc"/><path d="M30.5655,8.8389l-.8127.9052c.29.26.5706.5341.8365.814l.8833-.8365C31.1842,9.4174,30.8794,9.1206,30.5655,8.8389Z" fill="#0088cc"/><path d="M32.3054,10.6712l-.946.7653c.2427.3.4775.6156.6978.9368l1.0031-.688C32.8218,11.3379,32.5682,10.9967,32.3054,10.6712Z" fill="#0088cc"/><path d="M35.8039,19.983l-1.2155.0474c.0079.1916.0116.3851.0116.5779,0,.1977-.0037.3942-.0116.5907l1.2155.0474q.0128-.3175.0128-.6394C35.8167,20.3985,35.8124,20.19,35.8039,19.983Z" fill="#0088cc"/><path d="M33.7337,12.756l-1.0561.6053c.1928.3364.3741.685.54,1.0354l1.1-.52C34.1389,13.4975,33.9424,13.12,33.7337,12.756Z" fill="#0088cc"/><path d="M34.81,15.0433l-1.1388.4283c.1363.3626.2591.7355.3662,1.1078l1.17-.3352C35.0915,15.84,34.9577,15.4363,34.81,15.0433Z" fill="#0088cc"/><path d="M35.5052,17.4736l-1.1923.24c.0766.3808.1387.7689.1837,1.1534l1.2082-.1436C35.6555,18.307,35.5885,17.8866,35.5052,17.4736Z" fill="#0088cc"/><path d="M28.5574,7.3041l-.6588,1.0232c.3249.2093.6461.435.9557.6716l.7385-.9679C29.2576,7.7749,28.91,7.531,28.5574,7.3041Z" fill="#0088cc"/><path d="M26.3291,6.1093l-.4873,1.1145c.3547.1551.7075.3267,1.05.51l.5755-1.0719C27.0968,6.4628,26.7136,6.2766,26.3291,6.1093Z" fill="#0088cc"/></svg>