<svg id="Layer_1" data-name="Layer 1" xmlns="http://www.w3.org/2000/svg" width="40" height="40" viewBox="0 0 40 40"><title>crossplatform-ic</title><path d="M17.129,3.3333H5.1238A1.9294,1.9294,0,0,0,3.1961,5.261v8.6232a1.9294,1.9294,0,0,0,1.9277,1.9277h5.3235v1.7493H8.7048a.6792.6792,0,1,0,0,1.3583h4.83a.6792.6792,0,1,0,0-1.3583H11.7987V15.8119h5.3235A1.9294,1.9294,0,0,0,19.05,13.8842v-8.63A1.9265,1.9265,0,0,0,17.129,3.3333Zm.5625,10.544a.5724.5724,0,0,1-.5694.5694H5.117a.568.568,0,0,1-.5694-.5694V5.2542a.5724.5724,0,0,1,.5694-.5694H17.1222a.568.568,0,0,1,.5694.5694Z" fill="#0088cc"/><path d="M34.8762,21.08H22.871a1.9294,1.9294,0,0,0-1.9277,1.9277v8.6232A1.9294,1.9294,0,0,0,22.871,33.559h5.3235v1.7493H26.4588a.6792.6792,0,1,0,0,1.3583h4.83a.6792.6792,0,0,0,0-1.3583H29.5527V33.559h5.3235a1.9294,1.9294,0,0,0,1.9277-1.9277v-8.63A1.9324,1.9324,0,0,0,34.8762,21.08Zm.5625,10.544a.5724.5724,0,0,1-.5694.5694H22.8641a.568.568,0,0,1-.5694-.5694V23.0013a.5724.5724,0,0,1,.5694-.5694H34.8693a.5724.5724,0,0,1,.5694.5694Z" fill="#0088cc"/><path d="M28.8667,8.89h-6.572a.6792.6792,0,0,0,0,1.3583h5.8928v6.4965L27.186,15.7433a.6791.6791,0,0,0-.96.96l2.1609,2.1609a.679.679,0,0,0,.96,0l2.1609-2.1609a.6791.6791,0,0,0-.96-.96l-1.0016,1.0016V9.5692A.6763.6763,0,0,0,28.8667,8.89Z" fill="#0088cc"/><path d="M17.6984,30.1084H11.8056V23.6119l1.0016,1.0016a.679.679,0,0,0,.96,0,.6749.6749,0,0,0,0-.96l-2.1609-2.1609a.6749.6749,0,0,0-.96,0L8.4853,23.653a.6791.6791,0,0,0,.96.96l1.0016-1.0016v7.1757a.6763.6763,0,0,0,.6792.6792h6.572a.6792.6792,0,0,0,0-1.3583Z" fill="#0088cc"/></svg>