<svg id="Layer_1" data-name="Layer 1" xmlns="http://www.w3.org/2000/svg" width="40" height="40" viewBox="0 0 40 40"><title>customization-ic</title><path d="M20.37,37.3884l1.769-.7293A1.8538,1.8538,0,0,0,23.1427,34.24l-.4549-1.0975a11.2638,11.2638,0,0,0,2.325-2.325l1.0975.4549a1.8517,1.8517,0,0,0,2.4188-1.0036l.7365-1.769a1.8513,1.8513,0,0,0-1.0036-2.4188L26.6373,25.41a.714.714,0,0,0-.5415,1.3213l1.6246.6715a.4281.4281,0,0,1,.2311.556l-.7365,1.769a.4257.4257,0,0,1-.556.2311l-1.6246-.6715a.713.713,0,0,0-.8664.26A9.7856,9.7856,0,0,1,21.417,32.298a.7186.7186,0,0,0-.2672.8664l.6715,1.6246a.4307.4307,0,0,1-.2311.556l-1.769.7293a.4257.4257,0,0,1-.556-.2311l-.6715-1.6246a.7035.7035,0,0,0-.8015-.426,9.9078,9.9078,0,0,1-3.8845,0,.7239.7239,0,0,0-.8015.426l-.6715,1.6246a.4281.4281,0,0,1-.556.2311l-1.769-.7365a.4257.4257,0,0,1-.2311-.556l.6715-1.6246a.713.713,0,0,0-.26-.8664A9.7856,9.7856,0,0,1,7.54,29.54a.7186.7186,0,0,0-.8664-.2672l-1.6246.6715a.4257.4257,0,0,1-.556-.2311l-.7293-1.769a.4257.4257,0,0,1,.2311-.556l1.6246-.6715a.7113.7113,0,0,0,.426-.8015,9.9078,9.9078,0,0,1,0-3.8845.7239.7239,0,0,0-.426-.8015l-1.6246-.6715a.4281.4281,0,0,1-.2311-.556L4.5,18.2328a.4281.4281,0,0,1,.556-.2311l1.6246.6715a.713.713,0,0,0,.8664-.26,9.7856,9.7856,0,0,1,2.7509-2.7509.7186.7186,0,0,0,.2672-.8664l-.6715-1.6246a.4257.4257,0,0,1,.2311-.556l1.769-.7293a.4257.4257,0,0,1,.556.2311l.6715,1.6246A.714.714,0,1,0,14.4421,13.2l-.6715-1.6246A1.8482,1.8482,0,0,0,12.767,10.572a1.8783,1.8783,0,0,0-.7076-.1444,1.85,1.85,0,0,0-.7076.1444l-1.769.7293A1.8517,1.8517,0,0,0,8.5792,13.72l.4549,1.0975a11.2638,11.2638,0,0,0-2.3249,2.3249l-1.0975-.4549a1.8513,1.8513,0,0,0-2.4188,1.0036L2.4492,19.46a1.8513,1.8513,0,0,0,1.0036,2.4188L4.55,22.334a11.3837,11.3837,0,0,0,0,3.2853l-1.0975.4549a1.8517,1.8517,0,0,0-1.0036,2.4188l.7293,1.769a1.8517,1.8517,0,0,0,2.4188,1.0036l1.0975-.4549A11.2638,11.2638,0,0,0,9.02,33.1356l-.4549,1.0975a1.8517,1.8517,0,0,0,1.0036,2.4188l1.769.7365a1.8513,1.8513,0,0,0,2.4188-1.0036l.4549-1.0975a11.3837,11.3837,0,0,0,3.2853,0l.4549,1.0975A1.8518,1.8518,0,0,0,20.37,37.3884Z" fill="#0088cc"/><path d="M10.045,24.0235a5.8181,5.8181,0,0,0,5.8124,5.7691h.0433a5.8179,5.8179,0,0,0,5.7763-5.8557.715.715,0,0,0-.7148-.7076h-.0072a.7074.7074,0,0,0-.7076.722A4.3882,4.3882,0,0,1,15.8934,28.37h-.0289a4.3864,4.3864,0,0,1-.0289-8.7727.7074.7074,0,0,0,.7076-.722.715.715,0,0,0-.7148-.7076h-.0072A5.82,5.82,0,0,0,10.045,24.0235Z" fill="#0088cc"/><path d="M27.9225,2.4708H26.529A1.5469,1.5469,0,0,0,24.9838,4.016v.7148a8.1879,8.1879,0,0,0-1.9784.8231L22.5,5.0485a1.5413,1.5413,0,0,0-1.09-.4549,1.5117,1.5117,0,0,0-1.09.4549l-.982.982a1.5413,1.5413,0,0,0-.4549,1.09,1.5117,1.5117,0,0,0,.4549,1.09l.5054.5054a8.1879,8.1879,0,0,0-.8231,1.9784H18.305A1.5469,1.5469,0,0,0,16.76,12.24v1.3935a1.5469,1.5469,0,0,0,1.5452,1.5452H19.02a8.1879,8.1879,0,0,0,.8231,1.9784l-.5054.5054a1.5413,1.5413,0,0,0-.4549,1.09,1.5117,1.5117,0,0,0,.4549,1.09l.982.982a1.5413,1.5413,0,0,0,1.09.4549,1.5117,1.5117,0,0,0,1.09-.4549l.5054-.5054a8.1879,8.1879,0,0,0,1.9784.8231v.7148a1.5469,1.5469,0,0,0,1.5452,1.5452h1.3935a1.5469,1.5469,0,0,0,1.5452-1.5452v-.7148a8.1879,8.1879,0,0,0,1.9784-.8231l.5054.5054a1.5413,1.5413,0,0,0,1.09.4549,1.5117,1.5117,0,0,0,1.09-.4549l.982-.982a1.5471,1.5471,0,0,0,0-2.1805l-.5054-.5054a8.1879,8.1879,0,0,0,.8231-1.9784h.7148a1.5469,1.5469,0,0,0,1.5452-1.5452V12.24a1.5469,1.5469,0,0,0-1.5452-1.5452h-.7148a8.1879,8.1879,0,0,0-.8231-1.9784l.5054-.5054a1.5471,1.5471,0,0,0,0-2.1805l-.982-.982a1.5413,1.5413,0,0,0-1.09-.4549,1.5117,1.5117,0,0,0-1.09.4549l-.5054.5054a8.1879,8.1879,0,0,0-1.9784-.8231V4.016A1.5563,1.5563,0,0,0,27.9225,2.4708ZM31.15,7.0485a.7334.7334,0,0,0,.3971.1227.71.71,0,0,0,.5054-.2094l.9025-.9025a.1054.1054,0,0,1,.1588,0l.982.982a.1133.1133,0,0,1,0,.1588l-.9025.9025a.711.711,0,0,0-.0866.9025,6.9633,6.9633,0,0,1,1.0542,2.5416.7185.7185,0,0,0,.7.5776h1.278a.114.114,0,0,1,.1155.1155v1.3935a.114.114,0,0,1-.1155.1155h-1.278a.7114.7114,0,0,0-.7.5776,6.9633,6.9633,0,0,1-1.0542,2.5416.72.72,0,0,0,.0866.9025l.9025.9025a.1133.1133,0,0,1,0,.1588l-.982.982a.1054.1054,0,0,1-.1588,0l-.9025-.917A.711.711,0,0,0,31.15,18.81a6.9633,6.9633,0,0,1-2.5416,1.0542.7185.7185,0,0,0-.5776.7v1.278a.114.114,0,0,1-.1155.1155H26.5218a.114.114,0,0,1-.1155-.1155V20.565a.7114.7114,0,0,0-.5776-.7A6.9633,6.9633,0,0,1,23.2871,18.81a.72.72,0,0,0-.9025.0866L21.482,19.8a.1054.1054,0,0,1-.1588,0l-.982-.982a.1054.1054,0,0,1,0-.1588l.9025-.9025a.711.711,0,0,0,.0866-.9025,6.9633,6.9633,0,0,1-1.0542-2.5416.7185.7185,0,0,0-.7-.5776h-1.278a.114.114,0,0,1-.1155-.1155V12.2255a.114.114,0,0,1,.1155-.1155h1.278a.7114.7114,0,0,0,.7-.5776A6.9633,6.9633,0,0,1,21.33,8.9908a.72.72,0,0,0-.0866-.9025l-.9025-.9025a.1054.1054,0,0,1,0-.1588l.982-.982a.1054.1054,0,0,1,.1588,0l.9025.9025a.711.711,0,0,0,.9025.0866A6.9633,6.9633,0,0,1,25.8286,5.98a.7185.7185,0,0,0,.5776-.7V4.016A.114.114,0,0,1,26.5218,3.9h1.3935a.114.114,0,0,1,.1155.1155V5.294a.7114.7114,0,0,0,.5776.7A6.9633,6.9633,0,0,1,31.15,7.0485Z" fill="#0088cc"/><path d="M22.9838,12.9259A4.2456,4.2456,0,1,0,27.2294,8.68,4.2525,4.2525,0,0,0,22.9838,12.9259Zm7.0543,0A2.8159,2.8159,0,1,1,27.2221,10.11,2.82,2.82,0,0,1,30.0381,12.9259Z" fill="#0088cc"/></svg>