<svg id="Layer_1" data-name="Layer 1" xmlns="http://www.w3.org/2000/svg" width="40" height="40" viewBox="0 0 40 40"><title>dating-ic</title><path d="M7.9758,4.54H9.121V5.6855H7.9758Z" fill="#0088cc"/><path d="M36.25,3.75h-2.6V2.45a1.95,1.95,0,0,0-3.9,0v1.3H10.25V2.45a1.95,1.95,0,0,0-3.9,0v1.3H3.75A3.2538,3.2538,0,0,0,.5,7V36.25A3.2539,3.2539,0,0,0,3.75,39.5h32.5a3.254,3.254,0,0,0,3.25-3.25V7A3.254,3.254,0,0,0,36.25,3.75Zm-5.2-1.3a.65.65,0,1,1,1.3-.0013V6.35a.65.65,0,1,1-1.3.0013V2.45Zm-23.4,0a.65.65,0,1,1,1.3,0v3.9a.65.65,0,1,1-1.3,0ZM38.2,36.25a1.95,1.95,0,0,1-1.95,1.95H3.75A1.95,1.95,0,0,1,1.8,36.25h0v-.6669a3.2161,3.2161,0,0,0,1.95.6669h32.5a3.2162,3.2162,0,0,0,1.95-.6669Zm0-3.9V33a1.95,1.95,0,0,1-1.95,1.95H3.75A1.95,1.95,0,0,1,1.8,33h0V12.2H38.2Zm0-21.45H1.8V7A1.95,1.95,0,0,1,3.75,5.05h2.6v1.3a1.95,1.95,0,0,0,3.9,0V5.05h19.5v1.3a1.95,1.95,0,0,0,3.9,0V5.05h2.6A1.95,1.95,0,0,1,38.2,7h0Z" fill="#0088cc"/><path d="M19.6535,32.25a.65.65,0,0,0,.6929,0c2.1157-1.3345,5.8838-4.017,7.345-6.9771,1.911-3.6159,1.86-7.3092-.13-9.19a4.8858,4.8858,0,0,0-4.14-1.2155A5.33,5.33,0,0,0,20,17.0224a5.33,5.33,0,0,0-3.4216-2.1573,4.88,4.88,0,0,0-4.14,1.2155c-1.9883,1.88-2.04,5.5737-.1365,9.1734C13.77,28.2336,17.5378,30.9154,19.6535,32.25ZM13.331,17.0276A3.5748,3.5748,0,0,1,15.7659,16.1a3.6636,3.6636,0,0,1,.6012.0494,4.3,4.3,0,0,1,3.055,2.392.6766.6766,0,0,0,1.1491,0,4.3,4.3,0,0,1,3.055-2.392,3.6269,3.6269,0,0,1,3.0361.8775c1.56,1.4748,1.5074,4.5435-.1365,7.6537-1.2857,2.6065-4.7671,5.1018-6.5325,6.2471-1.7654-1.1453-5.2475-3.64-6.5409-6.2634C11.8236,21.571,11.7723,18.505,13.331,17.0276Z" fill="#0088cc"/></svg>