<svg id="Layer_1" data-name="Layer 1" xmlns="http://www.w3.org/2000/svg" width="40" height="40" viewBox="0 0 40 40"><title>deployment</title><path d="M32.2181,11.3908A11.297,11.297,0,0,0,11.2866,7.6376,6.4714,6.4714,0,0,0,10.1,7.5253a6.1916,6.1916,0,0,0-6.1832,6.1832,6.7589,6.7589,0,0,0,.1283,1.2832A8.6043,8.6043,0,0,0,.5,21.9287a9.1988,9.1988,0,0,0,2.3337,6.087A8.3294,8.3294,0,0,0,8.608,30.9189h6.9611a1.0827,1.0827,0,0,0,0-2.1653H8.7042a6.8287,6.8287,0,0,1-6.0389-6.8328,6.4278,6.4278,0,0,1,3.1838-5.5336,1.0915,1.0915,0,0,0,.4732-1.3152,3.9287,3.9287,0,0,1-.2406-1.3794A4.025,4.025,0,0,1,10.1,9.6746a3.9492,3.9492,0,0,1,1.3714.2406,1.0877,1.0877,0,0,0,1.3553-.5534A9.1309,9.1309,0,0,1,30.173,12.3692a1.0814,1.0814,0,0,0,.8982.9624,7.8045,7.8045,0,0,1-.7378,15.4139h-5.91a1.0827,1.0827,0,1,0-.0208,2.1653h6.0516a9.5947,9.5947,0,0,0,6.4318-3.1758A9.9815,9.9815,0,0,0,32.218,11.3908Z" fill="#0088cc"/><path d="M26.5,22.9553a1.0794,1.0794,0,0,0,.0053-1.5265L26.5,21.4235l-5.7341-5.7341a1.0955,1.0955,0,0,0-.7619-.3208,1.0619,1.0619,0,0,0-.7619.3208L13.508,21.4235a1.0867,1.0867,0,0,0,.7619,1.8526,1.0564,1.0564,0,0,0,.7619-.3208l3.89-3.89v17.876a1.0827,1.0827,0,0,0,2.1653,0V19.0657l3.89,3.89a1.07,1.07,0,0,0,1.5132.0093Z" fill="#0088cc"/></svg>