<svg id="Layer_1" data-name="Layer 1" xmlns="http://www.w3.org/2000/svg" width="170" height="120" viewBox="0 0 170 120"><title>developement</title><path d="M155.57,88.9812c10.2842-11.1547,14.18-21.2037,13.3668-35.6942-.6194-11.0341-2.4325-22.496-16.8245-29.0289-21.9619-9.9676-33.6962,10.0162-55.5827,6.3856-18.8187-3.1227-19.09-21.03-38.9182-26.456C47.2614,1.354,33.568,6.6209,19.4064,20.3006-5.5639,44.42-8.33,99.36,45.4023,116.11,84.515,128.3027,134.1366,112.2317,155.57,88.9812Z" fill="#f1f3f7"/><path d="M37.4637,101.9543l.0162.0017a2.66,2.66,0,0,1,2.5937-2.0884h3.4435V93.9581h.5247V81.2841h.347v-.105h.514v.105h.8182v12.674h.42v5.9095h3.077a2.66,2.66,0,0,1,2.5965,2.0987,1.1641,1.1641,0,1,1-.3631.0143,2.3029,2.3029,0,0,0-2.2334-1.7574H45.0593v1.7492a1.1818,1.1818,0,1,1-.3556,0v-1.749h-4.63a2.3033,2.3033,0,0,0-2.243,1.795,1.168,1.168,0,1,1-.3669-.0639Z" fill="#524e64"/><rect x="34.311" y="51.9433" width="7.149" height="27.8784" rx="3.1633" ry="3.1633" transform="translate(-7.2967 4.7729) rotate(-6.577)" fill="#524e64"/><path d="M59.8551,78.7968H39.0022a2.6633,2.6633,0,0,0,0,5.3265h20.853a2.6633,2.6633,0,0,0,0-5.3265Z" fill="#524e64"/><path d="M51.1559,60.0185,52.77,67.7571l-5.0454.6477s-.4366-8.0415,0-8.0834S51.1559,60.0185,51.1559,60.0185Z" fill="#feadae"/><path d="M46.43,52.2473s5.0412.712,5.9486,8.3829a4.0562,4.0562,0,0,1-3.6556,1.1951Z" fill="#fbdb8a"/><path d="M44.2448,51.98s-4.9117-.4869-6.6424,2.9745,3.3172,7.0672,1.5865,15l10.8891-.5771V62.3821a4.8384,4.8384,0,0,0-.8271-5.9943S49.0838,51.6732,44.2448,51.98Z" fill="#fbdb8a"/><path d="M60.4458,71.0772s3.5317-1.3076,4.4789,2.117,4.8821,25.7985,4.8821,25.7985H66.6525l-1.856-8.8944s-2.6179-2.9145-3.42-9.108L50.3732,79.6788Z" fill="#feadae"/><path d="M53.2276,79.2651a21.0117,21.0117,0,0,0,5.1952-1.11c3.3236-1.06,5.6927.0622,4.3833,3.8029s-7.9171,21.0687-7.9171,21.0687l-2.502-.7479,2.16-11.2191s.5089-5.5657,2.8565-8.83a55.2061,55.2061,0,0,1-6.6264-.0127C49.091,81.9579,53.2276,79.2651,53.2276,79.2651Z" fill="#feadae"/><path d="M39.1889,69.954A7.4605,7.4605,0,0,0,40,79.9056s2.4749,2.8789,13.3767,2.43c0,0,2.8578-9.6512,8.9426-12.2471L49.7315,68.4048Z" fill="#0088cc"/><path d="M44.5118,39.16s1.2983-5.2912-3.2034-5.3212c-3.332-.022-4.3224,3.959-.2378,6.6234Z" fill="#3d4177"/><path d="M40.923,41.4272A2.4446,2.4446,0,0,1,42.43,38.294a2.1556,2.1556,0,0,1,3.0608,1.4388Z" fill="#fbdb8a"/><path d="M49.7437,46.16s3.3515-1.9837-.2716-5.9681a5.7226,5.7226,0,0,0-8.443.1176c-2.2088,2.469-.1278,6.8235-.1278,6.8235l1.5048-2.5007,1.3153-1.94,1.8847-.7534,1.4778.1019,1.2506.16,1.0094.4226Z" fill="#3d4177"/><rect x="42.8413" y="47.4906" width="3.7998" height="5.9877" transform="matrix(0.9919, 0.1274, -0.1274, 0.9919, 6.7943, -5.2873)" fill="#feadae"/><path d="M42.8411,49.0427s.4087,2.1627,2.1437,2.5971a1.3818,1.3818,0,0,0,1.46-.4679.8941.8941,0,0,0,.1768-.4171c.08-.6244-1.5653-1.7138-1.5653-1.7138Z" fill="#e5989b"/><path d="M45.4971,50.5813l-.1929-.0245a3.9487,3.9487,0,0,1-3.4132-4.4193l.2208-1.7168a3.9477,3.9477,0,0,1,4.4188-3.4128l.1929.0245a3.9481,3.9481,0,0,1,3.4132,4.4193l-.22,1.7168A3.9483,3.9483,0,0,1,45.4971,50.5813Z" fill="#feadae"/><path d="M42.3123,45.709a4.0361,4.0361,0,0,0,2.6445-3.9281s.1718-2.2714-2.202-.17A2.7174,2.7174,0,0,0,42.3123,45.709Z" fill="#3d4177"/><circle cx="41.5916" cy="46.3694" r="1.3295" transform="translate(-9.6941 81.7212) rotate(-82.688)" fill="#feadae"/><path d="M43.78,44.1851l-.1231.959c-.2758,1.3555-.847.9451-1.0589.3592h0Z" fill="#3d4177"/><path d="M50.55,43.6918s-2.7681,2.0747-6.8281-.9989c-2.799-2.1191,1.4333-2.8806,1.4333-2.8806l3.9463.8144Z" fill="#3d4177"/><path d="M42.4752,53.2119s2.37,4.2284,4.0516,2.9271c1.8145-1.4046-2.2819-4.1591-2.2819-4.1591Z" fill="#feadae"/><path d="M43.5261,61.8254s1.4646,2.6978,2.4668,4.8178l10.6759-.6164s2.12-1.7345,3.777-.27l-1.6377,1.9655L45.4438,70.6808a1.5753,1.5753,0,0,1-1.4215-.39,24.3162,24.3162,0,0,1-5.0056-6.3767Z" fill="#feadae"/><path d="M39.0167,53.2741c-.176.0775-6.0578,2.9678-.2716,11.9209a7.847,7.847,0,0,0,5.8361-2.6923S43.87,51.1423,39.0167,53.2741Z" fill="#fbdb8a"/><path d="M51.705,101.7887a.3117.3117,0,0,1,.5047-.168,2.3413,2.3413,0,0,0,1.8382.5754,1.5179,1.5179,0,0,0,1.4117-1.034.3235.3235,0,0,1,.445-.2238l5.6394,2.8349a1.5239,1.5239,0,0,1,.7429.8939h0a.563.563,0,0,1-.4789.77l-9.7447-.2691a.7268.7268,0,0,1-.6447-.8241l.1621-2.1466a.4121.4121,0,0,1,.0211-.1041Z" fill="#473e73"/><path d="M65.9274,98.0785a.3118.3118,0,0,1,.4434-.294,2.3409,2.3409,0,0,0,1.9245.0736,1.5182,1.5182,0,0,0,1.0919-1.3673.3231.3231,0,0,1,.3706-.3325l6.1851,1.259a1.5249,1.5249,0,0,1,.951.668h0a.5629.5629,0,0,1-.2606.8685l-9.4752,2.2926a.7273.7273,0,0,1-.8381-.6266l-.4057-2.114a.4262.4262,0,0,1-.0068-.1062Z" fill="#473e73"/><path d="M128.7575,105.7038l-.0166.0017a2.7291,2.7291,0,0,0-2.661-2.1426h-3.5327V97.5h-.5383V84.4976h-.356V84.39h-.5273v.1078h-.8394V97.5h-.4308v6.0627h-3.1568a2.7293,2.7293,0,0,0-2.6638,2.1531,1.1943,1.1943,0,1,0,.3725.0147,2.3626,2.3626,0,0,1,2.2913-1.803h4.2664v1.7946a1.2125,1.2125,0,1,0,.3648,0v-1.7943h4.75a2.363,2.363,0,0,1,2.3012,1.8416,1.1985,1.1985,0,1,0,.3764-.0655Z" fill="#524e64"/><path d="M119.41,58.165h6.4968a5.5221,5.5221,0,0,1,5.5221,5.5221V77.6254a5.5221,5.5221,0,0,1-5.5221,5.5221H119.41a5.522,5.522,0,0,1-5.522-5.522V63.6871A5.5221,5.5221,0,0,1,119.41,58.165Z" fill="#524e64"/><path d="M105.7856,81.9459h21.3936a2.7323,2.7323,0,0,1,0,5.4646H105.7856a2.7323,2.7323,0,0,1,0-5.4646Z" fill="#524e64"/><path d="M114.4151,43.96a3.54,3.54,0,0,0-.0006,1.9482,7.6438,7.6438,0,0,0,.768,1.7766l.8671-1.64a6.4829,6.4829,0,0,0,.5526-1.2539,2.3054,2.3054,0,0,0,.0034-1.3746C116.0917,41.9643,114.7532,42.9048,114.4151,43.96Z" fill="#505799"/><path d="M118.51,82.9432,107.9,84.3454l4.683,18.6991h-2.4488l-8.37-19.2292a2.2529,2.2529,0,0,1,1.0174-2.429l9.8858-6.1229Z" fill="#0088cc"/><path d="M122.0931,104.468l.3374,3.1244s1.0924,3.4835-.1551,3.61-4.8262.3241-4.1163-.6861a14.4966,14.4966,0,0,0,1.2578-3.85l.4954-2.4393Z" fill="#473e73"/><path d="M112.1415,103.0446l.3005,3.5458s-4.9651,1.5507-6.2126,1.677-1.3578-.4381-.648-1.4484,4.4594-2.4012,4.4594-2.4012l.6651-1.3733Z" fill="#473e73"/><path d="M124.7672,83.1893l-5.8777,4.1216,3.2037,17.1572h-2.4487l-6.8907-17.6872a2.2527,2.2527,0,0,1,1.0175-2.429l8.4065-7.6649Z" fill="#0088cc"/><path d="M125.888,46.8454a1.4373,1.4373,0,0,1-1.2244,1.5846,1.3818,1.3818,0,0,1-1.412-1.3741,1.4373,1.4373,0,0,1,1.2244-1.5846A1.3818,1.3818,0,0,1,125.888,46.8454Z" fill="#feadae"/><path d="M124.4188,45.9861a.9224.9224,0,0,1,.855.9084.96.96,0,0,1-.7318,1.0351Z" fill="#feadae"/><path d="M111.8749,77.1907l15.1284.1149.1605-19.86c.0135-1.775-1.1347-3.2226-2.5646-3.2334l-9.95-.0757c-1.43-.0109-2.6,1.4192-2.6135,3.1942Z" fill="#fbdb8a"/><path d="M119.9288,56.1563h0a1.7462,1.7462,0,0,0,1.6533-1.8274l.0379-5.5971a.2356.2356,0,0,0-.2187-.2492l-2.8408-.0242a.2346.2346,0,0,0-.2221.2455l-.0379,5.5971A1.7535,1.7535,0,0,0,119.9288,56.1563Z" fill="#feadae"/><path d="M124.5161,46.1041l-.0347-.5469a4.8994,4.8994,0,0,0-4.9921-4.8581c-2.5633.2047-4.5112,2.7258-4.3288,5.6024l.1359,2.1436a2.1556,2.1556,0,0,0,.0683.4158,4.87,4.87,0,0,0,4.985,4.2414,5.1617,5.1617,0,0,0,4.3972-5.6909A5.9129,5.9129,0,0,0,124.5161,46.1041Z" fill="#feadae"/><path d="M116.7461,47.5157a1.5472,1.5472,0,0,1-1.318,1.7058,1.4874,1.4874,0,0,1-1.52-1.4792,1.5472,1.5472,0,0,1,1.3181-1.7059A1.4874,1.4874,0,0,1,116.7461,47.5157Z" fill="#feadae"/><path d="M115.2274,46.5856A1.0335,1.0335,0,0,0,114.44,47.7a.9929.9929,0,0,0,.92.9779Z" fill="#feadae"/><polygon points="112.923 54.837 110.327 57.989 106.245 64.284 94.453 60.66 93.66 62.442 107.376 69.227 116.687 58.854 112.923 54.837" fill="#fbdb8a"/><path d="M124.5993,54.212l1.3867.319a7.764,7.764,0,0,1,4.7082,3.2545l5.2085,7.7807A6.5063,6.5063,0,0,1,137,69.1847v.665h-7.6751V68.44l1.9187-1.7864-5.3372-8.4463Z" fill="#fbdb8a"/><circle cx="129.6504" cy="68.2908" r="1.7677" fill="#feadae"/><path d="M79.5822,54.19H64.6929a1.037,1.037,0,0,0-1.0145.8211L60.8758,68.1637A1.0368,1.0368,0,0,0,61.89,69.4168H77.0269a1.0379,1.0379,0,0,0,1.0184-.8393L80.6006,55.425A1.0374,1.0374,0,0,0,79.5822,54.19Z" fill="#0088cc"/><path d="M80.44,54.19H65.55a1.0369,1.0369,0,0,0-1.0141.8211L61.7328,68.1637a1.0373,1.0373,0,0,0,1.0146,1.2532h15.137a1.0369,1.0369,0,0,0,1.0179-.8393L81.4577,55.425A1.0373,1.0373,0,0,0,80.44,54.19Z" fill="#0088cc"/><path d="M61.2762,68.2943H51.1024a.5617.5617,0,0,0-.5613.5613h0a.5614.5614,0,0,0,.5613.5613H61.4731Z" fill="#0088cc"/><path d="M84.4359,54.19H99.3252a1.037,1.037,0,0,1,1.0145.8211l2.8026,13.1531a1.0368,1.0368,0,0,1-1.0145,1.2532H86.9912a1.0379,1.0379,0,0,1-1.0184-.8393L83.4176,55.425A1.0374,1.0374,0,0,1,84.4359,54.19Z" fill="#0088cc"/><path d="M83.5784,54.19h14.89a1.0369,1.0369,0,0,1,1.0141.8211l2.8031,13.1531a1.0373,1.0373,0,0,1-1.0146,1.2532H86.1337a1.0369,1.0369,0,0,1-1.0179-.8393L82.56,55.425A1.0373,1.0373,0,0,1,83.5784,54.19Z" fill="#0088cc"/><path d="M102.7419,68.2943h10.1738a.5617.5617,0,0,1,.5613.5613h0a.5614.5614,0,0,1-.5613.5613H102.5451Z" fill="#0088cc"/><circle cx="70.8773" cy="62.4019" r="1.4293" fill="#fff"/><circle cx="92.8773" cy="62.4019" r="1.4293" fill="#fff"/><path d="M123.499,46.634l-.8482-1.0767c.0508-.7393.1081-1.5675.1589-2.3068a7.7475,7.7475,0,0,1-4.0942.5978,6.8882,6.8882,0,0,1-2.5969-.4691,2.8983,2.8983,0,0,1-1.6938-2.1124,12.2164,12.2164,0,0,1,6.8664-1.1808,3.4015,3.4015,0,0,1,1.6109.5158,1.7738,1.7738,0,0,1,.7643,1.5788,1.9006,1.9006,0,0,1,1.0269.2888,1.5663,1.5663,0,0,1,.5053.9324,4.5807,4.5807,0,0,1-.0532,1.9654c-.2179.09-.5413.0584-.668.2765.03.7821.08,1.4809.11,2.263-.1651.0561-.321.1244-.4861.18A6.8329,6.8329,0,0,0,123.499,46.634Z" fill="#3d4177"/><ellipse cx="41.4912" cy="46.2703" rx="1.0013" ry="1.3731" fill="#d1ecfd"/><ellipse cx="44.3144" cy="48.2577" rx="0.5008" ry="0.2406" fill="#d1ecfd"/><path d="M41.3242,46.9241a.8709.8709,0,0,0,.2.4541,2.1355,2.1355,0,0,0,.9567.7186,3.7482,3.7482,0,0,0,1.17.2321,1.5472,1.5472,0,0,0,.492-.0155,2.0952,2.0952,0,0,0-.4833-.08,4.7942,4.7942,0,0,1-1.1292-.2628A2.3337,2.3337,0,0,1,41.6,47.32C41.4109,47.0933,41.3457,46.9153,41.3242,46.9241Z" fill="#d1ecfd"/><path d="M40.9621,45.118a6.8471,6.8471,0,0,1,2.0315-5.2427c1.07-1.049,2.5059-1.7826,3.6352-1.5014a5.2436,5.2436,0,0,1,.9068.4534,6.89,6.89,0,0,0-4.1187,1.48A6.2352,6.2352,0,0,0,41.5654,45.08Z" fill="#d1ecfd"/><path d="M125.5174,45.8722c.0024-.036.0022-.0721.0039-.1082-.1272-.0074-.2547-.0126-.3827-.0135a.57.57,0,0,1-.26-.0612,1.1835,1.1835,0,0,0-.9268,1.2465,1.2685,1.2685,0,0,0,.67,1.1762,21.5219,21.5219,0,0,1-1.5707,2.035,5.4034,5.4034,0,0,1-1.1551.24l-.1581.0182c-.0051-.12-.2316-.2158-.5114-.2158-.2829,0-.5123.0984-.5123.22s.2294.22.5123.22a.6637.6637,0,0,0,.4831-.1495c.0584-.0007.1233-.0023.1953-.0053a4.24,4.24,0,0,0,1.1972-.2121,17.4245,17.4245,0,0,0,1.6405-2.1055.8463.8463,0,0,0,.2333.034A1.1573,1.1573,0,0,0,126,46.9358,1.3353,1.3353,0,0,0,125.5174,45.8722Z" fill="#d1ecfd"/><path d="M122.9229,84.2077l-10.091-.8514A2,2,0,0,1,111,81.3633V77a2,2,0,0,1,2-2h11.0838a2,2,0,0,1,1.9908,1.8085l.3213,3.341A3.4942,3.4942,0,0,1,122.9229,84.2077Z" fill="#0088cc"/><polygon points="45.054 70.854 34.222 111 33.308 110.994 41.843 70.843 45.054 70.854" fill="#e2e2e2"/><polygon points="60.167 70.854 70.999 111 71.913 110.994 63.378 70.843 60.167 70.854" fill="#e2e2e2"/><polygon points="107.172 70.854 96.34 111 95.426 110.994 103.962 70.843 107.172 70.854" fill="#e2e2e2"/><polygon points="122.285 70.854 133.117 111 134.032 110.994 125.496 70.843 122.285 70.854" fill="#e2e2e2"/><rect x="37.0876" y="70.5583" width="94.0555" height="1.3758" fill="#e2e2e2"/><rect x="34.946" y="69.4077" width="98.3387" height="1.841" fill="#e2e2e2"/></svg>