<svg id="Layer_1" data-name="Layer 1" xmlns="http://www.w3.org/2000/svg" width="40" height="40" viewBox="0 0 40 40"><title>developer-skill</title><path d="M37.2157,29.4133a.5117.5117,0,0,0-1.0188.0976,6.1872,6.1872,0,1,1-.4639-1.8231.5117.5117,0,0,0,.9416-.4012A7.22,7.22,0,0,0,23.49,27.075a9.4,9.4,0,0,0-2.47-1.3031L19.2337,23.908a8.0454,8.0454,0,0,0,2.8813-3.9887,3.082,3.082,0,0,0,.1563-6.0093v-1.4h.4843a.89.89,0,0,0,.89-.8889V6.24a2.5474,2.5474,0,0,0-1.2391-2.1846V3.5531a.97.97,0,0,0-1.054-.8863H10.5115a5.5889,5.5889,0,0,0-3.1487.9053,2.9238,2.9238,0,0,0-1.4063,2.39v5.546a1.5814,1.5814,0,0,0,1.6567,1.3959v1.0876a3.0817,3.0817,0,0,0,.1378,5.8546,5.5036,5.5036,0,0,0,.3684,1.03.5116.5116,0,1,0,.9257-.4361c-.6316-1.3386-.3288-1.7369-.4086-5.602V12.9089a15.9987,15.9987,0,0,0,9.4767-2.8313A2.5494,2.5494,0,0,0,20.6577,12.51h.59c0,6.7935.0743,6.5957-.2074,7.4328a7.5777,7.5777,0,0,1-2.6861,3.3534h-.0008a10.9821,10.9821,0,0,1-1.589,1.0029,4.2474,4.2474,0,0,1-1.8223.5991c-1.0085,0-3.3452-1.2336-4.8319-2.8935a.5116.5116,0,1,0-.762.6829,10.8861,10.8861,0,0,0,1.4573,1.3412L9.1246,25.7822A9.5677,9.5677,0,0,0,2.75,34.79a2.4925,2.4925,0,0,0,2.49,2.49H24.9151a2.4809,2.4809,0,0,0,1.7943-.7662A7.2234,7.2234,0,0,0,37.2157,29.4133ZM7.6133,18.6776a2.0567,2.0567,0,0,1,0-3.5629ZM23.57,16.8968a2.061,2.061,0,0,1-1.3,1.9133c.0008-.0431.0008.1685.0008-3.8263A2.06,2.06,0,0,1,23.57,16.8968ZM9.0249,11.8856c-1.342,0-1.3092.0034-1.4116-.0074-.3965-.0418-.6332-.25-.6332-.37V5.9623C6.98,4.7305,8.5977,3.69,10.5115,3.69c11.3538.0008,10.8338-.0013,10.8714.0016v.5464C21.3829,6.6438,16.16,11.9383,9.0249,11.8856Zm11.6328-.3991A1.5247,1.5247,0,0,1,19.134,9.9631V9.304A9.7127,9.7127,0,0,0,22.24,5.2328,1.5161,1.5161,0,0,1,22.6217,6.24v5.2466ZM18.5228,24.6449c.0124.013,1.7109,1.7921,1.7181,1.7921-.0145.0444-1.4957,4.7126-1.516,4.7774a.3929.3929,0,0,1-.5036.07c-.3584-.232-2.5094-1.6258-2.6131-1.6927C15.7118,29.4154,18.5154,24.6565,18.5228,24.6449Zm-2.22,6.6153v1.1053a.2276.2276,0,0,1-.2238.2238H14.0757a.2271.2271,0,0,1-.2238-.2238V31.26l1.2254-.7935Zm.6125-5.903c-.4181.7083-.4467.7559-1.8379,3.1185-1.44-2.4444-1.39-2.3592-1.7427-2.9569A3.6,3.6,0,0,0,16.9152,25.3571Zm-5.2833-.7123c.2129.3615.9093,1.5433.9529,1.6176l.0008.0013.0013.0021.0008.0013.0005.0013c2.3312,3.9559.1137.1933,1.9582,3.3227-2.8813,1.8659-2.7176,1.7945-2.9289,1.7406a.3336.3336,0,0,1-.1878-.1174c.0063.02-1.4824-4.6713-1.516-4.7774C10.5547,25.7684,11.0715,25.2294,11.6319,24.6449Zm.8194,11.6116h-3.83v-3.374a.5116.5116,0,0,0-1.0233,0v3.374H5.24A1.468,1.468,0,0,1,3.7733,34.79,8.5409,8.5409,0,0,1,8.9955,26.929c1.5692,4.93,1.47,4.6581,1.5173,4.7467a1.4035,1.4035,0,0,0,1.9765.4673l.3391-.22a1.5624,1.5624,0,0,0,.5152,1.4507Zm1.07,0,.8194-2.644h1.5181l.8461,2.644Zm11.3934,0H22.5556v-3.374a.5116.5116,0,0,0-1.0233,0v3.374H17.78l-.9312-2.9106a1.2443,1.2443,0,0,0,.4774-.98v-.4422l.3391.22a1.39,1.39,0,0,0,2.0156-.5581l1.48-4.6626a8.3862,8.3862,0,0,1,1.9522,1.1529,7.2107,7.2107,0,0,0,2.693,7.879A1.4638,1.4638,0,0,1,24.9151,36.2565Z" fill="#0088cc"/><path d="M31.8977,34.9317a5.1862,5.1862,0,1,0-2.1915.334.5116.5116,0,0,0,.0354-1.022,4.1351,4.1351,0,1,1,1.7884-.2671.5117.5117,0,0,0,.3676.9551Z" fill="#0088cc"/><path d="M32.0387,27.52a.5117.5117,0,0,0-.7043.1669l-2.6025,4.2193-.9156-1.251a.5116.5116,0,1,0-.8257.6043l1.3645,1.8649a.5117.5117,0,0,0,.8485-.0336l3.0022-4.8668A.5117.5117,0,0,0,32.0387,27.52Z" fill="#0088cc"/><path d="M17.7632,16.9114a.8075.8075,0,1,0,.8077-.8072A.8075.8075,0,0,0,17.7632,16.9114Z" fill="#0088cc"/><path d="M19.8666,14.859a.5118.5118,0,0,0,.5451-.8664,4.7564,4.7564,0,0,0-3.0339-.3057.5116.5116,0,0,0,.2087,1.0016,4.85,4.85,0,0,1,1.7964-.0177A1.55,1.55,0,0,1,19.8666,14.859Z" fill="#0088cc"/><path d="M11.5832,16.1042a.8171.8171,0,1,0,.0381.0013A.3665.3665,0,0,0,11.5832,16.1042Z" fill="#0088cc"/><path d="M12.7766,13.6868a4.757,4.757,0,0,0-3.0342.3057.5122.5122,0,0,0,.2729.945c.2724,0,.2587-.1529.7567-.2674a4.8552,4.8552,0,0,1,1.7956.0182.5116.5116,0,0,0,.2089-1.0016Z" fill="#0088cc"/><path d="M16.1189,20.109a1.0418,1.0418,0,0,1-2.0836,0,.5123.5123,0,0,0-.5118-.5115c-1.0778,0-.4118,2.5769,1.5536,2.5769a2.0212,2.0212,0,0,0,2.0209-2.2732A.5121.5121,0,0,0,16.1189,20.109Z" fill="#0088cc"/></svg>