<svg id="Layer_1" data-name="Layer 1" xmlns="http://www.w3.org/2000/svg" width="40" height="40" viewBox="0 0 40 40"><title>enterprise-ic</title><path d="M17.6444,13.5222a1.7688,1.7688,0,0,0-1.7667,1.7667h1.1778a.5889.5889,0,1,1,1.1778,0h1.1778A1.7688,1.7688,0,0,0,17.6444,13.5222Z" fill="#0088cc"/><path d="M22.3556,13.5222a1.7688,1.7688,0,0,0-1.7667,1.7667h1.1778a.5889.5889,0,1,1,1.1778,0h1.1778A1.7688,1.7688,0,0,0,22.3556,13.5222Z" fill="#0088cc"/><path d="M20,29.4222a2.3556,2.3556,0,1,0,2.3556,2.3556A2.3579,2.3579,0,0,0,20,29.4222Zm0,3.5333a1.1778,1.1778,0,1,1,1.1778-1.1778A1.179,1.179,0,0,1,20,32.9556Z" fill="#0088cc"/><path d="M34.1333,36.4889V28.8333A8.8434,8.8434,0,0,0,25.3,20h-.6413a7.09,7.09,0,0,0,.5936-.5889h.6366a2.9478,2.9478,0,0,0,2.9444-2.9444V15.429a2.6454,2.6454,0,0,0-.0071-4.4067,8.8273,8.8273,0,0,0-17.6525,0,2.6482,2.6482,0,0,0,1.4652,4.8554h.401A7.0544,7.0544,0,0,0,15.3419,20H14.7a8.8434,8.8434,0,0,0-8.8333,8.8333v7.6556H2.3333v1.1778H37.6667V36.4889ZM27.6556,16.4667a1.7632,1.7632,0,0,1-1.5305,1.7425,7.0034,7.0034,0,0,0,.835-2.3314h.401a2.5566,2.5566,0,0,0,.2944-.03Zm1.1778-3.2389A1.4739,1.4739,0,0,1,27.3611,14.7h-.2944V11.7556h.2944A1.4739,1.4739,0,0,1,28.8333,13.2278ZM12.9333,14.7h-.2944a1.4722,1.4722,0,0,1,0-2.9444h.2944Zm-.2944-4.1222a2.4842,2.4842,0,0,0-.2662.0271,7.6474,7.6474,0,0,1,15.2546,0,2.4842,2.4842,0,0,0-.2662-.0271H26.96a7.0575,7.0575,0,0,0-13.92,0Zm13.2494,1.1631c-4.25-.15-7.0661-1.8874-7.0661-3.5186a.5889.5889,0,0,0-1.1778,0c0,1.4716-1.5217,2.6912-3.4992,2.9073a5.8882,5.8882,0,0,1,11.743.6113Zm-2.37,7.67A5.885,5.885,0,0,1,14.1111,14.7V12.3115A5.4418,5.4418,0,0,0,18.29,10.023c1.232,1.6324,4.111,2.7813,7.599,2.8985V14.7A5.8521,5.8521,0,0,1,24.7,18.2333m-6.52,3.2872a6.8532,6.8532,0,0,0,3.6405,0L20,25.161Zm.8674,4.3684H18.0084l-2.3556-4.7111h1.0388Zm4.2612-4.7111h1.0388l-2.3556,4.7111H20.9528ZM8.8111,28.8333v7.6556H7.0444V28.8333a7.6582,7.6582,0,0,1,7.3-7.6373l2.3467,4.6929H11.7556A2.9478,2.9478,0,0,0,8.8111,28.8333Zm21.2,7.6556H9.9889V28.8333a1.7688,1.7688,0,0,1,1.7667-1.7667H28.2444a1.7688,1.7688,0,0,1,1.7667,1.7667Zm2.9444,0H31.1889V28.8333a2.9478,2.9478,0,0,0-2.9444-2.9444H23.3084l2.3467-4.6929a7.6582,7.6582,0,0,1,7.3,7.6373Z" fill="#0088cc"/></svg>