<svg id="Layer_1" data-name="Layer 1" xmlns="http://www.w3.org/2000/svg" width="40" height="40" viewBox="0 0 40 40"><title>estimation-within-24-hrs</title><path d="M37.9154,19.0489a.71.71,0,0,0-.71.71,17.1091,17.1091,0,1,1-4.9671-12.064L30.6559,7.631A.71.71,0,1,0,30.6113,9.05q.0223.0007.0446,0l3.2572.1348a.7094.7094,0,0,0,.2626-.05l.0781-.05a.8942.8942,0,0,0,.298-.3051.7136.7136,0,0,0,0-.1135.7067.7067,0,0,0,.0355-.1348l.2839-3.2572a.7122.7122,0,1,0-1.4193-.1206L33.31,6.7653a18.5,18.5,0,1,0,5.315,12.9933A.71.71,0,0,0,37.9154,19.0489Z" fill="#0088cc"/><path d="M19.8347,22.5155a1.2673,1.2673,0,0,0-.7913-.2153H15.5378a3.78,3.78,0,0,1,.3255-.4357A10.7365,10.7365,0,0,1,17.24,20.5924q1.0016-.8214,1.4323-1.2019a4.6722,4.6722,0,0,0,.8364-1.0617,2.8443,2.8443,0,0,0,.4107-1.5024,2.7544,2.7544,0,0,0-.7462-1.883,2.6182,2.6182,0,0,0-.8213-.5859,4.2712,4.2712,0,0,0-1.7228-.33,4.0057,4.0057,0,0,0-1.4774.25,3.0554,3.0554,0,0,0-1.0417.6561,2.7487,2.7487,0,0,0-.616.9065,2.5032,2.5032,0,0,0-.2053.9616.8114.8114,0,0,0,.22.601.7511.7511,0,0,0,.5559.22.701.701,0,0,0,.5759-.24,2.28,2.28,0,0,0,.3556-.6861,3.3256,3.3256,0,0,1,.2254-.5459,1.5575,1.5575,0,0,1,1.3722-.7662,1.5978,1.5978,0,0,1,.7362.1953,1.4124,1.4124,0,0,1,.5559.5008,1.4521,1.4521,0,0,1,.2053.7612,1.9038,1.9038,0,0,1-.19.8013,3.0894,3.0894,0,0,1-.5359.8263,5.8883,5.8883,0,0,1-.9115.7763,10.5281,10.5281,0,0,0-1.0016.8614q-.7312.6611-1.6276,1.5826a2.2773,2.2773,0,0,0-.3956.626,1.6579,1.6579,0,0,0-.18.636.8865.8865,0,0,0,.28.6511,1.0617,1.0617,0,0,0,.7813.2754h4.9079a.8664.8664,0,0,0,.6561-.2254.7711.7711,0,0,0,.2153-.5559A.696.696,0,0,0,19.8347,22.5155Z" fill="#0088cc"/><path d="M28.1832,20.4221a2.0033,2.0033,0,0,0-.8363-.13h-.2855V15.1286q0-1.1618-1.0016-1.1619a.7562.7562,0,0,0-.5359.21,5.38,5.38,0,0,0-.5709.6761l-3.5357,4.7326-.2454.3255q-.1.1352-.1953.2754a1.3225,1.3225,0,0,0-.14.2754.7515.7515,0,0,0-.0451.2554,1.0015,1.0015,0,0,0,.3155.7813,1.3772,1.3772,0,0,0,.9515.2855h3.35v1.257a1.1017,1.1017,0,0,0,.2254.7412.8514.8514,0,0,0,1.204.008l.008-.008a1.1067,1.1067,0,0,0,.2254-.7412v-1.252h.4057a1.3369,1.3369,0,0,0,.7612-.1753.641.641,0,0,0,.2554-.5759A.6009.6009,0,0,0,28.1832,20.4221Zm-2.7795-.1452h-2.87l2.87-3.8763Z" fill="#0088cc"/></svg>