<svg id="Layer_1" data-name="Layer 1" xmlns="http://www.w3.org/2000/svg" width="40" height="40" viewBox="0 0 40 40"><title>feedback-improvement</title><path d="M9.4375,11.875h17.875a.8126.8126,0,0,0,0-1.6251H9.4375a.8126.8126,0,1,0,0,1.6251Z" fill="#0088cc"/><path d="M19.1875,20h-9.75a.8125.8125,0,0,0,0,1.625h9.75a.8125.8125,0,0,0,0-1.625Z" fill="#0088cc"/><path d="M36.39,5.375c-.0471,0-.0927.0118-.14.014V5.375A3.2538,3.2538,0,0,0,33,2.125H3.75A3.2538,3.2538,0,0,0,.5,5.375V37.0625a.8128.8128,0,0,0,.5014.7506.8029.8029,0,0,0,.311.0619.8123.8123,0,0,0,.5745-.238l7.887-7.887H33a3.2537,3.2537,0,0,0,3.25-3.25V13.0235l2.3391-2.3387V10.684A3.11,3.11,0,0,0,36.39,5.375ZM34.625,26.5A1.6266,1.6266,0,0,1,33,28.125H9.4375a.812.812,0,0,0-.5745.238L2.125,35.1011V5.375A1.6266,1.6266,0,0,1,3.75,3.75H33a1.6266,1.6266,0,0,1,1.625,1.625V5.93a3.0564,3.0564,0,0,0-.4348.3559L25.35,15.125H9.4375a.8125.8125,0,0,0,0,1.625H24.0461l-.78,3.903a.8126.8126,0,0,0,.7967.972.83.83,0,0,0,.1587-.0158l4.061-.8125a.8075.8075,0,0,0,.4157-.2222l5.9271-5.9262Zm-6.9015-7.2482-2.6247.5253.5253-2.6279L33,9.7735l2.1014,2.1014ZM37.44,9.5359l-1.19,1.19L34.1485,8.6246,35.339,7.434A1.486,1.486,0,0,1,37.44,9.5359Z" fill="#0088cc"/></svg>