<svg id="Layer_1" data-name="Layer 1" xmlns="http://www.w3.org/2000/svg" width="40" height="40" viewBox="0 0 40 40"><title>fitness-ic</title><g id="Clocks"><path id="Clocks-2" d="M38.4182,16.5787a1.997,1.997,0,0,0-1.5247-.7451H36.03v-.697a2.3547,2.3547,0,0,0-2.4242-2.2716H32.4679V11.5784A2.2458,2.2458,0,0,0,31.76,9.9569a2.5093,2.5093,0,0,0-3.3338,0,2.2464,2.2464,0,0,0-.7083,1.6221v6.0364H12.2813V11.579a2.2435,2.2435,0,0,0-.7077-1.6215,2.5093,2.5093,0,0,0-3.3338,0,2.2441,2.2441,0,0,0-.7083,1.6215v1.2866H6.255a2.3608,2.3608,0,0,0-1.5989.61,2.0952,2.0952,0,0,0-.687,1.5344v.8241h-.855a2.0045,2.0045,0,0,0-1.5312.7481A2.6086,2.6086,0,0,0,1,18.2513v3.4769a2.6058,2.6058,0,0,0,.583,1.67,2.0043,2.0043,0,0,0,1.5306.7481h.855V24.97a2.0965,2.0965,0,0,0,.6881,1.5348,2.3579,2.3579,0,0,0,1.5977.61H7.5315V28.401a2.2435,2.2435,0,0,0,.7077,1.6209,2.45,2.45,0,0,0,3.3344,0,2.2432,2.2432,0,0,0,.7077-1.6209V22.3646H27.7181V28.401a2.2435,2.2435,0,0,0,.7077,1.6209,2.45,2.45,0,0,0,3.3344,0,2.2455,2.2455,0,0,0,.7077-1.6209V27.1144h1.1382A2.3543,2.3543,0,0,0,36.03,24.8428v-.697h.8633a2.001,2.001,0,0,0,1.5253-.7451A2.5954,2.5954,0,0,0,39,21.7382V18.2418A2.5976,2.5976,0,0,0,38.4182,16.5787Zm-35.3041,6.38a.8131.8131,0,0,1-.6181-.3206,1.4347,1.4347,0,0,1-.3081-.91V18.2513a1.4359,1.4359,0,0,1,.3081-.91.8131.8131,0,0,1,.6181-.3206h.855V22.958ZM6.255,25.9269a1.1864,1.1864,0,0,1-.795-.2975.893.893,0,0,1-.3034-.66V15.01a.8929.8929,0,0,1,.3022-.659,1.19,1.19,0,0,1,.7962-.2981H7.5315v11.874Zm4.8389,2.4741a1.0376,1.0376,0,0,1-.3355.7576,1.3081,1.3081,0,0,1-1.7034,0,1.037,1.037,0,0,1-.336-.7576V11.5784a1.0376,1.0376,0,0,1,.3355-.7576,1.2629,1.2629,0,0,1,1.704,0,1.0389,1.0389,0,0,1,.3355.7582V28.401Zm1.1875-7.2239V18.8022H27.7181v2.3749ZM31.28,28.401a1.0376,1.0376,0,0,1-.3355.7576,1.3081,1.3081,0,0,1-1.7034,0,1.037,1.037,0,0,1-.336-.7576V11.579a1.0376,1.0376,0,0,1,.3355-.7576,1.2629,1.2629,0,0,1,1.704,0,1.0366,1.0366,0,0,1,.3355.7576V28.401Zm3.5624-3.5582a1.1691,1.1691,0,0,1-1.2367,1.0841H32.4679V14.0524h1.1382a1.17,1.17,0,0,1,1.2367,1.0841v9.7062Zm2.9686-3.1052a1.4287,1.4287,0,0,1-.3052.9025.8058.8058,0,0,1-.6127.3182H36.03V17.0211h.8633a.8058.8058,0,0,1,.6127.3182,1.424,1.424,0,0,1,.3052.9025Z" fill="#0088cc"/></g></svg>