<svg id="Layer_1" data-name="Layer 1" xmlns="http://www.w3.org/2000/svg" width="371" height="339" viewBox="0 0 371 339"><title>flutter-banner </title><path d="M143.6541,32.329a207.7369,207.7369,0,0,0,79.94-15.3954c15.0871-6.2473,50.73-9.7416,73.6675-5.0857,19.9125,4.0419,67.2427,21.8759,46.44,79.8037s-46.502,63.6279-28.12,101.8757c13.5,28.09,36.9478,56.1136,15.7925,78.1394-32.8995,34.2533-166.8958,83.8554-235.6132,41.017s-83.2061-58.1138-61.56-123.46S2.02,115.1851,30.8167,66.9027C48.0886,37.9437,102.7042,32.249,143.6541,32.329Z" fill="#f1f3f7"/><path d="M56.253,194.4738s9.8643,2.5769,17.9975.2878c11.5637-3.1649,16.5557-6.63,16.5557-6.63l1.19.2268-2.4471,4.7658s-2.3129,2.6111-8.7769,6.794A27.8122,27.8122,0,0,1,64.5188,204.26Z" fill="#f4cf7a"/><path d="M87.8947,190.9344l1.1368.2166,2.0959-2.3364a17.1971,17.1971,0,0,0,2.7166-2.6068c.4858-.8352-.4844-1.39-.4844-1.39l-2.1647,1.3979,2.1608-4.5939s-3.4758,2.5046-4.2216,3.9661A24.2041,24.2041,0,0,0,87.8947,190.9344Z" fill="#feadae"/><polygon points="90.4 131.91 92.755 131.91 92.755 302.779 88.684 302.779 90.4 131.91" fill="#e2e2e2"/><polygon points="123.497 131.91 121.142 131.91 121.142 302.779 125.212 302.779 123.497 131.91" fill="#e2e2e2"/><rect x="91.0889" y="134.9733" width="31.7192" height="1.7937" fill="#e2e2e2"/><rect x="91.015" y="160.1833" width="31.8677" height="1.7931" fill="#e2e2e2"/><rect x="90.9398" y="185.3927" width="32.0173" height="1.7931" fill="#e2e2e2"/><rect x="90.8653" y="210.602" width="32.1658" height="1.7937" fill="#e2e2e2"/><rect x="90.7914" y="235.8114" width="32.3147" height="1.7944" fill="#e2e2e2"/><rect x="90.7169" y="261.0214" width="32.4638" height="1.7931" fill="#e2e2e2"/><rect x="90.6423" y="286.2308" width="32.6129" height="1.7937" fill="#e2e2e2"/><polygon points="92.755 131.91 78.857 302.779 76.248 302.779 90.4 131.91 92.755 131.91" fill="#e2e2e2"/><polygon points="123.298 131.91 109.4 302.779 106.791 302.779 120.944 131.91 123.298 131.91" fill="#e2e2e2"/><path d="M250.992,46.0894H224.1681a2.5163,2.5163,0,0,1,.0447.4633v4.0651a4.413,4.413,0,0,1-4.4,4.4h-36.3a4.413,4.413,0,0,1-4.4-4.4V46.5526a2.5163,2.5163,0,0,1,.0447-.4633h-26.824a12.9162,12.9162,0,0,0-12.9161,12.9162V293.6763a12.9161,12.9161,0,0,0,12.9161,12.9162H250.992a12.9163,12.9163,0,0,0,12.9162-12.9162V59.0056A12.9163,12.9163,0,0,0,250.992,46.0894Z" fill="#f7f7f7"/><rect x="145.8007" y="71.6999" width="111.7283" height="24.9905" rx="4" ry="4" fill="#e2e2e2"/><rect x="145.8007" y="254.8438" width="111.7283" height="36.3101" rx="4" ry="4" fill="#e2e2e2"/><rect x="145.8007" y="137.299" width="111.7283" height="3.6971" rx="1.7929" ry="1.7929" fill="#edeef4"/><path d="M147.5928,126.69H255.7361a1.7929,1.7929,0,0,1,1.7929,1.7929v.11a1.7929,1.7929,0,0,1-1.7929,1.7929H147.5937a1.7929,1.7929,0,0,1-1.7929-1.7929v-.1112A1.792,1.792,0,0,1,147.5928,126.69Z" fill="#edeef4"/><rect x="145.8007" y="116.0799" width="111.7283" height="3.697" rx="1.7929" ry="1.7929" fill="#edeef4"/><rect x="145.8007" y="105.4704" width="111.7283" height="3.697" rx="1.7929" ry="1.7929" fill="#edeef4"/><rect x="209.9554" y="220.3275" width="25.9238" height="23.1863" rx="4" ry="4" fill="none" stroke="#e2e2e2" stroke-miterlimit="10"/><rect x="167.4506" y="220.3275" width="25.9238" height="23.1863" rx="4" ry="4" fill="none" stroke="#e2e2e2" stroke-miterlimit="10"/><rect x="209.9554" y="189.7823" width="25.9238" height="23.1862" rx="4" ry="4" fill="none" stroke="#e2e2e2" stroke-miterlimit="10"/><rect x="167.4506" y="189.7823" width="25.9238" height="23.1862" rx="4" ry="4" fill="none" stroke="#e2e2e2" stroke-miterlimit="10"/><rect x="209.9554" y="159.2369" width="25.9238" height="23.1872" rx="4" ry="4" fill="none" stroke="#e2e2e2" stroke-miterlimit="10"/><rect x="167.4506" y="159.2369" width="25.9238" height="23.1872" rx="4" ry="4" fill="none" stroke="#e2e2e2" stroke-miterlimit="10"/><circle cx="153.7918" cy="172.0763" r="2.7734" fill="#edeef4"/><circle cx="153.7918" cy="201.3758" r="2.7734" fill="#edeef4"/><circle cx="178.2177" cy="201.4873" r="3.4742" fill="#edeef4"/><path d="M111.998,91.8077c.6725-2.4221-1.077-8.0735-4.71-7.401-2.1524.4037-3.5527,2.0184-5.437,2.5562-2.2872.6733-2.8383-.4037-4.9915-.8074-2.5561-.5385-5.031,2.1619-5.031,4.8536,0,2.8257,2.4079,1.8748,1.8694,4.7006-.2688,2.0184-2.6909,4.1716-2.0184,6.4588.6725,2.1532,3.4983,1.211,4.1716,2.9606.4037,1.48-2.288,3.2294-2.4221,4.8441-.27,3.4983,4.0368,4.3056,6.5928,4.9782,4.5753,1.0769,5.2478-.8074,7.67-3.902,2.6917-3.4983,1.6147-5.5166,2.288-9.5534.2688-1.4806.2688-3.2294.5377-4.5753.4037-1.211,1.3459-1.6147.9422-2.96Z" fill="#3d4177"/><polygon points="90.564 141.186 88.047 124.64 98.578 108.817 120.634 108.656 133.42 105.705 149.728 97.719 151.759 99.006 135.801 110.989 121.562 116.059 118.538 139.021 102.451 139.021 99.443 118.078 93.966 127.062 92.561 142.402 90.564 141.186" fill="#feadae"/><polygon points="104.065 108.765 109.175 116.763 114.284 108.765 104.065 108.765" fill="#ffaea6"/><path d="M107.41,106.0381l6.2917-1.2686.3658-5.4417,1.1913-1.0391-1.1913-1.0416-1.7306-6.238-6.1805,3.14.4273,3.5535-.82.3288s-1.584-1.7629-2.2407-.9477c-.6836.8484.1711,1.9064,1.3254,2.5009l-.7948,2.9353Z" fill="#feadae"/><rect x="107.3919" y="104.4739" width="4.2497" height="7.5169" fill="#feadae"/><path d="M112.9433,210.3263h10.2094a9.8393,9.8393,0,0,1-6.7506-5.1406h-3.4588Z" fill="#473e73"/><path d="M107.9627,210.3263H97.7557a9.8377,9.8377,0,0,0,6.749-5.1406h3.4581Z" fill="#473e73"/><path d="M110.4534,148.2255l-2.4907,56.96h-3.4581s-6.5345-45.4735-5.9653-56.0236c.36-6.6615,3.8279-10.1416,3.8279-10.1416H118.538s3.469,3.48,3.83,10.1416c.57,10.55-5.9661,56.0236-5.9661,56.0236h-3.4588Z" fill="#0088cc"/><path d="M151.7593,99.0061c1.25-1.025.3643-1.9648.3643-1.9648s1.442-3.9059,1.1929-4.0313c-.3406-.1719-3.5889,4.7093-3.5889,4.7093Z" fill="#ffaea6"/><polygon points="111.642 105.186 111.642 105.552 107.392 107.485 107.392 106.02 111.642 105.186" fill="#efa3a3"/><polygon points="111.098 162.988 109.808 162.988 110.453 148.225 111.098 162.988" fill="none"/><path d="M98.578,108.8165l22.0556-.1608a6.2285,6.2285,0,0,0,.9287,7.4034l-3.0243,22.9615H102.3673L99.443,118.0783S101.42,112.7658,98.578,108.8165Z" fill="#fbdb8a"/><path d="M90.788,143.2241c-2.6506-1.2246-.1928-1.5387-.1928-1.5387s.336-3.1683,1.092-3.2342c1.04-.0878,1.1344,4.58,1.1344,4.58Z" fill="#ffaea6"/><path d="M306.5626,198.4265l1.4551-5.8621,4.7073-.9784-1.835,1.9569,2.569.2451-2.08,1.2179,7.8347,9.7916-8.1092,6.3128S305.59,202.3446,306.5626,198.4265Z" fill="#3d4177"/><path d="M285.1924,185.4466l-.9527-2.4249-2.5.92.711,3.55,2.42-.2186c2.6587-2.0981.3219-1.8264.3219-1.8264" fill="#ffaea6"/><polygon points="296.822 243.794 291.533 305.752 295.155 305.752 307.46 254.419 317.902 305.752 321.523 305.752 318.479 243.794 296.822 243.794" fill="#0088cc"/><polygon points="316.085 214.656 323.398 208.999 329.84 187.273 332.26 187.492 329.719 214.081 317.74 222.903 318.479 243.794 296.822 243.794 296.699 223.392 283.456 213.871 282.451 187.492 284.871 187.273 290.09 208.936 298.122 215.043 316.085 214.656" fill="#feadae"/><polygon points="296.699 223.392 292.784 220.577 294.479 212.274 298.122 215.043 298.122 215.043 316.085 214.656 316.085 214.656 319.213 212.235 322.824 219.159 317.74 222.903 317.74 222.903 318.479 243.794 296.822 243.794 296.699 223.392 296.699 223.392" fill="#fbdb8a"/><path d="M329.5175,185.4466l.9533-2.4249,2.5.92-.7111,3.55-2.42-.2186c-2.6593-2.0981-.3225-1.8264-.3225-1.8264" fill="#ffaea6"/><path d="M309.6233,214.974l-.2925-3.8636-3.8392.0617.31,4.1066S308.0177,224.1262,309.6233,214.974Z" fill="#feadae"/><polygon points="305.625 212.932 309.58 214.398 309.331 211.11 305.492 211.172 305.625 212.932" fill="#efa3a3"/><path d="M309.3058,213.7246l-7.4605-4.5854,1.8078-4.4033-1.3949-.8581,5.2054-6.5917,5.26,5.8426-1.792,2.7031.8372.5147s1.8042-1.716,2.3554-.463c.3592.8157-.815,2.559-1.9862,2.7009l-1.3391,3.2729Z" fill="#feadae"/><path d="M291.5326,305.7524h3.622v3.1231H284.5308S285.4368,306.0678,291.5326,305.7524Z" fill="#473e73"/><path d="M321.523,305.7524h-3.6213v3.1231h10.6231S327.6187,306.0678,321.523,305.7524Z" fill="#473e73"/><rect x="266.199" y="156.7556" width="85.801" height="27.8841" rx="4" ry="4" fill="#e2e2e2"/><path d="M184.3511,204.0913a46.5912,46.5912,0,0,0,7.9374,2.2119c.8092.0211,13.8655-2.2561,19.578-3.5181l.3088,2.816c-5.6135,2.5165-18.2942,7.0141-19.0659,7.0963-1.2507.1331-7.536-.9795-9.4678-1.5035" fill="#feadae"/><path d="M183.08,184.4433s.0331,12.287-7.0033,19.0164-3.0166-4.5524-3.0166-4.5524l3.3171-13.0228Z" fill="#3d4177"/><path d="M175.2524,200.9456a60.7975,60.7975,0,0,1,12.34,4.1072c1.0473,1.9787-.6274,6.0367-2.0961,8.2352a46.22,46.22,0,0,1-8.4781-2.36,9.5361,9.5361,0,0,0-3.3486-.9733" fill="#fbdb8a"/><path d="M186.9619,210.4858a15.7942,15.7942,0,0,0-1.8791-.6491,26.0517,26.0517,0,0,0-5.93-.6334c-.0814-.0024-.1883.0148-.2011.0953a.1707.1707,0,0,0,.0258.0993,24.925,24.925,0,0,0,1.58,2.6967,46.8717,46.8717,0,0,0,4.9391,1.1563A16.9443,16.9443,0,0,0,186.9619,210.4858Z" fill="#f4cf7a"/><path d="M160.02,313.3823s-.6132.123-.7592,1.3832.7592,1.9668.7592,2.7659a1.7588,1.7588,0,0,0,1.24,1.8336,4.8022,4.8022,0,0,0,3.0519.0412c1.8253-.6912-.6974-1.6859-1.32-3.3371-.3752-.9947-.4421-2.806-1.4054-3.1827C160.3627,312.4079,160.02,313.3823,160.02,313.3823Z" fill="#473e73"/><path d="M155.8846,257.0912a18.1971,18.1971,0,0,1,1.097-18.8688s6.7012,3,12.0673,3.3618a26.54,26.54,0,0,0,6.3712-.1526s.9511,4.6291.4292,16.9322Z" fill="#ffe1bd"/><path d="M164.2089,255.577c.0108.1287.0322.2574.0429.3968.2681,2.7672,1.5123,10.511,2.4132,15.9167.5363,3.25.9438,5.6631.9438,5.6631s.3968,2.2738.5792,3.1855a20.87,20.87,0,0,1,.0215,5.4378c-.0536.4076-.0858.9224-.0858.9331-.4719,5.3306.0644,6.0492.8259,11.7873v.0215c.7615,5.7274,1.7483,11.1116,2.1558,15.0908.1287.0107,2.0486-.2789,2.0486-.2789s3.4965-27.3286,3.7861-33.7a7.1223,7.1223,0,0,0-.0322-1.1905c.0322-.3647.0644-.74.0644-1.1476.0429-3.947,1.1047-29.72.0322-30.203C171.6846,245.0874,163.49,247.6186,164.2089,255.577Z" fill="#feadae"/><path d="M173.94,312.9076a29.52,29.52,0,0,0,6.6115,3.967.4121.4121,0,0,1,.074.74c-1.3624.6841-7.4269-.4484-9.1289-.7582s-1.8863-1.7881-.498-3.88" fill="#473e73"/><path d="M171.3239,312.9774l1.09-1.4559,1.057-.792a4.9679,4.9679,0,0,0,1.1171,2.6512l.0006.0006c.4855.3617.947.7136,1.7018,1.215,0,0,.04.3811-.5737.4579a3.0006,3.0006,0,0,1-2.2165-.92l.0038.0252s-.0307-.0423-.0744-.0991a2.7235,2.7235,0,0,1-.18-.2083A2.48,2.48,0,0,0,171.3239,312.9774Z" fill="#feadae"/><path d="M168.188,280.739a20.87,20.87,0,0,1,.0215,5.4378c-.0536.4076-.0858.9224-.0858.9331-.4719,5.3306.0644,6.0492.8259,11.7873a114.5371,114.5371,0,0,1,.29-14.1362c.311-3.1318-.5792-4.3867-.4826-5.5451a56.21,56.21,0,0,1,1.8233-6.1243L166.665,271.89c.5363,3.25.9438,5.6631.9438,5.6631S168.0057,279.8274,168.188,280.739Z" fill="#efa3a3"/><path d="M167.0234,281.4436c-1.5981,6.7678-4.3013,23.2829-5.1486,31.1446-.0429,0-1.5232.1021-2.1239.0914-.0215-.0857-5.6232-25.2512-1.2222-33.5527C161.209,274.0713,168.75,274.1717,167.0234,281.4436Z" fill="#feadae"/><path d="M172.6471,254.18c.7549-9.0272-2.69-12.8207-8.0863-9.84-2.2714,1.2542-5.0712,3.385-4.9161,5.7624.27,4.1443-.4684,24.0721-1.054,28.51-1.32,10.0058,7.1634,7.1643,7.9892,4.3917C168.6638,276.0047,172.2356,259.0987,172.6471,254.18Z" fill="#feadae"/><path d="M153.7623,252.3593c.59,1.92,1.9519,6.135,2.2844,8.1085.8688,5.0732,1.3621,8.6448,2.1773,13.16,0,0,.4612.0322,1.2656.0858.1717.0215.3539.0322.5577.0429,1.9842.118,5.3413.2789,8.7091.2467h.0322a43.947,43.947,0,0,0,7.111-.5256,11.8073,11.8073,0,0,0,1.8877-.4719s.858-6.7571-.45-37.1639c0,0-14.694-2.5741-20.8611-.8688h-.0107c-.2145.0644-.429.1287-.6221.2038C155.843,235.177,151.0487,243.6395,153.7623,252.3593Z" fill="#0088cc"/><path d="M153.7623,252.3593c.59,1.92,1.9519,6.135,2.2844,8.1085.8688,5.0732,1.3621,8.6448,2.1773,13.16,0,0,.4612.0322,1.2656.0858-.8151-7.8833-4.8372-22.3949-4.5047-27.8756a21.4668,21.4668,0,0,1,2.7672-9.7066l-1.2763-1.1584h-.0107c-.2145.0644-.429.1287-.6221.2038C155.843,235.177,151.0487,243.6395,153.7623,252.3593Z" fill="#293882"/><path d="M168.7573,273.9992h.0322a43.9471,43.9471,0,0,0,7.111-.5256c-.5577-.3861-1.18-.8366-1.8233-1.3621-2.4454-2.0164-3.85-14.0826-4.258-12.6132C169.4115,260.9784,168.7573,273.9992,168.7573,273.9992Z" fill="#293882"/><path d="M161.99,311.54s-.1549,1.9272-.1094,2.4638c.0667.7855.2465,1.4592-.7911,1.3625a1.6631,1.6631,0,0,1-1.1731-1.5329c-.046-.3835-.243-1.5832-.243-1.5832Z" fill="#feadae"/><path d="M158.027,215.7442c2.049,13.9566-3.3424,19.1118-2.4143,19.7537,4.9116,3.3572,11.6309,4.099,16.0837,4.1664l.2267.0044a39.9069,39.9069,0,0,0,4.4548-.179s.9662-.0928,1.1784-.6021c.211-.5-.9652-16.3271,2.9632-20.6277,3.288-3.5955-.8082-7.7092-3.2587-16.2483a10.46,10.46,0,0,0-2.7071-1.3911c-5.2376-1.6865-10.7115-1.4664-13.5136.2877a5.0162,5.0162,0,0,0-.9479.735C157.3049,204.45,157.2541,210.4459,158.027,215.7442Z" fill="#fbdb8a"/><path d="M158.027,215.7442c2.049,13.9566-3.3424,19.1118-2.4143,19.7537,4.9116,3.3572,11.6309,4.099,16.0837,4.1664a36.6557,36.6557,0,0,1-9.5557-1.8692,24.15,24.15,0,0,1-4.453-2.0335c1.2963-2.6781,2.6332-9.7361,2.6332-9.7361.9421.3709,7.0773,5.4058,10.8254,7.5954a3.58,3.58,0,0,0,3.02.2917s5.7413.9776,3.68-.9814-5.9313-1.082-5.9313-1.082l-10.9968-10.08a40.0721,40.0721,0,0,0,1.9576-5.4239,5.4043,5.4043,0,0,0,1.9783.5615s1.3769-3.3371,1.9513-5.0268c3.0914-9.0948-1.9292-10.58-4.5225-10.9107a2.6522,2.6522,0,0,0-2.1826.6659l-.008.0079C157.3049,204.45,157.2541,210.4459,158.027,215.7442Z" fill="#f4cf7a"/><path d="M167.5194,194.9461s.36.2888.9847.7013c-.0583.3384-.1258.6647-.169.9727-.3486,1.944-.5259,3.2079-.5259,3.2079a4.58,4.58,0,0,0,5.2553,2.8385,1.8089,1.8089,0,0,0,.3788-.1526,1.66,1.66,0,0,0,.8806-1.49,12.9086,12.9086,0,0,1,.2662-2.7461,3.7164,3.7164,0,0,0,2.7113.3738c.7046-.315,1.2463-1.2688,1.8079-2.0027,3.1831-4.1588,4.1764-13.7218,4.1764-13.7218s-7.8984-4.9965-11.1231-1.929C168.9485,184.067,167.5194,194.9461,167.5194,194.9461Z" fill="#feadae"/><path d="M167.8092,199.828a4.58,4.58,0,0,0,5.2553,2.8385l.047-.0258c-3.1693.3567-2.4915-3.393-1.9031-4.0361s2.7292-.583,2.7292-.583a7.2551,7.2551,0,0,1-4.66-5.0606C168.9285,194.9048,167.8092,199.828,167.8092,199.828Z" fill="#efa3a3"/><path d="M153.88,226.0325c.0313.4183,1.7536,1.9342,4.5711,3.2624,5.3651,2.5291,13.02,5.6784,13.02,5.6784l.409-2.32c-4.4954-3.1442-8.4211-7.2323-12.8254-9.044a.5684.5684,0,0,1-.32-.7194l3.6673-9.248-5.54-2.4148a1.5491,1.5491,0,0,1-.0432.1715C156.43,212.8886,153.6925,223.63,153.88,226.0325Z" fill="#f6b49d"/><path d="M160.0713,202.258c-2.2393,2.1758-3.2628,6.238-3.7567,10.0137l6.7615,3.2887s5.4081-9.6381,1.8124-12.9977A3.59,3.59,0,0,0,160.0713,202.258Z" fill="#fbdb8a"/><path d="M182.6239,182.3516a5.211,5.211,0,0,0,2.5748,1.0894,2.5444,2.5444,0,0,1-1.82,3.1344,7.7167,7.7167,0,0,1-3.2878.3328,15.6958,15.6958,0,0,1-4.348-1.1058,1.2751,1.2751,0,0,0-1.76,1.161,4.8322,4.8322,0,0,1-.6478,2.6325c-1.2144,1.9014-2.3677-2.397-3.5964-.9725-.9417,1.0916.072,4.4086-.36,8.2234-.2069,1.8261-.054,3.5738-3.6853,2.97a8.1345,8.1345,0,0,0-4.1354.8s2.0858-19.8215,9.3584-22.1434C177.847,176.2607,180.1416,180.5355,182.6239,182.3516Z" fill="#3d4177"/><rect x="174.8636" y="225.5712" width="23.7959" height="26.6043" rx="4" ry="4" transform="translate(-92.8768 356.1028) rotate(-74.7245)" fill="none" stroke="#606060" stroke-miterlimit="10"/><path d="M170.2253,232.3718a4.3967,4.3967,0,0,0,.6256.2133.8364.8364,0,0,0,.3479,0,4.4228,4.4228,0,0,1,3.183.5593h0l-.0174.8877s.358.25.506.3231,1.5652.2,1.8918.2654.472.2887.4255.4942c0,0-.04.1-.2262.1009-.0322,0-.1286-.004-.2469-.01.1681.02.31.0375.3738.05.3267.065.4719.2886.4255.4942,0,0-.0407.1-.2262.1007-.0532,0-.3052-.0133-.63-.0323a.412.412,0,0,1,.3232.4576s-.04.1-.2262.1007c-.0554,0-.328-.0145-.6748-.0349a.3551.3551,0,0,1,.0961.3192s-.0408.1-.2264.1007-2.6914-.0485-2.9319-.1385a13.5884,13.5884,0,0,1-2.0253-1.8235,7.0533,7.0533,0,0,0-.6974-.5017Z" fill="#f6b49d"/><path d="M210.1214,204.1123c1.2632-1.7822,4.0045-3.5118,6.0408-3.361.4249.0315-1.2153.8916-1.6621,1.0865a13.7326,13.7326,0,0,1,3.8745.12,4.7283,4.7283,0,0,1,1.89,1.05c1.0089.86-.2211,1.1264-.9953,1.28a13.22,13.22,0,0,0-1.6666.3537c-1.0471.3514-2.0652,1.0971-3.1436.8578-.2914-.0647-.5651-.2-.86-.245a2.8685,2.8685,0,0,0-1.3492.2379c-.839.2932-2.74.9279-3.579,1.221" fill="#feadae"/><polygon points="62.382 303.167 62.372 305.725 72.984 305.764 65.8 303.18 62.382 303.167" fill="#473e73"/><polygon points="37.042 303.073 37.032 305.631 43.435 308.591 46.315 308.602 40.959 303.088 37.042 303.073" fill="#473e73"/><path d="M66.0542,234.8115,65.8,303.18l-3.4184-.0127s-5.6382-15.9739-4.6681-31.6953l-3.786-23.7156-12.968,55.3312-3.8743-.0144s-3.2922-20.4594,1.4894-32.8118l1.9553-35.545Z" fill="#0088cc"/><path d="M66.0542,234.8115s-6.2523,4.847-25.76,4.1862l.2354-4.2811,14.7455-2.67" fill="#293882"/><polygon points="53.927 247.757 58.329 239.065 57.713 271.472 53.927 247.757" fill="#293882"/><path d="M57.3864,169.9328c-4.5079-1.0876-8.4505,1.2687-9.27,5.2129,0,0-6.5023,6.3783,2.0829,12.4624l2.7.3092,3.91-3.2038,5.356-7.4s2.1668-1.6579,2.3442-3.4684C64.9813,169.0366,59.2483,168.0842,57.3864,169.9328Z" fill="#3d4177"/><path d="M52.11,187.6152a12.259,12.259,0,0,0,1.9885-4.4684s-2.8559-.6011-2.3639-2.6814c.4084-1.729,2.582-1.139,3.2691.3533l-.0074,1.9862s1.1191-.0251,1.33-3.8339l1.3166-1.6746,4.5232.0168a18.2275,18.2275,0,0,1,1.1187,8.4582,40.7206,40.7206,0,0,1-1.1664,4.3469l-4.51-.0168-.0122,3.8343.8738,2.0733L57.396,197.18,50.8779,194.38l-.6947-.6639.0162-6.1076Z" fill="#feadae"/><path d="M40.53,234.7165c.0011,0,13.971,3.8488,25.5244.0949,0,0-1.2625-22.397-1.8877-33.4845-.17-3.0226-2.7763-7.3592-5.8038-7.37l-.7662-.0371-.2,3.2609-7.39-3.4383-.5351-.0263a6.3273,6.3273,0,0,0-3.7591,1.512,8.8458,8.8458,0,0,0-3.0884,6.0116L40.06,235.1411Z" fill="#fbdb8a"/><path d="M76.9559,213.2454a14.73,14.73,0,0,1,2.2431-2.2813s3.3854-2.7071,3.9389-3.0925c0,0,.9345.42.2182,1.4294a21.7966,21.7966,0,0,1-1.8254,2.1467,13.3182,13.3182,0,0,0,2.8431-1.0211c1.0564-.6013,3.1764-1.7318,3.9156-1.5627s.3071.8081.3071.8081-3.2576,1.7343-3.9529,2.1114c-.6106.3311-.3074.4882-.3074.4882s3.9058-1.69,4.652-1.8984,1.1375-.0323,1.0911.6354c0,0-2.9887,1.41-3.4309,1.6286s-1.9914.6728-1.761,1.1536c0,0,3.4643-1.2759,4.0706-1.4564s1.01.0913.7607.6856l-4.6754,2.0031s-.327.1481-.1559.3165a11.63,11.63,0,0,0,2.6092-.0755c.2568-.0474,1.0745-.133,1.0416.5042,0,0-.0428.2161-.8081.3069s-4.2132.9511-4.2132.9511a11.8036,11.8036,0,0,1-4.962-.0122c-2.6394-.6048-2.8686-1.6115-1.9647-.4249l.18-1.3988Z" fill="#feadae"/><path d="M43.5733,198.19c.85-2.1977,5.27-4.266,8.8254,2.7377,4.4784,8.82,6.2385,18.3635,25.117,11.0009l.97,4.9446S60.1246,231.09,47.0572,210.7772C45.415,208.2246,41.8993,202.5165,43.5733,198.19Z" fill="#f4cf7a"/></svg>