<svg id="Layer_1" data-name="Layer 1" xmlns="http://www.w3.org/2000/svg" width="40" height="40" viewBox="0 0 40 40"><title>food</title><path d="M28.9757,11.437a.7066.7066,0,0,0-.999,0L26.564,12.85a.7064.7064,0,0,0,.9981,1l.0009-.0009,1.4127-1.4127a.7065.7065,0,0,0,0-.9991Z" fill="#0088cc"/><path d="M12.0233,11.437a.7066.7066,0,0,0-.999,0L9.6116,12.85a.7064.7064,0,1,0,.9977,1l.0013-.0013,1.4127-1.4127A.7678.7678,0,0,0,12.0233,11.437Z" fill="#0088cc"/><path d="M25.4439,8.6116a.7066.7066,0,0,0-.999,0l-1.4127,1.4127a.7064.7064,0,0,0,.999.999l1.4127-1.4127A.7065.7065,0,0,0,25.4439,8.6116Z" fill="#0088cc"/><path d="M16.9677,8.6116a.7066.7066,0,0,0-.999,0L14.556,10.0243a.7064.7064,0,0,0,.999.999l1.4127-1.4127A.7065.7065,0,0,0,16.9677,8.6116Z" fill="#0088cc"/><path d="M20.5,11.437a.7066.7066,0,0,0-.999,0L18.0878,12.85a.7064.7064,0,0,0,.9981,1l.0009-.0009L20.5,12.4363a.7065.7065,0,0,0,0-.9991Z" fill="#0088cc"/><path d="M38.0825,26.0635a2.1215,2.1215,0,0,0-2.119-2.119h-.7063V21.6679c.0291-.0253.0588-.05.0874-.0756a3.5881,3.5881,0,0,1,2.0406-.6931.7063.7063,0,1,0-.0088-1.4126h-.009a5.391,5.391,0,0,0-2.11.4989V18.134a2.1162,2.1162,0,0,0,1.3091-2.22A13.4314,13.4314,0,0,0,23.2492,4.1667H16.7508A13.4314,13.4314,0,0,0,3.4338,15.9133a2.1159,2.1159,0,0,0,1.3091,2.2208v1.82a5.2929,5.2929,0,0,0-2.1283-.4677.7063.7063,0,0,0,.0091,1.4126h.01a3.5143,3.5143,0,0,1,2.09.69l.02.0172v2.3377H4.0365a2.1189,2.1189,0,0,0-.3477,4.2091,2.0086,2.0086,0,0,0-.0239,1.3642,6.3559,6.3559,0,0,0,6.0223,4.3157H30.3127a6.3562,6.3562,0,0,0,6.0225-4.3161,2.0079,2.0079,0,0,0-.0239-1.3635A2.1191,2.1191,0,0,0,38.0825,26.0635ZM4.8356,16.088A12.0168,12.0168,0,0,1,16.7508,5.5794h6.4984a12.0168,12.0168,0,0,1,11.9152,10.509.7134.7134,0,0,1-.6309.7873l-.03.0027-.014.0011c-.0121.0011-.0242.0015-.0362.0015H5.5467a.7152.7152,0,0,1-.7111-.793Zm26.2709,4.46a3.7025,3.7025,0,0,0-5.19,0,2.294,2.294,0,0,1-3.2439.0422L22.63,20.548a3.7025,3.7025,0,0,0-5.19,0,2.294,2.294,0,0,1-3.2439.0422l-.0422-.0422a3.7026,3.7026,0,0,0-5.19,0,2.2536,2.2536,0,0,1-2.8084.3569V18.2937H33.8444v2.6527a2.2617,2.2617,0,0,1-2.7379-.3981Zm2.738,1.93v1.4662H6.1556V22.4571a3.5544,3.5544,0,0,0,1.1655.1982,3.8416,3.8416,0,0,0,2.5951-1.0631A2.294,2.294,0,0,1,13.16,21.55l.0422.0422a3.7023,3.7023,0,0,0,5.19,0,2.294,2.294,0,0,1,3.2439-.0422l.0422.0422a3.7023,3.7023,0,0,0,5.19,0,2.294,2.294,0,0,1,3.2439-.0422l.0422.0422a3.7119,3.7119,0,0,0,3.69.8861Zm1.1528,6.5857A4.9439,4.9439,0,0,1,30.3128,32.42H9.6873A4.9436,4.9436,0,0,1,5.003,29.0644a.7.7,0,0,1,.6906-.8819H34.3064a.7.7,0,0,1,.6908.8815Zm.9663-2.2942H4.0365a.7064.7064,0,1,1,0-1.4127h31.927a.7064.7064,0,1,1,0,1.4127Z" fill="#0088cc"/></svg>