<svg id="Layer_1" data-name="Layer 1" xmlns="http://www.w3.org/2000/svg" width="40" height="40" viewBox="0 0 40 40"><title>health-ic</title><path d="M38.8327,19.4068H35.5333a10.448,10.448,0,0,0,.7044-7.34,8.8245,8.8245,0,0,0-8.3413-6.3394,10.4289,10.4289,0,0,0-3.596.6673,18.6514,18.6514,0,0,0-4.1521,2.076,17.7991,17.7991,0,0,0-4.1521-2.076A10.5885,10.5885,0,0,0,12.4,5.7272a8.8245,8.8245,0,0,0-8.3413,6.3394,10.76,10.76,0,0,0,1.038,8.0076H1.0932A.5932.5932,0,1,0,1.0778,21.26H5.8013a7.8259,7.8259,0,0,0,.6673,1.001c3.8555,5.5608,12.2338,11.6036,13.7538,11.9743v.0371a.1148.1148,0,0,0,.0741-.0371h.1112v-.0371c1.2975-.63,9.3422-5.82,13.5684-11.9743a13.6388,13.6388,0,0,0,1.038-1.6683h3.8926a.5856.5856,0,0,0,.5932-.5779q0-.0077,0-.0153A.6228.6228,0,0,0,38.8327,19.4068Zm-5.9316,2.1873c-3.93,5.7462-11.1587,10.38-12.7158,11.3812-1.5941-1.0009-8.7861-5.6721-12.7529-11.3812L7.21,21.26h5.45a.6116.6116,0,0,0,.5561-.3337L15.7,16.0333l3.8926,9.9724a.6071.6071,0,0,0,.5561.3707h.0371a.59.59,0,0,0,.5561-.4449l3.4106-11.6778,1.8165,5.8945a.6043.6043,0,0,0,.4819.4078.6419.6419,0,0,0,.5932-.26L28.49,18.1835l1.2234,2.076a.5916.5916,0,0,0,.519.2966h3.3365C33.346,20.9268,33.1236,21.26,32.9011,21.5941Zm1.3346-2.1873h-3.633l-1.52-2.5951a.5916.5916,0,0,0-.519-.2966.561.561,0,0,0-.519.26l-1.26,1.8536-2.039-6.6359a.6878.6878,0,0,0-.5932-.4449.6345.6345,0,0,0-.5932.4449l-3.4477,11.9-3.7443-9.5646a.5576.5576,0,0,0-.519-.3707.5749.5749,0,0,0-.5561.3337l-2.9287,5.7462H6.4686A10.0037,10.0037,0,0,1,5.2452,12.4a7.5738,7.5738,0,0,1,7.192-5.45,9.8619,9.8619,0,0,1,3.1882.5932,18.0225,18.0225,0,0,1,4.1892,2.15.5638.5638,0,0,0,.7414,0,16.1626,16.1626,0,0,1,4.1892-2.15A8.9623,8.9623,0,0,1,27.9334,6.95a7.61,7.61,0,0,1,7.192,5.45A9.7466,9.7466,0,0,1,34.2357,19.4068Z" fill="#0088cc"/></svg>