<svg id="Layer_1" data-name="Layer 1" xmlns="http://www.w3.org/2000/svg" width="40" height="40" viewBox="0 0 40 40"><title>hour-free</title><path d="M31.4231,14.0453l1.5011-1.5013a2.0916,2.0916,0,1,0-2.958-2.958l-1.6027,1.6027a14.6458,14.6458,0,0,0-5.5744-2.3571v-2.08h1.3946a.6972.6972,0,0,0,.6973-.6973V4.2415A2.0941,2.0941,0,0,0,22.7891,2.15H17.2109A2.0941,2.0941,0,0,0,15.119,4.2415V6.0544a.6972.6972,0,0,0,.6973.6973h1.3946v2.08a14.6434,14.6434,0,0,0-5.5744,2.3571L10.0338,9.586a2.0916,2.0916,0,1,0-2.958,2.958l1.5011,1.5013a14.6429,14.6429,0,1,0,22.8462,0Zm-.4709-3.4733a.6972.6972,0,0,1,.986.986l-1.4409,1.4406q-.487-.5-1.0192-.9522ZM16.5136,4.2415a.6979.6979,0,0,1,.6973-.6973h5.5782a.6979.6979,0,0,1,.6973.6973V5.3571H16.5136Zm4.881,2.51V8.6305a15.0013,15.0013,0,0,0-2.7891,0V6.7517ZM8.0618,10.572a.6983.6983,0,0,1,.986,0l1.4741,1.4744q-.5311.4515-1.0192.9522L8.0618,11.558A.6985.6985,0,0,1,8.0618,10.572ZM20,36.4558a13.25,13.25,0,0,1-1.9883-26.349,13.4621,13.4621,0,0,1,3.9764,0,13.239,13.239,0,0,1,6.0263,2.55,13.3744,13.3744,0,0,1,1.94,1.8078A13.2489,13.2489,0,0,1,20,36.4558Z" fill="#0088cc"/><path d="M20,25.2993a2.0917,2.0917,0,0,0,.6973-4.0638V16.2347a.6973.6973,0,1,0-1.3946,0v5.0008A2.0917,2.0917,0,0,0,20,25.2993ZM20,22.51a.6973.6973,0,1,1-.6973.6973A.6979.6979,0,0,1,20,22.51Z" fill="#0088cc"/><path d="M27.4279,15.8512c-.0109-.0128-.0218-.0256-.034-.0376s-.027-.0253-.0409-.0373a10.497,10.497,0,0,0-4.3948-2.602.6972.6972,0,0,0-.3949,1.3374,9.0877,9.0877,0,0,1,3.33,1.8159l-.47.47a.6974.6974,0,1,0,.9863.9863l.4715-.4715A8.98,8.98,0,0,1,29.0379,22.51h-.6706a.6973.6973,0,1,0,0,1.3946h.6706a8.9789,8.9789,0,0,1-2.1569,5.1975l-.4715-.4715a.6974.6974,0,0,0-.9863.9863l.4715.4715a8.9817,8.9817,0,0,1-5.1975,2.1572v-.6709a.6973.6973,0,0,0-1.3946,0v.6706a8.98,8.98,0,0,1-5.1975-2.1569l.4715-.4715a.6974.6974,0,0,0-.9863-.9863l-.4715.4715a8.98,8.98,0,0,1-2.1569-5.1975h.6706a.6973.6973,0,1,0,0-1.3946h-.6706a8.98,8.98,0,0,1,2.1569-5.1975l.4715.4715a.6974.6974,0,1,0,.9863-.9863l-.47-.47a9.0837,9.0837,0,0,1,3.33-1.8159.6972.6972,0,0,0-.3949-1.3374,10.4938,10.4938,0,0,0-4.3937,2.6009c-.0144.0123-.0286.0248-.0419.0381s-.0226.0245-.0335.037a10.4421,10.4421,0,0,0-.0005,14.7134c.0109.0128.0218.0256.034.0376s.0245.0229.037.0338a10.4425,10.4425,0,0,0,14.7131.0005c.0128-.0112.0256-.0221.0376-.0343s.0226-.0245.0335-.0368a10.4421,10.4421,0,0,0,.0005-14.7134Z" fill="#0088cc"/><path d="M20,14.1429a.6973.6973,0,1,0-.6973-.6973A.6976.6976,0,0,0,20,14.1429Z" fill="#0088cc"/></svg>