<svg id="Layer_1" data-name="Layer 1" xmlns="http://www.w3.org/2000/svg" width="40" height="40" viewBox="0 0 40 40"><title>inginius-ic</title><path d="M14.22,8.9389a2.9607,2.9607,0,0,0-1.9236,2.765,2.9277,2.9277,0,0,0,.34,1.3484,2.36,2.36,0,0,0,0,4.4146,2.9274,2.9274,0,0,0-.34,1.3481A2.96,2.96,0,0,0,14.22,21.58a2.3377,2.3377,0,0,0-.1458.7905,2.3543,2.3543,0,0,0,3.206,2.2109,2.3645,2.3645,0,0,0,4.4977-1.0258V6.9632A2.3645,2.3645,0,0,0,17.28,5.9375a2.3486,2.3486,0,0,0-3.06,3.0014Zm2.2245-1.9757A1.1864,1.1864,0,0,1,17.63,8.1484h1.1852a2.3475,2.3475,0,0,0-.5463-1.4951,1.1823,1.1823,0,0,1,2.3241.31V23.5558a1.1823,1.1823,0,0,1-2.3241.31,2.3469,2.3469,0,0,0,.5463-1.4951H17.63a1.1852,1.1852,0,1,1-1.1852-1.1852V20a2.3479,2.3479,0,0,0-1.511.56,1.7765,1.7765,0,1,1,2.1036-1.7448h1.1852a2.9663,2.9663,0,0,0-2.963-2.963,2.9315,2.9315,0,0,0-1.7778.6082v-.0156a1.1852,1.1852,0,1,1,0-2.37V14.059a2.9313,2.9313,0,0,0,1.7778.6079,2.9661,2.9661,0,0,0,2.963-2.963H17.037a1.7778,1.7778,0,1,1-2.1036-1.7445,2.3476,2.3476,0,0,0,1.511.5593V9.3336a1.1852,1.1852,0,0,1,0-2.37Z" fill="#0088cc"/><path d="M28.2963,5.778a2.3574,2.3574,0,0,0-.8354.1594,2.3646,2.3646,0,0,0-4.498,1.0258V23.5558a2.3646,2.3646,0,0,0,4.498,1.0258,2.354,2.354,0,0,0,3.2057-2.2109,2.3306,2.3306,0,0,0-.1458-.7905,2.96,2.96,0,0,0,1.9236-2.765,2.9272,2.9272,0,0,0-.3394-1.3481,2.36,2.36,0,0,0,0-4.4146,2.9275,2.9275,0,0,0,.3394-1.3484,2.9607,2.9607,0,0,0-1.9236-2.765,2.3293,2.3293,0,0,0,.1458-.7905A2.3729,2.3729,0,0,0,28.2963,5.778Zm2.963,5.9259a1.7778,1.7778,0,0,1-3.5556,0H26.5185a2.9663,2.9663,0,0,0,2.963,2.963,2.9313,2.9313,0,0,0,1.7778-.6079v.0153a1.1852,1.1852,0,1,1,0,2.37V16.46a2.9315,2.9315,0,0,0-1.7778-.6082,2.9665,2.9665,0,0,0-2.963,2.963h1.1852A1.7778,1.7778,0,1,1,29.8076,20.56,2.3492,2.3492,0,0,0,28.2963,20v1.1852a1.1852,1.1852,0,1,1-1.1852,1.1852H25.9259a2.3469,2.3469,0,0,0,.5463,1.4951,1.1823,1.1823,0,0,1-2.3241-.31V6.9632a1.1823,1.1823,0,0,1,2.3241-.31,2.3475,2.3475,0,0,0-.5463,1.4951h1.1852a1.1852,1.1852,0,1,1,1.1852,1.1852v1.1852a2.349,2.349,0,0,0,1.5113-.5593A1.7779,1.7779,0,0,1,31.2593,11.704Z" fill="#0088cc"/><path d="M31.702,5.3255A13.5165,13.5165,0,0,0,21.5,1.6574L21.5735,2.84a12.4432,12.4432,0,0,1,7.6644,22.7948A7.3259,7.3259,0,0,0,26.56,28.8891H18.156A7.4463,7.4463,0,0,0,15.465,25.61,12.3888,12.3888,0,0,1,9.9326,14.8625L8.748,14.8258a13.5655,13.5655,0,0,0,6.0587,11.7691,6.244,6.244,0,0,1,2.05,2.2943H15.2593v1.1852h2.07a6.8385,6.8385,0,0,1,.2535,1.1852H16.4444v1.1852H17.63v1.7778a.5924.5924,0,0,0,.5926.5926h.5926a3.5556,3.5556,0,1,0,7.1111,0h.5926a.5923.5923,0,0,0,.5926-.5926V32.4447h1.1852V31.26H27.1528a6.606,6.606,0,0,1,.2381-1.1852h2.0906V28.8891h-1.623a6.11,6.11,0,0,1,2.0344-2.2659A13.6275,13.6275,0,0,0,31.702,5.3255ZM22.37,37.1854a2.3727,2.3727,0,0,1-2.37-2.37h4.7407A2.3727,2.3727,0,0,1,22.37,37.1854ZM25.9259,33.63H18.8148V32.4447h7.1111Zm.0422-2.37H18.7674a8.07,8.07,0,0,0-.2008-1.1852h7.5859A7.8733,7.8733,0,0,0,25.9682,31.26Z" fill="#0088cc"/><path d="M8.1481,5.778a2.3729,2.3729,0,0,1,2.37,2.37.5926.5926,0,0,0,1.1852,0,2.3729,2.3729,0,0,1,2.37-2.37.5926.5926,0,0,0,0-1.1852,2.3727,2.3727,0,0,1-2.37-2.37.5926.5926,0,0,0-1.1852,0,2.3727,2.3727,0,0,1-2.37,2.37.5926.5926,0,0,0,0,1.1852Zm2.963-1.5923a3.5864,3.5864,0,0,0,1,1,3.59,3.59,0,0,0-1,1,3.5864,3.5864,0,0,0-1-1A3.5826,3.5826,0,0,0,11.1111,4.1857Z" fill="#0088cc"/><path d="M10.5185,11.704a.5926.5926,0,0,0,0-1.1852,2.3727,2.3727,0,0,1-2.37-2.37.5926.5926,0,0,0-1.1852,0,2.3727,2.3727,0,0,1-2.37,2.37.5926.5926,0,0,0,0,1.1852,2.3729,2.3729,0,0,1,2.37,2.37.5926.5926,0,0,0,1.1852,0A2.3729,2.3729,0,0,1,10.5185,11.704Zm-2.963.4071a3.5864,3.5864,0,0,0-1-1,3.59,3.59,0,0,0,1-1,3.5941,3.5941,0,0,0,1,1A3.59,3.59,0,0,0,7.5556,12.1111Z" fill="#0088cc"/></svg>