<svg id="Layer_1" data-name="Layer 1" xmlns="http://www.w3.org/2000/svg" width="371" height="339" viewBox="0 0 371 339"><title>ionic-banner</title><path d="M149.5574,27.6142A229.9065,229.9065,0,0,0,235.0745,14.22c16.2294-5.9323,54.2682-8.4712,78.5621-3.071,21.09,4.688,70.9978,24.2121,47.2946,82.63s-51.2152,63.4888-32.6736,102.98c13.6173,29.0035,37.8262,58.224,14.7127,80.0568-35.9449,33.9532-179.9285,80.6471-251.933,35.0372S4.0188,250.2666,28.8185,184.3158s-32.27-76.3489-.3153-124.7118C47.6688,30.5969,105.9648,26.36,149.5574,27.6142Z" fill="#f1f3f7"/><path id="_Rectangle_" data-name="&lt;Rectangle&gt;" d="M266.9573,78.1873H267.1a2.2773,2.2773,0,0,1,2.2773,2.2773V94.9639A2.2773,2.2773,0,0,1,267.1,97.2412h-.1423a0,0,0,0,1,0,0V78.1873A0,0,0,0,1,266.9573,78.1873Z" fill="#a4a4a5"/><path id="_Rectangle_2" data-name="&lt;Rectangle&gt;" d="M133.4657,77.5824h.2669a0,0,0,0,1,0,0v40.1491a0,0,0,0,1,0,0h-.2669a4.27,4.27,0,0,1-4.27-4.27V81.8529A4.27,4.27,0,0,1,133.4657,77.5824Z" fill="#a4a4a5"/><path id="_Path_" data-name="&lt;Path&gt;" d="M253.5164,291.7585H145.5854a14.4347,14.4347,0,0,1-14.3919-14.3919L131.195,50.19a14.4326,14.4326,0,0,1,14.39-14.3907h107.931A14.4343,14.4343,0,0,1,267.91,50.19V277.3666a14.435,14.435,0,0,1-14.3935,14.3919" fill="#e2e2e2" fill-rule="evenodd"/><rect id="_Rectangle_3" data-name="&lt;Rectangle&gt;" x="137.1429" y="44.9607" width="124.8175" height="238.5283" rx="10.7048" ry="10.7048" fill="#f7f7f7"/><g id="_Group_" data-name="&lt;Group&gt;"><circle id="_Path_2" data-name="&lt;Path&gt;" cx="219.9122" cy="40.9728" r="1.2384" fill="#a4a4a5"/><circle id="_Path_3" data-name="&lt;Path&gt;" cx="224.6228" cy="40.9728" r="1.238" fill="#a4a4a5"/><circle id="_Path_4" data-name="&lt;Path&gt;" cx="175.5395" cy="40.9728" r="2.2969" fill="#a4a4a5"/><path id="_Rectangle_4" data-name="&lt;Rectangle&gt;" d="M184.5531,39.6211h28.1534a1.2725,1.2725,0,0,1,1.2725,1.2725v.1586a1.2725,1.2725,0,0,1-1.2725,1.2725H184.554a1.2734,1.2734,0,0,1-1.2734-1.2734v-.1577A1.2725,1.2725,0,0,1,184.5531,39.6211Z" fill="#a4a4a5"/></g><path d="M295.6341,226.1357s-.1968,6.0724.2564,7.23.5638,2.4654-.88,2.4547c-1.4153-.0106-4.8127-.0138-5.303-.03-.909-.031-1.7144-.1461-1.6963-.8085s4.2212-.8663,5.0241-1.5336.2111-6.9883.2111-6.9883Z" fill="#feadae"/><path d="M292.9975,229.5258c.33.0179,2.2474.2729,2.601.3523,1.1479-8.4459,2.5087-22.59,2.3882-25.0722q-.02-.4014-.064-.7886a33.16,33.16,0,0,1,.3068-10.6133c1.6678-7.9105,2.9594-16.4939,3.0991-18.8376.2774-4.6515-2.1632-8.6143-5.4511-8.8511s-5.9961,2.9718-6.5216,7.5974C288.0873,184.4777,292.9784,229.3406,292.9975,229.5258Z" fill="#293882"/><path d="M304.9345,226.972s-.1968,6.0725.2563,7.23.623,2.5242-.88,2.4546c-1.414-.0654-4.157-.1662-4.6448-.2228-1.22-.1417-2.6307-.0934-2.6126-.7559s4.4795-.7266,5.2823-1.3939.2111-6.9882.2111-6.9882Z" fill="#feadae"/><path d="M289.8088,193.7046l-.0168.0154c-.5773-8.67-.8744-16.55-.4361-20.4072.5255-4.6256,3.2337-7.8342,6.5216-7.5974s5.7284,4.2,5.4511,8.8511c-.0337.5644-.1347,1.4937-.2912,2.6856-4.8864,2.1036-8.38,7.0348-9.3389,12.8639A6.217,6.217,0,0,1,289.8088,193.7046Z" fill="#293882"/><path d="M302.2979,230.3622c.33.0179,2.2474.273,2.601.3524,1.1479-8.4459,2.5087-22.59,2.3881-25.0722q-.0195-.4014-.0639-.7887A33.16,33.16,0,0,1,307.53,194.24c1.6678-7.9106,2.9594-16.494,3.0991-18.8376.2774-4.6515-2.1632-8.6143-5.4511-8.8511s-5.9961,2.9718-6.5216,7.5973C297.3876,185.3141,302.2787,230.177,302.2979,230.3622Z" fill="#0088cc"/><path d="M121.3278,98.3119c.5568.3756.8366.6234,1.7645-.3754,5.2237-5.3956,9.1454-28.2291,8.9524-27.2413a1.2487,1.2487,0,0,1,2.4715.2882c-1.912,48.7123-19.812,37.8818-28.4267,18.4178a4.354,4.354,0,1,1,8.0781-3.2367C115.4251,89.6487,118.5875,96.4505,121.3278,98.3119Z" fill="#e5989b"/><path d="M119.19,95.2171l-.0225-.0315c-.9967-1.4591-1.9212-2.9837-2.7741-4.547a50.1693,50.1693,0,0,1-2.3088-4.6634l-.03-.0722q-.0729-.1727-.1618-.3418a4.3563,4.3563,0,1,0-7.71,4.0583,54.4238,54.4238,0,0,0,3.2314,5.3486c.7865,1.1342,1.6235,2.2346,2.4855,3.3183C112.5419,97.601,117.6558,95.7669,119.19,95.2171Z" fill="#f4cf7a"/><path d="M114.9232,125.4724c-3.79,4.3487-25.6675,6.1641-25.6675,6.1641-1.6145-1.8739.7459-10.3914,1.315-19.0369.6155-9.3481.97-19.666,1.1323-25.2407a4.2494,4.2494,0,0,1,4.252-4.1258h13.8831a4.104,4.104,0,0,1,4.0974,3.7654c.3642,4.4141.9979,12.0862,1.6232,19.6073C116.1932,114.2373,118.1994,121.7133,114.9232,125.4724Z" fill="#feadae"/><path d="M102.3026,198.1493l.0316,8.6044-.7472,4.1907a1.2024,1.2024,0,0,0,1.1442,1.4193c3.5224.108,12.5423.3459,12.7838-.0449,1.1341-1.8344-3.9923-2.5406-7.7427-3.9923s-1.1626-15.6917-1.1626-15.6917Z" fill="#feadae"/><path d="M107.7723,208.3264c-.02-.0078-.0374-.0211-.0572-.03a8.5871,8.5871,0,0,1-3.0329.53,8.8173,8.8173,0,0,1-2.6483-.3893l-.447,2.5071a1.2024,1.2024,0,0,0,1.1442,1.4193c3.5224.108,12.5422.3459,12.7838-.045C116.6491,210.4843,111.5228,209.7782,107.7723,208.3264Z" fill="#473e73"/><path d="M114.9176,128.6084c.1357,5.9806-2.2167,43.9236-6.863,44.029s-9.827-37.6667-9.9627-43.6472,3.5209-10.9142,8.1672-11.02S114.782,122.6278,114.9176,128.6084Z" fill="#0091c8"/><path d="M101.6372,164.7554c-.461,3.2919-.5356,24.3847.2051,35.1h4.23c2.2714-10.3942,4.6992-30.5389,5.15-33.7573.0057-.0412.0081-.0813.0134-.1224,2.5278-11.1827,3.7822-32.9574,3.6821-37.3673-.1356-5.9806-4.0123-10.7434-8.6586-10.6379s-8.3029,5.039-8.1672,11.02C98.177,132.7446,101.8555,163.1965,101.6372,164.7554Z" fill="#0088cc"/><path d="M109.2164,138.0392a28.3767,28.3767,0,0,1,5.53-5.3655c.03-.0293.061-.0589.0912-.0881.0713-1.7878.0987-3.1738.08-3.9773-.1357-5.9806-4.0123-10.7434-8.6587-10.6379s-8.3028,5.0389-8.1672,11.02c.044,1.936,1.043,10.9692,1.9709,19.4807A80.1447,80.1447,0,0,1,109.2164,138.0392Z" fill="#293882"/><path d="M92.1513,198.1493l.0315,8.6044-.7472,4.1907a1.2024,1.2024,0,0,0,1.1442,1.4193c3.5225.108,12.5423.3459,12.7839-.0449,1.1341-1.8344-3.9923-2.5406-7.7427-3.9923s-1.1627-15.6917-1.1627-15.6917Z" fill="#feadae"/><path d="M97.6209,208.3264c-.02-.0078-.0374-.0211-.0572-.03a8.5876,8.5876,0,0,1-3.0329.53,8.8161,8.8161,0,0,1-2.6482-.3893l-.4471,2.5071a1.2025,1.2025,0,0,0,1.1442,1.4193c3.5225.108,12.5423.3459,12.7838-.045C106.4976,210.4843,101.3713,209.7782,97.6209,208.3264Z" fill="#473e73"/><path d="M104.7662,128.6084c.1357,5.9806-2.2168,43.9236-6.863,44.029s-8.8221-37.806-8.9578-43.7866,2.5159-10.7749,7.1623-10.88S104.6305,122.6278,104.7662,128.6084Z" fill="#0091c8"/><path d="M91.4857,164.7554c-.461,3.2919-.5356,24.3847.2051,35.1h4.23c2.2714-10.3942,4.6992-30.5389,5.15-33.7573.0057-.0412.008-.0813.0134-.1224,2.5278-11.1827,4.7871-33.0968,4.687-37.5067-.1357-5.9806-5.0172-10.604-9.6636-10.4985s-7.2979,4.9-7.1622,10.88C89.0305,132.6052,91.704,163.1965,91.4857,164.7554Z" fill="#0088cc"/><path d="M109.97,83.2331h-2.2556a5.532,5.532,0,0,1-10.0544,0H95.6013a3.8812,3.8812,0,0,0-3.8879,3.7682c-.1573,5.4821-.5138,16.0464-1.1427,25.5982-.5692,8.6455-2.93,16.68-1.3151,19.0368,0,0,21.8775-1.8153,25.6676-6.164,3.2763-3.7592,1.27-11.2351.6355-18.8666-.6314-7.5944-1.2714-15.3426-1.6338-19.7354A3.964,3.964,0,0,0,109.97,83.2331Z" fill="#fbdb8a"/><path d="M97.8752,85.1286c.2093.2673.5894.7174.9113,1.0832.3307.39.6772.78,1.0307,1.1644,9.4,10.4067,22.4632,17.6043,36.4187,16.2839a46.1849,46.1849,0,0,0,6.5375-1.0163l.0524-.0106a1.2507,1.2507,0,0,1,.772,2.3589c-19.9872,9.2468-41.8036-.7124-52.64-14.585a4.35,4.35,0,0,1,6.8568-5.3557Z" fill="#feadae"/><path d="M104.56,91.8257a85.5156,85.5156,0,0,1-6.895-7.4744s-1.7618-2.0822-5.3873-.5639C89.3819,85,89.9683,88.4211,89.9683,88.4211c.07.4761,1.8264,5.3363,8.4836,10.327C98.4519,98.7481,105.05,92.266,104.56,91.8257Z" fill="#f4cf7a"/><path d="M97.2058,69.608h3.9427a0,0,0,0,1,0,0v9.1087a0,0,0,0,1,0,0h-.22a3.7223,3.7223,0,0,1-3.7223-3.7223V69.608A0,0,0,0,1,97.2058,69.608Z" transform="translate(-13.7243 23.276) rotate(-12.5265)" fill="#3d4177"/><polygon points="105.528 83.233 98.27 83.233 100.362 75.996 105.31 76.608 105.528 83.233" fill="#feadae"/><path d="M105.31,76.6082l-4.9482-.6125-.9752,3.3727c1.1076,1.249,2.7507,3.1874,4.5513,3.1874a2.8637,2.8637,0,0,0,1.56-.4582Z" fill="#e5989b"/><path d="M106.0594,80.4548h0a6.0455,6.0455,0,0,1-7.2135-4.589L97.3841,69.292l10.1215-2.2507a52.6431,52.6431,0,0,1,1.1741,8.7594C108.7043,78.5221,107.7208,80.0853,106.0594,80.4548Z" fill="#feadae"/><rect x="97.4775" y="71.7116" width="1.9487" height="0.8837" transform="translate(-13.3146 23.0908) rotate(-12.5367)" fill="#3d4177"/><path d="M100.2857,74.241c.2852,1.2827-.0975,2.459-.8549,2.6274s-1.9664-1.3271-2.2517-2.61a1.5392,1.5392,0,0,1,1.2187-2.0351C99.1552,72.0551,100,72.9583,100.2857,74.241Z" fill="#e5989b"/><path d="M108.8088,69.5887a5.826,5.826,0,0,0-.4152-2.5528h0a3.9939,3.9939,0,0,0-5.108-2.1595,5.92,5.92,0,0,1-.6649.1883l-3.4163.7583a3.8068,3.8068,0,0,0-2.8911,4.5427l.1771.7962,2.0254,1.1745.8255,1.4377.1338-.03a1.2582,1.2582,0,0,0,.97-1.4215,1.9823,1.9823,0,0,1,1.4261-2.3575l3.0318-.6742c1.8456-.41,3.0252.3671,3.3322,1.7475l.1653,1.1887Z" fill="#3d4177"/><path d="M98.5872,67.1922c-.2317,1.8753,6.5081,4.2512,8.2855,4.4709a3.4263,3.4263,0,0,0,.8389-6.7911C105.9341,64.6523,98.8188,65.3168,98.5872,67.1922Z" fill="#3d4177"/><line x1="134.2775" y1="147.1599" x2="139.7985" y2="293.6729" fill="#1d2d60" stroke="#e2e2e2" stroke-miterlimit="10" stroke-width="1.4173"/><line x1="88.6066" y1="147.1599" x2="83.0857" y2="293.6729" fill="#1d2d60" stroke="#e2e2e2" stroke-miterlimit="10" stroke-width="1.4173"/><rect x="85.4575" y="167.8864" width="45.8356" height="0.8146" fill="#e2e2e2"/><rect x="84.258" y="179.006" width="45.7151" height="0.8144" fill="#e2e2e2"/><rect x="82.2656" y="190.1256" width="46.1461" height="0.8144" fill="#e2e2e2"/><rect x="80.911" y="201.2452" width="45.6709" height="0.8144" fill="#e2e2e2"/><rect x="79.3409" y="212.3647" width="45.964" height="0.8145" fill="#e2e2e2"/><rect x="77.77" y="223.4842" width="45.6708" height="0.8145" fill="#e2e2e2"/><rect x="76.1999" y="234.6037" width="45.6708" height="0.8145" fill="#e2e2e2"/><rect x="74.6298" y="245.7233" width="45.6705" height="0.8145" fill="#e2e2e2"/><rect x="73.0589" y="256.8429" width="45.6709" height="0.8145" fill="#e2e2e2"/><rect x="71.4888" y="267.9624" width="45.8212" height="0.8145" fill="#e2e2e2"/><rect x="69.5862" y="279.082" width="46.0948" height="0.8144" fill="#e2e2e2"/><line x1="134.2775" y1="147.1599" x2="114.7033" y2="285.7629" fill="#1d2d60" stroke="#e2e2e2" stroke-miterlimit="10" stroke-width="1.4173"/><line x1="88.6066" y1="147.1599" x2="69.0324" y2="285.7629" fill="#1d2d60" stroke="#e2e2e2" stroke-miterlimit="10" stroke-width="1.4173"/><rect x="88.6066" y="149.6033" width="45.6708" height="4.0724" fill="#e2e2e2"/><rect x="88.6066" y="147.1599" width="45.6708" height="2.4434" fill="#f1f3f7"/><path d="M279.8119,138.9124c-3.2991,1.7216-19.0589-7.1785-19.1758-17.103-.0574-5.1082,2.2915-.2356,2.2915-.2356,4.3812,6.88,11.3463,11.5388,18.9778,14.0147C285.3282,136.699,279.8119,138.9124,279.8119,138.9124Z" fill="#feadae"/><path d="M145.93,101.4517s-3.5793.7257-3.72,1.8915-.0215,1.9744,1.6678,2.2427a12.3963,12.3963,0,0,0,5.5487-.724,9.5075,9.5075,0,0,0,3.4655-2.8333c.2734-1.2614-2.182.0138-3.4013.5732s-2.6517,1.07-2.755.4074,2.3122-1.5588,2.4449-2.3574S145.93,101.4517,145.93,101.4517Z" fill="#feadae"/><path d="M284.3559,134.2269a21.1457,21.1457,0,0,1-5.3407-1.4732,3.3872,3.3872,0,0,0-1.9172-.2342,2.4221,2.4221,0,0,0-1.5919,1.85,7.1339,7.1339,0,0,0,.0259,2.55,4.9746,4.9746,0,0,0,.6118,1.4241,1.6346,1.6346,0,0,0,.6142.42c5.0559,2.3762,10.8005,1.892,15.9184-.3476a5.6937,5.6937,0,0,0,1.8187-1.1335,3.3932,3.3932,0,0,0,.75-3.4739,3.2774,3.2774,0,0,0-2.0691-1.9952c-.9861-.2337-1.5859.3172-2.4747.7563A12.73,12.73,0,0,1,284.3559,134.2269Z" fill="#f4cf7a"/><path d="M287.5644,116.33c.4554,3.0213-3.627,13.9007-.0059,16.8709,3.75,3.0756,3.407-4.9394,9.527-5.28,7.3817-.4107,3.1317-21.44-9.0944-18.052-.5065.14-1.1638-.9463-1.3439-.467C284.4722,115.19,287.0872,113.1635,287.5644,116.33Z" fill="#3d4177"/><path d="M289.1775,132.9539a10.0139,10.0139,0,0,0-4.3819,10.4138c1.2479,7.1893,6.1855,6.3085,5.3972,18.373-.2666,4.08-1.2739,6.0383-.0028,8.2131,1.9723,3.3743,19.1835,3.8209,20.89-1.9347,1.2437-4.1941-2.3563-2.0417-5.8022-10.8435s4.2107-22.415-3.454-24.3284C295.9314,131.3762,291.7262,137.9565,289.1775,132.9539Z" fill="#fbdb8a"/><path d="M291.351,125.8507s-1.21,6.942-2.26,7.8189c-.5536.4621-5.2265,7.6063.8437,7.0443,8.6784-.8035,7.3042-6.1,8.116-7.0218,1.7158-1.9482-.84-2.7135-2.9132-7.903C294.3508,123.821,291.351,125.8507,291.351,125.8507Z" fill="#feadae"/><path d="M293.763,125.77c-1.4806.1066-4.0012,1.476-5.432,1.8761a2.1233,2.1233,0,0,1-1.4082.0929c-.5983-.2613-.8119-1.0208-.9392-1.6843-.8366-4.3631-1.0984-13.1622.0635-12.7a7.1715,7.1715,0,0,1,3.5513-.4463,6.6811,6.6811,0,0,1,2.3331.4988,8.98,8.98,0,0,1,2.1574,1.4722c1.5189,1.2955,3.0444,2.8817,3.2865,4.9069a8.6064,8.6064,0,0,1-.109,2.2245,12.1313,12.1313,0,0,1-.707,2.9868c-.3931.9413-.17-.3034-1.0532.1447-.3127.1585-.65.2634-.9528.4414C294.28,125.7449,294.0347,125.94,293.763,125.77Z" fill="#feadae"/><path d="M293.6823,118.1216a2.7264,2.7264,0,0,0,.0467-1.8809c-1.4265-3.2265-9.5924-.0117-7.8992-5.3058,2.2454-7.02,19.2183-5.6552,19.6171,8.696.2712,9.7606-.6394,11.0817-9.7572,15.618a2.1189,2.1189,0,0,1-1.864-.0978,2.64,2.64,0,0,1-1.155-1.7674C292.2988,131.9121,293.561,118.5814,293.6823,118.1216Z" fill="#3d4177"/><path d="M293.0524,144.9026c-2.614,3.2668-22.8633,1.2537-27.4825-8.9044-2.3746-5.23,2.2508-1.2811,2.2508-1.2811,7.6266,5.0929,16.9045,6.7286,25.8789,5.8167C297.7247,140.1247,293.0524,144.9026,293.0524,144.9026Z" fill="#feadae"/><path d="M266.0433,131.6537s-2.8792-4.2987-3.3131-4.9043c-2.3434-3.27-2.7776-7.1432-1.6331-7.2525,2.9752-.284,3.8974,5.95,3.8974,5.95A23.4909,23.4909,0,0,0,266.0433,131.6537Z" fill="#feadae"/><circle id="_Path_5" data-name="&lt;Path&gt;" cx="246.3469" cy="128.2102" r="19.8013" fill="#e2e2e2"/><circle id="_Path_6" data-name="&lt;Path&gt;" cx="147.6214" cy="82.9075" r="19.8013" fill="#e2e2e2"/><path d="M269.0124,140.5683s-3.6958-3.6208-4.2441-4.1251c-2.9614-2.7234-4.1767-6.4262-3.0786-6.7667,2.8546-.8851,5.0295,5.03,5.0295,5.03A23.4909,23.4909,0,0,0,269.0124,140.5683Z" fill="#feadae"/><path d="M293.4051,138.9906a23.7756,23.7756,0,0,1-6.1628.9052,3.8083,3.8083,0,0,0-2.0787.6282,2.7233,2.7233,0,0,0-.7993,2.625,8.0215,8.0215,0,0,0,1.1825,2.6119,5.5955,5.5955,0,0,0,1.2751,1.188,1.8382,1.8382,0,0,0,.8223.1536c6.2791.153,11.97-2.9492,16.2206-7.5735a6.4036,6.4036,0,0,0,1.3575-1.9907,3.8147,3.8147,0,0,0-.8027-3.9144,3.6842,3.6842,0,0,0-3.0334-1.115c-1.1205.2065-1.4878,1.0453-2.2033,1.9A14.3126,14.3126,0,0,1,293.4051,138.9906Z" fill="#f4cf7a"/><path d="M264.5569,129.6363a10.314,10.314,0,0,1,.12,4.8458,10.5985,10.5985,0,0,1-1.3159-3.22Z" fill="#feadae"/><rect x="13.326" y="260.0249" width="43.226" height="29.285" fill="#e2e2e2"/><rect x="4.5616" y="260.0249" width="8.7643" height="29.285" transform="translate(17.8876 549.3348) rotate(180)" fill="#a4a4a5"/><rect x="13.326" y="260.0249" width="43.7903" height="4.1607" fill="#edeef4"/><rect x="3.8229" y="260.0249" width="9.5031" height="4.1607" transform="translate(17.1489 524.2105) rotate(180)" fill="#e8e8ea"/><rect x="10.4548" y="257.6863" width="43.3186" height="2.3387" fill="#a4a4a5"/><rect x="8.9438" y="255.3642" width="43.3186" height="2.3387" fill="#edeef4"/><rect x="8.5745" y="250.7201" width="43.3186" height="2.3387" fill="#edeef4"/><rect x="10.8668" y="248.398" width="43.3186" height="2.3387" fill="#a4a4a5"/><rect x="12.1178" y="253.0422" width="43.3185" height="2.3387" fill="#a4a4a5"/><rect x="189.4562" y="67.7449" width="69.2361" height="25.687" rx="4.3405" ry="4.3405" fill="#e2e2e2"/><path d="M198.811,75.6142h6.6517a1.76,1.76,0,0,1,1.76,1.76v8.1385a1.76,1.76,0,0,1-1.76,1.76h-6.6518a1.76,1.76,0,0,1-1.76-1.76V77.374A1.76,1.76,0,0,1,198.811,75.6142Z" fill="#edeef4"/><rect x="211.6286" y="75.6142" width="26.7046" height="1.4268" fill="#edeef4"/><rect x="211.6286" y="80.5212" width="41.0804" height="1.4268" fill="#edeef4"/><rect x="211.6286" y="85.4281" width="41.0804" height="1.4268" fill="#edeef4"/><rect x="245.391" y="180.2883" width="69.2361" height="25.687" rx="4.3405" ry="4.3405" transform="translate(-57.9108 154.2073) rotate(-28.0245)" fill="#e2e2e2"/><path d="M257.72,198.3647h6.6517a1.76,1.76,0,0,1,1.76,1.76v8.1385a1.76,1.76,0,0,1-1.76,1.76H257.72a1.76,1.76,0,0,1-1.76-1.76v-8.1384a1.76,1.76,0,0,1,1.76-1.76Z" transform="translate(-65.3318 146.5943) rotate(-28.0245)" fill="#edeef4"/><rect x="265.4552" y="188.2312" width="26.7046" height="1.4268" transform="translate(-56.0844 153.1518) rotate(-28.0245)" fill="#edeef4"/><rect x="266.9179" y="189.1857" width="41.0804" height="1.4268" transform="translate(-55.5185 157.3282) rotate(-28.0245)" fill="#edeef4"/><rect x="269.2234" y="193.5173" width="41.0804" height="1.4268" transform="translate(-57.2834 158.9193) rotate(-28.0245)" fill="#edeef4"/><rect x="148.3476" y="145.2448" width="69.2361" height="25.687" rx="4.3405" ry="4.3405" transform="translate(4.289 -4.8319) rotate(1.531)" fill="#e2e2e2"/><path d="M157.6873,152.5277h6.6517a1.76,1.76,0,0,1,1.76,1.76v8.1385a1.76,1.76,0,0,1-1.76,1.76h-6.6518a1.76,1.76,0,0,1-1.76-1.76v-8.1384a1.76,1.76,0,0,1,1.76-1.76Z" transform="translate(4.2884 -4.2453) rotate(1.531)" fill="#edeef4"/><polygon points="197.352 153.497 170.657 152.783 170.619 153.199 197.314 153.912 197.352 153.497" fill="#edeef4"/><polygon points="211.554 160.212 170.488 159.115 170.526 156.678 211.592 157.775 211.554 160.212" fill="#edeef4"/><polygon points="211.423 164.107 170.357 163.009 170.395 162.594 211.461 163.691 211.423 164.107" fill="#edeef4"/><path d="M171.7618,259.6115c.1427,2.6717,1.7733,17.419,2.9081,26.916.5742,4.8046.6549,8.2664,1.0982,8.1389,1.1443-.3291,4.7164-31.4859,4.5016-35.5092s-2.2936-7.1832-4.643-7.0577S171.547,255.5882,171.7618,259.6115Z" fill="#fa968c"/><path d="M177.614,287.0834c-.41.02-2.7906.3083-3.23.398-1.4254-9.5414-3.115-25.52-2.9653-28.3243q.0243-.4535.0795-.8909a34.1376,34.1376,0,0,0-.381-11.99,197.8945,197.8945,0,0,1-3.8481-21.2809c-.3444-5.2549,2.686-9.7317,6.7685-9.9992s7.4452,3.3572,8.0977,8.5828C183.7109,236.1923,177.6378,286.8742,177.614,287.0834Z" fill="#293882"/><path d="M181.5734,246.616l.0209.0174c.7168-9.7943,1.0857-18.6965.5415-23.0541-.6525-5.2256-4.0152-8.85-8.0977-8.5828s-7.1129,4.7443-6.7685,9.9992c.0418.6376.1673,1.6875.3616,3.0339a19.1057,19.1057,0,0,1,11.5958,14.5324A6.8489,6.8489,0,0,0,181.5734,246.616Z" fill="#293882"/><path d="M174.34,287.1162s.2443,6.86-.3184,8.1672-.7,2.7852,1.0921,2.7731c1.7574-.012,5.9758-.0156,6.5846-.0345,1.1287-.035,2.1287-.165,2.1062-.9133s-5.2414-.9787-6.2383-1.7325-.2622-7.8947-.2622-7.8947Z" fill="#feadae"/><path d="M181.1968,296.27a9.2569,9.2569,0,0,1-3.15.5656,9.3825,9.3825,0,0,1-4.2235-1.0215c-.3652,1.1459-.2613,2.2532,1.2908,2.2425,1.7574-.0119,5.9758-.0155,6.5846-.0344,1.1288-.035,2.1288-.165,2.1064-.9133C183.794,296.7473,182.57,296.5067,181.1968,296.27Z" fill="#473e73"/><path d="M180.91,260.5564c.1427,2.6717,1.7733,17.4191,2.9082,26.9161.5742,4.8045.6549,8.2664,1.0983,8.1389,1.1443-.3292,4.7163-31.486,4.5015-35.5092s-2.2936-7.1832-4.6429-7.0577S180.6951,256.5331,180.91,260.5564Z" fill="#fa968c"/><path d="M186.7622,288.0283c-.41.02-2.7906.3084-3.23.3981-1.4253-9.5414-3.115-25.52-2.9652-28.3243q.0242-.4535.0794-.8909a34.137,34.137,0,0,0-.381-11.99,197.9,197.9,0,0,1-3.8481-21.281c-.3444-5.2548,2.686-9.7317,6.7685-9.9991s7.4452,3.3572,8.0977,8.5828C192.8591,237.1372,186.786,287.8191,186.7622,288.0283Z" fill="#0088cc"/><path d="M183.4884,288.061s.2443,6.86-.3183,8.1673-.7735,2.8516,1.0921,2.773c1.7558-.0739,5.1616-.1877,5.7674-.2517,1.5152-.16,3.2665-.1055,3.244-.8539s-5.5621-.8209-6.5589-1.5747-.2622-7.8947-.2622-7.8947Z" fill="#feadae"/><path d="M189.8651,297.0431a9.2545,9.2545,0,0,1-3.1372.5608,9.362,9.362,0,0,1-3.7727-.8006c-.3639,1.144-.2894,2.2653,1.307,2.1981,1.7558-.0739,5.1616-.1877,5.7674-.2518,1.5152-.16,3.2666-.1054,3.2441-.8538C193.2612,297.4809,191.5543,297.2737,189.8651,297.0431Z" fill="#473e73"/><path d="M181.9531,181.9471c-1.2176,0-2.5345-.6094-4.3485-2.1942a5.5,5.5,0,0,1-1.8132-3.5686v-5.9284h9.1276a16.8862,16.8862,0,0,1,.02,6.2716C184.44,178.8707,182.9106,181.9475,181.9531,181.9471Z" fill="#feadae"/><path d="M153.9773,176.7383a1.0987,1.0987,0,0,1,2.16-.3623l.0037.0155a83.1827,83.1827,0,0,0,3.2182,10.2742c2.668,6.7852,5.0012,7.7552,5.9007,8.3551a4.0073,4.0073,0,0,0,.6813.1625c2.59.5961,7.1124-5.0529,7.9-9.4292a13.75,13.75,0,0,1,.5005-1.5765,3.682,3.682,0,0,1,4.6888-2.2647C190.6746,185.9726,158.1014,226.4176,153.9773,176.7383Z" fill="#feadae"/><path d="M169.4024,222.5111c3.3364,3.8282,22.5953,5.4262,22.5953,5.4262,1.4212-1.65-5.2019-20.48-5.2019-20.48s3.19-13.5908,3.0475-18.4982a3.7408,3.7408,0,0,0-3.7431-3.6319H173.8788a3.6129,3.6129,0,0,0-3.607,3.3147c-.3206,3.8858,4.7554,18.39,4.7554,18.39S166.5183,219.2019,169.4024,222.5111Z" fill="#fab9af"/><path d="M186.7958,207.4577s3.1768-13.987,3.0383-18.813a3.4166,3.4166,0,0,0-3.4225-3.3172h-1.8121a4.87,4.87,0,0,1-8.851,0H174.047c1.85,3.9593,1.1844,9.1822-1.997,12.23,1.3515,4.7762,2.9773,9.4748,2.9773,9.4748s-8.9833,13.5681-7.6739,15.58c2.77,4.2562,24.6444,5.3248,24.6444,5.3248C193.419,225.8623,186.7958,207.4577,186.7958,207.4577Z" fill="#fbdb8a"/><polygon points="178.191 186.169 183.735 185.586 181.981 179.519 178.395 179.963 178.191 186.169" fill="#fab9af"/><path d="M178.3954,179.9633l3.586-.4439.5476,1.894c-.8026.9052-1.8343,2.86-3.1392,2.86a2.0754,2.0754,0,0,1-1.13-.332Z" fill="#fa968c"/><path d="M177.3373,167.4045l3.0745-.1952a5.03,5.03,0,0,0,2.4381-.8125,2.4435,2.4435,0,0,1,3.2342.3892c.8692,1.0341,1.3082,2.465-.6344,3.94-.9656.7332-2.4872.0865-3.4489.47-.0609.0013-.1154-.005-.1784-.001l-2.7285.1743a1.7449,1.7449,0,0,0-1.5608,1.8565,3.4632,3.4632,0,0,1-.4052,1.3243l-1.2748-1.5746-1.1953-.9677a1.1928,1.1928,0,0,1-.44-.851l-.0124-.1947A3.3511,3.3511,0,0,1,177.3373,167.4045Z" fill="#3d4177"/><path d="M209.1924,173.8967s-1.4949,2.8463-.7775,3.5906,1.3355,1.1125,2.4579.1087a10.9133,10.9133,0,0,0,2.591-4.1894,8.3679,8.3679,0,0,0-.0068-3.94c-.7088-.888-1.2038,1.4968-1.5,2.64s-.744,2.4049-1.2538,2.1068.2218-2.4447-.2494-2.9793S209.1924,173.8967,209.1924,173.8967Z" fill="#feadae"/><path d="M154.9475,171.9351s1.4165,2.8862.6789,3.6106-1.3654,1.0754-2.46.0414a10.9127,10.9127,0,0,1-2.4754-4.2588,8.37,8.37,0,0,1,.1146-3.9387c.733-.8683,1.1625,1.5292,1.4272,2.68s.6779,2.4243,1.1957,2.14-.1548-2.45.3308-2.9714S154.9475,171.9351,154.9475,171.9351Z" fill="#feadae"/><path d="M193.2407,194.7919c3.2357,3.6951,5.7066,1.7515,8.5206-2.3171,1.1876-2.028,2.6647-3.7314,6.6235-14.88l.0053-.0149a1.1025,1.1025,0,0,1,2.1326.4941c-3.89,33.9405-22.3138,28.6-27.8115,13.3952a11.7585,11.7585,0,0,1-.7877-3.9708,3.8307,3.8307,0,1,1,7.66-.1589C189.6131,188.7773,191.009,192.3248,193.2407,194.7919Z" fill="#feadae"/><path d="M190.5494,190.1864a4.206,4.206,0,0,1-1.5563-3.6331c.17-2.9309-1.5849-5.5349-3.8365-7.6064a6.6529,6.6529,0,0,1-2.0629-5.6616l.3127-2.723h-9.2081a7.095,7.095,0,0,1-2.8753,5.7453,14.0844,14.0844,0,0,0-4.7946,6.3137c-2.5121,6.4776-.0682,13.4975,5.4472,16.05-1.4535,6.1265,1.2587,12.3034,6.6318,14.3872,5.9407,2.3039,12.8664-1.2684,15.4688-7.9789C196.2742,199.4119,194.6778,193.3288,190.5494,190.1864Z" fill="#3d4177"/><path d="M289.8448,234.0955a7.2154,7.2154,0,0,0,2.6945.5376,7.3835,7.3835,0,0,0,3.6126-.9711c.3124,1.0893.2235,2.1419-1.1041,2.1318-1.5032-.0113-5.1115-.0148-5.6322-.0327-.9656-.0333-1.8209-.1569-1.8017-.8682C287.6232,234.5494,288.67,234.3207,289.8448,234.0955Z" fill="#473e73"/><path d="M299.59,234.7457a6.8051,6.8051,0,0,0,2.6323.547,6.9345,6.9345,0,0,0,3.1655-.781c.3053,1.116.2429,2.21-1.0967,2.1442-1.4732-.0721-4.3308-.1831-4.8392-.2456-1.2713-.1561-2.7408-.1028-2.722-.8329C296.74,235.1728,298.1724,234.9707,299.59,234.7457Z" fill="#473e73"/><line x1="294.6963" y1="288.8537" x2="296.0377" y2="289.1377" fill="none" stroke="#fff" stroke-linecap="round" stroke-miterlimit="10" opacity="0.44"/><line x1="293.9652" y1="290.674" x2="294.8653" y2="290.8644" fill="none" stroke="#fff" stroke-linecap="round" stroke-miterlimit="10" opacity="0.44"/><rect x="198.4313" y="219.126" width="59.4063" height="30.3442" rx="3.0607" ry="3.0607" fill="#e2e2e2"/><circle id="_Path_7" data-name="&lt;Path&gt;" cx="227.9695" cy="222.6619" r="9.7811" fill="#edeef4"/><rect x="202.6959" y="235.3552" width="36.9547" height="1.9744" fill="#edeef4"/><rect x="202.6959" y="239.629" width="45.3119" height="1.9744" fill="#edeef4"/><rect x="202.6959" y="243.4755" width="49.5857" height="1.9744" fill="#edeef4"/><path id="_Rectangle_5" data-name="&lt;Rectangle&gt;" d="M276.1278,236.1183h40.198a.143.143,0,0,1,.143.143v2.2064a.1429.1429,0,0,1-.1429.1429H276.1278a0,0,0,0,1,0,0v-2.4923A0,0,0,0,1,276.1278,236.1183Z" fill="#e2e2e2"/><rect x="276.6356" y="238.6344" width="3.1779" height="38.9759" fill="#e7e4e8"/><rect x="312.61" y="238.6344" width="3.1779" height="38.9759" fill="#e7e4e8"/><path d="M339.278,202.0868l-2.2279-.929a1.8384,1.8384,0,0,1-1.1252-1.8428l.1564-1.9632-4.6792-1.5876-.2957,1.33c-.3464,1.0028-.1,2.3457-.8154,3.1289l-.77.8436Z" fill="#feadae"/><polygon points="318.362 296.166 318.275 302.854 313.973 303.622 310.54 294.932 318.362 296.166" fill="#feadae"/><polygon points="363.334 289.765 360.203 293.846 352.784 291.14 356.081 284.164 363.334 289.765" fill="#feadae"/><path d="M358.6891,299.6632c-.6958-.4092,1.5911-5.3635,1.8947-5.8941l1.799-4.3178c.3037-.5306,1.2449-.157,1.9406.2522l1.8842,1.221-5.5646,9.841Z" fill="#473e73"/><path d="M361.7518,300.38l4.81-8.2826a.8363.8363,0,0,0-.3037-1.1436l-.63-.3651-5.65,9.7292.63.3656A.8364.8364,0,0,0,361.7518,300.38Z" fill="#473e73"/><line x1="359.584" y1="296.2593" x2="360.7768" y2="296.5119" fill="none" stroke="#fff" stroke-linecap="round" stroke-miterlimit="10" opacity="0.44"/><path d="M360.68,294.0851c.9863.2507,2.1039-.9485,2.4269-2.22a2.16,2.16,0,0,0-1.2009-2.7553c-.9865-.2507-3.3869.5953-3.71,1.8663S359.6931,293.8343,360.68,294.0851Z" fill="#feadae"/><path d="M308.0174,305.6555c-.0889-.8156,5.3387-1.9594,5.9558-2.0339l4.3017-.7672c.617-.0745,1.1945.5318,1.2834,1.3475l.1485,2.2775-11.6894,1.4384Z" fill="#473e73"/><path d="M308.8867,308.5887l10.1415-1.1184a.7834.7834,0,0,0,.6924-.8683l-.0918-.7981-11.6114,1.3006v.7055A.7834.7834,0,0,0,308.8867,308.5887Z" fill="#473e73"/><line x1="312.4031" y1="303.9335" x2="313.0741" y2="305.391" fill="none" stroke="#fff" stroke-linecap="round" stroke-miterlimit="10" opacity="0.44"/><line x1="311.3358" y1="304.3185" x2="311.8541" y2="305.4442" fill="none" stroke="#fff" stroke-linecap="round" stroke-miterlimit="10" opacity="0.44"/><line x1="310.184" y1="304.5197" x2="310.6342" y2="305.4976" fill="none" stroke="#fff" stroke-linecap="round" stroke-miterlimit="10" opacity="0.44"/><path d="M314.111,303.7111a2.1956,2.1956,0,0,0,2.9457.8113c1.2324-.5082,1.5171-2.652,1.1227-3.6085s-2.1472-1.4433-3.38-.9351S313.7165,302.7548,314.111,303.7111Z" fill="#feadae"/><path d="M335.9058,278.8381c-3.7956-1.34-4.3291-1.7605-5.2469-7.2565s3.4607-9.2657,2.5153-13.62,3.4014-6.81,5.59-9.21a8.0831,8.0831,0,0,1,1.5892-1.3634l-4.2941,24.497a2.0227,2.0227,0,0,0,1.039,2.1332l18.9828,10.1451c1.694.9054-2.3145,1.4044-4.1812,1.8572l-.02.0056C349.9362,286.6863,339.7014,280.1777,335.9058,278.8381Z" fill="#0088cc"/><path d="M313.2323,282.6626c-.492-5.1465-1.2942-2.7426-3.8245-6.5382s2.8764-10.4433,6.4748-15.7036c7.79-11.3868,14.2217-9.7,13.3713-6.5893l-8.3729,11.7644a26.8655,26.8655,0,0,0-4.46,20.8254l1.3055,6.5548a9.6652,9.6652,0,0,1-1.7271-1.29C312.6181,288.4179,313.7244,287.8089,313.2323,282.6626Z" fill="#293882"/><path d="M313.1159,244.7338l3.2987-10.01,14.9875,7.5836-.6473,9.4154-1.4222,1.3483c-2.039-1.2826-8.8577.648-12.4822,7.2756-3.0581,5.5917-9.973,11.9823-7.4426,15.778s3.3325,1.3917,3.8245,6.5382-.6142,5.7554,2.7671,9.0232a9.6652,9.6652,0,0,0,1.7271,1.29l1.4657,7.3593a.6984.6984,0,0,1-.7772.8287l-6.0343-.8048-5.8553-17.2608a25.832,25.832,0,0,1-.272-15.753C308.8262,258.8069,312.623,246.23,313.1159,244.7338Z" fill="#293882"/><path d="M324.8016,251.5236l-.003-10.1389,16.1042,5.0744c-2.3377,5.1148-8.6023,6.59-7.4251,12.0113,1.0458,4.816-8.1335,16.0318,3.8034,20.245,3.7957,1.34,13.45,6.1623,15.5033,6.1623a8.6046,8.6046,0,0,0,3.2968-.7141l5.0569,3.8107-3.93,4.8219C322.9183,280.6456,323.6153,285.3032,324.8016,251.5236Z" fill="#0088cc"/><path d="M286.6067,201.5471l1.4367.5194-.6019-.743a26.818,26.818,0,0,1,2.8722,1.5635l16.2638,5.8785,15.3969-6.0186,2.6654,7.6966-16.3931,5.1257-1.6832.5263-1.0219-.5211L285.054,205.1272a2.3837,2.3837,0,0,1-.5944-2.6308C284.8089,201.4832,286.6067,201.5471,286.6067,201.5471Z" fill="#feadae"/><polygon points="339.278 202.087 328.726 200.645 325.887 208.072 342.881 206.345 339.278 202.087" fill="#feadae"/><path d="M326.7841,201.0593,316.7117,203.5a1.9434,1.9434,0,0,0-1.2268,2.8579l3.8052,6.6142Z" fill="#fbdb8a"/><path d="M329.4312,179.173a4.77,4.77,0,0,1,.4819-1.7531c3.6174-.7352,8.167-.7173,7.4485,4.3253-.821,5.7619-1.416,12.3518-1.1546,15.6693l-2.6314-.085c-2.9451-.095-6.7878-3.2828-6.6026-6.0352Z" fill="#feadae"/><path d="M353.7349,245.7956l1.0531-2.8637h0l-.4561-18.168-10.3973-11.9982,6.1432-5.6359L360.23,220.984l.3644.4972a2.8121,2.8121,0,0,1,.5156,2.0608h0l-4.3113,19.7643h0a5.634,5.634,0,0,1,.0479,2.202,2.51,2.51,0,0,1-1.4525,2.0584A1.3318,1.3318,0,0,1,353.7349,245.7956Z" fill="#feadae"/><path d="M347.0334,204.1892l7.4257,5.5117a2.3139,2.3139,0,0,1,.4068,3.3292l-4.8018,5.8287a2.2971,2.2971,0,0,1-3.7673-.3208l-2.6979-4.7209Z" fill="#fbdb8a"/><path d="M339.278,202.0868c.03.1743.1913.3727.09.5221-1.7375,2.5662-3.3034,5.5348-8.013,4.407-4.464-1.069-3.8434-4.157-2.6285-6.3715l-1.9424.415-8.9567,2.1707-4.075,32.1995a2.336,2.336,0,0,0,1.546,2.7809l27.1437,8.8233c1.7449.5672,2.303-.4753,2.3492-2.3094l.0953-3.7883,2.16-36.7467Z" fill="#fbdb8a"/><path d="M342.16,193.2947c-2.7351,2.1578-5.2538,8.1872-7.443,1.92-1.2591-3.6045,2.5224-10.8006,1.0375-13.541s-7.6951-.8061-8.7813-2.257a4.8947,4.8947,0,0,1-.4558-3.21c.0934-.842,1.1422-.3765,1.756-.9606,9.1639-8.7208,18.5154,4.2844,17.4461,10.3215C344.5145,192.3692,342.16,193.2947,342.16,193.2947Z" fill="#3d4177"/></svg>