<svg id="Layer_1" data-name="Layer 1" xmlns="http://www.w3.org/2000/svg" width="35" height="35" viewBox="0 0 35 35"><title>ionic</title><path d="M24.3445,17.4906a6.8352,6.8352,0,1,1-6.8352-6.8352,6.834,6.834,0,0,1,6.8352,6.8352Zm0,0" fill="#ccd0d2"/><path d="M31.4593,5.8918A2.3479,2.3479,0,0,0,27.57,4.1175,16.748,16.748,0,1,0,30.8824,7.43a2.34,2.34,0,0,0,.5768-1.538Zm-13.95,27.78A16.1808,16.1808,0,1,1,27.19,4.5343a2.3475,2.3475,0,0,0,3.2722,3.2737A16.18,16.18,0,0,1,17.5094,33.6715Zm0,0" fill="#ccd0d2"/></svg>