<svg id="Layer_1" data-name="Layer 1" xmlns="http://www.w3.org/2000/svg" width="35" height="35" viewBox="0 0 35 35"><title>ios-brand</title><path d="M22.229,6.238A6.2847,6.2847,0,0,0,24.0448,1.32,8.2071,8.2071,0,0,0,18.9054,3.653a6.0191,6.0191,0,0,0-1.8532,4.7675A6.8434,6.8434,0,0,0,22.229,6.238Zm3.7359,12.4635a7.25,7.25,0,0,1,3.3468-6.0832,7.1661,7.1661,0,0,0-5.67-3.1659c-2.4161-.2536-4.711,1.4632-5.9376,1.4632-1.2217,0-3.1113-1.43-5.1151-1.3915a7.5584,7.5584,0,0,0-6.4146,4.0086C3.4378,18.4236,5.473,25.6688,8.14,29.6361c1.3036,1.9421,2.8557,4.1208,4.8938,4.042,1.9675-.0788,2.7091-1.3086,5.0828-1.3086s3.04,1.3086,5.1171,1.2692c2.114-.0394,3.4518-1.98,4.7443-3.9278a17.86,17.86,0,0,0,2.1473-4.5432A7.04,7.04,0,0,1,25.9649,18.7015Z" fill="#ccd0d2"/></svg>