<svg id="Layer_1" data-name="Layer 1" xmlns="http://www.w3.org/2000/svg" width="371" height="339" viewBox="0 0 371 339"><title>mobile-application-development</title><path d="M142.3551,50.9971a231.9615,231.9615,0,0,0,81.1013-15.0865c15.2645-5.9034,51.467-9.548,74.8511-5.579,20.3,3.4455,68.6544,19.1588,48.2229,72.397s-46.4943,58.7748-27.3231,93.5216c14.08,25.5189,38.2743,50.8516,17.0361,71.2611-33.0285,31.74-168.6736,78.79-239.09,40.479S11.8131,255.8923,33.0088,195.86s-33.65-67.3048-4.9694-111.8228C45.2419,57.3358,100.7109,51.44,142.3551,50.9971Z" fill="#f1f3f7"/><path d="M96.6824,109.713c21.85,11.2088,37.2721,12.2419,41.3232,5.7178L57.9924,74.3849C61.3279,79.0006,76.91,99.57,96.6824,109.713Z" fill="#f4cf7a"/><path d="M57.3277,73.4483s.2293.3341.6647.9366l80.0132,41.0458c.0932-.15.1876-.3.2686-.4579,3.6059-7.029-6.1814-19.2472-28.5343-30.7139S57.3277,73.4483,57.3277,73.4483Z" fill="#fbdb8a"/><path d="M120.1729,105.8255q-8.0879-4.1209-16.1647-8.2635Q87.845,89.2942,71.5761,81.2359a.1045.1045,0,0,0-.0952.186q10.8393,5.74,21.7243,11.3937a48.9874,48.9874,0,0,0-9.97,3.2949.1816.1816,0,0,0,.1069.3323,50.3522,50.3522,0,0,0,10.4564-3.3192c3.2859,1.7084,6.5686,3.4227,9.8619,5.1169q8.0714,4.1525,16.1411,8.309c5.3445,2.76,10.6368,5.9053,16.1869,8.22a.3326.3326,0,0,0,.3035-.5913C131.1748,111.0205,125.5321,108.556,120.1729,105.8255Z" fill="#2e5175"/><path d="M113.2947,102.6337a102.414,102.414,0,0,0-16.7584,5.434.114.114,0,0,0,.07.217,102.3916,102.3916,0,0,0,16.7815-5.3619A.1519.1519,0,0,0,113.2947,102.6337Z" fill="#2e5175"/><path d="M99.16,84.7728c.5873,2.27,1.2679,4.515,1.9231,6.7665a29.9546,29.9546,0,0,0,2.1137,5.9732.172.172,0,0,0,.3147-.1015,29.93,29.93,0,0,0-1.7676-6.0845c-.7811-2.2108-1.5379-4.4312-2.3852-6.6176A.1045.1045,0,0,0,99.16,84.7728Z" fill="#2e5175"/><path d="M119.4954,95.531a89.636,89.636,0,0,0,3.6309,11.6208.19.19,0,0,0,.3616-.1163,89.61,89.61,0,0,0-3.83-11.557A.0854.0854,0,0,0,119.4954,95.531Z" fill="#2e5175"/><path d="M130.0513,110.5163a80.1944,80.1944,0,0,0-13.75,4.4957.1236.1236,0,0,0,.0757.2352,80.2021,80.2021,0,0,0,13.7908-4.3694A.19.19,0,0,0,130.0513,110.5163Z" fill="#2e5175"/><path d="M113.4822,87.4659c10.2133,17.7175,20.5321,25.4126,26.315,22.6815l-37.4011-64.881C102.642,50.0023,104.24,71.4332,113.4822,87.4659Z" fill="#f4cf7a"/><path d="M102.3548,44.3107s.0093.3373.0414.9556l37.4011,64.881c.1331-.0628.2667-.1248.3949-.1987,5.7-3.2857,4.3788-16.2556-6.07-34.3811S102.3548,44.3107,102.3548,44.3107Z" fill="#fbdb8a"/><path d="M131.6681,95.3674q-3.7931-6.5385-7.5688-13.0873-7.566-13.09-15.3005-26.0811a.087.087,0,0,0-.1507.0869q4.985,8.9155,10.0416,17.79a40.7781,40.7781,0,0,0-8.4621-2.2033.1513.1513,0,0,0-.0754.2808,41.9225,41.9225,0,0,0,8.8135,2.4061c1.5257,2.68,3.0462,5.3635,4.5836,8.0374q3.7678,6.5533,7.532,13.1086c2.49,4.3468,4.7691,8.939,7.6042,13.0671a.2769.2769,0,0,0,.48-.2765C137.0138,103.9746,134.1817,99.7,131.6681,95.3674Z" fill="#2e5175"/><path d="M128.301,90.0254a85.2829,85.2829,0,0,0-14.1769-3.7763.0949.0949,0,0,0-.0493.1832A85.2919,85.2919,0,0,0,128.2354,90.27.1265.1265,0,0,0,128.301,90.0254Z" fill="#2e5175"/><path d="M126.4908,71.1437c-.6156,1.8533-1.1545,3.7309-1.7143,5.6017a24.941,24.941,0,0,0-1.2223,5.1332.1432.1432,0,0,0,.2659.0714,24.9066,24.9066,0,0,0,1.5148-5.0544c.4533-1.8993.9279-3.7944,1.324-5.7067A.0871.0871,0,0,0,126.4908,71.1437Z" fill="#2e5175"/><path d="M135.8486,87.8614a74.6294,74.6294,0,0,0-2.7145,9.7689.1582.1582,0,0,0,.3054.0821,74.63,74.63,0,0,0,2.5467-9.8142A.0712.0712,0,0,0,135.8486,87.8614Z" fill="#2e5175"/><path d="M136.4561,103.1142a66.7891,66.7891,0,0,0-11.649-3.0725.1029.1029,0,0,0-.0533.1986,66.7672,66.7672,0,0,0,11.62,3.1793A.1582.1582,0,0,0,136.4561,103.1142Z" fill="#2e5175"/><path d="M97.4452,126.4051c17.8808,4.229,29.27,2.2171,31.044-3.2481L63.0107,107.6708C66.26,110.4264,81.2651,122.5784,97.4452,126.4051Z" fill="#f4cf7a"/><path d="M62.36,107.1095s.2264.2016.6507.5614l65.4786,15.4862c.0408-.1258.0826-.2513.1131-.3807,1.36-5.752-7.9381-12.8751-26.23-17.2015S62.36,107.1095,62.36,107.1095Z" fill="#fbdb8a"/><path d="M113.8139,119.3735q-6.6138-1.545-13.223-3.1076-13.2228-3.1114-26.4852-6.0513a.0781.0781,0,0,0-.0358.152q8.9025,2.2288,17.8226,4.386a36.65,36.65,0,0,0-6.6526,4.1794c-.1016.0847.0161.2752.1373.2222a37.66,37.66,0,0,0,7.0016-4.2842c2.6932.6525,5.3848,1.31,8.0808,1.9509q6.6075,1.5709,13.2142,3.145c4.377,1.0478,8.7848,2.3847,13.2315,3.072a.2488.2488,0,0,0,.1144-.484C122.7368,121.1768,118.1962,120.3972,113.8139,119.3735Z" fill="#2e5175"/><path d="M108.2454,118.2867a76.6223,76.6223,0,0,0-11.2009,6.9494.0853.0853,0,0,0,.09.145,76.6308,76.6308,0,0,0,11.2307-6.9011A.1137.1137,0,0,0,108.2454,118.2867Z" fill="#2e5175"/><path d="M94.7779,107.8433c.8334,1.544,1.73,3.053,2.609,4.5711a22.4124,22.4124,0,0,0,2.6056,3.9608.1287.1287,0,0,0,.21-.13,22.3874,22.3874,0,0,0-2.3739-4.1035c-.9634-1.4662-1.9109-2.9437-2.9179-4.38A.0783.0783,0,0,0,94.7779,107.8433Z" fill="#2e5175"/><path d="M111.4777,112.0163a67.075,67.075,0,0,0,4.7193,7.7917.1421.1421,0,0,0,.2418-.1492,67.0359,67.0359,0,0,0-4.8522-7.71A.064.064,0,0,0,111.4777,112.0163Z" fill="#2e5175"/><path d="M121.83,121.0118a60.0084,60.0084,0,0,0-9.1836,5.729.0924.0924,0,0,0,.0971.1571,60,60,0,0,0,9.2358-5.6443A.1421.1421,0,0,0,121.83,121.0118Z" fill="#2e5175"/><path d="M125.0865,40.8261H245.9182a0,0,0,0,1,0,0V281.8669a11.64,11.64,0,0,1-11.64,11.64H136.7263a11.64,11.64,0,0,1-11.64-11.64V40.8261A0,0,0,0,1,125.0865,40.8261Z" fill="#fff"/><path d="M232.1615,40.8783a12.4633,12.4633,0,0,1,12.4491,12.449V279.6564a12.4632,12.4632,0,0,1-12.4491,12.449H138.8385a12.4632,12.4632,0,0,1-12.4491-12.449V53.3273a12.4632,12.4632,0,0,1,12.4491-12.449h93.3231m0-6.0938H138.8385a18.5428,18.5428,0,0,0-18.5428,18.5428V279.6564a18.5427,18.5427,0,0,0,18.5428,18.5426h93.3231a18.5427,18.5427,0,0,0,18.5428-18.5426V53.3273a18.5428,18.5428,0,0,0-18.5428-18.5428Z" fill="#e2e2e2"/><path d="M145.289,37.6718v3.1737h5.3957a1.9785,1.9785,0,0,1,1.951,2.0049s2.0545,7.37,5.5285,7.37h54.6716c3.474,0,5.5285-7.37,5.5285-7.37a1.9784,1.9784,0,0,1,1.9509-2.0049h5.3958V37.6718Z" fill="#e2e2e2"/><circle cx="198.9381" cy="43.9784" r="2.2984" fill="#395682" opacity="0.23"/><path d="M191.8923,45.0893H177.4832a.9838.9838,0,0,1-.9837-.9839h0a.9838.9838,0,0,1,.9837-.9838h14.4091a.9839.9839,0,0,1,.9839.9838h0A.9839.9839,0,0,1,191.8923,45.0893Z" fill="#395682" opacity="0.23"/><path d="M220.9711,288.7654H153.418a1.1893,1.1893,0,0,1-1.1893-1.1893h0a1.1893,1.1893,0,0,1,1.1893-1.1893h67.5531a1.1893,1.1893,0,0,1,1.1893,1.1893h0A1.1893,1.1893,0,0,1,220.9711,288.7654Z" fill="#e2e2e2"/><path d="M272.4971,302.436v3.4787s1.3805,4.4128,1.0143,5.5079-13.5844,3.3535-14.4816,1.9c-1.3524-2.19,7.5507-5.25,8.3959-7.8271l.2254-3.06Z" fill="#473e73"/><path d="M291.0217,302.436v3.4787s1.3805,4.4128,1.0143,5.5079-13.5845,3.3535-14.4816,1.9c-1.3524-2.19,7.5507-5.25,8.3959-7.8271l.2254-3.06Z" fill="#473e73"/><path d="M267.6511,302.436l-.2254,3.06a2.088,2.088,0,0,1-.2958.5514c1.4163.74,3.7622,1.6419,5.6374.7869-.1543-.5473-.27-.92-.27-.92V302.436Z" fill="#feadae"/><path d="M286.1757,302.436l-.2254,3.06a3.082,3.082,0,0,1-.8524,1.1755,5.3109,5.3109,0,0,0,6.2633.4116c-.1883-.6834-.3395-1.1684-.3395-1.1684V302.436Z" fill="#feadae"/><path d="M251.2955,199.6546c1.6761,1.8051,1.3259,5.3984,1.7368,6.1524a61.8928,61.8928,0,0,0,8.4485,12.3389,20.1089,20.1089,0,0,0,2.47-5.9334l6.1983.6011s-3.2435,13.157-7.6387,13.0819-9.4017-8.0465-11.6932-15.7475Z" fill="#feadae"/><path d="M263.3991,214.0841a11.7849,11.7849,0,0,0,5.7747,2.05c.6244-1.9006.9755-3.32.9755-3.32l-6.1983-.6011A11.15,11.15,0,0,1,263.3991,214.0841Z" fill="#ffc494"/><path d="M269.567,236.0829l22.7841-1.0292-.564,68.5418a9.2916,9.2916,0,0,1-7.2126.4294s-5.1841-42.1739-5.86-51.9658c0,0-5.0338,16.0621-5.1089,27.83s0,23.9644,0,23.9644-4.0571.9448-6.6116,0c0,0-3.08-22.3324-4.1322-30.4923S269.567,236.0829,269.567,236.0829Z" fill="#0088cc"/><path d="M268.33,240.1907a45.1141,45.1141,0,0,0,23.9137,6.2687l.1073-11.4056-22.784.9S269.063,237.609,268.33,240.1907Z" opacity="0.11"/><path d="M265.3127,199.29c-1.6247,2.0661-1.55,11.3073-2.1882,13.7115,0,0,1.6529,1.8408,5.8227,1.6154,0,0-.9016-8.5274-1.6529-11.42A7.7141,7.7141,0,0,0,265.3127,199.29Z" fill="#f4cf7a"/><path d="M270.1492,212.8135l-1.42-.1377c-.313-2.6926-.9106-7.4589-1.4354-9.4792a7.7144,7.7144,0,0,0-1.9816-3.9069l1.2947,22.9591A45.2982,45.2982,0,0,0,270.1492,212.8135Z" opacity="0.11"/><path d="M279.2408,190.5513a40.5429,40.5429,0,0,1,8.4142,4.7357c3.3058,2.65,5.1089,40.2913,5.1089,40.2913-5.56,1.2772-13.2232,9.3163-23.9669,3.08,0,0-.2066-25.62-3.4842-39.3689a22.0657,22.0657,0,0,1,8.2175-6.6867A21.71,21.71,0,0,1,279.2408,190.5513Z" fill="#fbdb8a"/><path d="M283.7054,207.2549c1.5276,2.7425,6.5713,11.9073,6.968,14.0609.468,2.54.661,22.33.661,22.33h3.016s1.872-19.3881,1.5377-23.3994c-.2374-2.8484-4.0425-10.5136-6.23-14.7208A21.8643,21.8643,0,0,0,283.7054,207.2549Z" opacity="0.11"/><circle cx="289.826" cy="231.3056" r="17.6765" fill="#e2e2e2"/><path d="M288.8194,211.0854a95.9257,95.9257,0,0,1,3.5688,9.5793c.5635,2.5169-.3005,20.8866-.3005,20.8866s-3.8693,6.1232-3.9444,6.8369,1.3148-.2629,1.8032,0-.15,1.6154.4132,1.8032,3.3433-.15,4.2825-1.2772a10.0533,10.0533,0,0,0,1.69-6.0857s2.855-16.0027,2.2164-22.8776c-.3753-4.04-3.982-11.57-3.982-11.57Z" fill="#feadae"/><path d="M294.567,208.3807l-5.7475,2.7047s.2313.5437.5769,1.3813c.936-.3152,3.5511-1.2,6.0753-2.0857C294.9467,209.1743,294.567,208.3807,294.567,208.3807Z" fill="#ffc494"/><path d="M265.3127,174.3931s1.0621,11.1007,1.2593,13.0447,2.2343,2.5639,3.3331,2.5075,2.592,4.3389,2.5639,5.2122c0,0,3.4654,1.1833,6.8745-3.6063l-.4226-4.1135s2.7048-6.3674,2.1131-9.6356a8.1079,8.1079,0,0,0-7.3535-6.7055C269.68,170.8713,265.3127,174.3931,265.3127,174.3931Z" fill="#feadae"/><path d="M272.4689,195.1575s3.4655,1.1833,6.8746-3.6063l-.4226-4.1135a38.79,38.79,0,0,0,1.5578-4.5784c-1.2392-1.0848-2.4477-1.5082-2.7975.4649-.7366,4.1545-5.4714,6.4985-7.6314,6.6408C271.13,190.2649,272.4959,194.3219,272.4689,195.1575Z" fill="#feadae"/><path d="M262.5234,173.4633s-2.9865-4.9023,0-7.4944,8.0015.7889,8.0015.7889a3.9932,3.9932,0,0,1,3.9444-.3381,3.9092,3.9092,0,0,1,2.6484,3.3245,6.2435,6.2435,0,0,1,5.6349,4.9587c1.0143,4.7333-3.8317,12.7348-3.8317,12.7348l-1.24-4.1135a2.65,2.65,0,0,0,1.991-2.423c.15-2.0286-.92-2.9114-1.6529-2.8738s-1.4462.77-1.559,2.6484a7.33,7.33,0,0,1-1.5778-6.2547s-8.0927.9391-10.4433.9391C260.9081,175.36,262.5234,173.4633,262.5234,173.4633Z" fill="#3d4177"/><path d="M284.85,193.3718c3.0683,1.7482,5.1345,1.8985,11.5582,14.8962a18.6058,18.6058,0,0,1-8.3772,4.32S279.94,198.0849,284.85,193.3718Z" fill="#f4cf7a"/><path d="M271.1616,304.2153a18.9476,18.9476,0,0,0,2.4437-.3621s-.0751-12.1969,0-23.9644,5.109-27.83,5.109-27.83-6.6267,14.2945-8.2312,24.8422C269.1019,285.9806,270.6918,300.3793,271.1616,304.2153Z" fill="#293882"/><path d="M189.0273,20.9268c-16.88-.6455-40.1184,11.8381-31.8748,42.3615l3.2048-1.4772c2.81-22.6938,8.0678-26.62,16.9923-26.5382l20.9366-.0432c5.174.7623,14.8316,5.3542,16.2426,23.521l4.9608-.01C219.8961,45.618,216.7194,21.9857,189.0273,20.9268Z" fill="#fbdb8a"/><path d="M185.5749,21.4238l-2.5071,5.5107a3.3091,3.3091,0,0,0,3.3447,3.0387c3.0455-.0648,3.4526-1.4713,3.4526-1.4713l.397-6.3264Z" fill="#feadae"/><path d="M198.462,16.828c-2.8579,5.0525-4.1241,6.6248-7.8609,7.3842-4.84.9835-10.2662-2.28-7.7439-10.3246,2.0569-6.56,5.17-5.5494,8.22-5.3016S201.55,11.3693,198.462,16.828Z" fill="#feadae"/><path d="M187.1018,12.8415a2.0486,2.0486,0,0,0-2.3262.5618,2.5484,2.5484,0,0,0-.6408,2.4362,2.2154,2.2154,0,0,0-2.0854,2.3289c-.7992-1.8647-.367-3.8041-.5251-5.7124a7.4173,7.4173,0,0,1,1.288-5.4443,6.2153,6.2153,0,0,1,1.8534-1.4288,9.5884,9.5884,0,0,1,8.6106-.1217,5.2277,5.2277,0,0,0,3.8736.6794c3.6872-.8915,5.8444,1.6018,3.6287,3.9375a2.9424,2.9424,0,0,1,1.8144,1.2583.5674.5674,0,0,1,.0151.5532.6386.6386,0,0,1-.3382.21,4.02,4.02,0,0,1-1.94.1542c.2488.2115,1.6167.2937,2.03,1.09,1.0988,2.1183-3.2564,1.0487-3.92.8361.7582.1423,2.7468,1.7293,2.11,2.8187-.1256.215-2.8113,1.78-5.634-1.4991a5.1524,5.1524,0,0,0-2.4483-1.7262,3.854,3.854,0,0,0-2.3.3566c-.5391.203-1.9158,1.04-2.3105.542C187.423,14.1233,187.9814,13.279,187.1018,12.8415Z" fill="#3d4177"/><rect x="152.7465" y="63.0323" width="80.4107" height="36.3928" rx="12" ry="12" transform="translate(-6.281 16.9263) rotate(-4.9426)" fill="#e2e2e2" opacity="0.33"/><rect x="179.9544" y="125.8103" width="58.2285" height="26.3534" rx="10.4008" ry="10.4008" fill="#e2e2e2"/><rect x="135.5899" y="201.0561" width="58.2285" height="26.3534" rx="10.4008" ry="10.4008" fill="#e2e2e2"/><path d="M215.0632,58.7551c-.7478,2.5751-1.505,2.8311-.5976,3.2412s1.6406-1.0331,1.6406-1.0331l4.1874.8327s-.9445-2.72-1.6045-3.0482S215.0632,58.7551,215.0632,58.7551Z" fill="#feadae"/><path d="M160.3574,61.8112c.5467,1.3586.6977,1.3673,1.46,3.0008,1.4566,3.1214-1.9555,8.0566-4.0736,2.6683a15.0718,15.0718,0,0,1-.5911-4.1919Z" fill="#feadae"/><circle cx="151.1868" cy="138.0708" r="17.6765" fill="#e2e2e2"/><polygon points="63.649 263.131 65.924 262.499 66.27 265.619 64.191 267.005 63.151 263.886 63.649 263.131" fill="#feadae"/><path d="M91.7866,164.2687c2.0208-.6964,6.44.0753,9.1057,3.5459s2.725,4.84,5.1119,6.58,3.3,4.1611,1.9984,6.3322-5.5742,3.4751-7.9977,3.5294-4.0324-9.0341-4.0324-9.0341Z" fill="#3d4177"/><path d="M64.7762,262.481c3.07-2.1167,12.0781-8.1406,19.0662-10.9058a58.5519,58.5519,0,0,1,2.3589-10.852,28.1531,28.1531,0,0,0,2.0754-9.596c.0466-2.4764,1.6042-6.6184,3.6459-9.9332,0,0,2.1027-6.1364,1.9863-8.85s-3.9349-9.2148-3.9349-9.2148-6.6189,10.73-6.1981,13.0535,8.0206-2.9477,8.0206-2.9477,1.0617.7939.6075,3.3685c0,0-8.7806,8.68-13.539,8.0758s-1.37-9.9137-.6155-12.764,5.2924-13.6579,7.331-16.6946c2.5213-3.7557,8.5051-6.2415,8.5051-6.2415s-.9757-1.4677-.776-2.1077,1.95-2.1613,4.4156-3.2269,4.282-1.162,5.06-.6106a3.39,3.39,0,0,1,1.0925,1.3s15.8767-1.184,26.2433-29.74c0,0,3.396-9.3085,7.82-10.3327,0,0-3.05,2.731-1.3248,3.92,1.3362.9208,2.7146-1.5,3.7381-1.1684s-1.7751,2.4614-2.4686,3.8732a10.6245,10.6245,0,0,1-2.4825,2.835,69.6264,69.6264,0,0,1-11.0661,24.5138c-8.4365,11.4608-11.4036,12.7738-11.7753,15.47-.3319,2.4068.31,4.97-.56,9.1986s1.0042,11.7427,1.0474,17.5661-1.1819,28.0776-2.59,35.5113c-1.1,5.8079-5.8739,23.6695-7.91,31.2048a4.2756,4.2756,0,0,0,2.196,4.9345c2.4853,1.2565,5.5568,2.9234,5.6006,3.5074.0741.983-14.111.4982-14.3885-1.1275-.1541-.903.6006-2.0682,1.3018-2.9256a4.8189,4.8189,0,0,0,1.1119-2.9615c.0939-5.1561.5428-20.1357,2.6324-27.0934,0,0-.4047-17.77-.0819-21.33,0,0-7.9968,13.7848-10.5484,15.9828-2.17,1.87-19.2544,8.0729-24.3138,9.8857" fill="#0088cc"/><path d="M140.3538,147.0127c-1.0235-.3313-2.3311,1.9769-3.738,1.1684s1.3248-3.92,1.3248-3.92c-4.0381,0-6.394,5.448-7.2973,8.4165l4.3538,2.7439c.281-1.0828.4057-1.7.4057-1.7a10.6239,10.6239,0,0,0,2.4825-2.8351C138.5787,149.4741,141.3774,147.344,140.3538,147.0127Z" fill="#feadae"/><path d="M92.5482,219.22c-.3475,1.16-.6257,1.9742-.6257,1.9742-.4207.683-.8135,1.4049-1.1841,2.1362,4.8618-.2457,10.1415,2.2153,14.5822,2.2153a17.2448,17.2448,0,0,0,7.6776-1.8737c.0381-1.3146.0563-2.4134.05-3.2024-.0015-.1931-.01-.3925-.0151-.589l-.1816-1.002Z" fill="#fbdb8a"/><path d="M130.8888,151.9032h0c-.51,1.55-.7677,2.69-.7677,2.69-10.3666,28.5557-26.2433,29.74-26.2433,29.74a3.39,3.39,0,0,0-1.0925-1.3c-.7781-.5514-2.5945-.455-5.06.6106s-4.2156,2.587-4.4155,3.2269.7759,2.1077.7759,2.1077-5.9837,2.4858-8.5051,6.2415c-2.0386,3.0367-6.577,13.8445-7.331,16.6946s-4.1431,12.16.6155,12.764,13.539-8.0758,13.539-8.0758c.4542-2.5747-.6075-3.3686-.6075-3.3686s-7.6,5.271-8.0206,2.9478,6.1981-13.0535,6.1981-13.0535,3.8187,6.501,3.9349,9.2149c.108,2.5171-1.69,7.97-1.9522,8.7489,4.8808-.7522,7.6783,2.4784,14.5164,2.7038a19.5581,19.5581,0,0,0,6.5449-.8594c.0241-.9885.0353-1.831.0307-2.4675-.0432-5.8234-1.9171-13.3376-1.0473-17.5662s.2282-6.7916.56-9.1986c.3717-2.6963,3.3388-4.0093,11.7752-15.47a69.6228,69.6228,0,0,0,11.0662-24.5138S133.6159,154.87,130.8888,151.9032Z" fill="#fbdb8a"/><path d="M94.5649,165.9863l6.9227,7.1642.1356.62s1.6166,4.14.414,5.8075a5.0921,5.0921,0,0,1-2.4275,2.0067l1.7595,2.7294s-1.3508,2.4033-5.8208,2.84l-4.3935-7.8779Z" fill="#feadae"/><path d="M89.1548,165.5633c4.7593-3.14,9.7856-.7278,9.5919,1.3989s-4.3731,4.1977-4.42,8.0867c-.0329,2.7154,3.7587,7.1873.9351,11.1817s-6.0159,4.3808-7.4451,3.6959-3.7425-.9836-3.5118-6.8645c.19-4.852,1.4321-6.8127,1.5766-10.243S86.7761,167.1325,89.1548,165.5633Z" fill="#3d4177"/><path d="M101.0034,261.52c-1.1921,3.9694-1.85,10.5484-2.2127,16.426.1877-3.411,3.3824-11.0428,4.3611-15.8547.7362-3.6185,1.6256-17.4369,2.0222-24.0814a1.16,1.16,0,0,0-2.071-.7837c-.8676,1.1039-1.7506,2.2692-2.1816,2.9641C100.5987,243.75,101.0034,261.52,101.0034,261.52Z" fill="#293882"/><path d="M93.3012,216.46c2.5492-4.1466,1.2781-13.9408-.1417-15.2989s-1.9754.0618-3.1856,1.9674c0,0,3.8187,6.501,3.9349,9.2149a16.9356,16.9356,0,0,1-.6077,4.1144Z" fill="#f4cf7a"/><path d="M91.8775,213.31l.5912-.4731a8.0652,8.0652,0,0,1,1.7039-2.9737,4.3379,4.3379,0,0,1,2.742-1.3711,3.108,3.108,0,0,1,.7918,1.0428,4.158,4.158,0,0,1-1.0235,3.3214,18.4905,18.4905,0,0,1-3.3407,2.6841l-.9067.8711A4.1315,4.1315,0,0,0,91.8775,213.31Z" fill="#feadae"/><path d="M100.8691,295.7324l-.8075,9.3794H78.7072l.8076-9.3794H77.0455l-3.1038,36.0514h2.4692l.5487-6.3722H98.3139l-.5488,6.3722h2.4693l3.1038-36.0514ZM98.4742,323.549H77.12l1.427-16.5745H99.9012Z" fill="#e2e2e2"/><polygon points="110.672 309.691 88.201 309.691 88.041 307.828 110.511 307.828 110.672 309.691" fill="#e2e2e2"/><polygon points="93.101 309.691 88.201 309.691 88.041 307.828 92.941 307.828 93.101 309.691" fill="#e2e2e2" opacity="0.14"/><polygon points="112.258 328.128 89.788 328.128 89.628 326.265 112.098 326.265 112.258 328.128" fill="#e2e2e2"/><polygon points="94.688 328.128 89.788 328.128 89.628 326.265 94.528 326.265 94.688 328.128" fill="#e2e2e2" opacity="0.14"/><polygon points="90.906 334.5 88.436 334.5 85.177 296.641 87.646 296.641 90.906 334.5" fill="#e2e2e2"/><polygon points="114.729 334.5 112.26 334.5 109.001 296.641 111.47 296.641 114.729 334.5" fill="#e2e2e2"/><rect x="72.8662" y="295.0949" width="43.9325" height="2.2627" fill="#e2e2e2"/><rect x="72.8662" y="295.0949" width="19.3828" height="2.2627" fill="#e2e2e2" opacity="0.23"/><path d="M63.7261,262.8786l-.0056-.0036a2.3757,2.3757,0,0,1-1.2475-.1746,2.03,2.03,0,0,0-2.5909.8594c-2.5326,4.5947-2.7406,12.6674-1.4777,13.1616.2128.0833,3.88-6.1208,5.4949-8.8738a4.0836,4.0836,0,0,1,.6775-.8428A4.426,4.426,0,0,1,63.7261,262.8786Z" fill="#473e73"/><polygon points="98.359 288.868 101.97 289.534 102.454 287.634 98.359 288.868" fill="#0088cc"/><polygon points="97.464 288.841 107.169 290.054 102.316 293.693 94.691 289.751 97.464 288.841" fill="#fff"/><polygon points="98.747 289.001 98.504 291.267 102.316 291.614 102.196 289.432 98.747 289.001" fill="#feadae"/><path d="M110.3457,295.6276c-.0439-.5841-3.1153-2.2508-5.6006-3.5074a4.2532,4.2532,0,0,1-1.5944-1.4019,13.1847,13.1847,0,0,1-5.2092-.2725,5.0126,5.0126,0,0,1-.6825,1.1288c-.7012.8572-1.4559,2.0226-1.3018,2.9256C96.2347,296.1258,110.42,296.6106,110.3457,295.6276Z" fill="#473e73"/><rect x="140.4423" y="168.918" width="90.4621" height="6.2388" fill="#e2e2e2" opacity="0.33"/><rect x="140.4423" y="180.0091" width="45.4043" height="6.2388" fill="#e2e2e2" opacity="0.33"/><rect x="140.4423" y="247.9423" width="90.4621" height="6.2388" transform="translate(371.3466 502.1234) rotate(-180)" fill="#e2e2e2" opacity="0.33"/><rect x="185.5" y="259.0335" width="45.4043" height="6.2388" transform="translate(416.4043 524.3057) rotate(-180)" fill="#e2e2e2" opacity="0.33"/><polygon points="136.283 147.776 134.209 143.003 141.135 139.804 136.283 147.776" fill="#e2e2e2"/><rect x="212.5685" y="310.2546" width="30.2374" height="20.4854" transform="translate(455.3744 640.9946) rotate(-180)" fill="#e2e2e2"/><rect x="242.8059" y="310.2546" width="6.1308" height="20.4854" fill="#a4a4a5"/><rect x="212.1738" y="310.2546" width="30.6321" height="2.9105" transform="translate(454.9797 623.4197) rotate(-180)" fill="#a4a4a5"/><rect x="242.8059" y="310.2546" width="6.6476" height="2.9105" fill="#e2e2e2"/><rect x="215.5692" y="308.4245" width="30.3021" height="1.636" transform="translate(461.4405 618.4849) rotate(-180)" fill="#e2e2e2"/><rect x="215.8275" y="305.1758" width="30.3021" height="1.6359" transform="translate(461.9572 611.9876) rotate(-180)" fill="#e2e2e2"/><rect x="214.224" y="303.5515" width="30.3021" height="1.636" transform="translate(458.7502 608.739) rotate(-180)" fill="#a4a4a5"/><rect x="213.349" y="306.8002" width="30.3021" height="1.6359" transform="translate(457 615.2363) rotate(-180)" fill="#a4a4a5"/><ellipse cx="323.4854" cy="311.4803" rx="15.9542" ry="1.6831" fill="#e9e8ea"/><path d="M338.8278,285.4115c.0226,16.2966-4.0259,25.7214-9.1046,26.1444l-.0826-59.6777C331.36,255.2433,338.8073,270.6646,338.8278,285.4115Z" fill="#f4cf7a"/><path d="M329.2879,251.2025s.1281.2364.3527.6757l.0826,59.6777c-.1169.01-.2338.02-.3517.02-5.2426.0072-9.5056-9.4668-9.5286-26.1386S329.2879,251.2025,329.2879,251.2025Z" fill="#fbdb8a"/><path d="M329.4347,298.1171q.0082-6.0237,0-12.0475-.0028-12.0483.15-24.0955a.0694.0694,0,0,1,.1386,0q.1178,8.1389.17,16.2783a32.4953,32.4953,0,0,1,4.9584-4.8957c.0938-.0706.2345.07.1641.1636a33.4072,33.4072,0,0,1-5.12,5.1758c.0168,2.4577.0383,4.9152.0445,7.373q.0151,6.0238.0336,12.0475c.0165,3.9918.2762,8.069-.0328,12.0477a.2207.2207,0,0,1-.4411.0006C329.1808,306.1873,329.4292,302.1087,329.4347,298.1171Z" fill="#2e5175"/><path d="M329.6264,293.0888a67.96,67.96,0,0,1,8.2732-8.2606.0756.0756,0,0,1,.1071.1067,67.9675,67.9675,0,0,1-8.2377,8.2962A.1008.1008,0,0,1,329.6264,293.0888Z" fill="#2e5175"/><path d="M323.3426,279.3414c1.164,1.0329,2.2848,2.1131,3.4172,3.18a19.875,19.875,0,0,1,2.8909,3.0534.1141.1141,0,0,1-.1549.1553,19.8475,19.8475,0,0,1-3.0613-2.8824c-1.07-1.1294-2.1538-2.2473-3.19-3.4085A.0694.0694,0,0,1,323.3426,279.3414Z" fill="#2e5175"/><path d="M323.5564,294.607a59.4706,59.4706,0,0,1,5.77,5.656.1261.1261,0,0,1-.1779.1784,59.4716,59.4716,0,0,1-5.672-5.7542A.0568.0568,0,0,1,323.5564,294.607Z" fill="#2e5175"/><path d="M329.2222,305.3712a53.223,53.223,0,0,1,6.81-6.7667.082.082,0,0,1,.116.1158,53.2055,53.2055,0,0,1-6.7477,6.8288A.1261.1261,0,0,1,329.2222,305.3712Z" fill="#2e5175"/><path d="M322.4317,294.1374c.0153,11.075-2.736,17.48-6.1874,17.7675l-.0561-40.5565C317.3569,273.6353,322.4178,284.1155,322.4317,294.1374Z" fill="#f4cf7a"/><path d="M315.9485,270.8892s.0871.1607.24.4592l.0561,40.5565c-.0794.0066-.1589.0138-.239.0139-3.5628.0049-6.46-6.4336-6.4756-17.7636S315.9485,270.8892,315.9485,270.8892Z" fill="#fbdb8a"/><path d="M316.0483,302.772q.0056-4.0937,0-8.1874-.0019-8.188.1021-16.3751a.0471.0471,0,0,1,.0942,0q.08,5.5311.1156,11.0626a22.0836,22.0836,0,0,1,3.37-3.3271c.0638-.048.1594.0473.1115.1112a22.7033,22.7033,0,0,1-3.4795,3.5174c.0114,1.67.026,3.34.03,5.0106q.01,4.0937.0228,8.1874c.0112,2.7128.1877,5.4836-.0223,8.1876a.15.15,0,0,1-.3,0C315.8757,308.2565,316.0445,305.4847,316.0483,302.772Z" fill="#2e5175"/><path d="M316.1785,299.3548a46.1853,46.1853,0,0,1,5.6224-5.6139.0514.0514,0,0,1,.0728.0725,46.19,46.19,0,0,1-5.5983,5.6381A.0685.0685,0,0,1,316.1785,299.3548Z" fill="#2e5175"/><path d="M311.9081,290.0122c.791.7019,1.5527,1.4361,2.3223,2.1613a13.5069,13.5069,0,0,1,1.9647,2.0751.0776.0776,0,0,1-.1053.1055,13.4883,13.4883,0,0,1-2.08-1.9589c-.7274-.7675-1.4637-1.5273-2.1679-2.3164A.0472.0472,0,0,1,311.9081,290.0122Z" fill="#2e5175"/><path d="M312.0534,300.3866a40.4158,40.4158,0,0,1,3.921,3.8438.0857.0857,0,0,1-.1209.1213,40.4165,40.4165,0,0,1-3.8546-3.9105A.0386.0386,0,0,1,312.0534,300.3866Z" fill="#2e5175"/><path d="M315.9038,307.7019a36.17,36.17,0,0,1,4.6281-4.5986.0557.0557,0,0,1,.0788.0787,36.1581,36.1581,0,0,1-4.5857,4.6408A.0857.0857,0,0,1,315.9038,307.7019Z" fill="#2e5175"/></svg>