<svg id="Layer_1" data-name="Layer 1" xmlns="http://www.w3.org/2000/svg" width="40" height="40" viewBox="0 0 40 40"><title>music-ic</title><path d="M35.4578,3.2573a.6219.6219,0,0,0-.4847-.1481L15.9273,5.5735a.6139.6139,0,0,0-.5351.6088v21.88a6.3755,6.3755,0,0,0-4.915-2.2259c-3.3877,0-6.1438,2.48-6.1438,5.5294s2.7561,5.5294,6.1438,5.5294,6.1438-2.48,6.1438-5.5294c0-.1425-.0117-.2826-.024-.4221a.591.591,0,0,0,.024-.118V13.0069l17.817-2.3058V21.9179a6.377,6.377,0,0,0-4.915-2.2253c-3.3877,0-6.1438,2.48-6.1438,5.5294s2.7561,5.5294,6.1438,5.5294c3.357,0,6.09-2.4366,6.1395-5.4477,0-.008.0043-.0147.0043-.0227V3.7187A.6131.6131,0,0,0,35.4578,3.2573ZM10.4771,35.6664c-2.71,0-4.915-1.93-4.915-4.3007s2.205-4.3007,4.915-4.3007,4.915,1.93,4.915,4.3007S13.1871,35.6664,10.4771,35.6664Zm19.0458-6.1438c-2.71,0-4.915-1.93-4.915-4.3007s2.205-4.3007,4.915-4.3007,4.915,1.93,4.915,4.3007-2.205,4.3008-4.915,4.3008ZM16.6209,11.7677V6.7224l17.817-2.3052V9.4619Z" fill="#0088cc"/></svg>