<svg id="Layer_1" data-name="Layer 1" xmlns="http://www.w3.org/2000/svg" width="40" height="40" viewBox="0 0 40 40"><title>non-disclosure-document</title><path d="M32.6655,8.2863l-.0012-.0247a.75.75,0,0,0-.012-.0963h0a.7887.7887,0,0,0-.0258-.0937l-.0082-.0229a.8126.8126,0,0,0-.0373-.0851l-.0023-.0044a.737.737,0,0,0-.052-.0828l-.0147-.02a.7586.7586,0,0,0-.0652-.0757L25.6453.979A.7582.7582,0,0,0,25.57.9138l-.02-.015a.7123.7123,0,0,0-.0822-.0517L25.4612.8442a.7873.7873,0,0,0-.0837-.037L25.3537.799A.7693.7693,0,0,0,25.26.7732h0a.7967.7967,0,0,0-.0957-.012L25.1394.76,25.1139.7588H8.0849a.7516.7516,0,0,0-.7516.7516h0V33.681a.7516.7516,0,0,0,.7516.7516H19.4008V38.49a.7518.7518,0,0,0,1.1512.6368L23.4145,37.33l2.8626,1.7959a.7516.7516,0,0,0,1.1512-.6368V34.4326h4.4868a.7516.7516,0,0,0,.7516-.7516V8.3119Zm-6.8-4.9612L30.1006,7.56H25.8655ZM19.03,23.9738a2.3086,2.3086,0,0,1-.141-.4738,2.2306,2.2306,0,0,1,.3873-.28,2.7282,2.7282,0,0,0,.7915-.6612,2.71,2.71,0,0,0,.3925-.9624,2.43,2.43,0,0,1,.14-.4364.94.94,0,0,1,.1861-.0135c.0837,0,.1773.0047.2766.01.1139.0056.2314.0115.3541.0115a2.1311,2.1311,0,0,0,.6873-.0966,2.8346,2.8346,0,0,0,.8673-.5346,1.9261,1.9261,0,0,1,.44-.3018,1.7959,1.7959,0,0,1,.4469.3018,2.8361,2.8361,0,0,0,.8676.5346,2.13,2.13,0,0,0,.6873.0966c.1224,0,.24-.0059.3538-.0115.0992-.005.1929-.01.2769-.01a.9187.9187,0,0,1,.1861.0135,2.4083,2.4083,0,0,1,.1392.4357,2.7109,2.7109,0,0,0,.3928.9624,2.7252,2.7252,0,0,0,.7915.6612,2.2541,2.2541,0,0,1,.387.28,2.3243,2.3243,0,0,1-.1406.4742,2.9761,2.9761,0,0,0-.2384,1.0323A2.986,2.986,0,0,0,27.8,26.0384a2.3087,2.3087,0,0,1,.1409.4742,2.2541,2.2541,0,0,1-.387.28,2.1457,2.1457,0,0,0-1.1844,1.6236,2.44,2.44,0,0,1-.1392.4357.9424.9424,0,0,1-.1861.0135c-.084,0-.1776-.0047-.2769-.01-.1136-.0056-.2314-.0115-.3538-.0115a2.13,2.13,0,0,0-.6873.0966,2.8418,2.8418,0,0,0-.8676.5346,1.8728,1.8728,0,0,1-.4433.3015,1.8721,1.8721,0,0,1-.443-.3015,2.8453,2.8453,0,0,0-.8676-.5346,2.1311,2.1311,0,0,0-.6873-.0966c-.1224,0-.24.0059-.3541.0115-.0989.005-.1926.01-.2766.01a.9424.9424,0,0,1-.1861-.0135,2.43,2.43,0,0,1-.1395-.4357,2.1445,2.1445,0,0,0-1.1841-1.6236,2.2386,2.2386,0,0,1-.387-.28,2.33,2.33,0,0,1,.1406-.4742,2.9761,2.9761,0,0,0,.2384-1.0323A2.9829,2.9829,0,0,0,19.03,23.9738Zm6.8951,13.157-2.111-1.3244a.7532.7532,0,0,0-.7992,0l-2.111,1.3244V30.3669q.12-.0035.2343-.0091c.1-.0053.1935-.01.2783-.01a.737.737,0,0,1,.2123.02,2.0232,2.0232,0,0,1,.4.28,2.2132,2.2132,0,0,0,1.3858.6339A2.2132,2.2132,0,0,0,24.8,30.6473a2.015,2.015,0,0,1,.4-.28.7417.7417,0,0,1,.2126-.02c.0848,0,.1788.0047.2783.01.076.0038.1544.007.234.0091V37.13Zm1.5032-4.2014V29.7612a2.7356,2.7356,0,0,0,.3958-.9683,1.9342,1.9342,0,0,1,.15-.45,1.9506,1.9506,0,0,1,.382-.2792,2.12,2.12,0,0,0,1.0132-1.0749,2.1715,2.1715,0,0,0-.1585-1.468,2.0306,2.0306,0,0,1-.1465-.515,2.029,2.029,0,0,1,.1465-.5147,2.1723,2.1723,0,0,0,.1585-1.4683,2.1208,2.1208,0,0,0-1.0132-1.0746,1.9757,1.9757,0,0,1-.382-.2789,1.9422,1.9422,0,0,1-.15-.45,2.0975,2.0975,0,0,0-.7029-1.2769,1.7858,1.7858,0,0,0-1.0781-.2995c-.1215,0-.239.0059-.3523.0117-.1.005-.1935.01-.278.01a.7381.7381,0,0,1-.2126-.02,2.0061,2.0061,0,0,1-.4-.28,2.216,2.216,0,0,0-1.3861-.6336,2.2152,2.2152,0,0,0-1.3858.6336,2.0186,2.0186,0,0,1-.4.28.74.74,0,0,1-.2126.02c-.0846,0-.1788-.0047-.2783-.01-.1133-.0056-.23-.0115-.3523-.0115a1.7842,1.7842,0,0,0-1.0775.2995A2.097,2.097,0,0,0,19.005,21.22a1.95,1.95,0,0,1-.1494.45,1.9757,1.9757,0,0,1-.3823.2792A2.122,2.122,0,0,0,17.46,23.0231a2.1721,2.1721,0,0,0,.1585,1.4683,2.029,2.029,0,0,1,.1465.5147,2.0306,2.0306,0,0,1-.1465.515,2.1721,2.1721,0,0,0-.1585,1.4683,2.1232,2.1232,0,0,0,1.0132,1.0746,1.9663,1.9663,0,0,1,.3823.2792,1.95,1.95,0,0,1,.1494.45,2.7343,2.7343,0,0,0,.3961.9683V32.93H8.8366V2.262H24.3623v6.05a.7516.7516,0,0,0,.7516.7516h6.05V32.9294Z" fill="#0088cc"/><path d="M11.7576,9.0635H21.441a.7516.7516,0,0,0,0-1.5032H11.7576a.7516.7516,0,0,0,0,1.5032Z" fill="#0088cc"/><path d="M28.3264,11.3541H11.7576a.7516.7516,0,0,0,0,1.5032H28.3264a.7516.7516,0,1,0,0-1.5032Z" fill="#0088cc"/><path d="M25.32,15.148H11.7576a.7516.7516,0,0,0,0,1.5032H25.32a.7516.7516,0,1,0,0-1.5032Z" fill="#0088cc"/><path d="M28.3264,15.148a.7516.7516,0,1,0,.7516.7516A.7516.7516,0,0,0,28.3264,15.148Z" fill="#0088cc"/></svg>