<svg id="Layer_1" data-name="Layer 1" xmlns="http://www.w3.org/2000/svg" width="40" height="40" viewBox="0 0 40 40"><title>product-ic</title><g id="Product"><path d="M34.4706,9.8651,20.3529,3.6886a.8824.8824,0,0,0-.7059,0L5.5294,9.8651A.8824.8824,0,0,0,5,10.6733V28.32a.8824.8824,0,0,0,.4818.7862l14.1176,7.1824A.8824.8824,0,0,0,20,36.3851a.892.892,0,0,0,.3962-.0935l14.1176-7.0941A.8824.8824,0,0,0,35,28.4086V10.6733A.8824.8824,0,0,0,34.4706,9.8651ZM20,5.4595l11.9162,5.2138L20,15.8871l-3.0971-1.3553L21.6156,12.47a.8824.8824,0,0,0,0-1.6165L17.8294,9.2024a.8824.8824,0,0,0-.7059,0L10.92,11.9139,8.0882,10.6733Zm-7.9412,8.8791,1.7647.7721v3.8409l-1.7647-.8824Zm1.0588-1.4612,4.3553-1.9032,1.5794.6891-4.3465,1.905Zm-6.3529-.855,3.5294,1.5441v5.0479a.8824.8824,0,0,0,.4879.79l3.5294,1.7647a.8824.8824,0,0,0,1.2768-.79v-4.5l3.5294,1.5441v16.64L6.7647,27.7795ZM20.8824,34.0715V17.4268l12.3529-5.4044V27.8642Z" fill="#0088cc"/><path d="M25.7865,27.6436l-3.5356,1.7771a.8827.8827,0,1,0,.7941,1.5768L26.5806,29.22a.8827.8827,0,1,0-.7941-1.5768Z" fill="#0088cc"/><path d="M22.6471,27.5615a.8824.8824,0,0,0,.3953-.0935l3.4853-1.7515a.8827.8827,0,1,0-.7941-1.5768h0l-3.4844,1.7515a.8824.8824,0,0,0,.3979,1.67Z" fill="#0088cc"/></g></svg>