<svg id="Layer_1" data-name="Layer 1" xmlns="http://www.w3.org/2000/svg" width="40" height="40" viewBox="0 0 40 40"><title>project-hiring</title><g id="Rectangle_9_copy" data-name="Rectangle 9 copy"><path d="M24.0108,22.0156a9.8612,9.8612,0,1,0-13.281,0C4.9618,23.2916.9351,26.1764.9351,29.5324c0,4.5388,7.3583,8.2176,16.4352,8.2176s16.4352-3.6788,16.4352-8.2176C33.8056,26.1764,29.779,23.2916,24.0108,22.0156ZM8.8215,14.7407A8.5489,8.5489,0,1,1,17.37,23.29,8.5494,8.5494,0,0,1,8.8215,14.7407ZM17.37,36.4352c-8.3511,0-15.12-3.0905-15.12-6.9028,0-2.9649,4.0956-5.4926,9.8447-6.47a9.8086,9.8086,0,0,0,10.5514,0c5.749.9775,9.8447,3.5053,9.8447,6.47C32.4907,33.3447,25.7214,36.4352,17.37,36.4352ZM34.463,6.8518V2.25H33.1481V6.8519H28.5464V8.1667h4.6018v4.6019H34.463V8.1667h4.6019V6.8518Z" fill="#0088cc"/></g></svg>