<svg id="Layer_1" data-name="Layer 1" xmlns="http://www.w3.org/2000/svg" width="40" height="40" viewBox="0 0 40 40"><title>project-understanding</title><path d="M36.2715,16.6829a.7284.7284,0,0,0-.7285.7283h0v4.7611H4.4569V17.4114a.7285.7285,0,0,0-1.4569,0v5.4894a.7284.7284,0,0,0,.7283.7285H19.2715v7.129l-6.647,6.647a.7285.7285,0,0,0,1.03,1.03l5.6166-5.6166V37.92a.7285.7285,0,0,0,1.4569,0V32.819l5.6163,5.6163a.7285.7285,0,0,0,1.03-1.03l-6.6467-6.6467V23.6292H36.2712A.7284.7284,0,0,0,37,22.9012h0v-5.49a.7282.7282,0,0,0-.7279-.7285h0Z" fill="#0088cc"/><path d="M36.2715,1.3513H3.7285A.7284.7284,0,0,0,3,2.08V21.5839a.7285.7285,0,0,0,1.4569,0V6.8225H35.5428V17.5837a.7285.7285,0,0,0,1.4569,0V2.08a.7282.7282,0,0,0-.7277-.7287ZM4.4569,5.3655V2.8082H35.5428V5.3655Z" fill="#0088cc"/><path d="M16.0393,19.7994a.7277.7277,0,0,0,.3642-.0976l7.9215-4.5737a.7282.7282,0,0,0,0-1.2614L16.4035,9.293a.7285.7285,0,0,0-1.0927.6309V19.071a.7285.7285,0,0,0,.7285.7285Zm.7285-8.6138,5.7361,3.312-5.7361,3.3117Z" fill="#0088cc"/><path d="M3.7285,15.226A.7285.7285,0,1,0,3,14.4975H3A.73.73,0,0,0,3.7285,15.226Z" fill="#0088cc"/><path d="M36.2715,13.7691A.7285.7285,0,1,0,37,14.4976h0A.73.73,0,0,0,36.2715,13.7691Z" fill="#0088cc"/></svg>