<svg xmlns="http://www.w3.org/2000/svg" xmlns:xlink="http://www.w3.org/1999/xlink" width="371" height="339" viewBox="0 0 371 339"><defs><clipPath id="clip-path"><path d="M206.1351,43.6433V269.5289a12.632,12.632,0,0,1-12.8221,12.4327h-97.94a12.6318,12.6318,0,0,1-12.8219-12.4327V43.6433A12.6318,12.6318,0,0,1,95.3733,31.2106h97.94A12.632,12.632,0,0,1,206.1351,43.6433Z" fill="none"/></clipPath><linearGradient id="Degradado_sin_nombre_5" x1="144.3432" y1="-26.8263" x2="144.3432" y2="337.6864" gradientUnits="userSpaceOnUse"><stop offset="0" stop-color="#87d3f0"/><stop offset="0.5183" stop-color="#069eda"/><stop offset="1" stop-color="#0f8ccc"/></linearGradient><linearGradient id="linear-gradient" x1="-3887.9236" y1="186.2512" x2="-3884.7731" y2="186.2512" gradientTransform="matrix(-1, 0, 0, 1, -3671.24, 0)" gradientUnits="userSpaceOnUse"><stop offset="0" stop-color="#fff"/><stop offset="0.6429" stop-color="#c6c0b9"/></linearGradient><linearGradient id="linear-gradient-2" x1="-3869.8826" y1="188.2189" x2="-3864.1718" y2="188.2189" xlink:href="#linear-gradient"/></defs><title>reactnative-banner</title><g style="isolation:isolate"><g id="Layer_1" data-name="Layer 1"><path d="M234.9694,311.5116a229.9065,229.9065,0,0,0-85.0347,16.1768c-16.0272,6.4585-53.963,10.2369-78.42,5.6321-21.2317-3.9976-71.75-21.8832-49.9648-81.0434s49.1169-65.1257,29.297-103.9913C36.2905,119.742,11.1413,91.3268,33.53,68.7517c34.8182-35.1076,177.202-86.4735,250.656-43.2367s88.9811,58.7153,66.346,125.44,34.7429,75.2557,4.3833,124.6351C336.7065,305.2069,278.58,311.3435,234.9694,311.5116Z" fill="#f1f3f7"/><path d="M65.4186,119.3561H85.8361a2.586,2.586,0,0,1,2.586,2.586V142.36a2.5859,2.5859,0,0,1-2.5859,2.5859H65.4185a2.5859,2.5859,0,0,1-2.5859-2.5859V121.9421A2.586,2.586,0,0,1,65.4186,119.3561Z" transform="translate(21.9711 274.6442) rotate(-129.5843)" fill="#395682" opacity="0.23"/><path d="M88.5986,36.9819C89.7377,49.1041,80.7324,56.1,76.7112,66.3254l-14.627-8.9176C69.6384,49.4171,80.615,47.93,84.0906,36.2591" fill="#fbdb8a"/><path d="M71.26,57.1785c9.2684,3.4674,29.6291,5.9215,39.1872,8.2332h0c0,6.79-3.91,12.28-7.2409,17.9148A190.2056,190.2056,0,0,0,94.0831,100.23c-.7241,1.7336-3.4756,10.2577-4.9238,11.4134-6.47-1.6657-14.0475-4.4787-20.2746-9.2463-9.7029-7.3683-17.224-15.4624-20.12-27.3094l5.7625-8.7623,5.3554-7.0173,7.51-3.7449h2.8132Z" fill="#fbdb8a"/><path d="M58.1805,82.6805s-.5473-3.9552,1.803.9228C61.5859,90.1387,74.69,104.33,86.2377,107.6446a4.3818,4.3818,0,0,1,1.7274,3.6705c-6.1965-1.698-13.2291-4.4381-19.08-8.918A69.6326,69.6326,0,0,1,57.0174,91.3343C57.5943,87.0519,58.1805,82.6805,58.1805,82.6805Z" fill="#628cd2" opacity="0.25" style="mix-blend-mode:multiply"/><path d="M64.6105,115.2948c.7948,2.4746,1.9258,1.872,3.1032,3.2845,1.3619,1.634,3.1947,3.3166,1.9036,5.1164-.1991.2776-.8406.33-.8433-.5132-.1727.1557-.6809,1.2606-.8942,1.4254-.827.639-1.4355,1.2594-2.3845.0721a4.7,4.7,0,0,1-3.0186-3.2718c-.2924-1.29.4238-2.0123-.228-3.3007s-2.6686-2.4256-3.7509-3.4963" fill="#feadae"/><path d="M60.1831,82.0871c-2.3029,16.7528-.3008,24.8344,5.6492,34.3-.5963,2.0321-3.3541,2.4346-5.7893,1.5807-25.569-29.1188-9.8544-53.5051-2.5335-56.8763" fill="#fbdb8a"/><g opacity="0.25" style="mix-blend-mode:multiply"><path d="M54.6482,63.1448c-7.2717,7.8647-15.4188,29.2341,6.5228,54.2219a4.9038,4.9038,0,0,0,1.9741.982,6.9194,6.9194,0,0,1-3.102-.3812C37.49,92.2838,47.0539,70.2918,54.6482,63.1448Z" fill="#628cd2"/></g><path d="M63.3456,46.5619a69.3118,69.3118,0,0,0,1.5733,8.8287c.9834,3.1391,3.1467,6.082.9834,8.8287-5.31,7.2592-17.8962-2.1581-17.8962-9.0249" fill="#feadae"/><path d="M45.9534,49.6342c-.8522-2.3214-1.5558-4.9152,1.2233-6.9739,7.35-5.4446,11.7092-1.046,13.981-1.046,1.0486-.1745,3.1062-4.26,4.1942.8716,1.9225,9.0661-6.6409,14.4708-14.33,11.5069-.1747,2.0922,2.272,4.01,2.0972,5.5791-.35,2.2665-3.2925,2.3884-4.8934,1.5692C44.3877,59.1772,40.8854,49.46,45.9534,49.6342Z" fill="#3d4177"/><path d="M44.5478,49.9511a2.992,2.992,0,0,0-.6314,2.0986c.0827,2.3421,1.8877,5.8377,4.3371,5.4279a1.758,1.758,0,0,0,1.33-1.7347c.02-.7978-.9622-4.4389-.402-4.364,1.8.24,8.4337,3.4417,15.3978-1.9346-2.3173,4.5639-8.1459,6.6346-13.558,4.5486-.1747,2.0922,2.272,4.01,2.0972,5.5791-.35,2.2664-3.2925,2.3884-4.8934,1.5692C44.8278,59.4024,41.7057,51.6,44.5478,49.9511Z" fill="#3d4177"/><g clip-path="url(#clip-path)"><rect x="67.0822" y="27.6341" width="154.522" height="257.8412" fill="url(#Degradado_sin_nombre_5)"/><rect x="67.0822" y="27.6341" width="154.522" height="257.8412" fill="#fff"/></g><path d="M97.8511,33.1155h92.7562a12.1434,12.1434,0,0,1,12.1434,12.1434v220.63a12.1433,12.1433,0,0,1-12.1433,12.1433H97.8511a12.1434,12.1434,0,0,1-12.1434-12.1434V45.2589A12.1434,12.1434,0,0,1,97.8511,33.1155Z" fill="#f7f7f7"/><path d="M97.8511,33.1155h92.7562a12.1434,12.1434,0,0,1,12.1434,12.1434v220.63a12.1433,12.1433,0,0,1-12.1433,12.1433H97.8511a12.1434,12.1434,0,0,1-12.1434-12.1434V45.2589A12.1434,12.1434,0,0,1,97.8511,33.1155Z" fill="#f7f7f7"/><path d="M189.4918,34.321a12.09,12.09,0,0,1,12.0759,12.0758V265.94a12.09,12.09,0,0,1-12.0759,12.0757H98.9666A12.09,12.09,0,0,1,86.8907,265.94V46.3967A12.09,12.09,0,0,1,98.9666,34.321h90.5252m0-5.9111H98.9666A17.9868,17.9868,0,0,0,80.98,46.3967V265.94A17.9868,17.9868,0,0,0,98.9666,283.927h90.5252A17.9868,17.9868,0,0,0,207.4786,265.94V46.3967A17.9868,17.9868,0,0,0,189.4918,28.41Z" fill="#e2e2e2"/><path d="M80.0262,72.7567h1.8472V62.5357H80.0262Zm0,26.8457h1.8472V80.5149H80.0262ZM206.5851,87.996v29.8319h1.8472V87.996ZM80.0262,123.8622h1.8472V104.7744H80.0262Z" fill="#d3d7de"/><path d="M105.2237,31.2106v3.0785h5.2339a1.9191,1.9191,0,0,1,1.8925,1.9448s1.9929,7.15,5.3627,7.15h53.0325c3.37,0,5.3627-7.15,5.3627-7.15a1.9191,1.9191,0,0,1,1.8924-1.9448h5.234V31.2106Z" fill="#e2e2e2"/><circle cx="157.2644" cy="37.3281" r="2.2295" fill="#395682" opacity="0.23"/><path d="M150.43,38.4057H136.4527a.9543.9543,0,0,1-.9542-.9544h0a.9543.9543,0,0,1,.9542-.9543H150.43a.9544.9544,0,0,1,.9544.9543h0A.9544.9544,0,0,1,150.43,38.4057Z" fill="#395682" opacity="0.23"/><path d="M178.6369,274.7762H113.109a1.1536,1.1536,0,0,1-1.1536-1.1536h0a1.1536,1.1536,0,0,1,1.1536-1.1536h65.5278a1.1536,1.1536,0,0,1,1.1536,1.1536h0A1.1536,1.1536,0,0,1,178.6369,274.7762Z" fill="#e2e2e2"/><circle cx="102.3819" cy="110.8731" r="1.5914" fill="#f7f7f7"/><circle cx="96.0131" cy="110.8731" r="1.5914" fill="#f7f7f7"/><circle cx="89.644" cy="110.8731" r="1.5918" fill="#f7f7f7"/><path d="M109.778,91.6808H178.68a1.51,1.51,0,0,1,1.51,1.51v14.4121a1.51,1.51,0,0,1-1.51,1.51H109.7781a1.51,1.51,0,0,1-1.51-1.51V93.1905A1.51,1.51,0,0,1,109.778,91.6808Z" transform="translate(288.4584 200.7931) rotate(180)" fill="#e2e2e2"/><path d="M242.1874,64.9456a28.8124,28.8124,0,0,1,3.8086,9.7528,1.6726,1.6726,0,0,1-1.0412,2.2461,69.0711,69.0711,0,0,1-13.3265,6.0416,7.0461,7.0461,0,0,0,2.6257-8.8758,3.6393,3.6393,0,0,0-2.0917-1.9928,3.1635,3.1635,0,0,0-3.4148,1.6142,6.416,6.416,0,0,0-.5883,3.9564,13.7542,13.7542,0,0,0,1.4762,4.7966,30.1465,30.1465,0,0,1-6.1683-3.7886,3.15,3.15,0,0,1-1.51-2.8839,34.8258,34.8258,0,0,1,.3869-7.62c.5453-3.361,1.8142-6.9388,4.7506-8.66C232.785,56.1948,238.9729,60.106,242.1874,64.9456Z" fill="#3d4177"/><path d="M222.4715,93.8376s-2.7489,10.6213-4.5625,10.827-6.9712-12.9085-6.9712-12.9085l-5.2962,1.8719s5.4078,19.8656,11.8082,19.8452,11.6086-11.1526,11.6086-11.1526Z" fill="#f4cf7a"/><path d="M225.1578,121.5946s-3.2168,27.2236-2.659,32.8145,3.6555,37.3334,3.6555,37.3334l5.8731-.5859s3.7849-25.1,2.2951-35.1021c-.2056-1.3816,3.9739-10.1529,5.0758-16.2851a63.0546,63.0546,0,0,0,.6092-17.937Z" fill="#293882"/><path d="M220.5777,194.5274a42.2183,42.2183,0,0,1,5.5768-2.7837l5.8754-.5861.044,2.3873.0394,1.9855-14.2014.9836A16.4731,16.4731,0,0,1,220.5777,194.5274Z" fill="#473e73"/><path d="M217.9118,196.5138l14.2014-.9836.0248,1.2618-13.7752,1.3742a.8435.8435,0,0,1-.6947-1.4225C217.742,196.6664,217.8321,196.5908,217.9118,196.5138Z" fill="#fbdb8a"/><path d="M235.2866,121.5139s3.11,27.2361,4.9345,32.55,12.1156,35.5021,12.1156,35.5021l5.5828-1.9165s-2.9148-25.37-5.8126-34.6944c-.4146-1.3332,1.5414-10.7928,1.208-17.014a63.0669,63.0669,0,0,0-3.5188-17.6Z" fill="#0088cc"/><path d="M247.5467,193.555a42.1929,42.1929,0,0,1,4.79-3.9878l5.5851-1.9168.5893,2.3135.3631,1.4153-13.5325,4.82A16.039,16.039,0,0,1,247.5467,193.555Z" fill="#473e73"/><path d="M245.3417,196.1989l13.5325-4.82.4439,1.73-13.0938,4.4944a.8439.8439,0,0,1-1.0026-1.2251C245.2582,196.3187,245.3039,196.2579,245.3417,196.1989Z" fill="#fbdb8a"/><path d="M236.6518,65.5594l.5268,4.6448a6.8755,6.8755,0,1,1-13.6633,1.55l-.5268-4.6448c-.0063-.0556-.0126-.1108-.0154-.1668a4.9512,4.9512,0,0,1,4.3764-5.3136l3.8215-.4334a4.952,4.952,0,0,1,5.4586,4.1982C236.6392,65.4487,236.6455,65.5038,236.6518,65.5594Z" fill="#feadae"/><path d="M236.6155,65.24c.0059.0524.0119.1046.014.1539A6.8734,6.8734,0,0,1,223,67.1216a1.5824,1.5824,0,0,1-.0272-.1794c-.009-.0485-.015-.1007-.0209-.1531a6.8755,6.8755,0,0,1,13.6633-1.55Z" fill="#feadae"/><path d="M238.0551,70.25c.0954.8408-.8415,1.6222-1.0357,2.3969l-5.2254-4.1614A6.7851,6.7851,0,0,1,223,67.1216l-.0118-.0126c-.0063-.0556-.0126-.1108-.0154-.1668-.009-.0485-.015-.1007-.0209-.1531a6.8726,6.8726,0,0,1,6.0549-7.6045c.0887-.01.1773-.0189.2639-.0276a8.2964,8.2964,0,0,1,9.0067,9.3008Z" fill="#3d4177"/><circle cx="236.4426" cy="71.4962" r="2.0396" transform="translate(-6.5508 27.1001) rotate(-6.4704)" fill="#feadae"/><path d="M225.9889,105.1433l-1.4761,17.6124h0A35.0926,35.0926,0,0,0,240.18,122.37l9.83-2.5063c-.4181-3.26-1.0813-8.1136-1.9237-13.2987-.5007-3.0749-.8614-6.8241-1.475-9.869-1.5258-7.5677-3.5673-13.6744-5.5161-15.402l-3.35-1.2781-12.6757,2.1489s-6.2259,11.5757-4.068,14.8932S225.9889,105.1433,225.9889,105.1433Z" fill="#fbdb8a"/><path d="M225.0691,82.1652l1.8547,4.2979a6.8341,6.8341,0,0,0,2.216.6637l1.2375-2.1907.253,2.2311c.1182-.0024.2409-.0164.3637-.03A12.7262,12.7262,0,0,0,235.66,85.49c.9653-1.6466,2.2192-4.0878,2.0851-5.4734l-1.8067-.6876-1.5435-5.2879-5.9157,1.3315-.4649,4.6686Z" fill="#feadae"/><path d="M228.2624,77.5336a6.2877,6.2877,0,0,0,6.7208-1.4787l.7181,2.4656-.2012.1338a6.68,6.68,0,0,1-7.3517.0356h0Z" fill="#e5989b"/><path d="M230.3773,84.9361l.4327,3.8152,3.7824-1.5592s.4795-.7041,1.0673-1.7025c.9653-1.6466,2.2192-4.0878,2.0851-5.4734l-1.8067-.6876Z" fill="#f4cf7a"/><polygon points="225.069 82.165 226.924 86.463 228.049 89.065 229.14 87.127 230.377 84.936 228.014 80.041 225.069 82.165" fill="#f4cf7a"/><rect x="227.1963" y="96.2697" width="14.1363" height="18.5028" transform="translate(435.2839 265.5391) rotate(-165.7276)" fill="#e2e2e2"/><path d="M239.8375,81.7034s-2.6024,2.3646.7876,8.5687,10.0936,17.8891,9.1126,18.363-12.1042-3.7824-12.1042-3.7824l-2.9766,5.3661s16.8946,12.0439,22.0182,8.1124S249.0475,76.8131,239.8375,81.7034Z" fill="#f4cf7a"/><path d="M229.1759,102.9415a3.5085,3.5085,0,0,1,3.118-3.5107l1.3274.5711.0447.0283a2.0871,2.0871,0,0,1,.8986,1.3783,8.3922,8.3922,0,0,0,1.5964,2.9944l.8084,1.6474-2.0163,3.6355-4.2991-2.6212A5.5344,5.5344,0,0,1,229.1759,102.9415Z" fill="#feadae"/><path d="M210.349,91.9644s2.3493-4.2919.9549-4.1337a3.15,3.15,0,0,0-2.12,1.229s-4.6645-3.1431-6.6465-2.565,3.7181,6.9162,3.7181,6.9162Z" fill="#feadae"/><path d="M194.653,67.5841H213.44a2.586,2.586,0,0,1,2.586,2.586v18.787A2.5859,2.5859,0,0,1,213.44,91.543H194.6529a2.5859,2.5859,0,0,1-2.5859-2.5859V70.17a2.586,2.586,0,0,1,2.586-2.586Z" transform="translate(415.7591 135.6264) rotate(173.5296)" fill="#edeef4"/><path d="M134.3651,56.9594h20.4176a2.586,2.586,0,0,1,2.586,2.586V79.9631a2.5859,2.5859,0,0,1-2.5859,2.5859H134.365a2.5859,2.5859,0,0,1-2.5859-2.5859V59.5454A2.586,2.586,0,0,1,134.3651,56.9594Z" transform="translate(289.1478 139.5085) rotate(180)" fill="#edeef4"/><path d="M168.8384,56.9594H189.256a2.586,2.586,0,0,1,2.586,2.586V79.9631a2.5859,2.5859,0,0,1-2.5859,2.5859H168.8383a2.5859,2.5859,0,0,1-2.5859-2.5859V59.5454a2.586,2.586,0,0,1,2.586-2.586Z" transform="translate(358.0944 139.5085) rotate(180)" fill="#edeef4"/><path d="M196.5863,79.566l.1889,1.6658a.7057.7057,0,0,0,.7807.6221l1.4056-.1594a5.4908,5.4908,0,0,0,.5783,1.0491l-.88,1.1052a.7062.7062,0,0,0,.1125.992l1.312,1.0447a.7063.7063,0,0,0,.9921-.1125l.8794-1.1051a5.4908,5.4908,0,0,0,1.1525.3285l.1595,1.4062a.7052.7052,0,0,0,.7806.6216l1.6659-.1889a.7062.7062,0,0,0,.6227-.7807l-.1595-1.4062a5.5089,5.5089,0,0,0,1.0485-.5781l1.1057.88a.7062.7062,0,0,0,.992-.1125l1.0448-1.312a.706.706,0,0,0-.1125-.992l-1.1057-.88a5.4908,5.4908,0,0,0,.3286-1.152l1.4056-.1594a.7067.7067,0,0,0,.6227-.7813l-.1889-1.6658a.7067.7067,0,0,0-.7818-.6221l-1.4056.1594a5.4936,5.4936,0,0,0-.5783-1.0491l.8806-1.1052a.706.706,0,0,0-.1125-.992l-1.312-1.0447a.706.706,0,0,0-.992.1125l-.8806,1.1052a5.5025,5.5025,0,0,0-1.1514-.3287l-.1594-1.4056a.7067.7067,0,0,0-.7818-.622l-1.6659.1889a.7057.7057,0,0,0-.6215.7812l.1594,1.4056a5.4844,5.4844,0,0,0-1.05.5783l-1.1046-.88a.7061.7061,0,0,0-.9921.1125l-1.0447,1.312a.7062.7062,0,0,0,.1125.992l1.1047.88a5.4936,5.4936,0,0,0-.3286,1.152l-1.4056.1594A.7057.7057,0,0,0,196.5863,79.566Zm4.5216.3308a2.9579,2.9579,0,1,1,3.2718,2.6059A2.9578,2.9578,0,0,1,201.1079,79.8968Z" fill="#e2e2e2"/><path d="M88.3535,159.293,68.3271,203.58a6.71,6.71,0,0,0,3.3593,8.8786l61.997,28.0348a6.7092,6.7092,0,0,0,8.8846-3.342l20.0265-44.2871a6.7094,6.7094,0,0,0-3.3583-8.879l-61.997-28.0348A6.71,6.71,0,0,0,88.3535,159.293Z" fill="#edeef4"/><path d="M34.9166,295.98l.3745-2.282,5.5475,1.3807a40.8742,40.8742,0,0,1,4.955,3.443,14.9352,14.9352,0,0,1,2.48,2.5292c.0049.007.0063.014.0112.0223l-13.5032-4.2813Z" fill="#473e73"/><path d="M48.285,301.0734a.8151.8151,0,0,1-.8754,1.2437l-13.0079-3.2362.38-2.2888Z" fill="#fbdb8a"/><path d="M57.933,296.0054l-.1461-2.3072,5.7152.102a40.745,40.745,0,0,1,5.6012,2.2442,17.4853,17.4853,0,0,1,2.3468,1.4043l-13.4235.0671Z" fill="#473e73"/><path d="M71.45,297.4487c.2271.165.4409.3327.6373.5045a.8172.8172,0,0,1-.5583,1.428l-13.4019-.2375-.1006-1.6279Z" fill="#fbdb8a"/><path d="M41.8943,265.7094c-.2411-.5645-8.7663-52.4745-8.7663-52.4745a185.036,185.036,0,0,0,26.0353-4.6476L70.987,262.504S67.1121,277.37,65.4122,285.04c-1.0613,4.8613-1.9108,8.7586-1.9108,8.7586l-5.7179-.0979s.5974-4.3974,1.356-9.6585c1.046-7.3054,2.402-16.261,2.8869-17.4207L51.4374,235.1272s.1936,30.9036-.032,31.3549c-.2033.4067-4.0461,10.8309-7.0385,18.98-1.8613,5.0779-3.4,9.2714-3.5193,9.5942l-.0069.0209-5.549-1.3764s1.1451-4.4812,2.48-9.8625C39.7242,275.9646,42.0983,266.1663,41.8943,265.7094Z" fill="#0088cc"/><path d="M32,216.8691c1.4385-4.0851,12.0717-30.83,16.3552-35.9666,9.5685-11.4759,17.1931-7.5634,17.1931-7.5634-.1212,6.6254,6.5767,5.1362,6.5767,5.1362s6.3743,9.2921-3.11,22.5189c-6.1224,8.5385-6.201,18.8546-5.4884,25.1009A37.0784,37.0784,0,0,1,32,216.8691Z" fill="#fbdb8a"/><path d="M82.58,164.2865s-1.25,14.5565-8.812,12.3616-8.9071-8.4207-7.4879-11.5592,3.62-9.5411,10.3522-8.5781S82.58,164.2865,82.58,164.2865Z" fill="#feadae"/><path d="M66.1859,167.5966l-.8132,1.7984s-.1321.3313-.3228.87c-.2564.7076-.6193,1.77-.9095,2.876-.4543,1.7153-.75,3.5436-.2551,4.3335,1.0567,1.6924,6.3537,3.3929,7.1988,3.2553.2651-.0434.6551-.9706,1.0611-2.2178.2145-.6675.4372-1.4195.6479-2.1822l-.0044-.002c.6407-2.309,1.1779-4.6584,1.1779-4.6584Z" fill="#feadae"/><path d="M65.05,170.2651c-.2564.7076-.6193,1.77-.9095,2.876,1.8557,1.5514,5.65,4.563,8.0048,5.371.2145-.6675.4372-1.4195.6479-2.1822l-.0044-.002C72.56,176.2124,65.4254,172.624,65.05,170.2651Z" fill="#e5989b"/><path d="M88.3535,159.293,86.82,162.6843l74.2409,33.5714,1.5335-3.3913a6.7094,6.7094,0,0,0-3.3583-8.879l-61.997-28.0348A6.71,6.71,0,0,0,88.3535,159.293Z" fill="#e2e2e2"/><circle cx="156.9799" cy="190.2395" r="1.3245" transform="translate(-80.1853 257.9623) rotate(-66.4083)" fill="#f7f7f7"/><circle cx="152.1233" cy="188.1185" r="1.3245" transform="translate(-81.1546 252.2395) rotate(-66.4083)" fill="#f7f7f7"/><circle cx="147.2664" cy="185.9974" r="1.3245" transform="translate(-82.1239 246.5164) rotate(-66.4083)" fill="#f7f7f7"/><path d="M88.3138,183.4753h60.6534a1.51,1.51,0,0,1,1.51,1.51v12.4128a1.51,1.51,0,0,1-1.51,1.51H88.3139a1.51,1.51,0,0,1-1.51-1.51V184.985A1.51,1.51,0,0,1,88.3138,183.4753Z" transform="translate(147.9661 414.2828) rotate(-155.6677)" fill="#e2e2e2"/><rect x="81.1211" y="202.2239" width="63.2005" height="2.9681" transform="translate(131.4966 435.7651) rotate(-155.6677)" fill="#e2e2e2"/><rect x="78.1135" y="208.8753" width="63.2005" height="2.9679" transform="translate(123.0079 447.2376) rotate(-155.6677)" fill="#e2e2e2"/><rect x="105.3032" y="222.0369" width="31.5995" height="2.9679" transform="translate(139.3517 477.0844) rotate(-155.6677)" fill="#e2e2e2"/><path d="M59.56,196.5165s20.9778,17.5266,28.7933,22.421c0,0,5.6127-2.3479,5.0023-1.1134a10.1687,10.1687,0,0,1-2.4681,2.6365s8.5606,4.3573,3.4531,5.8954-7.6291-4.3454-7.6291-4.3454S56.575,208.2664,52.7342,203.0484s-6.6412-23.4257,1.6424-26.4S63.4842,184.9511,59.56,196.5165Z" fill="#feadae"/><path d="M54.3766,176.6484c7.68-2.7573,8.9449,6.7361,5.9615,17.3505l-10.6431.9551C48.2392,187.7211,48.7484,178.67,54.3766,176.6484Z" fill="#f4cf7a"/><circle cx="65.0981" cy="167.6622" r="2.6012" transform="translate(-114.4931 157.8962) rotate(-65.6677)" fill="#feadae"/><path d="M71.3849,153.7592c.19-.0036.3693.0023.5536.0035a20.6319,20.6319,0,0,1,3.55-1.3736,17.5705,17.5705,0,0,0,2.836-.8982,3.7811,3.7811,0,0,0,2.04-2.06,4.3279,4.3279,0,0,1-.4723,3.7744A6.197,6.197,0,0,0,82.74,148.89a5.2008,5.2008,0,0,1,1.101,4.9007,8.3142,8.3142,0,0,0,2.233-4.7534A7.8007,7.8007,0,0,1,82.45,162.6327a6.1947,6.1947,0,0,1-3.8988-.4772C76.8229,166.74,67.4786,166.62,67.4786,166.62a3.3851,3.3851,0,0,0-3.17-1.4333,2.3469,2.3469,0,0,0-1.581,1.4037S59.8446,153.9734,71.3849,153.7592Z" fill="#3d4177"/><path id="_Rectangle_" data-name="&lt;Rectangle&gt;" d="M211.2056,197.6262h61.1235a.143.143,0,0,1,.143.143v4.5417a.1429.1429,0,0,1-.1429.1429H211.2056a0,0,0,0,1,0,0v-4.8276A0,0,0,0,1,211.2056,197.6262Z" fill="#e2e2e2"/><rect id="_Path_" data-name="&lt;Path&gt;" x="212.583" y="202.4573" width="58.9133" height="1.2109" fill="#e7e4e8"/><rect x="212.4886" y="202.5" width="4.8263" height="75.4965" fill="#e7e4e8"/><rect x="266.6116" y="202.5" width="4.8263" height="75.4965" fill="#e7e4e8"/><path d="M188.8716,174.759l5.051,22.1867a1.0617,1.0617,0,0,1-.8843,1.2867L177.3162,200.49a1.0617,1.0617,0,0,1-1.1862-.8152l-5.051-22.1867a1.0616,1.0616,0,0,1,.8843-1.2866l15.7221-2.2577A1.0616,1.0616,0,0,1,188.8716,174.759Z" fill="#e2e2e2"/><polygon points="187.888 175.475 192.724 196.717 177.114 198.959 172.278 177.716 187.888 175.475" fill="#f1f3f7"/><line x1="173.9312" y1="179.2813" x2="187.1971" y2="177.3764" fill="none" stroke="#e2e2e2" stroke-miterlimit="10"/><line x1="174.3779" y1="181.2892" x2="187.6438" y2="179.3842" fill="none" stroke="#e2e2e2" stroke-miterlimit="10"/><line x1="179.9008" y1="182.9535" x2="188.1909" y2="181.7631" fill="none" stroke="#e2e2e2" stroke-miterlimit="10"/><line x1="180.49" y1="184.6794" x2="188.7802" y2="183.489" fill="none" stroke="#e2e2e2" stroke-miterlimit="10"/><line x1="181.0793" y1="186.4052" x2="189.3694" y2="185.2147" fill="none" stroke="#e2e2e2" stroke-miterlimit="10"/><line x1="178.0392" y1="195.9426" x2="186.3294" y2="194.7522" fill="none" stroke="#e2e2e2" stroke-miterlimit="10"/><path d="M194.922,197.2112a6.874,6.874,0,0,1-2.1854-1.9495q-.9369-1.1155-1.8739-2.231a1.8565,1.8565,0,0,1-.5324-.9962c1.0471-.0852,1.7217,1.2751,2.7692,1.3556a21.9366,21.9366,0,0,0-2.0805-4.9426,1.5182,1.5182,0,0,1-.3-1.2306,7.9836,7.9836,0,0,1,2.91,2.1248,15.5173,15.5173,0,0,1,1.5767,2.0057,21.5927,21.5927,0,0,1,2.8214,6.9309" fill="#e5989b"/><path d="M199.4284,215.082l11.2259-9.4711s5.2244,7.0858,3.2564,13.9216c-.9678,3.3616-2.1827,5.0283-2.71,6.6233-.4927,1.49-3.8717,22.5826-3.62,24.1248s2.0663,5.8569,2.7588,10.3946c.8328,5.4573.6914,23.2385,1.3372,27.953s-3.7078,5.5121-3.9474,3.917c-2.0464-13.6326-7.4511-34.8766-8.2074-41.6921S199.0728,231.557,199.4284,215.082Z" fill="#feadae"/><path d="M199.3959,228.5154l4.8819,11.2025a25.0981,25.0981,0,0,0-3.4059,11.7422c-.0819,2.1614.1088,4.3267.049,6.4889a2.1454,2.1454,0,0,1-.0658.47c-.6544-3.2044-1.1421-5.8456-1.3329-7.5658-.5344-4.815-.5371-12.4686-.3678-22.35A2.1361,2.1361,0,0,1,199.3959,228.5154Z" fill="#e5989b"/><path d="M206.9733,288.1671s1.0452,4.9465.7639,5.5769a8.6775,8.6775,0,0,1-2.3281,3.1252c-1.0868.695-3.4936,1.5212-3.6862,1.8225a.7475.7475,0,0,0,.1383,1.01,4.9866,4.9866,0,0,0,3.4316.87c3.2633-.5387,3.6009-1.9818,5.502-2.2127.3282-.04.9364.4454,1.8442-.0192a2.1581,2.1581,0,0,0,1.2711-2.094,9.3457,9.3457,0,0,0-1.4445-3.4934c-.5448-1.0077-.9283-5.6191-.9283-5.6191" fill="#feadae"/><path d="M201.6069,299.94c-.238-.4072-.2984-1.0229-.0772-1.1733a19.0954,19.0954,0,0,1,2.0315-1.2226c.633-.2914,1.6368-.5482,1.2831-.3571s.2974.905.89.8687c2.0454-.1251,3.5538-1.4847,4.7191-1.776a4.0019,4.0019,0,0,0,2.46-2.7276,7.8458,7.8458,0,0,1,1.2076,2.303,4.0266,4.0266,0,0,1,.2494,1.7583,4.09,4.09,0,0,0-.1868,1.6764,3.2108,3.2108,0,0,1-1.2089.4359,4.7639,4.7639,0,0,1-1.3016.019l-.1447-1.0562a4.7879,4.7879,0,0,0-1.04.1022,5.646,5.646,0,0,0-1.5893.7421c-.2334.2786-.42.787-.7294.9428a6.5229,6.5229,0,0,1-2.6829.6692C203.2933,301.2728,202.0133,300.6359,201.6069,299.94Z" fill="#473e73"/><path d="M184.1,299.7346c.2414-.2666,2.8416-.69,4.0614-1.1991a7.0154,7.0154,0,0,0,2.8438-2.7091,29.2729,29.2729,0,0,0,.1759-5.428c-.2432-9.7074-2.0369-33.4289-2.2966-39.11-.4514-9.8741.83-20.0659,4.6293-35.9171L207.66,204.5153s3.9617,7.365,2.6353,14.4069c-.7695,4.0856-4.1584,4.714-4.7313,6.3017s-9.1317,27.189-9.1317,27.189a48.1723,48.1723,0,0,1,1.7618,11.5982c.0826,5.176-2.2648,20.79-2.7,26.7382-.0513,1.1625-.2513,3.9449.091,4.8306.42,1.0855,1.4895,2.36,1.4357,3.73a2.1058,2.1058,0,0,1-1.6073,1.8623c-1.0024.3109-1.5614-.2682-1.9056-.2825-1.9944-.0827-2.5468,1.2889-5.99,1.2878A5.4483,5.4483,0,0,1,184.1,300.756.728.728,0,0,1,184.1,299.7346Z" fill="#feadae"/><path d="M183.8037,300.95c-.188-.4417-.1633-1.06.0863-1.1725a19.6884,19.6884,0,0,1,2.2691-.8767c.6943-.1846,1.7662-.2744,1.3744-.1432s.1789.9434.7952,1.0044c2.1284.2107,3.8767-.8869,5.12-.9844a3.2687,3.2687,0,0,0,2.575-2.2943,8.2286,8.2286,0,0,1,1.2695,2.4745,3.8845,3.8845,0,0,1,.0088,1.7793,3.89,3.89,0,0,0-.43,1.6267,3.3911,3.3911,0,0,1-1.3091.2333,5.2058,5.2058,0,0,1-1.3458-.1942v-1.0678a5.203,5.203,0,0,0-1.0876-.0689,3.6043,3.6043,0,0,0-1.7541.62c-.2923.22-.6.5908-.9452.6775a7.215,7.215,0,0,1-2.7944.2114C185.3554,302.5431,184.1246,301.704,183.8037,300.95Z" fill="#473e73"/><path d="M210.3585,204.4195c.96,1.0544,4.3815,6.7556,4.418,11.396s-1.6145,7.6161-1.7627,8.5848c-1.0852,7.0888-2.1345,15.638-2.1345,16.1021s-4.024,3.148-9.4355,2.8074c-9.9986-.6295-13.8864-3.2483-13.8864-3.2483s.4734-17.1714,2.0149-25.6382c.7726-4.2435,4.1361-11.0723,4.1361-11.0723" fill="#0088cc"/><path d="M219.4808,185.878s-1.61,8.0013-2.0328,9.4255-2.5119,10.4648-4.492,10.3074-12.8255-9.2117-12.8255-9.2117l1.536-3.0719,9.5465,4.551s.8626-10.335,1.6189-12.7965" fill="#feadae"/><path d="M215.79,190.8039c-1.01,3.5717-3.0819,7.3368-3.701,10.1063-.1245.5568-6.7352-1.8471-6.75-4.33" fill="#e5989b"/><path d="M213.0137,174.7876s3.1655.3373,4.7708,1.5654c4.0931,3.1317.9256,14.4994.9256,14.4994s.2018.6068-2.5461.4527a19.7806,19.7806,0,0,1-4.9511-.936l.7941-9.3146" fill="#fbdb8a"/><path d="M216.6374,181.2235s.3472,6.6829-.8627,10.0554a10.9092,10.9092,0,0,1-2.2416-.2945Z" fill="url(#linear-gradient)" style="mix-blend-mode:multiply"/><path d="M197.8839,153.814c-1.9073,2.4735-1.53,5.9516-1.0594,9.0393l.7134,4.6836a2.3508,2.3508,0,0,0,3.0129,2.4725q-.0116,1.938-.0231,3.8762,3.3155.08,6.6326.0265a6.39,6.39,0,0,1,.5734-2.6317c1.0815-.021,1.8041-1.1056,2.2275-2.101a30.3841,30.3841,0,0,0,1.1874-3.5466,19.6088,19.6088,0,0,0,.9373-4.8631,7.0374,7.0374,0,0,0-1.4031-4.6544,8.459,8.459,0,0,0-2.6946-2.0132c-1.3712-.7155-3.0179-1.28-4.432-.6538" fill="#feadae"/><path d="M200.1715,165.5961a4.0376,4.0376,0,0,0-.1826-2.8968,1.9066,1.9066,0,0,0-.5809-.7353,1.2269,1.2269,0,0,0-1.1815-.1224,1.3082,1.3082,0,0,0-.5938.5534,16.94,16.94,0,0,1-.415-5.4161,7.0434,7.0434,0,0,1,4.4676-6.1336c4.6829-1.9237,11.41-.0232,13.3121,4.5733a11.3726,11.3726,0,0,1-2.0415,11.3926c-2.4344,2.5766-5.9361,2.9549-9.1676,2.4242-1.6533-.2716-4.2055-.1088-5.0611-2.3574a.251.251,0,0,1,.2582-.333C199.6567,166.5964,200.1232,165.8364,200.1715,165.5961Z" fill="#3d4177"/><path d="M199.812,159.484c-.174.2728-.133.6393-.2964.9184a2.1549,2.1549,0,0,1-1.132.8668c-.7948.3684-.6086,1.5255-.5858,2.0429-.5995-.3985-.6968-1.4837-.8417-2.0349-.1627-.619-.2666-1.254-.4469-1.868a9.4609,9.4609,0,0,1-.5354-1.7885,7.3454,7.3454,0,0,1,2.8144-5.9419,3.9128,3.9128,0,0,1,4.3816.0518,3.4181,3.4181,0,0,1,1.2511,1.5911,1.0532,1.0532,0,0,1,.0487.8538" fill="#3d4177"/><path d="M210.4533,174.8168c-.1124-.757-.3171-1.64-1.0217-1.9381a2.2039,2.2039,0,0,0-.6218-.132,51.5333,51.5333,0,0,0-6.4975-.3066,6.0508,6.0508,0,0,0-2.6292.4611,6.4691,6.4691,0,0,0-2.56,3.2561" fill="#f4cf7a"/><path d="M192.1835,202.56a18.0773,18.0773,0,0,0,1.2475-1.47,23.0562,23.0562,0,0,0,.9171-7.4046c-.2208-1.3582-1.4228-2.0888-1.9652-5.1117a11.18,11.18,0,0,1,1.7906-8.2168c1.2617-1.8331.5138-1.8226.9452-4.0683a2.1421,2.1421,0,0,1,.4456-1.1183,10.8127,10.8127,0,0,1,2.5229-1.1948c3.5071-.5433,5.5683-.1192,9.1135.036a30.4127,30.4127,0,0,1,5.2271.6614c1.9057.42,3.566.9257,3.9579,3.512a26.0482,26.0482,0,0,1-1.1195,11.8376c-.806,2.5145-5.6184,11.2138-4.426,12.8974a5.7513,5.7513,0,0,1,1.0371,1.5956c.3018,1.7582-3.6707,2.3766-5.371,2.5162a66.524,66.524,0,0,1-8.1593-.0514c-1.9671-.0919-6.27-.7787-6.5757-3.2094A1.7551,1.7551,0,0,1,192.1835,202.56Z" fill="#fbdb8a"/><path d="M192.9318,189.3256a7.0051,7.0051,0,0,0,.5225,2.0284,5.4378,5.4378,0,0,0,3.5733.1618,51.9167,51.9167,0,0,1,1.615-6.8363S192.9323,188.6715,192.9318,189.3256Z" fill="url(#linear-gradient-2)" style="mix-blend-mode:multiply"/><path d="M209.3015,167.6251a3.7487,3.7487,0,0,1,3.7027,1.4541c1.0383,1.2436,1.4881,3.1753.5176,4.4724a4.3355,4.3355,0,0,1-1.4078,1.1221,7.4559,7.4559,0,0,1-5.2993.9838,4.2431,4.2431,0,0,1-3.3337-3.8772c.0193-1.6647,1.2345-3.0548,2.4637-4.1776" fill="#3d4177"/><path d="M194.9072,190.09s-9.255,14.8235-12.0656,14.8235c-2.0445,0-8.57-13.2562-8.57-13.2562l3.1676-1.4995,5.0579,6.1374,6.188-10.6841" fill="#feadae"/><path d="M178.0675,191.2345a6.1651,6.1651,0,0,1-.9732-2.8262,11.9833,11.9833,0,0,0,.073-2.9941,12.4789,12.4789,0,0,0-1.0589-2.0542c-.3044-.2663-1.43-.6943-1.7049-.5041s-.6175-.6847-1.074-.6087a.9676.9676,0,0,0-.8369.8749c0,.4185-.6087.4946-.6848.7989a4.2575,4.2575,0,0,1-.1521.7989c-.1141.2282-.45.1154-.5706.6847-.11.521.038.5706,0,.8369s-.2662.2417-.19.7485a6.3606,6.3606,0,0,0,.7276,1.7354,5.0136,5.0136,0,0,0,1.7668,1.7892,3.3743,3.3743,0,0,1,1.03,1.4227" fill="#feadae"/><path d="M201.4024,173.734c-1.687.0877-6.5987-.774-9.3279,2.0806-2.2866,2.3918-3.5968,8.6618-4.5171,11.2048,2.2905,2.335,4.4973,4.2181,7.9681,3.46.1308-.0975,1.8528-5.5169,3.1066-5.999" fill="#fbdb8a"/><path d="M199.5286,243.1589c.637-4.1193,4.582-16.89,4.7492-17.2414a15.4007,15.4007,0,0,0,4.2812-4.7731c.4849,2.7993-.7911,5.5677-1.9874,8.1443-2.09,4.5012-3.3284,9.396-5.1279,14.021" fill="#293882"/><ellipse cx="321.7971" cy="306.2504" rx="31.1878" ry="3.9849" fill="#2e5175" opacity="0.1"/><path d="M302.6489,236.8c4.9753,24.5511,13.9694,37.5013,21.7484,36.5771L306.178,183.4725C304.6224,189.0694,298.1466,214.5842,302.6489,236.8Z" fill="#f4cf7a"/><path d="M306.5014,182.3465s-.12.3955-.3234,1.126l18.2193,89.9049c.1792-.0214.3584-.0413.5359-.0774,7.8981-1.6,11.4062-17.1795,6.3164-42.2957S306.5014,182.3465,306.5014,182.3465Z" fill="#fbdb8a"/><path d="M320.7013,253.0491q-1.864-9.07-3.7037-18.1447-3.6994-18.1463-7.633-36.2435a.1066.1066,0,0,0-.2089.0425q2.3246,12.2939,4.748,24.5687a49.9709,49.9709,0,0,0-8.973-5.8493c-.163-.0775-.3316.1769-.1968.2968a51.3631,51.3631,0,0,0,9.302,6.2215c.73,3.7066,1.4533,7.4145,2.1995,11.1179q1.8284,9.0769,3.6524,18.1549c1.2021,6.0171,2.0644,12.2374,3.7526,18.1347a.3392.3392,0,0,0,.6645-.1345C323.5641,265.1253,321.9365,259.0588,320.7013,253.0491Z" fill="#2e5175"/><path d="M318.8668,245.5348a104.47,104.47,0,0,0-14.9995-9.8983.1163.1163,0,0,0-.1285.1938,104.4472,104.4472,0,0,0,14.9567,9.9626A.155.155,0,0,0,318.8668,245.5348Z" fill="#2e5175"/><path d="M324.1051,222.8986c-1.4356,1.9133-2.7916,3.8847-4.1691,5.84a30.556,30.556,0,0,0-3.4154,5.4872.1755.1755,0,0,0,.2812.1863,30.531,30.531,0,0,0,3.7245-5.2822c1.2649-2.03,2.553-4.0467,3.7563-6.1138A.1066.1066,0,0,0,324.1051,222.8986Z" fill="#2e5175"/><path d="M328.4753,245.9557a91.4355,91.4355,0,0,0-6.9511,10.2917.1938.1938,0,0,0,.3229.2142,91.4091,91.4091,0,0,0,6.7736-10.41A.0872.0872,0,0,0,328.4753,245.9557Z" fill="#2e5175"/><path d="M323.2508,263.9089a81.8043,81.8043,0,0,0-12.3365-8.0978.1261.1261,0,0,0-.1392.21,81.8122,81.8122,0,0,0,12.2617,8.2106A.1938.1938,0,0,0,323.2508,263.9089Z" fill="#2e5175"/><path d="M331.0758,236.0286c-7.62,19.4194-7.1849,32.5428-1.3268,35.4135l27.9052-71.1135C354.0359,203.5394,337.9716,218.4559,331.0758,236.0286Z" fill="#f4cf7a"/><path d="M358.39,199.6873s-.2629.2222-.7354.6413L329.749,271.4421c.1348.066.2692.1331.41.1883,6.2472,2.4514,15.7443-6.8579,23.54-26.7245S358.39,199.6873,358.39,199.6873Z" fill="#fbdb8a"/><path d="M336.3547,255.5539q2.797-7.1857,5.6132-14.364,5.6172-14.3636,11.0482-28.7984a.0888.0888,0,0,0-.1652-.0648q-3.9328,9.6489-7.7876,19.3289a41.5968,41.5968,0,0,0-3.6307-8.1474.1543.1543,0,0,0-.2718.1186,42.7642,42.7642,0,0,0,3.6927,8.5566c-1.1653,2.9225-2.3359,5.8424-3.4884,8.77q-2.8248,7.1749-5.6536,14.3483c-1.88,4.7516-4.089,9.4917-5.5746,14.3794a.2825.2825,0,0,0,.5256.2062C332.8972,265.2941,334.5014,260.3156,336.3547,255.5539Z" fill="#2e5175"/><path d="M338.4692,249.4694a86.995,86.995,0,0,0-6.0149-13.7038.0968.0968,0,0,0-.1774.0774,87.0042,87.0042,0,0,0,5.9559,13.73A.1291.1291,0,0,0,338.4692,249.4694Z" fill="#2e5175"/><path d="M352.3667,236.0067c-1.8691.6891-3.7087,1.4548-5.5562,2.2a25.4418,25.4418,0,0,0-4.87,2.2935.1461.1461,0,0,0,.1124.2574,25.4066,25.4066,0,0,0,4.993-2.01c1.8024-.8478,3.6151-1.6759,5.3915-2.5775A.0889.0889,0,0,0,352.3667,236.0067Z" fill="#2e5175"/><path d="M344.9987,254.1079a76.1276,76.1276,0,0,0-9.5145,4.0552.1614.1614,0,0,0,.129.2956,76.1287,76.1287,0,0,0,9.4437-4.2177A.0727.0727,0,0,0,344.9987,254.1079Z" fill="#2e5175"/><path d="M333.228,264.3018a68.13,68.13,0,0,0-4.9666-11.2409.105.105,0,0,0-.1922.084,68.1076,68.1076,0,0,0,4.8632,11.2859A.1614.1614,0,0,0,333.228,264.3018Z" fill="#2e5175"/><path d="M289.83,248.0344c8.0119,16.9442,16.8656,24.7411,22.3512,22.6764l-29.3394-62.0489C282.714,213.0063,282.58,232.7018,289.83,248.0344Z" fill="#f4cf7a"/><path d="M282.8748,207.7858s-.0166.3088-.0333.876l29.3394,62.0489c.1263-.0475.2529-.0941.3754-.1522,5.4508-2.5773,5.209-14.5234-2.9873-31.8577S282.8748,207.7858,282.8748,207.7858Z" fill="#fbdb8a"/><path d="M305.8545,256.605q-2.9788-6.2551-5.9406-12.5179-5.9375-12.52-12.0369-24.9625a.08.08,0,0,0-.144.0683q3.8907,8.5147,7.85,16.9978a37.386,37.386,0,0,0-7.5663-2.642.1386.1386,0,0,0-.09.2508,38.4164,38.4164,0,0,0,7.872,2.8535c1.1944,2.562,2.3837,5.126,3.5892,7.6828q2.9541,6.2666,5.9052,12.5347c1.9512,4.1557,3.6915,8.52,5.9745,12.502a.2538.2538,0,0,0,.4586-.2169C310.0974,264.8651,307.8283,260.75,305.8545,256.605Z" fill="#2e5175"/><path d="M303.1759,251.4748a78.1606,78.1606,0,0,0-12.6695-4.5039.087.087,0,0,0-.0585.1638,78.1692,78.1692,0,0,0,12.65,4.5584A.116.116,0,0,0,303.1759,251.4748Z" fill="#2e5175"/><path d="M302.9268,234.0921c-.7,1.6472-1.3322,3.3222-1.9826,4.9894a22.8624,22.8624,0,0,0-1.4983,4.5982.1313.1313,0,0,0,.2376.0849,22.8369,22.8369,0,0,0,1.76-4.5044c.5554-1.7012,1.13-3.3971,1.6339-5.1142A.08.08,0,0,0,302.9268,234.0921Z" fill="#2e5175"/><path d="M310.2315,250.0594a68.4216,68.4216,0,0,0-3.2063,8.7217.145.145,0,0,0,.2728.0977,68.3817,68.3817,0,0,0,3.0562-8.7754A.0653.0653,0,0,0,310.2315,250.0594Z" fill="#2e5175"/><path d="M309.652,264.0376a61.2132,61.2132,0,0,0-10.4126-3.6729.0942.0942,0,0,0-.0634.1774,61.2042,61.2042,0,0,0,10.3782,3.7684A.145.145,0,0,0,309.652,264.0376Z" fill="#2e5175"/><path d="M348.7528,288.2729l.0089-22.4067-54.1266-.0216-.0012,2.9217,37.6245,37.6544A18.2411,18.2411,0,0,0,348.7528,288.2729Z" fill="#cdd1d3"/><path d="M294.6337,269.444l-.0078,19.485a18.2431,18.2431,0,0,0,18.2359,18.25l17.64.007c.5928,0,1.1777-.0328,1.756-.088Z" fill="#e2e2e2"/></g></g></svg>