<svg id="Layer_1" data-name="Layer 1" xmlns="http://www.w3.org/2000/svg" width="35" height="35" viewBox="0 0 35 35"><title>reactnative-brand</title><path d="M20.5345,17.5A3.0345,3.0345,0,1,1,17.5,14.4655,3.0338,3.0338,0,0,1,20.5345,17.5Zm0,0" fill="#ccd0d2"/><path d="M29.0281,12.4945c-.5854-.2132-1.198-.4251-1.8378-.6126.16-.6384.2934-1.2768.3993-1.8894.56-3.5141-.053-5.99-1.7563-6.9492a3.3177,3.3177,0,0,0-1.7047-.4252c-1.8636,0-4.2326,1.3841-6.6287,3.7-2.3961-2.316-4.765-3.7-6.6287-3.7a3.3176,3.3176,0,0,0-1.7047.4252C7.4634,4.0281,6.8507,6.5043,7.41,9.9926c.106.6126.2391,1.251.3993,1.8894a18.9421,18.9421,0,0,0-1.8379.6126C2.6439,13.7727.8333,15.53.8333,17.5s1.8378,3.7272,5.1385,5.0055c.5855.2132,1.198.4251,1.8379.6126-.16.6384-.2934,1.2768-.3993,1.8894-.56,3.5141.053,5.99,1.7563,6.9493a3.318,3.318,0,0,0,1.7047.4251c1.8894,0,4.26-1.3842,6.6287-3.7,2.3961,2.3159,4.765,3.7,6.6287,3.7a3.318,3.318,0,0,0,1.7047-.4251c1.7033-.9848,2.3159-3.461,1.7563-6.9493-.106-.6126-.2391-1.251-.3993-1.8894a18.9434,18.9434,0,0,0,1.8378-.6126C32.356,21.2272,34.1667,19.47,34.1667,17.5s-1.8106-3.7273-5.1385-5.0055Zm-3.9405-8.12c1.0921.64,1.4643,2.6093,1.012,5.4048a15.9864,15.9864,0,0,1-.3736,1.7577,31.4621,31.4621,0,0,0-4.3928-.6656A38.2139,38.2139,0,0,0,18.5649,7.41c1.97-1.9438,3.9663-3.2749,5.5909-3.2749a1.8052,1.8052,0,0,1,.9318.2391ZM22.1061,20.1623c-.48.8516-1.0392,1.7034-1.6247,2.5564-.9847.0788-1.9695.106-2.9815.106-1.0378,0-2.0239-.0272-2.9815-.106q-.8782-1.28-1.5974-2.5564c-.5067-.8789-.9848-1.7834-1.4114-2.6623.4265-.8789.9047-1.7834,1.4114-2.6623.4794-.8516,1.0377-1.7034,1.6232-2.5564.9861-.0788,1.971-.106,2.9829-.106,1.0378,0,2.0225.0272,2.9816.106q.8781,1.28,1.5974,2.5564c.5052.8789.9847,1.7834,1.4112,2.6623-.4537.8789-.906,1.7577-1.4112,2.6623Zm2.21-.8789c.3993.9318.7186,1.8379,1.0106,2.7425a29.1711,29.1711,0,0,1-2.8742.5053c.3193-.5053.6656-1.0378.9576-1.5974.3193-.5582.6127-1.118.906-1.65ZM17.5,26.499c-.6384-.6928-1.251-1.4385-1.8365-2.21.6113.0272,1.2238.0529,1.8365.0529s1.2252-.0258,1.8365-.0529c-.5855.7715-1.198,1.5172-1.8365,2.21Zm-4.9525-3.9935c-1.0106-.1331-1.97-.2935-2.8742-.5067.292-.8775.6113-1.8093,1.0106-2.7411.2934.5325.5868,1.0907.906,1.6232.3192.5855.6383,1.0922.9576,1.6247Zm-1.8636-6.7889c-.3993-.9318-.7186-1.8379-1.0106-2.7425a29.1711,29.1711,0,0,1,2.8742-.5053c-.3193.5053-.6656,1.0378-.9576,1.5974-.3193.5582-.6126,1.118-.906,1.65ZM17.5,8.501c.6384.6928,1.251,1.4385,1.8365,2.21-.6113-.0272-1.2238-.0529-1.8365-.0529s-1.2252.0258-1.8365.0529c.5855-.7716,1.198-1.5172,1.8365-2.21Zm5.91,5.5909-.9576-1.5974c1.0106.1331,1.97.2935,2.8742.5067-.292.8775-.6113,1.8093-1.0106,2.7411-.2934-.5582-.5868-1.118-.906-1.65ZM8.9,9.7793c-.4523-2.7954-.08-4.765,1.012-5.4048a1.8052,1.8052,0,0,1,.9318-.2391c1.5974,0,3.5941,1.304,5.5909,3.2749a34.7694,34.7694,0,0,0-2.7683,3.461,36.0812,36.0812,0,0,0-4.3928.6656c-.16-.6125-.2662-1.198-.3736-1.7577ZM2.3247,17.5c0-1.251,1.5172-2.5821,4.18-3.567a15.972,15.972,0,0,1,1.7047-.56,38.47,38.47,0,0,0,1.5974,4.1538A33.3466,33.3466,0,0,0,8.209,21.6538C4.5348,20.5888,2.3247,18.9914,2.3247,17.5ZM9.9124,30.6256c-1.0921-.64-1.4643-2.6094-1.012-5.4048a15.9849,15.9849,0,0,1,.3736-1.7577,31.4609,31.4609,0,0,0,4.3928.6656,38.2139,38.2139,0,0,0,2.7683,3.461c-1.97,1.9437-3.9663,3.2749-5.5909,3.2749a1.8056,1.8056,0,0,1-.9318-.239ZM26.1,25.2207c.4523,2.7954.08,4.765-1.012,5.4048a1.8056,1.8056,0,0,1-.9318.239c-1.5974,0-3.5941-1.3039-5.5909-3.2749a34.7694,34.7694,0,0,0,2.7683-3.461,36.08,36.08,0,0,0,4.3928-.6656c.16.6126.2662,1.198.3736,1.7577Zm2.396-4.1538a15.9693,15.9693,0,0,1-1.7047.56,38.47,38.47,0,0,0-1.5974-4.1538,33.3453,33.3453,0,0,0,1.5974-4.1266c3.6743,1.0649,5.8843,2.6623,5.8843,4.1538,0,1.251-1.5444,2.5821-4.18,3.567Zm0,0" fill="#ccd0d2"/></svg>