<svg id="Layer_1" data-name="Layer 1" xmlns="http://www.w3.org/2000/svg" width="40" height="40" viewBox="0 0 40 40"><title>reduce-time</title><path d="M34.7334,14.3351H27.3668a.5667.5667,0,0,0-.5667.5667v2.2666a.5667.5667,0,0,0,.5667.5667h1.7a1.1333,1.1333,0,1,1,0,2.2666h-1.7a.5667.5667,0,0,0-.5667.5667v2.8333H18.3a.5667.5667,0,0,0-.5667.5667v7.3666A2.2667,2.2667,0,0,0,20,33.6016H34.7334A2.2667,2.2667,0,0,0,37,31.3349V16.6018A2.2667,2.2667,0,0,0,34.7334,14.3351ZM26.8,32.4683H20a1.1333,1.1333,0,0,1-1.1333-1.1333v-6.8H26.8v1.1333H25.6668a2.2666,2.2666,0,1,0,0,4.5333H26.8Zm9.0666-1.1333a1.1333,1.1333,0,0,1-1.1333,1.1333h-6.8V29.635a.5667.5667,0,0,0-.5667-.5667h-1.7a1.1333,1.1333,0,1,1,0-2.2666h1.7a.5667.5667,0,0,0,.5667-.5667v-1.7h1.7v1.1333a2.2666,2.2666,0,1,0,4.5333,0V24.535h1.7Zm0-7.9332H33.6a.5667.5667,0,0,0-.5667.5667v1.7a1.1333,1.1333,0,0,1-2.2666,0v-1.7a.5667.5667,0,0,0-.5667-.5667H27.9334V21.135h1.1333a2.2666,2.2666,0,1,0,0-4.5333H27.9334V15.4684h6.8a1.1333,1.1333,0,0,1,1.1333,1.1333Z" fill="#0088cc"/><path d="M27.9334,5.2686H26.8v-1.7a.5667.5667,0,0,0-.5667-.5667H18.8669A2.2667,2.2667,0,0,0,16.6,5.2686v6.3466L14.256,12.7485a4.6179,4.6179,0,0,0-1.29-1.1628,4.5332,4.5332,0,1,0-4.357-.1621,4.544,4.544,0,0,0-2.4,2.9194L3.9512,21.4518a8.5,8.5,0,0,0,.3644,6.099,7.3512,7.3512,0,0,1-.1179,6.3557L3.06,36.1816a.5667.5667,0,0,0,.5072.82H9.8a.5667.5667,0,0,0,.5667-.5667,2.8174,2.8174,0,0,0-1.5152-2.5029l.2709-.5406a8.565,8.565,0,0,0,.761-5.3311l-.42-2.312a.5489.5489,0,0,1,1.08-.1966l.77,4.2341A11.6786,11.6786,0,0,1,11.5,31.87v4.565a.5667.5667,0,0,0,.5667.5667H18.3a.5667.5667,0,0,0,.5667-.5667,2.8347,2.8347,0,0,0-.0193-.33,2.5093,2.5093,0,0,0-1.3963-1.972,2.7461,2.7461,0,0,0-2.0434-.1813l.3774-1.8858a12.8193,12.8193,0,0,0,.2482-2.5075V24.4863l-.6619-7.5881,3.9321-1.8762a2.1177,2.1177,0,0,0,1.254-1.82h5.6757a.5667.5667,0,0,0,.5667-.5667V9.8018h1.1333a2.2666,2.2666,0,0,0,0-4.5333Zm-20.4,2.2666a3.4,3.4,0,1,1,3.4,3.4A3.4,3.4,0,0,1,7.5337,7.5352ZM15.4074,35.178a1.6128,1.6128,0,0,1,1.53-.0334,1.4235,1.4235,0,0,1,.6891.7236H12.6336V31.87a12.792,12.792,0,0,0-.2063-2.287l-.77-4.2335a1.6818,1.6818,0,1,0-3.3145.5731l.0052.0287.421,2.312a7.4274,7.4274,0,0,1-.6607,4.6211l-.55,1.1a.5666.5666,0,0,0,.3717.8075,1.6938,1.6938,0,0,1,1.2059,1.0767H4.484L5.21,34.413a8.4818,8.4818,0,0,0,.136-7.3314A7.3665,7.3665,0,0,1,5.03,21.7946l2.2666-7.14a3.4815,3.4815,0,0,1,4.0125-2.5228,3.3435,3.3435,0,0,1,1.8966,1.12L9.857,14.8695a2.1029,2.1029,0,1,0,1.819,3.7921l2.6066-1.2427L14.9,24.535v5.0234a11.7276,11.7276,0,0,1-.2267,2.2848l-.6041,3.018a.5667.5667,0,0,0,.837.6035Zm3.4328-21.19-.017.0074-7.6357,3.6431a.97.97,0,0,1-.8392-1.7487l7.6969-3.7173a.99.99,0,0,1,1.3883.9078A.9916.9916,0,0,1,18.84,13.9883Zm9.0932-5.32h-1.7a.5667.5667,0,0,0-.5667.5667v2.8333H20.3113a2.1176,2.1176,0,0,0-2.5777-.9849V5.2686a1.1333,1.1333,0,0,1,1.1333-1.1333h6.8v1.7a.5667.5667,0,0,0,.5667.5667h1.7a1.1333,1.1333,0,0,1,0,2.2666Z" fill="#0088cc"/><path d="M25.8328,17.9011l-1.866,1.866V16.6018H22.8335V20.9l-.5667.5667L21.7,20.9v-2.032H20.5669v.8987l-1.866-1.866-.8013.8013,3.9666,3.9666a.5667.5667,0,0,0,.8013,0l3.9666-3.9666Z" fill="#0088cc"/><rect x="20.5669" y="16.6018" width="1.1333" height="1.1333" fill="#0088cc"/><rect x="20.5669" y="14.3351" width="1.1333" height="1.1333" fill="#0088cc"/><rect x="22.8335" y="14.3351" width="1.1333" height="1.1333" fill="#0088cc"/></svg>