<svg id="Layer_1" data-name="Layer 1" xmlns="http://www.w3.org/2000/svg" width="40" height="40" viewBox="0 0 40 40"><title>requirement-document</title><path d="M34.4981,8.49a.9041.9041,0,0,0-.2632-.6309L27.3032.9278,27.3024.9272a.902.902,0,0,0-.6395-.2646H7.4064A1.9084,1.9084,0,0,0,5.5,2.5689V37.4311a1.9084,1.9084,0,0,0,1.9063,1.9063H32.5937A1.9084,1.9084,0,0,0,34.5,37.4311V8.5Zm-6.93-4.736,3.84,3.84H27.6637a.0955.0955,0,0,1-.0953-.0953V3.7544ZM32.689,37.4312a.0954.0954,0,0,1-.0953.0953H7.4064a.0954.0954,0,0,1-.0953-.0953V2.5689a.0954.0954,0,0,1,.0953-.0953H25.7573V7.4989a1.9087,1.9087,0,0,0,1.9065,1.9065H32.689Z" fill="#0088cc"/><path d="M28.0136,13.0517H11.9865a.9056.9056,0,1,0,0,1.8111H28.0136a.9056.9056,0,0,0,0-1.8111Z" fill="#0088cc"/><path d="M28.0136,18.516H11.9865a.9056.9056,0,1,0,0,1.8111H28.0136a.9055.9055,0,1,0,0-1.8111Z" fill="#0088cc"/><path d="M28.0136,23.98H11.9865a.9056.9056,0,1,0,0,1.8111H28.0136a.9056.9056,0,0,0,0-1.8111Z" fill="#0088cc"/><path d="M20,29.4445H11.9865a.9056.9056,0,1,0,0,1.8111H20a.9056.9056,0,0,0,0-1.8111Z" fill="#0088cc"/></svg>