<svg xmlns="http://www.w3.org/2000/svg" xmlns:xlink="http://www.w3.org/1999/xlink" width="371" height="339" viewBox="0 0 371 339"><defs><clipPath id="clip-path"><path id="_Clipping_Path_" data-name="&lt;Clipping Path&gt;" d="M215.6953,47.5831H184.9859a5.4518,5.4518,0,0,1,.117,1.1162h0A6.7223,6.7223,0,0,1,178.4,55.4019h-48.408a6.7223,6.7223,0,0,1-6.7026-6.7026h0a5.4518,5.4518,0,0,1,.117-1.1162H92.6972a7.7739,7.7739,0,0,0-7.7739,7.7739V299.0711a1.2311,1.2311,0,0,0,1.2311,1.2311H222.2382a1.2311,1.2311,0,0,0,1.2311-1.2311V55.357A7.7739,7.7739,0,0,0,215.6953,47.5831Z" fill="#e2e2e2"/></clipPath><radialGradient id="radial-gradient" cx="-945.858" cy="1243.8073" r="19.0389" gradientTransform="matrix(-1.7851, -0.1377, -0.0177, 0.1813, -1422.6971, -65.1191)" gradientUnits="userSpaceOnUse"><stop offset="0" stop-color="#cfd8dc"/><stop offset="1" stop-color="#cfd8dc" stop-opacity="0"/></radialGradient><linearGradient id="linear-gradient" x1="-1026.8531" y1="808.6862" x2="-1026.8531" y2="808.746" gradientTransform="matrix(-0.9516, 0.3071, 0.3071, 0.9516, -972.3883, -178.4698)" gradientUnits="userSpaceOnUse"><stop offset="0" stop-color="#facdd2"/><stop offset="1" stop-color="#e57373"/></linearGradient><linearGradient id="linear-gradient-2" x1="-1124.9271" y1="623.917" x2="-1124.9271" y2="623.9765" gradientTransform="matrix(-0.9962, -0.0865, -0.0865, 0.9962, -829.78, -439.1681)" xlink:href="#linear-gradient"/></defs><title>service-banner</title><g style="isolation:isolate"><g id="Layer_1" data-name="Layer 1"><ellipse cx="39.6507" cy="320.8363" rx="20.2787" ry="9.2074" fill="#f1f3f7"/><ellipse cx="321.3623" cy="314.2562" rx="46.9665" ry="21.3249" fill="#f1f3f7"/><path d="M124.9764,28.8977a207.7369,207.7369,0,0,0,79.8467-15.8736c15.0494-6.3375,50.6707-10.0451,73.6358-5.5265,19.9364,3.9227,67.3724,21.473,46.9165,79.5244s-46.12,63.9051-27.51,102.0422c13.6681,28.0088,37.283,55.8915,16.26,78.0435-32.6939,34.45-166.391,84.8528-235.3635,42.4263S-4.79,251.9192,16.4639,186.4451-16.1593,112.6,12.348,64.146C29.4463,35.0843,84.0267,29.0627,124.9764,28.8977Z" fill="#f1f3f7"/><path id="_Clipping_Path_2" data-name="&lt;Clipping Path&gt;" d="M215.6953,47.5831H184.9859a5.4518,5.4518,0,0,1,.117,1.1162h0A6.7223,6.7223,0,0,1,178.4,55.4019h-48.408a6.7223,6.7223,0,0,1-6.7026-6.7026h0a5.4518,5.4518,0,0,1,.117-1.1162H92.6972a7.7739,7.7739,0,0,0-7.7739,7.7739V299.0711a1.2311,1.2311,0,0,0,1.2311,1.2311H222.2382a1.2311,1.2311,0,0,0,1.2311-1.2311V55.357A7.7739,7.7739,0,0,0,215.6953,47.5831Z" fill="#e2e2e2"/><g clip-path="url(#clip-path)"><rect x="89.4166" y="60.1184" width="129.1078" height="235.055" rx="5.75" ry="5.75" fill="#fff"/></g><polygon points="219.017 73.049 88.924 73.049 88.924 60.118 88.924 60.118 219.017 60.118 219.017 73.049" fill="#edeef4"/><path d="M103.5935,52.1256A1.88,1.88,0,0,0,101.74,50.22a1.7987,1.7987,0,0,0-.95.2772,4.3811,4.3811,0,0,0,1.9673,3.2193A1.9163,1.9163,0,0,0,103.5935,52.1256Z" fill="#ee3c5f"/><path d="M100.7906,50.497a1.9092,1.9092,0,0,0-.9035,1.6286,1.88,1.88,0,0,0,1.8532,1.9058,1.8064,1.8064,0,0,0,1.0176-.3151A4.3811,4.3811,0,0,1,100.7906,50.497Z" fill="#ee4a72"/><path d="M98.2917,52.1256A1.88,1.88,0,0,0,96.4384,50.22a1.7987,1.7987,0,0,0-.95.2772,4.3811,4.3811,0,0,0,1.9673,3.2193A1.9163,1.9163,0,0,0,98.2917,52.1256Z" fill="#f79536"/><path d="M95.4887,50.497a1.9091,1.9091,0,0,0-.9034,1.6286,1.88,1.88,0,0,0,1.8532,1.9058,1.8062,1.8062,0,0,0,1.0176-.3151A4.3811,4.3811,0,0,1,95.4887,50.497Z" fill="#f89e55"/><path d="M92.99,52.1256A1.88,1.88,0,0,0,91.1365,50.22a1.7987,1.7987,0,0,0-.95.2772,4.3807,4.3807,0,0,0,1.9673,3.2193A1.9163,1.9163,0,0,0,92.99,52.1256Z" fill="#8aba98"/><path d="M90.1868,50.497a1.909,1.909,0,0,0-.9035,1.6286,1.88,1.88,0,0,0,1.8532,1.9058,1.8064,1.8064,0,0,0,1.0176-.3151A4.3807,4.3807,0,0,1,90.1868,50.497Z" fill="#a9d8b7"/><rect x="93.3589" y="117.5968" width="122.2089" height="33.0996" rx="4.4664" ry="4.4664" fill="#e2e2e2"/><rect x="93.3589" y="158.0498" width="122.2089" height="8.8038" rx="4.4019" ry="4.4019" fill="#e2e2e2"/><rect x="93.3589" y="175.9948" width="122.2089" height="8.8038" rx="4.4019" ry="4.4019" fill="#e2e2e2"/><rect x="93.3589" y="193.9399" width="122.2089" height="8.8038" rx="4.4019" ry="4.4019" fill="#e2e2e2"/><path d="M324.1974,217.5678l-2.183-.91a1.8014,1.8014,0,0,1-1.1025-1.8057l.1532-1.9237-4.5848-1.5556-.29,1.3027c-.3394.9825-.098,2.2984-.7989,3.0658l-.7549.8266Z" fill="#feadae"/><polygon points="303.703 309.749 303.618 316.303 299.403 317.055 296.039 308.54 303.703 309.749" fill="#feadae"/><polygon points="347.768 303.478 344.7 307.476 337.431 304.825 340.662 297.989 347.768 303.478" fill="#feadae"/><path d="M343.217,313.1762c-.6818-.401,1.559-5.2553,1.8565-5.7752l1.7627-4.2307c.2975-.52,1.22-.1538,1.9014.2471l1.8462,1.1964-5.4524,9.6425Z" fill="#473e73"/><path d="M346.2179,313.879l4.7132-8.1156a.82.82,0,0,0-.2975-1.1205l-.6168-.3577-5.5364,9.5329.6178.3582A.82.82,0,0,0,346.2179,313.879Z" fill="#473e73"/><line x1="344.4109" y1="308.7943" x2="345.9238" y2="309.1146" fill="none" stroke="#fff" stroke-linecap="round" stroke-miterlimit="10" opacity="0.44"/><line x1="344.0939" y1="309.841" x2="345.2626" y2="310.0885" fill="none" stroke="#fff" stroke-linecap="round" stroke-miterlimit="10" opacity="0.44"/><line x1="343.5862" y1="310.8473" x2="344.6014" y2="311.0621" fill="none" stroke="#fff" stroke-linecap="round" stroke-miterlimit="10" opacity="0.44"/><path d="M345.1673,307.7106c.9664.2456,2.0615-.9294,2.378-2.1748a2.1164,2.1164,0,0,0-1.1767-2.7c-.9666-.2457-3.3185.5833-3.6352,1.8287S344.2008,307.4649,345.1673,307.7106Z" fill="#feadae"/><path d="M293.5673,319.0476c-.0871-.7992,5.2311-1.92,5.8356-1.9928l4.215-.7517c.6046-.073,1.17.5211,1.2576,1.32l.1455,2.2316-11.4537,1.4094Z" fill="#473e73"/><path d="M294.4191,321.9217l9.937-1.0959a.7676.7676,0,0,0,.6784-.8508l-.09-.782-11.3772,1.2744v.6912A.7676.7676,0,0,0,294.4191,321.9217Z" fill="#473e73"/><line x1="297.8645" y1="317.3604" x2="298.522" y2="318.7884" fill="none" stroke="#fff" stroke-linecap="round" stroke-miterlimit="10" opacity="0.44"/><line x1="296.8188" y1="317.7376" x2="297.3266" y2="318.8406" fill="none" stroke="#fff" stroke-linecap="round" stroke-miterlimit="10" opacity="0.44"/><line x1="295.6902" y1="317.9347" x2="296.1313" y2="318.8929" fill="none" stroke="#fff" stroke-linecap="round" stroke-miterlimit="10" opacity="0.44"/><path d="M299.538,317.1425a2.1513,2.1513,0,0,0,2.8863.795c1.2075-.498,1.4865-2.5985,1.1-3.5357s-2.1039-1.4142-3.3114-.9162S299.1515,316.2054,299.538,317.1425Z" fill="#feadae"/><path d="M320.8932,292.7712c-3.719-1.3127-4.2418-1.725-5.1411-7.11s3.3909-9.0788,2.4646-13.3449,3.3328-6.6724,5.4773-9.0247a7.92,7.92,0,0,1,1.5572-1.3359l-4.2075,24.0029a1.9819,1.9819,0,0,0,1.018,2.09l18.6,9.94c1.66.8871-2.2678,1.3761-4.0968,1.82l-.0193.0055C334.6407,300.461,324.6123,294.0837,320.8932,292.7712Z" fill="#50549e"/><path d="M298.677,296.5184c-.4821-5.0427-1.2681-2.6873-3.7474-6.4064s2.8184-10.2326,6.3442-15.3868c7.6325-11.1571,13.9348-9.5044,13.1016-6.4564l-8.204,11.5271a26.3236,26.3236,0,0,0-4.37,20.4053l1.2791,6.4226a9.47,9.47,0,0,1-1.6923-1.2642C298.0752,302.1577,299.1592,301.561,298.677,296.5184Z" fill="#424989"/><path d="M298.563,259.3547l3.2321-9.8085,14.6852,7.4307-.6342,9.2255-1.3936,1.3211c-1.9979-1.2567-8.679.6349-12.23,7.1288-2.9964,5.4789-9.7719,11.7406-7.2924,15.46s3.2653,1.3637,3.7474,6.4064-.6018,5.6393,2.7113,8.8412a9.47,9.47,0,0,0,1.6923,1.2642l1.4362,7.2108a.6843.6843,0,0,1-.7615.812l-5.9126-.7886-5.7372-16.9127a25.311,25.311,0,0,1-.2665-15.4353C294.36,273.1439,298.08,260.82,298.563,259.3547Z" fill="#424989"/><path d="M310.013,266.0075l-.0029-9.9344,15.7794,4.972c-2.2906,5.0116-8.4288,6.4569-7.2753,11.769,1.0247,4.7188-7.9695,15.7085,3.7267,19.8367,3.7191,1.3126,13.1791,6.0381,15.1907,6.0381a8.4311,8.4311,0,0,0,3.23-.7l4.9549,3.7338-3.85,4.7247C308.1677,294.5421,308.8506,299.1058,310.013,266.0075Z" fill="#50549e"/><path d="M272.5884,217.039l1.4077.5089-.59-.728a26.2771,26.2771,0,0,1,2.8143,1.532l15.9357,5.76,15.0864-5.8972,2.6117,7.5414-16.0625,5.0223-1.6493.5157-1.0013-.5106-20.0743-10.2365a2.3356,2.3356,0,0,1-.5824-2.5777C270.8269,216.9764,272.5884,217.039,272.5884,217.039Z" fill="#feadae"/><polygon points="324.197 217.568 313.859 216.155 311.077 223.432 327.728 221.741 324.197 217.568" fill="#feadae"/><path d="M311.9555,216.5611l-9.8692,2.3918a1.9043,1.9043,0,0,0-1.202,2.8l3.7285,6.4808Z" fill="#fbdb8a"/><path d="M314.5492,195.1162a4.6739,4.6739,0,0,1,.4721-1.7177c3.5445-.72,8.0023-.7028,7.2983,4.2381-.8045,5.6457-1.3875,12.1027-1.1313,15.3532l-2.5783-.0833c-2.8857-.0931-6.6509-3.2165-6.4695-5.9134Z" fill="#feadae"/><path d="M338.3627,260.3951l1.0319-2.8059h0l-.4469-17.8016L328.76,228.0313l6.0193-5.5223,9.9473,13.5748.357.4872a2.7554,2.7554,0,0,1,.5052,2.0192h0l-4.2243,19.3657h0a5.52,5.52,0,0,1,.0469,2.1576,2.4594,2.4594,0,0,1-1.4232,2.0169A1.3049,1.3049,0,0,1,338.3627,260.3951Z" fill="#feadae"/><path d="M331.7964,219.6279l7.2759,5.4005a2.2672,2.2672,0,0,1,.3986,3.262l-4.705,5.7112a2.2508,2.2508,0,0,1-3.6914-.3143l-2.6435-4.6257Z" fill="#fbdb8a"/><path d="M324.1974,217.5678c.03.1708.1875.3652.0882.5116-1.7025,2.5145-3.2368,5.4232-7.8514,4.3181-4.3739-1.0475-3.7659-4.0731-2.5755-6.243l-1.9032.4066-8.7761,2.1269-3.9928,31.55a2.2889,2.2889,0,0,0,1.5148,2.7248l26.5962,8.6454c1.71.5558,2.2565-.4657,2.3018-2.2629l.0934-3.7119,2.1165-36.0056Z" fill="#fbdb8a"/><path d="M327.0211,208.9531c-2.68,2.1143-5.1478,8.022-7.2929,1.881-1.2337-3.5318,2.4715-10.5828,1.0166-13.2679s-7.54-.79-8.6042-2.2115a4.796,4.796,0,0,1-.4466-3.1457c.0915-.825,1.1192-.3689,1.7206-.9413,8.979-8.5449,18.1419,4.198,17.0942,10.1133C329.3282,208.0463,327.0211,208.9531,327.0211,208.9531Z" fill="#3d4177"/><path d="M277.03,225.1927l.6266,1.3073a2.7886,2.7886,0,0,1-1.3054,3.7091l-.6269.3a2.7886,2.7886,0,0,1-3.7091-1.3054l-.6266-1.3073Z" fill="#e2e2e2"/><polygon points="271.472 213.23 271.619 213.302 277.182 224.815 271.054 227.776 265.491 216.263 265.526 216.102 271.472 213.23" fill="#50549e"/><polygon points="266.671 210.883 267.606 211.34 266.456 211.863 266.671 210.883" fill="#50549e"/><polygon points="267.606 211.34 271.472 213.23 265.526 216.102 266.456 211.863 267.606 211.34" fill="#e2e2e2"/><path d="M270.6475,225.7561h7.0586a.6183.6183,0,0,1,.6183.6183v.0421a.6192.6192,0,0,1-.6192.6192h-7.0577a.6189.6189,0,0,1-.6189-.6189v-.042a.6188.6188,0,0,1,.6188-.6188Z" transform="translate(616.8884 321.1406) rotate(155.9063)" fill="#5e5b72"/><path d="M275.6847,224.69a.4929.4929,0,0,1-.4447-.28L270.6924,214.9a.4929.4929,0,0,1,.8893-.4254l4.5476,9.5105a.4927.4927,0,0,1-.4447.7055Z" fill="#e2e2e2"/><path d="M274.2612,225.326a.4929.4929,0,0,1-.4447-.28l-4.5486-9.51a.4929.4929,0,0,1,.8893-.4254l4.5486,9.51a.4927.4927,0,0,1-.4447.7055Z" fill="#e2e2e2"/><path d="M272.8368,225.9617a.4929.4929,0,0,1-.4447-.28l-4.5486-9.51a.4929.4929,0,1,1,.8893-.4254l4.5486,9.51a.4927.4927,0,0,1-.4447.7055Z" fill="#e2e2e2"/><path d="M271.4123,226.5978a.4929.4929,0,0,1-.4447-.28l-4.5476-9.51a.4929.4929,0,1,1,.8893-.4254l4.5476,9.51a.4927.4927,0,0,1-.4447.7055Z" fill="#e2e2e2"/><path d="M275.3459,218.89a.5121.5121,0,0,1-.0606-.0034l-3.39-.4119a.4935.4935,0,0,1-.4293-.5491.4991.4991,0,0,1,.5486-.43l3.39.4119a.4929.4929,0,0,1-.0587.9822Z" fill="#feadae"/><path d="M59.8,203.0592c4.6836-1.3721,11.4883-24.1128,2.5758-33.6-4.59-4.8805-2.38,1.8606-2.38,1.8606,2.1141,10.4865-.2341,21.2223-5.1964,30.5009C52.5738,205.9823,59.8,203.0592,59.8,203.0592Z" fill="#feadae"/><path d="M65.402,176.1218s-2.2683-5.5927-2.5693-6.4081c-1.6255-4.4024-5.082-7.3552-5.9362-6.3213-2.22,2.6876,3.1973,7.6563,3.1973,7.6563A27.4055,27.4055,0,0,1,65.402,176.1218Z" fill="#fbd6d2"/><path d="M53.265,200.8188c1.6425-1.7913,2.59-4.0905,3.7088-6.2481a4.4423,4.4423,0,0,1,1.5992-1.9645,3.1766,3.1766,0,0,1,3.1867.3014,9.356,9.356,0,0,1,2.2939,2.4338,6.5242,6.5242,0,0,1,.7165,1.9023,2.1438,2.1438,0,0,1-.1988.9553c-2.6185,6.8427-8.4886,11.6078-15.3624,14.1439a7.4672,7.4672,0,0,1-2.75.5821,4.45,4.45,0,0,1-3.8676-2.6014,4.2982,4.2982,0,0,1,.1418-3.7671c.72-1.1174,1.7874-1.1419,3.0267-1.535A16.6954,16.6954,0,0,0,53.265,200.8188Z" fill="#f4cf7a"/><path d="M83.8757,191.9605a12.03,12.03,0,0,0,1.168,5.5323,12.3627,12.3627,0,0,0,.6267-4.0087Z" fill="#fbd6d2"/><path d="M42.9339,185.9093c.2964,3.5517,7.8586,14.8009,4.5482,19.1468-3.4279,4.5-5.1966-4.6891-12.2344-3.4281-8.4887,1.5209-9.326-23.4918,5.4627-22.937.6126.023,1.0662-1.3873,1.4-.8918C46.1367,183.7827,42.6233,182.1871,42.9339,185.9093Z" fill="#3d4177"/><path d="M41.26,246.9534l9.8857,1.501c10.9225,7.8127-3.2774,65.8735-3.0282,71.0607l-1.4934-.2764c-1.6443-7.0763.2577-14.9483-.4377-20.7968C42.37,266.343,33.9989,258.9644,41.26,246.9534Z" fill="#feadae"/><path d="M35.0934,250.9512l9.4807,2.19c10.1593,9.4306-10.4109,62.92-10.4362,68.8421l-.6184.2727c-1.2267-8.1417,2.4054-24.7285,1.98-31.4194C33.1129,253.3332,27.4571,264.283,35.0934,250.9512Z" fill="#feadae"/><path d="M52.81,241.2723s17.7831,31.9427,3.1211,32.5321c-21.4684.8629-33.0608,8.4591-31.7092-5.2882,2.085-21.2066,3.2053-18.9325,5.4317-23.2224,1.9724-3.8,5.9252-11.39,7.6545-7.1758C40.0463,244.79,52.81,241.2723,52.81,241.2723Z" fill="#50549e"/><path d="M45.5781,205.2118a10.913,10.913,0,0,1,7.6929,9.8538c.4565,7.91-5.3827,8.259-1.3421,20.7856,1.3664,4.2362,3.0213,6.0418,2.1443,8.6658-1.3611,4.0715-20.7979,9.0009-24.2373,3.37-2.5063-4.1036,2.1447-2.7648,3.765-12.9452s-10.627-22.5621-2.4181-26.5665C37.4938,205.2964,43.9867,211.1509,45.5781,205.2118Z" fill="#fbdb8a"/><path d="M41.1991,197.7348s3.2415,7.5535,4.67,8.266c.7528.3754,7.98,7.2263.9387,8.2224-10.0663,1.4242-9.9323-4.9574-11.1018-5.785-2.4719-1.7493.2227-3.3058,1.179-9.7541C37.248,196.2386,41.1991,197.7348,41.1991,197.7348Z" fill="#feadae"/><path d="M36.0143,198.8677c1.7092-.2776,4.9387.5982,6.67.6671a2.4768,2.4768,0,0,0,1.6233-.2737,2.5091,2.5091,0,0,0,.6126-2.1645c-.225-5.1774-2.2964-15.2347-3.4906-14.3969a8.3654,8.3654,0,0,0-4.1509.4494,7.7934,7.7934,0,0,0-2.5138,1.1941,10.4745,10.4745,0,0,0-2.0523,2.2517c-1.3752,1.8793-2.68,4.09-2.4092,6.454a10.0392,10.0392,0,0,0,.7225,2.4955,14.1509,14.1509,0,0,0,1.6065,3.2c.7.9626.1109-.39,1.2343-.1192.3976.0958.8087.124,1.2.2446C35.4207,198.9784,35.7518,199.134,36.0143,198.8677Z" fill="#feadae"/><path d="M36.4725,189.59a3.18,3.18,0,0,1-.5593-2.1222c.7505-4.0461,10.8842-2.5954,7.5372-8.1485-4.4381-7.3629-23.3351-1.2453-19.9245,15.1506,2.32,11.1513,3.7088,12.4056,15.2786,15.1a2.4716,2.4716,0,0,0,2.0893-.6128,3.0789,3.0789,0,0,0,.8352-2.317C41.7551,204.87,36.734,190.079,36.4725,189.59Z" fill="#3d4177"/><path d="M47.1881,319.1061c.2062.1895.4376.3523.6265.559.2262.2477.384.55.5965.81a4.6153,4.6153,0,0,0,3.3226,1.2635,2.5062,2.5062,0,0,1,1.13.2654.8229.8229,0,0,1,.3851.9964,1.1212,1.1212,0,0,1-.8231.4856,7.7485,7.7485,0,0,1-1.9945.1669c-.6255-.0289-1.5268-.0538-1.9344-.5293a12.62,12.62,0,0,0-.94-1.3172c-.4747.0225-.0208.8562-.0867,1.2934-.0709.47-.0041.58-.68.5986-.475.0134-.5492-.88-.6243-1.35-.3442-2.1475-1.0108-2.6445-.4371-3.5754C46.2835,317.873,46.7189,318.6748,47.1881,319.1061Z" fill="#473e73"/><path d="M49.2633,319.9479c7.3536,3.8687-1.6821,3.3638-2.6395-.7091-.3317-1.4111-.2344-1.8545.551-1.6414C48.2914,317.9,47.2527,318.89,49.2633,319.9479Z" fill="#feadae"/><path d="M33.6946,318.0959c-.0928.279.2269.5446.2974.83.0844.3421.0781.7.1439,1.0464a4.847,4.847,0,0,0,2.4311,2.833,2.6341,2.6341,0,0,1,.91.8121.8643.8643,0,0,1-.1449,1.1125,1.1775,1.1775,0,0,1-1.003.0348,8.1387,8.1387,0,0,1-1.9236-.8469c-.5626-.34-1.3815-.8159-1.5188-1.459a13.2678,13.2678,0,0,0-.2064-1.687c-.4493-.2174-.6156.7877-.8958,1.1579-.3013.3979-.1279.5243-.7611.2027-.4449-.2261-.0648-1.0879.1014-1.5585.76-2.1537.4667-1.151.76-2.1537a1.4342,1.4342,0,0,1,1.3138-1.0437C33.5809,317.38,33.8535,317.6183,33.6946,318.0959Z" fill="#473e73"/><path d="M35.3487,319.9721c2.3494,7.0242-3.4279-.4727-2.1624-2.1443.5833-.7706.7434-.627,1.4688-.7483C35.8536,316.8791,34.8049,318.3463,35.3487,319.9721Z" fill="#feadae"/><path d="M44.1327,172.1453l55.41,49.6815a6.2345,6.2345,0,0,0,8.7818-.3822l16.3-18.1792a6.2347,6.2347,0,0,0-.5746-8.7714L68.64,144.8125a6.2346,6.2346,0,0,0-8.7819.3822l-16.3,18.1792A6.2346,6.2346,0,0,0,44.1327,172.1453Z" fill="#e2e2e2"/><path d="M44.3965,219.8166c3.8463,3.0042,26.2873-4.7316,28.7956-17.5044,1.2874-6.5749-2.9-.8482-2.9-.8482-7.2852,7.8334-17.3753,12.1874-27.8067,13.5683C37.8073,215.6514,44.3965,219.8166,44.3965,219.8166Z" fill="#feadae"/><path d="M69.545,208.6561s3.22-5.1045,3.7066-5.8245c2.6281-3.8882,3.0107-8.418,1.6727-8.5089-3.4783-.2361-4.3545,7.0625-4.3545,7.0625A27.4017,27.4017,0,0,1,69.545,208.6561Z" fill="#feadae"/><path d="M42.4048,213.2015c2.4131.2894,4.8334-.282,7.2384-.6315a4.4423,4.4423,0,0,1,2.5285.1534,3.1766,3.1766,0,0,1,1.6138,2.7643,9.3569,9.3569,0,0,1-.6391,3.2828,6.527,6.527,0,0,1-1.1274,1.6917,2.1442,2.1442,0,0,1-.892.3957c-7.0855,1.864-14.38-.1252-20.449-4.23a7.47,7.47,0,0,1-2.0766-1.894,4.45,4.45,0,0,1-.1426-4.6589,4.2976,4.2976,0,0,1,3.1428-2.082c1.3274-.0673,1.97.7859,3.0122,1.5632A16.6954,16.6954,0,0,0,42.4048,213.2015Z" fill="#f4cf7a"/><path d="M70.204,195.394a12.0311,12.0311,0,0,0,1.1679,5.5323,12.363,12.363,0,0,0,.6268-4.0087Z" fill="#feadae"/><path d="M188.1871,227.8061a17.5368,17.5368,0,0,0,1.7193,2.6105c2.4677,3.0113,2.5114-1.1892.1517-4.1141Z" fill="#feadae"/><path d="M67.14,79.8048h69.5086a5.8686,5.8686,0,0,1,5.8686,5.8686v23.31a5.8686,5.8686,0,0,1-5.8686,5.8686H67.14a5.8685,5.8685,0,0,1-5.8685-5.8685v-23.31A5.8686,5.8686,0,0,1,67.14,79.8048Z" transform="translate(-7.0388 7.9481) rotate(-4.318)" fill="#e2e2e2"/><line x1="95.09" y1="87.7825" x2="119.32" y2="86.3586" fill="#eaf1fa"/><line x1="96.3685" y1="96.4778" x2="135.5437" y2="94.1754" fill="#738ec8"/><line x1="97.4622" y1="104.8844" x2="136.6376" y2="102.582" fill="#738ec8"/><path d="M87.6545,191.8824l1.6135-.528a6.866,6.866,0,1,0,13.2948-3.175,4.4876,4.4876,0,0,1,2.6426,5.0627l-2.5444,12.0953a4.5005,4.5005,0,0,1-7.4086,2.4243L86.05,199.5106A4.5,4.5,0,0,1,87.6545,191.8824Z" fill="#edeef4"/><path d="M101.7471,194.2666a6.8655,6.8655,0,0,1-12.4791-2.9122l10.1336-3.3162a4.4267,4.4267,0,0,1,3.1612.1411A6.855,6.855,0,0,1,101.7471,194.2666Z" fill="#edeef4"/><path d="M66.7,164.0694l19.9878,17.9211a2.136,2.136,0,0,0,3.0074-.164l.0122-.0135a2.1361,2.1361,0,0,0-.164-3.0074L69.5551,160.8845a2.1359,2.1359,0,0,0-3.0074.1639l-.0122.0135A2.1361,2.1361,0,0,0,66.7,164.0694Z" fill="#edeef4"/><path d="M62.1347,168.73l10.8969,9.77a2.145,2.145,0,0,0,3.02-.1646h0a2.1451,2.1451,0,0,0-.1646-3.02l-10.898-9.7713a2.1441,2.1441,0,0,0-3.02.1651l0,0A2.1459,2.1459,0,0,0,62.1347,168.73Z" fill="#edeef4"/><circle cx="79.6884" cy="99.1596" r="9.0136" transform="translate(-41.142 138.9453) rotate(-69.4385)" fill="#edeef4"/><path d="M94.3713,89.6991a2.0472,2.0472,0,0,1,.5982-3.9609l24.23-1.4239a2.0472,2.0472,0,1,1,.24,4.0874l-24.23,1.4238A2.0451,2.0451,0,0,1,94.3713,89.6991Z" fill="#edeef4"/><path d="M96.3665,98.4487A1.9711,1.9711,0,0,1,96.253,94.51l39.1749-2.3022a1.9711,1.9711,0,0,1,.231,3.9355L96.484,98.4453C96.4445,98.4477,96.406,98.4487,96.3665,98.4487Z" fill="#edeef4"/><path d="M97.46,106.8553a1.9711,1.9711,0,0,1-.1136-3.9389l39.1758-2.3022a1.9711,1.9711,0,0,1,.231,3.9355l-39.1758,2.3022C97.5378,106.8543,97.4993,106.8553,97.46,106.8553Z" fill="#edeef4"/><path d="M189.3333,221.8929l-.69-2.3732-.62-2.3988-1.2194-4.7882c-.7108-3.2269-1.4809-6.415-2.074-9.6565q-1.9061-9.6738-3.0449-19.4311-.5636-4.87-.9456-9.7275c-.111-1.6171-.234-3.2323-.3084-4.8347-.0478-.8049-.0791-1.6-.1069-2.3906l-.0367-1.1738c-.0081-.3826-.02-.7889-.0134-1.0872L168.44,165.4151l-2.77.324c.0946.53.1869.9509.2794,1.3954l.285,1.3047c.1917.8605.3865,1.7164.5945,2.5572.3981,1.6958.84,3.3619,1.2712,5.03q1.3352,4.987,2.8482,9.8721,1.4684,4.7605,3.1217,9.4312,1.738,4.9231,3.6627,9.747c1.2073,3.1468,2.5885,6.2209,3.9014,9.302l2.1191,4.5548,1.065,2.266,1.132,2.2317q1.0792,2.2121,2.2369,4.3745l2.7991-.3788C190.4028,225.5934,189.8424,223.752,189.3333,221.8929Z" fill="#50549e"/><path d="M185.4436,222.8642l-1.1319-2.2317-1.0651-2.266-2.119-4.5548c-1.313-3.0812-2.6941-6.1552-3.9015-9.302q-1.9248-4.8221-3.6627-9.747.37,4.4267.888,8.85c.3446,3.2826.87,6.5277,1.3326,9.8061l.8513,4.8795.4354,2.4454.5068,2.426c.3414,1.77.7255,3.5292,1.1336,5.2829l8.9695-1.2137Q186.527,225.0745,185.4436,222.8642Z" fill="none"/><path d="M177.5771,221.311l-.4354-2.4454-.8513-4.8795c-.4628-3.2785-.9881-6.5236-1.3326-9.8062q-.5247-4.4217-.888-8.85-1.649-4.6716-3.1217-9.4312-1.51-4.889-2.8482-9.8721c-.4311-1.6686-.8731-3.3347-1.2712-5.03-.208-.8408-.4029-1.6967-.5945-2.5572l-.285-1.3047c-.0925-.4445-.1847-.8649-.2794-1.3954l2.77-.324-9.6715.2628c.0539.5371.1138.964.1723,1.4152l.1848,1.3253c.1256.8745.2547,1.7446.3981,2.601.2678,1.7249.5815,3.4245.8842,5.1254q.9515,5.0878,2.088,10.09,2.2622,10.0106,5.3035,19.7131c.9641,3.243,2.107,6.429,3.1814,9.616l1.7657,4.7271.8892,2.3526.9586,2.3246c.5877,1.49,1.206,2.9641,1.8428,4.4278l2.78-.3762c-.4081-1.7537-.7922-3.5129-1.1336-5.283Z" fill="#424989"/><path d="M177.0387,120.088a19.9605,19.9605,0,0,0-2.5823,7.3173c-.4134,2.4649,6.4574,2.2759,6.4574,2.2759s-11.0569,5.3656-15.2978,1.3038-.5113-6.4225-.5113-6.4225.9688.8375,3.9159-.0882c1.9847-.6236.2181-6.5245.2181-6.5245Z" fill="#feadae"/><path d="M174.4564,127.0863s6.32,1.8428,6.7983,3.3626-7.9265,13.4547.5489,36.6174c0,2.8686-22.574,2.4178-23.63-1.5341-3.6854-13.7961-3.64-40.98,3.7348-41.6038a8.2078,8.2078,0,0,1,3.9422.8743,3.9363,3.9363,0,0,0,1.9115,4.451C170.51,130.7735,174.4564,127.0863,174.4564,127.0863Z" fill="#fbdb8a"/><path d="M172.9813,105.0121s-1.58,3.17-3.3615,6.7373c-.8862,1.4852-2.9623,6.4709-2.7848,7.6785.1951,1.3276,7.1752,4.8814,11.6553,0,3.5622-3.8813,5.4411-6.2273,3.9813-8.9478S175.5466,101.8718,172.9813,105.0121Z" fill="#feadae"/><path d="M188.0765,106.1429c-.3144-.9377-.5037-1.9-.8727-2.8263-1.1313-2.8391-2.8046-3.3374-3.949-2.9071,1.9031-5.2314-16.907-6.1571-11.9471,3.843.8926,1.8,1.884,1.3846,4.8154,3.116,4.25,1.991,2.8792,1.1682,2.4893,3.1779-.4173,2.151-1.7481,1.7917-.222,2.5215s2.1192-3.736,3.2186-.6625c.2441.6828-1.1938,1.7818-2.18,2.4387a2.8253,2.8253,0,0,0-1.1527,1.5388c-.262.8768-.7229,2.32-1.4452,4.2716-1.2607,3.4062,6.6392-1.1028,9.4887-2.4108C193.2681,115.0541,188.3668,107.0086,188.0765,106.1429Z" fill="#3d4177"/><path d="M176.22,227.8061s.2983,4.7152,2.4031,4.6393.4714-4.0231.4714-4.0231Z" fill="#feadae"/><path d="M179.6806,229.4732h-4.6082a.9856.9856,0,1,1,0-1.9711h4.6082a.9856.9856,0,0,1,0,1.9711Z" fill="#473e73"/><path d="M187.7421,229.2638a.9857.9857,0,0,1-.2012-1.95l3.8421-.8046a.9858.9858,0,0,1,.4042,1.93l-3.8421.8046A1.0171,1.0171,0,0,1,187.7421,229.2638Z" fill="#473e73"/><path d="M176.4827,230.2853l-3.5148,1.114a.4942.4942,0,0,0-.2425.1727h0a.5391.5391,0,0,0,.3822.8743h7.0192a.516.516,0,0,0,.4953-.5343v-1.114a.516.516,0,0,0-.4953-.5344h-3.5044A.4605.4605,0,0,0,176.4827,230.2853Z" fill="#473e73"/><path d="M189.0643,229.8728l-1.82,1.1139a.4946.4946,0,0,0-.2425.1728h0a.5391.5391,0,0,0,.3822.8742h5.3248a.5159.5159,0,0,0,.4953-.5343l-.3674-1.114a.5159.5159,0,0,0-.4952-.5343h-3.1372A.458.458,0,0,0,189.0643,229.8728Z" fill="#473e73"/><path d="M148.8522,105.1281s-4.0186.9142-4.0841,2.5884c-.041,1.0475,1.2384,6.7242,4.42,11.263,2.5176,3.5919,9.5809,7.371,9.5809,7.371s1.7534-2.4483-6.2965-15.7444C149.1554,105.1281,148.8522,105.1281,148.8522,105.1281Z" fill="#feadae"/><path d="M145.4437,109.2172s-4.34-5.1359-3.6429-19.3882c.92-2.8224,1.23,0,1.23,0s6.8586,14.3356,6.5969,16.482S145.4437,109.2172,145.4437,109.2172Z" fill="#feadae"/><path d="M142.2376,91.6192A7.2878,7.2878,0,0,1,141.3,88.715c.1243-2.1727.0508-4.8383.0508-4.8383,2.9449-.4832,1.671,5.42,1.671,5.42Z" fill="#feadae"/><path d="M186.5533,156.4s5.3263-.4065,5.8578-2.0419c.3325-1.0233.37-6.739-2.1353-11.5539-1.983-3.8106-10.2-9.89-10.2-9.89s-1.7818,3.7729,4.0673,17.7339Z" fill="#feadae"/><path d="M192.4773,154.3067s-1.598,9.0358-14.752,16.8348c-3.093.8873-.79-1.4078-.79-1.4078s8.1484-13.5451,10.2273-14.5881A12.5255,12.5255,0,0,1,192.4773,154.3067Z" fill="#feadae"/><path d="M179.9925,129.7755c3.9016-.0534,9.418,5.8442,11.5036,13.48-5.6862,1.9048-6.9444,2.4647-8.4689,3.026-1.3165.4845-3.6859-3.5638-4.7951-7.0576C176.9225,135.0995,176.9491,129.8172,179.9925,129.7755Z" fill="#fbdb8a"/><path d="M162.369,123.91s-1.0352-3.4031-6.3592-8.9319c-1.0576-2.146-10.5924,5.7042-8.7174,7.0325s9.4378,10.494,9.4378,10.494l.95-1.8467a29.9748,29.9748,0,0,1,3.6586-5.5156Z" fill="#fbdb8a"/><line x1="152.0537" y1="172.1462" x2="146.9597" y2="307.3259" fill="#1d2d60" stroke="#e2e2e2" stroke-miterlimit="10" stroke-width="1.4173"/><line x1="194.1917" y1="172.1462" x2="199.2856" y2="307.3259" fill="#1d2d60" stroke="#e2e2e2" stroke-miterlimit="10" stroke-width="1.4173"/><rect x="154.8072" y="191.2694" width="42.29" height="0.7516" fill="#e2e2e2"/><rect x="156.0251" y="201.5289" width="42.1789" height="0.7514" fill="#e2e2e2"/><rect x="157.4657" y="211.7883" width="42.5766" height="0.7514" fill="#e2e2e2"/><rect x="159.154" y="222.0478" width="42.1381" height="0.7514" fill="#e2e2e2"/><rect x="160.3322" y="232.3071" width="42.4085" height="0.7515" fill="#e2e2e2"/><rect x="162.052" y="242.5666" width="42.138" height="0.7515" fill="#e2e2e2"/><rect x="163.5007" y="252.8259" width="42.138" height="0.7515" fill="#e2e2e2"/><rect x="164.9497" y="263.0854" width="42.1377" height="0.7515" fill="#e2e2e2"/><rect x="166.3986" y="273.3448" width="42.1381" height="0.7515" fill="#e2e2e2"/><rect x="167.7086" y="283.6042" width="42.2768" height="0.7515" fill="#e2e2e2"/><rect x="169.2116" y="293.8636" width="42.5292" height="0.7514" fill="#e2e2e2"/><line x1="152.0537" y1="172.1462" x2="170.1137" y2="300.0278" fill="#1d2d60" stroke="#e2e2e2" stroke-miterlimit="10" stroke-width="1.4173"/><line x1="194.1917" y1="172.1462" x2="212.2518" y2="300.0278" fill="#1d2d60" stroke="#e2e2e2" stroke-miterlimit="10" stroke-width="1.4173"/><rect x="152.0537" y="174.4006" width="42.138" height="3.7574" fill="#e2e2e2"/><rect x="152.0537" y="172.1462" width="42.138" height="2.2544" fill="#f1f3f7"/><path d="M181.9346,165.7865s-1.2745,2.14-2.2025,4.0271c-.5667,1.1526-1.0142,1.4747-2.5924,2.5225-1.8224,1.21-2.7078.2381-2.9428-.0241-1.8339-2.0472,4.4356-3.7615,4.4356-3.7615Z" fill="#feadae"/><path d="M238.56,179.3513a16.4061,16.4061,0,0,1,9.1443-3.5715c1.0768-1.1881,2.13-2.3957,3.1356-3.64,2.0666-2.5566,2.87-5.7483.9692-8.572a9.9532,9.9532,0,0,0-8.2281-4.11c-2.9313.0282-7.5361,1.3081-6.856,4.6477-3.2576,2.9674-4.5316,6.0508-4.0052,10.294a5.9559,5.9559,0,0,0,1.8309,3.9558,5.1642,5.1642,0,0,0,3.6178,1.0381C238.3,179.385,238.43,179.3678,238.56,179.3513Z" fill="#3d4177"/><path d="M209.6854,288.0348c-.1864,1.9066,14.8782,4.6259,33.6477,6.0739s34.1365,1.0762,34.3229-.83-14.8782-4.6259-33.6478-6.0739S209.8718,286.1282,209.6854,288.0348Z" fill="url(#radial-gradient)" style="mix-blend-mode:multiply"/><polygon points="233.091 186.916 225.572 193.344 229.669 195.476 237.108 189.648 233.091 186.916" fill="#feadae"/><path d="M231.7795,193.8228c-.3165-.2585-3.6847-2.55-3.656-3.0768.9728-.1779,4.66-4.5305,4.99-5.0455.2468-.3851.9768-.2181.8929-.8524.6054-.26.8735-.8768,1.2558-1.3432a8.2062,8.2062,0,0,1,1.941-1.5553,4.8265,4.8265,0,0,1,3.79-.7447c1.1943.25,2.104.5668,2.58,1.63.5849,1.3079-.5637,2.6879-1.5569,3.8465a15.3,15.3,0,0,1-1.5853,1.5656c-.4271.3769-.4636.4654-.4564.964-.2113.12-.5325.0893-.7181.213-.2946.1964-.1827.4964-.584.5788C238.6474,190.2856,232.1882,193.9277,231.7795,193.8228Z" fill="#f4cf7a"/><path d="M232.0249,212.7119c7.6292,3.1214,14.6222,1.06,17.6215,4.9908,1.9263,2.5245.4226,7.6532.5241,9.108.5327,7.6358-2.3154,12.1752-5.1313,21.7389a15.1371,15.1371,0,0,1,6.9822,10.7252,38.3273,38.3273,0,0,0,1.2613,5.8384c.9654,3.4592,2.2486,7.208,3.0788,9.4925a6.5523,6.5523,0,0,1-3.3186.7634,62.0634,62.0634,0,0,0-4.4425-8.9137c-2.8252-4.8916-5.9628-9.798-7.7354-14.5982-3.8695-4.2455-7.0836-18.59-7.714-23.9956C232.6615,223.6657,232.4035,217.8431,232.0249,212.7119Z" fill="#424989"/><path d="M253.17,275.7651c.0043.0153.0056.03.01.045A.0822.0822,0,0,1,253.17,275.7651Z" fill="url(#linear-gradient)"/><polygon points="258.583 277.396 260.387 284.322 260.003 284.432 257.742 279.212 258.583 277.396" fill="#473e73"/><path d="M253.0253,280.6737c.1438-1.8959.5889-3.254.1546-4.8636.0446.0883.2917.2468,1.6231-.1094,1.7121-.4581,1.6389-.8733,1.6389-.8733a1.4517,1.4517,0,0,0,.7452.6894c-1.0213,3.1.5025,6.2244-1.013,9.44-.6048,1.4162-1.7083.988-3.108.7259a6.1975,6.1975,0,0,1,.1568-.6766C253.7317,283.4141,252.9021,282.2983,253.0253,280.6737Z" fill="#feadae"/><path d="M256.1741,284.9569c1.5155-3.2158-.0083-6.34,1.013-9.44.5687.2453,1.1951.2035,1.5059.997.4292,1.0956-.3346,1.8027-.9509,2.6984-1.1021,1.6018-.4714,3.3033-.4859,5.0025-.01,1.21-.4126,1.5765-1.4425,2.3225-.939.68-1.5319.6473-2.9981,1.0263-1.2879.3329-1.94-.41-.6776-1.1656.7339-.4393.872-.5225.9281-.7151C254.4659,285.945,255.5693,286.3731,256.1741,284.9569Z" fill="#473e73"/><path d="M238.7362,211.792c3.7344.36,7.5607-.4984,11.2207-1.5733.1044.6366,6.3,6.3414,1.1795,16.4818-3.5278,9.1862-7.8841,17.7351-9.7854,25.1731,2.7911,3.6609,2.9277,9.0079,1.7451,12.2918a38.4682,38.4682,0,0,0-1.39,5.8152c-.6228,3.5207-1.0792,7.418-1.313,9.8095a6.6432,6.6432,0,0,1-3.3919-.4411,58.2263,58.2263,0,0,0-.1967-9.7465c-.4648-5.4822-1.2112-11.0858-.7459-16.1207-1.71-5.2469.2028-28.1379.16-32.0179-.0461-4.2181-1.9351-1.65-3.5665-5.59a15.1146,15.1146,0,0,1-.5355-5.8757A16.3262,16.3262,0,0,0,238.7362,211.792Z" fill="#50549e"/><path d="M236.9451,279.7579c-.0028.0156-.0078.0294-.0107.0449A.0833.0833,0,0,1,236.9451,279.7579Z" fill="url(#linear-gradient-2)"/><polygon points="241.221 283.128 239.854 290.132 239.452 290.101 239.651 284.511 241.221 283.128" fill="#473e73"/><path d="M234.6655,284.2313c.9614-1.6975,1.9653-2.7955,2.2688-4.4285.0025.0967.1609.328,1.5436.459,1.778.1684,1.8921-.24,1.8921-.24a1.2807,1.2807,0,0,0,.3853.8923c-2.2966,2.5048-2.2583,5.9092-5.0608,8.35-1.1765,1.0964-2.0062.3213-3.1814-.4031a6.88,6.88,0,0,1,.44-.5694C234.1184,287,233.8417,285.6859,234.6655,284.2313Z" fill="#feadae"/><path d="M235.6946,289.2645c2.8025-2.4406,2.7642-5.845,5.0608-8.35.4168.4222,1.0123.6.9518,1.4382-.0835,1.1576-1.0965,1.5458-2.056,2.1586-1.7159,1.0959-1.8786,2.8814-2.6348,4.4423-.5384,1.1114-1.07,1.31-2.3447,1.6427-1.1626.3029-1.6947.0681-3.2115-.0884-1.3323-.1375-1.6081-1.0471-.1148-1.3079.8684-.1516,1.0319-.1807,1.1679-.3388C233.6884,289.5858,234.5181,290.361,235.6946,289.2645Z" fill="#473e73"/><path d="M249.1579,180.4384a8.9144,8.9144,0,0,0-3.4876-1.1221,3.8855,3.8855,0,0,0-2.9422.7449,2.236,2.236,0,0,0-.9588.1708c-3.063,3.5379-4.3521,8.0246-5.96,12.1717C240.1653,188.162,244.3211,183.908,249.1579,180.4384Z" fill="#f4cf7a"/><path d="M249.1579,180.4384c-4.8368,3.47-8.9926,7.7236-13.3484,11.9652,1.6077-4.1471,2.8967-8.6338,5.96-12.1717-2.8711,1.0958-7.0786,7.1737-9.7026,10.3523-3.1656,3.8345,2.6237,5.8846,2.6237,5.8846l-2.71,14.522a25.3109,25.3109,0,0,0,8.7188,1.4884c3.2635.1185,7.4516-.6944,9.2578-2.26-1.23-2.9274-3.948-8.2936-3.7971-9.3l6.9418-9.8735c.9815-2.2754-.2658-5.4611-1.4324-7.6664A7.1453,7.1453,0,0,0,249.1579,180.4384Z" fill="#fbdb8a"/><polygon points="246.665 174.206 246.909 179.624 237.693 189.24 241.371 181.136 241.103 176.95 246.665 174.206" fill="#feadae"/><path d="M238.1205,166.53c1.837-.4536,4.16-.7046,5.6226.4828,1.1206.91.7789,5.9985,2.7923,4.9007.0495-.027.0373-.0888.0405-.13l.0425.0007.04-.767a1.1938,1.1938,0,0,1,1.275-1.0544l.028.0006a1.1791,1.1791,0,0,1,1.2063,1.1011l-.0021.8456a1.23,1.23,0,0,1-1.2975,1.1108.7633.7633,0,0,0-.7724.7164l-.0011.4685c-.0039,1.62-8.3212,5.0132-9,3.3175a38.3264,38.3264,0,0,1-1.1855-7.8869,14.4428,14.4428,0,0,1,.3268-2.823C237.5234,166.7058,237.82,166.6142,238.1205,166.53Z" fill="#feadae"/><path d="M244.9641,195.8127,228.993,192.51c-2.6777-.8115-4.8585,1.4479-3.4809,3.3485a2.6807,2.6807,0,0,0,2.0891,1.0016c8.8861.301,16.6638.8618,16.6638.8618Z" fill="#feadae"/><path d="M247.6586,198.0931c.3717.3817.7541.85.6369,1.3438a1.194,1.194,0,0,1-.6994.74,4.1524,4.1524,0,0,1-1.0751.2772c-.67.11-2.8739-1.4866-2.2561-2.7323.1886-.38.2341-1.8621.6991-1.9088A28.49,28.49,0,0,1,247.6586,198.0931Z" fill="#feadae"/><path d="M247.3758,198.3116c.8412-.0086,2.7359,3.8714,2.2664,3.8036-.4217.0921-1.1832-1.5008-1.3617-1.7291C247.7985,199.7691,246.749,199.3,247.3758,198.3116Z" fill="#feadae"/><path d="M247.2846,198.3305c.7648.3113.8681,2.471.4737,3.0916a1.4285,1.4285,0,0,1-1.5341.2827c.0757-.39.5856-.25.8352-.4574.2168-.18.0973-.4237.0458-.6979C246.966,199.8087,246.2423,198.9869,247.2846,198.3305Z" fill="#feadae"/><path d="M245.8317,197.88c.8275.1343,1.5268,2.2049,1.3168,2.8926a1.3668,1.3668,0,0,1-1.4084.61c-.0349-.3947.4982-.37.6825-.6261.16-.2223-.0233-.4319-.1492-.6863C245.933,199.3826,245.0036,198.7445,245.8317,197.88Z" fill="#feadae"/><path d="M245.4519,198.376c.6015.137.9958,1.6938.801,2.1906a1.0247,1.0247,0,0,1-1.0726.3842c-.0027-.2923.3885-.25.5391-.43.1308-.1563.0081-.3191-.07-.5122C245.4389,199.487,244.7917,198.9743,245.4519,198.376Z" fill="#feadae"/><path d="M264.99,201.0653l-11.9769,11.4865,1.7583,1.2525,16.713-10.5245a1.05,1.05,0,0,0,.4936-1.4905l-15.6407-14.747-4.9121,3.9609Z" fill="#feadae"/><path d="M249.6363,212.834a1.9615,1.9615,0,0,0-1.4486.6776,1.03,1.03,0,0,0,.0118.9634,3.3688,3.3688,0,0,0,.631.8182c.4379.4613,5.5292-.1813,5.9408-1.4888.1257-.3992-.3227-.5261-.6479-.8235C253.1032,212.0475,251.0911,212.6122,249.6363,212.834Z" fill="#feadae"/><path d="M248.6008,213.1526c-.8278.1218-1.5638,2.1763-1.3671,2.8653a1.3579,1.3579,0,0,0,1.3931.6287c.0422-.3932-.49-.3766-.6689-.6344-.1555-.224.0312-.43.1616-.6823C248.4717,214.6494,249.41,214.0267,248.6008,213.1526Z" fill="#feadae"/><path d="M249.6594,213.38c-.8278.1218-1.5638,2.1763-1.3671,2.8653a1.3579,1.3579,0,0,0,1.3931.6287c.0422-.3931-.49-.3765-.669-.6345-.1554-.2239.0312-.43.1616-.6822C249.53,214.8766,250.469,214.2539,249.6594,213.38Z" fill="#feadae"/><path d="M250.4775,213.5787c-.8278.1218-1.5637,2.1763-1.3671,2.8653a1.3578,1.3578,0,0,0,1.3931.6287c.0422-.3932-.49-.3766-.6689-.6344-.1555-.224.0312-.43.1616-.6823C250.3485,215.0754,251.2872,214.4527,250.4775,213.5787Z" fill="#feadae"/><path d="M250.9489,214.1371c-.6111.09-1.1544,1.6065-1.0092,2.1151a1.0024,1.0024,0,0,0,1.0284.4641c.0311-.29-.3617-.278-.4938-.4683-.1148-.1654.023-.3177.1193-.5036C250.8536,215.2419,251.5466,214.7823,250.9489,214.1371Z" fill="#feadae"/><path d="M263.3595,193.6631c-.3834.2465-4.6194,3.2-5.1935,3.1268.102-.8481-7.5756-5.5255-8.0442-5.8555-.35-.2468.0586-.8552-.6692-.8425-.1021-.5417-.7022-.8282-1.101-1.1983a5.2817,5.2817,0,0,1-1.1253-1.8036,3.2616,3.2616,0,0,1,.34-3.3087,3.9725,3.9725,0,0,1,2.5971-2.053c1.6275-.3782,2.8022.7318,3.78,1.6885a10.54,10.54,0,0,1,1.2461,1.5007c.286.4.3727.44.9269.48.0682.1917-.0648.4634.0152.6336.1268.27.4934.2023.4613.553C256.8973,186.6313,263.6011,193.3235,263.3595,193.6631Z" fill="#f4cf7a"/></g></g></svg>