<svg id="Layer_1" data-name="Layer 1" xmlns="http://www.w3.org/2000/svg" width="40" height="40" viewBox="0 0 40 40"><title>share-your-requirement</title><path d="M23.61,13.6426V5.1018H8.3581V36.2147H24.43a6.07,6.07,0,0,1-.8364-4.27H12.6285a.61.61,0,0,1,0-1.22H23.9258a6.2151,6.2151,0,0,1,3.8653-3.66H12.6285a.61.61,0,0,1,0-1.22H27.88a.61.61,0,0,1,.61.61h0a.5986.5986,0,0,1-.2676.4914,6.1328,6.1328,0,0,1,3.928.3146V13.6426Zm-10.981-2.44h6.1006a.61.61,0,1,1,0,1.22H12.6285a.61.61,0,1,1,0-1.22ZM27.88,22.1834H12.6285a.61.61,0,0,1,0-1.22H27.88a.61.61,0,1,1,.0013,1.22Zm0-4.88H12.6285a.61.61,0,0,1,0-1.22H27.88a.61.61,0,1,1,.0013,1.22Z" fill="none"/><polygon points="29.1 8.51 29.1 2.052 5.308 2.052 5.308 33.164 7.138 33.164 7.138 3.882 24.472 3.882 29.1 8.51" fill="none"/><polygon points="24.83 12.422 31.288 12.422 30.32 11.455 24.83 5.964 24.83 12.422" fill="none"/><path d="M27.88,16.0828H12.6285a.61.61,0,0,0,0,1.22H27.88a.61.61,0,1,0,.0013-1.22Z" fill="#0088cc"/><path d="M12.6285,12.4225h6.1006a.61.61,0,1,0,0-1.22H12.6285a.61.61,0,1,0,0,1.22Z" fill="#0088cc"/><path d="M27.88,20.9633H12.6285a.61.61,0,0,0,0,1.22H27.88a.61.61,0,1,0,.0013-1.22Z" fill="#0088cc"/><path d="M28.49,26.4538a.61.61,0,0,0-.61-.61H12.6285a.61.61,0,0,0,0,1.22H27.7911c.1412-.0458.2859-.0829.4312-.1187A.5986.5986,0,0,0,28.49,26.4538Z" fill="#0088cc"/><path d="M12.6285,30.7242a.61.61,0,0,0,0,1.22H23.5933a6.1563,6.1563,0,0,1,.3325-1.22Z" fill="#0088cc"/><path d="M24.43,36.2147H8.3581V5.1018H23.61v8.5408H32.15V27.26a6.1874,6.1874,0,0,1,1.22.7036V12.78L30.32,9.73V.8314H4.0876V34.3845h3.05v3.05H25.4119A6.2263,6.2263,0,0,1,24.43,36.2147Zm6.858-23.7922H24.83V5.9644l5.49,5.49ZM7.1379,33.1644h-1.83V2.0515H29.1V8.51L24.4721,3.8817H7.1379Z" fill="#0088cc"/><path d="M28.2224,26.9452c-.1453.0358-.29.0729-.4312.1187H27.88A.5948.5948,0,0,0,28.2224,26.9452Z" fill="#2c82c9"/><circle cx="30.1307" cy="32.9637" r="6.2049" fill="none" stroke="#0088cc" stroke-miterlimit="10"/><path d="M30.7625,34.7379a1.0787,1.0787,0,0,0-.1452.1818l-1.8384-1.1159a1.052,1.052,0,0,0,0-.7858l1.8388-1.1074a1.0694,1.0694,0,1,0-.096-.1907L28.68,32.8288a1.064,1.064,0,1,0,0,1.1641l1.841,1.1174a1.063,1.063,0,1,0,.2411-.3725Zm.7523-4.1469a.75.75,0,1,1-.75.75A.75.75,0,0,1,31.5148,30.591Zm-3.7236,3.57a.75.75,0,1,1,.75-.75.75.75,0,0,1-.75.75Zm4.2539,1.86a.75.75,0,1,1,.22-.53.75.75,0,0,1-.22.53Z" fill="#0088cc"/></svg>