<svg id="Layer_1" data-name="Layer 1" xmlns="http://www.w3.org/2000/svg" width="40" height="40" viewBox="0 0 40 40"><title>shop</title><path d="M31.8125,36.5H8.1875a.5008.5008,0,0,1-.5005-.5011l.0005-.0229,1.125-23.625a.5.5,0,0,1,.5-.476h21.375a.5.5,0,0,1,.5.476l1.125,23.625a.5008.5008,0,0,1-.4771.5235Zm-23.101-1h22.576L30.21,12.875H9.7885Z" fill="#0088cc"/><path d="M25.4045,14.875a.5.5,0,0,1-.5-.5V9.405a4.905,4.905,0,1,0-9.81,0v4.97a.5.5,0,0,1-1,0V9.405a5.905,5.905,0,1,1,11.81,0v4.97A.5.5,0,0,1,25.4045,14.875Z" fill="#0088cc"/></svg>