<svg id="Layer_1" data-name="Layer 1" xmlns="http://www.w3.org/2000/svg" width="19" height="19" viewBox="0 0 19 19"><title>skype</title><path d="M17.1741,10.9163A7.9918,7.9918,0,0,0,17.31,9.5287,7.7682,7.7682,0,0,0,9.556,1.7746a7.9917,7.9917,0,0,0-1.3876.1361,4.5388,4.5388,0,0,0-2.2311-.5714,4.6069,4.6069,0,0,0-4.0266,6.829,7.9917,7.9917,0,0,0-.1361,1.3876A7.7682,7.7682,0,0,0,9.5287,17.31a7.9918,7.9918,0,0,0,1.3876-.1361,4.5883,4.5883,0,0,0,2.231.49,4.4712,4.4712,0,0,0,4.5165-4.4254h0v-.091A4.5885,4.5885,0,0,0,17.1741,10.9163ZM13.1474,17.12a4.117,4.117,0,0,1-2.0406-.4626l-.0816-.0544-.1088.0272a7.9918,7.9918,0,0,1-1.3876.1361,7.2224,7.2224,0,0,1-7.21-7.21,7.9917,7.9917,0,0,1,.1361-1.3876L2.482,8.06l-.0544-.0816a4.166,4.166,0,0,1-.5442-2.0406,4.0641,4.0641,0,0,1,4.054-4.054A4.1656,4.1656,0,0,1,7.978,2.428l.082.054.1088-.0272a7.9917,7.9917,0,0,1,1.3876-.1361,7.2224,7.2224,0,0,1,7.21,7.21,7.9918,7.9918,0,0,1-.1361,1.3876l-.0272.1088.0544.0816a4.117,4.117,0,0,1,.4626,2.0406A3.9257,3.9257,0,0,1,13.242,17.12Z" fill="#0088cc"/><path d="M10.1322,8.3576c-1.8-.36-2.0639-.8159-2.0879-.936a.4053.4053,0,0,1,.192-.408,2.33,2.33,0,0,1,1.704-.36,1.09,1.09,0,0,1,.7439.456c.408.792.84,1.416,1.7279,1.2a.9846.9846,0,0,0,.648-.552,1.59,1.59,0,0,0-.048-1.32A3.7087,3.7087,0,0,0,9.7242,4.8057c-1.92,0-4.1278.696-4.1278,2.6639,0,1.56,1.3679,2.6639,3.7438,3,1.2.168,1.5839.552,1.704.768a.5432.5432,0,0,1,.024.432,1.7286,1.7286,0,0,1-1.8479.7919,1.9477,1.9477,0,0,1-1.6079-1.3679,1.1039,1.1039,0,0,0-1.1759-.6719,1.2046,1.2046,0,0,0-.792.504,1.3666,1.3666,0,0,0-.072,1.2479c.264.8159,1.152,2.16,4.1038,2.16,2.4719,0,3.96-1.56,3.9838-3C13.66,9.75,12.58,8.8376,10.1322,8.3576Z" fill="#0088cc" stroke="#fff" stroke-miterlimit="10"/></svg>