<svg id="Layer_1" data-name="Layer 1" xmlns="http://www.w3.org/2000/svg" width="40" height="40" viewBox="0 0 40 40"><title>social-ic</title><path d="M26.7,27.9862a6.5128,6.5128,0,0,0-.8769,1.0979L14.7223,22.3458a6.3524,6.3524,0,0,0,.0006-4.7449L25.8264,10.914a6.4575,6.4575,0,1,0-.58-1.1512L14.1287,16.4587a6.4246,6.4246,0,1,0-.0006,7.0293l11.1163,6.7473A6.4189,6.4189,0,1,0,26.7,27.9862ZM31.2425,2.3353a5.1393,5.1393,0,1,1-5.1393,5.1393h0A5.1453,5.1453,0,0,1,31.2425,2.3353ZM8.7581,25.1126a5.1393,5.1393,0,1,1,5.1393-5.1393A5.1393,5.1393,0,0,1,8.7581,25.1126Zm26.1179,11.05a5.139,5.139,0,1,1,1.5058-3.6341,5.139,5.139,0,0,1-1.5058,3.6341Z" fill="#0088cc"/></svg>