<svg id="Layer_1" data-name="Layer 1" xmlns="http://www.w3.org/2000/svg" width="35" height="35" viewBox="0 0 35 35"><title>spring-brand</title><path d="M30.1912,3.63a14.29,14.29,0,0,1-1.6563,2.937A15.5454,15.5454,0,1,0,6.5558,28.557q.1338.1337.2709.2642l.5746.5072A15.5389,15.5389,0,0,0,32.9133,18.55C33.3369,14.5913,32.1749,9.5839,30.1912,3.63ZM9.0382,28.91a1.3289,1.3289,0,1,1-.1968-1.869h0l.001.0008A1.3289,1.3289,0,0,1,9.0382,28.91ZM30.127,24.2562c-3.8358,5.11-12.027,3.3864-17.2787,3.6338,0,0-.9309.0545-1.8681.2086,0,0,.3531-.1509.8057-.321,3.6881-1.2839,5.4311-1.5311,7.6716-2.6834,4.2178-2.1442,8.3906-6.84,9.2572-11.7224-1.6049,4.696-6.4775,8.734-10.9135,10.3743a74.5157,74.5157,0,0,1-8.5318,2.2116l-.2215-.1188C5.3116,24.0219,5.196,15.93,11.9913,13.32c2.9755-1.1459,5.8227-.5168,9.0358-1.2839,3.4313-.8153,7.4019-3.3864,9.0165-6.7407,1.8072,5.3669,3.9834,13.7671.08,18.9639Z" fill="#ccd0d2"/></svg>