<svg id="Layer_1" data-name="Layer 1" xmlns="http://www.w3.org/2000/svg" width="40" height="40" viewBox="0 0 40 40"><title>strart</title><circle cx="1.7466" cy="38.1426" r="0.7466" fill="#0088cc"/><circle cx="20.8169" cy="19.2065" r="0.7452" fill="#0088cc"/><path d="M30.5748,9.76a3.15,3.15,0,1,0,.0306.0306Zm-1.0537,3.4314a1.6814,1.6814,0,1,1,0-2.3779h0a1.68,1.68,0,0,1,.007,2.3773c-.0013.0013-.0026.0026-.007.0007Z" fill="#0088cc"/><path d="M10.3078,31.5374a.7451.7451,0,0,0-.9991.3349h0l-.8875,1.7824a2.4591,2.4591,0,0,1-2.0259,1.3522l-1.0322.0707a.4416.4416,0,0,1-.4706-.4707l.0707-1.0322a2.46,2.46,0,0,1,1.3522-2.0259l1.7823-.8875a.7451.7451,0,0,0-.6643-1.334l-1.7823.8875a3.955,3.955,0,0,0-2.1748,3.2581L3.4055,34.505a1.9318,1.9318,0,0,0,1.7953,2.0593q.0658.0045.1318.0045t.1321-.0045l1.0322-.0707A3.9546,3.9546,0,0,0,9.755,34.3189l.8875-1.7823a.7451.7451,0,0,0-.3347-.9992Z" fill="#0088cc"/><path d="M38.4859,1.6071a1.7253,1.7253,0,0,0-1.3206-.4927l-.6938.0442A22.4821,22.4821,0,0,0,20.4984,9.3972l-1.6331,2.01-4.2738-.1255H14.57a12.6066,12.6066,0,0,0-8.9728,3.7166L1.22,19.3759a.7451.7451,0,0,0,.4887,1.271l9.2658.476-.3778.4651a.7451.7451,0,0,0-.0761.8258q.2178.4.456.788L8.7788,25.81a.7455.7455,0,0,0-.1037.7988,9.7023,9.7023,0,0,0,4.6582,4.6583.7451.7451,0,0,0,.7882-.0949c.4734-.384,1.0191-.84,1.547-1.28.3762-.3139.7611-.6351,1.1209-.9312q.3221.1938.6528.3745a.7449.7449,0,0,0,.8128-.0658l.5079-.3941.4781,9.3049a.745.745,0,0,0,1.2709.4887l4.3774-4.3774a12.6062,12.6062,0,0,0,3.7166-8.9728V21.2378l1.7269-1.34A22.3929,22.3929,0,0,0,38.98,3.2829l.0177-.3626A1.7265,1.7265,0,0,0,38.4859,1.6071ZM3.4584,19.2447l3.1923-3.1923a11.1265,11.1265,0,0,1,7.9083-3.28l3.1235.0917-5.5449,6.8267Zm11.2554,9.5039c-.389.3245-.7878.6573-1.1578.9617a8.1858,8.1858,0,0,1-3.32-3.3167l1.6088-1.91a17.2749,17.2749,0,0,0,1.5941,1.85l.0013.0013v0l.0007.0006A17.2756,17.2756,0,0,0,15.4924,28.1C15.2361,28.3128,14.9728,28.5324,14.7138,28.7486Zm12.4021-3.4291a11.1258,11.1258,0,0,1-3.28,7.919l-3.1923,3.1923-.4455-8.6682,6.9179-5.3683v2.9251ZM37.4919,3.21a20.9042,20.9042,0,0,1-8.0726,15.51L17.7328,27.7892a15.7782,15.7782,0,0,1-2.6992-1.9925l3.94-3.94A.7452.7452,0,0,0,17.92,20.8029l-3.9363,3.9363a15.776,15.776,0,0,1-1.91-2.6054l9.5821-11.7971a20.9871,20.9871,0,0,1,14.91-7.6908l.6938-.0442a.2349.2349,0,0,1,.25.2459Z" fill="#0088cc"/></svg>