<svg id="Layer_1" data-name="Layer 1" xmlns="http://www.w3.org/2000/svg" width="40" height="40" viewBox="0 0 40 40"><title>texi</title><path d="M20.0541,1.1632h-.1085A15.0135,15.0135,0,0,0,8.7241,26.1512L20,38.8368,31.2759,26.1512A15.0135,15.0135,0,0,0,20.0541,1.1632ZM30.3747,25.3506,20,37.0224,9.6251,25.3506A13.8082,13.8082,0,0,1,19.9456,2.3685h.109a13.8083,13.8083,0,0,1,10.32,22.9821Z" fill="#0088cc"/><path d="M26.3819,14.3242h-.8956l-.3-2.6939a1.2748,1.2748,0,0,0-1.2682-1.1351h-.94V8.7934H17.022v1.7018h-.94a1.2745,1.2745,0,0,0-1.2682,1.1355l-.3,2.6936h-.8956a1.7035,1.7035,0,0,0-1.7018,1.7018v4.2545a.8518.8518,0,0,0,.8509.8509h.4255v.8509a1.278,1.278,0,0,0,1.2764,1.2764H15.32a1.278,1.278,0,0,0,1.2764-1.2764v-.8509H23.404v.8509a1.278,1.278,0,0,0,1.276,1.2765h.8509a1.278,1.278,0,0,0,1.2764-1.2764v-.8509h.4255a.8518.8518,0,0,0,.8509-.8509V16.0261A1.7043,1.7043,0,0,0,26.3819,14.3242Zm-8.5091-4.68h4.2545v.8509H17.8728Zm-2.2142,2.08a.4255.4255,0,0,1,.4229-.3787h7.8368a.4251.4251,0,0,1,.4229.3787l.2889,2.6H15.37ZM15.32,22.4079h-.851a.4259.4259,0,0,1-.4255-.4255v-.8509h1.7018v.8509h0A.4259.4259,0,0,1,15.32,22.4079Zm10.2109,0H24.68a.4259.4259,0,0,1-.4255-.4255v-.8509h1.7018v.8509h0a.4259.4259,0,0,1-.4255.4255Zm1.7018-2.1273H12.7672V19.43H27.2326Zm0-.7018H12.7674V16.026a.8517.8517,0,0,1,.8509-.8509H26.3819a.8518.8518,0,0,1,.8509.8509Z" fill="#0088cc"/><path d="M14.4692,15.6a1.2764,1.2764,0,1,0,1.2764,1.2764h0A1.2779,1.2779,0,0,0,14.4692,15.6Zm0,1.702a.4255.4255,0,1,1,.4255-.4255.4255.4255,0,0,1-.4255.4255Z" fill="#0088cc"/><path d="M25.531,15.6a1.2764,1.2764,0,1,0,1.2764,1.2764h0A1.278,1.278,0,0,0,25.531,15.6Zm0,1.702a.4255.4255,0,1,1,.4255-.4255.4255.4255,0,0,1-.4255.4255Z" fill="#0088cc"/><rect x="17.0219" y="16.8769" width="5.9563" height="0.8509" fill="#0088cc"/></svg>