<svg id="Layer_1" data-name="Layer 1" xmlns="http://www.w3.org/2000/svg" width="40" height="40" viewBox="0 0 40 40"><title>travel</title><path d="M20,6.8035a13.8,13.8,0,1,0,13.8,13.8h0A13.816,13.816,0,0,0,20,6.8035Zm0,26.4a12.6,12.6,0,1,1,12.6-12.6h0a12.6144,12.6144,0,0,1-12.6,12.6Z" fill="#0088cc"/><path d="M25.7914,8.0785a.6068.6068,0,0,0-.1734-.05L25.4794,8.01a.5933.5933,0,0,0-.5556.23.6.6,0,0,0-.0774.5964c.4122.9852.903,2.9766.2754,3.4338l-1.3908.5562a3.1069,3.1069,0,0,0-1.926,2.5278l-.009.069a.3724.3724,0,0,1-.31.32.4254.4254,0,0,1-.4614-.1968l-.5958-.993a1.1453,1.1453,0,0,0-2.02.1,15.1881,15.1881,0,0,0-1.3716,4.1628,2.19,2.19,0,0,0,.2184,1.24l.6918,1.3836a3.0227,3.0227,0,0,0,1.089,1.2,7.8643,7.8643,0,0,1,1.7382,1.4346,3.61,3.61,0,0,0,2.1967,1.2876c-.0336,1.1238.04,2.9712.8052,3.7872a1.3794,1.3794,0,0,0,.9744.4542,2.5877,2.5877,0,0,0,.3384.021,2.9241,2.9241,0,0,0,1.8684-.6624c.9468-.7824,1.4322-2.1588,1.443-4.0915l.8592-3.8676.3264.5436a1.8273,1.8273,0,0,0,2.6628.5214l1.3116-.984a.6.6,0,0,0,.24-.48A13.8492,13.8492,0,0,0,25.7914,8.0785Zm5.7372,13.0291a.6273.6273,0,0,1-.9139-.1794l-.6222-1.0374a.9706.9706,0,0,0-1.78.2893l-.9984,4.4934a.5913.5913,0,0,0-.0144.13,4.1862,4.1862,0,0,1-.9924,3.2208,1.71,1.71,0,0,1-1.2936.39c-.0774-.0144-.1362.048-.2622-.0864-.3738-.399-.5628-1.7916-.46-3.3876a.6937.6937,0,0,0-.6493-.7355q-.0227-.0014-.0455-.0013a2.3589,2.3589,0,0,1-1.7994-.894,8.834,8.834,0,0,0-2.022-1.6848,1.8161,1.8161,0,0,1-.6558-.7218l-.6918-1.3836a.9916.9916,0,0,1-.1-.5616,14.2065,14.2065,0,0,1,1.2234-3.7014l.5442.9066a1.6179,1.6179,0,0,0,1.731.7548,1.5679,1.5679,0,0,0,1.2582-1.3326l.0126-.0948a1.9039,1.9039,0,0,1,1.179-1.551l1.4466-.5784a.6351.6351,0,0,0,.0882-.0438c1.14-.6924.9924-2.35.693-3.5628A12.6559,12.6559,0,0,1,32.596,20.3066Z" fill="#0088cc"/><path d="M17.1711,28.9263l-.3636-.363a4.8571,4.8571,0,0,0-1.5294-1.0356l-1.85-.7932A2.0238,2.0238,0,0,1,12.2,24.872v-.903a1.6851,1.6851,0,0,0-2.277-1.5774l-2.8812,1.08a.6.6,0,0,0-.369.7176,13.8778,13.8778,0,0,0,10.6255,9.9487.6094.6094,0,0,0,.1176.0114.6007.6007,0,0,0,.5772-.435l.22-.7692A4.0952,4.0952,0,0,0,17.1711,28.9263Zm-.1121,3.6888-.0648.2256A12.6829,12.6829,0,0,1,7.9851,24.4l2.3592-.8844A.485.485,0,0,1,11,23.9691v.903a3.2222,3.2222,0,0,0,1.9548,2.9652l1.85.7932a3.6752,3.6752,0,0,1,1.1538.7812l.3636.363A2.8946,2.8946,0,0,1,17.059,32.6151Z" fill="#0088cc"/><path d="M13.71,8.8849a.6.6,0,0,0-.7734-.1368A13.78,13.78,0,0,0,6.22,19.8638a.6.6,0,0,0,.5674.631l.0315.0008a.6127.6127,0,0,0,.2172-.04l3.7218-1.4688a1.8177,1.8177,0,0,0,1.0482-2.26.614.614,0,0,1,.1488-.63l1.7292-1.7292a3.1027,3.1027,0,0,0,.9156-2.21V11.377A3.97,3.97,0,0,0,13.71,8.8849Zm-.31,3.2718a1.91,1.91,0,0,1-.5646,1.3614l-1.7292,1.7292a1.8055,1.8055,0,0,0-.438,1.8576.6159.6159,0,0,1-.3552.7662L7.5038,18.9848A12.5783,12.5783,0,0,1,13.0707,10.08,2.74,2.74,0,0,1,13.4,11.376v.7806Z" fill="#0088cc"/><path d="M20,2.0035a18.29,18.29,0,0,0-1.86.0948.6.6,0,0,0,.0606,1.197.5357.5357,0,0,0,.0618-.0036A17.2565,17.2565,0,0,1,20,3.2035a.6.6,0,1,0,0-1.2Z" fill="#0088cc"/><path d="M3.4364,22.8273A16.99,16.99,0,0,1,3.2,20.0036q0-.3006.0108-.6a.6.6,0,1,0-1.1994-.0413Q2,19.6817,2,20.0036a18.2341,18.2341,0,0,0,.2526,3.024.6.6,0,0,0,.591.5.585.585,0,0,0,.1014-.0084.6.6,0,0,0,.4914-.6917Z" fill="#0088cc"/><path d="M5.9253,29.18a16.7818,16.7818,0,0,1-1.5727-3.048.6.6,0,0,0-1.1172.438A18.0048,18.0048,0,0,0,4.92,29.8359.6.6,0,0,0,5.9253,29.18Z" fill="#0088cc"/><path d="M4.5464,11.9767a.6007.6007,0,0,0-.8.2832,17.8942,17.8942,0,0,0-1.2342,3.4626.6.6,0,0,0,.44.7253.6189.6189,0,0,0,.1428.0168.6014.6014,0,0,0,.5826-.4578,16.7056,16.7056,0,0,1,1.1514-3.23.6.6,0,0,0-.2826-.8Z" fill="#0088cc"/><path d="M9.0153,6.4956a.6.6,0,0,0-.8466-.0576h0A18.1673,18.1673,0,0,0,5.66,9.1231a.6.6,0,0,0,.9414.7441l.0138-.0181A16.91,16.91,0,0,1,8.9577,7.3423a.6.6,0,0,0,.0577-.8466Z" fill="#0088cc"/><path d="M17.0727,36.5506a16.7511,16.7511,0,0,1-3.2982-.9372.6.6,0,1,0-.4559,1.11l.0107.0043a17.9057,17.9057,0,0,0,3.5352,1.0044.6163.6163,0,0,0,.1044.009.6.6,0,0,0,.1038-1.19Z" fill="#0088cc"/><path d="M24.6184,36.7954a.6013.6013,0,0,0-.7224-.4452,16.8379,16.8379,0,0,1-3.4014.447.6.6,0,0,0,.0168,1.1994l.018-.0006a18.0534,18.0534,0,0,0,3.6438-.4782A.6007.6007,0,0,0,24.6184,36.7954Z" fill="#0088cc"/><path d="M15.2919,3.237a.6008.6008,0,0,0-.7536-.39,17.9344,17.9344,0,0,0-3.37,1.4688.6.6,0,1,0,.59,1.0452,16.698,16.698,0,0,1,3.1441-1.37.6.6,0,0,0,.39-.7538Z" fill="#0088cc"/><path d="M10.7361,34.02a16.9055,16.9055,0,0,1-2.6526-2.175.6.6,0,0,0-.8508.8466h0a18.161,18.161,0,0,0,2.841,2.33.6.6,0,1,0,.6624-1.0015h0Z" fill="#0088cc"/><path d="M29.5139,34.5868a.6.6,0,0,0-.824-.2024l0,0a16.8592,16.8592,0,0,1-1.53.8214.6.6,0,1,0,.5124,1.0854h0a17.944,17.944,0,0,0,1.64-.88A.6009.6009,0,0,0,29.5139,34.5868Z" fill="#0088cc"/><path d="M37.8738,28.6353a.6.6,0,0,0-.8418-.1056l-5.4,4.2a.6018.6018,0,0,0-.2316.474v1.8a.6.6,0,1,0,1.2,0V33.4971l5.1679-4.02A.6.6,0,0,0,37.8738,28.6353Z" fill="#0088cc"/><path d="M32.19,32.6343l-1.8-.6a.6.6,0,0,0-.38,1.1382l1.8.6a.6.6,0,0,0,.38-1.1382Z" fill="#0088cc"/><path d="M36.7571,33.58l-1.2-3a.5992.5992,0,0,0-.2484-.2916l-3-1.8a.6.6,0,1,0-.6174,1.029h0l2.8267,1.6962,1.125,2.8128a.6007.6007,0,0,0,.5574.3774.5813.5813,0,0,0,.2226-.0438.6.6,0,0,0,.3341-.78Z" fill="#0088cc"/></svg>