<svg xmlns="http://www.w3.org/2000/svg" xmlns:xlink="http://www.w3.org/1999/xlink" width="170" height="120" viewBox="0 0 170 120"><defs><clipPath id="clip-path"><path id="_Rectangle_" data-name="&lt;Rectangle&gt;" d="M35.9823,18.3048h64.5952a5.3784,5.3784,0,0,1,5.3784,5.3784V68.7944a5.3784,5.3784,0,0,1-5.3784,5.3784H35.9824a5.3784,5.3784,0,0,1-5.3784-5.3784V23.6831A5.3783,5.3783,0,0,1,35.9823,18.3048Z" fill="#e3e3e5"/></clipPath></defs><title>ui-ux</title><g style="isolation:isolate"><g id="Layer_1" data-name="Layer 1"><path d="M51.3854,39.573C78.675,25.49,94.8559-19.2509,139.9167,10.4345c54.566,35.9472,25.51,90.4441-15.2593,102.4972S9.6349,123.2686,1.8338,96.8566C-7.5611,65.0484,33.0786,49.0207,51.3854,39.573Z" fill="#f1f3f7"/><path id="_Rectangle_2" data-name="&lt;Rectangle&gt;" d="M35.9823,18.3048h64.5952a5.3784,5.3784,0,0,1,5.3784,5.3784V68.7944a5.3784,5.3784,0,0,1-5.3784,5.3784H35.9824a5.3784,5.3784,0,0,1-5.3784-5.3784V23.6831A5.3783,5.3783,0,0,1,35.9823,18.3048Z" fill="#e3e3e5"/><g clip-path="url(#clip-path)"><rect x="32.8249" y="20.1993" width="70.91" height="52.3767" rx="4.1732" ry="4.1732" fill="#fff"/></g><path d="M105.3989,18.3178H32.9664A2.3694,2.3694,0,0,0,30.6039,20.68v1.3665h75.352V18.8749A.5587.5587,0,0,0,105.3989,18.3178Z" fill="#e2e2e2"/><circle cx="35.2056" cy="20.2271" r="1.0805" transform="translate(14.8344 55.3495) rotate(-89.7652)" fill="#e7edf2"/><circle cx="38.567" cy="20.2409" r="1.0805" transform="translate(18.1682 58.7246) rotate(-89.7652)" fill="#e7edf2"/><circle cx="41.9284" cy="20.2546" r="1.0805" transform="translate(21.5021 62.0997) rotate(-89.7652)" fill="#e7edf2"/><rect x="36.4688" y="24.7205" width="63.6223" height="15.3208" rx="4.5843" ry="4.5843" fill="#edeef4"/><rect x="36.4688" y="64.8305" width="63.3555" height="1.2589" fill="#edeef4"/><rect x="36.4688" y="67.888" width="63.3555" height="1.2589" fill="#edeef4"/><rect x="52.8903" y="42.7027" width="14.2261" height="9.0256" rx="4.5128" ry="4.5128" fill="#edeef4"/><rect x="36.4085" y="42.7027" width="14.2261" height="9.0256" rx="4.5128" ry="4.5128" fill="#edeef4"/><rect x="85.7332" y="42.7027" width="14.2261" height="9.0256" rx="4.5128" ry="4.5128" fill="#edeef4"/><path d="M54.1644,34.0626c.8519,1.4714.1162,3.4823.9759,4.9492.3441.5871.9271,1.0483,1.0923,1.7085A1.49,1.49,0,0,1,54.09,42.3984a1.8352,1.8352,0,0,0-.3307-.1643c-.4251-.1244-.81.2531-1.1753.5031a1.7941,1.7941,0,0,1-1.5474.2736,2.2954,2.2954,0,0,1-1.2884-1.5469,9.538,9.538,0,0,1,.39-5.729,3.2378,3.2378,0,0,1,1.6151-2.2993" fill="#3d4177"/><path d="M73.9558,49.7172c.0139.2046.3256.3807.1182.8114a3.0724,3.0724,0,0,1-3.6283,1.68c-.075.0267-9.5242,5.4888-10.2522,5.4888s-5.6869-4.6926-7.3091-10.4991c-.387-1.3854-.2365-3.0151,1.0618-3.7161A3.0684,3.0684,0,0,1,55.73,45.07c1.0743,2.0275,4.2912,8.7425,5.0043,8.9961.8884-.5923,5.2158-1.8782,8.72-3.3668a2.3726,2.3726,0,0,0,1.3582-1.1349,11.2914,11.2914,0,0,1,1.4557-2.27c.1876-.192,2.261-1.3027,2.2614-.9381,0,.2113-.6087.77-1.4024,1.273a1.9027,1.9027,0,0,0-.6748.9393c-.1351.267,1.4862-.223,1.6212.3377C74.0964,48.9867,73.9482,49.61,73.9558,49.7172Z" fill="#feadae"/><path d="M53.5678,43.31A4.256,4.256,0,0,1,56.39,45.4989a8.8071,8.8071,0,0,1,.3844.8822c.5032,1.28,1.196,2.4392,1.6992,3.7194A7.5414,7.5414,0,0,1,56.251,51.172a4.7383,4.7383,0,0,1-2.0687.2776,1.049,1.049,0,0,1-.3483-.0767,1.15,1.15,0,0,1-.362-.3111q-.3232-.3707-.629-.7561a2.0793,2.0793,0,0,1-.4223-.7231,2.1925,2.1925,0,0,1,.0993-1.1264" fill="#fbdb8a"/><g opacity="0.35" style="mix-blend-mode:multiply"><path d="M54.804,46.8078a.4347.4347,0,0,0-.1616-.1381.2939.2939,0,0,0-.34.1509.776.776,0,0,0-.0706.3946,5.3735,5.3735,0,0,0,.2413,1.5329l-.161,2.7006.0039.0053a4.7351,4.7351,0,0,0,1.9348-.2821c.2917-.1086.6071-.2209.9245-.3495A9.7761,9.7761,0,0,0,54.804,46.8078Z" fill="#7762ef"/></g><path d="M50.6164,40.6292S50.58,42.32,50.84,42.43a6.6279,6.6279,0,0,0,1.0927.338l.0172,3.4995-4.6651-.7035-3.21-1.7865S47.41,42.6723,47.44,42.34s-.1832-2.204-.1832-2.204" fill="#feadae"/><path d="M43.4486,91.264l-.0027.0127c-1.2762,6.0521-.6684,14.3657-.9527,18.9217.0667.0186,1.7343.2272,1.7343.2272s3.9472-19.2029,4.6638-22.88a5.2226,5.2226,0,0,0,.0913-.7122c.1718-2.767-2.322-2.9081-3.7277-.6207a9.6982,9.6982,0,0,0-.6428,1.235c-.0793.1808-.153.3633-.23.5585l-.0013.0064a17.9263,17.9263,0,0,0-.6191,1.9318l-.0148.07c-.0584.1934-.1058.39-.1531.5866l-.0095.0448C43.5362,90.8485,43.4931,91.053,43.4486,91.264Z" fill="#feadae"/><path d="M50.9223,69.5431c-.0467.5007-.3138,2.8839-.6342,5.6944-.2737,2.3632-.5741,5.0268-.8078,7.1363-.1736,1.5822-.3,2.8439-.3538,3.438a7.6946,7.6946,0,0,1-.14,1.0215v.0133c-.6008,2.7637-2.51,2.924-3.6716,2.2832a2.3316,2.3316,0,0,1-.4406-.3,1.48,1.48,0,0,1-.494-.8145v-.0066c-.0734-.5676-.1469-1.3418-.2136-2.2631v-.0133c-.0067-.0067-.0067-.0067-.0067-.0134l-.0067-.02c-.14-1.7958-.26-4.1057-.3671-6.3554-.1269-2.7638-.207-5.4274-.227-6.9295-.0067-.0868-.0067-.1669-.0133-.247-.02-4.6062,4.2124-7.557,6.8426-6.1283a.6025.6025,0,0,1,.0934.0468.9906.9906,0,0,0,.1.06c.3.2.4005.8878.4072,1.6756C51.0024,68.3948,50.9624,69.0223,50.9223,69.5431Z" fill="#feadae"/><path d="M44.4814,86.9237l-.322-1.2064c-.0013.0064-.0013.0064.0029.0143a19.2538,19.2538,0,0,1-.4,4.2124l-.0148.07c-.046.19-.0947.3931-.1531.5866l-.0095.0448a3.2379,3.2379,0,0,0-.1362.6184l-.0027.0127c-.0036.5471,1.1615-1.8818,1.4284-2.45.0328-.072.0534-.1137.0534-.1137l-.3155-1.2654Z" fill="#feadae"/><path d="M53.6,92.42l0,.0133c-.121,6.3366,1.8362,13.7874,2.3535,18.39.0631.002,1.5984-.2047,1.5984-.2047s.2923-19.4128.3129-23.2486a5.93,5.93,0,0,0-.0386-.731c-.315-2.795-2.5819-2.3161-3.4583.3082a11.3712,11.3712,0,0,0-.3687,1.3879c-.0406.2-.076.3993-.1117.6125v.0067a20.8765,20.8765,0,0,0-.2291,2.0752l-.0014.0736c-.02.2069-.029.4142-.0382.6215l-.0008.0468C53.6082,91.9847,53.6041,92.1988,53.6,92.42Z" fill="#feadae"/><path d="M54.9168,89.8356a1.6663,1.6663,0,0,1-.4455-.1941,1.27,1.27,0,0,1-.5827-.6864l.0006-.0071c-.1661-.5457-.3643-1.308-.5845-2.2076-.0049-.0077-.0049-.0077-.0043-.0147l-.0093-.0225c-.428-1.748-.9351-4.0161-1.4085-6.2229-.5813-2.7166-1.1084-5.348-1.38-6.8416-.0211-.0806-.2554-1.168-.2711-1.2479-.8122-4.6291,2.7983-7.6448,5.422-6.7625.0379.0121.07.0236.1027.0351.5273.2121.6739,2.0675.7925,3.3213s1.01,14.2516,1.2329,16.6016a9.4453,9.4453,0,0,1,.0462,1.0531C57.7655,89.5454,56.0725,90.1816,54.9168,89.8356Z" fill="#feadae"/><path d="M53.7925,87.8461l-.4944-1.12c0,.0067,0,.0067.005.0135a21.56,21.56,0,0,1,.3549,4.2892l-.0014.0736c-.0091.2006-.0184.4145-.0382.6215l-.0008.0468a3.7332,3.7332,0,0,0-.0177.649l0,.0133c.09.5451.7254-2.16.8691-2.7918.0173-.08.0288-.1263.0288-.1263l-.4986-1.18Z" fill="#feadae"/><path d="M45.7491,60.6514s-3.398,4.3161-3.0491,8.6528c.1453,1.8052.3691,3.3957.5747,5.212.03.2617.4371,4.0753.3221,4.0793a22.3609,22.3609,0,0,0,13.764-.6711,43.4365,43.4365,0,0,0-3.1126-17.8015A58.92,58.92,0,0,1,45.7491,60.6514Z" fill="#0088cc"/><path d="M56.3886,50.6865c-.0268,1.2366-.6846,1.9892-1.628,3.0314a36.8607,36.8607,0,0,0-.5124,4.7738c-.052.9536.3553,1.5527,0,1.6312C52.89,61.3075,47.9956,62.267,45.75,60.65c.2355-1.9932-.6572-6.3833-1.26-8.6157-.094-.3437-.1764-.6337-.2515-.8576-.5609-1.6954-1.5735-7.1327-.8242-7.37.1493-.0473.3816-.1084.65-.19,1.1734-.3541,2.9073-.9615,2.9073-.9615s1.017,3.0084,3.6611,3.3716c1.4434-.5944,1.316-2.42,1.2988-3.2589.472.1306.68.26,2.143.6935.41.5911.0563,1.8251.7187,3.6646C54.9589,47.5841,56.4212,49.1809,56.3886,50.6865Z" fill="#fbdb8a"/><path d="M53.9925,33.7227a17.0121,17.0121,0,0,1-.2905,4.9818,4.0668,4.0668,0,0,1-3.5264,2.4373c-3.9031,0-4.6031-5.3015-4.5828-5.558s5.7565-2.4819,5.7565-2.4819Z" fill="#feadae"/><path d="M61.4242,112.6571a25.8582,25.8582,0,0,1-3.4824-.0351c-.5029.0857-1.7951.4136-2.2789-.0213s-.4056-1.9687.15-2.1728a2.0391,2.0391,0,0,0,.3608.0868,3.8079,3.8079,0,0,0,1.6444-.1346,8.7585,8.7585,0,0,0,2.298.8674,7.8255,7.8255,0,0,1,1.531.4647C62.1659,111.9494,62.2074,112.517,61.4242,112.6571Z" fill="#473e73"/><path d="M46.4274,113.2684a18.9176,18.9176,0,0,1-2.8818-1.11c-.5023-.0893-1.7683-.3357-1.901-.8546-.0987-.3861.2835-1.99.8756-1.9942a2.04,2.04,0,0,0,.31.2037,3.8093,3.8093,0,0,0,1.5932.429,8.7571,8.7571,0,0,0,1.87,1.5927,7.8272,7.8272,0,0,1,1.284.9547C47.9852,112.8876,47.2119,113.4011,46.4274,113.2684Z" fill="#473e73"/><path d="M43.5615,43.4234c-.087-.0463-.1721-.0962-.2549-.1457A2.15,2.15,0,0,1,42.26,42.2218a3.4976,3.4976,0,0,1-.0217-2.5667,10.182,10.182,0,0,1,1.071-1.2286,3.7892,3.7892,0,0,0,.6311-2.134,14.0837,14.0837,0,0,1,.1521-2.2516,5.5,5.5,0,0,1,1.6-3.27c1.5545-1.2993,4.6711-2.07,6.3655-.62.3082.2636.3686.475.7849.5153a3.0674,3.0674,0,0,1,1.4222.4155c.5561.3214,1.23.7748,1.1521,1.5045a2.6116,2.6116,0,0,1-1.06,1.543,1.287,1.287,0,0,1-.5992.1344c-.6605.0128-1.2088-.4172-1.8571-.3475a1.2344,1.2344,0,0,0-.8134.4513c-.2338.2884-.2022.69-.4749.96-.4376.4325-1.1157.3961-1.6344.6775a.5446.5446,0,0,0-.2233.184.5841.5841,0,0,0-.0567.2778l-.03.8189c-.2571-.1131-.284-.4793-.4961-.6635a.5893.5893,0,0,0-.7433.048,1.2468,1.2468,0,0,0-.3583.7122,2.0526,2.0526,0,0,0,.1447.9782c.17.5564.6464,1.0574,1.0314.69.2793.4108-.026,1.0968-.0361,1.5617-.0081.3685-.0014,1.099.3434,1.3411.3168.2225.8188.0536.838.6273a1.103,1.103,0,0,1-1.0291.9993,3.8534,3.8534,0,0,1-1.54-.2687,2.4154,2.4154,0,0,0-1.5442-.0757,4.6826,4.6826,0,0,1-.8672.39A1.3553,1.3553,0,0,1,43.5615,43.4234Z" fill="#3d4177"/><rect x="45.7921" y="62.2434" width="18.8013" height="11.9282" rx="4.5262" ry="4.5262" transform="translate(-32.4169 63.4062) rotate(-47.8838)" fill="#e7edf2"/><path d="M51.0462,65.8784c-.15.1394-.0917.4925-.5571.6016a3.0724,3.0724,0,0,1-3.5858-1.7684c-.0679-.0416-10.2532-3.9635-10.71-4.53s.0794-7.3726,3.5787-12.282c.8349-1.1713,2.1976-2.0778,3.5585-1.5079a3.0684,3.0684,0,0,1-.1151,2.386c-.9029,2.1095-4.1075,8.83-3.8569,9.5445,1.0189.3193,4.7375,2.8789,8.0969,4.6706a2.3726,2.3726,0,0,0,1.7362.344,11.2914,11.2914,0,0,1,2.68-.2929c.2672.0254,2.4339.9411,2.15,1.17a3.475,3.475,0,0,1-1.8714-.2916c-.4561-.1545-.2431.2733-.4514.34-.2926.0626.4037.7414.0521,1.1987C51.703,65.529,51.1246,65.8054,51.0462,65.8784Z" fill="#feadae"/><path d="M44.5243,43.36a4.66,4.66,0,0,0-2.2786.5843,65.9482,65.9482,0,0,0-3.9581,5.7524,2.3051,2.3051,0,0,0,.8607,1.802,4.7748,4.7748,0,0,0,2.3573,1.02s1.6433-1.6352,2.5693-2.3791c.577-.4636.6341.6839.6341.6839l2.8968-2.8282Z" fill="#fbdb8a"/><path d="M125.9776,104.8947a57.4358,57.4358,0,0,0,5.8956.3329,52.3666,52.3666,0,0,0,5.5611-.3329l-.222-.3378c-.9757-1.4847-4.6681-.9071-5.5064-2.4394h0c-.6986,1.5322-4.5307.9547-5.5064,2.4394Z" fill="#6b697f"/><rect x="131.0911" y="82.8953" width="1.4598" height="20.28" transform="translate(263.6419 186.0707) rotate(180)" fill="#524e64"/><polygon points="131.245 101.513 130.301 99.446 128.23 100.209 128.805 102.335 131.245 101.513" fill="#feadae"/><path d="M131.2416,101.4811l.4971,1.6888-2.1895.6918s-4.9424,2.0749-5.8633,1.1128c-.4219-.4408,1.1872-.8758,2.22-1.5594s2.6548-1.6491,2.6548-1.6491A10.4254,10.4254,0,0,0,131.2416,101.4811Z" fill="#473e73"/><polygon points="120.305 104.567 119.982 102.318 117.78 102.464 117.731 104.666 120.305 104.567" fill="#feadae"/><path d="M120.31,104.5354v1.76l-2.2957.0455s-5.3272.5952-5.9389-.5877c-.28-.5419,1.3862-.505,2.57-.8692s3.0124-.8325,3.0124-.8325A10.4264,10.4264,0,0,0,120.31,104.5354Z" fill="#473e73"/><path d="M100.3969,65.79l3.0422-1.0094,2.6933.6819c1.5163-.3942,2.0208-.3722,5.1256-1.1705a42.3539,42.3539,0,0,0,5.6321-2.0185l2.2314-3.741a18.6837,18.6837,0,0,1,4.4767,1.7064s-4.1485,5.6443-5.33,6.038-9.1458,1.3647-12.182,1.0165a11.7124,11.7124,0,0,1-2.8277-1.1219l-2.4007.3987L98.986,67.8335l-.3269-.27.7448-.8157Z" fill="#e5989b"/><path d="M121.4229,51.4083s3.8683.6475,3.8026,4.126c-.0428,2.2655-3.15,6.4975-3.15,6.4975a9.1306,9.1306,0,0,0-3.8066-3.019s1.3641-4.0013,1.7812-5.2528A5.9076,5.9076,0,0,1,121.4229,51.4083Z" fill="#f4cf7a"/><rect x="129.05" y="79.6104" width="5.8052" height="4.1348" rx="2.0674" ry="2.0674" transform="translate(263.9052 163.3555) rotate(-180)" fill="#6b697f"/><path d="M131.1082,49.8494s-.0166-.2947-1.0667-.5572a2.1288,2.1288,0,0,1-.9177-.2855,7.3951,7.3951,0,0,1-1.92-3.1453.8915.8915,0,0,1-.0452-.4628q-1.0646.9023-2.0556,1.887c-.2259.2244-1.5928.0974-1.4275.4018.0462.0851.3945.8816.7371,1.6531-.6632.4342-1.3933,1.0018-1.3933,1.0018L122.1,55.4615l2.6909,1.51a23.53,23.53,0,0,0,4.988-1.7064C131.7479,54.2145,131.1082,49.8494,131.1082,49.8494Z" fill="#e5989b"/><path d="M123.2685,78.7668h14.2827a0,0,0,0,1,0,0v3.741a0,0,0,0,1,0,0H119.5275a0,0,0,0,1,0,0v0A3.741,3.741,0,0,1,123.2685,78.7668Z" transform="translate(265.6871 145.5622) rotate(173.231)" fill="#524e64"/><path d="M123.7379,71.3443s-10.9263,6.4917-11.576,9.1719c-.7754,3.1985,4.465,22.1386,4.465,22.1386a4.2656,4.2656,0,0,0,4.37-.2058S116.781,86.2425,117.24,85.16c1.1243-2.65,10.6979-5.8084,13.7169-8.6961a9.9884,9.9884,0,0,0,3.2816-5.6443Z" fill="#293882"/><path d="M136.2291,68.4411s3.7217,7.76.3745,10.91c-1.5324,1.4422-10.7.1313-11.2249,1.5752l5.5346,18.3871s-.9761.5935-2.9451,1.578c0,0-11.5154-20.2933-10.334-22.9185s9.1227-4.1348,9.5165-5.5786a31.9622,31.9622,0,0,0,.6563-3.8066Z" fill="#0088cc"/><path d="M120.4412,47.3928a2.88,2.88,0,0,0,1.5446,2.187,3.0526,3.0526,0,0,0,2.4124-.6037,6.726,6.726,0,0,0,2.2975-1.9228,7.4581,7.4581,0,0,0,1.4255-4.3643c-.0333-.5395-.8228-1.201-1.15-1.631a2.4209,2.4209,0,0,0-.9211-.661,9.63,9.63,0,0,0-2.5865-.8084c-1.4935-.2434-3.1543.0906-3.4528,1.7307A14.57,14.57,0,0,0,120.4412,47.3928Z" fill="#feadae"/><path d="M123.3972,45.4006a1.4222,1.4222,0,1,1,1.4243-1.4221A1.425,1.425,0,0,1,123.3972,45.4006Zm0-2.5812a1.159,1.159,0,1,0,1.1614,1.159A1.1618,1.1618,0,0,0,123.3972,42.8194Z" fill="#3d4177"/><path d="M121.2529,43.2209l-.21-.1586a.9664.9664,0,0,1,.729-.3846,1.116,1.116,0,0,1,.8627.3448l-.1907.1813a.8593.8593,0,0,0-.6571-.2635A.7072.7072,0,0,0,121.2529,43.2209Z" fill="#3d4177"/><path d="M120.2561,45.4006a1.4222,1.4222,0,1,1,1.4242-1.4221A1.4248,1.4248,0,0,1,120.2561,45.4006Zm0-2.5812a1.159,1.159,0,1,0,1.1614,1.159A1.1615,1.1615,0,0,0,120.2561,42.8194Z" fill="#3d4177"/><path d="M129.9072,49.2922a5.9433,5.9433,0,0,1-2.7565,2.2971c-1.9689.8532-3.741-1.7064-3.741-1.7064l-1.9869,1.5254s-.179,6.9783.6743,10.7849,1.6408,9.1511,1.6408,9.1511a3.2554,3.2554,0,0,0,2.0046,1.3663c1.3759.0931,3.271-.9844,6.2649-.4475a16.6124,16.6124,0,0,0,5.7946.073s-2.5553-12.4868-3.146-14.9808-2.1236-7.6037-2.1236-7.6037A21.0937,21.0937,0,0,0,129.9072,49.2922Z" fill="#fbdb8a"/><path d="M94.3323,66.8918h11.3005a.9912.9912,0,0,1,.9912.9912v0a0,0,0,0,1,0,0H94.3323a0,0,0,0,1,0,0v-.9912A0,0,0,0,1,94.3323,66.8918Z" transform="translate(200.9563 134.7747) rotate(-180)" fill="#293882"/><path d="M98.7717,55.5967a.8118.8118,0,0,1,.763.5353l3.9034,10.7732-.241.1.0635.1881-8.9284-.3019-3.8-10.2023a.8118.8118,0,0,1,.7611-1.0952Z" fill="#0088cc"/><path d="M95.7174,61.9748c.2648,1.0165.784,1.8271,1.16,1.81s.4655-.8541.2007-1.8706-.784-1.827-1.16-1.81S95.4525,60.9584,95.7174,61.9748Z" fill="#fff"/><path d="M122.6484,41.66a9.3762,9.3762,0,0,1-3.737-.6731,2.0107,2.0107,0,0,1-1.1336-1.3028,1.0917,1.0917,0,0,1,.9336-1.27.81.81,0,0,0,.374-.06.5236.5236,0,0,0,.18-.4089,2.2469,2.2469,0,0,1,2.0909-2.009c.8975.02,1.7327.7109,2.6016.5018a3.8084,3.8084,0,0,0,.7471-.3278,4.02,4.02,0,0,1,2.4213-.329c.8614.153,1.7748.8324,1.564,1.6219-.07.2638-.2594.493-.31.7607-.18.9549,1.3414,1.4307,1.6421,2.3591.2735.8447-.5616,1.6859-.4974,2.5659.0356.489.3208,1.0637-.0515,1.4116-.1987.1857-.5377.232-.671.4625-.1815.3141.1564.6706.186,1.0259.0367.44-.4662.81-.9408.7724a1.3316,1.3316,0,0,1-1.056-.7945,2.8625,2.8625,0,0,1-.1859-1.3032c.8037-.2259,1.2984-1.55.5421-1.8886-.4031-.18-.8322.2573-.9849.6288A4.0057,4.0057,0,0,0,122.6484,41.66Z" fill="#3d4177"/><path d="M121.0151,47.1838a.75.75,0,0,0,.1541.8306.4672.4672,0,0,0,.3647.1475.2744.2744,0,0,0,.2494-.27c-.004-.05-.0242-.1044.0024-.1468a.1559.1559,0,0,1,.13-.0506c.1813-.01.4026.0018.4877.1621.0259.0487.0346.1056.064.1523a.37.37,0,0,0,.3557.1142A2.0666,2.0666,0,0,0,123.3754,48a.6293.6293,0,0,0,.2458-.1451.2674.2674,0,0,0,.07-.2646.3993.3993,0,0,0-.16-.1726C122.9632,47.0144,121.4717,46.1956,121.0151,47.1838Z" fill="#feadae"/><path d="M110.2567,65.46l3.0422-1.0094,2.6933.6819c1.5163-.3942,2.0208-.3722,5.1256-1.1705a42.3529,42.3529,0,0,0,5.6321-2.0185l3.416-5.1044c1.4439.1312,3.2922,3.07,3.2922,3.07s-4.1486,5.6443-5.33,6.038-10.1931,1.439-13.2292,1.0907a9.3531,9.3531,0,0,1-2.6475-1.1565l-1.5336.3591-1.8719,1.2635-.3269-.27.7447-.8157Z" fill="#feadae"/><path d="M132.5325,49.7516s4.0691.6563,4.0035,4.1348c-.0428,2.2655-3.15,6.4975-3.15,6.4975a9.13,9.13,0,0,0-3.8066-3.019,21.361,21.361,0,0,0,1.7721-4.5285A9.6852,9.6852,0,0,1,132.5325,49.7516Z" fill="#f4cf7a"/><path d="M103.4381,66.8918h11.3005a.9912.9912,0,0,1,.9912.9912v0a0,0,0,0,1,0,0H103.4381a0,0,0,0,1,0,0v-.9912A0,0,0,0,1,103.4381,66.8918Z" transform="translate(219.1679 134.7747) rotate(-180)" fill="#293882"/><rect x="110.4853" y="67.2069" width="4.0972" height="0.3073" transform="translate(225.0679 134.7211) rotate(180)" fill="#fff"/><rect x="109.2647" y="67.2069" width="0.606" height="0.3073" transform="translate(219.1354 134.7211) rotate(180)" fill="#fff"/><polygon points="86.897 63.721 86.345 59.655 86.543 58.915 86.987 59.535 87.497 63.681 86.897 63.721" fill="#404041"/><polygon points="89.572 63.988 90.15 59.925 90.543 59.267 90.8 59.985 90.161 64.113 89.572 63.988" fill="#404041"/><polygon points="87.708 64.303 87.758 60.14 88.113 59.484 88.419 60.151 88.361 64.309 87.708 64.303" fill="#404041"/><polygon points="90.18 68.321 87.033 68.321 86.462 63.102 90.596 63.102 90.18 68.321" fill="#808083"/><polygon points="128.614 107.804 129.368 107.804 120.87 70.834 119.27 70.834 128.614 107.804" fill="#e2e2e2"/><polygon points="105.588 107.418 106.342 107.418 111.81 70.834 110.209 70.834 105.588 107.418" fill="#e2e2e2"/><polygon points="94.137 107.641 94.891 107.641 88.884 70.834 87.284 70.834 94.137 107.641" fill="#e2e2e2"/><polygon points="72.966 107.25 73.721 107.25 80.951 70.834 79.351 70.834 72.966 107.25" fill="#e2e2e2"/><rect x="85.531" y="69.181" width="39.8617" height="1.6529" transform="translate(210.9237 140.0148) rotate(180)" fill="#cdd1d3"/><rect x="72.7484" y="69.181" width="36.7594" height="1.6529" transform="translate(182.2563 140.0148) rotate(180)" fill="#cdd1d3"/><rect x="86.4173" y="67.7985" width="42.6327" height="2.2118" transform="translate(215.4673 137.8089) rotate(180)" fill="#e2e2e2"/><rect x="67.1592" y="67.7985" width="39.5304" height="2.2118" transform="translate(173.8488 137.8089) rotate(180)" fill="#e2e2e2"/></g></g></svg>