<svg id="Layer_1" data-name="Layer 1" xmlns="http://www.w3.org/2000/svg" width="40" height="40" viewBox="0 0 40 40"><title>use-case-development</title><path d="M35.2587,32.4137l-3.7491-3.75V1.7267a.6336.6336,0,0,0-.6336-.6336H11.8678c-.0121,0-.0235.0062-.0356.0071a.594.594,0,0,0-.17.034.5085.5085,0,0,0-.0551.02.6337.6337,0,0,0-.19.1265L3.8134,8.8839a.6246.6246,0,0,0-.1268.1856c-.009.02-.0139.0393-.021.06a.598.598,0,0,0-.0322.1627c0,.0139-.0084.026-.0084.04V33.4071a.6336.6336,0,0,0,.6336.6336H26.132l3.75,3.7478a3.8011,3.8011,0,1,0,5.3764-5.3748ZM29.8876,36.005l-9.8621-9.859,3.5894-3.59,9.859,9.8627ZM19.4893,24.89,18.63,21.1619l3.7283.8585ZM11.2342,3.2563v5.44h-5.44ZM4.8981,32.7735V9.9636h6.97a.6336.6336,0,0,0,.6336-.6336h0V2.36h17.741V27.3955L24.0635,21.212l-.0071-.0043a.6322.6322,0,0,0-.1785-.12c-.0179-.0077-.035-.0133-.0526-.02a.67.67,0,0,0-.0681-.026l-5.829-1.343a.6334.6334,0,0,0-.76.76l1.3433,5.8293a.6749.6749,0,0,0,.026.0684c.0065.017.0114.034.02.0514a.6076.6076,0,0,0,.121.18l.0031.0053,6.1832,6.18ZM34.3609,36.895a2.5257,2.5257,0,0,1-3.5719.0061l-.0061-.0061.2982-.2989,3.2853-3.2847a2.5257,2.5257,0,0,1,.0025,3.5719l-.0081.0081Z" fill="#0088cc"/><path d="M9.3333,13.7652H25.8072a.6336.6336,0,0,0,0-1.2672H9.3333a.6336.6336,0,0,0,0,1.2672Z" fill="#0088cc"/><path d="M9.3333,17.5669H25.8072a.6336.6336,0,0,0,0-1.2672H9.3333a.6336.6336,0,0,0,0,1.2672Z" fill="#0088cc"/><path d="M13.7686,20.1013H9.3333a.6336.6336,0,0,0,0,1.2672h4.4353a.6336.6336,0,0,0,0-1.2672Z" fill="#0088cc"/></svg>