<svg id="Layer_1" data-name="Layer 1" xmlns="http://www.w3.org/2000/svg" width="40" height="40" viewBox="0 0 40 40"><title>user-persona-study</title><path d="M14.2437,15.1759a6.6512,6.6512,0,0,0,12.01.1447" fill="none" stroke="#2a3c90" stroke-miterlimit="10" stroke-width="1.5"/><path d="M25.4667,8.2a6.6486,6.6486,0,0,0-10.4806.1532" fill="none" stroke="#2a3c90" stroke-miterlimit="10" stroke-width="1.5"/><polyline points="8.401 28.738 8.401 34.282 31.741 34.282 31.741 28.738" fill="none" stroke="#2a3c90" stroke-miterlimit="10" stroke-width="1.5"/><polyline points="22.933 19.104 17.068 19.104 17.067 19.104" fill="none" stroke="#2a3c90" stroke-miterlimit="10" stroke-width="1.5"/><path d="M13.6223,12.38a6.6233,6.6233,0,0,1,1.3638-4.0268,5.3057,5.3057,0,1,0-4.3907,8.3233" fill="none" stroke="#2a3c90" stroke-miterlimit="10" stroke-width="1.5"/><path d="M14.9861,8.3529a6.617,6.617,0,0,0-.7424,6.823" fill="none" stroke="#2a3c90" stroke-miterlimit="10" stroke-width="1.5"/><path d="M11.0835,16.6762H9.8A8.6583,8.6583,0,0,0,1.1667,25.309v3.4292H8.4005v-.9663" fill="none" stroke="#2a3c90" stroke-miterlimit="10" stroke-width="1.5"/><path d="M17.0673,19.1041a8.6934,8.6934,0,0,0-8.6667,8.6678v.9663" fill="none" stroke="#2a3c90" stroke-miterlimit="10" stroke-width="1.5"/><path d="M29.7629,16.6762A5.3191,5.3191,0,1,0,25.4667,8.2a6.63,6.63,0,0,1,1.4783,4.18" fill="none" stroke="#2a3c90" stroke-miterlimit="10" stroke-width="1.5"/><path d="M26.2539,15.3206A6.63,6.63,0,0,0,25.4667,8.2" fill="none" stroke="#2a3c90" stroke-miterlimit="10" stroke-width="1.5"/><path d="M22.8587,19.1041a8.88,8.88,0,0,1,8.8826,8.6678v.9663h7.0921V25.309A8.6582,8.6582,0,0,0,30.2,16.6762H28.9165" fill="none" stroke="#2a3c90" stroke-miterlimit="10" stroke-width="1.5"/><line x1="31.7412" y1="28.7382" x2="31.7412" y2="27.7719" fill="none" stroke="#2a3c90" stroke-miterlimit="10" stroke-width="1.5"/></svg>