<svg id="Layer_1" data-name="Layer 1" xmlns="http://www.w3.org/2000/svg" width="371" height="339" viewBox="0 0 371 339"><title>web-development-service-banner</title><path d="M140.8147,40.7021c28.8223-.3063,57.4089-5.3624,83.8968-15.6065,15.7906-6.1068,53.2411-9.8771,77.4312-5.7714,21,3.5643,71.0209,19.8192,49.8851,74.8926s-48.0969,60.8007-28.2649,96.7452c14.5651,26.3985,39.5936,52.6044,17.6233,73.7174-34.167,32.8339-174.4878,81.5058-247.3309,41.8743S5.7729,252.66,27.6992,190.558s-34.81-69.6247-5.1407-115.6773C40.354,47.2593,97.735,41.16,140.8147,40.7021Z" fill="#f1f3f7"/><path d="M301.05,83.4781c-11.3413,19.593-13.0136,33.7438-7.1962,37.7786l41.5313-71.7486C330.9794,52.3633,311.3124,65.7484,301.05,83.4781Z" fill="#f4cf7a"/><path d="M336.2783,48.94s-.3183.1955-.8934.5682l-41.5313,71.7486c.1341.0929.2673.1867.409.2687,6.303,3.6485,18.01-4.7914,29.612-24.8353S336.2783,48.94,336.2783,48.94Z" fill="#fbdb8a"/><path d="M303.5309,105.2874q4.1722-7.2538,8.3638-14.4964,8.3677-14.4948,16.5476-29.0968a.0964.0964,0,0,0-.1668-.0964q-5.792,9.7113-11.5057,19.4687a45.16,45.16,0,0,0-2.5674-9.3333.1675.1675,0,0,0-.311.0829,46.4186,46.4186,0,0,0,2.5671,9.7823c-1.7265,2.9454-3.4584,5.8876-5.1721,8.8405q-4.2005,7.2372-8.4046,14.4725c-2.7913,4.7916-5.9342,9.5171-8.3248,14.5188a.3066.3066,0,0,0,.53.3071C298.2335,115.1738,300.7664,110.0938,303.5309,105.2874Z" fill="#2e5175"/><path d="M306.7911,99.1039a94.4132,94.4132,0,0,0-4.22-15.6834.1051.1051,0,0,0-.203.0542,94.3926,94.3926,0,0,0,4.1521,15.7013A.14.14,0,0,0,306.7911,99.1039Z" fill="#2e5175"/><path d="M323.8962,86.9253c-2.1176.4346-4.2162.9562-6.32,1.4542a27.6145,27.6145,0,0,0-5.5983,1.6668.1586.1586,0,0,0,.0787.2945,27.5919,27.5919,0,0,0,5.6846-1.3429c2.0719-.6158,4.1517-1.2088,6.2043-1.8866A.0963.0963,0,0,0,323.8962,86.9253Z" fill="#2e5175"/><path d="M313.0405,105.1448a82.6334,82.6334,0,0,0-10.8689,2.8.1752.1752,0,0,0,.09.3383,82.61,82.61,0,0,0,10.82-2.9859A.0788.0788,0,0,0,313.0405,105.1448Z" fill="#2e5175"/><path d="M298.75,114.163a73.9294,73.9294,0,0,0-3.4963-12.87.1139.1139,0,0,0-.22.0587,73.9365,73.9365,0,0,0,3.3781,12.9013A.1751.1751,0,0,0,298.75,114.163Z" fill="#2e5175"/><path d="M320.7472,99.9856c-16.79,8.575-24.357,17.7157-22.1129,23.1676l61.484-31.4016C355.7464,91.7565,335.94,92.2261,320.7472,99.9856Z" fill="#f4cf7a"/><path d="M361,91.7582s-.311-.0072-.8818-.0066l-61.484,31.4016c.0516.1254.1024.2514.1645.3729,2.7586,5.4012,14.7617,4.7915,31.9381-3.981S361,91.7582,361,91.7582Z" fill="#fbdb8a"/><path d="M312.6222,116.36q6.1973-3.1866,12.4032-6.3567,12.4057-6.354,24.728-12.8677a.08.08,0,0,0-.073-.1428q-8.4415,4.1729-16.8488,8.4135a37.5924,37.5924,0,0,0,2.4242-7.688.14.14,0,0,0-.255-.0826,38.6475,38.6475,0,0,0-2.6273,8.002c-2.5392,1.2794-5.0806,2.5539-7.6142,3.8443q-6.21,3.1626-12.4211,6.3218c-4.1184,2.0892-8.453,3.9729-12.3863,6.39a.2553.2553,0,0,0,.2321.4544C304.4476,120.8791,308.5155,118.4715,312.6222,116.36Z" fill="#2e5175"/><path d="M317.6979,113.5094a78.62,78.62,0,0,0,4.14-12.876.0875.0875,0,0,0-.1664-.0539,78.6287,78.6287,0,0,0-4.195,12.8582A.1166.1166,0,0,0,317.6979,113.5094Z" fill="#2e5175"/><path d="M335.1668,112.7255c-1.6775-.6534-3.381-1.2374-5.0773-1.84a22.9926,22.9926,0,0,0-4.6689-1.3653.132.132,0,0,0-.0781.2415,22.9608,22.9608,0,0,0,4.5828,1.6309c1.7275.5062,3.45,1.0317,5.1922,1.4858A.08.08,0,0,0,335.1668,112.7255Z" fill="#2e5175"/><path d="M319.3374,120.56a68.7991,68.7991,0,0,0-8.8673-2.9559.1458.1458,0,0,0-.09.2773,68.8,68.8,0,0,0,8.9168,2.8035A.0657.0657,0,0,0,319.3374,120.56Z" fill="#2e5175"/><path d="M305.2659,120.4059a61.5714,61.5714,0,0,0,3.3735-10.5815.0949.0949,0,0,0-.18-.0583,61.5512,61.5512,0,0,0-3.47,10.55A.1458.1458,0,0,0,305.2659,120.4059Z" fill="#2e5175"/><path d="M285.6459,83.4c-4.73,16.265-3.41,26.8446,1.5392,28.7338l17.3192-59.5616C301.8153,55.4355,289.9256,68.682,285.6459,83.4Z" fill="#f4cf7a"/><path d="M305.0515,51.9994s-.1962.199-.5473.5728L287.185,112.1338c.1139.0435.2275.0878.3452.1219,5.2322,1.5215,12.2251-6.7066,17.0636-23.346S305.0515,51.9994,305.0515,51.9994Z" fill="#fbdb8a"/><path d="M291.3546,98.7992q1.7316-6.017,3.4794-12.0291,3.4828-12.0287,6.81-24.1018a.072.072,0,0,0-.1383-.04q-2.4683,8.0922-4.8714,16.204a33.787,33.787,0,0,0-3.537-6.32.1253.1253,0,0,0-.211.116,34.7183,34.7183,0,0,0,3.6171,6.6466c-.7267,2.4491-1.4579,4.8965-2.1739,7.3487q-1.7552,6.01-3.5134,12.0192c-1.1693,3.9809-2.6063,7.9766-3.447,12.0385a.2294.2294,0,0,0,.44.128C289.2771,106.93,290.2072,102.7861,291.3546,98.7992Z" fill="#2e5175"/><path d="M292.6155,93.7232a70.6364,70.6364,0,0,0-5.8746-10.6374.0786.0786,0,0,0-.1377.0758,70.6442,70.6442,0,0,0,5.8288,10.6626A.1048.1048,0,0,0,292.6155,93.7232Z" fill="#2e5175"/><path d="M302.86,81.8121c-1.4605.6951-2.8917,1.45-4.3305,2.1884a20.6615,20.6615,0,0,0-3.7685,2.2137.1187.1187,0,0,0,.11.2A20.6385,20.6385,0,0,0,298.76,84.42c1.3949-.8184,2.8-1.6218,4.1694-2.4817A.0721.0721,0,0,0,302.86,81.8121Z" fill="#2e5175"/><path d="M298.2376,96.9923a61.835,61.835,0,0,0-7.3944,3.9808.131.131,0,0,0,.1261.23,61.7989,61.7989,0,0,0,7.3251-4.107A.059.059,0,0,0,298.2376,96.9923Z" fill="#2e5175"/><path d="M289.4715,106.1034a55.32,55.32,0,0,0-4.8453-8.7231.0852.0852,0,0,0-.1491.082,55.3124,55.3124,0,0,0,4.7649,8.7672A.131.131,0,0,0,289.4715,106.1034Z" fill="#2e5175"/><rect x="70.8487" y="84.8079" width="242.5405" height="169.4281" transform="translate(384.238 339.0439) rotate(180)" fill="#fff"/><g opacity="0.47"><path d="M147.2535,107.7451h81.0348a2.1034,2.1034,0,0,1,2.1034,2.1034v2.1034a2.1034,2.1034,0,0,1-2.1034,2.1034H147.2535a2.1026,2.1026,0,0,1-2.1026-2.1026v-2.1049a2.1026,2.1026,0,0,1,2.1026-2.1026Z" transform="translate(385.4034 203.0874) rotate(174.4404)" fill="#e2e2e2"/></g><g opacity="0.47"><path d="M144.9605,125.75h81.0348a2.1034,2.1034,0,0,1,2.1034,2.1034v2.1034a2.1034,2.1034,0,0,1-2.1034,2.1034H144.9605a2.1026,2.1026,0,0,1-2.1026-2.1026v-2.1049a2.1026,2.1026,0,0,1,2.1026-2.1026Z" transform="translate(370.9566 257.8101) rotate(180)" fill="#e2e2e2"/></g><g opacity="0.47"><path d="M144.9605,137.13h81.0348a2.1034,2.1034,0,0,1,2.1034,2.1034v2.1034a2.1034,2.1034,0,0,1-2.1034,2.1034H144.9605a2.1026,2.1026,0,0,1-2.1026-2.1026v-2.1049a2.1026,2.1026,0,0,1,2.1026-2.1026Z" transform="translate(370.9566 280.5712) rotate(-180)" fill="#e2e2e2"/></g><rect x="70.8169" y="84.8079" width="242.5769" height="15.2867" fill="#e2e2e2"/><path d="M83.31,88.3746h29.9309a2.331,2.331,0,0,1,2.331,2.331V94.09a2.331,2.331,0,0,1-2.331,2.331H83.31a2.331,2.331,0,0,1-2.331-2.331V90.7057A2.3311,2.3311,0,0,1,83.31,88.3746Z" fill="#fff"/><path d="M146.0668,159.8916h32.9947a3.1211,3.1211,0,0,1,3.1211,3.1211v12.2666a3.1211,3.1211,0,0,1-3.1211,3.1211H146.0677a3.1211,3.1211,0,0,1-3.1211-3.1211V163.0118A3.12,3.12,0,0,1,146.0668,159.8916Z" fill="#e2e2e2"/><path d="M161.3227,173.2233l-9.9191-4.0791c-.8142-.3346-.8992-.9174-.19-1.3a3.6467,3.6467,0,0,1,2.7564-.09l7.0133,2.8854,10.0038-5.2632a3.6587,3.6587,0,0,1,2.759-.0715c.8042.3394.871.9223.1515,1.3016Z" fill="#e2e2e2"/><path d="M191.9271,159.8916h32.9947a3.1211,3.1211,0,0,1,3.1211,3.1211v12.2666a3.1211,3.1211,0,0,1-3.1211,3.1211H191.928a3.1211,3.1211,0,0,1-3.1211-3.1211V163.0118A3.12,3.12,0,0,1,191.9271,159.8916Z" fill="#e2e2e2"/><path d="M207.1829,173.2233l-9.9191-4.0791c-.8142-.3346-.8992-.9174-.19-1.3a3.6467,3.6467,0,0,1,2.7564-.09l7.0133,2.8854,10.0038-5.2632a3.6587,3.6587,0,0,1,2.759-.0715c.8042.3394.871.9223.1515,1.3016Z" fill="#e2e2e2"/><g opacity="0.47"><path d="M84.0468,159.8916H131.163a3.1211,3.1211,0,0,1,3.1211,3.1211v35.8724a3.1211,3.1211,0,0,1-3.1211,3.1211H84.0477a3.1211,3.1211,0,0,1-3.1211-3.1211V163.0118a3.12,3.12,0,0,1,3.12-3.12Z" fill="#e2e2e2"/><path d="M105.9165,190.2264l-13.4891-9.2815a1.8067,1.8067,0,0,1-.2583-2.9589,3.1707,3.1707,0,0,1,3.7484-.2039l9.5375,6.5655,13.6043-11.9758a3.1769,3.1769,0,0,1,3.752-.1626,1.8056,1.8056,0,0,1,.2061,2.9617Z" fill="#e2e2e2"/></g><g opacity="0.47"><path d="M253.1494,114.2223H298.641a3.1211,3.1211,0,0,1,3.1211,3.1211V223.5987a3.1211,3.1211,0,0,1-3.1211,3.1211H253.15a3.1211,3.1211,0,0,1-3.1211-3.1211V117.3425A3.12,3.12,0,0,1,253.1494,114.2223Z" fill="#e2e2e2"/><path d="M274.2581,195.2532,261.18,170.46a10.7083,10.7083,0,0,1-.25-7.9038c.9348-2.3344,2.5608-2.578,3.6343-.5446l9.2471,17.5379,13.19-31.99c.9518-2.305,2.5775-2.4966,3.6378-.4344a10.7377,10.7377,0,0,1,.2,7.9114Z" fill="#e2e2e2"/></g><g opacity="0.47"><rect x="142.9466" y="183.6101" width="85.152" height="18.5099" rx="3.1211" ry="3.1211" fill="#e2e2e2"/><path d="M182.8274,196.9418,161.3,192.8627c-1.767-.3346-1.9514-.9174-.4122-1.3a16.677,16.677,0,0,1,5.9821-.09l15.2206,2.8854,21.7108-5.2631a16.7153,16.7153,0,0,1,5.9878-.0715c1.7453.3405,1.89.9223.3288,1.3015Z" fill="#e2e2e2"/></g><g opacity="0.47"><path d="M84.9208,207.33H224.9776a3.1211,3.1211,0,0,1,3.1211,3.1211v12.2675a3.12,3.12,0,0,1-3.12,3.12H84.92a3.12,3.12,0,0,1-3.12-3.12V210.4509A3.1211,3.1211,0,0,1,84.9208,207.33Z" fill="#e2e2e2"/></g><path d="M85.0562,112.1409h42.7883a4.812,4.812,0,0,1,4.812,4.812v18.6782a4.8115,4.8115,0,0,1-4.8115,4.8115H85.0557a4.812,4.812,0,0,1-4.812-4.812V116.9534A4.8125,4.8125,0,0,1,85.0562,112.1409Z" transform="translate(-11.7345 10.907) rotate(-5.5596)" fill="#e2e2e2"/><path d="M291.9092,223.6H259.9734c-2.0165,0-3.65-1.3184-3.65-2.9469h0c0-1.6261,1.6336-2.9469,3.65-2.9469h31.9358c2.0165,0,3.65,1.3207,3.65,2.9469h0C295.5593,222.2812,293.9257,223.6,291.9092,223.6Z" fill="#e2e2e2"/><circle cx="265.8579" cy="165.1249" r="3.7524" fill="#e2e2e2"/><circle cx="275.9894" cy="165.1249" r="3.7524" fill="#e2e2e2"/><circle cx="285.9333" cy="165.1249" r="3.7524" fill="#e2e2e2"/><path d="M259.4435,175.9427H270.782a3.1211,3.1211,0,0,1,3.1211,3.1211v9.63a3.1211,3.1211,0,0,1-3.1211,3.1211H259.4444a3.1211,3.1211,0,0,1-3.1211-3.1211v-9.6311A3.12,3.12,0,0,1,259.4435,175.9427Z" fill="#e2e2e2"/><path d="M264.5567,187.3754l-4.4443-3.4981a.738.738,0,0,1-.0851-1.1152.9417.9417,0,0,1,1.235-.0768l3.1423,2.4744,4.4822-4.5135a.943.943,0,0,1,1.2362-.0613.738.738,0,0,1,.0679,1.1162Z" fill="#e2e2e2"/><path d="M281.1,175.9427h11.3384a3.1211,3.1211,0,0,1,3.1211,3.1211v9.63a3.1211,3.1211,0,0,1-3.1211,3.1211H281.1006a3.1211,3.1211,0,0,1-3.1211-3.1211v-9.6311A3.12,3.12,0,0,1,281.1,175.9427Z" fill="#e2e2e2"/><path d="M286.213,187.3754l-4.4443-3.4981a.738.738,0,0,1-.0851-1.1152.9417.9417,0,0,1,1.235-.0768l3.1423,2.4744,4.4822-4.5135a.943.943,0,0,1,1.2362-.0613.738.738,0,0,1,.0679,1.1162Z" fill="#e2e2e2"/><path d="M259.4435,196.8346H270.782a3.1211,3.1211,0,0,1,3.1211,3.1211v9.63a3.1211,3.1211,0,0,1-3.1211,3.1211H259.4444a3.1211,3.1211,0,0,1-3.1211-3.1211v-9.6311A3.12,3.12,0,0,1,259.4435,196.8346Z" fill="#e2e2e2"/><path d="M264.5567,208.2673l-4.4443-3.4981a.738.738,0,0,1-.0851-1.1152.9417.9417,0,0,1,1.235-.0768l3.1423,2.4744,4.4822-4.5135a.943.943,0,0,1,1.2362-.0613.738.738,0,0,1,.0679,1.1162Z" fill="#e2e2e2"/><polygon points="15.318 227.28 17.334 226.72 17.641 229.485 15.798 230.713 14.876 227.949 15.318 227.28" fill="#feadae"/><path d="M40.2538,139.6664c1.7909-.6172,5.7073.0667,8.07,3.1425s2.4149,4.289,4.53,5.8316,2.9248,3.6876,1.7711,5.6117-4.94,3.08-7.0877,3.1278-3.5736-8.0062-3.5736-8.0062Z" fill="#3d4177"/><path d="M16.3166,226.704c2.72-1.8759,10.7039-7.2144,16.8968-9.6649a51.89,51.89,0,0,1,2.0905-9.6172,24.95,24.95,0,0,0,1.8393-8.5041c.0413-2.1947,1.4217-5.8654,3.231-8.803,0,0,1.8635-5.4382,1.76-7.8433s-3.4872-8.1663-3.4872-8.1663-5.8658,9.5094-5.4929,11.5682,7.108-2.6123,7.108-2.6123.9409.7036.5384,2.9853c0,0-7.7815,7.6921-11.9986,7.157s-1.2137-8.7858-.5455-11.3117,4.69-12.1039,6.4969-14.7951c2.2345-3.3284,7.5374-5.5314,7.5374-5.5314s-.8647-1.3007-.6877-1.8679,1.728-1.9154,3.9132-2.86,3.7948-1.03,4.4844-.5411a3.0043,3.0043,0,0,1,.9682,1.1518s14.07-1.0493,23.2573-26.3559c0,0,3.01-8.2494,6.93-9.1571,0,0-2.7032,2.42-1.1741,3.4741,1.1842.816,2.4057-1.329,3.3128-1.0354s-1.5731,2.1813-2.1877,3.4325a9.4156,9.4156,0,0,1-2.2,2.5125A61.7043,61.7043,0,0,1,69.1,152.0433c-7.4766,10.1568-10.1061,11.32-10.4355,13.71-.2941,2.133.2743,4.4044-.4964,8.152s.89,10.4066.9282,15.5674-1.0474,24.8829-2.2953,31.4708c-.9748,5.147-5.2055,20.9764-7.01,27.6543a3.7891,3.7891,0,0,0,1.9461,4.3731c2.2026,1.1136,4.9245,2.5908,4.9634,3.1083.0656.8712-12.5055.4415-12.7514-.9992a3.901,3.901,0,0,1,1.1537-2.5927,4.2706,4.2706,0,0,0,.9854-2.6245c.0832-4.5695.481-17.8446,2.3329-24.0107,0,0-.3587-15.7477-.0726-18.9027,0,0-7.087,12.2164-9.3482,14.1643-1.9231,1.6568-17.0636,7.1544-21.5474,8.7609" fill="#0088cc"/><path d="M83.2949,124.3737c-.907-.2936-2.0658,1.752-3.3127,1.0354s1.1741-3.4741,1.1741-3.4741c-3.5786,0-5.6665,4.8281-6.467,7.4589l3.8585,2.4317c.249-.96.3595-1.507.3595-1.507a9.4151,9.4151,0,0,0,2.2-2.5125C81.7219,126.5551,84.2021,124.6674,83.2949,124.3737Z" fill="#feadae"/><path d="M40.9287,188.3652c-.308,1.0282-.5545,1.75-.5545,1.75-.3728.6053-.7209,1.245-1.0494,1.8932,4.3086-.2177,8.9876,1.9633,12.923,1.9633a15.2826,15.2826,0,0,0,6.804-1.6605c.0337-1.165.05-2.1388.0447-2.838-.0013-.1711-.0086-.3478-.0133-.522l-.1609-.888Z" fill="#fbdb8a"/><path d="M74.9069,128.7078h0c-.4517,1.3735-.68,2.3844-.68,2.3844-9.1871,25.3066-23.2573,26.3559-23.2573,26.3559a3.0043,3.0043,0,0,0-.9682-1.1518c-.69-.4887-2.2993-.4032-4.4844.5411s-3.736,2.2926-3.9131,2.86.6876,1.8679.6876,1.8679-5.3029,2.203-7.5374,5.5314c-1.8066,2.6912-5.8287,12.2693-6.4969,14.7951s-3.6717,10.7766.5455,11.3117,11.9986-7.157,11.9986-7.157c.4026-2.2817-.5384-2.9854-.5384-2.9854s-6.7349,4.6713-7.108,2.6124,5.4929-11.5683,5.4929-11.5683,3.3842,5.7613,3.4872,8.1664c.0957,2.2307-1.4981,7.0634-1.73,7.7534,4.3255-.6666,6.8047,2.1964,12.8647,2.3962a17.3328,17.3328,0,0,0,5.8-.7616c.0213-.876.0313-1.6227.0272-2.1868-.0383-5.1608-1.6989-11.82-.9282-15.5675s.2022-6.0189.4963-8.152c.3294-2.3895,2.9589-3.5531,10.4354-13.71a61.7011,61.7011,0,0,0,9.8071-21.7246S77.3237,131.337,74.9069,128.7078Z" fill="#fbdb8a"/><path d="M42.716,141.1886l6.1351,6.3491.12.5493s1.4327,3.669.3669,5.1467a4.5127,4.5127,0,0,1-2.1513,1.7784l1.5593,2.4189s-1.1971,2.13-5.1585,2.5168l-3.8936-6.9815Z" fill="#feadae"/><path d="M37.9214,140.8136c4.2178-2.7824,8.6722-.645,8.5005,1.24s-3.8755,3.72-3.917,7.1666c-.0291,2.4064,3.331,6.3695.8287,9.9095s-5.3314,3.8824-6.598,3.2754-3.3167-.8717-3.1123-6.0834c.1685-4.3,1.2692-6.0375,1.3972-9.0775S35.8133,142.2043,37.9214,140.8136Z" fill="#3d4177"/><path d="M48.4218,225.8521c-1.0565,3.5178-1.6394,9.3482-1.9609,14.557.1664-3.0229,2.9975-9.7864,3.8649-14.0507.6524-3.2068,1.4407-15.453,1.7921-21.3414a1.028,1.028,0,0,0-1.8353-.6946c-.7689.9783-1.5514,2.011-1.9334,2.6269C48.0632,210.1043,48.4218,225.8521,48.4218,225.8521Z" fill="#293882"/><path d="M41.596,185.92c2.2591-3.6748,1.1327-12.3546-.1256-13.5582s-1.7507.0547-2.8231,1.7435c0,0,3.3842,5.7613,3.4872,8.1664a15.0087,15.0087,0,0,1-.5385,3.6463Z" fill="#f4cf7a"/><path d="M40.3343,183.1278l.5239-.4193a7.1475,7.1475,0,0,1,1.51-2.6353,3.8443,3.8443,0,0,1,2.43-1.2151,2.7544,2.7544,0,0,1,.7017.9241,3.6849,3.6849,0,0,1-.907,2.9435,16.3867,16.3867,0,0,1-2.9606,2.3787l-.8035.772A3.6614,3.6614,0,0,0,40.3343,183.1278Z" fill="#feadae"/><path d="M48.3028,256.1721l-.7156,8.3122H28.6626l.7157-8.3122H27.19l-2.7507,31.9495h2.1883l.4862-5.6471H46.0384l-.4863,5.6471H47.74l2.7507-31.9495ZM46.18,280.8237H27.2559l1.2647-14.6886H47.4451Z" fill="#e2e2e2"/><polygon points="56.99 268.542 37.076 268.542 36.934 266.891 56.848 266.891 56.99 268.542" fill="#e2e2e2"/><polygon points="41.419 268.542 37.076 268.542 36.934 266.891 41.277 266.891 41.419 268.542" fill="#e2e2e2" opacity="0.14"/><polygon points="58.396 284.882 38.483 284.882 38.341 283.231 58.254 283.231 58.396 284.882" fill="#e2e2e2"/><polygon points="42.825 284.882 38.483 284.882 38.341 283.231 42.683 283.231 42.825 284.882" fill="#e2e2e2" opacity="0.14"/><polygon points="39.473 290.529 37.285 290.529 34.396 256.977 36.584 256.977 39.473 290.529" fill="#e2e2e2"/><polygon points="60.586 290.529 58.398 290.529 55.509 256.977 57.697 256.977 60.586 290.529" fill="#e2e2e2"/><rect x="23.4861" y="255.6071" width="38.9339" height="2.0052" fill="#e2e2e2"/><rect x="23.4861" y="255.6071" width="17.1774" height="2.0052" fill="#e2e2e2" opacity="0.23"/><path d="M15.386,227.0564l-.005-.0032a2.1054,2.1054,0,0,1-1.1055-.1548,1.7986,1.7986,0,0,0-2.2961.7616c-2.2444,4.0719-2.4288,11.2261-1.31,11.6641.1886.0738,3.4389-5.4244,4.87-7.8641a3.6189,3.6189,0,0,1,.6-.7469A3.9224,3.9224,0,0,1,15.386,227.0564Z" fill="#473e73"/><polygon points="46.078 250.088 49.278 250.679 49.707 248.995 46.078 250.088" fill="#0088cc"/><polygon points="45.285 250.065 53.886 251.14 49.586 254.365 42.828 250.871 45.285 250.065" fill="#fff"/><polygon points="46.422 250.207 46.207 252.215 49.586 252.522 49.478 250.589 46.422 250.207" fill="#feadae"/><path d="M56.7012,256.0792c-.0389-.5176-2.7608-1.9947-4.9634-3.1083a3.7693,3.7693,0,0,1-1.413-1.2424,11.6845,11.6845,0,0,1-4.6165-.2415,4.4422,4.4422,0,0,1-.6048,1A3.9008,3.9008,0,0,0,43.95,255.08C44.1958,256.5207,56.7669,256.95,56.7012,256.0792Z" fill="#473e73"/><path d="M320.4965,279.3977v3.0829s1.2235,3.9107.8989,4.8812-12.0388,2.9719-12.8339,1.6842c-1.1985-1.9411,6.6916-4.6529,7.4407-6.9365l.2-2.7118Z" fill="#473e73"/><path d="M336.9133,279.3977v3.0829s1.2235,3.9107.8989,4.8812-12.0388,2.9719-12.8339,1.6842c-1.1985-1.9411,6.6916-4.6529,7.4407-6.9365l.2-2.7118Z" fill="#473e73"/><path d="M316.2018,279.3977l-.2,2.7118a1.85,1.85,0,0,1-.2622.4887c1.2552.6555,3.3342,1.4551,4.996.6973-.1368-.4851-.2395-.8149-.2395-.8149v-3.0829Z" fill="#feadae"/><path d="M332.6187,279.3977l-.2,2.7118a2.7314,2.7314,0,0,1-.7555,1.0417,4.7066,4.7066,0,0,0,5.5506.3648c-.1669-.6057-.3009-1.0354-.3009-1.0354v-3.0829Z" fill="#feadae"/><path d="M301.7072,188.3108c1.4854,1.6,1.175,4.7841,1.5392,5.4524a54.8506,54.8506,0,0,0,7.4873,10.935,17.8209,17.8209,0,0,0,2.189-5.2583l5.4931.5327s-2.8745,11.66-6.77,11.5934-8.332-7.131-10.3628-13.9557Z" fill="#feadae"/><path d="M312.4336,201.0985a10.444,10.444,0,0,0,5.1177,1.8164c.5534-1.6844.8645-2.9424.8645-2.9424l-5.4931-.5327A9.8813,9.8813,0,0,1,312.4336,201.0985Z" fill="#ffc494"/><path d="M317.9,220.5943l20.1917-.9121-.5,60.7431a8.2344,8.2344,0,0,1-6.392.3806s-4.5942-37.3753-5.1934-46.0531c0,0-4.4611,14.2346-4.5277,24.6632s0,21.2377,0,21.2377-3.5955.8373-5.8593,0c0,0-2.73-19.7914-3.6621-27.0229S317.9,220.5943,317.9,220.5943Z" fill="#0088cc"/><path d="M316.8035,224.2347a39.981,39.981,0,0,0,21.1928,5.5554l.0951-10.1079L317.9,220.48S317.4531,221.9468,316.8035,224.2347Z" opacity="0.11"/><path d="M314.1295,187.9875c-1.44,1.831-1.3733,10.0207-1.9392,12.1514,0,0,1.4648,1.6313,5.16,1.4316,0,0-.799-7.5572-1.4648-10.1206A6.8364,6.8364,0,0,0,314.1295,187.9875Z" fill="#f4cf7a"/><path d="M318.4157,199.9724l-1.2581-.122c-.2774-2.3862-.807-6.61-1.2721-8.4006a6.8367,6.8367,0,0,0-1.7561-3.4623l1.1474,20.3468A40.1442,40.1442,0,0,0,318.4157,199.9724Z" opacity="0.11"/><path d="M326.4728,180.2433A35.93,35.93,0,0,1,333.93,184.44c2.93,2.3489,4.5276,35.707,4.5276,35.707-4.9271,1.1319-11.7186,8.2563-21.24,2.73,0,0-.1831-22.7048-3.0878-34.89a19.5551,19.5551,0,0,1,7.2825-5.9259A19.24,19.24,0,0,1,326.4728,180.2433Z" fill="#fbdb8a"/><path d="M330.4295,195.0463c1.3537,2.43,5.8236,10.5525,6.1751,12.461.4148,2.2514.5858,19.789.5858,19.789h2.6729s1.659-17.1821,1.3627-20.737c-.21-2.5243-3.5825-9.3173-5.521-13.0458A19.3766,19.3766,0,0,0,330.4295,195.0463Z" opacity="0.11"/><path d="M327.5812,214.07h13.3122a3.1211,3.1211,0,0,1,3.1211,3.1211v11.4123a3.1211,3.1211,0,0,1-3.1211,3.1211H327.5821a3.1211,3.1211,0,0,1-3.1211-3.1211V217.19A3.12,3.12,0,0,1,327.5812,214.07Z" fill="#e2e2e2"/><path d="M333.6188,226.7866l-4.9432-3.8908a.8208.8208,0,0,1-.0947-1.24,1.0474,1.0474,0,0,1,1.3737-.0855l3.4951,2.7523,4.9855-5.02a1.0489,1.0489,0,0,1,1.375-.0682.8209.8209,0,0,1,.0755,1.2415Z" fill="#e2e2e2"/><path d="M334.9616,198.441a85.0113,85.0113,0,0,1,3.1627,8.4894c.4994,2.2305-.2663,18.51-.2663,18.51s-3.429,5.4265-3.4956,6.059,1.1652-.233,1.598,0-.1331,1.4316.3662,1.598,2.9629-.1332,3.7952-1.1319a8.9094,8.9094,0,0,0,1.4981-5.3932s2.53-14.1819,1.9642-20.2745c-.3326-3.5807-3.5289-10.2538-3.5289-10.2538Z" fill="#feadae"/><path d="M340.0552,196.044l-5.0936,2.397s.205.4818.5113,1.2241c.83-.2793,3.147-1.063,5.384-1.8484C340.3918,196.7473,340.0552,196.044,340.0552,196.044Z" fill="#ffc494"/><path d="M314.1295,165.9235s.9412,9.8377,1.116,11.56,1.98,2.2722,2.9538,2.2222,2.2971,3.8452,2.2722,4.6192c0,0,3.0711,1.0487,6.0923-3.196l-.3745-3.6454s2.397-5.6429,1.8727-8.5393a7.1854,7.1854,0,0,0-6.5168-5.9425C318,162.8024,314.1295,165.9235,314.1295,165.9235Z" fill="#feadae"/><path d="M320.4715,184.3254s3.0712,1.0487,6.0924-3.196l-.3745-3.6454a34.3764,34.3764,0,0,0,1.3806-4.0574c-1.0982-.9614-2.1692-1.3366-2.4792.412-.6528,3.6818-4.8489,5.7591-6.7631,5.8852C319.2851,179.9895,320.4954,183.5848,320.4715,184.3254Z" fill="#feadae"/><path d="M311.6576,165.1s-2.6467-4.3445,0-6.6417,7.0911.6991,7.0911.6991a3.5388,3.5388,0,0,1,3.4956-.3,3.4644,3.4644,0,0,1,2.3471,2.9463,5.5331,5.5331,0,0,1,4.9937,4.3945c.8989,4.1947-3.3958,11.2858-3.3958,11.2858l-1.0986-3.6454a2.348,2.348,0,0,0,1.7645-2.1473c.1332-1.7978-.8156-2.58-1.4648-2.5468s-1.2817.6825-1.3816,2.3471a6.4958,6.4958,0,0,1-1.3983-5.543s-7.1719.8323-9.255.8323C310.226,166.7808,311.6576,165.1,311.6576,165.1Z" fill="#3d4177"/><path d="M331.4434,182.7428c2.7192,1.5493,4.55,1.6825,10.2431,13.2013a16.4888,16.4888,0,0,1-7.424,3.8285S327.0929,186.92,331.4434,182.7428Z" fill="#f4cf7a"/><path d="M319.3129,280.9745a16.7917,16.7917,0,0,0,2.1657-.3209s-.0665-10.8092,0-21.2377,4.5277-24.6632,4.5277-24.6632-5.8727,12.6681-7.2947,22.0156C317.4875,264.8146,318.8965,277.575,319.3129,280.9745Z" fill="#293882"/><path d="M186.4464,72.71c-14.959-.572-35.5537,10.4912-28.248,37.5416l2.84-1.3091c2.4907-20.1117,7.15-23.5912,15.0589-23.5187l18.5544-.0383c4.5853.6755,13.1441,4.745,14.3945,20.8448l4.3964-.0091C213.8029,94.5915,210.9877,73.6481,186.4464,72.71Z" fill="#fbdb8a"/><path d="M183.3868,73.15l-2.2219,4.8837a2.9326,2.9326,0,0,0,2.9641,2.6929c2.699-.0575,3.06-1.3039,3.06-1.3039l.3518-5.6065Z" fill="#feadae"/><path d="M194.8076,69.0773c-2.5328,4.4776-3.6549,5.8711-6.9665,6.544-4.289.8716-9.0981-2.02-6.8628-9.15,1.8228-5.8138,4.5822-4.918,7.2846-4.6984S197.5439,64.24,194.8076,69.0773Z" fill="#feadae"/><path d="M184.74,65.5443a1.8155,1.8155,0,0,0-2.0615.4978,2.2585,2.2585,0,0,0-.5679,2.159,1.9633,1.9633,0,0,0-1.8481,2.0639c-.7082-1.6525-.3252-3.3713-.4654-5.0624a6.5733,6.5733,0,0,1,1.1414-4.8249,5.5081,5.5081,0,0,1,1.6425-1.2662,8.4974,8.4974,0,0,1,7.6309-.1079,4.6328,4.6328,0,0,0,3.4329.6021c3.2677-.79,5.1794,1.42,3.2158,3.4895a2.6076,2.6076,0,0,1,1.6079,1.1151.5028.5028,0,0,1,.0134.49.5659.5659,0,0,1-.3.1858,3.5623,3.5623,0,0,1-1.7194.1367c.22.1874,1.4327.26,1.7987.9658.9738,1.8773-2.8859.9293-3.474.741.6719.1261,2.4343,1.5326,1.87,2.498-.1113.19-2.4914,1.5775-4.993-1.3285a4.5662,4.5662,0,0,0-2.17-1.53,3.4155,3.4155,0,0,0-2.0382.3161c-.4778.18-1.6979.922-2.0476.48C185.0247,66.68,185.52,65.932,184.74,65.5443Z" fill="#3d4177"/><path d="M209.52,106.2339c-.6628,2.2821-1.3338,2.5089-.53,2.8724s1.454-.9156,1.454-.9156l3.7109.738s-.8371-2.41-1.4219-2.7014A11.62,11.62,0,0,0,209.52,106.2339Z" fill="#feadae"/><path d="M161.0386,108.9422c.4845,1.204.6183,1.2118,1.2938,2.6594,1.2909,2.7662-1.733,7.14-3.61,2.3647a13.3569,13.3569,0,0,1-.5239-3.7149Z" fill="#feadae"/><circle cx="275.8956" cy="138.8827" r="15.3525" fill="#e2e2e2"/><ellipse cx="90.8359" cy="290.8766" rx="11.7375" ry="1.4997" fill="#2e5175" opacity="0.1"/><path d="M83.6192,264.7421c1.8761,9.239,5.263,14.1114,8.19,13.7624l-6.87-33.8327C84.3547,246.7784,81.9214,256.3818,83.6192,264.7421Z" fill="#f4cf7a"/><path d="M85.0609,244.248s-.0452.1489-.1215.4238l6.87,33.8327c.0674-.0081.1349-.0156.2017-.0292,2.9722-.6035,4.29-6.4672,2.3708-15.9188S85.0609,244.248,85.0609,244.248Z" fill="#fbdb8a"/><path d="M90.4155,270.8546q-.7029-3.4132-1.3966-6.8282-1.395-6.8287-2.8781-13.639a.04.04,0,0,0-.0786.016q.8767,4.6264,1.7906,9.2457a18.8064,18.8064,0,0,0-3.3778-2.2c-.0614-.0291-.1248.0666-.074.1117a19.33,19.33,0,0,0,3.5017,2.34c.2753,1.3949.5481,2.79.8294,4.1839q.6895,3.4158,1.3773,6.832c.4533,2.2643.7788,4.6052,1.415,6.8244a.1277.1277,0,0,0,.25-.0507C91.4948,275.399,90.8813,273.1162,90.4155,270.8546Z" fill="#2e5175"/><path d="M89.724,268.0269a39.317,39.317,0,0,0-5.6465-3.7229.0438.0438,0,0,0-.0483.0729,39.3084,39.3084,0,0,0,5.63,3.7472A.0583.0583,0,0,0,89.724,268.0269Z" fill="#2e5175"/><path d="M91.692,259.507c-.54.72-1.05,1.4624-1.5682,2.1986a11.5,11.5,0,0,0-1.2846,2.0656.066.066,0,0,0,.1059.07,11.49,11.49,0,0,0,1.4009-1.9885c.4757-.7642.96-1.5233,1.4128-2.3015A.04.04,0,0,0,91.692,259.507Z" fill="#2e5175"/><path d="M93.34,268.1838a34.4115,34.4115,0,0,0-2.6145,3.8743.073.073,0,0,0,.1215.0806,34.4016,34.4016,0,0,0,2.5477-3.9187A.0328.0328,0,0,0,93.34,268.1838Z" fill="#2e5175"/><path d="M91.3767,274.9412a30.7868,30.7868,0,0,0-4.644-3.0457.0475.0475,0,0,0-.0524.0791,30.79,30.79,0,0,0,4.6159,3.0882A.0729.0729,0,0,0,91.3767,274.9412Z" fill="#2e5175"/><path d="M94.3174,264.4474c-2.865,7.31-2.6991,12.2485-.494,13.328l10.4914-26.7676C102.9535,252.2167,96.91,257.8329,94.3174,264.4474Z" fill="#f4cf7a"/><path d="M104.5914,250.7664s-.0989.0837-.2767.2415L93.8234,277.7754c.0507.0248.1013.05.1542.0708,2.3515.9216,5.9243-2.5833,8.8552-10.0612S104.5914,250.7664,104.5914,250.7664Z" fill="#fbdb8a"/><path d="M96.3071,271.7949q1.0515-2.7047,2.11-5.4067,2.1119-5.4065,4.1536-10.84a.0334.0334,0,0,0-.0622-.0244q-1.4786,3.6319-2.928,7.2755a15.6548,15.6548,0,0,0-1.3676-3.0657.0581.0581,0,0,0-.1023.0447,16.0942,16.0942,0,0,0,1.391,3.22c-.4381,1.1-.8782,2.1991-1.3116,3.301Q97.1284,269,96.0649,271.7c-.7067,1.7886-1.5375,3.5728-2.0958,5.4125a.1063.1063,0,0,0,.1979.0775C95.0073,275.4611,95.61,273.5872,96.3071,271.7949Z" fill="#2e5175"/><path d="M97.1019,269.5047a32.74,32.74,0,0,0-2.2658-5.1565.0364.0364,0,0,0-.0668.0291,32.7438,32.7438,0,0,0,2.2436,5.1662A.0486.0486,0,0,0,97.1019,269.5047Z" fill="#2e5175"/><path d="M102.33,264.436c-.7033.26-1.3955.5481-2.0907.8286a9.5749,9.5749,0,0,0-1.8323.8639.055.055,0,0,0,.0423.0968,9.5617,9.5617,0,0,0,1.8788-.7573c.6782-.3193,1.36-.6312,2.0287-.9708A.0334.0334,0,0,0,102.33,264.436Z" fill="#2e5175"/><path d="M99.56,271.2494a28.65,28.65,0,0,0-3.58,1.5276.0607.0607,0,0,0,.0486.1112,28.6508,28.6508,0,0,0,3.5535-1.5887A.0273.0273,0,0,0,99.56,271.2494Z" fill="#2e5175"/><path d="M95.1316,275.0876a25.6405,25.6405,0,0,0-1.8709-4.23.04.04,0,0,0-.0723.0316,25.6321,25.6321,0,0,0,1.8319,4.2467A.0607.0607,0,0,0,95.1316,275.0876Z" fill="#2e5175"/><path d="M78.7964,268.9719c3.0178,6.3757,6.351,9.3087,8.4152,8.5308L76.16,254.1552C76.1131,255.79,76.0656,263.2026,78.7964,268.9719Z" fill="#f4cf7a"/><path d="M76.1729,253.8255s-.0062.1162-.0124.33l11.0511,23.3475c.0475-.0179.0952-.0355.1413-.0573,2.051-.9708,1.9582-5.4666-1.129-11.9891S76.1729,253.8255,76.1729,253.8255Z" fill="#fbdb8a"/><path d="M84.8285,272.1951q-1.122-2.3536-2.2376-4.71-2.2364-4.711-4.5338-9.3928a.03.03,0,0,0-.0542.0257q1.4655,3.2039,2.9568,6.3959a14.07,14.07,0,0,0-2.8479-.9932.0522.0522,0,0,0-.0337.0944,14.4579,14.4579,0,0,0,2.963,1.0727c.45.964.8979,1.9288,1.3519,2.8909q1.1127,2.358,2.2243,4.7165c.735,1.5637,1.3906,3.206,2.25,4.7042a.0955.0955,0,0,0,.1726-.0817C86.4266,275.3031,85.572,273.7546,84.8285,272.1951Z" fill="#2e5175"/><path d="M83.82,270.2647a29.4155,29.4155,0,0,0-4.7688-1.6931.0328.0328,0,0,0-.022.0616,29.4188,29.4188,0,0,0,4.7615,1.7136A.0437.0437,0,0,0,83.82,270.2647Z" fill="#2e5175"/><path d="M83.7233,263.7228c-.2633.62-.5009,1.2505-.7454,1.8781a8.6042,8.6042,0,0,0-.5632,1.7307.0494.0494,0,0,0,.0894.0319,8.5946,8.5946,0,0,0,.6615-1.6955c.2088-.64.4247-1.2786.6142-1.925A.03.03,0,0,0,83.7233,263.7228Z" fill="#2e5175"/><path d="M86.4748,269.731a25.75,25.75,0,0,0-1.2054,3.2829.0546.0546,0,0,0,.1027.0367,25.7353,25.7353,0,0,0,1.1489-3.3031A.0246.0246,0,0,0,86.4748,269.731Z" fill="#2e5175"/><path d="M86.2588,274.9917A23.0374,23.0374,0,0,0,82.34,273.611a.0355.0355,0,0,0-.0238.0668,23.034,23.034,0,0,0,3.9064,1.4167A.0546.0546,0,0,0,86.2588,274.9917Z" fill="#2e5175"/><path d="M100.9779,284.1068V275.674h-20.37v1.1l14.1655,14.1655A6.865,6.865,0,0,0,100.9779,284.1068Z" fill="#cdd1d3"/><path d="M80.6075,277.0287v7.3331a6.8657,6.8657,0,0,0,6.8658,6.8657h6.6389c.2231,0,.4432-.0125.6609-.0334Z" fill="#e2e2e2"/></svg>