<svg id="Layer_1" data-name="Layer 1" xmlns="http://www.w3.org/2000/svg" width="35" height="35" viewBox="0 0 35 35"><title>web-icon</title><circle cx="19.1777" cy="6.5986" r="0.6794" fill="#fff"/><path d="M3.75,31.92h27.5A2.7532,2.7532,0,0,0,34,29.17V11.2539H1V29.17A2.7532,2.7532,0,0,0,3.75,31.92ZM20.8473,18.0228a.5832.5832,0,0,1,.7562-.888l3.7747,3.2142a.5835.5835,0,0,1,0,.8884l-3.7747,3.2142a.5833.5833,0,0,1-.7562-.8884l3.253-2.77Zm-5.2552,8.275,2.3525-11.17a.5833.5833,0,0,1,1.1416.2405l-2.3525,11.17a.5835.5835,0,0,1-.57.4632.593.593,0,0,1-.1211-.0127A.5835.5835,0,0,1,15.5921,26.2978Zm-5.97-5.9489,3.7747-3.2142a.5832.5832,0,1,1,.7562.888L10.9,20.793l3.253,2.77a.5833.5833,0,1,1-.7562.8884L9.6218,21.2373a.5835.5835,0,0,1,0-.8884Z" fill="#ccc"/><circle cx="24.8495" cy="6.6165" r="0.6794" fill="#fff"/><path d="M31.25,3.08H3.75A2.7532,2.7532,0,0,0,1,5.83v4.2575H34V5.83A2.7532,2.7532,0,0,0,31.25,3.08ZM19.1777,8.4447a1.846,1.846,0,1,1,1.846-1.846A1.8481,1.8481,0,0,1,19.1777,8.4447Zm5.6718.0179a1.846,1.846,0,1,1,1.8461-1.8461A1.8486,1.8486,0,0,1,24.85,8.4626Zm5.6719.0176a1.8459,1.8459,0,1,1,1.8461-1.8461A1.8481,1.8481,0,0,1,30.5214,8.48Z" fill="#ccc"/><circle cx="30.5215" cy="6.6341" r="0.6793" fill="#fff"/></svg>