<svg id="Layer_1" data-name="Layer 1" xmlns="http://www.w3.org/2000/svg" width="40" height="40" viewBox="0 0 40 40"><title>wire-frame-designing</title><path d="M20,.42H9.5982a.7646.7646,0,0,0-.7648.7644v37.63a.7646.7646,0,0,0,.7644.7648H20a.7648.7648,0,0,0,.7648-.7648h0v-4.742a.765.765,0,0,0-1.53,0V38.05H10.363v-2.6h2.6258a.765.765,0,1,0,0-1.53H10.363V31.7785h.8227a.765.765,0,1,0,0-1.53H10.363V28.1073h2.6258a.765.765,0,1,0,0-1.53H10.363V24.4361h.8227a.765.765,0,1,0,0-1.53H10.363V20.7648h2.6258a.765.765,0,0,0,0-1.53H10.363V17.0936h.8227a.765.765,0,0,0,0-1.53H10.363V13.4224h2.6258a.765.765,0,0,0,0-1.53H10.363V9.7511h.8227a.765.765,0,0,0,0-1.53H10.363V6.08h2.6248a.765.765,0,1,0,0-1.53H10.363V1.95h8.8721V34.9543a.765.765,0,0,0,1.53,0V1.1849A.7648.7648,0,0,0,20,.42Z" fill="#0088cc"/><path d="M20,30.2489a.7654.7654,0,1,0,.5406.2242A.7654.7654,0,0,0,20,30.2489Z" fill="#0088cc"/><path d="M30.4018,15.5639a.7654.7654,0,1,0,.5406.2242A.7654.7654,0,0,0,30.4018,15.5639Z" fill="#0088cc"/><path d="M31.1062,8.0766l-3.04-7.19A.7645.7645,0,0,0,27.3633.42h-.0017a.7654.7654,0,0,0-.7032.4637L23.58,8.0733a.7646.7646,0,0,0-.0617.3012V35.7557a3.8242,3.8242,0,0,0,7.6484.0027v-23.37a.765.765,0,0,0-1.53,0h0v20.5h-1.53V9.1393h1.53v4.13a.765.765,0,0,0,1.53,0V8.3744A.7668.7668,0,0,0,31.1062,8.0766ZM25.4426,7.61l.6549-1.53h2.5037l.6468,1.53ZM27.357,3.1381,27.9543,4.55H26.7526Zm2.28,32.6176a2.2945,2.2945,0,1,1-4.589,0V34.4172h4.589Zm-3.0594-2.8682h-1.53V9.1393h1.53Z" fill="#0088cc"/></svg>