<svg id="Layer_1" data-name="Layer 1" xmlns="http://www.w3.org/2000/svg" width="371" height="339" viewBox="0 0 371 339"><title>hire-ios</title><path d="M134.6615,39.07c29.1875-.31,58.1364-5.43,84.96-15.8043,15.9907-6.1842,53.9158-10.0023,78.4124-5.8445,21.266,3.6095,71.9208,20.07,50.5173,75.8416S299.8447,154.834,319.928,191.234c14.75,26.7331,40.0954,53.271,17.8466,74.6516-34.6,33.25-176.6989,82.5386-250.465,42.4049s-89.4011-54.5767-67.197-117.4656-35.2515-70.507-5.2058-117.1432C32.9278,45.71,91.0359,39.5337,134.6615,39.07Z" fill="#f1f3f7"/><path d="M212.8113,88.9024c12.6792,8.7534,22.189,10.6528,25.2408,6.9244L191.6215,63.7724C193.32,66.9155,201.3379,80.9816,212.8113,88.9024Z" fill="#f4cf7a"/><path d="M191.2844,63.1356s.1154.2265.3372.6368l46.4306,32.0544c.07-.0859.1411-.1712.2044-.263,2.816-4.0788-2.277-12.4772-15.248-21.432S191.2844,63.1356,191.2844,63.1356Z" fill="#fbdb8a"/><path d="M227.7413,88.3982q-4.6956-3.2227-9.3825-6.4578-9.3812-6.46-18.8453-12.7992a.0656.0656,0,0,0-.0744.1079q6.2752,4.4544,12.586,8.8582a30.7349,30.7349,0,0,0-6.4707,1.2372.114.114,0,0,0,.0394.2154,31.5912,31.5912,0,0,0,6.7753-1.2127q2.8574,1.9958,5.718,3.9868,4.6828,3.241,9.3641,6.4843c3.1,2.1527,6.1358,4.54,9.4,6.4326a.2086.2086,0,0,0,.237-.3431C234.1621,92.5265,230.8527,90.5336,227.7413,88.3982Z" fill="#2e5175"/><path d="M223.7226,85.8522a64.2549,64.2549,0,0,0-10.868,2.0148.0715.0715,0,0,0,.0258.1407A64.2409,64.2409,0,0,0,223.7568,86.04.0953.0953,0,0,0,223.7226,85.8522Z" fill="#2e5175"/><path d="M216.385,73.5893c.18,1.46.4208,2.912.6449,4.3661a18.7936,18.7936,0,0,0,.8282,3.8881.1079.1079,0,0,0,.204-.0375,18.7783,18.7783,0,0,0-.6038-3.9291c-.3058-1.4389-.5956-2.8819-.9445-4.3111A.0655.0655,0,0,0,216.385,73.5893Z" fill="#2e5175"/><path d="M228.1587,81.939a56.2379,56.2379,0,0,0,1.3118,7.525.1192.1192,0,0,0,.2344-.0429,56.2217,56.2217,0,0,0-1.4408-7.5016A.0536.0536,0,0,0,228.1587,81.939Z" fill="#2e5175"/><path d="M233.5043,92.1214a50.3142,50.3142,0,0,0-8.92,1.6762.0775.0775,0,0,0,.0279.1525,50.3191,50.3191,0,0,0,8.9351-1.5944A.1192.1192,0,0,0,233.5043,92.1214Z" fill="#2e5175"/><path d="M225.0752,76.4317c4.91,11.8541,10.702,17.482,14.522,16.2543l-17.98-43.41C221.3845,52.2427,220.6323,65.7048,225.0752,76.4317Z" fill="#f4cf7a"/><path d="M221.67,48.6786s-.0217.2106-.0521.5979l17.98,43.41c.0879-.0283.1761-.0559.2619-.0914,3.8134-1.58,4.0487-9.7556-.9742-21.8827S221.67,48.6786,221.67,48.6786Z" fill="#fbdb8a"/><path d="M235.7445,82.8291q-1.8268-4.3766-3.642-8.7583-3.64-8.76-7.393-17.4716a.0546.0546,0,0,0-.1008.0418q2.3746,5.9524,4.7971,11.8854a25.5843,25.5843,0,0,0-5.0846-2.06.0949.0949,0,0,0-.07.1685,26.3024,26.3024,0,0,0,5.2867,2.215c.7307,1.7918,1.458,3.5848,2.1964,5.3735q1.81,4.3838,3.6174,8.7685c1.1947,2.907,2.2384,5.9495,3.6657,8.7486a.1738.1738,0,0,0,.3208-.1329C238.3687,88.6192,236.9551,85.7293,235.7445,82.8291Z" fill="#2e5175"/><path d="M234.0852,79.2315a53.5068,53.5068,0,0,0-8.5116-3.5044.06.06,0,0,0-.0456.11,53.5125,53.5125,0,0,0,8.4965,3.5411A.0794.0794,0,0,0,234.0852,79.2315Z" fill="#2e5175"/><path d="M234.4977,67.3379c-.534,1.1028-1.0222,2.2269-1.5229,3.345a15.6481,15.6481,0,0,0-1.1786,3.0937.09.09,0,0,0,.16.0661,15.6265,15.6265,0,0,0,1.3542-3.0209c.4368-1.1446.8865-2.2848,1.2887-3.4422A.0547.0547,0,0,0,234.4977,67.3379Z" fill="#2e5175"/><path d="M238.9569,78.5a46.8227,46.8227,0,0,0-2.4847,5.8559.0993.0993,0,0,0,.1833.0759,46.8234,46.8234,0,0,0,2.384-5.8978A.0447.0447,0,0,0,238.9569,78.5Z" fill="#2e5175"/><path d="M238.0918,88.0385a41.9038,41.9038,0,0,0-6.9963-2.8607.0646.0646,0,0,0-.0493.1192,41.89,41.89,0,0,0,6.97,2.9247A.0993.0993,0,0,0,238.0918,88.0385Z" fill="#2e5175"/><path d="M211.9256,99.3486c10.7788,4.0879,18.0276,3.7644,19.5768.5091l-39.4715-14.97C193.828,86.8672,202.172,95.6495,211.9256,99.3486Z" fill="#f4cf7a"/><path d="M191.6719,84.4859s.1244.1439.359.4023l39.4715,14.97c.0357-.0749.0719-.15.1014-.2276,1.3151-3.4674-3.889-8.6563-14.916-12.8384S191.6719,84.4859,191.6719,84.4859Z" fill="#fbdb8a"/><path d="M222.6814,96.3081q-3.9885-1.5-7.9727-3.0108-7.9722-3.0131-15.983-5.9227a.049.049,0,0,0-.0347.0917q5.3565,2.112,10.73,4.1808a22.9945,22.9945,0,0,0-4.4791,2.0579.0853.0853,0,0,0,.0673.1494,23.6282,23.6282,0,0,0,4.7048-2.0946c1.6222.6254,3.2431,1.2538,4.868,1.8721q3.9824,1.5157,7.9641,3.0333c2.6375,1.0085,5.2706,2.1994,7.9809,2.9893a.1561.1561,0,0,0,.1106-.2918C228.0853,98.1571,225.3242,97.3021,222.6814,96.3081Z" fill="#2e5175"/><path d="M219.3059,95.1783a48.0731,48.0731,0,0,0-7.5342,3.41.0535.0535,0,0,0,.0439.0975,48.0784,48.0784,0,0,0,7.5489-3.3779A.0713.0713,0,0,0,219.3059,95.1783Z" fill="#2e5175"/><path d="M211.7789,87.5841c.3926,1.0284.8273,2.04,1.2505,3.0562a14.0616,14.0616,0,0,0,1.2981,2.6763.0808.0808,0,0,0,.1415-.0638,14.0459,14.0459,0,0,0-1.1424-2.7462c-.48-.9906-.9489-1.987-1.4582-2.9627A.0491.0491,0,0,0,211.7789,87.5841Z" fill="#2e5175"/><path d="M221.8276,91.5409a42.0831,42.0831,0,0,0,2.3009,5.2317.0892.0892,0,0,0,.1626-.0731,42.0586,42.0586,0,0,0-2.39-5.1915A.04.04,0,0,0,221.8276,91.5409Z" fill="#2e5175"/><path d="M227.5349,97.9805a37.65,37.65,0,0,0-6.18,2.8156.058.058,0,0,0,.0476.1056,37.644,37.644,0,0,0,6.2054-2.7586A.0892.0892,0,0,0,227.5349,97.9805Z" fill="#2e5175"/><path d="M340.3457,257.8583c-4.7435,8.0252-5.4851,13.8457-3.1048,15.5289l17.37-29.3878C352.7863,245.1585,344.6379,250.5963,340.3457,257.8583Z" fill="#f4cf7a"/><path d="M354.9811,243.7688s-.1318.0793-.37.2306l-17.37,29.3878c.0549.0387.1093.0779.1674.1122,2.5817,1.526,7.4337-1.9054,12.2864-10.1153S354.9811,243.7688,354.9811,243.7688Z" fill="#fbdb8a"/><path d="M341.2855,266.8479q1.7452-2.9712,3.4983-5.9377,3.5-5.9371,6.9228-11.919a.04.04,0,0,0-.0683-.04q-2.4213,3.977-4.8107,7.9734a18.5963,18.5963,0,0,0-1.0222-3.8528.069.069,0,0,0-.1284.033,19.1144,19.1144,0,0,0,1.02,4.0377q-1.083,1.81-2.1629,3.6208-1.7568,2.9643-3.515,5.9278c-1.1673,1.9626-2.4792,3.8966-3.4823,5.9471a.1262.1262,0,0,0,.2172.1284C339.0671,270.8989,340.1291,268.8166,341.2855,266.8479Z" fill="#2e5175"/><path d="M342.6511,264.3139a38.8777,38.8777,0,0,0-1.6787-6.4737.0433.0433,0,0,0-.0838.0215,38.8692,38.8692,0,0,0,1.6508,6.4808A.0577.0577,0,0,0,342.6511,264.3139Z" fill="#2e5175"/><path d="M349.74,259.3634c-.8736.171-1.74.3779-2.6077.5751a11.3712,11.3712,0,0,0-2.3114.6653.0653.0653,0,0,0,.0313.1216,11.3618,11.3618,0,0,0,2.3457-.5316c.8555-.2458,1.7141-.4822,2.5618-.7536A.04.04,0,0,0,349.74,259.3634Z" fill="#2e5175"/><path d="M345.2018,266.8248a34.027,34.027,0,0,0-4.4859,1.112.0721.0721,0,0,0,.0359.14,34.0172,34.0172,0,0,0,4.4663-1.1889A.0324.0324,0,0,0,345.2018,266.8248Z" fill="#2e5175"/><path d="M339.2837,270.4846a30.4428,30.4428,0,0,0-1.3914-5.3124.0469.0469,0,0,0-.0908.0234,30.4458,30.4458,0,0,0,1.3426,5.325A.0721.0721,0,0,0,339.2837,270.4846Z" fill="#2e5175"/><path d="M348.3944,264.7294c-6.9456,3.4679-10.0958,7.2034-9.1922,9.4567l25.4347-12.7C362.8367,261.4722,354.68,261.5912,348.3944,264.7294Z" fill="#f4cf7a"/><path d="M365,261.4926s-.128-.0041-.3631-.006l-25.4347,12.7c.0208.0518.0412.1039.0663.1542,1.1156,2.2344,6.06,2.0283,13.1659-1.5194S365,261.4926,365,261.4926Z" fill="#fbdb8a"/><path d="M344.9874,271.4412q2.5638-1.2889,5.1311-2.5709,5.132-2.57,10.23-5.2058a.033.033,0,0,0-.03-.0591q-3.4916,1.6866-6.9693,3.4012a15.48,15.48,0,0,0,1.027-3.1565.0574.0574,0,0,0-.1047-.035,15.9144,15.9144,0,0,0-1.1119,3.2851c-1.05.5173-2.1016,1.0326-3.15,1.5544q-2.5688,1.279-5.1383,2.5565c-1.7037.8448-3.4956,1.6042-5.1242,2.5848a.1051.1051,0,0,0,.0939.188C341.6045,273.2714,343.2885,272.2953,344.9874,271.4412Z" fill="#2e5175"/><path d="M347.0881,270.2866A32.3745,32.3745,0,0,0,348.8409,265a.036.036,0,0,0-.0683-.0228,32.3779,32.3779,0,0,0-1.7756,5.2788A.048.048,0,0,0,347.0881,270.2866Z" fill="#2e5175"/><path d="M354.2841,270.0293c-.6883-.2753-1.3875-.5222-2.0837-.7768a9.4679,9.4679,0,0,0-1.9174-.58.0544.0544,0,0,0-.0331.0991,9.4549,9.4549,0,0,0,1.8809.6887c.7094.2149,1.4168.4378,2.1324.6313A.0331.0331,0,0,0,354.2841,270.0293Z" fill="#2e5175"/><path d="M347.7368,273.1958a28.33,28.33,0,0,0-3.64-1.25.06.06,0,0,0-.038.1138,28.3307,28.3307,0,0,0,3.6611,1.1878A.027.027,0,0,0,347.7368,273.1958Z" fill="#2e5175"/><path d="M341.9432,273.08a25.354,25.354,0,0,0,1.4288-4.3444.0391.0391,0,0,0-.0741-.0247,25.3457,25.3457,0,0,0-1.4685,4.3311A.06.06,0,0,0,341.9432,273.08Z" fill="#2e5175"/><path d="M334.0031,257.7683c-2.0085,6.68-1.5046,11.0409.526,11.8374l7.3548-24.46C340.766,246.3142,335.8206,251.724,334.0031,257.7683Z" fill="#f4cf7a"/><path d="M342.1115,244.9114s-.0815.0812-.2275.2338l-7.3548,24.46c.0467.0183.0934.037.1417.0515,2.1487.6461,5.059-2.7157,7.1138-9.5491S342.1115,244.9114,342.1115,244.9114Z" fill="#fbdb8a"/><path d="M336.296,264.1306q.7356-2.4711,1.4778-4.94,1.4792-4.94,2.8943-9.8987a.03.03,0,0,0-.0568-.017q-1.0467,3.3228-2.0666,6.654a13.9129,13.9129,0,0,0-1.4327-2.6158.0516.0516,0,0,0-.0873.047,14.2964,14.2964,0,0,0,1.4645,2.75c-.3084,1.0057-.6187,2.0107-.9227,3.0178q-.7453,2.4681-1.4918,4.9359c-.4964,1.6348-1.1031,3.2747-1.4645,4.9441a.0945.0945,0,0,0,.1808.0543C335.41,267.4709,335.8086,265.768,336.296,264.1306Z" fill="#2e5175"/><path d="M336.8343,262.0452a29.0868,29.0868,0,0,0-2.3791-4.4022.0324.0324,0,0,0-.057.0307,29.09,29.09,0,0,0,2.36,4.4124A.0432.0432,0,0,0,336.8343,262.0452Z" fill="#2e5175"/><path d="M341.0974,257.179c-.604.2807-1.1961.5862-1.7914.8849a8.5081,8.5081,0,0,0-1.56.8974.0489.0489,0,0,0,.0445.0827,8.4986,8.4986,0,0,0,1.6088-.8064c.5775-.3318,1.1589-.6573,1.7261-1.0062A.03.03,0,0,0,341.0974,257.179Z" fill="#2e5175"/><path d="M339.137,263.4124a25.4625,25.4625,0,0,0-3.06,1.6114.054.054,0,0,0,.051.095,25.4477,25.4477,0,0,0,3.0316-1.6636A.0243.0243,0,0,0,339.137,263.4124Z" fill="#2e5175"/><path d="M335.4932,267.1311a22.78,22.78,0,0,0-1.9624-3.61.0351.0351,0,0,0-.0617.0332,22.7767,22.7767,0,0,0,1.9291,3.6279A.054.054,0,0,0,335.4932,267.1311Z" fill="#2e5175"/><polygon points="31.028 173.984 20.763 236.642 18.751 236.642 26.832 173.984 31.028 173.984" fill="#cdd1d3"/><polygon points="40.531 173.983 50.83 236.639 52.842 236.639 44.727 173.982 40.531 173.983" fill="#cdd1d3"/><rect x="22.6234" y="171.479" width="25.9592" height="3.6265" transform="translate(71.7351 346.4749) rotate(179.825)" fill="#cdd1d3"/><rect x="20.3836" y="227.4011" width="30.5815" height="1.9246" transform="translate(72.0466 456.6167) rotate(179.8249)" fill="#cdd1d3"/><rect x="26.3504" y="186.1858" width="18.3979" height="2.4856" transform="translate(71.6714 374.7477) rotate(179.8249)" fill="#cdd1d3"/><path d="M46.1126,114.6063c2.2866,1.9313,3.8012,4.3545,4.407,9.8068s.6058,15.1453,1.5145,17.5685c0,0-3.7506,4.2407-4.6593,3.9378s-3.0648-15.4482-3.9735-20.1432S46.1126,114.6063,46.1126,114.6063Z" fill="#feadae"/><path d="M43.7215,221.4556c1.3669,1.3037,4.4648,3.6558,3.9016,5.0463s-6.2267.9286-9.8712-1.945a56.804,56.804,0,0,0-5.8371-4.3221c-1.4394-.8908-2.6741-3.5543,1.3057-5.6218a22.9881,22.9881,0,0,0,5.68,4.6136A30.5307,30.5307,0,0,0,43.7215,221.4556Z" fill="#4e477f"/><path d="M40.2017,212.7795c-.2785-.1458-1.1349,3.0721-1.1349,3.0721s3.8708,4.6154,4.6547,5.6039-3.7071,1.57-6.3189-.3642c-1.3181-.9759-4.7925-3.6069-4.9879-4.9177s2.4695-4.7582,3.2686-7.4148Z" fill="#feadae"/><path d="M47.4269,154.9605s5.7809,10.4731,8.718,16.4506c2.21,4.4982,3.5217,7.915,3.5966,10.18.0982,2.9745-4.66,9.721-8.3194,16.7715-2.2956,4.4233-10.3339,16.7382-10.3339,16.7382s-4.4276-2.0764-6.1106-4.3434c0,0,10.5977-24.3294,11.5153-28.1925A70.875,70.875,0,0,0,38.4,170.1475c-4.5216-5.27-9.4721-9.0966-7.7713-13.5,0,0,9.79-6.5172,12.4231-6.1278S47.4269,154.9605,47.4269,154.9605Z" fill="#293882"/><path d="M52.38,227.0679c1.5717,1.0478,6.7855,2.829,6.4712,4.296s-7.7285,2.43-11.8149.2294a34.0389,34.0389,0,0,0-6.4963-2.8091c-1.5717-.6287-3.2481-3.9167.3143-6.6409a22.988,22.988,0,0,0,6.3916,3.5625A30.5249,30.5249,0,0,0,52.38,227.0679Z" fill="#473e73"/><path d="M46.4072,219.1047c-.3143,0,.4191,3.2482.4191,3.2482s4.61,3.8768,5.5533,4.7151-3.38,2.1868-6.2868.7335c-1.4669-.7335-5.3437-2.7243-5.7629-3.9816s.7335-3.4577.21-6.182Z" fill="#feadae"/><path d="M47.7777,170.0265c2.1,4.5506,5.1369,10.4352,5.8537,12.5854.9411,2.8234-6.5486,38.29-6.5486,38.29s-5.6467.3162-7.9054-1.3778c0,0,2.7262-30.8154,2.506-34.78a93.6316,93.6316,0,0,0-11.4667-10.72c-1.2217-.963-6.1606-1.8077-7.8871-3.6586-3.0245-3.2424-2.1084-9.9565-1.9178-12.3388,0,0,10.682-6.063,13.3171-6.4395S44.0057,161.8537,47.7777,170.0265Z" fill="#0088cc"/><path d="M35.5686,94.9072l1.6224-6.171a6.7142,6.7142,0,0,1,5.5417.9163c2.7355,1.8593,5.0088,4.2208,5.7848,5.8186,1.384,2.85.0347,6.3207-1.4645,8.4613a36.1606,36.1606,0,0,0-3.8783,6.6749c-.4228,1.37-.0917,7.0663-.0917,7.0663S38.6752,119.09,35.359,116.31s-2.96-12.8772-2.96-12.8772Z" fill="#3d4177"/><path d="M44.9161,95.4449a32.9726,32.9726,0,0,0-4.8682-5.3857c-5.395-4.4179-12.5874,1.5241-13.7249,5.7294-2.6083,9.6423-.4417,17.689-.7573,19.0831s7.7487,3.7105,7.7487,3.7105-.3815-11.5334,2.0077-15.6144S44.9161,95.4449,44.9161,95.4449Z" fill="#3d4177"/><path d="M44.2018,95.1141c-2.645.46-6.2243,4.34-8.285,5.2265s-1.9818-.9559-3.5023-.9619-1.5718,1.9585-.64,3.5751a12.8472,12.8472,0,0,0,1.0833,1.6488c1.1521,1.5869.4293,3.3719,3.9519,5.24,1.894,1.0046,4.7587-.1064,6.5765-2.9077s3.0313-11.15,3.0313-11.15S46.3141,94.7468,44.2018,95.1141Z" fill="#feadae"/><path d="M38.3806,108.8965a16.9729,16.9729,0,0,0,.41,4.8218s-6.5772-.929-8.5265-1.3393c0,0,2.8672-5.3377,3.0949-7.5Z" fill="#feadae"/><path d="M34.9951,112.2821l-2.4622-1.4363s-2.9752.9233-5.54,1.4363-3.2782.6943-3.2782.6943S26.48,123.875,34.2769,123.9776s9.3358-10.054,9.3358-10.054l-5.027-1.8466Z" fill="#feadae"/><path d="M44.8,131.6829c-3.59,6.2227-2.4232,9.2386-1.8174,12.5706.8537,4.6951,3.258,7.1144,4.8938,10.1759-4.8985.8442-7.0281,5.94-11.5139,5.28-7.4635-1.0975-12.5757.3653-16.9753.0732.9776-10.2031.6352-14.2791,1.6094-21.5855a160.8477,160.8477,0,0,1,3.2059-15.95,25.6428,25.6428,0,0,0,.1626-4.5541,12.1785,12.1785,0,0,0-1.7078-4.554l6.0457-1.22s4.31,4.31,7.7257,3.4968,4.1952-3.0567,4.1952-3.0567c4.3914,1.1385,5.4886,2.2469,5.4886,2.2469.722,1.2921-.9457,7.651-.9457,7.651C45.6549,124.3717,47.0719,127.7451,44.8,131.6829Z" fill="#fbdb8a"/><path d="M36.0916,153.6435s2.3475.2272,3.6349.4544a20.9147,20.9147,0,0,1,4.3164,1.8174,11.7813,11.7813,0,0,1,.9087.833s-3.4834-.3029-4.165-.3029-7.1794.5-7.1794.5l-2.4379-4.211Z" fill="#feadae"/><path d="M22.6575,113.1391a6.1715,6.1715,0,0,0-4.398,3.4445c-1.5474,3.0948-1.5137,25.94-1.5137,25.94s-.201,1.4457,4.1911,5.6864c4.4875,4.3327,12.67,8.7354,12.67,8.7354l3.212-2.2906s-6.6706-5.5932-8.3913-8.1784c-2.6076-3.9178-5.0106-7.6466-5.0106-7.6466s.5387-14.272.7852-16.583S25.5081,116.1421,22.6575,113.1391Z" fill="#feadae"/><rect x="35.8888" y="157.2061" width="1.2254" height="0.6213" fill="#fff"/><g id="_Group_" data-name="&lt;Group&gt;"><path id="_Path_" data-name="&lt;Path&gt;" d="M65.96,157.02l-.0006,0a.0755.0755,0,0,1-.0986-.0418l-.1507-.3694a.0761.0761,0,0,1,.0425-.0988.0751.0751,0,0,1,.0987.0419l.15.3692A.0773.0773,0,0,1,65.96,157.02Z" fill="#0088cc" fill-rule="evenodd"/><ellipse id="_Path_2" data-name="&lt;Path&gt;" cx="61.273" cy="145.4427" rx="0.216" ry="0.362" transform="translate(-50.2735 33.7944) rotate(-22.1289)" fill="#0088cc"/><path id="_Path_3" data-name="&lt;Path&gt;" d="M65.9875,156.631c-.0111-.1861-.0521-.8322-.0648-.8871a2.7986,2.7986,0,0,0-.0987-.3685c-.0674-.1988-.14-.2139-.5972-1.4037s-3.1075-7.5379-3.2688-7.9346-.1452-.4777-.2775-.5834-.1536-.0931-.2267-.0677c-.03.0106-.1072.0376-.1934.07-.0843.0377-.1578.0717-.1875.0855-.0706.0331-.0951.0382-.1152.2061s.0473.2162.2084.6117,2.6908,6.7945,3.1931,7.9657.4611,1.2324.5509,1.4218a2.92,2.92,0,0,0,.1863.3325c.0292.0487.4508.54.5728.681Z" fill="#0088cc" fill-rule="evenodd"/><path id="_Path_4" data-name="&lt;Path&gt;" d="M65.01,154.42l-.183.0743a.1074.1074,0,0,1-.139-.0594l-1.0586-2.6042a.1071.1071,0,0,1,.0592-.1391l.1822-.074a.1073.1073,0,0,1,.14.0582l1.0583,2.6046A.1077.1077,0,0,1,65.01,154.42Z" fill="#0088cc" fill-rule="evenodd"/><path id="_Path_5" data-name="&lt;Path&gt;" d="M64.6879,154.4349a.1074.1074,0,0,0,.139.0594l.0918-.0372-1.1395-2.8023-.0907.0369a.1071.1071,0,0,0-.0592.1391Z" fill="#0088cc" fill-rule="evenodd"/><path id="_Path_6" data-name="&lt;Path&gt;" d="M64.8269,154.4943a.1074.1074,0,0,1-.139-.0594l-1.0586-2.6042a.1071.1071,0,0,1,.0592-.1391l.0907-.0369-2.5188-6.199c-.0843.0377-.1578.0717-.1875.0855-.0706.0331-.0951.0382-.1152.2061s.0473.2162.2084.6117,2.6908,6.7945,3.1931,7.9657.4611,1.2324.5509,1.4218a2.92,2.92,0,0,0,.1863.3325c.0292.0487.4508.54.5728.681l.0886-.0357.0708-.0288-.0757-.1862-.8343-2.0522Z" fill="#0088cc" fill-rule="evenodd"/><path id="_Path_7" data-name="&lt;Path&gt;" d="M65.8286,156.6955l-.0708.0288.1033.2531a.0765.0765,0,0,0,.0992.0422Z" fill="#0088cc" fill-rule="evenodd"/></g><rect x="26.8089" y="156.5299" width="51.8919" height="1.5821" transform="translate(105.5097 314.6418) rotate(-180)" fill="#babcbe"/><path d="M60.1391,153.0107s2.3475.2272,3.6349.4544a20.9147,20.9147,0,0,1,4.3164,1.8174c.2272.1515-2.5747.53-3.2562.53s-7.1794.5-7.1794.5l-4.6528-9.2736Z" fill="#feadae"/><path d="M46.743,143.5569c.5677-.7942,4.88-3.28,5.379-1.5821,1.5821,5.379,6.6447,11.3909,8.2268,12.0237,2.8382,1.1353.5168.7327-.3164,1.8985s-4.736-1.1492-7.2775-2.8477-6.8437-8.5884-6.01-9.7543" fill="#feadae"/><polygon points="182.683 185.572 191.767 241.747 193.549 241.747 186.396 185.572 182.683 185.572" fill="#cdd1d3"/><polygon points="174.271 185.571 165.156 241.744 163.375 241.744 170.558 185.571 174.271 185.571" fill="#cdd1d3"/><rect x="177.0075" y="173.4639" width="3.2513" height="22.9763" transform="translate(-6.8708 363.0121) rotate(-89.8227)" fill="#cdd1d3"/><rect x="177.7071" y="220.791" width="1.7255" height="27.0675" transform="translate(-56.3066 412.1684) rotate(-89.8226)" fill="#cdd1d3"/><rect x="177.5664" y="189.4838" width="2.2284" height="16.2839" transform="translate(-19.4974 375.6936) rotate(-89.8226)" fill="#cdd1d3"/><polygon points="176.899 230.228 174.873 225.795 170.431 227.43 171.664 231.991 176.899 230.228" fill="#feadae"/><path d="M176.8912,230.16l1.0662,3.6219-4.6958,1.4837s-10.6,4.45-12.5751,2.3866c-.9047-.9454,2.5461-1.8783,4.761-3.3444s5.6938-3.5369,5.6938-3.5369A22.36,22.36,0,0,0,176.8912,230.16Z" fill="#473e73"/><polygon points="153.435 236.778 152.743 231.954 148.02 232.268 147.915 236.991 153.435 236.778" fill="#feadae"/><path d="M153.4465,236.71v3.7752l-4.9236.0976s-11.4254,1.2765-12.7372-1.26c-.601-1.1622,2.9729-1.083,5.5116-1.8641s6.4608-1.7855,6.4608-1.7855A22.3616,22.3616,0,0,0,153.4465,236.71Z" fill="#473e73"/><path d="M110.7379,153.6118l6.5247-2.1649,5.7763,1.4624c3.2521-.8454,4.3341-.7982,10.9929-2.51A90.8372,90.8372,0,0,0,146.111,146.07l4.7858-8.0233c3.0968.2815,9.6013,3.66,9.6013,3.66s-8.8974,12.1054-11.4312,12.95-19.6152,2.927-26.1269,2.18c-2.0508-.2353-6.0646-2.4061-6.0646-2.4061l-5.1488.8551-4.0146,2.71-.7011-.58,1.5973-1.7494Z" fill="#e5989b"/><path d="M155.8328,122.7675s8.2963,1.3888,8.1555,8.8491c-.0917,4.8589-6.7565,13.9353-6.7565,13.9353s-3.66-5.0674-8.1641-6.475c0,0,2.9256-8.5817,3.82-11.2658A12.67,12.67,0,0,1,155.8328,122.7675Z" fill="#f4cf7a"/><path d="M176.605,119.4242s-.0355-.6321-2.2877-1.1951a4.5656,4.5656,0,0,1-1.9682-.6122,15.86,15.86,0,0,1-4.1185-6.7458,1.912,1.912,0,0,1-.0969-.9926q-2.2832,1.9353-4.4086,4.047c-.4844.4814-3.4161.2088-3.0616.8618.0991.1826.8461,1.8907,1.5808,3.5454-1.4223.9313-2.9883,2.1485-2.9883,2.1485l-1.9706,10.9793,5.7711,3.2375a50.4657,50.4657,0,0,0,10.6978-3.66C177.9771,128.7861,176.605,119.4242,176.605,119.4242Z" fill="#e5989b"/><path d="M160.7979,165.5245s-23.4337,13.9228-24.8273,19.6712c-1.663,6.86,9.5762,47.481,9.5762,47.481,2.6506,1.7834,7.5638,1.1809,9.3715-.4414,0,0-9.041-34.7582-8.0557-37.0807,2.4114-5.6838,22.944-12.4573,29.4189-18.6507s7.038-12.1054,7.038-12.1054Z" fill="#293882"/><path d="M187.5879,159.298s7.982,16.6428.8032,23.3993c-3.2865,3.0931-22.9482.2816-24.0742,3.3783l11.87,39.4351s-2.0935,1.2729-6.3164,3.3843c0,0-24.6973-43.5233-22.1636-49.1537s19.5657-8.8679,20.41-11.9646a68.55,68.55,0,0,0,1.4076-8.1641Z" fill="#0088cc"/><path d="M153.7274,114.1553c.51,1.9326,1.4157,4.0614,3.3127,4.6905,1.7434.5781,3.5959-.3549,5.1739-1.2948a14.4254,14.4254,0,0,0,4.9274-4.1238c1.8019-2.74,3.26-6.087,3.0574-9.36-.0715-1.157-1.7647-2.5759-2.4672-3.4981a5.1922,5.1922,0,0,0-1.9754-1.4177,20.6547,20.6547,0,0,0-5.5474-1.7337c-3.2032-.522-6.7651.1944-7.4054,3.712A31.2483,31.2483,0,0,0,153.7274,114.1553Z" fill="#feadae"/><path d="M160.0671,109.8826a3.05,3.05,0,1,1,3.0546-3.05A3.0563,3.0563,0,0,1,160.0671,109.8826Zm0-5.5359a2.4858,2.4858,0,1,0,2.4909,2.4858A2.4916,2.4916,0,0,0,160.0671,104.3467Z" fill="#3d4177"/><path d="M155.4681,105.2077l-.4506-.34a2.0727,2.0727,0,0,1,1.5634-.8249,2.3936,2.3936,0,0,1,1.85.7394l-.4091.3889a1.8429,1.8429,0,0,0-1.4093-.5652A1.5166,1.5166,0,0,0,155.4681,105.2077Z" fill="#3d4177"/><path d="M153.33,109.8826a3.05,3.05,0,1,1,3.0546-3.05A3.0558,3.0558,0,0,1,153.33,109.8826Zm0-5.5359a2.4858,2.4858,0,1,0,2.4909,2.4858A2.4911,2.4911,0,0,0,153.33,104.3467Z" fill="#3d4177"/><path d="M174.0293,118.2291a12.7467,12.7467,0,0,1-5.9119,4.9266c-4.2228,1.83-8.0233-3.66-8.0233-3.66l-4.2613,3.2715s-.3838,14.9665,1.4461,23.1305,3.519,19.6265,3.519,19.6265,1.8873,2.7672,4.2994,2.93c2.951.2,7.0154-2.1112,13.4365-.96a35.6289,35.6289,0,0,0,12.4278.1565s-5.48-26.7806-6.7472-32.1295-4.5545-16.3078-4.5545-16.3078A45.24,45.24,0,0,0,174.0293,118.2291Z" fill="#fbdb8a"/><path d="M97.7311,155.9751h25.3711a.9912.9912,0,0,1,.9912.9912v1.1346a0,0,0,0,1,0,0H97.7311a0,0,0,0,1,0,0v-2.1258A0,0,0,0,1,97.7311,155.9751Z" transform="translate(221.8244 314.076) rotate(180)" fill="#293882"/><path d="M107.2524,131.75a1.741,1.741,0,0,1,1.6365,1.1481l8.3716,23.1056-.5168.2152.1363.4034-19.1489-.6475-8.15-21.881a1.7412,1.7412,0,0,1,1.6322-2.349Z" fill="#0088cc"/><path d="M100.7017,145.43c.5679,2.18,1.6814,3.9185,2.487,3.8828s.9983-1.8318.43-4.0118-1.6814-3.9185-2.487-3.8828S100.1337,143.25,100.7017,145.43Z" fill="#fff"/><path d="M158.4611,101.86c-2.7394-.1806-5.62-.1965-8.0148-1.4436a4.3124,4.3124,0,0,1-2.4312-2.7941,2.3414,2.3414,0,0,1,2.0022-2.7239,1.7378,1.7378,0,0,0,.8022-.1282,1.1229,1.1229,0,0,0,.3862-.8769c.2977-2.1716,2.1245-4.3619,4.4844-4.3088,1.9248.0433,3.7161,1.5247,5.58,1.0762a8.168,8.168,0,0,0,1.6024-.703,8.6226,8.6226,0,0,1,5.193-.7055c1.8475.3281,3.8065,1.7852,3.3543,3.4784-.1511.5657-.5563,1.0573-.6644,1.6314-.3858,2.048,2.8769,3.0685,3.5217,5.06.5867,1.8117-1.2045,3.6157-1.0668,5.503.0764,1.0488.6881,2.2814-.11,3.0275-.4262.3982-1.1532.4976-1.439.992-.3893.6736.3353,1.4382.3989,2.2.0788.9446-1,1.7367-2.0179,1.6566a2.856,2.856,0,0,1-2.2649-1.7039,6.1394,6.1394,0,0,1-.3986-2.7949c1.7237-.4845,2.7847-3.3246,1.1627-4.0506-.8646-.387-1.7848.5519-2.1123,1.3487C164.7168,102.8834,161.9835,101.86,158.4611,101.86Z" fill="#3d4177"/><path d="M154.9582,113.7071a1.6094,1.6094,0,0,0,.3306,1.7814,1.0021,1.0021,0,0,0,.7822.3164.5886.5886,0,0,0,.5348-.5793c-.0087-.1069-.0518-.2238.0052-.3147a.3343.3343,0,0,1,.28-.1085c.3888-.0209.8634.0038,1.046.3476.0555.1045.0742.2265.1372.3267a.7945.7945,0,0,0,.763.2449,4.4322,4.4322,0,0,0,1.1836-.2636,1.35,1.35,0,0,0,.5272-.3111.5735.5735,0,0,0,.1493-.5676.8564.8564,0,0,0-.3431-.37C159.1363,113.3439,155.9375,111.5877,154.9582,113.7071Z" fill="#feadae"/><path d="M131.8844,152.9043l6.5246-2.1649,5.7764,1.4624c3.2521-.8454,4.334-.7982,10.9929-2.51a90.8349,90.8349,0,0,0,12.0792-4.3292l7.3264-10.9475c3.0968.2815,7.0607,6.584,7.0607,6.584s-8.8975,12.1054-11.4312,12.95-21.8613,3.0861-28.373,2.3393c-2.0508-.2352-5.6781-2.48-5.6781-2.48l-3.2892.77-4.0146,2.71-.7011-.58,1.5972-1.7494Z" fill="#feadae"/><path d="M179.66,119.2144s8.7271,1.4076,8.5864,8.8679c-.0918,4.8589-6.7565,13.9352-6.7565,13.9352s-3.66-5.0674-8.1641-6.475c0,0,3.519-6.8973,3.8006-9.7124S179.66,119.2144,179.66,119.2144Z" fill="#f4cf7a"/><path d="M117.2605,155.9751h25.371a.9912.9912,0,0,1,.9912.9912v1.1346a0,0,0,0,1,0,0H117.2605a0,0,0,0,1,0,0v-2.1258A0,0,0,0,1,117.2605,155.9751Z" transform="translate(260.8832 314.076) rotate(180)" fill="#293882"/><rect x="132.3748" y="156.651" width="8.7874" height="0.659" transform="translate(273.5371 313.9611) rotate(180)" fill="#fff"/><rect x="129.7569" y="156.651" width="1.2998" height="0.659" transform="translate(260.8136 313.9611) rotate(180)" fill="#fff"/><polygon points="81.784 149.175 80.601 140.453 81.026 138.867 81.977 140.196 83.072 149.088 81.784 149.175" fill="#404041"/><polygon points="87.523 149.748 88.762 141.034 89.604 139.623 90.156 141.162 88.786 150.015 87.523 149.748" fill="#404041"/><polygon points="83.524 150.423 83.632 141.495 84.393 140.087 85.048 141.519 84.925 150.436 83.524 150.423" fill="#404041"/><polygon points="88.826 159.04 82.076 159.04 80.851 147.846 89.718 147.846 88.826 159.04" fill="#808083"/><polygon points="171.255 243.721 172.873 243.721 154.648 164.43 151.216 164.43 171.255 243.721" fill="#e2e2e2"/><polygon points="121.872 242.891 123.489 242.891 135.215 164.43 131.783 164.43 121.872 242.891" fill="#e2e2e2"/><polygon points="97.312 243.371 98.93 243.371 86.046 164.43 82.614 164.43 97.312 243.371" fill="#e2e2e2"/><polygon points="51.907 242.532 53.525 242.532 69.033 164.43 65.6 164.43 51.907 242.532" fill="#e2e2e2"/><rect x="78.8548" y="160.8848" width="85.4921" height="3.545" transform="translate(243.2017 325.3147) rotate(180)" fill="#cdd1d3"/><rect x="51.4399" y="160.8848" width="78.8385" height="3.545" transform="translate(181.7183 325.3147) rotate(180)" fill="#cdd1d3"/><rect x="80.7557" y="157.9199" width="91.4351" height="4.7438" transform="translate(252.9465 320.5836) rotate(180)" fill="#e2e2e2"/><rect x="39.4526" y="157.9199" width="84.7815" height="4.7438" transform="translate(163.6866 320.5836) rotate(180)" fill="#e2e2e2"/><rect x="228.6395" y="55.3243" width="110.3268" height="230.7127" fill="#fff"/><path d="M326.4056,55.3719a11.38,11.38,0,0,1,11.3668,11.3667V273.3909a11.38,11.38,0,0,1-11.3668,11.3667h-85.21a11.38,11.38,0,0,1-11.3668-11.3667V66.7386a11.38,11.38,0,0,1,11.3668-11.3667h85.21m0-5.564h-85.21a16.9307,16.9307,0,0,0-16.9307,16.9307V273.3909a16.9306,16.9306,0,0,0,16.9307,16.9305h85.21a16.9306,16.9306,0,0,0,16.9307-16.9305V66.7386A16.9307,16.9307,0,0,0,326.4056,49.808Z" fill="#e2e2e2"/><path d="M247.0857,52.4442v2.8978h4.9266a1.8064,1.8064,0,0,1,1.7814,1.8306s1.8759,6.73,5.0478,6.73H308.76c3.172,0,5.0478-6.73,5.0478-6.73a1.8064,1.8064,0,0,1,1.7813-1.8306h4.9267V52.4442Z" fill="#e2e2e2"/><circle cx="296.0705" cy="58.2025" r="2.0985" fill="#395682" opacity="0.23"/><path d="M289.6373,59.2168H276.4809a.8983.8983,0,0,1-.8982-.8984h0a.8983.8983,0,0,1,.8982-.8983h13.1564a.8983.8983,0,0,1,.8984.8983h0A.8984.8984,0,0,1,289.6373,59.2168Z" fill="#395682" opacity="0.23"/><path d="M316.188,281.7079h-61.68a1.0859,1.0859,0,0,1-1.0859-1.0859h0a1.0859,1.0859,0,0,1,1.0859-1.0859h61.68a1.0859,1.0859,0,0,1,1.0859,1.0859h0A1.0859,1.0859,0,0,1,316.188,281.7079Z" fill="#e2e2e2"/><rect x="246.387" y="113.6904" width="75.4807" height="60.0729" rx="12" ry="12" fill="#d6d6d6" stroke="#000" stroke-miterlimit="10" stroke-width="0.25" opacity="0.4"/><rect x="241.6191" y="190.6368" width="85.0165" height="19.7939" fill="#d6d6d6" opacity="0.4"/><rect x="241.6191" y="227.6287" width="85.0165" height="19.7939" fill="#d6d6d6" opacity="0.4"/><rect x="284.1274" y="194.5307" width="37.6409" height="1.6225" fill="#d6d6d6"/><rect x="284.1274" y="198.1001" width="37.6409" height="1.6225" fill="#d6d6d6"/><rect x="284.1274" y="201.6695" width="37.6409" height="1.6225" fill="#d6d6d6"/><rect x="284.1274" y="205.2389" width="37.6409" height="1.6225" fill="#d6d6d6"/><rect x="301.0009" y="232.1716" width="23.3633" height="1.6225" fill="#d6d6d6"/><rect x="301.0009" y="235.4165" width="23.3633" height="1.6225" fill="#d6d6d6"/><rect x="301.0009" y="238.6614" width="23.3633" height="1.6225" fill="#d6d6d6"/><rect x="301.0009" y="241.9063" width="23.3633" height="1.6225" fill="#d6d6d6"/><rect x="244.864" y="194.5307" width="16.549" height="12.3306" rx="1.5" ry="1.5" fill="#d6d6d6"/><rect x="244.864" y="231.5226" width="45.1042" height="12.3306" rx="1.5" ry="1.5" fill="#d6d6d6"/><rect x="263.6845" y="194.5307" width="16.549" height="12.3306" rx="1.5" ry="1.5" fill="#d6d6d6"/><path d="M287.0869,169.1172c.2174-.0545.4463-.1126.6888-.1749.508-.1306,1.0279-.2822,1.5431-.4445-.1171-.5763-.2366-1.1411-.3573-1.68C288.3845,167.5526,287.73,168.3649,287.0869,169.1172Z" fill="none"/><path d="M285.3319,144.8022a1.4021,1.4021,0,0,0,1.076,1.36,17.2181,17.2181,0,0,1-.1557-2.6731A1.4013,1.4013,0,0,0,285.3319,144.8022Z" fill="none"/><path d="M266.1034,171.6276l.3094.8539h1.6217c-.9463-.391-1.8327-.87-1.8327-.87Z" fill="none"/><path d="M266.2018,171.6112s.8864.4794,1.8327.87h4.8985l.5231-.5729,1.2-1.1567,3.675-1.2193,3.2535.8237c1.7133-.4453,2.3577-.4511,5.5029-1.2391.6428-.7523,1.2976-1.5646,1.8746-2.2994l-.0027-.0121c-.0162-.0724-.0312-.1484-.0468-.2226a11.67,11.67,0,0,0-4.02-3.4086l-2.2237,3.7279a51.1615,51.1615,0,0,1-6.8036,2.4384c-3.7505.9645-4.36.9378-6.1917,1.414l-3.2535-.8237-.8312.2758.5147,1.4207Z" fill="#e5989b"/><path d="M277.0651,171.2606l-1.8526.4338-1.1661.7871h5.4991A14.8991,14.8991,0,0,1,277.0651,171.2606Z" fill="#e5989b"/><path d="M288.445,163.354a91.8987,91.8987,0,0,1-.3006-9.5765,7.1369,7.1369,0,0,0-1.6587,2.8408c-.5039,1.5118-2.1517,6.3454-2.1517,6.3454a5.5053,5.5053,0,0,1,.5583.2107l.4719-.7912A12.1839,12.1839,0,0,1,288.445,163.354Z" fill="#f4cf7a"/><path d="M288.912,166.583a30.372,30.372,0,0,1-.467-3.2291,12.1839,12.1839,0,0,0-3.0808-.9708l-.4719.7912A11.67,11.67,0,0,1,288.912,166.583Z" fill="#f4cf7a"/><path d="M295.0636,153.9961a7.1792,7.1792,0,0,0,3.33-2.7749c.0914.0092.1827.0193.2738.03-.0372-.01-.072-.02-.1115-.03a2.5708,2.5708,0,0,1-1.1086-.3448,8.7406,8.7406,0,0,1-2.0354-3.0027,1.7344,1.7344,0,0,1-.3225-.3146c-.18.33-.3738.6509-.5753.9574a8.1258,8.1258,0,0,1-2.7754,2.3228c-.0466.0277-.0939.0554-.1413.0831.0524.1183.1054.238.1583.3573-.39.2556-.7993.549-1.1167.7831C291.0766,152.6354,292.9786,154.9,295.0636,153.9961Z" fill="#e5989b"/><circle cx="290.5293" cy="144.8022" r="1.4031" fill="#feadae"/><path d="M290.8,149.4851a.76.76,0,0,1-.297.1752,2.4972,2.4972,0,0,1-.6667.1484.4476.4476,0,0,1-.43-.1379c-.0355-.0564-.046-.1252-.0773-.184-.1028-.1937-.37-.2075-.5892-.1958a.1882.1882,0,0,0-.1575.0611c-.0321.0512-.0078.117-.0029.1773a.3315.3315,0,0,1-.3012.3263.5646.5646,0,0,1-.4406-.1782.9064.9064,0,0,1-.1862-1.0034c.5516-1.1937,2.3533-.2046,3.0391.2827a.4929.4929,0,0,1,.19.2026c.2116-.21,1.4731-.1281,1.7087-.3623.6911-.6867,1.41-1.3449,2.1468-1.9827a4.2888,4.2888,0,0,1-.0892-1.1845c.9708-.2729,1.5684-1.8725.6549-2.2815-.487-.218-1.0053.3109-1.19.76-.9641-1.53-2.5036-2.1067-4.4876-2.1067a19.7753,19.7753,0,0,1-3.1984-.3383,12.05,12.05,0,0,0-.161,1.4877,1.7053,1.7053,0,0,1,1.5968.3566,1.1744,1.1744,0,0,1,.7036-.2767,1.34,1.34,0,0,1,.8574.2573,1.7167,1.7167,0,1,1-.2268.2294,1.033,1.033,0,0,0-.6127-.1695.8623.8623,0,0,0-.5.1913,1.7123,1.7123,0,0,1-1.6283,2.7561,22.8283,22.8283,0,0,0,.5029,2.4313c.2871,1.0886.7974,2.2876,1.8659,2.6419a3.5125,3.5125,0,0,0,2.7729-.6462c-.3229-.7295-.62-1.4049-.71-1.5944A.3725.3725,0,0,1,290.8,149.4851Z" fill="#feadae"/><path d="M286.4079,146.1623a1.4,1.4,0,1,0-.1557-2.6731A17.2181,17.2181,0,0,0,286.4079,146.1623Z" fill="#feadae"/><path d="M294.514,148.5165c.2015-.3065.3949-.6269.5753-.9574a1.7812,1.7812,0,0,1-.2175-.3549,2.2322,2.2322,0,0,1-.1353-.39c-.7366.6378-1.4556,1.2959-2.1468,1.9827-.2356.2342-1.4971.1522-1.7087.3623l.0031.0059a.27.27,0,0,1,.0035.1626c.09.1895.3868.8649.71,1.5944.0474-.0276.0947-.0553.1413-.0831A8.1258,8.1258,0,0,0,294.514,148.5165Z" fill="#feadae"/><path d="M289.3776,143.8663a1.0076,1.0076,0,0,0-.1812-.1488,1.7286,1.7286,0,1,0,.2268-.2294,1.3313,1.3313,0,0,1,.1848.1592Zm2.5547.9358a1.4031,1.4031,0,1,1-1.403-1.4A1.4031,1.4031,0,0,1,291.9323,144.8022Z" fill="#3d4177"/><path d="M288.0839,143.7393a.8623.8623,0,0,1,.5-.1913,1.033,1.033,0,0,1,.6127.1695,1.7293,1.7293,0,0,1,.2268-.2294,1.34,1.34,0,0,0-.8574-.2573,1.1744,1.1744,0,0,0-.7036.2767A1.7276,1.7276,0,0,1,288.0839,143.7393Z" fill="#3d4177"/><path d="M289.1964,143.7175a1.0076,1.0076,0,0,1,.1812.1488l.23-.219a1.3313,1.3313,0,0,0-.1848-.1592A1.7293,1.7293,0,0,0,289.1964,143.7175Z" fill="#3d4177"/><path d="M285.3319,144.8022a1.4013,1.4013,0,0,1,.92-1.313c.0028-.1132.0077-.2258.0132-.3383a1.7153,1.7153,0,0,0,.19,3.3445c-.0166-.1108-.0329-.2217-.0478-.333A1.4021,1.4021,0,0,1,285.3319,144.8022Z" fill="#3d4177"/><path d="M288.4553,144.8022a1.7066,1.7066,0,0,0-.3714-1.0629.8548.8548,0,0,0-.1449.1477l-.2538-.1916a1.19,1.19,0,0,1,.177-.1879,1.7053,1.7053,0,0,0-1.5968-.3566c-.0055.1125-.01.2252-.0132.3383a1.4,1.4,0,1,1,.1557,2.6731c.0148.1113.0312.2222.0478.333a1.71,1.71,0,0,0,2-1.6932Z" fill="#3d4177"/><path d="M287.6852,143.6954l.2538.1916a.8548.8548,0,0,1,.1449-.1477,1.7276,1.7276,0,0,0-.2217-.2318A1.19,1.19,0,0,0,287.6852,143.6954Z" fill="#3d4177"/><path d="M290.0725,152.49s.2326-.1806.5665-.427c-.0616-.0806-.0945-.128-.0945-.128l-2.4,1.8427a7.0423,7.0423,0,0,1,1.6023.5278Z" fill="#fbdb8a"/><path d="M304.3518,161.937c-.9,1.5162-1.7563,2.6829-1.7563,2.6829s-.0608-.0839-.1722-.2246c-1.041,1.3929-4.9463,6.5338-6.1791,6.9448a50.1339,50.1339,0,0,1-6.22.9021c.0776.44.1517.8689.222,1.2824h16.5454C305.9665,169.5312,304.9029,164.4239,304.3518,161.937Z" fill="#fbdb8a"/><path d="M299.8443,151.8943s.7728,5.2731-1.6056,6.5416a27.616,27.616,0,0,1-5.8567,2.0231,21.1564,21.1564,0,0,1-1.912,3.8326c.1905.0951.3022.153.3022.153s-.78,1.0605-1.8106,2.3732c.1207.539.24,1.1037.3573,1.68a56.0243,56.0243,0,0,0,5.26-1.9939l3.6489-5.4525q-.1149-.0419-.2311-.0784s1.982-3.8848,2.1406-5.47a11.7,11.7,0,0,1,1.4271-3.7263,26.0158,26.0158,0,0,0-2.8976-.5251C299.8219,151.56,299.8443,151.8943,299.8443,151.8943Z" fill="#fbdb8a"/><path d="M290.47,164.2916c-.8153,1.3353-1.5376,2.3191-1.5376,2.3191l-.02-.0276c.0156.0743.0306.15.0468.2226l.0027.0121c1.0308-1.3127,1.8106-2.3732,1.8106-2.3732S290.66,164.3867,290.47,164.2916Z" fill="#fbdb8a"/><path d="M288.445,163.354c.8549.364,1.6209.736,2.0249.9376a21.1564,21.1564,0,0,0,1.912-3.8326c-.1087.0252-.1688.0383-.1688.0383l-3.2506-1.8235.7841-4.3686a7.0423,7.0423,0,0,0-1.6023-.5278A91.8987,91.8987,0,0,0,288.445,163.354Z" fill="#fbdb8a"/><path d="M290.47,164.2916c-.4041-.2016-1.17-.5736-2.0249-.9376a30.372,30.372,0,0,0,.467,3.2291l.02.0276S289.6547,165.6269,290.47,164.2916Z" fill="#fbdb8a"/><path d="M289.7467,154.3052a4.6811,4.6811,0,0,1,2.9913,4.4565,5.7369,5.7369,0,0,1-.356,1.6973,27.616,27.616,0,0,0,5.8567-2.0231c2.3785-1.2685,1.6056-6.5416,1.6056-6.5416s-.0223-.334-1.177-.6433c-.0911-.0106-.1824-.0207-.2738-.03a7.1792,7.1792,0,0,1-3.33,2.7749c-2.085.9035-3.987-1.3608-4.4246-1.9334-.3339.2463-.5665.427-.5665.427Z" fill="#fbdb8a"/><path d="M289.7467,154.3052l-.7841,4.3686,3.2506,1.8235s.06-.0131.1688-.0383a5.7369,5.7369,0,0,0,.356-1.6973A4.6811,4.6811,0,0,0,289.7467,154.3052Z" fill="#fbdb8a"/><path d="M261.386,172.4815l.1593-.1745,1.1995-1.1567,2.8438-.9435-3.8852-10.7232a.9805.9805,0,0,0-.9217-.6466l-9.0342-.0029a.9807.9807,0,0,0-.9194,1.323l4.5907,12.3244h5.9672Zm-2.8932-3.7527c-.4538.02-1.0809-.9591-1.4008-2.187s-.2113-2.24.2424-2.26,1.0809.9591,1.4008,2.187S258.9465,168.7089,258.4928,168.7289Z" fill="#0088cc"/><polygon points="266.103 171.628 263.302 172.093 262.726 172.482 266.413 172.482 266.103 171.628" fill="#0088cc"/><polygon points="261.545 172.307 261.386 172.482 262.726 172.482 263.302 172.093 266.103 171.628 265.589 170.207 262.745 171.15 261.545 172.307" fill="#0088cc"/><path d="M258.7352,166.4692c-.32-1.2279-.947-2.207-1.4008-2.187s-.5623,1.0318-.2424,2.26.9471,2.2071,1.4008,2.187S259.0551,167.6972,258.7352,166.4692Z" fill="#fff"/><path d="M290.6092,139.4992a11.6348,11.6348,0,0,1,3.1245.9765,2.9243,2.9243,0,0,1,1.1127.7985c.3956.5194,1.3494,1.3186,1.39,1.97a7.9836,7.9836,0,0,1-1.0277,4.092c.0579.1736.1265.3538.2035.5373a1.4118,1.4118,0,0,0,.7357.29c.5733.0451,1.1809-.401,1.1365-.9331-.0358-.4292-.4439-.86-.2247-1.2393.161-.2785.5705-.3345.8105-.5587.45-.42.1052-1.1145.0622-1.7053-.0775-1.063.9313-2.0791.6009-3.1-.3632-1.1215-2.2009-1.6963-1.9836-2.85.0609-.3234.2891-.6.3742-.9189.2547-.9537-.8487-1.7744-1.8893-1.9592a4.8566,4.8566,0,0,0-2.9249.3973,4.5964,4.5964,0,0,1-.9026.3959c-1.05.2526-2.0586-.5817-3.1427-.6061a2.7143,2.7143,0,0,0-2.5258,2.4269.6325.6325,0,0,1-.2175.494.9784.9784,0,0,1-.4518.0722,1.3188,1.3188,0,0,0-1.1277,1.5342,2.429,2.429,0,0,0,1.3694,1.5738,5.6173,5.6173,0,0,0,1.3159.4747c.0042-.0243.0073-.049.0117-.0732C286.7988,139.6086,288.805,139.2052,290.6092,139.4992Z" fill="#3d4177"/><path d="M295.0893,147.5591a1.7344,1.7344,0,0,0,.3225.3146c-.077-.1836-.1456-.3637-.2035-.5373Q295.15,147.4486,295.0893,147.5591Z" fill="#3d4177"/><path d="M294.1124,144.1082c.1845-.4488.7027-.9777,1.19-.76.9136.409.3159,2.0086-.6549,2.2815a4.2888,4.2888,0,0,0,.0892,1.1845c.1131-.0979.2223-.2.3364-.2967a1.0766,1.0766,0,0,0,.0546.559c.024.0845.0514.1714.0808.26a7.9836,7.9836,0,0,0,1.0277-4.092c-.04-.6517-.994-1.4508-1.39-1.97a2.9243,2.9243,0,0,0-1.1127-.7985,11.6348,11.6348,0,0,0-3.1245-.9765c-1.8042-.294-3.81.1095-4.1711,2.0908-.0044.0242-.0075.0489-.0117.0732a19.7753,19.7753,0,0,0,3.1984.3383C291.6088,142.0015,293.1483,142.5778,294.1124,144.1082Z" fill="#3d4177"/><path d="M295.1275,147.0768a1.0766,1.0766,0,0,1-.0546-.559c-.1141.0967-.2233.1988-.3364.2967a2.2322,2.2322,0,0,0,.1353.39,1.7812,1.7812,0,0,0,.2175.3549q.06-.1106.1189-.2227C295.1788,147.2482,295.1514,147.1613,295.1275,147.0768Z" fill="#3d4177"/><path d="M290.6908,148.9569c-.6858-.4873-2.4875-1.4764-3.0391-.2827a.9064.9064,0,0,0,.1862,1.0034.5646.5646,0,0,0,.4406.1782.3315.3315,0,0,0,.3012-.3263c-.0049-.06-.0292-.1261.0029-.1773a.1882.1882,0,0,1,.1575-.0611c.219-.0117.4863.0021.5892.1958.0313.0588.0418.1276.0773.184a.4476.4476,0,0,0,.43.1379,2.4972,2.4972,0,0,0,.6667-.1484.76.76,0,0,0,.297-.1752.3725.3725,0,0,0,.0876-.1571c-.01-.02-.0176-.0367-.0223-.0453a.0939.0939,0,0,1,.0158-.1231A.4929.4929,0,0,0,290.6908,148.9569Z" fill="#feadae"/><path d="M290.8653,149.2826c.0047.0086.0128.0252.0223.0453a.27.27,0,0,0-.0035-.1626l-.0031-.0059A.0939.0939,0,0,0,290.8653,149.2826Z" fill="#feadae"/><path d="M287.7758,168.9422c-.2425.0624-.4714.12-.6888.1749a10.8288,10.8288,0,0,1-2.7534,2.6214,35.5477,35.5477,0,0,1-4.6078.743h1.5413v.2458a73.2827,73.2827,0,0,0,8.7573-.4851c-.2145-1.2158-.4542-2.5073-.7055-3.7444C288.8037,168.66,288.2837,168.8116,287.7758,168.9422Z" fill="#feadae"/><path d="M278.3305,169.5326l-3.675,1.2193-1.2,1.1567-.5231.5729h1.1134l1.1661-.7871,1.8526-.4338a14.8991,14.8991,0,0,0,2.48,1.2209h.18a35.5477,35.5477,0,0,0,4.6078-.743,10.8288,10.8288,0,0,0,2.7534-2.6214c-3.1451.788-3.79.7938-5.5029,1.2391Z" fill="#feadae"/><path d="M302.4233,164.3954a10.9013,10.9013,0,0,0-4.1951-3.3439l-3.6489,5.4525a56.0243,56.0243,0,0,1-5.26,1.9939c.2513,1.2371.4911,2.5286.7055,3.7444a50.1339,50.1339,0,0,0,6.22-.9021C297.4771,170.9292,301.3823,165.7883,302.4233,164.3954Z" fill="#feadae"/><path d="M304.3518,161.937c.9848-1.6588,2.0222-3.7362,2.0492-5.166.0793-4.202-4.8362-4.9949-4.8362-4.9949s1.8518,6.1725,2.5653,9.1853C304.1889,161.2095,304.264,161.5406,304.3518,161.937Z" fill="#f4cf7a"/><path d="M297.9971,160.973q.1162.0363.2311.0784l.4776-.7137c1.7443.1585,3.9769,3.7084,3.9769,3.7084s-.0954.13-.2595.3492c.1113.1407.1722.2246.1722.2246s.8561-1.1667,1.7563-2.6829c-.0879-.3964-.1629-.7276-.2217-.9756-.7135-3.0128-2.5653-9.1853-2.5653-9.1853a11.7,11.7,0,0,0-1.4271,3.7263C299.9792,157.0881,297.9971,160.973,297.9971,160.973Z" fill="#f4cf7a"/><path d="M298.7059,160.3377l-.4776.7137a10.9013,10.9013,0,0,1,4.1951,3.3439c.1641-.22.2595-.3492.2595-.3492S300.45,160.4963,298.7059,160.3377Z" fill="#f4cf7a"/><path d="M279.5948,172.497c-1.9.2216-4.0763.4185-6.0172.5078v.6741h7.69v-.9516c-.3745-.0134-.7122-.0361-1.0038-.07A3.4722,3.4722,0,0,1,279.5948,172.497Z" fill="#293882"/><path d="M274.0464,172.4815l-.4688.3164v.2068c1.9409-.0893,4.1177-.2862,6.0172-.5078-.0166-.0055-.0326-.01-.0493-.0155Z" fill="#293882"/><path d="M279.7257,172.4815l-.1309.0155a3.4722,3.4722,0,0,0,.6684.1607c.2917.0334.6293.0561,1.0038.07v-.2458Z" fill="#293882"/><path d="M279.5948,172.497l.1309-.0155h-.18C279.5622,172.4872,279.5782,172.4916,279.5948,172.497Z" fill="#293882"/><polygon points="274.046 172.482 273.578 172.482 273.578 172.798 274.046 172.482" fill="#293882"/><path d="M273.2494,173.0195l-.2981.2012-.2211-.1829c-.9443.0281-1.8034.0241-2.5168-.021v.6621h3.3642v-.6741C273.4678,173.01,273.3575,173.0152,273.2494,173.0195Z" fill="#293882"/><path d="M272.9329,172.4815h-2.72v.5353c.7134.0451,1.5725.0491,2.5168.021l-.1738-.1438Z" fill="#293882"/><path d="M273.2494,173.0195c.1081-.0043.2185-.01.3282-.0147v-.2068Z" fill="#293882"/><path d="M272.9513,173.2207l.2981-.2012q-.2631.0106-.5192.0183Z" fill="#293882"/><path d="M273.5776,172.4815h-.6446l-.3766.4125.1738.1438q.2557-.0077.5192-.0183l.3282-.2215Z" fill="#293882"/><path d="M258.7292,173.4407v-.8473l-3.31-.1119h-.0538v.9592a.2381.2381,0,0,0,.2382.2381h3.3642A.2381.2381,0,0,1,258.7292,173.4407Z" fill="#293882"/><polygon points="258.729 172.482 255.419 172.482 258.729 172.593 258.729 172.482" fill="#293882"/><path d="M266.4187,173.4407v-.9429l-.2911.1213.0767.2272-3.827-.1294-1.3368.9023-.3949-.3267.5616-.6151-2.4782-.0838v.8473a.2381.2381,0,0,0,.2382.2381h7.69A.2381.2381,0,0,1,266.4187,173.4407Z" fill="#293882"/><polygon points="266.419 172.498 266.419 172.482 266.413 172.482 266.419 172.498" fill="#293882"/><polygon points="260.646 173.292 261.041 173.619 262.377 172.717 261.207 172.677 260.646 173.292" fill="#293882"/><polygon points="258.729 172.482 258.729 172.593 261.207 172.677 261.386 172.482 258.729 172.482" fill="#293882"/><polygon points="262.726 172.482 262.377 172.717 266.204 172.846 266.128 172.619 266.419 172.498 266.413 172.482 262.726 172.482" fill="#293882"/><polygon points="261.386 172.482 261.207 172.677 262.377 172.717 262.726 172.482 261.386 172.482" fill="#293882"/><path d="M269.6177,172.9665a6.6592,6.6592,0,0,1-1.5832-.4849h-1.6158v.9592a.2381.2381,0,0,0,.2382.2381h3.5565v-.6621C270.0024,173.0035,269.8008,172.9875,269.6177,172.9665Z" fill="#293882"/><path d="M268.0345,172.4815a6.6592,6.6592,0,0,0,1.5832.4849c.1831.021.3847.037.5957.05v-.5353Z" fill="#293882"/><path d="M100.41,81.5518A13.4652,13.4652,0,1,0,113.8751,95.017,13.4643,13.4643,0,0,0,100.41,81.5518Zm1.0163,24.85v-.9051a1.0162,1.0162,0,1,0-2.0324,0v.9051A11.4484,11.4484,0,0,1,89.0224,96.0016h.8758a1.0163,1.0163,0,0,0,0-2.0326h-.8711A11.45,11.45,0,0,1,99.3937,83.6319v.8416a1.0162,1.0162,0,1,0,2.0324,0v-.8416A11.4493,11.4493,0,0,1,111.7925,93.969h-.8708a1.0163,1.0163,0,1,0,0,2.0326h.8758A11.4484,11.4484,0,0,1,101.4261,106.4022Z" fill="#e2e2e2"/><path d="M106.4637,88.4571l-6.02,6.3076-.0343-.0016a1.1537,1.1537,0,0,0-.22.0216l-5.0378-3.8068a.7625.7625,0,0,0-.9168,1.2186l5.0364,3.8054a1.1428,1.1428,0,0,0,2.2817-.0955c0-.03-.0021-.06-.0044-.0893l6.0185-6.3079a.7623.7623,0,1,0-1.1034-1.052Z" fill="#e2e2e2"/><rect x="251.7162" y="79.0875" width="39.8894" height="14.6582" fill="#395682" opacity="0.23"/><path d="M253.2361,83.456V81.1493H257.36V91.3427h-2.5952V83.456Z" fill="#fff"/><path d="M258.8156,86.1378a6.5091,6.5091,0,0,1,.966-3.77,4.1088,4.1088,0,0,1,6.1636,0,7.831,7.831,0,0,1,0,7.5621,4.0947,4.0947,0,0,1-6.1636,0A6.5727,6.5727,0,0,1,258.8156,86.1378Zm5.6518,0a5.3335,5.3335,0,0,0-.3244-2.0977,1.2585,1.2585,0,0,0-1.276-.7282,1.2828,1.2828,0,0,0-1.2976.7352,5.2377,5.2377,0,0,0-.3316,2.0906,5.3372,5.3372,0,0,0,.3316,2.1122,1.2808,1.2808,0,0,0,1.2976.7425,1.2549,1.2549,0,0,0,1.276-.7425A5.4462,5.4462,0,0,0,264.4674,86.1378Z" fill="#fff"/><path d="M270.84,83.0092v2.4654h-2.5663V83.0092Zm0,5.8681v2.4654h-2.5663V88.8773Z" fill="#fff"/><path d="M272.0943,86.1378a6.5091,6.5091,0,0,1,.966-3.77,4.1088,4.1088,0,0,1,6.1636,0,7.831,7.831,0,0,1,0,7.5621,4.0947,4.0947,0,0,1-6.1636,0A6.5727,6.5727,0,0,1,272.0943,86.1378Zm5.6518,0a5.3335,5.3335,0,0,0-.3244-2.0977,1.2585,1.2585,0,0,0-1.276-.7282,1.2828,1.2828,0,0,0-1.2976.7352,5.2377,5.2377,0,0,0-.3316,2.0906,5.3372,5.3372,0,0,0,.3316,2.1122,1.2808,1.2808,0,0,0,1.2976.7425,1.2549,1.2549,0,0,0,1.276-.7425A5.4462,5.4462,0,0,0,277.7461,86.1378Z" fill="#fff"/><path d="M288.9054,83.0667h-4.5849v2.0618a1.9879,1.9879,0,0,1,.8435-.5407,3.444,3.444,0,0,1,1.1751-.1945,3.0627,3.0627,0,0,1,1.7156.4541,2.7246,2.7246,0,0,1,1.0237,1.2184,4.196,4.196,0,0,1,.3316,1.6868,3.6547,3.6547,0,0,1-.9371,2.6459,3.4925,3.4925,0,0,1-2.6385.9732,4.5622,4.5622,0,0,1-2.004-.4109,3.0937,3.0937,0,0,1-1.3121-1.1463,3.3241,3.3241,0,0,1-.49-1.7013h2.4078a1.3716,1.3716,0,0,0,.3965.8075,1.2129,1.2129,0,0,0,.8867.3173,1.1552,1.1552,0,0,0,.9732-.4182,1.7628,1.7628,0,0,0,.3244-1.11,1.4194,1.4194,0,0,0-.346-1.0236,1.2771,1.2771,0,0,0-.966-.36,1.411,1.411,0,0,0-.7929.2091,1.0521,1.0521,0,0,0-.4326.5407h-2.3934V80.904h6.82Z" fill="#fff"/><g opacity="0.23"><path d="M300.213,89.3385h-3.8207l-.6344,1.86h-2.5952l3.7342-10.1214h2.84l3.7342,10.1214h-2.624Zm-.6343-1.8743L298.31,83.7157l-1.2832,3.7486Z" fill="#395682"/><path d="M315.8853,81.0771V91.1985H313.42V84.8691l-2.1915,6.3294h-2.1338l-2.206-6.344v6.344h-2.4654V81.0771h3.0133l2.7538,7.05,2.6961-7.05Z" fill="#395682"/></g></svg>