<svg id="Layer_1" data-name="Layer 1" xmlns="http://www.w3.org/2000/svg" width="371" height="339" viewBox="0 0 371 339"><title>hire-android</title><path d="M150.9651,42.6555c28.3851-.3016,56.5382-5.2811,82.6244-15.37,15.5511-6.0142,52.4336-9.7273,76.2568-5.6838,20.6814,3.51,69.9437,19.5186,49.1285,73.7567s-47.3675,59.8786-27.8362,95.2779c14.3442,25.9982,38.9931,51.8066,17.356,72.5994-33.6488,32.3359-171.8414,80.27-243.58,41.2392s-86.9435-53.0764-65.35-114.2365S5.2828,121.67,34.5025,76.3158C52.0281,49.1132,108.5388,43.1065,150.9651,42.6555Z" fill="#f1f3f7"/><path d="M26.3542,276.063s.3182,8.9345-.4146,10.6371-.9117,3.6275,1.4224,3.6116c2.2888-.0156,7.7829-.02,8.5759-.0449,1.47-.0456,2.7724-.2149,2.7431-1.19s-6.8264-1.2747-8.1248-2.2564-.3415-10.2822-.3415-10.2822Z" fill="#feadae"/><path d="M35.32,287.89a11.804,11.804,0,0,1-4.1163.76,11.992,11.992,0,0,1-5.5189-1.372c-.4772,1.5392-.3414,3.0264,1.6867,3.0121,2.2964-.016,7.8086-.0209,8.6041-.0462,1.4751-.0471,2.7818-.2216,2.7524-1.2268C38.7136,288.5316,37.1144,288.2085,35.32,287.89Z" fill="#473e73"/><path d="M40.5016,276.4918s.2963,8.32-.386,9.9057-.9382,3.4585,1.3246,3.3632c2.1295-.09,6.26-.2277,6.9949-.3052,1.8377-.1942,3.9617-.128,3.9345-1.0357s-6.7459-.9956-7.9549-1.91-.318-9.575-.318-9.575Z" fill="#feadae"/><path d="M48.2356,287.3856a11.2242,11.2242,0,0,1-3.8049.68,11.3546,11.3546,0,0,1-4.5757-.971c-.4413,1.3875-.351,2.7475,1.5852,2.6659,2.1295-.09,6.26-.2277,6.9949-.3053,1.8377-.1941,3.9618-.1279,3.9346-1.0356C52.3546,287.9166,50.2843,287.6653,48.2356,287.3856Z" fill="#473e73"/><path d="M15.68,184.7167a31.9923,31.9923,0,0,0,3.3256-.49,18.3222,18.3222,0,0,1,2.52.2463,25.8735,25.8735,0,0,0,16.7271-4.7368,8.3934,8.3934,0,0,0,2.4454-2.4457c1.5561-2.6553.457-6.2659,2.0122-8.9216.6838-1.1681,1.8095-2.0106,2.6015-3.1084a8.34,8.34,0,0,0,1.3586-5.5569,15.4511,15.4511,0,0,0-9.9338-13.1286A10.15,10.15,0,0,0,24.6768,150.41c-.9967,1.5782-1.5648,3.4662-2.9228,4.7468-1.668,1.573-4.043,1.61-5.8487,2.92a7.9748,7.9748,0,0,0-3.6358,5.3182c-.1985,1.2759-.0784,2.64-.6555,3.7951a11.1434,11.1434,0,0,1-2.1822,2.4664,8.9117,8.9117,0,0,0,6.2478,15.061Z" fill="#3d4177"/><path d="M38.5066,173.8168a.8074.8074,0,0,1-.0292.4962.78.78,0,0,1-.5985.3189,7.7354,7.7354,0,0,1-5.4478-1.12.8714.8714,0,0,1-.3793-.3911.9184.9184,0,0,1-.0291-.373q.21-3.5.4193-7a.8461.8461,0,0,1,.1333-.49.8335.8335,0,0,1,.4984-.2346,5.3074,5.3074,0,0,1,2.3449-.1072c1.735.4222,1.6733,2.009,1.9279,3.4428C37.6718,170.19,38.2227,171.9761,38.5066,173.8168Z" fill="#feadae"/><path d="M55.3306,161.1761q1.131,2.3677,2.2379,4.7455a2.421,2.421,0,0,0,.6191.925c.61.483,2.2233-.2929,2.9179-.4636a.7264.7264,0,0,0,.33-.1428c.3252-.3-.2054-1.7108-.2956-2.0923-.1919-.8125-.4127-1.6178-.6281-2.4241a29.7142,29.7142,0,0,1-.9863-4.7707c-.0735-.7547-.1318-1.504-.9574-1.7255a5.4226,5.4226,0,0,0-4.3323,1.0589c-1.1509,1.0807.0521,2.7135.5715,3.7961Q55.0692,160.6293,55.3306,161.1761Z" fill="#e2e2e2"/><path d="M57.0162,181.5654a38.1,38.1,0,0,0,.3748-4.0347c.0542-1.8544.0538-3.7138.25-5.5605a3.0005,3.0005,0,0,1,.422-1.4577,1.5688,1.5688,0,0,1,1.6854-.5715A2.0686,2.0686,0,0,1,60.994,171.23a6.1208,6.1208,0,0,1,.296,1.8247q.2988,5.0065.5975,10.0128a21.0791,21.0791,0,0,1-.1525,5.4958c-.61,2.9737-4.7978,1.025-6.4981.2635A76.41,76.41,0,0,1,39.9388,180.12a4.8792,4.8792,0,0,1-1.73-1.8188,4.36,4.36,0,0,1,.1483-3.229,2.56,2.56,0,0,1,.8307-1.1022,2.2731,2.2731,0,0,1,2.1293.0206,60.8264,60.8264,0,0,1,10.8393,5.5575c1.5532.9667,3.097,2.1195,4.7325,2.9306Q56.9539,182.0213,57.0162,181.5654Z" fill="#feadae"/><path d="M62.6656,159.4114a13.3974,13.3974,0,0,1,8.709,1.88c.6481.4305,1.5046.9419,2.1248.4719a1.6436,1.6436,0,0,0,.4505-.6509,14.36,14.36,0,0,0-2.0451-14.9688c-.8341-.9817-2.1431-1.9131-3.3152-1.3788a3.36,3.36,0,0,0-1.1038.9767,45.0286,45.0286,0,0,1-4.6735,5.0164,22.81,22.81,0,0,1-5.9643,3.7654c-1.6543.7162-4.6172.9888-5.4389,2.8923a2.4853,2.4853,0,0,0,.039,1.7492,3.384,3.384,0,0,0,.6458,1.1871c1.3079,1.4779,3.54.33,5.0982.0965C59.0267,160.1734,60.8053,159.5954,62.6656,159.4114Z" fill="#d0cfd1"/><path d="M61.3428,163.05a.9915.9915,0,0,1,.0853.06,2.0276,2.0276,0,0,1,.5565.8816q.4667,1.1556.85,2.3421a3.0381,3.0381,0,0,1,.2009,1.05c-.0561,1.3108-2.1075,2.5324-1.8716,4.457a15.6962,15.6962,0,0,0-2.893-.496,1.8218,1.8218,0,0,1-.5016-.0649,1.844,1.844,0,0,1-.2043-.4373,35.0482,35.0482,0,0,0-.9626-4.0282,2.0849,2.0849,0,0,1,.0134-1.6073c.3153-.5864.9726-.7452,1.4913-1.0881a12.2267,12.2267,0,0,1,1.6621-1.0382A1.7075,1.7075,0,0,1,61.3428,163.05Z" fill="#feadae"/><path d="M35.72,210.3211a18.1872,18.1872,0,0,0-5.6339,1.3944c-4.7175,2.014-1.303,12.2937-.2888,15.9711q1.93,6.9962,3.8592,13.9923a119.466,119.466,0,0,1,3.7355,23.3145c.1057,1.4781,1.0358,17.6343,1.169,17.636l6.4434.0844c.5695.0073,1.2852-8.5842,1.3484-9.4278.2393-3.1924.2832-6.3886.4476-9.59.943-14.6171-.0036-29.6411-.5952-44.2893a11.7635,11.7635,0,0,0-2.0143-6.9227c-.63-.8088-2.357-.9916-3.2692-1.3448a9.9034,9.9034,0,0,0-4.0343-.8764Q36.3028,210.273,35.72,210.3211Z" fill="#0088cc"/><path d="M22.0853,210.7809a34.737,34.737,0,0,0-.4642,4.2667c-.8868,13.1819.4558,26.3842,1.3578,39.5273.642,9.351,1.3729,18.6965,1.9063,28.0543l6.4434.0844c.5695.0073,1.2852-8.5842,1.3485-9.4278.2393-3.1924.2832-6.3886.4476-9.59,0-5.0938.5319-10.2418.7869-15.33.3022-6.0312.6537-12.1156,1.376-18.1035.4325-3.5861.9626-7.16,1.3711-10.7485.3744-3.29,1.2753-7.1869-.2066-10.2975a7.2406,7.2406,0,0,0-3.9583-3.6269,13.4717,13.4717,0,0,0-4.993-.57,7.9715,7.9715,0,0,0-2.6725.37C22.7231,206.1828,22.4583,208.85,22.0853,210.7809Z" fill="#0088cc"/><path d="M38.8954,166.1292c7.8671-7.0063,1.5165-26.2077-9.78-18.2388-7.9373,5.5992-.003,26.196,9.5931,18.3981C38.771,166.2376,38.833,166.1848,38.8954,166.1292Z" fill="#feadae"/><path d="M22.5305,215.9446c-3.6892-1.4834-.373-7.2125.4353-9.5355,1.8237-5.2415,1.4011-10.6609.6568-16.0814a14.7835,14.7835,0,0,1-.3865-4.0374c.1463-.9711.523-1.8847.66-2.872a25.7951,25.7951,0,0,1,2.1167-7.87c2.4453-5.0158,8.2567-6.552,13.2755-4.6754a5.4829,5.4829,0,0,1,3.5933,3.5156q.4585,1.2486.9168,2.4973.7506,2.045,1.5014,4.09c.8643,2.3545,1.7248,4.999.715,7.2948-.52,1.1832-1.5018,2.1513-1.8387,3.3991A6.71,6.71,0,0,0,44,193.212a66.7484,66.7484,0,0,0,1.7581,15.6733,25.9119,25.9119,0,0,1,.2822,4.4708,2.7045,2.7045,0,0,1-.2517,1.5007,2.5745,2.5745,0,0,1-1.5648.9406c-4.8564,1.4168-10.0117,1.279-15.0685,1.1293A19.1467,19.1467,0,0,1,22.5305,215.9446Z" fill="#fbdb8a"/><path d="M16.429,190.3074a48.7662,48.7662,0,0,0-1.5034,5.9525,3.4614,3.4614,0,0,0,.0457,1.6891,3.6007,3.6007,0,0,0,.6136.9673c2.399,3.0156,4.1188,5.0587,7.6675,6.8253q5.5321,2.7539,11.2966,5.004a1.7958,1.7958,0,0,0,.9071.18,1.25,1.25,0,0,0,.7911-1.6376c-.2995-.923-1.2149-1.38-1.8541-2.0251-.8187-.8256-1.6352-1.653-2.4661-2.4663q-2.5447-2.4905-5.1976-4.8671c-1.4269-1.2782-3.0057-2.4427-4.374-3.7787-1.0424-1.0175-.019-2.8339.5007-3.9491,1.28-2.7478,2.3652-5.5591,4.2092-7.933a11.8734,11.8734,0,0,0,2.2823-8.515,3.1232,3.1232,0,0,0-1.0331-2.0742,2.5411,2.5411,0,0,0-2.72.0066A6.7079,6.7079,0,0,0,23.6,175.7315,51.2826,51.2826,0,0,0,16.429,190.3074Z" fill="#feadae"/><path d="M28.12,163.3938c-.172.8006-1.066,4.086-2.2272,3.4124-.9676-.5613-.6512-3.0569-.7343-3.9573a14.325,14.325,0,0,0-.4366-2.1937c-1.06-4.1746-3.0392-8.2633-.9473-12.5064a6.6757,6.6757,0,0,1,1.0792-1.5858c2.2839-2.4562,6.8426-3.4957,10.0715-3.2557a5.4,5.4,0,0,1,3.8307,1.5845,3.3528,3.3528,0,0,1,.75,2.4962,5.0065,5.0065,0,0,1-2.9664,3.5989c-1.4473.73-3.0587,1.0794-4.53,1.7606-2.06.9545-3.3214,2.4719-3.2567,4.7749A23.9845,23.9845,0,0,1,28.12,163.3938Z" fill="#3d4177"/><ellipse cx="28.385" cy="159.9979" rx="1.5003" ry="2.6782" transform="translate(-30.1007 8.3916) rotate(-11.0352)" fill="#feadae"/><path d="M36.911,208.93a2.4314,2.4314,0,0,0,.3249.099c.8859.2007,1.8388-.1168,2.7646.0444,1.0319.18,2.8805.7435,3.2357,1.8555a.9087.9087,0,0,1,.03.5575.4349.4349,0,0,1-.4227.3126.7553.7553,0,0,1-.3357-.1653c-.4328,0-2.012-1.17-2.2773-.2888-.26.8661,2.0309,3.1351,2.7469,3.3574.293.0911.6057.0958.9053.1621a1.0341,1.0341,0,0,1,.74.4925.8863.8863,0,0,1-.1417.8886,2.3879,2.3879,0,0,1-.7373.5833,8.31,8.31,0,0,1-2.4677,1.0338c-2.8149.5828-4.2486-1.6366-5.44-3.7939a26.7218,26.7218,0,0,0-3.1537-4.0813.56.56,0,0,1-.1536-.2893.5262.5262,0,0,1,.0539-.2484A5.4676,5.4676,0,0,1,34.17,207.56a.5019.5019,0,0,1,.1762-.1151.5106.5106,0,0,1,.3937.1066A14.783,14.783,0,0,0,36.911,208.93Z" fill="#feadae"/><ellipse cx="71.5873" cy="153.043" rx="3.3713" ry="10.0022" transform="translate(-33.0182 20.3607) rotate(-13.1836)" fill="#e2e2e2"/><rect x="146.4257" y="72.2163" width="190.2655" height="135.75" rx="10.2856" ry="10.2856" fill="#fff"/><rect x="240.4479" y="95.661" width="67.5141" height="31.4407" rx="2.5992" ry="2.5992" transform="translate(548.4099 222.7626) rotate(-180)" fill="#d3d3d3"/><rect x="287.7887" y="101.9475" width="15.459" height="18.2503" transform="translate(591.0365 222.1453) rotate(-180)" fill="#f7f7f7"/><rect x="262.1651" y="101.9475" width="20.3716" height="1.7507" transform="translate(544.7018 205.6457) rotate(-180)" fill="#f7f7f7"/><rect x="251.3427" y="107.3587" width="31.1939" height="1.7507" transform="translate(533.8794 216.4681) rotate(-180)" fill="#f7f7f7"/><rect x="251.3427" y="112.7699" width="31.1939" height="1.7507" transform="translate(533.8794 227.2906) rotate(-180)" fill="#f7f7f7"/><rect x="251.3427" y="118.1811" width="31.1939" height="1.7507" transform="translate(533.8794 238.113) rotate(-180)" fill="#f7f7f7"/><rect x="165.572" y="86.4819" width="56.242" height="65.0971" rx="4.701" ry="4.701" fill="#d6d6d6" opacity="0.4"/><rect x="270.3975" y="136.0227" width="56.242" height="65.0971" rx="4.701" ry="4.701" fill="#d6d6d6" opacity="0.4"/><path d="M234.39,186.7466c1.7634,3.4868,2.155,10.8414,3.98,14.2962.8972,1.6985,7.9323,11.3774,13.0991,16.0177.6859-1.7112,4.1837.2645,3.1281-1.2468-3.2817-4.6992-9.5727-10.1729-10.4235-17.59-.56-4.8813-4.1835-16.2782-4.1835-16.2782" fill="#e5989b"/><path d="M218.5616,293.0727c-2.2978-.197-4.5844-1.44-5.5888-1.5334a34.9321,34.9321,0,0,1-3.7013-.8331c-.6233-.1751.5031-3.9464,1.4823-4.0658a2.8576,2.8576,0,0,0,.51.34,5.087,5.087,0,0,0,2.627.54c1.39,1.34,1.3409,1.7212,3.0646,2.7655a11.1716,11.1716,0,0,1,2.1068,1.6269C219.73,292.6165,219.8565,293.1855,218.5616,293.0727Z" fill="#473e73"/><path d="M211.3151,284.9639a7.5,7.5,0,0,1-.6789,1.8855c1.7725,2.0176,3.2621.9428,3.2621.9428l-.0077-.2712.433-1.9538Z" fill="#feadae"/><path d="M251.2521,292.1279c-2.242.54-4.8042.0841-5.7869.3128a34.8374,34.8374,0,0,1-3.7748.38c-.6465.0311-.7709-3.9029.12-4.326a2.8523,2.8523,0,0,0,.5911.1617,5.0875,5.0875,0,0,0,2.6631-.3181c1.7422.8321,1.8165,1.2087,3.7819,1.654a11.1755,11.1755,0,0,1,2.5133.8771C252.2158,291.3256,252.5164,291.8252,251.2521,292.1279Z" fill="#473e73"/><path d="M241.8129,286.7273a7.4964,7.4964,0,0,1-.0477,2.0036c2.32,1.3533,3.3928-.1374,3.3928-.1374l-.0931-.2547-.2072-1.9905Z" fill="#feadae"/><path d="M221.4462,225.3749s-4.7992-9.7237,2.0184-17.432c0,0,6.3818,2.3874,11.3731,2.41a24.6241,24.6241,0,0,0,5.8923-.513,126.9812,126.9812,0,0,1,1.5732,18.6384Z" fill="#0088cc"/><path d="M236.5234,258.6966v.0206c0,9.7875,3.39,22.3136,4.5784,29.3931.124,0,.2585-.01.3721-.02a21.2113,21.2113,0,0,0,4.041-.5271l-.0413-.7545c-.8681-11.42-.6614-30.1891-.7648-36.1111a7.1952,7.1952,0,0,0-.1033-1.1264c-.7235-4.2995-5.1572-3.4521-6.78.6406a14.6587,14.6587,0,0,0-.6718,2.16c-.0723.31-.1344.62-.1964.9507v.01a25.6187,25.6187,0,0,0-.3721,3.2142v.1137c-.031.32-.0414.6408-.0517.961v.0725C236.5234,258.0247,236.5234,258.3556,236.5234,258.6966Z" fill="#0088cc"/><path d="M229.63,229.4895c.0311.1135.0621.2376.1034.3616,1.0645,4.1652,3.9479,14.056,5.9736,20.04l.01.0311c0,.01,0,.01.01.0206.4652,1.3747.8889,2.5425,1.23,3.38v.01a2.1286,2.1286,0,0,0,1.1678,1.0335,3.8827,3.8827,0,0,0,.8889.2789c2.284.4754,5.5809-.5787,5.5913-5.0744a11.4788,11.4788,0,0,0-.124-1.6228c-.5271-3.6173-2.5942-23.6881-2.8732-25.61-.2789-1.9326-.806-4.7439-1.85-5.0436C234.5287,215.847,227.8314,222.2858,229.63,229.4895Z" fill="#0088cc"/><path d="M236.73,251.6272l-1.0128-1.7051c0,.01,0,.01.01.0206a26.4155,26.4155,0,0,1,.8579,6.6042v.1137c-.01.31-.0206.6408-.0517.961v.0725a4.5352,4.5352,0,0,0-.01,1.0025v.0206c.1964.8372,1.3435-3.3691,1.6018-4.351.031-.124.0517-.1964.0517-.1964l-1.0231-1.7982Z" fill="#5146af"/><path d="M229.7332,229.8511c1.0645,4.1652,3.9479,14.056,5.9736,20.04a.08.08,0,0,0,.01.0311c0,.01,0,.01.01.0206a26.4155,26.4155,0,0,1,.8579,6.6042v.1137c-.031.32-.0414.6408-.0517.961v.0725c-.01.3306-.01.6616-.01,1.0025v.0206c0,9.7875,3.39,22.3136,4.5784,29.3931.124,0,.2585-.01.3721-.02,0,0-1.3747-11.6272-2.925-19.6577a32.1871,32.1871,0,0,1,.4652-13.7871c.1654-.6408.2893-.992.2893-.992l-1.4778-3.4417c-1.6949-4.4957-2.3978-15.1926-2.3978-15.1926,2.9352-7.741,2.8111-17.26,2.8111-17.26l-2.8938.5891-4.8368,6.6041Z" fill="#293882"/><path d="M220.76,250.9917c3.257-3.4749,8.17-2.2366,6.2388,2.9593-2.0653,5.5554-8.5581,21.0275-11.9165,31.9761l-.2344.7133a21.9315,21.9315,0,0,1-4.3069-1.1013c1.4815-7.0631,2.1236-19.1149,5.5863-27.7031A22.5981,22.5981,0,0,1,220.76,250.9917Z" fill="#0088cc"/><path d="M238.2472,217.7655c.1659-8.0823-9.5191-2.1115-14.158.8461-1.9528,1.2444-2.5522,3.527-2.6911,5.6486s-1.3722,23.9514-1.6447,27.9371c-.6146,8.9856,6.8624,3.6223,7.4425,1.1065C228.659,246.953,238.1566,222.17,238.2472,217.7655Z" fill="#0088cc"/><path d="M220.0947,246.6305a21.6192,21.6192,0,0,1-3.3,9.7683s5.6912-3.0756,5.9507-3.4916a22.0606,22.0606,0,0,0,.8818-5.0419C223.4861,247.4346,220.0947,246.6305,220.0947,246.6305Z" fill="#0088cc"/><path d="M243.442,155.2595s1.5185,14.3572-9.3184,11.32c-.5522.0691-3.8654-.7594-4.3485-5.1078a16.258,16.258,0,0,1,2.2089-9.1114c.207-.138,7.04-.3452,7.3165-.3452S243.442,155.2595,243.442,155.2595Z" fill="#feadae"/><path d="M234.3308,158.9178a2.645,2.645,0,0,0,1.2424-3.0371c-.4142-2.278-.1381-2.4159,1.5185-1.4495s10.0085,5.5219,8.5591-5.108c-.9665.5522-4.0035.4833-4.6248-.8282s-7.7308-4.9008-10.4227.345c-1.8637.0691-4.0034,2.2089-3.7963,6.4193s1.7358,9.6438,3.3132,9.94,2.4158-.9663,2.3469-2.968c-.0691-1.0354-3.1061-2.4159-.8972-5.5221A1.8043,1.8043,0,0,1,234.3308,158.9178Z" fill="#3d4177"/><path d="M232.3084,165.39s.2859,3.0594-.6842,4.3164c2.2984,1.81,6.4786,1.4314,6.4786,1.4314s-1.257-1.3011,0-5.6535S232.3084,165.39,232.3084,165.39Z" fill="#feadae"/><path d="M244.6055,188.7642s-3.0109,2.3411-5.1953,2.5282l1.1526-13.0935,1.2249,3.21Z" fill="#fbdb8a"/><path d="M244.6055,188.7642s-3.0109,2.3411-5.1953,2.5282l.83-13.2036.3229.11a27.18,27.18,0,0,1,1.4118,8.8458c-.0111.3178.0333,1.7542.0333,2.3577C242.0079,189.8758,243.615,189.0722,244.6055,188.7642Z" fill="#f4cf7a"/><path d="M242.3,209.4545s-.1327.06-.38.1569c-1.7257.6575-9.1835,2.9928-18.4577-1.6714l-1.1464-.5974s1.5083-3.4213,1.81-13.3771.0181-11.0661,1.7076-15.99c1.4723-4.3023,6.221-9.606,6.221-9.606s4.4409,2.7695,6.046,2.7695c2.0152,4.9237,4.1271,11.2955,3.3728,15.9054-.5008,3.0772.0362,12.0315.4466,17.643C242.1254,207.4873,242.3,209.4545,242.3,209.4545Z" fill="#fbdb8a"/><path d="M242.3,209.4545s-.1327.06-.38.1569c-3.9582-3.0532-9.1475-7.5244-10.5412-9.437-1.6836-2.3049-2.299-6.2391-2.4982-7.9646-.2715-.0062-.549-.0122-.8266-.03a26.8106,26.8106,0,0,1,.8508-12.985l7.283,2.6307,2.7193,8.2183a20.4239,20.4239,0,0,1-3.6077,1.2489,43.7153,43.7153,0,0,0,1.2263,7.3734,59.9789,59.9789,0,0,0,5.3943,6.0218C242.1254,207.4873,242.3,209.4545,242.3,209.4545Z" fill="#f4cf7a"/><rect x="243.9777" y="193.9636" width="25.4379" height="24.9245" transform="matrix(1, -0.0011, 0.0011, 1, -0.2345, 0.292)" fill="#d3d3d3"/><path d="M249.8657,216.4921a4.8924,4.8924,0,0,0,2.5547,3.0456,1.6292,1.6292,0,0,0,1.0716-.0376c.4985.2174,2.0768.3754,1.48-.546a4.49,4.49,0,0,0,3.4149.7c.4249-.0251.4059-.5208-.5256-.7639a4.67,4.67,0,0,1-2.9228-2.4093c.1917-.15.35.12.8762.1979.5833.0866.8918-.1782.9076-.4325.0119-.192-.6894-.4087-.8434-.5081q-.8778-.5675-1.7558-1.1351a3.3237,3.3237,0,0,0-1.84-.6524c-.1282-.0079-1.3806.0791-1.0653.5322" fill="#feadae"/><path d="M228.9833,187.4394c1.5444,3.1126,5.6249,13.441,6.2538,14.63,2.4774,4.6841,15.0327,14.7758,15.0327,14.7758a2.53,2.53,0,0,0,2.0873-2.4808c-3.59-2.4372-10.39-12.9881-11.7892-14.2444-.9072-.8142-5.1143-17.1635-5.1143-17.1635" fill="#feadae"/><path d="M228.9833,178.8271a31.3723,31.3723,0,0,0,0,12.423,28.5476,28.5476,0,0,0,9.9242-1.2067l-1.7888-9.1492" fill="#fbdb8a"/><rect x="154.0469" y="130.3219" width="51.2473" height="23.8654" rx="2.5992" ry="2.5992" transform="translate(181.1508 -86.9084) rotate(51.9996)" fill="#d3d3d3"/><rect x="163.6584" y="122.7238" width="11.7343" height="13.8531" transform="translate(167.3196 -83.7584) rotate(51.9996)" fill="#f7f7f7"/><rect x="167.6862" y="146.6987" width="15.4633" height="1.3289" transform="translate(183.542 -81.5938) rotate(51.9996)" fill="#f7f7f7"/><rect x="169.3443" y="147.4066" width="23.6781" height="1.3289" transform="translate(186.3156 -85.865) rotate(51.9996)" fill="#f7f7f7"/><rect x="172.581" y="144.8777" width="23.6781" height="1.3289" transform="matrix(0.6157, 0.788, -0.788, 0.6157, 185.5669, -89.3875)" fill="#f7f7f7"/><rect x="175.8176" y="142.3489" width="23.6781" height="1.3289" transform="translate(184.8181 -92.9099) rotate(51.9996)" fill="#f7f7f7"/><path d="M150.2489,130.3215c2.4024,2.8155,4.4066,9.498,6.8586,12.27,1.2056,1.363,9.8443,8.7,15.6374,11.8172.249-1.7284,3.91-.6914,2.6008-1.8467-4.0708-3.5922-11.0851-7.225-13.5256-13.8627-1.6063-4.368-7.4887-14.0492-7.4887-14.0492" fill="#e5989b"/><path d="M140.0465,224.7581s-.8864,4.7537-.6031,5.35a8.3061,8.3061,0,0,0,2.2975,2.9352c1.0549.64,3.3753,1.3746,3.5662,1.6584a.7151.7151,0,0,1-.1094.9692,4.77,4.77,0,0,1-3.2612.91c-3.1325-.4406-3.4883-1.8129-5.3114-1.99-.3148-.0307-.8851.4473-1.7639.0238a2.0641,2.0641,0,0,1-1.263-1.973,8.934,8.934,0,0,1,1.3014-3.3732c.4979-.976.7594-5.3942.7594-5.3942" fill="#feadae"/><path d="M147.0838,145.5982l-12.4416.3057s-4.8334,6.8946-2.7959,13.3858c1.0023,3.1921,2.202,4.7582,2.7428,6.2714.5051,1.4133,4.2174,21.5045,4.0115,22.9848s-1.842,5.6475-2.4006,10.002c-.6718,5.2372-.1307,22.2359-.64,26.7586a7.353,7.353,0,0,0,4.2556.78c1.6455-13.082,5.9365-30.6428,6.5042-37.1767A421.9238,421.9238,0,0,0,147.0838,145.5982Z" fill="#0088cc"/><path d="M145.93,167.1357s-8.6493-18.3568-10.3256-14.3219a8.3664,8.3664,0,0,0,2.5046,10.2941c2.0472,3.2781,6.6879,22.0255,6.9335,26.0005.1277,2.0647-.0052,4.1394.1012,6.2057a3.8634,3.8634,0,0,0,.1188.61c.5525-3.0789.9136-5.7777,1.057-7.4268.4009-4.6162.2288-11.9346-.1587-21.3785A1.9452,1.9452,0,0,0,145.93,167.1357Z" fill="#293882"/><path d="M145.4466,235.8927c.2181-.3947.262-.9847.0471-1.1235a18.2031,18.2031,0,0,0-1.9705-1.1226c-.6118-.2644-1.5776-.487-1.235-.3123s-.2637.872-.8308.8511c-1.9588-.0732-3.432-1.3387-4.5528-1.5907a3.8268,3.8268,0,0,1-2.4145-2.5518,7.5008,7.5008,0,0,0-1.1022,2.23,3.8485,3.8485,0,0,0-.1984,1.687,3.9142,3.9142,0,0,1,.217,1.5986,3.069,3.069,0,0,0,1.1657.3893,4.56,4.56,0,0,0,1.2451-.0117l.1143-1.0132a4.5776,4.5776,0,0,1,.9968.0742,5.4,5.4,0,0,1,1.5368.6731c.23.261.42.7428.7189.8847a6.2326,6.2326,0,0,0,2.5807.5787C143.8646,237.2053,145.0738,236.5672,145.4466,235.8927Z" fill="#473e73"/><path d="M150.379,226.76c1.3672.0106,2.5518.033,3.9187.07a14.56,14.56,0,0,0,.4022,4.3851,6.71,6.71,0,0,0,2.746,2.5636c1.1717.4753,3.6626.8549,3.8958,1.1074a.6959.6959,0,0,1,.01.9769,5.211,5.211,0,0,1-3.2551,1.3922c-3.2932.0345-3.8346-1.2721-5.7411-1.1737-.3292.0169-.8583.5763-1.82.2887a2.0141,2.0141,0,0,1-1.5554-1.7656c-.0645-1.3089.9462-2.5386,1.3372-3.5808C150.3846,230.845,150.353,227.0675,150.379,226.76Z" fill="#feadae"/><path d="M137.8882,144.0465l12.3606,3.2272c3.7867,15.1232,6.3849,31.8774,6.0489,41.3255-.1937,5.4356-1.68,28.14-1.8184,37.4267-.0034.2221-.0064.5056-.0087.809q-2.0456-.0575-4.0916-.0747c-.0077-.1265-.0156-.2541-.0211-.357-.4739-5.6852-2.87-20.5953-2.8413-25.5464a46.079,46.079,0,0,1,1.573-11.11s-8.433-24.4025-8.9964-25.9151-3.8107-2.0812-4.5862-5.9812C134.17,151.1285,137.8882,144.0465,137.8882,144.0465Z" fill="#0088cc"/><path d="M161.637,236.0457c.1756-.424.1459-1.0154-.094-1.1206a18.8606,18.8606,0,0,0-2.1784-.8164c-.6659-.17-1.6919-.2453-1.316-.1236s-.162.9038-.7509.9682c-2.0335.222-3.7163-.8105-4.9065-.8918a3.1269,3.1269,0,0,1-2.485-2.17,7.8678,7.8678,0,0,0-1.19,2.3789,3.7152,3.7152,0,0,0,.0085,1.7018,3.7219,3.7219,0,0,1,.4267,1.5517,3.2452,3.2452,0,0,0,1.2541.2106,4.99,4.99,0,0,0,1.2853-.1987l-.01-1.0214a4.9739,4.9739,0,0,1,1.04-.0766,3.4506,3.4506,0,0,1,1.6835.5765c.2816.2077.58.5592.91.639a6.9047,6.9047,0,0,0,2.6748.1749C160.1682,237.5843,161.3372,236.77,161.637,236.0457Z" fill="#473e73"/><path d="M149.2661,112.6355c.8519.2727.555,2.2994,1.4069,2.5723.6172.1979,1.82-.0856,2.3878.227,3.0089,1.6569,2.2756,5.0321,2.6792,9.2012,1.2984,3.1893,1.6654,6.0871.674,7.8859-1.23,2.2324-2.549,2.872-4.0683,4.7269-1.1365,1.3872-1.4847,4.2189-1.69,7.26-.0353.5232.4093,1.4361.2878,1.9464-.2325.9786-1.7123,1.2965-3.3677,1.3449-3.8048.1112-9.59-1.2153-11.2879-1.1354-1.5993.0756-3.1149-.6852-2.9685-1.6306.1022-.66.76-.9373,1.008-2.2148.5462-2.8135.9159-9.8371,1.3391-12.2211,1.0841-6.1059,1.8765-10.6461,4.3176-16.2879" fill="#fbdb8a"/><path d="M158.06,127.1593a28.4887,28.4887,0,0,0-3.4986-4.4887l-3.2365,1.4964c1.5587,2.9176,1.8722,6.3687,2.606,9.5686a7.5919,7.5919,0,0,0,1.8747-.2036c.3111-.52.1953-.2605.6085-1.01A13.1472,13.1472,0,0,0,158.06,127.1593Z" fill="#fbdb8a"/><path d="M160.05,104.2939a16.2264,16.2264,0,0,0,.511-4.2134c-.1181-2.4165-.46-5.915-4.4919-7.3129s-8.4558-.49-9.7423,2.4212-.9358,7.294-1.1045,9.6408a14.4728,14.4728,0,0,1-1.86,5.1712l8.6892,3.6368s1.3825-3.0871,1.96-3.461.7956,1.0873,2.7212.9052c.8177-.0772,1.676-1.555,2.319-3.3686.0191-.0541.0409-.122.06-.1788a8.9955,8.9955,0,0,0,1.0283-.099c.5947-.1838.5451-.4471.4073-.8244A9.8087,9.8087,0,0,1,160.05,104.2939Z" fill="#feadae"/><path d="M172.522,153.7261a4.6343,4.6343,0,0,0,2.42,2.8849,1.5432,1.5432,0,0,0,1.0151-.0357c.4721.2061,1.9673.3557,1.4021-.5172a4.253,4.253,0,0,0,3.2347.6634c.4026-.0238.3845-.4935-.4979-.7237a4.4247,4.4247,0,0,1-2.7686-2.2821c.1818-.1419.3315.1136.83.1875.5525.0819.8447-.1689.86-.41.0112-.1819-.6532-.3872-.7989-.4813l-1.6631-1.0752a3.1492,3.1492,0,0,0-1.743-.6179c-.1215-.0075-1.3078.0749-1.0092.5041" fill="#feadae"/><path d="M152.7414,126.2061c1.4629,2.9486,5.3282,12.7319,5.9237,13.858,2.3468,4.4371,14.24,13.9962,14.24,13.9962a2.3966,2.3966,0,0,0,1.9772-2.35c-3.4009-2.3086-9.8415-12.303-11.1671-13.4931-.8594-.7713-4.8447-16.2579-4.8447-16.2579" fill="#feadae"/><path d="M155.8573,115.2334c-3.3-1.223-6.4438-1.1978-8.9875-3.69-2.5348,1.9911,3.22,13.2988,4.6175,13.5895,1.4284.2974,3.3483,6.5522,3.7061,7.4014,4.551-.1664,6.1906-2.6653,6.1906-2.6653C159.4681,124.1769,159.0561,116.4187,155.8573,115.2334Z" fill="#f4cf7a"/><path d="M153.2235,115.57c-.2347-.8529-.8879-1.5259-1.0415-2.3979a3.93,3.93,0,0,1,.4577-2.5952,4.7418,4.7418,0,0,1,1.1153-1.0735c1.7944-1.4446,2.4125-2.6291,1.7842-4.7564a5.8042,5.8042,0,0,1-.3294-2.138c.0586-.6544.1851-1.3386.8874-1.4279.4885-.0622.8043.0531.9806.4642.1231.2871-.093,2.3578.5808,1.18.6455-1.1288,1.2282-1.22,1.1705-3.8051-.0069-.3062-.1241-1.5534.0642-1.7386a4.9305,4.9305,0,0,1,1.7246,3.46,2.5239,2.5239,0,0,0,1.1365-2.19,5.77,5.77,0,0,0-.5021-2.5853c-1.6048-3.3545-3.2783-3.9563-4.6907-4.5389a10.4381,10.4381,0,0,0-4.2742-1.0869c-1.4791.0548-3.3091.5126-3.7256,1.6261-2.0561-.5076-3.21,1.2959-3.6882,1.9452a10.4336,10.4336,0,0,0-1.5523,3.07c-.5071,1.6247-.6123,3.35-1.0094,5.007a7.28,7.28,0,0,1-1.9162,3.6966c-.99.9135-2.3933,1.0114-3.47,1.8507a5.4627,5.4627,0,0,0-2.0273,4.56c.0923,1.7345,1.0037,3.5966-.0281,5.1992-.3354.5212-.8088.9393-1.1394,1.4641a3.95,3.95,0,0,0,.1193,4.0762,7.2375,7.2375,0,0,0,3.5654,2.9842,10.3746,10.3746,0,0,0,3.8276.487c2.4909-.1623,4.5894-.0412,7.2033-2.3208,1.48-1.291.5172-2.01,1.9367-3.3784.7958-.7666,1.932-1.1824,2.5106-2.1739a3.8381,3.8381,0,0,0,.3552-2.7628Q153.2373,115.62,153.2235,115.57Z" fill="#3d4177"/><rect x="338.3148" y="112.7337" width="10.0739" height="5.0369" rx="0.5781" ry="0.5781" transform="translate(686.7036 230.5043) rotate(-180)" fill="#feadae"/><path d="M306.9312,107.3045s.3016,3.4695,1.391,3.7285,1.8682.2332,2.3046-1.3382a11.8225,11.8225,0,0,0-.0877-5.3351,9.0647,9.0647,0,0,0-2.3107-3.5888c-1.1656-.395-.2222,2.0689.1764,3.2843s.7281,2.6277.0889,2.6541-1.2275-2.3586-1.97-2.57S306.9312,107.3045,306.9312,107.3045Z" fill="#e5989b"/><path d="M320.9527,127.4823c-5.7293-1.6678-11.0959-18.0771-10.746-17.1179a1.1909,1.1909,0,0,0-2.2894.6171,66.2687,66.2687,0,0,0,2.8944,11.3973c2.6106,7.6723,8.1017,13.6162,15.8818,10.6034,5.643-2.2568,10.68-8.9429,13.4037-13.9739a4.1526,4.1526,0,1,0-7.4534-3.6479C330.8354,119.4629,325.3457,128.8727,320.9527,127.4823Z" fill="#e5989b"/><path d="M327.2933,123.8014c.0069-.01,4.7305-6.968,5.3053-8.3433l.0285-.0688q.0695-.1648.1542-.326a4.1539,4.1539,0,0,1,7.3515,3.87,51.8924,51.8924,0,0,1-3.0812,5.1c-.75,1.0816-1.5481,2.1309-2.37,3.1643C334.0693,126.5439,328.7558,124.3257,327.2933,123.8014Z" fill="#f4cf7a"/><path d="M358.299,222.0942l2.5874,8.5322.7125,3.996a1.1465,1.1465,0,0,1-1.091,1.3534c-3.3588.103-11.96.33-12.19-.0428-1.0815-1.7493,3.8069-2.4226,7.3831-3.8069,1.6793-.65-1.335-9.1386-1.335-9.1386a7.4233,7.4233,0,0,1,2.4436-5.8241Z" fill="#feadae"/><path d="M355.7009,232.1261c.0191-.0074.0357-.02.0544-.0283a8.1881,8.1881,0,0,0,2.892.5053,8.4092,8.4092,0,0,0,2.5252-.3713l.4263,2.3907a1.1465,1.1465,0,0,1-1.0911,1.3534c-3.3588.103-11.96.33-12.19-.0428C347.2364,234.1837,352.1246,233.51,355.7009,232.1261Z" fill="#473e73"/><path d="M351.3149,187.5222c1.1641,3.155,8.9321,28.63,10.5057,39.3823l-6.7159.8395c-4.4822-9.7865-11.8378-33.7473-12.976-36.832-.0146-.0395-.0255-.0786-.04-.118-4.9052-10.5108-10.831-31.7665-11.6811-36.1474-1.1528-5.9413,1.6545-11.4839,6.27-12.3795s9.2922,3.1947,10.445,9.1362C347.8471,155.1331,350.7635,186.0281,351.3149,187.5222Z" fill="#293882"/><path d="M339.7609,164.2818a28.3967,28.3967,0,0,0-8.4132-5.703c-.4576-1.761-.7843-3.1311-.94-3.9322-1.1527-5.9413,1.6545-11.4839,6.27-12.3795s9.2922,3.1946,10.445,9.1361c.3374,1.7388,1.1513,9.3813,1.98,17.1964A78.7541,78.7541,0,0,0,339.7609,164.2818Z" fill="#293882"/><path d="M334.5386,221.8026l-1.8,8.8238.7125,3.996a1.1465,1.1465,0,0,1-1.0911,1.3534c-3.3588.103-11.96.33-12.19-.0428-1.0815-1.7493,3.8068-2.4226,7.3831-3.8069,3.2749-3.3833,3.2749-12.4589,3.2749-12.4589Z" fill="#feadae"/><path d="M327.5528,232.1261c.0192-.0074.0358-.02.0545-.0283a8.1876,8.1876,0,0,0,2.892.5053,8.41,8.41,0,0,0,2.5252-.3713l.4263,2.3907a1.1466,1.1466,0,0,1-1.0911,1.3534c-3.3588.103-11.96.33-12.19-.0428C319.0883,234.1837,323.9766,233.51,327.5528,232.1261Z" fill="#473e73"/><path d="M343.8139,191.928c-.46,3.136-6.1469,27.8878-9.6965,37.495l-6.7159-1.679c.7071-10.1206,6.8313-34.09,7.2813-37.1562.0058-.0392.0144-.0765.0205-.1155.6838-10.9108,1.9707-31.57,3.2441-35.579,1.7269-5.4365,7.4332-8.3592,11.6569-7.0175s5.3652,6.44,3.6383,11.8762C352.1584,163.1649,344.0318,190.4429,343.8139,191.928Z" fill="#0088cc"/><path d="M336.5219,112.8434h2.1509a5.2749,5.2749,0,0,0,9.5873,0h1.9629c2.0069,0,5.6636,3.7606,5.7212,5.7667.15,5.2275-4.0424,12.2882-3.4428,21.3962.5428,8.2439,2.7935,15.9048,1.254,18.1525,0,0-19.49-.6034-23.486-4.3827-1.2929-1.2226.3182-11.3686.9232-18.6457.602-7.2416,1.2122-14.63,1.5578-18.8186A3.78,3.78,0,0,1,336.5219,112.8434Z" fill="#fbdb8a"/><path d="M318.2278,132.4344c-9.9189-2.4217-12.0855-6.5156-13.293-4.2931a1.1937,1.1937,0,0,0,.2724,1.4755c21.0077,17.9853,41.12,7.9416,48.514-8.0667,2.2764-4.9283-5.1555-8.4837-7.532-3.478C340.2469,130.5887,329.5872,135.0933,318.2278,132.4344Z" fill="#feadae"/><path d="M341.1321,125.3592a87.2732,87.2732,0,0,0,5.149-8.12s1.28-2.2643,4.9463-1.4876c2.9284.62,2.9882,3.93,2.9882,3.93.0192.4585-.9078,5.2122-6.2555,11.0726C347.96,130.7533,340.7509,125.8589,341.1321,125.3592Z" fill="#f4cf7a"/><path d="M347.9346,99.8512h.7584a0,0,0,0,1,0,0v8.6857a0,0,0,0,1,0,0h-3.76a0,0,0,0,1,0,0v-5.6845A3.0012,3.0012,0,0,1,347.9346,99.8512Z" transform="translate(662.7586 281.1525) rotate(-167.4692)" fill="#3d4177"/><polygon points="340.757 112.843 347.679 112.843 345.683 105.942 340.965 106.526 340.757 112.843" fill="#feadae"/><path d="M340.9648,106.5262l4.7184-.584.93,3.216c-1.0561,1.191-2.6229,3.0393-4.34,3.0393a2.7307,2.7307,0,0,1-1.4872-.4368Z" fill="#fa968c"/><path d="M340.2506,110.1942h0a5.7647,5.7647,0,0,0,6.8785-4.3758L348.523,99.55l-9.6513-2.1462a50.1984,50.1984,0,0,0-1.12,8.3526C337.7285,108.3512,338.6664,109.8419,340.2506,110.1942Z" fill="#feadae"/><rect x="346.5757" y="101.8571" width="1.8582" height="0.8427" transform="translate(664.5197 277.5553) rotate(-167.4622)" fill="#3d4177"/><path d="M345.7562,104.2691c-.2719,1.2231.093,2.3447.8152,2.5054s1.8751-1.2655,2.1471-2.4886a1.4677,1.4677,0,0,0-1.1621-1.9406C346.8341,102.1846,346.0281,103.0459,345.7562,104.2691Z" fill="#feadae"/><path d="M337.6289,99.8328a5.5539,5.5539,0,0,1,.3959-2.4342h0a3.8082,3.8082,0,0,1,4.8707-2.0591,5.6745,5.6745,0,0,0,.634.18l3.2576.7231a3.63,3.63,0,0,1,2.7567,4.3316l-.1688.7593-1.9313,1.12-.7871,1.3709-.1276-.0284a1.2,1.2,0,0,1-.9251-1.3555,1.89,1.89,0,0,0-1.36-2.248l-2.891-.6428c-1.76-.3914-2.8847.35-3.1774,1.6663l-.1577,1.1335Z" fill="#3d4177"/><path d="M347.3757,97.5475c.221,1.7883-6.2057,4.0538-7.9007,4.2632a3.2671,3.2671,0,0,1-.8-6.4756C340.37,95.1257,347.1549,95.7594,347.3757,97.5475Z" fill="#3d4177"/><path d="M303.164,126.6877s3.48.14,3.7892,1.2161.32,1.8553-1.23,2.3644a11.8206,11.8206,0,0,1-5.3334.1605,9.0647,9.0647,0,0,1-3.6924-2.1412c-.4489-1.146,2.0562-.3182,3.2888.0233s2.6587.6051,2.6554-.0347-2.4132-1.1164-2.6593-1.848S303.164,126.6877,303.164,126.6877Z" fill="#fab9af"/><path d="M306.5238,104.1387c.7422.2119,1.3306,2.597,1.97,2.57.3665-.0151.4093-.4913.3085-1.1193a8.96,8.96,0,0,0,2.0778,2.2657,8.2532,8.2532,0,0,1-.2531,1.8392c-.4365,1.5715-1.2151,1.5973-2.3046,1.3383s-1.391-3.7286-1.391-3.7286S305.7816,103.9269,306.5238,104.1387Z" fill="#e5989b"/><rect x="245.7467" y="187.9568" width="1.1966" height="6.4618" fill="#e2e2e2"/><rect x="246.9433" y="187.9568" width="1.9146" height="6.4618" fill="#d3d3d3"/><rect x="249.576" y="187.9568" width="1.9146" height="6.4618" fill="#e2e2e2"/><rect x="251.4906" y="187.9568" width="1.1966" height="6.4618" fill="#d3d3d3"/><rect x="253.4052" y="185.0849" width="1.6753" height="9.3338" fill="#e2e2e2"/><rect x="255.0805" y="185.0849" width="1.1966" height="9.3338" fill="#d3d3d3"/><rect x="256.7558" y="185.0849" width="1.9146" height="9.3338" fill="#e2e2e2"/><rect x="258.4311" y="185.0849" width="1.1966" height="9.3338" fill="#d3d3d3"/><rect x="260.3457" y="185.0849" width="1.6753" height="9.3338" fill="#e2e2e2"/><rect x="262.021" y="185.0849" width="1.1966" height="9.3338" fill="#d3d3d3"/><rect x="263.6963" y="185.0849" width="1.9146" height="9.3338" fill="#e2e2e2"/><rect x="265.3716" y="185.0849" width="1.1966" height="9.3338" fill="#d3d3d3"/><rect x="243.9661" y="193.9636" width="25.4379" height="4.5081" transform="matrix(1, -0.0011, 0.0011, 1, -0.2223, 0.2911)" fill="#e2e2e2"/><ellipse cx="101.8575" cy="239.7709" rx="19.1048" ry="2.4411" fill="#2e5175" opacity="0.1"/><path d="M90.1278,197.2277C93.1755,212.267,98.6851,220.2,103.45,219.6338L92.29,164.5605C91.3367,167.989,87.37,183.6187,90.1278,197.2277Z" fill="#f4cf7a"/><path d="M92.4877,163.8707s-.0737.2423-.1981.69L103.45,219.6338c.11-.0131.22-.0253.3283-.0474,4.8381-.98,6.9871-10.5237,3.8692-25.9092S92.4877,163.8707,92.4877,163.8707Z" fill="#fbdb8a"/><path d="M101.1862,207.1812q-1.1419-5.556-2.2688-11.1149-2.2661-11.1159-4.6758-22.2018a.0653.0653,0,0,0-.128.026q1.424,7.5309,2.9085,15.05a30.6108,30.6108,0,0,0-5.4966-3.5831c-.1-.0475-.2031.1084-.1206.1818a31.4636,31.4636,0,0,0,5.6982,3.8111c.4472,2.2706.89,4.5419,1.3473,6.8105q1.12,5.56,2.2374,11.1212c.7364,3.6859,1.2646,7.4963,2.2987,11.1088a.2078.2078,0,0,0,.4071-.0824C102.94,214.5788,101.9428,210.8626,101.1862,207.1812Z" fill="#2e5175"/><path d="M100.0624,202.5782a63.9955,63.9955,0,0,0-9.1883-6.0634.0713.0713,0,0,0-.0787.1187,63.9815,63.9815,0,0,0,9.162,6.1028A.0949.0949,0,0,0,100.0624,202.5782Z" fill="#2e5175"/><path d="M103.2713,188.7119c-.8794,1.172-1.71,2.38-2.5539,3.5776a18.7177,18.7177,0,0,0-2.0922,3.3613.1075.1075,0,0,0,.1723.1141,18.7024,18.7024,0,0,0,2.2815-3.2357c.7748-1.2435,1.5639-2.4789,2.301-3.7452A.0653.0653,0,0,0,103.2713,188.7119Z" fill="#2e5175"/><path d="M105.9483,202.836A56.0108,56.0108,0,0,0,101.69,209.14a.1187.1187,0,0,0,.1978.1312,55.9947,55.9947,0,0,0,4.1493-6.3767A.0534.0534,0,0,0,105.9483,202.836Z" fill="#2e5175"/><path d="M102.748,213.8336a50.1111,50.1111,0,0,0-7.557-4.96.0772.0772,0,0,0-.0853.1287,50.1159,50.1159,0,0,0,7.5112,5.03A.1187.1187,0,0,0,102.748,213.8336Z" fill="#2e5175"/><path d="M107.5413,196.7549c-4.668,11.8958-4.4013,19.9348-.8128,21.6933l17.094-43.5622C121.606,176.8529,111.7655,185.99,107.5413,196.7549Z" fill="#f4cf7a"/><path d="M124.273,174.4932s-.1611.1361-.45.3929l-17.094,43.5622c.0826.04.1649.0816.251.1153,3.8269,1.5017,9.6445-4.201,14.42-16.3707S124.273,174.4932,124.273,174.4932Z" fill="#fbdb8a"/><path d="M110.7751,208.7156q1.7133-4.4018,3.4385-8.799,3.4409-8.7987,6.7678-17.6411a.0544.0544,0,0,0-.1012-.04q-2.4091,5.9106-4.77,11.84a25.481,25.481,0,0,0-2.224-4.9909.0945.0945,0,0,0-.1665.0727,26.1962,26.1962,0,0,0,2.2621,5.2415c-.7138,1.79-1.4309,3.5789-2.1369,5.3722q-1.73,4.3952-3.4633,8.7894c-1.1514,2.9107-2.5048,5.8144-3.4148,8.8084a.1731.1731,0,0,0,.322.1263C108.6571,214.6821,109.64,211.6324,110.7751,208.7156Z" fill="#2e5175"/><path d="M112.07,204.9884a53.2908,53.2908,0,0,0-3.6846-8.3946.0593.0593,0,0,0-.1087.0474,53.2964,53.2964,0,0,0,3.6484,8.41A.0791.0791,0,0,0,112.07,204.9884Z" fill="#2e5175"/><path d="M120.5836,196.7415c-1.1449.4221-2.2718.8912-3.4035,1.3474a15.5849,15.5849,0,0,0-2.9829,1.4049.09.09,0,0,0,.0688.1577,15.5634,15.5634,0,0,0,3.0586-1.2314c1.1041-.5193,2.2145-1.0266,3.3027-1.5789A.0544.0544,0,0,0,120.5836,196.7415Z" fill="#2e5175"/><path d="M116.07,207.83a46.6337,46.6337,0,0,0-5.8283,2.4841.0989.0989,0,0,0,.079.1811,46.6344,46.6344,0,0,0,5.785-2.5837A.0445.0445,0,0,0,116.07,207.83Z" fill="#2e5175"/><path d="M108.86,214.0743a41.7346,41.7346,0,0,0-3.0424-6.8859.0643.0643,0,0,0-.1178.0514,41.7209,41.7209,0,0,0,2.9791,6.9135A.0989.0989,0,0,0,108.86,214.0743Z" fill="#2e5175"/><path d="M82.2752,204.1093C87.183,214.4889,92.6065,219.265,95.9669,218L77.9944,179.9908C77.9162,182.6521,77.8341,194.717,82.2752,204.1093Z" fill="#f4cf7a"/><path d="M78.0148,179.4542s-.01.1892-.02.5366L95.9669,218c.0773-.0291.1549-.0577.23-.0932,3.339-1.5788,3.1909-8.8966-1.83-19.5151S78.0148,179.4542,78.0148,179.4542Z" fill="#fbdb8a"/><path d="M92.0915,209.3594q-1.8247-3.8317-3.6391-7.6681-3.6372-7.6695-7.3735-15.2914a.0488.0488,0,0,0-.0882.0418q2.3833,5.2159,4.8085,10.4124a22.9016,22.9016,0,0,0-4.6349-1.6184.0849.0849,0,0,0-.0549.1537,23.5328,23.5328,0,0,0,4.8221,1.748c.7316,1.5694,1.46,3.14,2.1986,4.7063q1.81,3.8388,3.6174,7.6784c1.1952,2.5457,2.2613,5.2192,3.66,7.6584a.1555.1555,0,0,0,.2809-.1329C94.6906,214.4194,93.3005,211.8984,92.0915,209.3594Z" fill="#2e5175"/><path d="M90.4507,206.2168a47.879,47.879,0,0,0-7.761-2.759.0533.0533,0,0,0-.0359.1,47.8843,47.8843,0,0,0,7.749,2.7924A.0711.0711,0,0,0,90.4507,206.2168Z" fill="#2e5175"/><path d="M90.298,195.5687c-.4289,1.009-.8161,2.0351-1.2145,3.0564a14.0049,14.0049,0,0,0-.9178,2.8167.08.08,0,0,0,.1456.052,13.9892,13.9892,0,0,0,1.0779-2.7593c.34-1.0421.6921-2.081,1.0009-3.1328A.0489.0489,0,0,0,90.298,195.5687Z" fill="#2e5175"/><path d="M94.7727,205.35a41.9132,41.9132,0,0,0-1.9641,5.3427.0888.0888,0,0,0,.1671.06,41.8888,41.8888,0,0,0,1.8722-5.3756A.04.04,0,0,0,94.7727,205.35Z" fill="#2e5175"/><path d="M94.4177,213.9124a37.4975,37.4975,0,0,0-6.3785-2.25.0577.0577,0,0,0-.0388.1086,37.492,37.492,0,0,0,6.3574,2.3084A.0888.0888,0,0,0,94.4177,213.9124Z" fill="#2e5175"/><path d="M118.37,228.7583l.0055-13.7257-33.1564-.0132-.0007,1.79,23.0478,23.066A11.174,11.174,0,0,0,118.37,228.7583Z" fill="#cdd1d3"/><path d="M85.2179,217.2242l-.0048,11.936A11.1752,11.1752,0,0,0,96.384,240.34l10.806.0043c.3631,0,.7214-.02,1.0757-.0539Z" fill="#e2e2e2"/></svg>