<svg xmlns="http://www.w3.org/2000/svg" width="371" height="339" viewBox="0 0 371 339"><title>hire-ionic</title><g style="isolation:isolate"><g id="Layer_1" data-name="Layer 1"><path d="M136.78,49.0141a224.4715,224.4715,0,0,0,78.4825-14.5993c14.7716-5.7127,49.8052-9.24,72.4342-5.3989,19.6446,3.3343,66.4375,18.54,46.6658,70.0593s-44.993,56.8769-26.4408,90.5018c13.6251,24.6949,37.0385,49.21,16.486,68.96-31.962,30.7149-163.2272,76.2458-231.3693,39.1719s-82.5851-50.4158-62.0738-108.51S-1.5992,124.0675,26.1558,80.987C42.8028,55.1481,96.4807,49.4425,136.78,49.0141Z" fill="#f1f3f7"/><rect x="62.1346" y="241.2844" width="89.5394" height="7.1063" fill="#e5dfdf"/><polygon points="96.813 213.712 63.84 241.284 151.629 241.284 118.132 214.565 96.813 213.712" fill="#e8e8e8"/><rect x="5" y="80.682" width="214.8945" height="138.1465" rx="8.1062" ry="8.1062" fill="#e5dfdf"/><rect x="11.5134" y="86" width="200.9927" height="123.1378" rx="6.8499" ry="6.8499" fill="#fff"/><path d="M51.2234,95.7474H173.6711A14.5293,14.5293,0,0,1,188.2,110.2766V173.97a12.17,12.17,0,0,1-12.17,12.17H48.864a12.17,12.17,0,0,1-12.17-12.17V110.2766A14.5293,14.5293,0,0,1,51.2234,95.7474Z" fill="#e5dfdf"/><path d="M36.552,111.097H188.0583a0,0,0,0,1,0,0v63.7925a11.25,11.25,0,0,1-11.25,11.25H49.802a13.25,13.25,0,0,1-13.25-13.25V111.097A0,0,0,0,1,36.552,111.097Z" fill="#e8e8e8"/><circle cx="168.4449" cy="104.5592" r="1.7055" fill="#fff"/><circle cx="174.4142" cy="104.5592" r="1.7055" fill="#fff"/><circle cx="180.0992" cy="104.5592" r="1.7055" fill="#fff"/><circle cx="53.6071" cy="124.7411" r="9.0961" fill="#fff"/><rect x="76.3472" y="117.6348" width="88.4024" height="13.9283" rx="2.009" ry="2.009" fill="#fff"/><rect x="46.2165" y="141.7962" width="27.8567" height="34.963" rx="3.1385" ry="3.1385" fill="#fff"/><rect x="96.8134" y="141.7962" width="27.8567" height="34.963" rx="3.1385" ry="3.1385" fill="#fff"/><rect x="145.989" y="141.7962" width="27.8567" height="34.963" rx="3.1385" ry="3.1385" fill="#fff"/><rect x="83.1693" y="139.8064" width="2.8425" height="41.2165" rx="1.3858" ry="1.3858" fill="#fff"/><rect x="135.4717" y="139.8064" width="2.8425" height="41.2165" rx="1.3858" ry="1.3858" fill="#fff"/><path d="M126.1009,174.2964a9.5187,9.5187,0,0,0-.39,1.8383l1.2175.545.9254-.6554,1.4611.11Z" fill="#e5989b"/><path d="M132.2374,175.83l-2.9221.3043-2.0942-.6466-.8767.6466-3.1656,3.86,3.7744,1.8015h1.9238a6.8939,6.8939,0,0,1,1.8507-1.6177c.6818-.2206,2.6838-.8257,2.6838-.8257Z" fill="#e5989b"/><path d="M129.8907,176.0787l1.9126,4.7941s16.06-5.212,16.8963-5.9087,13.6539-16.9976,13.6539-16.9976-.9753-7.9416-3.7618-9.7528a10.4024,10.4024,0,0,0-5.155-1.8112l-10.9316,20.8987Z" fill="#f4cf7a"/><path d="M180.0158,291.7934V296.82h-9.6614s.3631-1.82,4.9449-2.6595l.6737-2.3676Z" fill="#473e73"/><path d="M161.29,291.7934V296.82h-9.6614s.363-1.82,4.9448-2.6595l.6738-2.3676Z" fill="#473e73"/><path d="M169.5855,135.1571a12.252,12.252,0,0,0,1.0009,5.1835c.4692,1.2912,4.8794,2.7925,4.8794,2.7925S162.13,157.95,156.9823,157.8562s2.25-13.9724,2.25-13.9724,2.1583-1.3121,2.6274-2.72a28.9892,28.9892,0,0,0,.7507-4.5988l6.0368-7.7257Z" fill="#feadae"/><path d="M159.7015,120.4562c-.8757.563-2.3772,1.7516-2.44,2.6273s-1.1649,2.9987-1.04,4.5-.25,5.639,0,7.3906a11.6862,11.6862,0,0,0,2.12,4.6245c1.5753,1.3448,4.6126.438,5.4883,0s5.1923-4.7543,5.0045-8.5077c0,0,1.6578.782,2.9715-2.5961.3427-.8811-2.6027-4.2564-2.9655-5.286-.8817-2.5024-5.9489-1.8142-7.3251-2.0019A2.7953,2.7953,0,0,1,159.7015,120.4562Z" fill="#feadae"/><path d="M157.2618,123.0835s.5005-1.1885,1.5014-.6881a10.9122,10.9122,0,0,0,4.7543.6881,11.2579,11.2579,0,0,0,3.19-.8111,8.4377,8.4377,0,0,0,.438,2.938c.4379.6256,1.4388,1.3763,1.5013,2.1269a10.3417,10.3417,0,0,1,0,1.5014s1.0009-1.3137,1.8141-1.0635.8132,1.6264,0,2.252a13.5421,13.5421,0,0,1-1.6265,1.0635,10.0128,10.0128,0,0,0,.1877,1.8767c.1876.8133.563,2.19.563,2.19a37.2876,37.2876,0,0,1,3.19-6.6936c1.4388-1.9393,2.1269-5.9429-.6881-7.4444a4.6,4.6,0,0,0-3.9412-4.4415c-3.9411-.6881-7.3817.3128-9.0708-.25a5.2634,5.2634,0,0,1-2.1269-1.0635s-1.4388,2.8776-.6255,4.7543A11.68,11.68,0,0,1,157.2618,123.0835Z" fill="#3d4177"/><path d="M176.2129,191.1693a146.8332,146.8332,0,0,1,4.357,33.1553c.0617,17.1717.2386,67.4554.2386,67.4554h-6.9347s-5.4583-48.5666-8.0575-59.6055-9.3571-43.3357-9.3571-43.3357Z" fill="#0088cc"/><path d="M164.5167,208.7089s-1.3,26.164-1.56,31.3156,0,51.73,0,51.73-6.4979.1757-6.4979,0-6.1264-49.1558-6.92-61.85-.3285-27.742-1.3825-29.4976,2.8447-11.6909,2.8447-11.6909l9.1974,2.4532Z" fill="#0088cc"/><path d="M173.8738,141.8139l9.7468,6.3934s-4.0288,9.5671-4.1587,13.3694-3.249,29.5927-3.249,29.5927-9.4166,1.5944-16.0146,0-9.1974-2.4532-9.1974-2.4532.26-27.1394.78-30.9417S153.6,146.3675,153.6,146.3675l5.166-2.6677,2.8645,2.2077Z" fill="#fbdb8a"/><path id="_Path_" data-name="&lt;Path&gt;" d="M159.9853,202.2448l2.52-13.9115a1.9771,1.9771,0,0,1,2.36-1.4017l24.32,4.5622a1.8782,1.8782,0,0,1,1.6382,2.1138l-2.4414,13.8652c-.67,1.52-1.4227,2.0212-2.5464,1.8189l-24.181-4.4518C160.5214,204.6359,159.9586,204.1011,159.9853,202.2448Z" fill="#cbd3d8"/><path id="_Path_2" data-name="&lt;Path&gt;" d="M160.0485,201.68l2.5239-13.96a1.9842,1.9842,0,0,1,2.3675-1.4118l24.4263,4.5867a1.8847,1.8847,0,0,1,1.6407,2.1259L188.55,206.9314a2.034,2.034,0,0,1-2.4142,1.4884l-24.4-4.499A1.9592,1.9592,0,0,1,160.0485,201.68Z" fill="#e7edf2"/><path d="M173.8033,198.0943l-1.3524,2.0041a26.3,26.3,0,0,0-3.1991,2.28c-.1341.3353-.618,1.8106-.618,1.8106l.6851.3354,1.2742-1.2741a9.7751,9.7751,0,0,1-.1341,1.6765c-.1341.5366-.5366,1.5425-.5366,1.5425a16.4337,16.4337,0,0,0,1.8778.8047c.6706.2011,3.219.6035,3.219.6035s2.4143-2.6825,2.5484-3.5544.4991-4.0775.4991-4.0775l-1.3709-2.4275Z" fill="#feadae"/><path d="M183.6206,148.2073s5.0684,25.0216,5.0684,26.1255-7.9888,23.46-10.6223,25.9129c0,0-2.0541,1.0375-4.2634-2.1515,0,0,1.89-5.3407,3.0595-9.143s2.0793-16.213,2.0793-16.213-6.4336-8.9326-6.49-14.2279C172.331,147.226,183.6206,148.2073,183.6206,148.2073Z" fill="#f4cf7a"/><path d="M120.7016,174.8069s3.5974.5281,4.3279.6751a14.5983,14.5983,0,0,1,3.7988,1.7648,10.9447,10.9447,0,0,1,1.7533,2.978,2.69,2.69,0,0,1-1.2663.2574,3.5543,3.5543,0,0,0-1.9968.2205c-1.3149.3677-2.3377.9192-3.36.4412a5.0407,5.0407,0,0,1-2.24-1.5441,6.5252,6.5252,0,0,0-2.2891-1.6177Z" fill="#e5989b"/><path d="M67.3086,138.788l-.9949,3.9784,13.8627,9.802s-4.1015-7.5869-4.2659-8.12,1.6812-6.644,1.6812-6.644L69.84,131.4111Z" fill="#feadae"/><path d="M72.7222,147.2977l6.7161,1.2923s7.1765,9.1456,7.8743,11.278.6152,7.2183.6152,7.2183Z" fill="#fbdb8a"/><path d="M69.3973,132.7025a41.41,41.41,0,0,0,6.7911,10.1294c.4825-1.9787,1.4034-5.0277,1.4034-5.0277L69.84,131.4111Z" fill="#e5989b"/><ellipse cx="61.4644" cy="127.7455" rx="4.091" ry="5.5059" fill="#3d4177"/><ellipse cx="78.0528" cy="128.5785" rx="7.1063" ry="11.228" fill="#feadae"/><path d="M82.9131,121.2s-.1019-1.36-2.1627-1.0525-3.1989,3.8756-3.9679,6.2441a4.3326,4.3326,0,0,1-5.106,2.9836l-4.3678,9.4123a32.0889,32.0889,0,0,0-2.9221-5.69c-1.8148-2.7376-3.568-7.7513-1.2611-12.0575s8.7971-6.89,14.7336-5.5674a4.8743,4.8743,0,0,1,3.3527-.1538C83.3648,116.1493,83.3533,118.5927,82.9131,121.2Z" fill="#3d4177"/><path d="M72.7222,130.0832s-1.0458-2.676-2.1839-2.676-1.9926,1.7816-1.4149,4.0039,2.83,2.9784,3.0759,2.24A30.9937,30.9937,0,0,0,72.7222,130.0832Z" fill="#feadae"/><path d="M92.02,203.0133a23.3945,23.3945,0,0,0-1.11-11.1888H68.3577a11.2116,11.2116,0,0,0-3.4176,3.664c-2.2043,4.5453,3.1614,8.9431,3.1614,8.9431s.4967,2.8447.9263,5.3008h21.999C91.3607,207.6734,91.717,205.3318,92.02,203.0133Z" fill="#0088cc"/><path d="M74.1371,128.3453a4.767,4.767,0,0,0-.5537,3.3374,2.8791,2.8791,0,0,1-1.2919-3.0144Z" fill="#3d4177"/><path d="M64.4692,144.3246s-4.1025,6.1114-4.2256,9.3512.6565,7.3822,4.02,15.5026,4.88,11.8523,4.88,11.8523S64.34,192.983,63.7713,197.7227c-.2461,2.05.5738,5.8649,12.467,7.0131s13.4119-.7387,13.9858-2.8712,2.0089-13.37,1.0246-19.6444S89.61,169.424,88.2152,166.5533,75.7481,148.9995,64.4692,144.3246Z" fill="#fbdb8a"/><path d="M85.9794,186.5265c.9631.62,3.4844.57,5.603.3936a33.468,33.468,0,0,0-.3336-4.7c-.2941-1.8782-.5594-3.7766-.8238-5.5947l-26.48-13.4475S84.1953,185.3788,85.9794,186.5265Z" fill="#7762ef" opacity="0.35" style="mix-blend-mode:multiply"/><path d="M67.15,139.4233S85.1393,154.9057,88.2152,165.61v.9434s-10.7041-15.0517-23.746-22.2287Z" fill="#f4cf7a"/><path d="M108.495,174.704s5.5674.2874,5.8442.2259,3.0144-2.43,3.5065-2.3377a20.0658,20.0658,0,0,1,2.5838.6152c.2461.1538,7.1669,5.1675,7.1361,5.3213s-3.568,4.115-5.66,3.8107-6.3364-2.3035-7.1053-2.3651-6.3056.1538-6.3056.1538Z" fill="#feadae"/><path d="M63.2378,162.4931s19.6858,19.1119,21.5727,19.6858,26.001-.5743,26.001-.5743l.3288-7.6282-23.21-1.56s-12.7169-16.8949-14.6855-19.0278-7.5465-4.0189-10.4994-1.23S60.0716,159.4393,63.2378,162.4931Z" fill="#f4cf7a"/><path d="M293.2532,83.5245a24.2705,24.2705,0,1,0,24.2707,24.27A24.2687,24.2687,0,0,0,293.2532,83.5245Zm1.8319,44.7918v-1.6314a1.8317,1.8317,0,1,0-3.6634,0v1.6314A20.6352,20.6352,0,0,1,272.7279,109.57h1.5786a1.8318,1.8318,0,0,0,0-3.6636h-1.57a20.6376,20.6376,0,0,1,18.6853-18.6323v1.517a1.8317,1.8317,0,1,0,3.6634,0v-1.517A20.6368,20.6368,0,0,1,313.77,105.906H312.2a1.8318,1.8318,0,1,0,0,3.6636h1.5786A20.6352,20.6352,0,0,1,295.0851,128.3163Z" fill="#e2e2e2"/><path d="M304.1651,95.971,293.315,107.34c-.02,0-.041-.0029-.0618-.0029a2.08,2.08,0,0,0-.3967.0389l-9.08-6.8615a1.3744,1.3744,0,0,0-1.6526,2.1965l9.0779,6.859a2.06,2.06,0,0,0,4.1126-.1722c0-.0546-.0038-.1076-.008-.1609l10.848-11.37a1.374,1.374,0,1,0-1.9888-1.8962Z" fill="#e2e2e2"/><polygon points="237.91 209.058 222.386 308.936 221.075 308.922 233.309 209.029 237.91 209.058" fill="#e2e2e2"/><polygon points="259.57 209.058 275.094 308.936 276.404 308.922 264.171 209.029 259.57 209.058" fill="#d0cfd1"/><polygon points="326.937 209.058 311.413 308.936 310.102 308.922 322.336 209.029 326.937 209.058" fill="#d0cfd1"/><polygon points="348.597 209.058 364.121 308.936 365.431 308.922 353.198 209.029 348.597 209.058" fill="#e2e2e2"/><rect x="226.4928" y="208.321" width="134.7988" height="3.4229" fill="#e2e2e2"/><rect x="223.4235" y="205.4583" width="140.9375" height="4.5802" fill="#d0cfd1"/><path d="M335.5128,167.3688c2.6917,13.2827,7.5578,20.2891,11.7664,19.789l-9.8571-48.6406C336.58,141.5453,333.0769,155.3494,335.5128,167.3688Z" fill="#f4cf7a"/><path d="M337.5971,137.908s-.0651.214-.175.6092l9.8571,48.6406c.0969-.0116.1939-.0224.29-.0419,4.273-.8659,6.171-9.2945,3.4173-22.883S337.5971,137.908,337.5971,137.908Z" fill="#fbdb8a"/><path d="M345.28,176.16q-1.0085-4.907-2.0038-9.8167-2.0014-9.8176-4.13-19.6086a.0577.0577,0,0,0-.113.023q1.2577,6.6513,2.5688,13.2922a27.0354,27.0354,0,0,0-4.8546-3.1646c-.0882-.0419-.1794.0957-.1065.1606a27.7886,27.7886,0,0,0,5.0326,3.366c.395,2.0054.7863,4.0114,1.19,6.015q.9892,4.9108,1.976,9.8222c.65,3.2554,1.1169,6.6207,2.03,9.8113a.1835.1835,0,0,0,.36-.0728C346.8284,182.6933,345.9478,179.4112,345.28,176.16Z" fill="#2e5175"/><path d="M344.287,172.0944a56.5207,56.5207,0,0,0-8.1151-5.3552.0629.0629,0,0,0-.07.1048,56.5083,56.5083,0,0,0,8.0919,5.39A.0839.0839,0,0,0,344.287,172.0944Z" fill="#2e5175"/><path d="M347.1211,159.8477c-.7767,1.0351-1.51,2.1017-2.2556,3.16a16.5315,16.5315,0,0,0-1.8478,2.9687.0949.0949,0,0,0,.1521.1008,16.518,16.518,0,0,0,2.0151-2.8578c.6843-1.0983,1.3812-2.1893,2.0323-3.3077A.0577.0577,0,0,0,347.1211,159.8477Z" fill="#2e5175"/><path d="M349.4854,172.3221a49.4687,49.4687,0,0,0-3.7607,5.568.1049.1049,0,0,0,.1747.1159,49.4544,49.4544,0,0,0,3.6647-5.6319A.0472.0472,0,0,0,349.4854,172.3221Z" fill="#2e5175"/><path d="M346.6589,182.0351a44.258,44.258,0,0,0-6.6743-4.3811.0682.0682,0,0,0-.0753.1136,44.2623,44.2623,0,0,0,6.6339,4.4421A.1048.1048,0,0,0,346.6589,182.0351Z" fill="#2e5175"/><path d="M350.8924,166.9513c-4.1228,10.5064-3.8872,17.6064-.7178,19.1595l15.0974-38.474C363.3143,149.3739,354.6231,157.4441,350.8924,166.9513Z" fill="#f4cf7a"/><path d="M365.67,147.29s-.1423.12-.3979.347l-15.0974,38.474c.0729.0357.1457.072.2217.1019,3.38,1.3263,8.518-3.71,12.7357-14.4586S365.67,147.29,365.67,147.29Z" fill="#fbdb8a"/><path d="M353.7484,177.5149q1.5132-3.8876,3.0369-7.7713,3.039-7.771,5.9773-15.5806a.048.048,0,0,0-.0894-.0351q-2.1277,5.22-4.2133,10.4574a22.5048,22.5048,0,0,0-1.9643-4.4079.0835.0835,0,0,0-.1471.0642,23.1364,23.1364,0,0,0,1.9978,4.6293c-.63,1.5811-1.2638,3.1609-1.8873,4.7447q-1.5283,3.8818-3.0587,7.7627c-1.0169,2.5707-2.2123,5.1352-3.016,7.78a.1528.1528,0,0,0,.2844.1116C351.8778,182.7846,352.7457,180.0911,353.7484,177.5149Z" fill="#2e5175"/><path d="M354.8923,174.2231a47.0663,47.0663,0,0,0-3.2542-7.4141.0524.0524,0,0,0-.096.0419,47.0713,47.0713,0,0,0,3.2223,7.4281A.07.07,0,0,0,354.8923,174.2231Z" fill="#2e5175"/><path d="M362.4113,166.9395c-1.0112.3728-2.0065.7871-3.006,1.19a13.7646,13.7646,0,0,0-2.6345,1.2408.0791.0791,0,0,0,.0608.1392,13.7455,13.7455,0,0,0,2.7013-1.0876c.9752-.4587,1.9558-.9067,2.9169-1.3945A.0481.0481,0,0,0,362.4113,166.9395Z" fill="#2e5175"/><path d="M358.425,176.7326a41.1867,41.1867,0,0,0-5.1475,2.1939.0873.0873,0,0,0,.07.16,41.1874,41.1874,0,0,0,5.1093-2.2819A.0393.0393,0,0,0,358.425,176.7326Z" fill="#2e5175"/><path d="M352.0568,182.2477a36.86,36.86,0,0,0-2.687-6.0816.0568.0568,0,0,0-.104.0454,36.8478,36.8478,0,0,0,2.6311,6.106A.0873.0873,0,0,0,352.0568,182.2477Z" fill="#2e5175"/><path d="M328.5773,173.4467c4.3346,9.1672,9.1246,13.3855,12.0925,12.2684l-15.8733-33.57C324.7275,154.4957,324.655,165.1514,328.5773,173.4467Z" fill="#f4cf7a"/><path d="M324.8146,151.6713s-.009.1671-.018.4739l15.8733,33.57c.0683-.0257.1368-.0509.2031-.0823,2.949-1.3944,2.8182-7.8575-1.6162-17.2357S324.8146,151.6713,324.8146,151.6713Z" fill="#fbdb8a"/><path d="M337.2471,178.0836q-1.6116-3.3842-3.214-6.7725-3.2123-6.7737-6.5122-13.5053a.0431.0431,0,0,0-.0779.0369q2.1049,4.6066,4.2469,9.1962a20.2267,20.2267,0,0,0-4.0935-1.4294.075.075,0,0,0-.0485.1357,20.7842,20.7842,0,0,0,4.2589,1.5438c.6462,1.3861,1.29,2.7733,1.9418,4.1566q1.5983,3.39,3.1949,6.7815c1.0556,2.2484,1.9972,4.61,3.2323,6.7639a.1373.1373,0,0,0,.2481-.1173C339.5426,182.5525,338.3149,180.3259,337.2471,178.0836Z" fill="#2e5175"/><path d="M335.7979,175.308a42.2867,42.2867,0,0,0-6.8545-2.4367.0471.0471,0,0,0-.0317.0886,42.2913,42.2913,0,0,0,6.8439,2.4662A.0628.0628,0,0,0,335.7979,175.308Z" fill="#2e5175"/><path d="M335.6631,165.9036c-.3788.8911-.7208,1.7974-1.0726,2.6994a12.3691,12.3691,0,0,0-.8106,2.4877.071.071,0,0,0,.1286.0459,12.3553,12.3553,0,0,0,.952-2.437c.3-.92.6113-1.8379.884-2.7669A.0432.0432,0,0,0,335.6631,165.9036Z" fill="#2e5175"/><path d="M339.6151,174.5423a37.0177,37.0177,0,0,0-1.7347,4.7186.0784.0784,0,0,0,.1476.0529,36.9961,36.9961,0,0,0,1.6535-4.7477A.0353.0353,0,0,0,339.6151,174.5423Z" fill="#2e5175"/><path d="M339.3016,182.1048a33.1177,33.1177,0,0,0-5.6334-1.9871.051.051,0,0,0-.0343.096,33.1129,33.1129,0,0,0,5.6149,2.0388A.0784.0784,0,0,0,339.3016,182.1048Z" fill="#2e5175"/><path d="M360.456,195.2166l.0048-12.1225-29.2837-.0117-.0006,1.5807,20.3557,20.3719A9.8688,9.8688,0,0,0,360.456,195.2166Z" fill="#cdd1d3"/><path d="M331.1764,185.03l-.0042,10.5419a9.87,9.87,0,0,0,9.866,9.8738l9.5439.0038c.3207,0,.6372-.0177.95-.0476Z" fill="#e2e2e2"/><rect x="240.4251" y="202.3669" width="58.7927" height="3.1741" fill="#a4a4a5"/><rect x="238.3744" y="199.2153" width="58.7927" height="3.1742" fill="#edeef4"/><rect x="237.8732" y="192.9123" width="58.7927" height="3.1741" fill="#edeef4"/><rect x="240.9843" y="189.7607" width="58.7927" height="3.1742" fill="#a4a4a5"/><rect x="242.6822" y="196.0639" width="58.7926" height="3.1741" fill="#a4a4a5"/></g></g></svg>