<svg id="Layer_1" data-name="Layer 1" xmlns="http://www.w3.org/2000/svg" width="371" height="339" viewBox="0 0 371 339"><title>hire-reactnative</title><path d="M139.7576,37.5158c29.5346-.3138,58.8278-5.495,85.97-15.9922,16.1809-6.2578,54.557-10.1212,79.345-5.914,21.5189,3.6524,72.7762,20.3091,51.1181,76.7436s-49.2857,62.3035-28.9635,99.1364c14.9251,27.051,40.5722,53.9046,18.0589,75.5394-35.0115,33.6454-178.8,83.52-253.4438,42.9092S1.3782,254.7123,23.8464,191.0755-11.8243,119.73,18.5787,72.5391C36.814,44.235,95.6132,37.985,139.7576,37.5158Z" fill="#f1f3f7"/><rect id="_Path_" data-name="&lt;Path&gt;" x="21.817" y="74.5102" width="1.5375" height="25.5392" fill="#e8e8e8"/><rect id="_Path_2" data-name="&lt;Path&gt;" x="301.2848" y="244.4534" width="1.5375" height="11.6957" fill="#e8e8e8"/><rect id="_Path_3" data-name="&lt;Path&gt;" x="21.8188" y="73.1434" width="191.6618" height="1.3657" fill="#e8e8e8"/><rect id="_Path_4" data-name="&lt;Path&gt;" x="78.3852" y="74.5102" width="1.5375" height="25.5392" fill="#e8e8e8"/><rect id="_Path_5" data-name="&lt;Path&gt;" x="139.7271" y="74.5102" width="1.5375" height="25.5392" fill="#e8e8e8"/><rect id="_Path_6" data-name="&lt;Path&gt;" x="211.8098" y="74.5102" width="1.6709" height="25.5392" fill="#e8e8e8"/><rect id="_Path_7" data-name="&lt;Path&gt;" x="211.8098" y="100.0494" width="1.6709" height="25.5392" fill="#e8e8e8"/><rect id="_Path_8" data-name="&lt;Path&gt;" x="211.8098" y="125.5885" width="38.1896" height="1.6709" fill="#e8e8e8"/><rect id="_Path_9" data-name="&lt;Path&gt;" x="248.329" y="127.2591" width="1.6709" height="128.6512" fill="#e8e8e8"/><rect x="10.528" y="120.3658" width="184.5503" height="4.2608" fill="#e8e8e8"/><rect x="5" y="118.5698" width="195.6063" height="3.1313" fill="#a8a7a5"/><rect x="7.5295" y="120.939" width="3.0794" height="37.0925" fill="#a8a7a5"/><rect x="65.024" y="120.939" width="3.0794" height="37.0925" fill="#a8a7a5"/><rect x="135.0173" y="120.939" width="3.0794" height="37.0925" fill="#a8a7a5"/><rect x="193.807" y="120.939" width="3.7329" height="37.0925" fill="#a8a7a5"/><polygon points="107.814 118.57 100.921 118.57 102.163 111.677 106.572 111.677 107.814 118.57" fill="#a8a7a5"/><rect x="91.4374" y="96.0395" width="25.8605" height="17.7921" rx="3" ry="3" fill="#e8e8e8"/><rect x="92.4718" y="97.195" width="23.7917" height="15.4811" fill="#d6d6d6"/><path d="M93.8743,117.2623H114.861a.8336.8336,0,0,1,.8336.8336v.474a0,0,0,0,1,0,0H93.0407a0,0,0,0,1,0,0v-.474A.8336.8336,0,0,1,93.8743,117.2623Z" fill="#e8e8e8"/><rect x="98.8973" y="100.6933" width="10.9365" height="8.4367" fill="#a8a7a5"/><polygon points="165.238 118.57 158.345 118.57 159.587 111.677 163.996 111.677 165.238 118.57" fill="#a8a7a5"/><rect x="148.861" y="96.0395" width="25.8605" height="17.7921" rx="3" ry="3" fill="#e8e8e8"/><rect x="149.8954" y="97.195" width="23.7917" height="15.4811" fill="#d6d6d6"/><path d="M151.2979,117.2623h20.9866a.8336.8336,0,0,1,.8336.8336v.474a0,0,0,0,1,0,0H150.4643a0,0,0,0,1,0,0v-.474A.8336.8336,0,0,1,151.2979,117.2623Z" fill="#e8e8e8"/><path d="M181.0818,116.2281h.8683a2.2036,2.2036,0,0,1,2.2036,2.2036v.1382a0,0,0,0,1,0,0h-5.2756a0,0,0,0,1,0,0v-.1382A2.2036,2.2036,0,0,1,181.0818,116.2281Z" fill="#a8a7a5"/><circle cx="161.86" cy="104.5991" r="4.3746" fill="#a8a7a5"/><polygon points="58.447 118.57 51.553 118.57 52.795 111.677 57.204 111.677 58.447 118.57" fill="#a8a7a5"/><rect x="42.0697" y="96.0395" width="25.8605" height="17.7921" rx="3" ry="3" fill="#e8e8e8"/><rect x="43.1041" y="97.195" width="23.7917" height="15.4811" fill="#d6d6d6"/><path d="M44.5066,117.2623H63.5357a.8336.8336,0,0,1,.8336.8336v.474a0,0,0,0,1,0,0H43.673a0,0,0,0,1,0,0v-.474A.8336.8336,0,0,1,44.5066,117.2623Z" fill="#e8e8e8"/><path d="M35.16,116.2281h.8683a2.2036,2.2036,0,0,1,2.2036,2.2036v.1382a0,0,0,0,1,0,0H32.9565a0,0,0,0,1,0,0v-.1382a2.2036,2.2036,0,0,1,2.2036-2.2036Z" fill="#1a2d54"/><path d="M77.1475,97.867h4.0471a2.1215,2.1215,0,0,1,2.1215,2.1215V118.57a0,0,0,0,1,0,0h-8.29a0,0,0,0,1,0,0V99.9885A2.1215,2.1215,0,0,1,77.1475,97.867Z" fill="#e8e8e8"/><rect x="75.835" y="99.2635" width="6.672" height="1.7844" fill="#a8a7a5"/><rect x="75.835" y="101.4358" width="6.672" height="1.7844" fill="#a8a7a5"/><circle cx="79.1711" cy="111.6572" r="0.9116" fill="#a8a7a5"/><circle cx="79.1711" cy="113.8316" r="0.4558" fill="#a8a7a5"/><path d="M138.6022,97.867h4.0471a2.1215,2.1215,0,0,1,2.1215,2.1215V118.57a0,0,0,0,1,0,0h-8.29a0,0,0,0,1,0,0V99.9885A2.1215,2.1215,0,0,1,138.6022,97.867Z" fill="#e8e8e8"/><rect x="137.2897" y="99.2635" width="6.672" height="1.7844" fill="#a8a7a5"/><rect x="137.2897" y="101.4358" width="6.672" height="1.7844" fill="#a8a7a5"/><circle cx="140.6258" cy="111.6572" r="0.9116" fill="#a8a7a5"/><circle cx="140.6258" cy="113.8316" r="0.4558" fill="#a8a7a5"/><path d="M20.51,97.8427h4.047a2.1216,2.1216,0,0,1,2.1216,2.1216v18.5812a0,0,0,0,1,0,0h-8.29a0,0,0,0,1,0,0V99.9642A2.1215,2.1215,0,0,1,20.51,97.8427Z" fill="#e8e8e8"/><rect x="19.1974" y="99.2391" width="6.672" height="1.7844" fill="#a8a7a5"/><rect x="19.1974" y="101.4114" width="6.672" height="1.7844" fill="#a8a7a5"/><circle cx="22.5334" cy="111.6328" r="0.9116" fill="#a8a7a5"/><circle cx="22.5334" cy="113.8072" r="0.4558" fill="#a8a7a5"/><path d="M161.6558,116.1258l-.3591,2.1017a4.3538,4.3538,0,0,1-1.6549,0c-.7575-.1868-2.0074-.9427-2.4241-.73s-.5587.9224-1.0321,1.0644-.1213-1.5624.3181-1.6571a1.2681,1.2681,0,0,1,.9715-.8365s.0923-.4924,1.1531-.6328A8.1927,8.1927,0,0,1,161.6558,116.1258Z" fill="#feadae"/><path d="M166.5993,153.76a10.3372,10.3372,0,0,1,1.4529,5.5432h-1.4l-.5038-.3361-2.2675.3361h-5.4s-.4392-.8183,2.2705-1.4395,3.8394-1.9648,4.0024-3.6443Z" fill="#473e73"/><path d="M178.4828,127.127c-5.0717.6821-12.3714,2.0471-14.3409,4.41-3.1033,3.7239-.2673,23.7762-.2673,23.7762l3.6473.4849s.0336-19.6062,1.4829-20.0348c.6807-.2012,6.3738-2.3855,10.9648-2.4253Z" fill="#293882"/><polygon points="188.568 104.936 188.397 100.476 183.797 102.367 184.199 105.315 188.568 104.936" fill="#feadae"/><path d="M182.0369,92.1533a5.5879,5.5879,0,0,0-.9165,3.4975c.1966,1.9577-.8917,2.456-1.1944,3.6116-1.1021,4.2057,1.6507,5.8989,9.4247.9089,0,0,2.7767-3.7831,1.9743-6.093C190.1744,90.7659,185.0034,88.9007,182.0369,92.1533Z" fill="#feadae"/><path d="M183.3742,103.9776s3.2833-1.5332,6.13-.8856l.6458,2.725s-5.1157-1.4461-7.517-.4244Z" fill="#f4cf7a"/><path d="M189.5556,105.6191s3.3445,8.0118-4.8713,23.9275c0,0-5.9063,2.0248-11.8954-2.9788,0,0,6.0543-15.6737,6.68-19.7436S189.5556,105.6191,189.5556,105.6191Z" fill="#fbdb8a"/><path d="M179.4691,106.8242s-5.5892,8.6395-7.0457,9.226-10.7676.0756-10.7676.0756-1.25.6324-.3591,2.1017c0,0,11.3669,2.2375,13.8129.74s10.2078-6.0152,9.6751-9.3336C184.1995,105.9873,180.5974,105.47,179.4691,106.8242Z" fill="#f4cf7a"/><path d="M155.8037,153.76a10.3372,10.3372,0,0,1,1.4529,5.5432h-1.4l-.5038-.3361-2.2674.3361h-5.4s-.4392-.8183,2.2705-1.4395,3.8394-1.9648,4.0024-3.6443Z" fill="#473e73"/><path d="M184.6843,129.5466s-1.3918,4.7375-4.4948,5.4589-20.531.33-21.98.7584-1.4829,20.0347-1.4829,20.0347l-3.6473-.4849s-2.8359-20.0523.2673-23.7762,19.4425-4.97,19.4425-4.97Z" fill="#0088cc"/><path d="M34.5451,128.3087s1.48,2.6709,3.3292,2.6709,12.7.1335,12.7.1335-1.233,4.8076-1.7262,8.0127-1.48,16.2926-1.48,16.2926h2.3428l6.7817-27.2433L40.71,123.5011Z" fill="#0088cc"/><polygon points="41.327 115.303 48.232 117.646 48.478 119.866 40.464 120.112 41.327 115.303" fill="#f4cf7a"/><path d="M35.4465,99.2278V95.7768l6.6861-7.7645a7.7441,7.7441,0,0,1,1.4657,4.6646c.1078,3.1274-.483,4.4473-2.2091,4.9857a25.3425,25.3425,0,0,1-3.1389.4867l.3235,1.6176Z" fill="#feadae"/><path d="M35.4465,86.2868c-2.143,1.8369-1.4019,4.745-.9706,6.47s-.0978,3.0654.5392,3.7744c.6126.6819,2.8753.4628,3.6666,0a3.6808,3.6808,0,0,0,.9706-2.1568c0-.4313-.9706-1.51-.4314-2.049s1.2783,1.376,1.8333,1.2941c.9639-.1422.8627-2.5882.9706-3.7744s3.8994-1.4917,2.8038-2.8039c-.1545-.1851-3.2352,0-4.4215-.647S36.2014,85.64,35.4465,86.2868Z" fill="#3d4177"/><path d="M44.4094,101.74l-5.1788-1.9729L35.6548,99.15l-5.672,2.22s-.6165,5.0555-.74,8.0147,2.22,18.249,2.22,18.249l5.5487.1233s4.069-1.9728,4.6855-3.4525,1.3564-13.44,1.3564-13.44l4.5622,9.0012h5.672l-.37-3.2059-2.836-.37Z" fill="#fbdb8a"/><polygon points="56.728 119.867 56.358 117.893 54.385 116.413 52.782 116.66 53.029 119.742 56.728 119.867" fill="#feadae"/><polygon points="42.067 134.185 43.423 155.285 46.012 155.285 47.245 133.784 42.067 134.185" fill="#293882"/><path d="M43.2325,155.1293v2.8217h6.3686a2.8538,2.8538,0,0,0-3.0878-2.8217Z" fill="#342f5b"/><path d="M47.4248,155.1293v2.8217h6.3686a2.8538,2.8538,0,0,0-3.0878-2.8217Z" fill="#473e73"/><path d="M35.6284,155.574h0a.9093.9093,0,0,1-.8684-.9406v-8.9878a.9093.9093,0,0,1,.8684-.9406h0a.9093.9093,0,0,1,.8685.9406v8.9878A.9093.9093,0,0,1,35.6284,155.574Z" fill="#e8e8e8"/><path d="M35.5319,146.5862h0a2.0208,2.0208,0,0,1-1.93-2.09v-9.6436a2.0208,2.0208,0,0,1,1.93-2.09h0a2.0208,2.0208,0,0,1,1.93,2.09v9.6436A2.0208,2.0208,0,0,1,35.5319,146.5862Z" fill="#a8a7a5"/><path d="M40.8391,156.2011H30.4177a.7073.7073,0,0,1-.6755-.7316h0a.7073.7073,0,0,1,.6755-.7316H40.8391a.7073.7073,0,0,1,.6755.7316h0A.7073.7073,0,0,1,40.8391,156.2011Z" fill="#e8e8e8"/><ellipse cx="29.7422" cy="156.6191" rx="1.7369" ry="1.8811" fill="#a8a7a5"/><ellipse cx="35.7249" cy="156.6191" rx="1.7369" ry="1.8811" fill="#a8a7a5"/><ellipse cx="40.8336" cy="156.6191" rx="1.7369" ry="1.8811" fill="#a8a7a5"/><path d="M40.2171,107.2085s-11.2207-4.407-17.6325-.6677C22.338,114.5535,26.407,135.12,26.407,135.12H48.8483a4.7253,4.7253,0,0,0,0-3.8728c-.4932-.8013-9.9876-.5342-9.9876-.5342Z" fill="#c3c2c6"/><rect x="47.2551" y="102.2927" width="15.0331" height="4.3339" fill="#a8a7a5"/><path d="M68.7234,116.2281h.8683a2.2036,2.2036,0,0,1,2.2036,2.2036v.1382a0,0,0,0,1,0,0H66.52a0,0,0,0,1,0,0v-.1382A2.2036,2.2036,0,0,1,68.7234,116.2281Z" fill="#a8a7a5"/><path d="M92.0024,116.2281h.8683a2.2036,2.2036,0,0,1,2.2036,2.2036v.1382a0,0,0,0,1,0,0H89.7988a0,0,0,0,1,0,0v-.1382A2.2036,2.2036,0,0,1,92.0024,116.2281Z" fill="#a8a7a5"/><path d="M113.5025,92.7614a4.7657,4.7657,0,0,0,3.8765,2.4671c2.7741.3228-1.3515-2.1932-1.3515-2.1932Z" fill="#3d4177"/><path d="M122.8248,103.8547a14.9014,14.9014,0,0,1-1.4836.4708c-1.0927.2754-2.3853.4353-2.3631-.3775.0044-.1777.0044-.3554,0-.5242v-.0044a.2978.2978,0,0,0,0-.0888,16.8011,16.8011,0,0,0-.1511-2.0122l3.9977-.2754v.0533C122.8648,102.4733,122.8248,103.8547,122.8248,103.8547Z" fill="#feadae"/><path d="M122.8248,103.8547a14.9014,14.9014,0,0,1-1.4836.4708l-.0133-.0044s-2.1988-.3953-2.35-.8972v-.0044a.2978.2978,0,0,0,0-.0888.3764.3764,0,0,1,.1865-.2132,5.5641,5.5641,0,0,1,2.1406-.6045,1.0062,1.0062,0,0,0,.8906-1.0179c-.0031-.1785-.0063-.31-.0063-.31l.6352-.0888C122.8648,102.4733,122.8248,103.8547,122.8248,103.8547Z" fill="#feadae"/><path id="_Path_10" data-name="&lt;Path&gt;" d="M106.2109,158.0979a1.6553,1.6553,0,0,1-.97.3587,1.5991,1.5991,0,0,1-1.0043-.3587l-.1474-.8385,2.1215-.4479Z" fill="#feadae"/><path d="M119.369,133.8109c-.0133.9017-.2532,2.3453-1.608,2.754-2.0211.6041-3.518.2621-5.8633-.1466a22.9427,22.9427,0,0,1-2.67-.6485c-1.0172-.3065-1.9011-.6308-2.4208-.8306a.1632.1632,0,0,0-.2177.1865c.4486,2.1943.1821,13.1569.0711,14.4273-.151,1.7057-.191,7.8444-.191,7.8444s-.1422.0444-.3376.0888c-.0978.0222-.2132.0489-.3331.0666a2.891,2.891,0,0,1-.3864.0311,11.419,11.419,0,0,1-1.488-.1821s-2.6918-16.897-2.9761-21.5655.16-5.0549,2.2831-6.041c2.1233-.9906,16.4128-1.3415,16.4128-1.3415C121.9586,128.6272,117.5833,133.4378,119.369,133.8109Z" fill="#0088cc"/><path id="_Path_11" data-name="&lt;Path&gt;" d="M104.236,158.0979a3.1993,3.1993,0,0,0,.9977.2071,2.4035,2.4035,0,0,0,.9825-.2071,3.05,3.05,0,0,1,.4744,2.7252.1952.1952,0,0,1-.1827.1238H99.72a.152.152,0,0,1-.1538-.1472.5676.5676,0,0,1,.4771-.56c.6264-.192,1.273-.2981,1.7579-.47s1.1812-.8841,1.571-1.0154A2.116,2.116,0,0,0,104.236,158.0979Z" fill="#473e73"/><path id="_Path_12" data-name="&lt;Path&gt;" d="M120.12,158.0979a1.6553,1.6553,0,0,1-.97.3587,1.5992,1.5992,0,0,1-1.0043-.3587l-.1474-.8385,2.1215-.5567Z" fill="#0088cc"/><path d="M126.6448,136.5294c-.2843-.0222-.6086-.0666-.9772-.1111-.3776-.0489-.764-.1155-1.146-.2a23.2136,23.2136,0,0,1-2.5718-.76c-.5641-.2043-1.0439-.3909-1.3726-.52a.1623.1623,0,0,0-.2177.1865c.0266.1155.0444.2488.0667.4087.0622.52.1066,1.27.1377,2.1588.1332,4.0288-.0489,10.8738-.1332,11.86-.1511,1.7057-.191,7.8444-.191,7.8444s-.111.0311-.271.0711a3.6725,3.6725,0,0,1-.4.0844,2.89,2.89,0,0,1-.3864.0311c-.5064,0-1.2748-.0933-1.2748-.0933s-2.905-16.9859-3.1893-21.6543.0133-5.8233,2.1366-6.8094a8.8116,8.8116,0,0,1,2.4608-.533.1992.1992,0,0,1,.0489-.0044,56.7589,56.7589,0,0,1,6.192-.2266h.2266C125.8941,128.4984,128.4349,134.415,126.6448,136.5294Z" fill="#0088cc"/><path id="_Path_13" data-name="&lt;Path&gt;" d="M118.1447,158.0979a3.1993,3.1993,0,0,0,.9977.2071,2.4035,2.4035,0,0,0,.9825-.2071,3.05,3.05,0,0,1,.4744,2.7252.1952.1952,0,0,1-.1827.1238h-6.7879a.152.152,0,0,1-.1538-.1472.5676.5676,0,0,1,.4771-.56c.6264-.192,1.273-.2981,1.7579-.47s1.1812-.8841,1.571-1.0154A2.116,2.116,0,0,0,118.1447,158.0979Z" fill="#473e73"/><path d="M120.5639,137.6932c.1332,4.0288-.0489,10.8738-.1332,11.86-.1511,1.7057-.191,7.8444-.191,7.8444s-.111.0311-.271.0711c-.1821-2.8472-.342-7.5779-.2842-12.082a42.9337,42.9337,0,0,0-.6263-8.8838,10.3678,10.3678,0,0,1,1.3681-.9684C120.4883,136.0541,120.5328,136.8048,120.5639,137.6932Z" fill="#292956" opacity="0.5"/><path d="M106.59,135.1257c.4486,2.1943.1821,13.1569.0711,14.4273-.151,1.7057-.191,7.8444-.191,7.8444s-.1422.0444-.3376.0888c.0361-4.0849.0641-11.51-.0989-16.7838-.1176-3.8045-.4376-6.3573-.4376-6.3573s2.3532-.5076,2.3621-.5076.8972,1.3592,1.27,1.9322c-1.0172-.3065-1.9011-.6308-2.4208-.8306A.1632.1632,0,0,0,106.59,135.1257Z" fill="#293882"/><path d="M126.6451,136.5294a2.2349,2.2349,0,0,1-.72.5641,10.3535,10.3535,0,0,1-5.3614.6,22.132,22.132,0,0,1-3.3092-.6l2.061-8.6v-.0044h.0489l6.192-.2266.2221-.0089.0044.0089C125.8944,128.4977,128.4352,134.415,126.6451,136.5294Z" fill="#3d3d72"/><path d="M113.728,128.6768s.5136.0048.9-1.3925l10.83-.3331.9053,2.8189Z" fill="#3d3d72"/><path d="M90.2367,117.5861a1.0276,1.0276,0,0,0,.74.1943.6947.6947,0,0,0,.4349.1111,4.1827,4.1827,0,0,0,.8421-.1527s-.0648.19.25.2545a5.2935,5.2935,0,0,0,1.0819-.0482,1.8315,1.8315,0,0,1,.831.1035,3.4775,3.4775,0,0,0,.7152.1946,2.995,2.995,0,0,0,1.0087-.1481s-1.8323-1.2123-1.8693-1.2123-1.4991-.2591-1.5547-.25S90.2367,117.5861,90.2367,117.5861Z" fill="#e5989b"/><path d="M97.2327,116.8458l-1.4992-.3146a12.4164,12.4164,0,0,0-1.5547-.7033,8.117,8.117,0,0,0-2.7276.8884,9.3977,9.3977,0,0,0-1.5477.7252c-.2221.2221.3351.3155.9925.0868.4258-.1075.8517-.3162,1.2146-.4164a1.77,1.77,0,0,1,1.4555.1921c.1878.12.3219.3381.6336.5436a2.7558,2.7558,0,0,0,1.8947.4974c.2036.0178,1.3233.3886,1.3233.3886" fill="#feadae"/><path d="M117.3791,104.7443a4.47,4.47,0,0,1,.776-1.31c.3795-.3167,4.1379-.9555,5.0137-.4537a1.5132,1.5132,0,0,1,.6483,1.5733" fill="#f4cf7a"/><path d="M128.3994,118.2553c-.52,3.9178-1.3859,7.5024-2.3942,8.6973l-.0044.0044a1.3159,1.3159,0,0,1-.4309.3509c-1.0083.462-3.0471.04-4.4063-.0133-1.3592-.0577-3.6912.3864-5.0816.2754-1.3859-.111-1.4525-.2843-1.4525-.2843a1.6631,1.6631,0,0,1-.84-.5907,1.2963,1.2963,0,0,1-.0933-1.3059c1.0038-2.2654.4619-6.9871.0311-11.5045-.0577-.6041-.1377-1.19-.2221-1.7546-.5152-3.3-1.3192-5.8144.2221-6.685,2.2743-1.2837,7.4535-2.1765,11.087-1.4747a.3263.3263,0,0,0,.0355.0089,5.4785,5.4785,0,0,1,3.2559,1.63C129.1767,106.9374,129.11,112.9073,128.3994,118.2553Z" fill="#fbdb8a"/><path d="M128.3994,118.2553c-.44-.8173-.2688-2.1728-.0733-4.2783.2929-3.1824.2518-5.5577-.2591-7.0516a4.3245,4.3245,0,0,0-3.2167-2.9464,5.4785,5.4785,0,0,1,3.2559,1.63C129.1767,106.9374,129.11,112.9073,128.3994,118.2553Z" opacity="0.08"/><path d="M126.0007,126.957a1.3159,1.3159,0,0,1-.4309.3509c-1.0083.462-3.0471.04-4.4063-.0133-1.3592-.0577-3.6912.3864-5.0816.2754-1.3859-.111-1.4525-.2843-1.4525-.2843a1.6631,1.6631,0,0,1-.84-.5907,1.2963,1.2963,0,0,1-.0933-1.3059c1.0038-2.2654.4619-6.9871.0311-11.5045-.0577-.6041-.1377-1.19-.2221-1.7546a18.57,18.57,0,0,1,3.6379-.8662s-1.0128,3.86-1.6791,5.619c0,0-.2221,5.5879-.52,7.2536s.8129,2.8873,3.8112,2.8161C121.75,126.8771,124.8014,127.7655,126.0007,126.957Z" opacity="0.08"/><path d="M117.8054,109.1938c-.1244,1.4214-2.83,7.24-4.8195,10.4563a6.6564,6.6564,0,0,1-1.7013,2.1188,3.821,3.821,0,0,1-1.9766.262,40.619,40.619,0,0,1-4.9883-1.0349c-3.2959-.8529-7.951-2.3765-7.951-2.3765l.1288-.6751.2887-1.5325s7.9777.4575,11.62,1.0882c1.2126-3.5846,3.5935-9.0659,4.4819-11.087a2.15,2.15,0,0,1,1.4836-1.2393,1.8564,1.8564,0,0,1,.7507-.0089C116.5928,105.4494,117.9254,107.83,117.8054,109.1938Z" fill="#fbdb8a"/><path d="M112.986,119.65a6.6564,6.6564,0,0,1-1.7013,2.1188,3.821,3.821,0,0,1-1.9766.262,40.619,40.619,0,0,1-4.9883-1.0349c-3.2959-.8529-7.951-2.3765-7.951-2.3765l.1288-.6751c1.528.4975,9.2436,2.9983,11.811,3.2959,2.8606.3331,3.4647-.0444,4.5219-1.4214A1.0034,1.0034,0,0,1,112.986,119.65Z" opacity="0.08"/><path d="M114.3719,105.174c-1.6524,1.3148-5.3881,12.4684-5.3881,12.4684a2.6683,2.6683,0,0,0-.5774-.1422c1.2126-3.5846,3.5935-9.0659,4.4819-11.087A2.15,2.15,0,0,1,114.3719,105.174Z" opacity="0.08"/><path d="M115.7592,94.34s-.0473,1.1741.016,2.5263a11.0093,11.0093,0,0,0-.1857,2.2673c.0426.3069.43.0556.4937.3245a3.6458,3.6458,0,0,0,.3423.9526c.5277.9178,1.49,2.3454,4.9972,1.457s3.5518-4.8535,3.1463-7.38c-.4812-2.9983-3.4425-3.8127-5.5154-3.5536S116.1663,92.7855,115.7592,94.34Z" fill="#feadae"/><path d="M116.7771,93.7664a2.9343,2.9343,0,0,1,.9069,1.6842c.13,1.0179-.1481,1.24.4072,1.5917s1.0179.2221,1.0919.6663.0124,2.7043.5152,3.3325,1.3172-5.3314,1.3172-5.3314l-1.4436-1.9434Z" fill="#feadae"/><path d="M117.1288,94.4512c.95.0562.9254,1.8878.9624,2.184.02.1609.4226.3545.7861.4979a.92.92,0,0,1,.58.8526c.0071,1.178.0856,3.5675.6036,3.7392.6894.2285,2.7738.3609,3.0179.0277a13.3983,13.3983,0,0,0,2.3783-6.9682c.0059-3.5535-2.3555-4.5862-3.9237-4.627-1.4159-.0367-2.4906.9309-3.9237.2591C113.3069,88.3991,110.8731,94.081,117.1288,94.4512Z" fill="#3d4177"/><path d="M120.4429,158.3862h0a.9093.9093,0,0,0,.8684-.9406v-8.9878a.9093.9093,0,0,0-.8684-.9406h0a.9093.9093,0,0,0-.8685.9406v8.9878A.9093.9093,0,0,0,120.4429,158.3862Z" fill="#e8e8e8"/><path d="M120.5394,149.3985h0a2.0208,2.0208,0,0,0,1.93-2.09v-9.6436a2.0208,2.0208,0,0,0-1.93-2.09h0a2.0208,2.0208,0,0,0-1.93,2.09v9.6436A2.0208,2.0208,0,0,0,120.5394,149.3985Z" fill="#a8a7a5"/><path d="M115.2322,159.0133h10.4214a.7073.7073,0,0,0,.6755-.7316h0a.7073.7073,0,0,0-.6755-.7316H115.2322a.7073.7073,0,0,0-.6755.7316h0A.7073.7073,0,0,0,115.2322,159.0133Z" fill="#e8e8e8"/><ellipse cx="126.329" cy="159.4313" rx="1.7369" ry="1.8811" fill="#a8a7a5"/><ellipse cx="120.3464" cy="159.4313" rx="1.7369" ry="1.8811" fill="#a8a7a5"/><ellipse cx="115.2377" cy="159.4313" rx="1.7369" ry="1.8811" fill="#a8a7a5"/><path d="M115.8542,110.0207s11.2207-4.407,17.6325-.6677c.2466,8.0128-3.8224,28.5787-3.8224,28.5787H107.2229a4.7253,4.7253,0,0,1,0-3.8728c.4932-.8013,9.9876-.5342,9.9876-.5342Z" fill="#c3c2c6"/><path d="M176.8438,158.3862h0a.9093.9093,0,0,0,.8684-.9406v-8.9878a.9093.9093,0,0,0-.8684-.9406h0a.9093.9093,0,0,0-.8685.9406v8.9878A.9093.9093,0,0,0,176.8438,158.3862Z" fill="#e8e8e8"/><path d="M176.94,149.3985h0a2.0208,2.0208,0,0,0,1.93-2.09v-9.6436a2.0208,2.0208,0,0,0-1.93-2.09h0a2.0208,2.0208,0,0,0-1.93,2.09v9.6436A2.0208,2.0208,0,0,0,176.94,149.3985Z" fill="#a8a7a5"/><path d="M171.6331,159.0133h10.4214a.7073.7073,0,0,0,.6755-.7316h0a.7073.7073,0,0,0-.6755-.7316H171.6331a.7073.7073,0,0,0-.6755.7316h0A.7073.7073,0,0,0,171.6331,159.0133Z" fill="#e8e8e8"/><ellipse cx="182.7299" cy="159.4313" rx="1.7369" ry="1.8811" fill="#a8a7a5"/><ellipse cx="176.7473" cy="159.4313" rx="1.7369" ry="1.8811" fill="#a8a7a5"/><ellipse cx="171.6386" cy="159.4313" rx="1.7369" ry="1.8811" fill="#a8a7a5"/><path d="M184.8266,109.7549s5.7746-5.3016,12.1863-1.5624c.2466,8.0128-10.9478,29.7392-10.9478,29.7392H163.6238a4.7253,4.7253,0,0,1,0-3.8728c.4932-.8013,14.016-.5563,14.016-.5563Z" fill="#c3c2c6"/><rect x="74.5793" y="145.9719" width="20.0424" height="13.5784" fill="#e2e2e2"/><rect x="70.5156" y="145.9719" width="4.0637" height="13.5784" transform="translate(145.095 305.5223) rotate(180)" fill="#a4a4a5"/><rect x="74.5793" y="145.9719" width="20.304" height="1.9292" fill="#edeef4"/><rect x="70.1731" y="145.9719" width="4.4062" height="1.9292" transform="translate(144.7524 293.873) rotate(180)" fill="#e8e8ea"/><rect x="73.2481" y="144.8876" width="20.0853" height="1.0844" fill="#a4a4a5"/><rect x="72.5475" y="143.8109" width="20.0853" height="1.0844" fill="#edeef4"/><rect x="72.3762" y="141.6576" width="20.0853" height="1.0844" fill="#edeef4"/><rect x="73.4391" y="140.5809" width="20.0853" height="1.0844" fill="#a4a4a5"/><rect x="74.0191" y="142.7343" width="20.0853" height="1.0844" fill="#a4a4a5"/><path d="M191.5953,93.1625c-.186-1.7256-2.4532-2.7906-4.1621-3.1206-5.8412-1.4115-6.7264,1.1014-6.86,2.1625a1.7161,1.7161,0,0,0,.7164,1.6065c.4384-1.342,2.0567-1.5626,2.6084-1.5989a4.4538,4.4538,0,0,0,.0157,1.9311c.1566.5524.742.8207,1.3915.9441.4325.8792-.3567,2.3851-.3567,2.3851l.6178.3637a3.0639,3.0639,0,0,1,.7824-1.42c.599-.561,1.8176-.1661,1.6715,1.36a2.0265,2.0265,0,0,1-1.4541,1.8312l1.679,1.25c2.6635-.6968,3.9364-4.1245,3.9992-5.4945A3.3291,3.3291,0,0,0,191.5953,93.1625Z" fill="#3d4177"/><path d="M92.3921,76.4981a6.52,6.52,0,1,0,6.52,6.52A6.52,6.52,0,0,0,92.3921,76.4981Zm.4921,12.0328v-.4383a.4921.4921,0,1,0-.9841,0v.4383a5.5434,5.5434,0,0,1-5.0219-5.0361h.4241a.4921.4921,0,0,0,0-.9842h-.4218a5.5441,5.5441,0,0,1,5.02-5.0053v.4075a.4921.4921,0,1,0,.9841,0v-.4075a5.5438,5.5438,0,0,1,5.0195,5.0053h-.4217a.4921.4921,0,1,0,0,.9842h.4241A5.5434,5.5434,0,0,1,92.8842,88.5309Z" fill="#e2e2e2"/><path d="M95.3235,79.8417l-2.9148,3.0542-.0166-.0008a.5586.5586,0,0,0-.1066.01l-2.4394-1.8433a.3692.3692,0,0,0-.4439.59l2.4387,1.8426a.5534.5534,0,0,0,1.1048-.0463c0-.0147-.001-.0289-.0022-.0432l2.9142-3.0544a.3691.3691,0,1,0-.5343-.5094Z" fill="#e2e2e2"/><polygon points="202.563 267.648 202.996 272.159 209.713 272.159 209.713 268.073 202.563 267.648" fill="#feadae"/><polygon points="214.821 259.476 215.254 265.009 221.971 265.009 221.971 259.997 214.821 259.476" fill="#feadae"/><path d="M205.8175,202.47s-3.2973,2.9366-3.2973,16.29.66,17.6953-.33,22.7511.3725,26.0446.3725,27.5833,7.15,2.043,7.15-1.0215c0,0,2.1216-14.7742,2.4925-20.7092s2.5967-21.4322,3.0089-23.328c0,0-.9446,11.98-1.1593,18.9042s.82,16.7187.7653,17.9827,5.5429,2.02,7.15,0c0,0,2.4876-22.9286,2.9488-28.3141s2.6594-32.0932,1.2307-33.4121S211.05,197.2369,205.8175,202.47Z" fill="#293882"/><path d="M224.5335,160.1825s3.7878,3.5958,7.282,11.6741c3.0239,6.9909,3.999,7.2952,3.999,9.2324s-7.2788,2.6-9.3067-.7831S221.4052,158.3176,224.5335,160.1825Z" fill="#f4cf7a"/><path d="M213.9219,160.0051a25.1994,25.1994,0,0,0-10.0278,5.7791c-3.4072,3.4071-4.3964,8.2431-2.0883,14.7827s3.0225,14.2331,1.8684,17.8051.055,8.7927,7.9134,8.6279,14.6178-3.737,15.3872-6.21-.11-10.2214-.11-14.7277.1374-21.57-1.5937-24.8393S219.32,158.1294,213.9219,160.0051Z" fill="#fbdb8a"/><path d="M231.6575,177.255a4.5417,4.5417,0,0,0-3.7247-1.9639,4.87,4.87,0,0,0-3.8761,2.43A37.5054,37.5054,0,0,1,231.6575,177.255Z" fill="#feadae"/><path d="M217.3991,179.3991a7.1215,7.1215,0,0,0-.8154-.0581,7.2277,7.2277,0,0,0-5.0785,1.9952s-2.995,2.1981-3.5514,2.7546c-.54.54-.77,1.2708-.3849,1.6555s1.4978-.0345,1.4978-.0345-1.4184,1.1438-.7453,1.817,2.1717-.1407,2.1717-.1407-.65.8367-.0594,1.312c.7762.6251,1.7311-.44,1.7311-.44a.8567.8567,0,0,0,.933.7831c.8917,0,3.3122-2.102,3.3122-2.102a6.6975,6.6975,0,0,0,2.2148-2.7533,5.7777,5.7777,0,0,0,.3818-1.2859A3.0676,3.0676,0,0,0,217.3991,179.3991Z" fill="#feadae"/><path d="M218.0846,194.5852c.7846-1.8185-1.9564-9.0147-1.9907-8.9626,0,0-3.5124-5.6053-4.6962-8.1881s-6.1847-8.6828-8.7675-7.0891-2.3632,8.6828,2.363,15.3872,10.139,9.8094,11.4579,9.8094a3.3882,3.3882,0,0,0,1.64-.9345C218.09,194.5989,218.081,194.5933,218.0846,194.5852Z" fill="#fbdb8a"/><path d="M216.9652,186.4939s-4.0712-6.6441-5.5675-9.0594c-2.5534-4.1216-6.1847-8.6828-8.7675-7.0891s-2.0608,8.3805,2.6652,15.0849,10.4414,10.1116,11.76,10.1116c2.995,0,9.1434-8.93,10.8628-15.05.281-1-3.6573-2.642-4.722-1.9991C222.0523,179.1831,218.87,183.593,216.9652,186.4939Z" fill="#f4cf7a"/><path d="M232.3054,177.3795a3.87,3.87,0,0,0-.648-.1245,37.5054,37.5054,0,0,0-7.6008.4658c-.8785.1188-1.7046.2425-2.4007.3557a27.5873,27.5873,0,0,0-5.0674,1.2578l-.0048.0066c.2646.0052,3.5356.5114,2.0324,4.7268.2627-.2628,2.9182-.6984,5.721-.5383s8.3531,1.2139,10.3863-.3248C237.6051,181.0239,234.064,177.9291,232.3054,177.3795Z" fill="#f4cf7a"/><path d="M211.258,155.0819s-.0412,4.6984-.68,6.5738,3.5179,6.5752,8.2766,5.2962c2.9135-.7831,1.0176-2.6791.729-3.4209a6.1571,6.1571,0,0,1,.0341-2.06,5.1137,5.1137,0,0,0-1.3638-4.1185C215.9663,154.9292,212.0888,151.5007,211.258,155.0819Z" fill="#feadae"/><path d="M214.7032,162.5361a7.039,7.039,0,0,0,4.88.9948,6.1571,6.1571,0,0,1,.0341-2.06,5.1135,5.1135,0,0,0-1.3639-4.1185c-2.2873-2.4237-6.165-5.8521-6.9957-2.2711,0,0-.0193,2.0879-.2209,4.0359A12.3757,12.3757,0,0,0,214.7032,162.5361Z" fill="#e5989b"/><path d="M210.9324,163.4542c1.1227,2.0531,4.353,4.457,7.9221,3.4977,2.9135-.7831,1.0176-2.6791.729-3.4209C219.8309,167.7075,211.5327,164.85,210.9324,163.4542Z" fill="#f4cf7a"/><path d="M217.9623,142.5384s-5.55-1.5387-7.9133,2.2532-.665,7.9635.1728,9.6453c1.2364,2.2255,2.74,5.3023,6.6414,6.6761s5.7774-.7215,5.8049-2.2328.1852-6.6973-.0758-9.2664S221.37,143.7474,217.9623,142.5384Z" fill="#feadae"/><path d="M210.3163,154.3328c.5453-.01,2.0768-.1245,2.28.3358.1458.3307.8877.5368.8877.3307,0-.3915-1.1129-3.7506-.8815-4.7025.15-.6184.8433-1.1087,1.0533-1.7206.1521-.4437.0252-.98.2617-1.4127a2.65,2.65,0,0,1,2.7476-1.1332c4.5674.4373,4.5732-.59,4.6782-.6583a4.2627,4.2627,0,0,0-2.8036-3.4106c-2.3567-.9293-7.909-1.4428-9.791,2.61-2.3539,5.07.5895,8.067,1.4378,9.7915A.52.52,0,0,1,210.3163,154.3328Z" fill="#3d4177"/><path d="M212.4132,153.9161s-.6333-2.5333-2.387-2.1922c-1.657.3222-.531,4.0793,1.94,4.4936a.5858.5858,0,0,0,.6833-.4743A4.3738,4.3738,0,0,0,212.4132,153.9161Z" fill="#feadae"/><path d="M247.533,104.7861c12.594,8.6946,22.04,10.5813,25.0713,6.8779L226.4855,79.8248C228.1729,82.9469,236.1366,96.9185,247.533,104.7861Z" fill="#f4cf7a"/><path d="M226.1505,79.1923s.1147.225.3349.6325l46.1188,31.8391c.07-.0853.14-.17.203-.2612,2.7971-4.0515-2.2617-12.3934-15.1456-21.2881S226.1505,79.1923,226.1505,79.1923Z" fill="#fbdb8a"/><path d="M262.3627,104.2853q-4.6641-3.201-9.3195-6.4145-9.3182-6.417-18.7188-12.7132a.0651.0651,0,0,0-.0739.1072q6.2331,4.4245,12.5015,8.7987a30.5285,30.5285,0,0,0-6.4273,1.2289.1132.1132,0,0,0,.0392.214,31.379,31.379,0,0,0,6.73-1.2046q2.8382,1.9824,5.68,3.96,4.6513,3.2192,9.3012,6.4407c3.079,2.1382,6.0946,4.51,9.3367,6.3894a.2072.2072,0,0,0,.2354-.3408C268.74,108.3859,265.4532,106.4063,262.3627,104.2853Z" fill="#2e5175"/><path d="M258.3709,101.7563a63.8235,63.8235,0,0,0-10.7951,2.0013.0711.0711,0,0,0,.0256.14,63.81,63.81,0,0,0,10.8035-1.9548A.0947.0947,0,0,0,258.3709,101.7563Z" fill="#2e5175"/><path d="M251.0827,89.5758c.1792,1.45.418,2.8925.6406,4.3367a18.6674,18.6674,0,0,0,.8226,3.862.1072.1072,0,0,0,.2027-.0372,18.6522,18.6522,0,0,0-.6-3.9028c-.3037-1.4293-.5916-2.8626-.9382-4.2822A.0651.0651,0,0,0,251.0827,89.5758Z" fill="#2e5175"/><path d="M262.7773,97.8694a55.86,55.86,0,0,0,1.303,7.4745.1184.1184,0,0,0,.2328-.0426A55.8442,55.8442,0,0,0,262.882,97.85.0532.0532,0,0,0,262.7773,97.8694Z" fill="#2e5175"/><path d="M268.087,107.9834a49.9764,49.9764,0,0,0-8.86,1.665.077.077,0,0,0,.0278.1514,49.9812,49.9812,0,0,0,8.8751-1.5837A.1184.1184,0,0,0,268.087,107.9834Z" fill="#2e5175"/><path d="M259.7145,92.3992c4.8769,11.7745,10.63,17.3646,14.4245,16.1451L256.28,65.4262C256.0485,68.3725,255.3015,81.7443,259.7145,92.3992Z" fill="#f4cf7a"/><path d="M256.3318,64.8324s-.0216.2092-.0518.5938l17.859,43.1181c.0873-.0281.1749-.0555.26-.0908,3.7878-1.5689,4.0215-9.69-.9677-21.7358S256.3318,64.8324,256.3318,64.8324Z" fill="#fbdb8a"/><path d="M270.3122,98.7536q-1.8146-4.3472-3.6175-8.6994-3.6156-8.7009-7.3433-17.3543a.0542.0542,0,0,0-.1.0415q2.3587,5.9125,4.7649,11.8056a25.4125,25.4125,0,0,0-5.05-2.0464.0943.0943,0,0,0-.0693.1674,26.1257,26.1257,0,0,0,5.2512,2.2c.7258,1.78,1.4482,3.5608,2.1817,5.3374q1.7977,4.3543,3.5931,8.71c1.1867,2.8874,2.2233,5.91,3.6411,8.69a.1726.1726,0,0,0,.3187-.132C272.9187,104.5048,271.5147,101.6343,270.3122,98.7536Z" fill="#2e5175"/><path d="M268.664,95.18a53.1475,53.1475,0,0,0-8.4544-3.4809.0592.0592,0,0,0-.0453.1092,53.1531,53.1531,0,0,0,8.4394,3.5173A.0789.0789,0,0,0,268.664,95.18Z" fill="#2e5175"/><path d="M269.0738,83.3664c-.53,1.0954-1.0154,2.2119-1.5127,3.3226a15.543,15.543,0,0,0-1.1707,3.0729.0893.0893,0,0,0,.1585.0656,15.5215,15.5215,0,0,0,1.3451-3.0006c.4338-1.1369.88-2.2695,1.28-3.4191A.0543.0543,0,0,0,269.0738,83.3664Z" fill="#2e5175"/><path d="M273.5029,94.4539a46.5083,46.5083,0,0,0-2.468,5.8166.0986.0986,0,0,0,.182.0754,46.509,46.509,0,0,0,2.368-5.8582A.0444.0444,0,0,0,273.5029,94.4539Z" fill="#2e5175"/><path d="M272.6437,103.928a41.6224,41.6224,0,0,0-6.9494-2.8415.0641.0641,0,0,0-.049.1184,41.6087,41.6087,0,0,0,6.9229,2.9051A.0986.0986,0,0,0,272.6437,103.928Z" fill="#2e5175"/><path d="M246.6532,115.1621c10.7064,4.06,17.9066,3.7391,19.4454.5057l-39.2065-14.8691C228.6771,102.7645,236.9651,111.4879,246.6532,115.1621Z" fill="#f4cf7a"/><path d="M226.5355,100.3992s.1236.1429.3566.4l39.2065,14.8691c.0354-.0744.0714-.1486.1007-.2261,1.3062-3.4441-3.8629-8.5982-14.8158-12.7522S226.5355,100.3992,226.5355,100.3992Z" fill="#fbdb8a"/><path d="M257.3368,112.1421q-3.9617-1.49-7.9191-2.9905-7.9187-2.9928-15.8757-5.8829a.0487.0487,0,0,0-.0344.0911q5.3205,2.0978,10.6578,4.1528a22.84,22.84,0,0,0-4.449,2.0441.0847.0847,0,0,0,.0668.1484,23.47,23.47,0,0,0,4.6732-2.0805c1.6113.6212,3.2213,1.2454,4.8353,1.86q3.9557,1.5055,7.9107,3.0129c2.62,1.0017,5.2352,2.1846,7.9273,2.9692a.1551.1551,0,0,0,.11-.29C262.7044,113.9786,259.9618,113.1294,257.3368,112.1421Z" fill="#2e5175"/><path d="M253.9839,111.02a47.75,47.75,0,0,0-7.4837,3.3875.0532.0532,0,0,0,.0437.0969,47.7556,47.7556,0,0,0,7.4982-3.3553A.0709.0709,0,0,0,253.9839,111.02Z" fill="#2e5175"/><path d="M246.5075,103.4766c.39,1.0215.8217,2.0265,1.2422,3.0357a13.9672,13.9672,0,0,0,1.2894,2.6583.08.08,0,0,0,.1405-.0634,13.9516,13.9516,0,0,0-1.1347-2.7277c-.4766-.9839-.9425-1.9736-1.4484-2.9428A.0488.0488,0,0,0,246.5075,103.4766Z" fill="#2e5175"/><path d="M256.4887,107.4069a41.8006,41.8006,0,0,0,2.2854,5.1966.0886.0886,0,0,0,.1615-.0726,41.7762,41.7762,0,0,0-2.3742-5.1567A.04.04,0,0,0,256.4887,107.4069Z" fill="#2e5175"/><path d="M262.1577,113.8033a37.3967,37.3967,0,0,0-6.1384,2.7967.0576.0576,0,0,0,.0473.1049,37.3912,37.3912,0,0,0,6.1637-2.74A.0886.0886,0,0,0,262.1577,113.8033Z" fill="#2e5175"/><path d="M341.5112,220.3356c-4.7116,7.9713-5.4483,13.7528-3.084,15.4247l17.2536-29.19C353.8683,207.7211,345.7746,213.1224,341.5112,220.3356Z" fill="#f4cf7a"/><path d="M356.0483,206.3407s-.1309.0788-.3675.2291l-17.2536,29.19c.0545.0385.1086.0774.1663.1114,2.5643,1.5157,7.3838-1.8926,12.2039-10.0474S356.0483,206.3407,356.0483,206.3407Z" fill="#fbdb8a"/><path d="M342.4447,229.2648q1.7335-2.9513,3.4748-5.8979,3.4764-5.8972,6.8764-11.839a.0394.0394,0,0,0-.0679-.04q-2.4051,3.95-4.7784,7.92a18.4714,18.4714,0,0,0-1.0153-3.8269.0685.0685,0,0,0-.1275.0327,18.986,18.986,0,0,0,1.0135,4.0105q-1.0757,1.7974-2.1483,3.5965-1.745,2.9444-3.4914,5.888c-1.1595,1.9494-2.4625,3.87-3.4589,5.9072a.1254.1254,0,0,0,.2157.1276C340.2412,233.2887,341.2961,231.22,342.4447,229.2648Z" fill="#2e5175"/><path d="M343.8012,226.7479a38.6166,38.6166,0,0,0-1.6674-6.43.043.043,0,0,0-.0832.0214,38.6082,38.6082,0,0,0,1.64,6.4373A.0573.0573,0,0,0,343.8012,226.7479Z" fill="#2e5175"/><path d="M350.8425,221.8306c-.8677.17-1.728.3754-2.59.5712a11.2948,11.2948,0,0,0-2.2959.6609.0649.0649,0,0,0,.0311.1207,11.2856,11.2856,0,0,0,2.33-.5281c.85-.2442,1.7025-.4789,2.5446-.7485A.0394.0394,0,0,0,350.8425,221.8306Z" fill="#2e5175"/><path d="M346.3347,229.242a33.7985,33.7985,0,0,0-4.4558,1.1046.0717.0717,0,0,0,.0356.1387,33.7888,33.7888,0,0,0,4.4363-1.1809A.0322.0322,0,0,0,346.3347,229.242Z" fill="#2e5175"/><path d="M340.4563,232.8772a30.2384,30.2384,0,0,0-1.3821-5.2768.0466.0466,0,0,0-.09.0232,30.2413,30.2413,0,0,0,1.3336,5.2892A.0716.0716,0,0,0,340.4563,232.8772Z" fill="#2e5175"/><path d="M349.5059,227.1606c-6.899,3.4446-10.028,7.155-9.13,9.3932l25.264-12.6142C363.8513,223.9252,355.7489,224.0435,349.5059,227.1606Z" fill="#f4cf7a"/><path d="M366,223.9455s-.1272-.0041-.3606-.006l-25.264,12.6142c.0207.0515.041.1032.0659.1531,1.1082,2.2194,6.02,2.0147,13.0775-1.5092S366,223.9455,366,223.9455Z" fill="#fbdb8a"/><path d="M346.1218,233.8273q2.5466-1.28,5.0966-2.5537,5.0976-2.5526,10.1617-5.1708a.0328.0328,0,0,0-.0293-.0587q-3.4681,1.6753-6.9225,3.3784a15.376,15.376,0,0,0,1.02-3.1353.057.057,0,0,0-.104-.0347,15.8075,15.8075,0,0,0-1.1044,3.263c-1.0433.5138-2.0875,1.0256-3.1285,1.544q-2.5516,1.27-5.1038,2.5394c-1.6922.8391-3.4721,1.5934-5.09,2.5675a.1044.1044,0,0,0,.0933.1867C342.7615,235.6453,344.4343,234.6757,346.1218,233.8273Z" fill="#2e5175"/><path d="M348.2084,232.68a32.1571,32.1571,0,0,0,1.7411-5.2509.0358.0358,0,0,0-.0679-.0227,32.1605,32.1605,0,0,0-1.7637,5.2434A.0477.0477,0,0,0,348.2084,232.68Z" fill="#2e5175"/><path d="M355.3561,232.4249c-.6837-.2735-1.3782-.5187-2.07-.7716a9.4044,9.4044,0,0,0-1.9045-.5758.054.054,0,0,0-.0329.0985,9.3914,9.3914,0,0,0,1.8683.6841c.7047.2135,1.4072.4348,2.1181.627A.0328.0328,0,0,0,355.3561,232.4249Z" fill="#2e5175"/><path d="M348.8527,235.57a28.14,28.14,0,0,0-3.6157-1.242.06.06,0,0,0-.0378.1131,28.14,28.14,0,0,0,3.6365,1.18A.0269.0269,0,0,0,348.8527,235.57Z" fill="#2e5175"/><path d="M343.098,235.4548a25.1838,25.1838,0,0,0,1.4192-4.3153.0388.0388,0,0,0-.0736-.0245,25.1755,25.1755,0,0,0-1.4587,4.302A.06.06,0,0,0,343.098,235.4548Z" fill="#2e5175"/><path d="M335.2113,220.2463c-1.995,6.6348-1.4945,10.9668.5225,11.7579l7.3054-24.2962C341.9287,208.869,337.0165,214.2426,335.2113,220.2463Z" fill="#f4cf7a"/><path d="M343.2652,207.4757s-.081.0807-.226.2322l-7.3054,24.2962c.0464.0182.0927.0368.1407.0511,2.1343.6418,5.0251-2.6975,7.066-9.485S343.2652,207.4757,343.2652,207.4757Z" fill="#fbdb8a"/><path d="M337.4888,226.5658q.7307-2.4545,1.4679-4.9069,1.4693-4.9068,2.8749-9.8323a.03.03,0,0,0-.0564-.0169q-1.04,3.3005-2.0528,6.6093a13.82,13.82,0,0,0-1.4231-2.5982.0512.0512,0,0,0-.0867.0467,14.2,14.2,0,0,0,1.4546,2.732c-.3063.999-.6145,1.9972-.9165,2.9975q-.74,2.4516-1.4818,4.9028c-.4931,1.6238-1.0957,3.2527-1.4547,4.9109a.0938.0938,0,0,0,.18.054C336.6088,229.8837,337.0046,228.1922,337.4888,226.5658Z" fill="#2e5175"/><path d="M338.0234,224.4944a28.8915,28.8915,0,0,0-2.3631-4.3726.0322.0322,0,0,0-.0566.03,28.8947,28.8947,0,0,0,2.3442,4.3827A.0429.0429,0,0,0,338.0234,224.4944Z" fill="#2e5175"/><path d="M342.2579,219.6609c-.6.2788-1.1881.5822-1.7793.8789a8.4509,8.4509,0,0,0-1.55.8914.0485.0485,0,0,0,.0442.0821,8.4415,8.4415,0,0,0,1.598-.801c.5736-.33,1.1511-.6529,1.7145-.9995A.03.03,0,0,0,342.2579,219.6609Z" fill="#2e5175"/><path d="M340.3106,225.8524a25.2916,25.2916,0,0,0-3.0392,1.6006.0536.0536,0,0,0,.0507.0944,25.2768,25.2768,0,0,0,3.0113-1.6525A.0241.0241,0,0,0,340.3106,225.8524Z" fill="#2e5175"/><path d="M336.6914,229.5462a22.627,22.627,0,0,0-1.9492-3.5858.0348.0348,0,0,0-.0613.033,22.6237,22.6237,0,0,0,1.9162,3.6035A.0536.0536,0,0,0,336.6914,229.5462Z" fill="#2e5175"/><rect x="262.9295" y="77.8693" width="78.2508" height="163.6362" fill="#fff"/><path d="M332.2714,77.9031a8.0712,8.0712,0,0,1,8.0621,8.062v146.571a8.0712,8.0712,0,0,1-8.0621,8.062H271.8353a8.0712,8.0712,0,0,1-8.0621-8.062V85.9651a8.0712,8.0712,0,0,1,8.0621-8.062h60.4361m0-3.9463H271.8353a12.0083,12.0083,0,0,0-12.0083,12.0083v146.571a12.0083,12.0083,0,0,0,12.0083,12.0082h60.4361A12.0083,12.0083,0,0,0,344.28,232.5361V85.9651a12.0083,12.0083,0,0,0-12.0083-12.0083Z" fill="#e2e2e2"/><path d="M276.0126,75.8265v2.0553h3.4943A1.2812,1.2812,0,0,1,280.77,79.18s1.33,4.7731,3.58,4.7731H319.756c2.25,0,3.58-4.7731,3.58-4.7731A1.2812,1.2812,0,0,1,324.6,77.8818h3.4943V75.8265Z" fill="#e2e2e2"/><circle cx="310.7558" cy="79.9107" r="1.4884" fill="#395682" opacity="0.23"/><path d="M306.193,80.63h-9.3314a.6371.6371,0,0,1-.6371-.6372h0a.6371.6371,0,0,1,.6371-.6371h9.3314a.6371.6371,0,0,1,.6372.6371h0A.6372.6372,0,0,1,306.193,80.63Z" fill="#395682" opacity="0.23"/><path d="M325.0245,238.4351H281.277a.77.77,0,0,1-.77-.77h0a.77.77,0,0,1,.77-.77h43.7475a.77.77,0,0,1,.77.77h0A.77.77,0,0,1,325.0245,238.4351Z" fill="#e2e2e2"/><circle cx="303.0581" cy="113.8362" r="14.3927" fill="#a8a7a5"/><rect x="279.2713" y="156.3669" width="47.5737" height="13.7149" fill="#a8a7a5"/><rect x="286.3978" y="197.3274" width="33.8599" height="26.1205" fill="#a8a7a5"/><rect x="279.2802" y="136.781" width="31.5304" height="2.449" fill="none" stroke="#395682" stroke-miterlimit="10" stroke-width="0.5" opacity="0.23"/><rect x="279.2802" y="141.2707" width="31.5304" height="2.449" fill="none" stroke="#395682" stroke-miterlimit="10" stroke-width="0.5" opacity="0.23"/><rect x="279.2802" y="145.7605" width="20.408" height="2.449" fill="none" stroke="#395682" stroke-miterlimit="10" stroke-width="0.5" opacity="0.23"/><rect x="279.2802" y="177.2651" width="12.4489" height="12.4489" rx="5.8572" ry="5.8572" fill="none" stroke="#395682" stroke-miterlimit="10" stroke-width="0.5" opacity="0.23"/><rect x="296.8311" y="177.2651" width="12.4489" height="12.4489" rx="5.8572" ry="5.8572" fill="none" stroke="#395682" stroke-miterlimit="10" stroke-width="0.5" opacity="0.23"/><rect x="314.382" y="177.2651" width="12.4489" height="12.4489" rx="5.8572" ry="5.8572" fill="none" stroke="#395682" stroke-miterlimit="10" stroke-width="0.5" opacity="0.23"/><rect id="_Path_14" data-name="&lt;Path&gt;" x="248.3288" y="254.478" width="25.5392" height="1.5375" fill="#e8e8e8"/><rect id="_Path_15" data-name="&lt;Path&gt;" x="273.6293" y="254.478" width="27.9259" height="1.5375" fill="#e8e8e8"/><line id="_Path_16" data-name="&lt;Path&gt;" x1="299.3406" y1="230.7816" x2="297.8031" y2="230.7816" fill="#e8e8e8"/><rect x="301.3165" y="248.9885" width="1.4321" height="1.4321" fill="#dbdad9"/><rect x="301.3165" y="243.7375" width="1.4321" height="1.4321" fill="#dbdad9"/><rect x="248.4484" y="167.8358" width="1.4321" height="1.4321" fill="#dbdad9"/><rect x="248.4484" y="193.6137" width="1.4321" height="1.4321" fill="#dbdad9"/><rect x="248.4484" y="223.9267" width="1.4321" height="1.4321" fill="#dbdad9"/><rect x="248.4484" y="252.3301" width="1.4321" height="1.4321" fill="#dbdad9"/><rect x="256.8021" y="254.65" width="1.4321" height="1.1934" fill="#dbdad9"/><rect x="285.6828" y="254.65" width="1.4321" height="1.1934" fill="#dbdad9"/><rect x="211.9292" y="87.1605" width="1.4321" height="1.4321" fill="#dbdad9"/><rect x="211.9292" y="118.4282" width="1.4321" height="1.4321" fill="#dbdad9"/><rect x="248.4484" y="136.8069" width="1.4321" height="1.4321" fill="#dbdad9"/><rect x="186.032" y="73.2296" width="1.4321" height="1.1934" fill="#dbdad9"/><rect x="218.9704" y="125.8273" width="1.4321" height="1.1934" fill="#dbdad9"/><rect x="241.8841" y="125.8273" width="1.4321" height="1.1934" fill="#dbdad9"/><rect x="211.8099" y="73.2296" width="1.4321" height="1.1934" fill="#dbdad9"/><rect x="21.8697" y="93.8437" width="1.4321" height="1.4321" fill="#dbdad9"/><rect x="78.4379" y="79.2839" width="1.4321" height="1.4321" fill="#dbdad9"/><rect x="139.7798" y="83.1312" width="1.4321" height="1.4321" fill="#dbdad9"/><rect x="26.3521" y="73.2296" width="1.4321" height="1.1934" fill="#dbdad9"/><rect x="39.2411" y="73.2296" width="1.4321" height="1.1934" fill="#dbdad9"/><rect x="51.8914" y="73.2296" width="1.4321" height="1.1934" fill="#dbdad9"/><rect x="69.7927" y="73.2296" width="1.4321" height="1.1934" fill="#dbdad9"/><rect x="90.5582" y="73.2296" width="1.4321" height="1.1934" fill="#dbdad9"/><rect x="109.4143" y="73.2296" width="1.4321" height="1.1934" fill="#dbdad9"/><rect x="130.6572" y="73.2296" width="1.4321" height="1.1934" fill="#dbdad9"/><rect x="164.5504" y="73.2296" width="1.4321" height="1.1934" fill="#dbdad9"/><rect x="21.8697" y="74.5102" width="1.4321" height="1.4321" fill="#dbdad9"/><rect x="143.0688" y="73.2296" width="1.4321" height="1.1934" fill="#dbdad9"/><path id="_Path_17" data-name="&lt;Path&gt;" d="M220.4823,277.3332a.3484.3484,0,0,0,.354-.3358,1.3007,1.3007,0,0,0-1.0879-1.2879c-1.4335-.4461-2.9142-.6956-4.0237-1.0938-1.38-.4954-2.5778-1.9965-3.59-2.3423a4.8489,4.8489,0,0,1-1.973-1.5133,7.3315,7.3315,0,0,1-2.2882.4647c-1.3023-.0056-4.5-1.1394-5.31-.0873-.9394,1.22-2.043,6.1289,1.947,5.8434" fill="#473e73"/><path id="_Path_18" data-name="&lt;Path&gt;" d="M232.74,269.1613a.3484.3484,0,0,0,.354-.3358,1.3007,1.3007,0,0,0-1.0879-1.2879c-1.4335-.4461-2.9142-.6956-4.0237-1.0938-1.38-.4954-2.5778-1.9965-3.59-2.3423a4.8489,4.8489,0,0,1-1.973-1.5133,7.3315,7.3315,0,0,1-2.2882.4647c-1.3023-.0056-4.5-1.1394-5.31-.0873-.9394,1.22-2.043,6.1289,1.947,5.8434" fill="#473e73"/><ellipse cx="175.4854" cy="276.4803" rx="15.9542" ry="1.6831" fill="#e9e8ea"/><path d="M190.8278,250.4115c.0226,16.2966-4.0259,25.7214-9.1046,26.1444l-.0826-59.6777C183.36,220.2433,190.8073,235.6646,190.8278,250.4115Z" fill="#f4cf7a"/><path d="M181.2879,216.2025s.1281.2364.3527.6757l.0826,59.6777c-.1169.01-.2338.02-.3517.02-5.2426.0072-9.5056-9.4668-9.5286-26.1386S181.2879,216.2025,181.2879,216.2025Z" fill="#fbdb8a"/><path d="M181.4347,263.1171q.0082-6.0237,0-12.0475-.0028-12.0483.15-24.0955a.0694.0694,0,0,1,.1386,0q.1178,8.1389.17,16.2783a32.4953,32.4953,0,0,1,4.9584-4.8957c.0938-.0706.2345.07.1641.1636a33.4072,33.4072,0,0,1-5.12,5.1758c.0168,2.4577.0383,4.9152.0445,7.373q.0151,6.0238.0336,12.0475c.0165,3.9918.2762,8.069-.0328,12.0477a.2207.2207,0,0,1-.4411.0006C181.1808,271.1873,181.4292,267.1087,181.4347,263.1171Z" fill="#2e5175"/><path d="M181.6264,258.0888a67.96,67.96,0,0,1,8.2732-8.2606.0756.0756,0,0,1,.1071.1067,67.9675,67.9675,0,0,1-8.2377,8.2962A.1008.1008,0,0,1,181.6264,258.0888Z" fill="#2e5175"/><path d="M175.3426,244.3414c1.164,1.0329,2.2848,2.1131,3.4172,3.18a19.875,19.875,0,0,1,2.8909,3.0534.1141.1141,0,0,1-.1549.1553,19.8475,19.8475,0,0,1-3.0613-2.8824c-1.07-1.1294-2.1538-2.2473-3.19-3.4085A.0694.0694,0,0,1,175.3426,244.3414Z" fill="#2e5175"/><path d="M175.5564,259.607a59.4706,59.4706,0,0,1,5.77,5.656.1261.1261,0,0,1-.1779.1784,59.4716,59.4716,0,0,1-5.672-5.7542A.0568.0568,0,0,1,175.5564,259.607Z" fill="#2e5175"/><path d="M181.2222,270.3712a53.223,53.223,0,0,1,6.81-6.7667.082.082,0,0,1,.116.1158,53.2055,53.2055,0,0,1-6.7477,6.8288A.1261.1261,0,0,1,181.2222,270.3712Z" fill="#2e5175"/><path d="M174.4317,259.1374c.0153,11.075-2.736,17.48-6.1874,17.7675l-.0561-40.5565C169.3569,238.6353,174.4178,249.1155,174.4317,259.1374Z" fill="#f4cf7a"/><path d="M167.9485,235.8892s.0871.1607.24.4592l.0561,40.5565c-.0794.0066-.1589.0138-.239.0139-3.5628.0049-6.46-6.4336-6.4756-17.7636S167.9485,235.8892,167.9485,235.8892Z" fill="#fbdb8a"/><path d="M168.0483,267.772q.0056-4.0937,0-8.1874-.0019-8.188.1021-16.3751a.0471.0471,0,0,1,.0942,0q.08,5.5311.1156,11.0626a22.0836,22.0836,0,0,1,3.37-3.3271c.0638-.048.1594.0473.1115.1112a22.7033,22.7033,0,0,1-3.4795,3.5174c.0114,1.67.026,3.34.03,5.0106q.01,4.0937.0228,8.1874c.0112,2.7128.1877,5.4836-.0223,8.1876a.15.15,0,0,1-.3,0C167.8757,273.2565,168.0445,270.4847,168.0483,267.772Z" fill="#2e5175"/><path d="M168.1785,264.3548a46.1853,46.1853,0,0,1,5.6224-5.6139.0514.0514,0,0,1,.0728.0725,46.19,46.19,0,0,1-5.5983,5.6381A.0685.0685,0,0,1,168.1785,264.3548Z" fill="#2e5175"/><path d="M163.9081,255.0122c.791.7019,1.5527,1.4361,2.3223,2.1613a13.5069,13.5069,0,0,1,1.9647,2.0751.0776.0776,0,0,1-.1053.1055,13.4883,13.4883,0,0,1-2.08-1.9589c-.7274-.7675-1.4637-1.5273-2.1679-2.3164A.0472.0472,0,0,1,163.9081,255.0122Z" fill="#2e5175"/><path d="M164.0534,265.3866a40.4158,40.4158,0,0,1,3.921,3.8438.0857.0857,0,0,1-.1209.1213,40.4165,40.4165,0,0,1-3.8546-3.9105A.0386.0386,0,0,1,164.0534,265.3866Z" fill="#2e5175"/><path d="M167.9038,272.7019a36.17,36.17,0,0,1,4.6281-4.5986.0557.0557,0,0,1,.0788.0787,36.1581,36.1581,0,0,1-4.5857,4.6408A.0857.0857,0,0,1,167.9038,272.7019Z" fill="#2e5175"/></svg>