<?xml version="1.0" encoding="iso-8859-1"?>
<!-- Generator: Adobe Illustrator 19.0.0, SVG Export Plug-In . SVG Version: 6.00 Build 0)  -->
<svg version="1.1" id="Capa_1" xmlns="http://www.w3.org/2000/svg" xmlns:xlink="http://www.w3.org/1999/xlink" x="0px" y="0px"
	 viewBox="0 0 512.001 512.001" style="enable-background:new 0 0 512.001 512.001;" xml:space="preserve">
<g>
	<g>
		<path d="M334.471,390.859c-0.46-0.46-0.97-0.88-1.52-1.239c-0.54-0.36-1.12-0.67-1.721-0.92c-0.609-0.25-1.239-0.44-1.88-0.57
			c-1.29-0.26-2.609-0.26-3.899,0c-0.641,0.13-1.27,0.32-1.87,0.57c-0.61,0.25-1.19,0.56-1.73,0.92
			c-0.55,0.359-1.06,0.779-1.52,1.239c-1.861,1.86-2.931,4.44-2.931,7.07c0,0.65,0.07,1.311,0.2,1.96c0.13,0.63,0.32,1.26,0.57,1.87
			c0.25,0.6,0.56,1.18,0.92,1.72c0.36,0.55,0.78,1.06,1.24,1.52c0.46,0.46,0.97,0.88,1.52,1.25c0.54,0.359,1.12,0.67,1.73,0.92
			c0.6,0.25,1.229,0.439,1.87,0.57c0.639,0.13,1.3,0.19,1.949,0.19c0.65,0,1.31-0.06,1.952-0.19c0.641-0.131,1.271-0.32,1.88-0.57
			c0.601-0.25,1.181-0.561,1.721-0.92c0.55-0.37,1.06-0.79,1.52-1.25c0.46-0.46,0.88-0.969,1.25-1.52
			c0.349-0.54,0.66-1.12,0.91-1.72c0.25-0.61,0.45-1.24,0.57-1.87c0.13-0.65,0.199-1.31,0.199-1.96
			C337.401,395.299,336.331,392.719,334.471,390.859z"/>
	</g>
</g>
<g>
	<g>
		<path d="M286.138,387.931H184.601c-5.523,0-10,4.478-10,10s4.477,10,10,10h101.536c5.523,0,10-4.478,10.001-10
			C296.138,392.409,291.66,387.931,286.138,387.931z"/>
	</g>
</g>
<g>
	<g>
		<path d="M93.359,48.905H70.922c-5.523,0-10,4.478-10,10s4.477,10,10,10h22.437c5.523,0,10-4.478,10-10
			S98.882,48.905,93.359,48.905z"/>
	</g>
</g>
<g>
	<g>
		<path d="M490.996,16.422H370.645c-12.773-9.045-27.993-13.92-43.964-13.92H185.319c-15.97,0-31.19,4.875-43.964,13.92H21.005
			C9.423,16.422,0,25.845,0,37.428v382.699c0,11.583,9.423,21.006,21.005,21.006h184.407l-16.488,48.366h-53.758
			c-5.523,0-10,4.478-10,10c0,5.523,4.477,10,10,10h241.67c5.522,0,10-4.477,10-10c0-5.522-4.478-10-10-10h-53.759l-16.488-48.366
			h184.407c11.582,0,21.005-9.423,21.005-21.006V37.428C512,25.845,502.578,16.422,490.996,16.422z M232.318,22.502h47.364v10.324
			c0,13.059-10.624,23.682-23.682,23.682c-13.058,0-23.682-10.623-23.682-23.682V22.502z M129.035,78.787
			c0-15.034,5.854-29.169,16.485-39.799c1.591-1.591,3.261-3.076,5-4.449c0.201-0.145,0.397-0.298,0.586-0.457
			c9.774-7.512,21.68-11.58,34.212-11.58h27.002v10.324c0,24.086,19.596,43.682,43.682,43.682s43.682-19.596,43.682-43.682V22.502
			h27c12.534,0,24.444,4.07,34.219,11.586c0.184,0.154,0.374,0.302,0.569,0.443c1.743,1.376,3.416,2.863,5.011,4.457
			c10.632,10.631,16.486,24.766,16.486,39.799v12.767c0,0.025-0.001,0.051-0.001,0.076c0,0.026,0.001,0.051,0.001,0.076v41.228
			h-34.254V95.498c0-5.522-4.478-10-10-10c-5.523,0-10,4.478-10,10v140.817H183.288V95.498c0-5.522-4.477-10-10-10s-10,4.478-10,10
			v37.438h-34.253V78.787z M20,37.428c0-0.555,0.451-1.006,1.005-1.006h100.847c-8.338,12.436-12.817,27.056-12.817,42.365v2.844H20
			V37.428z M210.053,489.499l16.489-48.366h58.918l16.488,48.366H210.053z M492,420.127c0,0.555-0.451,1.006-1.005,1.006H21.005
			c-0.554,0-1.005-0.451-1.005-1.006V374.73h472V420.127z M492,354.73H20V101.631h89.035v41.305c0,5.523,4.477,10,10,10h44.253
			v93.38c0,5.522,4.477,10,10,10h165.425c5.522,0,10-4.478,10-10v-93.38h44.254c5.523,0,10-4.477,10-10v-41.305H492V354.73z
			 M492,81.631h-89.034v-2.844c0-15.309-4.48-29.929-12.818-42.365h100.848c0.553,0,1.004,0.451,1.004,1.006V81.631z"/>
	</g>
</g>
<g>
	<g>
		<path d="M299.482,112.284h-15.919c-5.522,0-10,4.478-10,10s4.478,10,10,10h15.919c5.522,0,10-4.478,10-10
			S305.004,112.284,299.482,112.284z"/>
	</g>
</g>
<g>
	<g>
		<path d="M392.966,268.455H119.035c-5.523,0-10,4.478-10,10v49.077c0,5.522,4.477,10,10,10h273.931c5.523,0,10-4.478,10-10v-49.077
			C402.966,272.933,398.489,268.455,392.966,268.455z M382.966,317.532H129.035v-29.077h253.931V317.532z"/>
	</g>
</g>
<g>
	<g>
		<path d="M473.871,202.717l-47.589-47.589c-2.859-2.859-7.161-3.714-10.898-2.168c-3.737,1.548-6.173,5.194-6.173,9.239v95.176
			c0,4.045,2.437,7.691,6.173,9.239c1.237,0.512,2.537,0.761,3.825,0.761c2.603,0,5.161-1.015,7.073-2.927l47.589-47.589
			C477.776,212.954,477.776,206.622,473.871,202.717z M429.212,233.234v-46.893l23.446,23.447L429.212,233.234z"/>
	</g>
</g>
<g>
	<g>
		<path d="M96.615,152.959c-3.737-1.546-8.039-0.691-10.898,2.168l-47.589,47.589c-3.905,3.906-3.905,10.238,0,14.143l47.589,47.588
			c1.914,1.913,4.471,2.929,7.074,2.929c1.287,0,2.587-0.249,3.824-0.761c3.736-1.548,6.173-5.194,6.173-9.239v-95.177
			C102.788,158.153,100.352,154.507,96.615,152.959z M82.789,233.233l-23.447-23.446l23.447-23.447V233.233z"/>
	</g>
</g>
<g>
</g>
<g>
</g>
<g>
</g>
<g>
</g>
<g>
</g>
<g>
</g>
<g>
</g>
<g>
</g>
<g>
</g>
<g>
</g>
<g>
</g>
<g>
</g>
<g>
</g>
<g>
</g>
<g>
</g>
</svg>
