<?xml version="1.0" encoding="iso-8859-1"?>
<!-- Generator: Adobe Illustrator 19.0.0, SVG Export Plug-In . SVG Version: 6.00 Build 0)  -->
<svg version="1.1" id="Capa_1" xmlns="http://www.w3.org/2000/svg" xmlns:xlink="http://www.w3.org/1999/xlink" x="0px" y="0px"
	 viewBox="0 0 512 512" style="enable-background:new 0 0 512 512;" xml:space="preserve">
<g>
	<g>
		<path d="M341.082,84.078c-5.542,0-10.039,4.498-10.039,10.039c0,5.542,4.498,10.039,10.039,10.039
			c5.542,0,10.039-4.498,10.039-10.039C351.122,88.576,346.624,84.078,341.082,84.078z"/>
	</g>
</g>
<g>
	<g>
		<path d="M319.408,29.716c-27,0-50.646,14.647-63.408,36.41c-12.762-21.763-36.408-36.41-63.408-36.41
			c-40.498,0-73.447,32.948-73.447,73.447c0,40.784,23.225,80.976,67.163,116.234c32.363,25.968,64.307,40.144,65.651,40.734
			c1.287,0.565,2.662,0.848,4.039,0.848c1.376,0,2.753-0.283,4.039-0.848c1.344-0.59,33.29-14.766,65.656-40.734
			c43.944-35.258,67.17-75.451,67.17-116.234C392.865,62.665,359.912,29.716,319.408,29.716z M256,239.84
			c-21.036-10.276-116.776-61.216-116.776-136.677c0-29.428,23.941-53.368,53.369-53.368c29.428,0,53.368,23.941,53.368,53.368
			c0,5.545,4.495,10.039,10.039,10.039c5.545,0,10.039-4.495,10.039-10.039c0-29.428,23.942-53.368,53.368-53.368
			c29.433,0,53.379,23.941,53.379,53.368C372.786,178.624,277.039,229.564,256,239.84z"/>
	</g>
</g>
<g>
	<g>
		<path d="M343.043,115.746c-5.211-1.899-10.972,0.788-12.869,5.996c-7.708,21.162-26.847,39.661-41.544,51.454
			c-4.325,3.471-5.018,9.788-1.548,14.113c1.984,2.472,4.896,3.757,7.837,3.757c2.204,0,4.423-0.723,6.276-2.21
			c24.284-19.484,40.381-39.752,47.845-60.242C350.937,123.405,348.252,117.644,343.043,115.746z"/>
	</g>
</g>
<g>
	<g>
		<path d="M216.825,358.033c-0.008-0.17-0.009-0.339-0.026-0.509c-0.235-2.508-1.395-4.737-3.133-6.363l-71.693-71.692
			l-41.13-64.694c-6.612-10.403-17.869-16.361-29.564-16.535V91.005c0-19.652-15.987-35.639-35.639-35.639
			c-9.533,0-18.485,3.711-25.206,10.448C3.704,72.555,0,81.502,0,91.008l0.07,202.12c0.001,2.267,0.769,4.467,2.18,6.242
			l92.751,116.724v56.15c0,5.545,4.495,10.039,10.039,10.039h101.768c5.545,0,10.039-4.495,10.039-10.039V358.47
			C216.847,358.323,216.831,358.178,216.825,358.033z M196.769,462.206H115.08v-49.614c0-2.268-0.768-4.469-2.18-6.245
			L20.148,289.62L20.078,91.005c0-4.148,1.621-8.058,4.567-11.01c2.928-2.934,6.833-4.551,10.994-4.551
			c8.581,0,15.561,6.98,15.561,15.561v113.116c-10.075,6.615-16.083,17.704-16.083,29.792c0,6.77,1.929,13.376,5.573,19.1
			L84.672,322.2c0.482,0.991,1.129,1.904,1.926,2.701l59.151,59.151c1.961,1.961,4.53,2.94,7.099,2.94
			c2.569,0,5.139-0.98,7.099-2.94c3.92-3.92,3.92-10.277,0-14.198l-58.163-58.162L57.63,242.234
			c-1.593-2.501-2.435-5.378-2.435-8.321c0-5.362,2.699-10.278,7.23-13.156c0.813-0.518,1.664-0.955,2.565-1.314
			c6.933-2.791,14.885-0.227,18.908,6.104l41.723,65.626c0.394,0.619,0.854,1.194,1.373,1.713l69.774,69.775V462.206z"/>
	</g>
</g>
<g>
	<g>
		<path d="M501.568,65.814c-6.722-6.737-15.674-10.448-25.207-10.448c-19.652,0-35.639,15.987-35.639,35.639v107.24
			c-11.704,0.172-22.956,6.13-29.565,16.528l-41.131,64.695l-71.853,71.852c-0.503,0.493-0.955,1.037-1.345,1.625
			c-0.061,0.091-0.112,0.188-0.17,0.281c-0.112,0.183-0.226,0.364-0.327,0.554c-0.066,0.125-0.122,0.253-0.183,0.38
			c-0.08,0.167-0.163,0.332-0.234,0.504c-0.057,0.139-0.102,0.279-0.154,0.42c-0.06,0.167-0.125,0.332-0.176,0.503
			c-0.045,0.151-0.079,0.304-0.117,0.457c-0.041,0.164-0.087,0.326-0.12,0.493c-0.036,0.185-0.058,0.37-0.085,0.556
			c-0.019,0.139-0.046,0.274-0.06,0.415c-0.033,0.332-0.05,0.665-0.05,0.998v113.74c0,5.545,4.495,10.039,10.039,10.039h101.768
			c5.545,0,10.039-4.495,10.039-10.039v-56.15l92.751-116.724c1.411-1.775,2.179-3.975,2.18-6.242L512,91.005
			C512,81.502,508.296,72.555,501.568,65.814z M491.852,289.62L399.1,406.346c-1.412,1.776-2.18,3.978-2.18,6.245v49.614h-81.689
			V362.66l69.774-69.774c0.519-0.519,0.98-1.093,1.373-1.713l41.724-65.627c4.023-6.329,11.974-8.895,18.943-6.088
			c0.865,0.345,1.716,0.782,2.539,1.306c4.522,2.872,7.22,7.788,7.22,13.15c0,2.943-0.841,5.82-2.438,8.328l-44.149,69.449
			l-58.163,58.162c-3.92,3.92-3.92,10.277,0,14.198c1.961,1.961,4.53,2.94,7.099,2.94s5.139-0.98,7.099-2.94l59.151-59.151
			c0.772-0.773,1.401-1.659,1.874-2.62l44.028-69.26c3.648-5.73,5.577-12.336,5.577-19.107c0-12.091-6.01-23.185-16.083-29.793
			V91.005c0-8.581,6.98-15.561,15.561-15.561c4.161,0,8.066,1.616,10.994,4.552c2.945,2.951,4.567,6.861,4.567,11.006
			L491.852,289.62z"/>
	</g>
</g>
<g>
</g>
<g>
</g>
<g>
</g>
<g>
</g>
<g>
</g>
<g>
</g>
<g>
</g>
<g>
</g>
<g>
</g>
<g>
</g>
<g>
</g>
<g>
</g>
<g>
</g>
<g>
</g>
<g>
</g>
</svg>
