<?xml version="1.0" encoding="iso-8859-1"?>
<!-- Generator: Adobe Illustrator 19.0.0, SVG Export Plug-In . SVG Version: 6.00 Build 0)  -->
<svg version="1.1" id="Capa_1" xmlns="http://www.w3.org/2000/svg" xmlns:xlink="http://www.w3.org/1999/xlink" x="0px" y="0px"
	 viewBox="0 0 512 512" style="enable-background:new 0 0 512 512;" xml:space="preserve">
<g>
	<g>
		<path d="M512,138.34C512,62.06,452.061,0.003,378.385,0.003c-33.685,0-65.194,12.667-89.799,35.888
			c-24.605-23.222-56.115-35.888-89.799-35.888c-24.282,0-48.061,6.813-68.765,19.703c-4.688,2.919-6.123,9.085-3.204,13.774
			c2.918,4.688,9.085,6.124,13.774,3.204c17.53-10.913,37.653-16.681,58.195-16.681c31.463,0,60.729,13.099,82.408,36.884
			c1.895,2.079,4.578,3.264,7.391,3.264c2.813,0,5.496-1.185,7.391-3.264c21.679-23.785,50.945-36.884,82.408-36.884
			C441.033,20.003,492,73.088,492,138.34c0,35.705-20.957,77.944-62.286,125.545c-35.713,41.132-79.139,77.394-109.281,100.571
			c-1.226,0.943-2.461,1.873-3.693,2.811l-21.577-81.843l38.494-38.494c23.659-23.659,35.16-57.585,30.767-90.755
			c-0.594-4.48-4.12-8.007-8.601-8.601c-33.171-4.391-67.096,7.108-90.755,30.767l-38.493,38.494L65.166,174.281
			c-3.44-0.908-7.104,0.083-9.621,2.598l-28.165,28.165c-2.308,2.308-3.344,5.596-2.777,8.81c0.567,3.214,2.667,5.948,5.625,7.326
			l130.991,61.007l-70.347,70.347l-47.369,2.508c-2.466,0.131-4.796,1.169-6.542,2.915L2.934,391.986
			c-2.452,2.452-3.458,5.998-2.661,9.372c0.797,3.374,3.286,6.094,6.576,7.188l72.494,24.108l24.113,72.499
			c1.094,3.289,3.814,5.777,7.188,6.575c0.763,0.181,1.535,0.269,2.301,0.269c2.621,0,5.174-1.032,7.071-2.929l34.03-34.03
			c1.746-1.747,2.785-4.077,2.915-6.544l2.503-47.372l70.346-70.347l61.007,130.991c1.378,2.959,4.112,5.059,7.326,5.626
			c3.213,0.568,6.502-0.469,8.81-2.776l28.165-28.165c2.517-2.516,3.506-6.179,2.599-9.62l-15.467-58.668
			c3.458-2.585,6.927-5.201,10.374-7.852C399.615,328.797,512,228.862,512,138.34z M302.915,460.37L241.908,329.38
			c-1.378-2.959-4.112-5.059-7.326-5.626c-3.213-0.567-6.502,0.469-8.81,2.776l-81.846,81.847c-2.419,1.71-4.052,4.472-4.22,7.644
			l-2.515,47.589l-19.868,19.868L96.74,421.59c-0.995-2.991-3.342-5.338-6.333-6.333l-61.881-20.579l19.867-19.867l47.585-2.52
			c3.17-0.168,5.931-1.8,7.641-4.219l81.848-81.847c2.308-2.308,3.344-5.597,2.776-8.81c-0.567-3.214-2.667-5.949-5.625-7.327
			L51.626,209.082l13.998-13.998l161.408,42.553c3.439,0.906,7.104-0.083,9.621-2.598l42.557-42.557
			c17.407-17.408,41.622-26.751,66.067-25.763c0.978,24.435-8.356,48.662-25.763,66.067l-42.557,42.557
			c-2.516,2.517-3.505,6.18-2.598,9.62l42.553,161.408L302.915,460.37z"/>
	</g>
</g>
<g>
	<g>
		<path d="M170.351,83.269c-11.043-21.357-33.408-35.268-57.731-35.268c-24.323,0-46.688,13.912-57.73,35.268
			C24.481,84.113,0,109.238,0,140.001c0,5.523,4.477,10,10,10h205.241c5.523,0,10-4.477,10-10
			C225.241,109.238,200.761,84.113,170.351,83.269z M21.371,130.002c4.332-15.423,18.425-26.754,35.095-26.754
			c1.204,0,2.477,0.067,3.784,0.199c4.508,0.45,8.742-2.168,10.35-6.395c6.609-17.376,23.496-29.05,42.021-29.05
			c18.526,0,35.413,11.674,42.021,29.05c1.608,4.227,5.851,6.842,10.35,6.395c1.306-0.132,2.579-0.199,3.781-0.199
			c16.671,0,30.766,11.332,35.098,26.754H21.371z"/>
	</g>
</g>
<g>
	<g>
		<path d="M476.507,443.134c-9.516-16.063-26.885-26.136-45.86-26.136c-19.489,0-37.048,10.519-46.373,27.001
			c-3.046-0.732-6.18-1.108-9.332-1.108c-22.007,0-39.911,17.904-39.911,39.911c0,9.354,3.308,18.452,9.313,25.619
			c1.9,2.268,4.707,3.577,7.665,3.577h143.012c2.958,0,5.765-1.31,7.665-3.577c6.005-7.167,9.313-16.265,9.313-25.619
			C512,462.287,496.443,445.338,476.507,443.134z M489.76,491.997H357.273c-1.475-2.811-2.24-5.928-2.24-9.196
			c0-10.979,8.932-19.911,19.911-19.911c3.398,0,6.755,0.874,9.707,2.527c2.603,1.46,5.723,1.678,8.506,0.599
			c2.783-1.08,4.938-3.347,5.875-6.181c4.52-13.66,17.225-22.838,31.616-22.838c13.226,0,25.204,7.835,30.516,19.962
			c1.679,3.832,5.563,6.201,9.743,5.971c0.392-0.023,0.787-0.04,1.185-0.04c10.979,0,19.911,8.932,19.911,19.911
			C492,486.07,491.234,489.187,489.76,491.997z"/>
	</g>
</g>
<g>
	<g>
		<path d="M211.573,300.429c-1.86-1.86-4.44-2.93-7.07-2.93c-2.63,0-5.21,1.069-7.07,2.93c-1.86,1.86-2.93,4.44-2.93,7.07
			c0,2.63,1.07,5.21,2.93,7.069c1.86,1.86,4.44,2.931,7.07,2.931c2.63,0,5.21-1.07,7.07-2.931c1.86-1.859,2.93-4.439,2.93-7.069
			C214.503,304.869,213.433,302.289,211.573,300.429z"/>
	</g>
</g>
<g>
	<g>
		<path d="M188.074,323.928c-3.905-3.904-10.237-3.904-14.142,0l-52.631,52.631c-3.905,3.905-3.905,10.237,0,14.143
			c1.953,1.952,4.512,2.929,7.071,2.929c2.559,0,5.119-0.977,7.071-2.929l52.631-52.631
			C191.979,334.166,191.979,327.834,188.074,323.928z"/>
	</g>
</g>
<g>
	<g>
		<path d="M361.329,43.665c-6.341-0.078-10.197,4.959-10.27,9.851c-0.073,4.892,3.637,10.026,9.971,10.151
			c0.067,0.001,0.133,0.002,0.199,0.002c6.336,0,10.147-5.06,10.171-9.952C371.424,48.825,367.664,43.728,361.329,43.665z"/>
	</g>
</g>
<g>
	<g>
		<path d="M407.054,55.183c-4.868-2.609-10.929-0.779-13.539,4.088c-2.609,4.868-0.779,10.929,4.088,13.539
			c26.724,14.327,43.326,42.676,43.326,73.983c0,5.523,4.477,10,10,10s10-4.477,10-10
			C460.929,108.102,440.285,72.999,407.054,55.183z"/>
	</g>
</g>
<g>
</g>
<g>
</g>
<g>
</g>
<g>
</g>
<g>
</g>
<g>
</g>
<g>
</g>
<g>
</g>
<g>
</g>
<g>
</g>
<g>
</g>
<g>
</g>
<g>
</g>
<g>
</g>
<g>
</g>
</svg>
