<svg id="Layer_1" data-name="Layer 1" xmlns="http://www.w3.org/2000/svg" width="40" height="40" viewBox="0 0 40 40"><title>data-support</title><path d="M31.5833,31.1955V8.8045c0-3.0229-5.968-4.654-11.5833-4.654S8.4167,5.7816,8.4167,8.8045V31.1955c0,3.0229,5.968,4.654,11.5833,4.654S31.5833,34.2184,31.5833,31.1955ZM30.1354,16.251c0,1.3393-3.8559,3.206-10.1354,3.206S9.8646,17.59,9.8646,16.251V11.1471C11.9749,12.66,16.0734,13.4582,20,13.4582s8.0251-.7978,10.1354-2.3111ZM9.8646,23.5422V18.5938c2.11,1.5133,6.2088,2.3111,10.1354,2.3111s8.0251-.7978,10.1354-2.3111v5.1039c0,1.3393-3.8559,3.206-10.1354,3.206S9.8646,25.0365,9.8646,23.6977ZM20,5.5984c6.2795,0,10.1354,1.8672,10.1354,3.206S26.2795,12.0106,20,12.0106,9.8646,10.1433,9.8646,8.8045,13.7205,5.5984,20,5.5984Zm0,28.8032c-6.2795,0-10.1354-1.8672-10.1354-3.206V26.04c2.11,1.5133,6.2088,2.3111,10.1354,2.3111s8.0251-.7978,10.1354-2.3111v5.1553C30.1354,32.5344,26.2795,34.4016,20,34.4016Z" fill="#0088cc"/></svg>