<svg id="Layer_1" data-name="Layer 1" xmlns="http://www.w3.org/2000/svg" width="40" height="40" viewBox="0 0 40 40"><title>migration</title><path d="M27.5135,28.8615a8.5542,8.5542,0,0,0,.8121-1.9574h2.0369a.5757.5757,0,0,0,.5757-.5757V22.8741a.5757.5757,0,0,0-.5757-.5757H28.3256a8.5542,8.5542,0,0,0-.8121-1.9574l1.4427-1.4393a.576.576,0,0,0,0-.8141L26.515,15.6468a.5755.5755,0,0,0-.8141,0l-1.441,1.441a8.5551,8.5551,0,0,0-1.9574-.8124V14.2384a.5757.5757,0,0,0-.5757-.5757H18.2726a.5757.5757,0,0,0-.5757.5757v2.0369a8.5551,8.5551,0,0,0-1.9574.8124L14.3,15.6451a.5755.5755,0,0,0-.8141,0L11.0452,18.086a.5755.5755,0,0,0,0,.8141l1.441,1.441a8.5551,8.5551,0,0,0-.8124,1.9574H9.6368a.5757.5757,0,0,0-.5757.5757v3.4543a.5757.5757,0,0,0,.5757.5757h2.0369a8.5551,8.5551,0,0,0,.8124,1.9574l-1.4429,1.4393a.576.576,0,0,0,0,.8141l2.4412,2.4412a.576.576,0,0,0,.8141,0l1.441-1.441a8.5542,8.5542,0,0,0,1.9574.8121v2.0369a.5757.5757,0,0,0,.5757.5757h3.4543a.5757.5757,0,0,0,.5757-.5757V32.9272a8.5542,8.5542,0,0,0,1.9574-.8121l1.4393,1.4427a.576.576,0,0,0,.8141,0l2.4412-2.4412a.5757.5757,0,0,0,0-.8138ZM26.108,32.3388l-1.3547-1.3547a.5755.5755,0,0,0-.7182-.077,7.4531,7.4531,0,0,1-2.4313,1.0058.5757.5757,0,0,0-.4526.5642v1.9113H18.8483V32.4772a.5756.5756,0,0,0-.4526-.5619,7.4476,7.4476,0,0,1-2.431-1.01.5759.5759,0,0,0-.7185.077l-1.3547,1.3547L12.2644,30.71l1.3547-1.3547a.5756.5756,0,0,0,.0773-.7185,7.4432,7.4432,0,0,1-1.0081-2.4313.5761.5761,0,0,0-.5642-.4526H10.2125V23.45h1.9116a.5754.5754,0,0,0,.5617-.4523,7.4471,7.4471,0,0,1,1.0106-2.4313.5756.5756,0,0,0-.0773-.7185L12.2644,18.493l1.6271-1.6271,1.3547,1.3547a.5756.5756,0,0,0,.7185.0773,7.4478,7.4478,0,0,1,2.431-1.0081.5759.5759,0,0,0,.4526-.5642V14.8141h2.3029v1.9116a.5756.5756,0,0,0,.4526.5617,7.4583,7.4583,0,0,1,2.4313,1.0106.5752.5752,0,0,0,.7182-.0773l1.3547-1.3547L27.735,18.493,26.38,19.8477a.5759.5759,0,0,0-.077.7185,7.4528,7.4528,0,0,1,1.0081,2.4313.5754.5754,0,0,0,.5642.4523h1.9113v2.3029H27.8756a.5759.5759,0,0,0-.5619.4526,7.4516,7.4516,0,0,1-1.01,2.4313.576.576,0,0,0,.077.7185L27.735,30.71Z" fill="#0088cc"/><path d="M25.0788,20.8276a3.0144,3.0144,0,0,0-.2305-.2994,6.301,6.301,0,0,0-4.6378-2.2506,1.8576,1.8576,0,0,0-.375-.0034h-.0512A6.3324,6.3324,0,0,0,15.1517,20.52a2.7343,2.7343,0,0,0-.2114.2741l-.0149.0214-.0056.0073a6.3027,6.3027,0,0,0,0,7.5419l.0171.0247a6.2562,6.2562,0,0,0,4.8486,2.5238A1.83,1.83,0,0,0,20,30.9341a1.3911,1.3911,0,0,0,.1642-.0056h.0512A6.2854,6.2854,0,0,0,25.06,28.4069l.0166-.0242V28.38a6.308,6.308,0,0,0,.0025-7.552Zm-.6536,6.4577a7.2232,7.2232,0,0,0-1.1812-.4824,11.3709,11.3709,0,0,0,.1934-1.6259h1.708A5.092,5.092,0,0,1,24.4252,27.2853ZM14.854,25.177h1.7083a11.3709,11.3709,0,0,0,.1934,1.6259,7.1913,7.1913,0,0,0-1.1815.4824A5.092,5.092,0,0,1,14.854,25.177Zm.7208-3.26a7.1967,7.1967,0,0,0,1.1809.4827,11.2825,11.2825,0,0,0-.1934,1.6257H14.8534A5.09,5.09,0,0,1,15.5747,21.9172Zm1.175-1.346c.06-.0478.1214-.0945.1836-.14q.121-.0881.2454-.17c.0644-.0413.129-.0815.1951-.12s.1417-.0781.2131-.115a7.008,7.008,0,0,0-.5411,1.2526,6.1933,6.1933,0,0,1-.7525-.2879c.0208-.0211.04-.0441.061-.0649.0543-.0537.111-.1049.1681-.156C16.5966,20.7025,16.6722,20.6365,16.75,20.5713Zm6.0709-.3073q.1269.0826.2493.1726c.0576.0444.12.0891.1785.1358.08.0647.1571.1324.2336.2021.0548.0489.11.0978.1619.15.0214.0211.0408.0441.0621.0661a6.3243,6.3243,0,0,1-.7525.2879,6.9559,6.9559,0,0,0-.5423-1.2549c.0731.0385.1467.077.2181.12S22.758,20.2258,22.8206,20.264Zm-4.947,2.4139a11.3062,11.3062,0,0,0,1.55.18v1.168h-1.71A10.44,10.44,0,0,1,17.8737,22.6779Zm.2879-1.1174a3.804,3.804,0,0,1,1.2625-1.943v2.0839A10.2322,10.2322,0,0,1,18.1615,21.56ZM19.424,25.177v1.1739a11.3492,11.3492,0,0,0-1.55.1729,10.4216,10.4216,0,0,1-.1594-1.3468Zm0,2.3237v2.0853a3.8046,3.8046,0,0,1-1.2625-1.9442A10.1788,10.1788,0,0,1,19.424,27.5006Zm2.7018-.9752a11.3936,11.3936,0,0,0-1.55-.1729V25.177h1.71A10.4478,10.4478,0,0,1,22.1257,26.5255Zm-.2879,1.1163a3.802,3.802,0,0,1-1.2625,1.9436V27.5012A10.2317,10.2317,0,0,1,21.8379,27.6418Zm-1.2625-3.6162v-1.168a11.35,11.35,0,0,0,1.55-.18,10.49,10.49,0,0,1,.16,1.3476Zm0-2.3242V19.6169a3.8062,3.8062,0,0,1,1.263,1.9442A10.24,10.24,0,0,1,20.5754,21.7013Zm-3.5313,6.2179a7.0356,7.0356,0,0,0,.55,1.2717,5.16,5.16,0,0,1-1.2968-.9718,6.1152,6.1152,0,0,1,.7469-.3028Zm5.9115,0a5.9871,5.9871,0,0,1,.7483.3,5.1237,5.1237,0,0,1-1.2948.9679,7.0315,7.0315,0,0,0,.5465-1.2706Zm.4818-3.8937A11.3623,11.3623,0,0,0,23.244,22.4a7.157,7.157,0,0,0,1.1824-.4838,5.0587,5.0587,0,0,1,.72,2.1095Z" fill="#0088cc"/><path d="M30.2785,13.679a8.1577,8.1577,0,0,0,.0841-1.1677,8.06,8.06,0,0,0-15.4867-3.122,5.1865,5.1865,0,0,0-7.8452,5.93A6.912,6.912,0,0,0,9.6368,28.6313h.5757a.5757.5757,0,0,0,0-1.1514H9.6368A5.76,5.76,0,0,1,7.9575,16.2109a.5757.5757,0,0,0,.3489-.802A3.9707,3.9707,0,0,1,7.91,13.6627a4.0337,4.0337,0,0,1,6.8327-2.9005.5757.5757,0,0,0,.95-.25,6.9086,6.9086,0,0,1,13.3331,3.5993.5756.5756,0,0,0,.6066.7064c.0531-.0037.1-.0037.1549-.0037a6.3329,6.3329,0,1,1,0,12.6657.5757.5757,0,1,0,0,1.1514,7.4842,7.4842,0,0,0,.4917-14.9523Z" fill="#0088cc"/></svg>