<svg id="Layer_1" data-name="Layer 1" xmlns="http://www.w3.org/2000/svg" width="55" height="55" viewBox="0 0 55 55"><title>spring-boot</title><path d="M27.6414,4.5574c3.0628,0,6.1263.0392,9.1883-.012a6.0251,6.0251,0,0,1,5.68,3.2024c3.202,5.5116,6.3693,11.0434,9.5668,16.5576a6.0463,6.0463,0,0,1-.0617,6.5186C48.8521,36.26,45.7229,41.7156,42.58,47.1634a6.2363,6.2363,0,0,1-5.8892,3.3036q-9.1878-.0733-18.3766.0018a6.2473,6.2473,0,0,1-5.8882-3.3123Q7.6377,38.8807,2.877,30.5888a5.912,5.912,0,0,1,.0625-6.2952c3.1525-5.4422,6.2757-10.9014,9.4243-16.3459a6.3172,6.3172,0,0,1,6.09-3.4124C21.5135,4.6315,24.5786,4.5573,27.6414,4.5574Zm13.8821,22.04a13.2476,13.2476,0,0,0-4.8422-10.54c-.7579-.6311-2.6274-1.0036-3.23-.5313-1.47,1.1526-.3846,2.3661.7106,3.3338a10.7257,10.7257,0,0,1,1.234,1.2893,10.2365,10.2365,0,0,1,.5874,12.1375A10.3543,10.3543,0,0,1,24.3107,36.43a10.25,10.25,0,0,1-7.1652-9.8225c-.02-3.3977,1.51-5.9824,3.924-8.2622.5333-.5037.3652-1.75.52-2.6542a18.5219,18.5219,0,0,0-2.9264-.1273c-.4131.0415-.7869.61-1.1527.9655a14.051,14.051,0,0,0-2.488,16.9057,14.2324,14.2324,0,0,0,15.9148,6.8463A14.07,14.07,0,0,0,41.5235,26.597ZM29.6066,20.4453a32.4335,32.4335,0,0,0-.0915-5.5941,3.6973,3.6973,0,0,0-2.0025-2.5905c-1.56-.3769-2.11.9853-2.1094,2.4379.0014,3.74-.1313,7.4883.091,11.2152a3.4282,3.4282,0,0,0,1.93,2.5916c1.6806.2817,2.1922-1.174,2.1845-2.7048C29.6,24.0155,29.6069,22.23,29.6066,20.4453Z" fill="#0088cc"/></svg>