<svg id="Layer_1" data-name="Layer 1" xmlns="http://www.w3.org/2000/svg" width="55" height="55" viewBox="0 0 55 55"><title>spring-framework</title><path d="M53.1745,28.0646a5.8829,5.8829,0,0,1-.25,1.7784c-1.7665,4.4457-3.3261,9.0062-5.506,13.245-1.7826,3.4662-5.2088,5.2494-8.9576,6.2812a12.5945,12.5945,0,0,0-2.7908,1.12,15.7,15.7,0,0,1-16.3072.0158,12.5862,12.5862,0,0,0-2.7877-1.131A15.28,15.28,0,0,1,5.296,38.34a14.0763,14.0763,0,0,0-1.2125-2.9555,14.8881,14.8881,0,0,1-.0206-15.7328,13.8322,13.8322,0,0,0,1.2258-2.9507A15.3878,15.3878,0,0,1,16.5315,5.6138,14.6154,14.6154,0,0,0,19.499,4.42a15.6562,15.6562,0,0,1,16.1386.0784A11.8357,11.8357,0,0,0,38.2492,5.57C44.342,7.2491,48.26,11.0471,49.8309,17.2223a9.0156,9.0156,0,0,0,.9929,2.238A16.1973,16.1973,0,0,1,53.1745,28.0646ZM33.8972,26.8522C31.3254,31.3149,27.06,33.01,22.3207,34.1343a63.9932,63.9932,0,0,0,9.3975.2475,5.8313,5.8313,0,0,0,4.9578-3.0987c2.3122-4.2341,1.2865-8.494.1784-13.1354a11.75,11.75,0,0,1-10.4948,4.6644,15.5064,15.5064,0,0,0-3.9575.3319A5.9367,5.9367,0,0,0,17.7074,29.77c.2727,1.974,1.2083,2.7227,3.1855,2.558C25.8156,31.9176,30.3835,30.6732,33.8972,26.8522ZM5.01,20.552,4.4015,20.52C1.669,24.1725,1.8364,31.5347,5.01,34.9715ZM26.0476,6.2577C19.5012,4.5882,15.5549,6.26,13.527,11.4221Zm2.829-.0189,12.47,5.1049C37.6291,5.5251,36.2227,4.7118,28.8766,6.2387ZM49.9482,34.4326l.6082.0465c2.8954-3.4269,2.5071-11.9546-.6082-14.1693ZM25.5843,48.5351,13.308,43.5118C17.256,49.4963,18.6852,50.2082,25.5843,48.5351Zm15.6949-4.8714L28.9345,48.7489C36.1763,50.3035,37.6351,49.4672,41.2792,43.6637ZM20.0763,5.2587H34.985C31.6246,2.1295,23.1977,2.1869,20.0763,5.2587ZM34.982,49.7434H20.5069C23.418,52.8557,31.7072,52.8208,34.982,49.7434ZM38.7085,6.5048a52.7066,52.7066,0,0,0,4.3952,5.549,57.4775,57.4775,0,0,0,5.7786,4.4492C47.9836,11.698,43.1589,7.0009,38.7085,6.5048Zm-.3558,41.7307c4.9974-.3981,9.7958-5.1342,10.5913-10.4146ZM16.9563,6.4738c-4.7117.2563-10.1931,5.46-10.5324,10.3334Zm27.008,34.5141c5.7166-3.2535,6.75-5.2152,5.0691-11.9535ZM16.3364,48.5458A55.0062,55.0062,0,0,0,11.8335,42.87,55.1033,55.1033,0,0,0,6.07,38.4793C7.3259,43.561,11.5852,47.7105,16.3364,48.5458ZM43.9553,13.9535l5.0776,12.0683C50.6913,19.1306,49.7987,17.505,43.9553,13.9535ZM6.1648,29.4184c-1.7116,6.6269-.9586,8.187,5.0721,12.0971ZM11.2034,13.554c-5.4811,2.8925-7.2343,7.117-5.1411,12.2731ZM32.0886,46.5821h-9.212C26.5649,49.0647,28.6208,49.0386,32.0886,46.5821ZM32.2426,8.42c-3.598-2.41-6.8308-2.3562-9.2546,0ZM8.0888,32.1636V22.9246C5.7325,26.147,5.7133,28.5226,8.0888,32.1636Zm36.2343-15.37c-.789-3.97-1.92-4.9932-5.3686-5.7974ZM16.0845,10.9226c-3.2063.7051-5.2882,2.7469-5.3588,5.9663Zm30.8291,11.82v9.4124C49.2292,29.0878,49.1418,26.02,46.9136,22.7429ZM15.9019,44.113l-5.3444-5.9241A6.6894,6.6894,0,0,0,15.9019,44.113Zm22.9627-.0882c3.4949-.7789,4.6746-1.8687,5.45-5.7444ZM19.5209,34.0737c-.79-.6615-1.3045-1.4112-1.7124-1.357-.5638.0749-1.0472.7553-1.5651,1.1765.4653.4793.8665,1.2143,1.4172,1.3522C18.0588,35.345,18.6556,34.6518,19.5209,34.0737Z" fill="#0088cc"/></svg>