<svg id="Layer_1" data-name="Layer 1" xmlns="http://www.w3.org/2000/svg" width="55" height="55" viewBox="0 0 55 55"><title>spring-data</title><path d="M3.0279,21.3307c3.251-.46,6.35-1.0414,9.475-1.3151a149.3368,149.3368,0,0,1,37.5991,1.0193c1.4812.2453,1.9437.7925,1.8946,2.2586-.1034,3.0863-.0973,6.1806-.0022,9.2675.0441,1.4312-.3122,2.1632-1.8657,2.2641-8.2769.5377-16.548,1.5477-24.8248,1.5855-6.8712.0314-13.7459-1.0761-20.6228-1.6323-1.32-.1068-1.7056-.6816-1.68-1.967C3.0763,29.0744,3.0279,25.335,3.0279,21.3307Z" fill="#0088cc"/><path d="M3.1179,19.9422V5.112a143.1834,143.1834,0,0,1,48.7382-.0084V19.94A147.3588,147.3588,0,0,0,3.1179,19.9422Z" fill="#0088cc"/><path d="M51.9035,35.924V49.8619a142.3126,142.3126,0,0,1-48.8042.0232V35.9543A148.0326,148.0326,0,0,0,51.9035,35.924Z" fill="#0088cc"/></svg>