<svg id="Layer_1" data-name="Layer 1" xmlns="http://www.w3.org/2000/svg" width="55" height="55" viewBox="0 0 55 55"><title>spring-integration</title><path d="M16.9731,30.2276V21.7581l2.4743,2.1987q6.3286-6.34,12.5818-12.6026c2.5955-2.5979,3.6021-2.5906,6.236.044Q45.06,18.1945,51.8484,24.9967c1.8833,1.891,1.88,3.1124-.01,5.01q-7.1,7.1262-14.2218,14.23c-1.8883,1.8814-3.1055,1.8467-5.0156-.0154-1.1123-1.0844-2.2665-2.1259-3.5147-3.2921l4.3161-3.83,1.5573,1.4022L45.9228,27.4681,35.0838,16.6559,23.661,28.1942l1.8453,2.0334Z" fill="#0088cc"/><path d="M21.7517,18.035,20.03,16.4834,9.0816,27.4006l10.78,10.7371L31.2738,26.6929l-1.7791-1.8936h8.5064v8.4559l-2.3716-2.18c-.4954.4643-.9714.8867-1.421,1.3355q-5.8478,5.8378-11.69,11.6817c-1.94,1.9328-3.314,1.956-5.2133.063Q10.181,37.0548,3.0852,29.9244c-1.8-1.8083-1.7917-3.057.0251-4.8817Q10.208,17.9144,17.331,10.8114c1.9572-1.9508,3.1583-1.9146,5.15.0389,1.1046,1.0834,2.2479,2.1274,3.4439,3.2552Z" fill="#0088cc"/></svg>