<svg id="Layer_1" data-name="Layer 1" xmlns="http://www.w3.org/2000/svg" width="55" height="55" viewBox="0 0 55 55"><title>spring-security1</title><path d="M46.6484,5.5748V22.4826H35.4553v2.39h11.06A23.5357,23.5357,0,0,1,40.1515,44.7a42.4721,42.4721,0,0,1-11.5756,8.9724,2.3781,2.3781,0,0,1-1.9189.1357c-6.0857-3.3727-11.44-7.5948-15.1617-13.6076-2.8671-4.6325-3.6372-9.7-3.0731-15.214H19.53c.0413-.8478.0745-1.5294.1163-2.3857H8.2845c0-1.3707,0-2.58,0-3.79,0-3.8617.0514-7.7245-.0286-11.5845-.0268-1.2938.3791-1.768,1.6654-2.0541C15.4687,3.9389,20.9834,2.5578,26.5126,1.241a3.1181,3.1181,0,0,1,1.3356-.1672C34.0725,2.54,40.2877,4.0447,46.6484,5.5748ZM34.6169,23.7861a7.1171,7.1171,0,1,0-7.17,7.0582A7.1485,7.1485,0,0,0,34.6169,23.7861Z" fill="#0088cc"/><path d="M27.9625,28.0128a.176.176,0,0,0,.0469-.1142l.1608-3.7333a2.0055,2.0055,0,1,0-1.5014-.0646l-.0533,1.2269a.1816.1816,0,0,0,.0524.1353L27,25.8l-.36.3092a.1809.1809,0,0,0-.0118.2641l.3329.3389-.3606.3077a.1848.1848,0,0,0-.0635.13.1736.1736,0,0,0,.0523.1354l.332.3381-.36.3086a.18.18,0,0,0-.0639.1359.1822.1822,0,0,0,.0477.1238l.0141.0141.55.4806a.182.182,0,0,0,.2539-.0142Zm-.448-6.0806a.57.57,0,1,1,.5941-.545A.57.57,0,0,1,27.5145,21.9322Zm-.0157,5.6646a.1371.1371,0,0,1-.1305-.1423l.1373-3.1769a1.9186,1.9186,0,0,0,.2729-.018l-.1378,3.2071A.1364.1364,0,0,1,27.4988,27.5969Z" fill="#0088cc"/></svg>