<svg id="Layer_1" data-name="Layer 1" xmlns="http://www.w3.org/2000/svg" width="40" height="40" viewBox="0 0 40 40"><title>spring-security</title><path d="M20,4.0615a.7407.7407,0,1,0,.7407.7407A.7392.7392,0,0,0,20,4.0615Z" fill="#0088cc"/><path d="M32.1612,7.9528a6.6792,6.6792,0,0,1-3.448-3.4481.7415.7415,0,0,0-.6792-.444h-5.07a.7415.7415,0,0,0,0,1.483h4.6007a8.1514,8.1514,0,0,0,3.5571,3.5571v9.2846A16.8909,16.8909,0,0,1,20,34.4092,16.891,16.891,0,0,1,8.8777,18.3855V9.1008a8.1517,8.1517,0,0,0,3.5571-3.5571H22.9674a.7415.7415,0,1,0,0-1.483H11.966a.7416.7416,0,0,0-.6792.444A6.6792,6.6792,0,0,1,7.8388,7.9528a.7417.7417,0,0,0-.444.6792v9.7535A18.4584,18.4584,0,0,0,19.7526,35.8968a.7413.7413,0,0,0,.4947,0A18.4585,18.4585,0,0,0,32.6052,18.3855V8.632A.7416.7416,0,0,0,32.1612,7.9528Z" fill="#0088cc"/><path d="M20,11.92a6.6734,6.6734,0,1,0,6.6734,6.6734A6.6809,6.6809,0,0,0,20,11.92Zm0,11.8637a5.19,5.19,0,1,1,5.19-5.19A5.1963,5.1963,0,0,1,20,23.7842Z" fill="#0088cc"/><path d="M23.49,16.5865a.7417.7417,0,0,0-1.0487,0L19.2585,19.77,18.3,18.811A.7415.7415,0,0,0,17.2512,19.86l1.483,1.483a.7416.7416,0,0,0,1.0487,0L23.49,17.6351A.7416.7416,0,0,0,23.49,16.5865Z" fill="#0088cc"/></svg>