<svg id="Layer_1" data-name="Layer 1" xmlns="http://www.w3.org/2000/svg" width="55" height="55" viewBox="0 0 55 55"><title>spring-cloud</title><path d="M46.3693,23.9352a2.4879,2.4879,0,0,1-1.5132-1.9981c-.65-2.8941-1.4444-5.756-2.2581-8.9261l-1.9381,3A16.74,16.74,0,0,0,26.71,11.099a16.4262,16.4262,0,0,0-12.3725,7.6621l5.1632,1.866c-2.4808-.094-4.9983-.6043-7.3579-.1977A11.6324,11.6324,0,0,0,2.7,33.1073,11.8559,11.8559,0,0,0,14.4364,43.9738c9.2006.067,18.4021.05,27.6029.0065a10.5434,10.5434,0,0,0,4.33-20.0451ZM17.364,41.3509a1.8228,1.8228,0,1,1,1.8228-1.8228A1.8228,1.8228,0,0,1,17.364,41.3509Zm27.1848-11.29c-.8746,5.7875-4.8114,8.9424-11.4955,9.1765a79.8241,79.8241,0,0,1-10.3151-.3083c1.4494-.4708,2.8893-.9742,4.35-1.4066a20.1211,20.1211,0,0,0,12.1347-9.7982c.2792-.4916.5007-1.0169.7309-1.5345a6.1315,6.1315,0,0,0,.1592-.9295c-4.5439,7.7093-11.71,10.1932-19.4822,11.6542-1.6416.3085-2.4167-.7157-3.0863-1.86-1.6132-2.7571-.9878-6.7261,1.4232-9.3072A10.7748,10.7748,0,0,1,26.26,22.5047a48.9183,48.9183,0,0,0,6.0855-.6591,14.7728,14.7728,0,0,0,9.27-6.1758c.1839-.2645.3975-.5083.7374-.94C44.0771,19.8526,45.3408,24.8194,44.5488,30.0607Z" fill="#0088cc"/></svg>