<svg id="Layer_1" data-name="Layer 1" xmlns="http://www.w3.org/2000/svg" width="40" height="40" viewBox="0 0 40 40"><title>web-services</title><path d="M17.7842,31.6505V23.4549a.5113.5113,0,0,0-.5113-.5113H13.864a.5113.5113,0,0,0,0,1.0227h2.8976v7.6842a2.2158,2.2158,0,1,0,1.0227,0Zm-.5113,3.3487a1.1931,1.1931,0,1,1,1.1931-1.1931A1.1945,1.1945,0,0,1,17.2729,34.9992Z" fill="#0088cc"/><path d="M23.2385,31.6505V23.4549a.5113.5113,0,0,0-.5113-.5113H19.3183a.5113.5113,0,0,0,0,1.0227h2.8975v7.6842a2.2158,2.2158,0,1,0,1.0227,0Zm-.5113,3.3487A1.1931,1.1931,0,1,1,23.92,33.8061,1.1945,1.1945,0,0,1,22.7271,34.9992Z" fill="#0088cc"/><path d="M31.9312,28.1814a2.2193,2.2193,0,0,0-2.1556,1.7045H28.6927V23.4549a.5113.5113,0,0,0-.5113-.5113H24.7725a.5113.5113,0,1,0,0,1.0227H27.67v6.4309a.5113.5113,0,0,0,.5113.5113h1.5942a2.2156,2.2156,0,1,0,2.1556-2.7271Zm0,3.4089a1.1931,1.1931,0,1,1,1.1931-1.1931A1.1945,1.1945,0,0,1,31.9312,31.59Z" fill="#0088cc"/><path d="M34.8043,14.9928a5.55,5.55,0,0,0-2.6667-1.813A9.68,9.68,0,0,0,14.2158,8.6a4.42,4.42,0,0,0-5.6431,3.2816,6.1415,6.1415,0,0,0,1.5465,12.0849h1.1881v5.92H10.2244a2.2158,2.2158,0,1,0,0,1.0227h1.5942a.5113.5113,0,0,0,.5113-.5113V23.4549a.5113.5113,0,0,0-.5113-.5113H10.1191A5.1186,5.1186,0,0,1,9.1176,12.8054a.5112.5112,0,0,0,.4076-.4352A3.3958,3.3958,0,0,1,14.2377,9.698a.5113.5113,0,0,0,.6506-.2219,8.6577,8.6577,0,0,1,16.2378,4.1023.5113.5113,0,0,0,.396.4935,4.4941,4.4941,0,0,1-1.0172,8.8716h-.2782a.5113.5113,0,1,0,0,1.0227h.2782a5.5165,5.5165,0,0,0,4.2994-8.9735ZM8.0688,31.59a1.1931,1.1931,0,1,1,1.1931-1.1931A1.1945,1.1945,0,0,1,8.0688,31.59Z" fill="#0088cc"/><path d="M28.91,14.11h.0047a.5114.5114,0,0,0,.5067-.516,6.8806,6.8806,0,0,0-.4725-2.45.5114.5114,0,1,0-.9527.372,5.86,5.86,0,0,1,.4025,2.0869.5114.5114,0,0,0,.5113.5067Z" fill="#0088cc"/><path d="M27.0413,9.893a.5113.5113,0,1,0,.7884-.6513,6.9362,6.9362,0,0,0-5.36-2.5364.5113.5113,0,1,0,0,1.0227A5.9168,5.9168,0,0,1,27.0413,9.893Z" fill="#0088cc"/></svg>