<svg id="Layer_1" data-name="Layer 1" xmlns="http://www.w3.org/2000/svg" width="40" height="40" viewBox="0 0 40 40"><title>web-application</title><path d="M36.8519,27.333V8.5648a1.8056,1.8056,0,0,0-1.8056-1.8056H4.9537A1.8056,1.8056,0,0,0,3.1481,8.5648V27.333a1.8058,1.8058,0,0,0-1.2037,1.6948V29.63a3.6147,3.6147,0,0,0,3.6111,3.6111H34.4444A3.6147,3.6147,0,0,0,38.0556,29.63v-.6019A1.8058,1.8058,0,0,0,36.8519,27.333ZM4.3519,8.5648a.6019.6019,0,0,1,.6019-.6019H35.0463a.6019.6019,0,0,1,.6019.6019V27.2222H4.3519Zm12.037,19.8611h7.2222v.6019a.6019.6019,0,0,1-.6019.6019H16.9907a.6019.6019,0,0,1-.6019-.6019ZM36.8519,29.63a2.4075,2.4075,0,0,1-2.4074,2.4074H5.5556A2.4075,2.4075,0,0,1,3.1481,29.63v-.6019a.6019.6019,0,0,1,.6019-.6019H15.1852v.6019a1.8056,1.8056,0,0,0,1.8056,1.8056h6.0185a1.8056,1.8056,0,0,0,1.8056-1.8056v-.6019H36.25a.6019.6019,0,0,1,.6019.6019Z" fill="#0088cc"/><path d="M16.0277,23.076a.6023.6023,0,0,0,.2618.7056,7.1439,7.1439,0,0,0,1.9572.8105.6055.6055,0,0,0,.6827-.3136,1.1917,1.1917,0,0,1,2.14,0,.602.602,0,0,0,.5375.3312.637.637,0,0,0,.1452-.0176,7.1439,7.1439,0,0,0,1.9572-.8105.6023.6023,0,0,0,.2618-.7056,1.19,1.19,0,0,1,1.5123-1.5111.6023.6023,0,0,0,.7056-.2618,7.1439,7.1439,0,0,0,.8105-1.9572.6015.6015,0,0,0-.3136-.6827,1.2173,1.2173,0,0,1-.5-.4681h4.647a.6019.6019,0,0,0,.6019-.6019V13.38h1.2037v1.2037l2.4074-1.8056-2.4074-1.8056v1.2037H30.8333a.6019.6019,0,0,0-.6019.6019v4.213H26.1863a1.2193,1.2193,0,0,1,.5-.4681.6015.6015,0,0,0,.3136-.6827,7.1439,7.1439,0,0,0-.8105-1.9572.6023.6023,0,0,0-.7056-.2618,1.19,1.19,0,0,1-1.5111-1.5117.6023.6023,0,0,0-.2618-.7056,7.1439,7.1439,0,0,0-1.9572-.8105.6015.6015,0,0,0-.6827.3136,1.1917,1.1917,0,0,1-2.14,0,.6015.6015,0,0,0-.6827-.3136,7.1439,7.1439,0,0,0-1.9572.8105.6023.6023,0,0,0-.2618.7056A1.19,1.19,0,0,1,14.5166,13.62a.6023.6023,0,0,0-.7056.2618,7.1439,7.1439,0,0,0-.8105,1.9572.6015.6015,0,0,0,.3136.6827,1.2173,1.2173,0,0,1,.5.4681H10.9722a.6019.6019,0,0,0-.6019.6019v6.0191H4.9537v1.2037h6.0185a.6019.6019,0,0,0,.6019-.6019V18.1944h2.24a1.2193,1.2193,0,0,1-.5.4681.6015.6015,0,0,0-.3136.6827,7.1439,7.1439,0,0,0,.8105,1.9572.6023.6023,0,0,0,.7056.2618,1.19,1.19,0,0,1,1.5111,1.5117Zm-1.39-2.7642a5.8964,5.8964,0,0,1-.3521-.85,2.39,2.39,0,0,0,0-3.7375,5.8964,5.8964,0,0,1,.3521-.85A2.391,2.391,0,0,0,17.2808,12.23a5.8826,5.8826,0,0,1,.85-.3521,2.39,2.39,0,0,0,3.7375,0,5.8964,5.8964,0,0,1,.85.3521,2.391,2.391,0,0,0,2.6434,2.6434,5.8985,5.8985,0,0,1,.355.8534,2.39,2.39,0,0,0,0,3.7375,5.8826,5.8826,0,0,1-.3521.85,2.391,2.391,0,0,0-2.6434,2.6434,5.8826,5.8826,0,0,1-.85.3521,2.39,2.39,0,0,0-3.7375,0,5.8633,5.8633,0,0,1-.85-.3521,2.391,2.391,0,0,0-2.6431-2.6434Z" fill="#0088cc"/><path d="M20,21.2037a3.6111,3.6111,0,1,0-3.6111-3.6111A3.6113,3.6113,0,0,0,20,21.2037Zm0-6.0185a2.4074,2.4074,0,1,1-2.4074,2.4074A2.4075,2.4075,0,0,1,20,15.1852Z" fill="#0088cc"/><path d="M18.7963,15.787v3.6111l3.0093-1.8056Z" fill="#0088cc"/></svg>