<svg xmlns="http://www.w3.org/2000/svg" width="500" height="450" viewBox="0 0 500 450"><title>contact-us</title><g style="isolation:isolate"><g id="Layer_1" data-name="Layer 1"><path d="M187.4134,44.39C227.83,43.96,267.9166,36.87,305.06,22.5049c22.1428-8.5635,74.6588-13.85,108.58-8.093,29.4476,4.9982,99.591,27.792,69.9528,105.02s-67.4452,85.2595-39.6353,135.6637c20.4243,37.0181,55.5213,73.766,24.7127,103.3723C420.7588,404.51,223.99,472.7617,121.8439,417.1874s-123.7965-75.5741-93.05-162.6582S-20.02,156.896,21.5856,92.3175C46.54,53.5845,127.0038,45.0317,187.4134,44.39Z" fill="#f1f3f7"/><g opacity="0.22"><rect x="204.1903" y="6.6053" width="189.9078" height="281.2641" transform="translate(446.3815 -151.9069) rotate(90)" fill="#a8a7a5"/><rect x="163.7674" y="58.6192" width="270.7508" height="177.238" fill="#e8e8e8"/><g opacity="0.7"><rect x="339.6213" y="159.0231" width="35.7608" height="77.4654" fill="#6b6b6b"/><rect x="343.8958" y="168.2813" width="6.0993" height="8.8532" fill="#e8e8e8"/><rect x="354.452" y="168.2813" width="6.0993" height="8.8532" fill="#e8e8e8"/><rect x="365.0084" y="168.2813" width="6.0991" height="8.8532" fill="#e8e8e8"/><rect x="343.8958" y="179.7166" width="6.0993" height="8.8532" fill="#e8e8e8"/><rect x="354.452" y="179.7166" width="6.0993" height="8.8532" fill="#e8e8e8"/><rect x="365.0084" y="179.7166" width="6.0991" height="8.8532" fill="#e8e8e8"/><rect x="343.8958" y="191.1519" width="6.0993" height="8.8532" fill="#e8e8e8"/><rect x="354.452" y="191.1519" width="6.0993" height="8.8532" fill="#e8e8e8"/><rect x="365.0084" y="191.1519" width="6.0991" height="8.8532" fill="#e8e8e8"/><rect x="343.8958" y="202.5874" width="6.0993" height="8.8532" fill="#e8e8e8"/><rect x="354.452" y="202.5874" width="6.0993" height="8.8532" fill="#e8e8e8"/><rect x="365.0084" y="202.5874" width="6.0991" height="8.8532" fill="#e8e8e8"/><rect x="343.8958" y="214.0227" width="6.0993" height="8.8532" fill="#e8e8e8"/><rect x="354.452" y="214.0227" width="6.0993" height="8.8532" fill="#e8e8e8"/><rect x="365.0084" y="214.0227" width="6.0991" height="8.8532" fill="#e8e8e8"/><rect x="343.8958" y="225.458" width="6.0993" height="8.8532" fill="#e8e8e8"/><rect x="354.452" y="225.458" width="6.0993" height="8.8532" fill="#e8e8e8"/><rect x="365.0084" y="225.458" width="6.0991" height="8.8532" fill="#e8e8e8"/></g><g opacity="0.7"><rect x="276.6551" y="115.0617" width="54.5954" height="118.2651" fill="#6b6b6b"/><rect x="283.181" y="129.1961" width="9.3116" height="13.516" fill="#e8e8e8"/><rect x="299.2969" y="129.1961" width="9.3116" height="13.516" fill="#e8e8e8"/><rect x="315.4132" y="129.1961" width="9.3114" height="13.516" fill="#e8e8e8"/><rect x="283.181" y="146.6542" width="9.3116" height="13.516" fill="#e8e8e8"/><rect x="299.2969" y="146.6542" width="9.3116" height="13.516" fill="#e8e8e8"/><rect x="315.4132" y="146.6542" width="9.3114" height="13.516" fill="#e8e8e8"/><rect x="283.181" y="164.1122" width="9.3116" height="13.516" fill="#e8e8e8"/><rect x="299.2969" y="164.1122" width="9.3116" height="13.516" fill="#e8e8e8"/><rect x="315.4132" y="164.1122" width="9.3114" height="13.516" fill="#e8e8e8"/><rect x="283.181" y="181.5706" width="9.3116" height="13.516" fill="#e8e8e8"/><rect x="299.2969" y="181.5706" width="9.3116" height="13.516" fill="#e8e8e8"/><rect x="315.4132" y="181.5706" width="9.3114" height="13.516" fill="#e8e8e8"/><rect x="283.181" y="199.0287" width="9.3116" height="13.516" fill="#e8e8e8"/><rect x="299.2969" y="199.0287" width="9.3116" height="13.516" fill="#e8e8e8"/><rect x="315.4132" y="199.0287" width="9.3114" height="13.516" fill="#e8e8e8"/><rect x="283.181" y="216.4868" width="9.3116" height="13.516" fill="#e8e8e8"/><rect x="299.2969" y="216.4868" width="9.3116" height="13.516" fill="#e8e8e8"/><rect x="315.4132" y="216.4868" width="9.3114" height="13.516" fill="#e8e8e8"/></g><g opacity="0.7"><rect x="203.4716" y="164.0727" width="33.1758" height="71.8658" fill="#6b6b6b"/><rect x="207.4372" y="172.6617" width="5.6584" height="8.2132" fill="#e8e8e8"/><rect x="217.2303" y="172.6617" width="5.6584" height="8.2132" fill="#e8e8e8"/><rect x="227.0236" y="172.6617" width="5.6582" height="8.2132" fill="#e8e8e8"/><rect x="207.4372" y="183.2704" width="5.6584" height="8.2132" fill="#e8e8e8"/><rect x="217.2303" y="183.2704" width="5.6584" height="8.2132" fill="#e8e8e8"/><rect x="227.0236" y="183.2704" width="5.6582" height="8.2132" fill="#e8e8e8"/><rect x="207.4372" y="193.8791" width="5.6584" height="8.2132" fill="#e8e8e8"/><rect x="217.2303" y="193.8791" width="5.6584" height="8.2132" fill="#e8e8e8"/><rect x="227.0236" y="193.8791" width="5.6582" height="8.2132" fill="#e8e8e8"/><rect x="207.4372" y="204.488" width="5.6584" height="8.2132" fill="#e8e8e8"/><rect x="217.2303" y="204.488" width="5.6584" height="8.2132" fill="#e8e8e8"/><rect x="227.0236" y="204.488" width="5.6582" height="8.2132" fill="#e8e8e8"/><rect x="207.4372" y="215.0967" width="5.6584" height="8.2132" fill="#e8e8e8"/><rect x="217.2303" y="215.0967" width="5.6584" height="8.2132" fill="#e8e8e8"/><rect x="227.0236" y="215.0967" width="5.6582" height="8.2132" fill="#e8e8e8"/><rect x="207.4372" y="225.7054" width="5.6584" height="8.2132" fill="#e8e8e8"/><rect x="217.2303" y="225.7054" width="5.6584" height="8.2132" fill="#e8e8e8"/><rect x="227.0236" y="225.7054" width="5.6582" height="8.2132" fill="#e8e8e8"/></g><g opacity="0.7"><rect x="388.6827" y="182.2484" width="35.7608" height="54.2401" fill="#6b6b6b"/><rect x="393.9952" y="166.4439" width="25.1358" height="19.5307" fill="#6b6b6b"/><rect x="404.7014" y="153.9019" width="2.6989" height="19.5307" fill="#6b6b6b"/><rect x="392.9573" y="191.1519" width="6.0991" height="8.8532" fill="#e8e8e8"/><rect x="403.5135" y="191.1519" width="6.0993" height="8.8532" fill="#e8e8e8"/><rect x="414.0697" y="191.1519" width="6.0993" height="8.8532" fill="#e8e8e8"/><rect x="392.9573" y="202.5874" width="6.0991" height="8.8532" fill="#e8e8e8"/><rect x="403.5135" y="202.5874" width="6.0993" height="8.8532" fill="#e8e8e8"/><rect x="414.0697" y="202.5874" width="6.0993" height="8.8532" fill="#e8e8e8"/><rect x="392.9573" y="214.0227" width="6.0991" height="8.8532" fill="#e8e8e8"/><rect x="403.5135" y="214.0227" width="6.0993" height="8.8532" fill="#e8e8e8"/><rect x="414.0697" y="214.0227" width="6.0993" height="8.8532" fill="#e8e8e8"/><rect x="392.9573" y="225.458" width="6.0991" height="8.8532" fill="#e8e8e8"/><rect x="403.5135" y="225.458" width="6.0993" height="8.8532" fill="#e8e8e8"/><rect x="414.0697" y="225.458" width="6.0993" height="8.8532" fill="#e8e8e8"/></g><g opacity="0.7"><rect x="242.3157" y="182.2484" width="35.7608" height="54.2401" fill="#6b6b6b"/><rect x="247.6282" y="166.4439" width="25.1358" height="19.5307" fill="#6b6b6b"/><rect x="258.3344" y="153.9019" width="2.6989" height="19.5307" fill="#6b6b6b"/><rect x="246.5903" y="191.1519" width="6.0991" height="8.8532" fill="#e8e8e8"/><rect x="257.1465" y="191.1519" width="6.0993" height="8.8532" fill="#e8e8e8"/><rect x="267.7027" y="191.1519" width="6.0993" height="8.8532" fill="#e8e8e8"/><rect x="246.5903" y="202.5874" width="6.0991" height="8.8532" fill="#e8e8e8"/><rect x="257.1465" y="202.5874" width="6.0993" height="8.8532" fill="#e8e8e8"/><rect x="267.7027" y="202.5874" width="6.0993" height="8.8532" fill="#e8e8e8"/><rect x="246.5903" y="214.0227" width="6.0991" height="8.8532" fill="#e8e8e8"/><rect x="257.1465" y="214.0227" width="6.0993" height="8.8532" fill="#e8e8e8"/><rect x="267.7027" y="214.0227" width="6.0993" height="8.8532" fill="#e8e8e8"/><rect x="246.5903" y="225.458" width="6.0991" height="8.8532" fill="#e8e8e8"/><rect x="257.1465" y="225.458" width="6.0993" height="8.8532" fill="#e8e8e8"/><rect x="267.7027" y="225.458" width="6.0993" height="8.8532" fill="#e8e8e8"/></g><rect x="395.5091" y="58.697" width="3.9269" height="183.1372" fill="#fff"/><rect x="297.1577" y="14.9654" width="3.9269" height="270.6004" transform="translate(449.3867 -148.8555) rotate(90)" fill="#fff"/><rect x="297.1577" y="-59.6461" width="3.9269" height="270.6004" transform="translate(374.7752 -223.467) rotate(90)" fill="#fff"/><rect x="297.1577" y="85.6499" width="3.9269" height="270.6004" transform="translate(520.0713 -78.171) rotate(90)" fill="#fff"/><rect x="295.1942" y="58.697" width="3.9269" height="183.1372" fill="#fff"/><rect x="191.3093" y="58.697" width="3.9269" height="183.1372" fill="#fff"/></g><path d="M345.7146,261.3731c-6.0168,4.2715-15.1639,10.6991-9.209,28.5745,2.4,7.1847-27.8955-2.3949-27.8955-2.3949l7.9685-31.4849Z" fill="#a8a7a5"/><path d="M340.6455,299.24c4.9509-2.2258,5.2945-7.5311,2.1158-7.9256-3.1949-.4083-87.2948-13.5907-87.2948-13.5907l-43.6606,7.5874,37.0453,16.8206Z" fill="#293882"/><path d="M356.54,267.5776c-.5746,8.8867-2.55,17.5239-17.6044,14.4928L281.198,270.9523c-7.5121-.5449-9.66-7.5173-9.0855-16.4151l16.4849-68.4524c.58-8.8895,10.3367-18.775,17.8516-18.2326l55.6645,5.8073c7.5338.5477,13.1638,8.1887,12.6106,17.0727Z" fill="#0088cc"/><path d="M291.9507,341.33a1.57,1.57,0,0,1-1.5814,1.5707h-3.1144a1.5559,1.5559,0,0,1-1.5465-1.5707V306.956a1.5538,1.5538,0,0,1,1.5465-1.5624h3.1144a1.568,1.568,0,0,1,1.5814,1.5624Z" fill="#e8e8e8"/><rect x="284.4358" y="339.3297" width="9.3541" height="34.1646" fill="#a8a7a5"/><path d="M284.1675,366.6239c-3.2219,2.639-33.8666,23.97-33.8666,25.4681v9.2815h5.2541V393.99l34.8734-17.583-2.0243-8.6506Z" fill="#a8a7a5"/><path d="M291.4594,367.2656c3.2271,2.6525,33.8611,23.9673,33.8611,25.4816v9.2681h-5.2462v-7.3807l-32.8354-17.548v-8.68Z" fill="#a8a7a5"/><polygon points="290.88 366.951 334.825 378.271 334.825 389.584 331.173 389.584 331.173 383.165 294.099 375.629 290.88 366.951" fill="#a8a7a5"/><polygon points="285.633 365.864 238.498 377.189 238.498 388.511 242.15 388.511 242.15 382.099 282.412 374.547 285.633 365.864" fill="#a8a7a5"/><path d="M344.9519,293.7036c1.9924,4.387.6015,13.9451-1.3906,14.7452-1.9976.7921-66.2242,6.3093-69.8056,5.512-3.59-.8-73.3929-16.3051-73.86-18.979-.47-2.6957.7519-12.0685,5.1414-11.2737,4.3845.8028,61.1526,13.5127,69.9159,14.71C283.7163,299.6077,344.9519,293.7036,344.9519,293.7036Z" fill="#0088cc"/><polygon points="193.933 388.233 198.69 388.233 180.648 232.008 166.864 232.008 193.933 388.233" fill="#a8a7a5"/><polygon points="225.992 430.371 220.62 430.371 240.965 253.693 256.497 253.693 225.992 430.371" fill="#a8a7a5"/><polygon points="382.306 414.176 387.235 414.176 365.631 257.782 351.36 257.782 382.306 414.176" fill="#a8a7a5"/><polygon points="384.059 252.984 244.751 256.166 62.564 229.887 186.106 230.679 384.059 252.984" fill="#a8a7a5"/><polygon points="383.246 264.79 247.331 264.79 62.564 242.234 62.564 229.887 249.324 252.727 383.246 252.727 383.246 264.79" fill="#e8e8e8"/><path d="M226.9228,238.3046a.6357.6357,0,0,1-.204.84l-8.6558,7.4931a.678.678,0,0,1-.8512-.4267L193.5986,193.092a1.2338,1.2338,0,0,1,.7734-1.7238l11.4.2364a.989.989,0,0,1,.8374.5933Z" fill="#293882"/><path d="M227.1966,240.7638c.1476.3492.0968.6873-.1179.7841l-8.3982,3.6755c-.2444.1047-.5694-.0968-.7357-.4778l-22.73-51.7638c-.1663-.3676-.2254-1.1409.4619-1.1354l9.6439.1743a1.0556,1.0556,0,0,1,.7357.6444Z" fill="#0088cc"/><path d="M283.4495,244.9174c.2711.25.1394.4457-.3222.4457l-64.2911.0616c-.5477,0-.7382-.2307-.408-.518l7.7967-6.5592a2.0764,2.0764,0,0,1,1.0981-.2711l48.6789.5584a1.6936,1.6936,0,0,1,.9449.2818Z" fill="#e8e8e8"/><polygon points="201.793 200.575 216.844 234.025 220.92 231.525 206.685 200.005 201.793 200.575" fill="#c7d3e0" opacity="0.42"/><path d="M283.6694,246.7833a.8088.8088,0,0,1-.84.733l-64.3744-.44a.7962.7962,0,0,1-.8108-.7517l.0107-.6738a.7712.7712,0,0,1,.8215-.725l64.3744.4377a.7884.7884,0,0,1,.8108.7464Z" fill="#293882"/><polygon points="230.88 238.925 226.488 243.478 258.295 243.698 259.662 239.271 230.88 238.925" fill="#a8a7a5"/><path d="M48.734,166.2184a47.0485,47.0485,0,0,1-6.0327-1.4041c-1.4123-.5369-4.7145-.1853-7.7323-1.9492-.827-.4833-1.831.29-.9881,1.09.8325.8215,3.2513,1.729,4.58,2.4969,1.64.9559-3.6783,1.9143-5.0312,2.2659-1.1789.2955-8.1565,3.01-7.8184,3.8124.6417,1.4714,8.2426-1.8552,8.3605-1.1651.0913.5369-8.484,2.0028-8.1618,2.9615.8965,2.6822,7.9308-.4432,9.0748.2362a20.0646,20.0646,0,0,0-3.7052.9826c-1.6083.6282-3.7533.7115-3.8743,1.2647-.4322,1.9061,9.73-1.3021,9.8022.1342.0566,1.1437-5.3427,2.9615-4.5291,4.06.4052.5422,7.778-1.8956,7.778-1.8956s9.7943-1.8041,13.0428-3.2862a51.3785,51.3785,0,0,1,7.3029-1.9707l-4.5454-8.2665S51.2927,166.6857,48.734,166.2184Z" fill="#feadae"/><path d="M54.7024,164.2611a44.5392,44.5392,0,0,0-5.38,1.1572s3.7775,11.0589,3.2485,13.1828c-.5262,2.129,5.0584-1.5921,5.0584-1.5921Z" fill="#fbdb8a"/><path d="M94.5588,113.7865c-2.5263.4-5.8477,6.9053-6.6477,15.6739-.5985,6.5672-9.5661,27.2244-9.5661,27.2244S63.1113,162.3738,51.91,164.527c3.5922,5.1791,4.65,15.4138,4.65,15.4138s26.44,1.8577,31.6166-2.1266c5.1818-3.9787,16.7428-20.73,18.3294-34.6774C108.1012,129.1865,94.5588,113.7865,94.5588,113.7865Z" fill="#f4cf7a"/><polygon points="87.323 404.618 82.587 404.618 103.593 240.245 117.291 240.245 87.323 404.618" fill="#a8a7a5"/><path d="M52.2217,288.3624c9.19,13.3491,12.8174,20.6517,13.2738,25.001.4322,4.3576-.3437,11.7141-1.1492,13.58-.7973,1.8338,3.2488,4.7576,6.0624,2.658,2.7922-2.1076,13.596-16.2031,14.9975-17.2635,1.4016-1.0389,1.24-6.2128-.2012-7.3081-1.4472-1.1008-3.9227-.6472-7.5712-3.7536-3.8044-3.2406-12.5785-25.428-12.5785-25.428Z" fill="#feadae"/><path d="M61.7314,319.3426c-.9719,12.7745-8.6533,16.2971-7.872,20.5739.7838,4.2743,5.7347,2.3064,10.7178.4432,4.9806-1.8929,14.5464-11.8859,15.4325-15.4888,2.8191-11.2495,8.86-9.99,9.8319-14.6781.3008-1.38-6.8248-8.9753-8.9-8.6586-2.0647.3008,1.3076,3.31-.91,7.6116-2.1692,4.301-7.3188,13.1932-8.876,11.6709C69.5979,319.2862,62.0886,314.6361,61.7314,319.3426Z" fill="#473e73"/><path d="M99.3351,183.7933c-3.3024,1.7854-13.6039,16.1036-16.7373,17.661-35.8719,17.9318-53.5462,26.6924-56.9828,31.88-5.716,8.6371,1.9921,22.9847,1.9921,22.9847l30.2794,58.5831s20.8612-15.3143,19.1322-19.5267c-8.5082-20.7191-13.2817-32.8169-19.1322-43.4407-2.6954-4.9267,54.4969-18.7484,58.5831-28.2927,4.0865-9.5394,6.3739-36.2667,6.3739-36.2667Z" fill="#0088cc"/><path d="M90.3731,188.3736c-3.9895,3.99-4.58,11.2926-7.3725,12.4872-2.7976,1.1921-45.24,22.9823-51.8174,27.56-3.4017,2.371-9.3594,9.1608-7.7645,15.5452,1.5976,6.3739,6.1751,13.9479,6.1751,13.9479s-4.7791-15.5425,1.5894-22.3191c6.3846-6.7712,50.2118-28.3626,55.0016-31.152,4.7791-2.7869,10.7609-17.4675,10.3582-18.6571C96.1509,184.5854,90.3731,188.3736,90.3731,188.3736Z" fill="#293882"/><path d="M65.678,363.4813c-2.0378,7.4343-7.2946,21.7525-17.7762,26.1934-10.4788,4.4434-1.1759,7.3106,1.6889,8.4169,2.8645,1.1008,18.579,2.239,19.32.3382,1.6432-4.2688,2.137-4.7521,2.7949-12.063.7437-8.2451,4.9374-11.5313,6.4624-14.7746C79.6875,368.3516,65.678,363.4813,65.678,363.4813Z" fill="#feadae"/><path d="M60.883,370.2981c.61-1.5866,17.3762-57.8287,17.3762-57.8287,3.3855-14.89,19.7953-85.7212,21.4732-88.8276,8.1029-15.0162,6.9592-34.3928,11.1637-38.6536l37.4508,7.9633s-.1262,19.935-.9265,31.09c-.7945,11.142-10.1753,17.1291-11.8213,20.3243-15.14,29.4848-31.4555,71.795-31.877,75.7177-1.7076,15.7651-12.0066,49.7552-21.9188,66.1543C81.8033,386.2381,60.0613,372.43,60.883,370.2981Z" fill="#0088cc"/><path d="M58.1552,396.7356c3.1386-5.5494-5.8744-15.6068-11.1205-9.9741-3.7428,4.0271-6.54,3.5922-6.54,3.5922s-15.2876,2.258-12.4954,11.4348c1.8393,6.0061,18.5469,6.535,26.04,4.14C61.0386,403.6976,58.1552,396.7356,58.1552,396.7356Z" fill="#473e73"/><path d="M71.33,390.73c1.2751,7.3375-1.5762,13.2658-3.6139,13.58-2.0378.3008-5.2811-2.4163-15.1345,1.635C49.4832,407.22,48.56,398.642,48.56,398.642s12.1782-3.979,16.2377-3.5064C68.1856,395.5276,71.33,390.73,71.33,390.73Z" fill="#473e73"/><path d="M104.92,222.9787c-2.3949,0-6.629,4.8137-7.4426,6.1105-5.9764,9.5633-15.4,60.7443-16.8849,71.68-.6846,4.98-.9639,10.213-3.5735,14.1329-2.6124,3.9251-16.5223,54.7168-14.9437,56.787a15.2942,15.2942,0,0,0,4.7735,3.5894s-3.42-6.634,15.8916-49.5754c3.52-7.8156,1.0227-17.2071,2.51-28.8618C87.9086,276.1141,104.92,222.9787,104.92,222.9787Z" fill="#293882"/><path d="M142.7758,100.8938c19.5294,7.5767,26.83,12.63,26.83,12.63s-9.8938,27.2939-9.8938,31.0043c0,3.7211-2.4644,24.1259-.87,39.9315,1.7023,16.7535-2.83,21.366-5.7561,30.5829a27.9926,27.9926,0,0,0-1.1437,9.2656c-4.787-.5345-11.1851-6.1377-17.8059-12.7558-7.9685-7.966-23.9272-13.3436-29.4848-13.8082-14.3479-1.1946-19.8624-.0025-19.8624-.0025,1.53-8.2426,3.9224-15.411,8.7713-29.2863,4.6234-13.25,2.0567-20.9362,2.5909-27.3074.5262-6.3739-5.5843-23.6454-2.9266-27.8982,2.658-4.2418,12.49-8.5,25.643-11.3539C124.7873,100.6144,142.7758,100.8938,142.7758,100.8938Z" fill="#fbdb8a"/><path d="M147.1548,101.8953c.3838-2.2984-2.3869-3.783-7.1712-4.1858-4.7738-.3973-24.4429,1.0686-24.4429,5.4449,0,4.39-2.4537,13.4857,11.0939,10.2883C140.1821,110.2666,146.9533,103.09,147.1548,101.8953Z" fill="#fbdb8a"/><path d="M117.0685,87.7489c1.2,4.8406,1.5976,14.1032-.2012,18.3291-1.78,4.2234.4457,8.4251,6.5133,10.3716,12.2939,3.9306,25.24-11.5662,25.24-11.5662s-4.7334-3.9306-5.641-6.347c-.07-.1853-.1369-.392-.204-.604-.9128-2.854-1.96-8.82-2.6179-21.2453C139.9487,72.8586,117.0685,87.7489,117.0685,87.7489Z" fill="#feadae"/><path d="M117.93,97.4464c2.2846,3.1092,12.5864,18.1254,16.7425,17.94,3.4528-.1531,12.2538-7.4263,14.3451-9.8427-9.4344-3.979-8.7553-24.824-8.782-25.651C140.236,79.8929,120.0459,93.21,117.93,97.4464Z" fill="#dd949b" style="mix-blend-mode:multiply"/><path d="M139.3794,50.8271c3.2516-4.175,9.2843-9.7462,14.8606-7.4263,5.5656,2.3223,8.35,10.5352,2.6258,14.0793a22.4273,22.4273,0,0,1-7.7164,3.1735s5.9953-3.4314,4.1187-6.645c-1.3909-2.3949-3.0124.4968-3.485,2.0433C149.3213,57.5982,139.3794,50.8271,139.3794,50.8271Z" fill="#3d4177"/><path d="M142.0132,49.4417c3.8286-4.5322,7.8882-6.8572,10.68-6.041a7.7424,7.7424,0,0,0-5.5684,3.1306c2.32-1.3961,5.3267-3.4822,7.4236-2.2016-2.435.58-6.9672,3.0176-7.5525,5.45-.5826,2.4378-1.3906,1.3909-1.3906,1.3909Z" fill="#495089"/><path d="M109.8651,68.2354s12.855.9826,12.855,2.3734c0,1.3961-1.7909.4564-1.7909.4564l-11.7622-.2579Z" fill="#151823"/><path d="M113.087,68.0235c0-4.7873-.14-11.424,2.7842-15.1559,2.9291-3.7159,11.2924-7.1687,20.4584-5.0422,4.285.9961,6.6395,1.7263,6.6395,1.7263s-25.2213,9.4237-24.76,11.2951C118.6606,62.71,113.087,68.0235,113.087,68.0235Z" fill="#495089"/><path d="M152.4035,75.5166c-.8644,3.3857-5.7347,11.7383-7.7994,13.282-.5449.4-3.0366,4.3092-3.8394,2.9211-.7811-1.3988.7976-19.3013,1.6138-20.01C143.1893,71.0009,152.4035,75.5166,152.4035,75.5166Z" fill="#3d4177"/><path d="M111.358,79.0687c.8913-7.2248,2.26-17.3465,6.9375-23.0411,3.0445-3.6167,5.5818-5.1362,8.9486-4.6207.7624.4512,10.0332-3.866,10.75-3.3131,2.2473.0726,4.3925,3.5279,7.5687,4.5885,13.9853,4.62,1.2966,13.4618-1.5949,22.6062,3.8044-.8187,4.1132,2.72,2.6739,6.2477-1.1008,2.7064-2.7922,4.414-4.9616,4.7092-5.0526,10.5083-17.258,14.2429-25.7527,11.0749C111.4866,94.4662,110.5255,85.864,111.358,79.0687Z" fill="#feadae"/><path d="M116.4213,58.903a4.9621,4.9621,0,0,1,3.4421.6552,11.9307,11.9307,0,0,0,3.6354,1.6859c4.7843,1.4984,9.8264.9881,12.7635,1.7988a42.7961,42.7961,0,0,1,10.718-5.5252c2.0136-1.0258,3.6136-1.6809,4.0379-1.6-.4242-2.5774-3.9466-6.1213-3.96-6.132-.5342-1.6782-19.1671-6.2771-24.4724-1.5036C114.416,52.5426,114.4938,59.7031,116.4213,58.903Zm34.5968-2.9857.0484.0484C151.0827,55.947,151.0665,55.9256,151.0181,55.9173Zm-4.4541,1.944a47.1884,47.1884,0,0,0-9.6359,6.116,8.0626,8.0626,0,0,1,3.27,4.599c.5342,2.2258-2.0083,16.4822-2.0083,16.4822l3.3184-2.5343,3.1575-8.4251,6.4759,3.8795s4.36-5.7856,3.1331-12.3635c-.61-3.2433,1.5278-7.5121-3.2568-9.6978A22.3075,22.3075,0,0,1,146.564,57.8613Z" fill="#3d4177"/><path d="M119.6237,58.9693c-.2435-1.3376-1.4779-5.832,1.93-8.3816,3.4077-2.5547,6.8743-2.6332,10.1543-2.0235-7.3811-.9122-10.3832,2.9182-10.9952,5.8367a32.9862,32.9862,0,0,0-.7253,4.2929C119.9407,59.0972,119.6237,58.9693,119.6237,58.9693Z" fill="#495089"/><path d="M122.0543,60.8548c1.7881,0,1.3881-5.7858,6.3684-9.9686A15.417,15.417,0,0,1,144,48.3568c-3.4473-.1314-10.5891-2.2445-15.1746,4.7175,0,0,4.7521-4.2528,16.6325-4.5778-3.1119.2579-13.5129,1.3909-15.1721,6.3739-1.6564,4.9831-3.9251,6.9106-6.116,6.8462C121.9765,61.65,122.0543,60.8548,122.0543,60.8548Z" fill="#495089"/><path d="M126.9727,61.98c1.99.392,4.2369,1.1278,5.0369-3.2593.7973-4.3845,3.9842-7.6331,5.9843-7.9042-1.4659.7973-4.32,3.52-4.8569,6.0434-.5262,2.5266-.7247,5.7779-2.8513,5.9148A5.1256,5.1256,0,0,1,126.9727,61.98Z" fill="#495089"/><path d="M130.6831,62.7047c.9372.4028,1.858.9988,2.658-.3329.7948-1.3262-.4644-7.0291,3.254-8.7688-2.129.8-3.12,4.7846-3.1842,6.1081a2.5852,2.5852,0,0,1-1.6644,2.4675A2.0074,2.0074,0,0,0,130.6831,62.7047Z" fill="#495089"/><path d="M135.8058,73.4011s11.953.73,11.953,2.1238c0,1.3988-1.7909.4644-1.7909.4644l-11.7595.596Z" fill="#3d4177"/><path d="M122.3146,72.3915c.3357,1.6647-.3893,5.3267.937,6.5268,1.3262,1.19,7.7057,2.3119,8.5593,2.1186.8646-.1988,3.1922-5.7108,2.5961-7.045-.6013-1.321-2.7385-1.67-5.7185-2.5186C123.5818,70.01,122.3146,72.3915,122.3146,72.3915Z" fill="#fff" opacity="0.36"/><path d="M118.3276,70.6089c-.1988,1.533-.0591,5.5494-2.5183,6.4784-2.462.9262-5.187.43-5.7831-.7651-.5908-1.1866-1.4981-8.4169-.3626-8.6077,1.1278-.2065,7.8747,1.3051,8.2022,1.6968A3.1661,3.1661,0,0,1,118.3276,70.6089Z" fill="#fff" opacity="0.37"/><path d="M110.7619,77.7182c1.5355.6337,4.8808,1.1063,5.7078.3651,1.2111-1.1008,2.5266-5.1791,2.5266-5.1791s1.925.0619,2.4565.5936c0,0,.6015,5.5843,1.7988,6.68.7088.65,7.566,2.862,9.5554.9985,1.9976-1.8632,3.5226-7.3779,2.9989-7.7752-.5314-.3973-.6738-1.643-4.3815-2.4378-2.9052-.6337-7.3029-1.6592-8.6236-.4539-.5639.5237-.7654.7115-.7654.7115-1.5921-1.3207-2.3732-.2576-2.4727-.612-.2683-.9128-.4294-1.4607-2.29-1.9921-1.2-.3384-5.4851-1.2941-6.8811-1.4929a1.5326,1.5326,0,0,0-1.2889.4993S106.8123,76.086,110.7619,77.7182Zm12.1515-3.391a2.6328,2.6328,0,0,1,1.5275-2.7223c1.1357-.33,7.7109,1.3262,8.8386,1.7235,1.5921.5666-.5345,5.85-1.3936,6.7148-.8751.8591-6.7121-.5314-7.7725-1.0631C123.0476,78.446,122.9832,76.0538,122.9134,74.3273Zm-12.5221,1.8178c-.94-.8055-1.1759-4.3389-.2953-7.62.1047-.3975,3.9895.4965,5.6462.8941,1.6564.3945,2.2068.9691,2.4754,1.635a16.8252,16.8252,0,0,1-1.9305,5.0905C115.0414,78.3412,111.2021,76.8162,110.3913,76.1451Z" fill="#3d4177"/><path d="M146.0942,99.4441c-.8055,3.1787-8.6291,13.9449-22.1819,11.6844-8.487-1.415-8.2371-6.245-8.2371-8.6319a41.2836,41.2836,0,0,0-2.9211,6.3767,20.3768,20.3768,0,0,0,6.5105,6.2422c3.4608,1.9679,8.1673,2.545,13.2765,1.3342,9.8534-2.352,17.8059-12.2321,17.8059-12.2321Z" fill="#f4cf7a"/><path d="M104.7344,185.3346l30.8647,33.92,15.1452,3.1842s7.1739-9.5526,7.1739-19.1187c0-9.5688,4.2528-17.0031.9235-18.8611-3.3184-1.8632-37.6895-11.5634-42.6189-10.6991C111.2934,174.63,104.7344,185.3346,104.7344,185.3346Z" opacity="0.02"/><path d="M123.708,156.6525l-20.4342-1.38,1.5008,30.011c-.0052.0269-.04.0349-.04.0511-.0456.4993,3.0151,1.1168,6.822,1.3584,3.6782.2579,6.6747.0806,6.9053-.3838h.0619Z" fill="#f4f4f4"/><path d="M111.5565,186.693c-3.8069-.2417-6.8677-.8591-6.822-1.3584,0-.0162-1.4607-30.0622-1.4607-30.0622l10.2157.6928Z" fill="#fff"/><path d="M123.7,156.749c-.0509.7357-4.6688,1.0365-10.3367.6524-5.6407-.3731-10.21-1.2913-10.1619-2.0163.0429-.7464,4.6982-1.0417,10.3364-.6576C119.2165,155.1113,123.7484,156.0188,123.7,156.749Z" fill="#a3cce2"/><path d="M102.8685,153.5005l-1.2674,4.4918c.2686.6576,5.2437,1.5921,11.7273,2.0163,6.543.4457,11.663.1878,11.9261-.4484a1.2819,1.2819,0,0,0,.0432-.1262l-.2579-4.4489Z" fill="#f4f4f4"/><path d="M125.04,154.9851c-.0349.6444-5.0152.835-11.142.427-6.1215-.4107-11.0347-1.2726-10.9919-1.9116.0456-.6606,5.0342-.8432,11.1582-.43C120.1856,153.4736,125.0933,154.322,125.04,154.9851Z" fill="#fff"/><path d="M120.634,164.7068a7.9953,7.9953,0,0,0-4.9913-1.7771s2.4647,10.9487.58,13.2361c-.7758.94,7.22,3.2164,9.2384,2.752,6.3445.4055,3.16-2.666,3.7346-6.2851C129.808,168.7826,127.7513,170.9974,120.634,164.7068Z" fill="#feadae"/><path d="M115.0871,162.8651a19.6883,19.6883,0,0,0-4.4489,1.8417c-1.3854.6766-5.5791,3.152-5.2462,3.99.36.8432,3.0124-.6552,5.6866-1.4846,2.8675-.8861,2.8834-.6793,3.5655-.3409,0,0-2.2552.6549-4.2957,1.3207-1.52.5048-5.7779,1.7318-5.1442,3.2488.4564,1.1115,3.2593-.6793,5.4018-.9746,2.148-.2928,4.7387-.7841,4.7387-.7841s-2.0215.5826-4.1264,1.3559c-2.2877.8751-4.8327,1.4013-4.704,2.2231.1424.8429,3.0984.3945,5.5469.306a24.5443,24.5443,0,0,1,4.1616.1933s-9.005.9933-7.6141,2.2016c1.4013,1.1973,7.2812.8215,10.6158.1207,1.627-.3329,1.3076-4.2982.5663-7.7323C118.5855,162.6047,115.0871,162.8651,115.0871,162.8651Z" fill="#feadae"/><path d="M126.6989,169.84c5.0477.5317,15.6741-.2656,18.59-.2656,2.9321,0,6.9216,13.2872,3.7294,14.079-3.1949.8055-23.3823-3.4553-24.98-5.31C122.4515,176.4852,126.6989,169.84,126.6989,169.84Z" fill="#feadae"/><path d="M140.7809,169.2335c-.7973,0-5.7779,1.0043-5.7779,1.0043s2.7949,13.7488,1.3936,14.75a60.1472,60.1472,0,0,0,7.5712.7973Z" fill="#fbdb8a"/><path d="M169.6054,113.5234c3.7184-.5372,5.3185,5.8422,7.445,13.279,2.1211,7.4371,15.1424,50.6146,4.3843,62.57-4.8354,5.37-37.73-2.5263-40.3879-3.0632,1.3317-3.7132,1.8552-16.1951-1.858-17.2717,14.4766-1.7263,25.1033-1.9839,25.1033-1.9839s-5.8719-8.7526-6.5056-16.34C155.9206,128.6658,169.6054,113.5234,169.6054,113.5234Z" fill="#f4cf7a"/><path id="_Path_" data-name="&lt;Path&gt;" d="M41.4642,183.5584l4.5606-7.3623a1.9527,1.9527,0,0,0-.3257-2.4013L31.4231,161.336a1.2777,1.2777,0,0,0-1.9949.3322l-4.5648,7.2887a2.0108,2.0108,0,0,0,.3044,2.48l14.2133,12.4984A1.334,1.334,0,0,0,41.4642,183.5584Z" fill="#a8a7a5"/><path id="_Path_2" data-name="&lt;Path&gt;" d="M40.5726,181.94l3.8856-6.2726a1.6636,1.6636,0,0,0-.2775-2.0459L32.0177,163.007a1.0886,1.0886,0,0,0-1.7.283L26.429,169.5a1.7132,1.7132,0,0,0,.2593,2.113l12.11,10.6485A1.1366,1.1366,0,0,0,40.5726,181.94Z" fill="#f4f4f4"/><ellipse cx="148.1745" cy="419.0684" rx="19.137" ry="2.4452" fill="#2e5175" opacity="0.1"/><path d="M136.4251,376.4536c3.0528,15.0647,8.5717,23.011,13.3449,22.4439l-11.1794-55.166C137.636,347.1657,133.6624,362.8217,136.4251,376.4536Z" fill="#f4cf7a"/><path d="M138.789,343.04s-.0738.2427-.1984.6909l11.1794,55.166c.11-.0131.22-.0254.3289-.0475,4.8463-.9821,6.9989-10.5414,3.8757-25.9528S138.789,343.04,138.789,343.04Z" fill="#fbdb8a"/><path d="M147.5021,386.4239q-1.1438-5.5653-2.2726-11.1337-2.27-11.1346-4.6836-22.2392a.0654.0654,0,0,0-.1282.0261q1.4264,7.5436,2.9134,15.0755a30.6623,30.6623,0,0,0-5.5059-3.5891c-.1-.0475-.2035.1085-.1208.1821a31.5166,31.5166,0,0,0,5.7078,3.8175c.448,2.2744.8918,4.55,1.35,6.822q1.1219,5.57,2.2411,11.14c.7376,3.6921,1.2667,7.5089,2.3026,11.1275a.2082.2082,0,0,0,.4078-.0826C149.2587,393.8339,148.26,390.1115,147.5021,386.4239Z" fill="#2e5175"/><path d="M146.3764,381.8131a64.1032,64.1032,0,0,0-9.2037-6.0736.0714.0714,0,0,0-.0788.1189,64.0892,64.0892,0,0,0,9.1775,6.1131A.0951.0951,0,0,0,146.3764,381.8131Z" fill="#2e5175"/><path d="M149.5907,367.9234c-.8809,1.174-1.7129,2.3837-2.5582,3.5836a18.7493,18.7493,0,0,0-2.0957,3.367.1077.1077,0,0,0,.1725.1143,18.7339,18.7339,0,0,0,2.2854-3.2412c.7761-1.2456,1.5665-2.483,2.3049-3.7515A.0654.0654,0,0,0,149.5907,367.9234Z" fill="#2e5175"/><path d="M152.2722,382.0713a56.1052,56.1052,0,0,0-4.2652,6.315.1189.1189,0,0,0,.1981.1314,56.089,56.089,0,0,0,4.1563-6.3875A.0535.0535,0,0,0,152.2722,382.0713Z" fill="#2e5175"/><path d="M149.0665,393.0875a50.1954,50.1954,0,0,0-7.57-4.9688.0774.0774,0,0,0-.0854.1289,50.2,50.2,0,0,0,7.5238,5.0381A.1189.1189,0,0,0,149.0665,393.0875Z" fill="#2e5175"/><path d="M153.8679,375.98c-4.6758,11.9158-4.4087,19.9684-.8141,21.73l17.1228-43.6355C167.9563,356.0445,158.0992,365.1974,153.8679,375.98Z" fill="#f4cf7a"/><path d="M170.6278,353.6809s-.1613.1363-.4512.3935L153.0538,397.71c.0827.0405.1652.0817.2514.1155,3.8333,1.5042,9.6607-4.2081,14.4442-16.3983S170.6278,353.6809,170.6278,353.6809Z" fill="#fbdb8a"/><path d="M157.1071,387.9608q1.7162-4.4092,3.4443-8.8138,3.4467-8.8135,6.7792-17.6708a.0545.0545,0,0,0-.1014-.04q-2.4132,5.9206-4.7785,11.86a25.5239,25.5239,0,0,0-2.2278-4.9993.0947.0947,0,0,0-.1668.0728,26.24,26.24,0,0,0,2.2659,5.25c-.715,1.7932-1.4333,3.5849-2.1405,5.3812q-1.7333,4.4026-3.4691,8.8042c-1.1534,2.9156-2.509,5.8242-3.4206,8.8233a.1733.1733,0,0,0,.3225.1265C154.9855,393.9374,155.97,390.8826,157.1071,387.9608Z" fill="#2e5175"/><path d="M158.4045,384.2274a53.38,53.38,0,0,0-3.6908-8.4087.0594.0594,0,0,0-.1089.0475,53.3861,53.3861,0,0,0,3.6546,8.4246A.0792.0792,0,0,0,158.4045,384.2274Z" fill="#2e5175"/><path d="M166.9321,375.9666c-1.1469.4229-2.2757.8927-3.4093,1.35a15.6112,15.6112,0,0,0-2.988,1.4073.09.09,0,0,0,.069.1579,15.59,15.59,0,0,0,3.0637-1.2335c1.106-.52,2.2182-1.0283,3.3082-1.5815A.0545.0545,0,0,0,166.9321,375.9666Z" fill="#2e5175"/><path d="M162.4111,387.0735a46.7122,46.7122,0,0,0-5.8381,2.4883.099.099,0,0,0,.0791.1814,46.7129,46.7129,0,0,0,5.7947-2.588A.0446.0446,0,0,0,162.4111,387.0735Z" fill="#2e5175"/><path d="M155.1885,393.3286a41.8048,41.8048,0,0,0-3.0475-6.8975.0644.0644,0,0,0-.118.0515,41.7911,41.7911,0,0,0,2.9841,6.9251A.099.099,0,0,0,155.1885,393.3286Z" fill="#2e5175"/><path d="M128.5592,383.3468c4.9161,10.397,10.3488,15.1812,13.7148,13.9143l-18.0028-38.0735C124.1929,361.8535,124.1106,373.9387,128.5592,383.3468Z" fill="#f4cf7a"/><path d="M124.2916,358.65s-.01.1895-.02.5375l18.0028,38.0735c.0775-.0292.1552-.0578.23-.0934,3.3446-1.5814,3.1963-8.9116-1.833-19.548S124.2916,358.65,124.2916,358.65Z" fill="#fbdb8a"/><path d="M138.3921,388.6058q-1.8278-3.8382-3.6452-7.681-3.6433-7.6824-7.3859-15.3171a.0489.0489,0,0,0-.0883.0419q2.3873,5.2247,4.8166,10.43a22.94,22.94,0,0,0-4.6427-1.6211.0851.0851,0,0,0-.055.1539,23.5725,23.5725,0,0,0,4.83,1.7509c.7329,1.5721,1.4627,3.1453,2.2023,4.7142q1.8127,3.8452,3.6235,7.6913c1.1973,2.55,2.2651,5.228,3.6659,7.6713a.1557.1557,0,0,0,.2814-.1331C140.9955,393.6742,139.6031,391.149,138.3921,388.6058Z" fill="#2e5175"/><path d="M136.7485,385.4579a47.96,47.96,0,0,0-7.774-2.7636.0534.0534,0,0,0-.0359.1,47.9649,47.9649,0,0,0,7.7621,2.7971A.0712.0712,0,0,0,136.7485,385.4579Z" fill="#2e5175"/><path d="M136.5956,374.7918c-.43,1.0107-.8175,2.0385-1.2165,3.0615a14.0284,14.0284,0,0,0-.9194,2.8215.0806.0806,0,0,0,.1458.0521,14.0128,14.0128,0,0,0,1.08-2.7639c.3408-1.0439.6933-2.0845,1.0026-3.1381A.049.049,0,0,0,136.5956,374.7918Z" fill="#2e5175"/><path d="M141.0778,384.5894a41.9838,41.9838,0,0,0-1.9674,5.3517.089.089,0,0,0,.1674.06,41.9593,41.9593,0,0,0,1.8753-5.3846A.04.04,0,0,0,141.0778,384.5894Z" fill="#2e5175"/><path d="M140.7222,393.1664a37.5606,37.5606,0,0,0-6.3892-2.2537.0578.0578,0,0,0-.0389.1088,37.5552,37.5552,0,0,0,6.3681,2.3123A.089.089,0,0,0,140.7222,393.1664Z" fill="#2e5175"/><path d="M164.7146,408.0373l.0055-13.7488-33.2123-.0132-.0007,1.7928,23.0866,23.1049A11.1928,11.1928,0,0,0,164.7146,408.0373Z" fill="#cdd1d3"/><path d="M131.5069,396.4838l-.0048,11.9561a11.194,11.194,0,0,0,11.19,11.1984l10.8242.0043c.3637,0,.7226-.02,1.0775-.054Z" fill="#e2e2e2"/><polygon points="179.496 225.351 177.525 210.823 178.234 208.18 179.818 210.395 181.641 225.206 179.496 225.351" fill="#404041"/><polygon points="189.055 226.305 191.119 211.79 192.521 209.44 193.441 212.003 191.159 226.75 189.055 226.305" fill="#404041"/><polygon points="182.395 227.43 182.574 212.557 183.843 210.212 184.933 212.597 184.728 227.45 182.395 227.43" fill="#404041"/><polygon points="191.226 241.782 179.982 241.782 177.943 223.137 192.712 223.137 191.226 241.782" fill="#808083"/></g></g></svg>