<svg id="Layer_1" data-name="Layer 1" xmlns="http://www.w3.org/2000/svg" width="35" height="35" viewBox="0 0 35 35"><title>python-icon</title><path d="M17.3775.9178c-8.6313,0-8.0924,3.67-8.0924,3.67l.01,3.8024h8.2367V9.5319H6.0232S.5,8.9177.5,17.4571s4.8208,8.2367,4.8208,8.2367h2.877V21.7311s-.1551-4.7269,4.7438-4.7269H21.111s4.59.0727,4.59-4.3495V5.3429S26.3979.9178,17.3775.9178Zm-4.5417,2.557a1.4663,1.4663,0,0,1,1.4818,1.45v.0026a1.4662,1.4662,0,0,1-1.4791,1.4529h-.0018A1.4665,1.4665,0,0,1,11.354,4.93V4.9286a1.4664,1.4664,0,0,1,1.4791-1.4538Z" fill="#ccc"/><path d="M17.6226,34.0822c8.6313,0,8.0924-3.67,8.0924-3.67l-.01-3.8023H17.4686V25.4682H28.9768S34.5,26.0824,34.5,17.5428s-4.8208-8.2366-4.8208-8.2366h-2.877v3.9626s.1551,4.7269-4.7438,4.7269H13.889s-4.59-.0727-4.59,4.35v7.312s-.697,4.4249,8.3233,4.4249Zm4.5417-2.5568a1.4663,1.4663,0,0,1-1.4818-1.45v-.0026a1.4662,1.4662,0,0,1,1.479-1.4531h.0028a1.4663,1.4663,0,0,1,1.4818,1.45v.0026a1.4662,1.4662,0,0,1-1.4791,1.4529h-.0027Z" fill="#ccc"/></svg>