<svg xmlns="http://www.w3.org/2000/svg" width="42" height="42" viewBox="0 0 42 42"><title>Email-id-icon</title><path d="M21,25.2857l-3.7114-3.2486L6.6771,31.1336a2.1721,2.1721,0,0,0,1.4807.5807H33.8421a2.1561,2.1561,0,0,0,1.4743-.5807l-10.605-9.0964Z" fill="#1b1464"/><path d="M35.3229,10.8664a2.1582,2.1582,0,0,0-1.4807-.5807H8.1579a2.1493,2.1493,0,0,0-1.4764.585L21,23.1429Z" fill="#1b1464"/><polygon points="6 12.167 6 29.97 16.356 21.169 6 12.167" fill="#1b1464"/><polygon points="25.644 21.169 36 29.97 36 12.161 25.644 21.169" fill="#1b1464"/></svg>