<svg xmlns="http://www.w3.org/2000/svg" width="42" height="42" viewBox="0 0 42 42"><title>phone-number-icon</title><path d="M28.8082,25.8457a2.102,2.102,0,0,0-3.1776,0c-.7429.7367-1.4858,1.4733-2.2162,2.2225a.4379.4379,0,0,1-.6118.1124c-.4807-.2622-.9926-.4745-1.4546-.7616a23.0467,23.0467,0,0,1-5.5562-5.0567,13.1632,13.1632,0,0,1-1.9915-3.19.457.457,0,0,1,.1124-.5868c.7429-.7179,1.4671-1.4546,2.1975-2.1912a2.11,2.11,0,0,0-.0062-3.2525c-.5806-.5868-1.1612-1.1612-1.7418-1.748-.5993-.5993-1.1924-1.2049-1.7979-1.7979a2.1155,2.1155,0,0,0-3.1776.0062c-.7491.7367-1.4671,1.492-2.2287,2.2162a3.6177,3.6177,0,0,0-1.1362,2.441A10.3419,10.3419,0,0,0,6.8208,18.71a27.0478,27.0478,0,0,0,4.8008,7.9971A29.7084,29.7084,0,0,0,21.46,34.4047,14.2292,14.2292,0,0,0,26.91,35.99a3.9941,3.9941,0,0,0,3.4273-1.3048c.6368-.7117,1.3547-1.3609,2.0289-2.0414a2.1238,2.1238,0,0,0,.0125-3.2338Q30.6,27.6218,28.8082,25.8457Z" fill="#1b1464"/><path d="M27.6158,20.87l2.3036-.3933a10.34,10.34,0,0,0-8.7463-8.4841l-.3246,2.3161A7.9914,7.9914,0,0,1,27.6158,20.87Z" fill="#1b1464"/><path d="M31.218,10.8566A16.986,16.986,0,0,0,21.4791,6l-.3246,2.3161A14.8216,14.8216,0,0,1,33.6964,20.4706L36,20.0773A17.11,17.11,0,0,0,31.218,10.8566Z" fill="#1b1464"/></svg>