<svg xmlns="http://www.w3.org/2000/svg" width="42" height="42" viewBox="0 0 42 42"><title>skype-id-icon</title><path d="M34.79,23.2876a3.8537,3.8537,0,0,1-.6957-2.2734V21A13.099,13.099,0,0,0,16.4984,8.7018a3.861,3.861,0,0,1-2.37.1125A6.3945,6.3945,0,0,0,7.21,18.7124a3.8531,3.8531,0,0,1,.6956,2.2734V21A13.099,13.099,0,0,0,25.5016,33.2982a3.861,3.861,0,0,1,2.37-.1125A6.3945,6.3945,0,0,0,34.79,23.2876ZM21.4794,18.6525c2.64.6279,6.63,1.5767,6.63,5.9715a4.7886,4.7886,0,0,1-3.0023,4.65,10.91,10.91,0,0,1-4.2926.6753A9.472,9.472,0,0,1,13.95,26.593a1.97,1.97,0,0,1,3.08-2.456,5.8417,5.8417,0,0,0,3.7852,1.8736c2.6675.0846,3.277-.709,3.3558-1.3865.0963-.8274-.64-1.4349-3.6026-2.1394-2.5113-.5973-6.3068-1.5-6.3068-5.5473,0-1.26.5126-5.373,7.1094-5.373a8.9181,8.9181,0,0,1,6.7267,3.4192,1.97,1.97,0,0,1-3.1647,2.3455A5.9163,5.9163,0,0,0,21.37,15.5033c-1.5953-.1515-3.17.4237-3.17,1.2735C18.2,17.6773,18.6524,17.98,21.4794,18.6525Z" fill="#1b1464"/></svg>