<svg xmlns="http://www.w3.org/2000/svg" width="33" height="33" viewBox="0 0 33 33"><title>4</title><g id="Layer_2" data-name="Layer 2"><g id="Layer_1-2" data-name="Layer 1"><path d="M20.4734,12.5266a.6444.6444,0,1,0,0,.9113A.645.645,0,0,0,20.4734,12.5266Z" fill="#0088cc"/><path d="M32.2441,12.6045l-.9114-.9113a3.2248,3.2248,0,0,0,.0779-4.6354l-.4557-.4557.4554-.4558A3.2221,3.2221,0,1,0,26.8541,1.589l-.4563.4559-.4556-.4556a3.22,3.22,0,0,0-4.5577,0l-.0779.0779L20.3954.7558a2.578,2.578,0,1,0-3.6461,3.6455l3.6459,3.6459L8.0472,20.3951,4.4017,16.75A2.578,2.578,0,1,0,.7559,20.3954l.9112.9112-.0777.0777a3.22,3.22,0,0,0,0,4.5577l.4557.4557-.4554.4558A3.2222,3.2222,0,1,0,6.146,31.4109l.4563-.4559.4556.4556a3.22,3.22,0,0,0,4.5577,0l.0779-.0779.9112.9113a2.578,2.578,0,0,0,3.6462-3.6455l-3.6459-3.6459L24.9528,12.6049,28.5983,16.25a2.578,2.578,0,1,0,3.6458-3.6459ZM27.7656,2.5005a1.9331,1.9331,0,0,1,2.7335,2.7342l-.4556.4559L27.3093,2.9564Zm-5.4693,0a1.9314,1.9314,0,0,1,2.7344,0l5.4688,5.4688a1.9314,1.9314,0,0,1,0,2.7344l-.0779.0779L22.2182,2.5786ZM5.2344,30.4993a1.9331,1.9331,0,1,1-2.7335-2.7342l.4556-.4559,2.7342,2.7342Zm5.4693,0a1.9314,1.9314,0,0,1-2.7344,0L2.5006,25.03a1.9314,1.9314,0,0,1,0-2.7344l.0779-.0779,8.2031,8.2031Zm4.6356-.9891a1.2889,1.2889,0,0,1-1.8233,1.8223L1.6673,19.4839A1.2889,1.2889,0,1,1,3.49,17.6607Zm-3.646-5.4692L8.9588,21.3067,21.3067,8.9588l2.7344,2.7345Zm19.6389-8.7016a1.2872,1.2872,0,0,1-1.8221,0L17.6606,3.49A1.289,1.289,0,0,1,19.484,1.6673L31.3326,13.516A1.2883,1.2883,0,0,1,31.3322,15.3395Z" fill="#0088cc"/><path d="M18.65,14.35a.6445.6445,0,0,0-.9116,0l-5.2121,5.2121a.6445.6445,0,1,0,.9115.9116L18.65,15.2614A.6446.6446,0,0,0,18.65,14.35Z" fill="#0088cc"/></g></g></svg>