<svg xmlns="http://www.w3.org/2000/svg" width="33" height="33" viewBox="0 0 33 33"><title>2</title><g id="Layer_2" data-name="Layer 2"><g id="Layer_1-2" data-name="Layer 1"><path d="M32.54,8.32c-.0038-.002-10.9948-4.1237-10.9991-4.1255A2.9913,2.9913,0,0,0,17.97.1236a.4886.4886,0,1,0,.2725.9383,2.0087,2.0087,0,1,1-1.1982.956.489.489,0,0,0-.8554-.4741,2.9864,2.9864,0,0,0,.9492,3.9274V8.0277a.489.489,0,0,0,.9779,0V5.8989a2.9962,2.9962,0,0,0,1.4818-.0267V20.4039c-.2135,0-.9885-.0015-1.4818-.0015V9.9814a.489.489,0,0,0-.9779,0v10.421a4.79,4.79,0,0,0-2.5111.63,1.325,1.325,0,0,0-1.1831-.73H11.0175A1.3239,1.3239,0,0,0,9.694,21.6235v.7815H1.4732A1.4739,1.4739,0,0,0,0,23.8766v5.9325a1.4735,1.4735,0,0,0,1.4732,1.4718H9.694v.397A1.3244,1.3244,0,0,0,11.0175,33h2.4265a1.3215,1.3215,0,0,0,1.0775-.5562c1.15.5846,1.1478.4552,9.3923.4552a1.6455,1.6455,0,0,0,1.1584-2.7929,1.6551,1.6551,0,0,0,.0025-2.3052,1.6561,1.6561,0,0,0,0-2.3034,1.6473,1.6473,0,0,0-.9825-2.7806,2.0307,2.0307,0,0,0-2.0164-2.313h-1.5V14.16l3.9987-1.5a.4883.4883,0,1,0-.3435-.9142l-3.6552,1.3706V5.3977a3.0318,3.0318,0,0,0,.4118-.3668L31.5618,8.9962l-5.5,2.063a.4884.4884,0,1,0,.3443.9142c.0076-.0028,6.1265-2.2972,6.1338-2.3007A.7271.7271,0,0,0,32.54,8.32ZM9.694,30.304H1.4732a.4958.4958,0,0,1-.4953-.495V23.8766a.4957.4957,0,0,1,.4953-.4947H9.694Zm4.0118,1.5975c-.1356.1624-.0469.1216-2.6883.1216a.3457.3457,0,0,1-.3456-.3452V21.6235a.3453.3453,0,0,1,.3456-.3444h2.4265a.35.35,0,0,1,.3453.3613C13.7892,32.5,13.8253,31.7628,13.7058,31.9015Zm1.0614-.4376V29.0074a6.6357,6.6357,0,0,0,2.371-.87,23.1023,23.1023,0,0,0,.0587,3.7846A4.0761,4.0761,0,0,1,14.7672,31.4639Zm3.9584.4582h-.4968c-.15-.2712-.1127-.3006-.1127-4.5017a6.63,6.63,0,0,0,.4973-.4877,1.6182,1.6182,0,0,0,.4421.8681,1.6551,1.6551,0,0,0,.0025,2.3052A1.6556,1.6556,0,0,0,18.7256,31.9222Zm5.1881,0h-3.697a.6605.6605,0,0,1-.6188-.87.6487.6487,0,0,1,.6188-.4552h3.697a.6627.6627,0,0,1,0,1.3251Zm-.0907-2.307H20.2167a.66.66,0,0,1-.6188-.8709.649.649,0,0,1,.6188-.4552h3.697A.6652.6652,0,1,1,23.8229,29.6152Zm-4.2543-2.982a.6484.6484,0,0,1,.648-.6473h3.697a.6631.6631,0,0,1,0,1.3258h-3.697A.649.649,0,0,1,19.5687,26.6332Zm4.345-2.9492a.6627.6627,0,0,1,0,1.3251c-4.0373,0-3.8178.0332-4.0249-.0891a.6478.6478,0,0,1-.2909-.3646v-.4162c.1628-.5224.6962-.4552.9779-.4552Zm-1.8379-2.3034c1.0157,0,1.3573,1.3258.81,1.3258h-.51l.0247.0008c-2.397,0-2.5053-.05-2.9545.1946a1.6505,1.6505,0,0,0-.6974,2.1574,5.717,5.717,0,0,1-3.9813,2.9565V22.1034a3.79,3.79,0,0,1,2.2316-.7241C18.83,21.3793,22.0669,21.3805,22.0758,21.3805Z" fill="#0088cc"/></g></g></svg>