<svg xmlns="http://www.w3.org/2000/svg" width="25.2937" height="33" viewBox="0 0 25.2937 33"><title>13</title><g id="Layer_2" data-name="Layer 2"><g id="Layer_1-2" data-name="Layer 1"><g id="_Group_" data-name="&lt;Group&gt;"><path id="_Path_" data-name="&lt;Path&gt;" d="M.9665,13.75a3.1131,3.1131,0,0,1,3.2063-3.0437.4835.4835,0,0,0,.4828-.5042A4.2657,4.2657,0,0,1,4.893,8.5887,3.7673,3.7673,0,0,1,6.6942,6.4826a.4834.4834,0,0,0-.446-.8577A4.73,4.73,0,0,0,3.9816,8.266,5.1826,5.1826,0,0,0,3.69,9.7654,4.0646,4.0646,0,0,0,0,13.7153a.4834.4834,0,0,0,.4657.5005l.0177,0A.4835.4835,0,0,0,.9665,13.75Z" fill="#0088cc"/><path id="_Compound_Path_" data-name="&lt;Compound Path&gt;" d="M14.2479,13.1417a2.5584,2.5584,0,0,0,1.0151-.2142,3.0969,3.0969,0,0,0,1.6207-1.7245,2.8369,2.8369,0,0,0-1.3673-3.7247,2.4578,2.4578,0,0,0-1.9044.0427,3.0973,3.0973,0,0,0-1.6207,1.7245A2.8369,2.8369,0,0,0,13.3585,12.97,2.3784,2.3784,0,0,0,14.2479,13.1417ZM12.8916,9.5975a2.1254,2.1254,0,0,1,1.1038-1.1892,1.5939,1.5939,0,0,1,.6318-.1344,1.4128,1.4128,0,0,1,.5285.1011,1.8745,1.8745,0,0,1,.8277,2.4756h0A2.1256,2.1256,0,0,1,14.88,12.04a1.5006,1.5006,0,0,1-1.16.0333A1.8743,1.8743,0,0,1,12.8916,9.5975Z" fill="#0088cc"/><path id="_Compound_Path_2" data-name="&lt;Compound Path&gt;" d="M8.7064,13.1417a2.3786,2.3786,0,0,0,.8894-.1715,2.8369,2.8369,0,0,0,1.3673-3.7247A3.0973,3.0973,0,0,0,9.3423,7.5209,2.4584,2.4584,0,0,0,7.438,7.4782a2.837,2.837,0,0,0-1.3672,3.7247,3.0969,3.0969,0,0,0,1.6207,1.7246A2.5583,2.5583,0,0,0,8.7064,13.1417ZM6.971,10.8508a1.8745,1.8745,0,0,1,.8276-2.4756,1.4131,1.4131,0,0,1,.5285-.1011,1.5937,1.5937,0,0,1,.6318.1344,2.1251,2.1251,0,0,1,1.1038,1.1892,1.8744,1.8744,0,0,1-.8276,2.4756,1.5,1.5,0,0,1-1.16-.0333A2.1256,2.1256,0,0,1,6.971,10.8508Z" fill="#0088cc"/><path id="_Compound_Path_3" data-name="&lt;Compound Path&gt;" d="M6.0561,12.6246a2.9784,2.9784,0,0,0-2.1744-.6775,1.9563,1.9563,0,0,0-1.3323.7287,2.5556,2.5556,0,0,0,.7895,3.4459,3.0671,3.0671,0,0,0,1.8795.6952,2.4375,2.4375,0,0,0,.2949-.0177A1.9563,1.9563,0,0,0,6.8456,16.07,2.5556,2.5556,0,0,0,6.0561,12.6246ZM6.08,15.48a.9981.9981,0,0,1-.6838.36A2.04,2.04,0,0,1,3.94,15.3645c-.7546-.5992-1.041-1.56-.6255-2.0979a.9981.9981,0,0,1,.6838-.36,2.04,2.04,0,0,1,1.4564.4749C6.2094,13.9808,6.4958,14.9415,6.08,15.48Z" fill="#0088cc"/><path id="_Path_2" data-name="&lt;Path&gt;" d="M23.2,26.2145a.4833.4833,0,0,0-.677.0949,5.5444,5.5444,0,0,1-1.358,1.3074,1.1207,1.1207,0,0,0-.5048.94v3.96a.4834.4834,0,1,0,.9668,0v-3.96a.1566.1566,0,0,1,.0688-.1321,6.52,6.52,0,0,0,1.5991-1.5334A.4833.4833,0,0,0,23.2,26.2145Z" fill="#0088cc"/><path id="_Compound_Path_4" data-name="&lt;Compound Path&gt;" d="M22.3536,10.5692q-.1122,0-.224.0085V4.8421a2.3929,2.3929,0,0,0-3.8212-1.921V2.3939a2.3941,2.3941,0,0,0-4.7573-.3832A2.3928,2.3928,0,0,0,9.6993,3.9085V5.3292a4.66,4.66,0,0,0-1.0247-.1978A.4834.4834,0,1,0,8.6,6.0953,3.9636,3.9636,0,0,1,11.13,7.3223a.4835.4835,0,0,0,.6949,0,3.95,3.95,0,0,1,2.8028-1.2389,3.5331,3.5331,0,0,1,1.3244.2562,3.9325,3.9325,0,0,1,2.3456,3.8638.4835.4835,0,0,0,.483.5031,3.3293,3.3293,0,0,1,1.7616.4906,2.9833,2.9833,0,0,0-.7891.949,2.7514,2.7514,0,0,0-2.8547.4786,2.5558,2.5558,0,0,0-.79,3.4459,1.9564,1.9564,0,0,0,1.3322.7287,2.4262,2.4262,0,0,0,.295.0177,3.0109,3.0109,0,0,0,1.6774-.5467v.9274a4.7257,4.7257,0,0,0-2.5049,1.0378,3.2911,3.2911,0,0,0-1.7221-1.9763,1.7328,1.7328,0,0,1-.9283-1.0959,2.9266,2.9266,0,0,0-.84-1.3709,2.885,2.885,0,0,0-3.8819,0,2.9276,2.9276,0,0,0-.84,1.3709,1.7329,1.7329,0,0,1-.9283,1.096A3.3243,3.3243,0,0,0,8.9944,22.571a3.2276,3.2276,0,0,0,1.4112-.242,2.78,2.78,0,0,1,2.143,0,3.2157,3.2157,0,0,0,1.239.2463q.0859,0,.1722-.0044a3.22,3.22,0,0,0,1.1884-.2962v1.3085a4.4035,4.4035,0,0,1-3.0464-.12,1.6365,1.6365,0,0,0-1.249,0A4.4121,4.4121,0,0,1,5.996,22.4563a4.5569,4.5569,0,0,1-1.2974-2.9984,4.6587,4.6587,0,0,1,.0593-.96.4834.4834,0,0,0-.3723-.5513,4.4194,4.4194,0,0,1-1.7771-.8579,4.5361,4.5361,0,0,1-1.18-1.412.4834.4834,0,0,0-.8541.4531A5.51,5.51,0,0,0,2.0074,17.846a5.4516,5.4516,0,0,0,1.7416.93,5.5852,5.5852,0,0,0-.0162.7229,5.5171,5.5171,0,0,0,2.7259,4.5335A7.793,7.793,0,0,0,9.474,28.4239a.1583.1583,0,0,1,.0705.1331v3.96a.4834.4834,0,1,0,.9668,0v-3.96a1.1227,1.1227,0,0,0-.5063-.9411A6.4543,6.4543,0,0,1,7.6665,24.552a5.3758,5.3758,0,0,0,3.5564-.1961.6664.6664,0,0,1,.5088,0,5.35,5.35,0,0,0,2.0582.409c.092,0,.1858-.0024.2791-.0071a5.3419,5.3419,0,0,0,1.0792-.1676v2.1882a.4834.4834,0,0,0,.9668,0V21.9216A3.786,3.786,0,0,1,19.8967,18.14a.4833.4833,0,0,0,.4834-.4834V13.5094a1.9859,1.9859,0,0,1,1.4-1.8887l.0052-.0012a1.9737,1.9737,0,0,1,2.5416,1.89v6.7152a2.9248,2.9248,0,0,1-.0166.3085l-.0022.0289a12.2287,12.2287,0,0,1-.76,3.8816.4834.4834,0,1,0,.9.352,13.1748,13.1748,0,0,0,.8248-4.175,3.8725,3.8725,0,0,0,.02-.396V13.5094A2.9435,2.9435,0,0,0,22.3536,10.5692ZM13.91,21.6053a2.2683,2.2683,0,0,1-.9915-.17,3.7407,3.7407,0,0,0-2.8834,0,2.2677,2.2677,0,0,1-.9914.17,2.3576,2.3576,0,0,1-.86-4.4737,2.7,2.7,0,0,0,1.4434-1.7094,1.9612,1.9612,0,0,1,.563-.9183,1.9122,1.9122,0,0,1,2.5732,0,1.96,1.96,0,0,1,.563.9183A2.7,2.7,0,0,0,14.77,17.1316a2.3375,2.3375,0,0,1,1.3223,1.9522,4.7257,4.7257,0,0,0-.8718,2.0154A2.2824,2.2824,0,0,1,13.91,21.6053ZM11.4774,6.3221a5.12,5.12,0,0,0-.8113-.5733v-1.84A1.4272,1.4272,0,0,1,13.52,3.9077v1.348A5.0146,5.0146,0,0,0,11.4774,6.3221Zm4.8351-.88a4.4969,4.4969,0,0,0-1.6852-.3261c-.0467,0-.0935.0019-.14.0034V2.3939a1.4272,1.4272,0,0,1,2.8544,0V6.0259A4.4711,4.4711,0,0,0,16.3126,5.4426Zm1.99,1.5658a.4856.4856,0,0,0,.0055-.0689V4.8421a1.4272,1.4272,0,0,1,2.8544,0V10.447a4.2292,4.2292,0,0,0-1.9013-.6817A5.1084,5.1084,0,0,0,18.3029,7.0083Zm.7113,8.3562a2.0427,2.0427,0,0,1-1.4566.475.9978.9978,0,0,1-.6837-.36c-.4155-.5381-.129-1.4987.6255-2.0979a1.7251,1.7251,0,0,1,1.9459-.2971,2.8935,2.8935,0,0,0-.032.4249v1.4527A2.4043,2.4043,0,0,1,19.0142,15.3645Z" fill="#0088cc"/></g></g></g></svg>