<svg xmlns="http://www.w3.org/2000/svg" width="35" height="33" viewBox="0 0 35 33"><title>6</title><g id="Layer_2" data-name="Layer 2"><g id="Layer_1-2" data-name="Layer 1"><rect width="35" height="33" fill="#0088cc" opacity="0"/><path d="M32.4833,28.9332h-.55V14.5922A4.4868,4.4868,0,0,0,34,10.8167a.4837.4837,0,0,0-.0637-.24L30.1005,3.8642A1.52,1.52,0,0,0,28.7836,3.1H6.2164a1.52,1.52,0,0,0-1.3169.7642L1.0637,10.5769a.4839.4839,0,0,0-.0637.24,4.4868,4.4868,0,0,0,2.0666,3.7755v14.341h-.55a.4834.4834,0,0,0,0,.9668H32.4833a.4834.4834,0,1,0,0-.9668ZM2,11.3H3.55a.4834.4834,0,0,0,0-.9668H2.3164L5.7389,4.3439a.5512.5512,0,0,1,.4775-.2771H28.7836a.5511.5511,0,0,1,.4775.2771l3.4225,5.9894H31.45a.4834.4834,0,1,0,0,.9668H33a3.52,3.52,0,0,1-6.9741,0h3.3578a.4834.4834,0,0,0,0-.9668H5.6168a.4834.4834,0,0,0,0,.9668H8.9743A3.52,3.52,0,0,1,2,11.3Zm22.9908,0a3.52,3.52,0,0,1-6.9734,0Zm-8.0083,0a3.52,3.52,0,0,1-6.9734,0ZM28.3832,28.9333H23.15V27.3167h5.2331Zm0-2.5833H23.15V17.5h5.2331Zm2.5834,2.5833H29.35V17.0167a.4834.4834,0,0,0-.4834-.4834h-6.2a.4834.4834,0,0,0-.4834.4834V28.9332H4.0334V15.0611a4.4829,4.4829,0,0,0,5.4583-2.2194,4.4867,4.4867,0,0,0,8.0083,0,4.4867,4.4867,0,0,0,8.0083,0,4.4832,4.4832,0,0,0,5.4583,2.2194Z" fill="#0088cc"/><path d="M20.0833,16.5333H6.1334a.4834.4834,0,0,0-.4834.4834v9.8167a.4834.4834,0,0,0,.4834.4834h13.95a.4834.4834,0,0,0,.4834-.4834V17.0167A.4833.4833,0,0,0,20.0833,16.5333ZM19.6,26.35H6.6168V17.5H19.6Z" fill="#0088cc"/></g></g></svg>