<svg xmlns="http://www.w3.org/2000/svg" width="35" height="33" viewBox="0 0 35 33"><title>15</title><g id="Layer_2" data-name="Layer 2"><g id="Layer_1-2" data-name="Layer 1"><rect width="35" height="33" fill="#0088cc" opacity="0"/><path d="M24.5872,12.9933h-1.181a.5537.5537,0,0,0,0,1.1074h1.181a.5537.5537,0,1,0,0-1.1074Z" fill="#0088cc"/><path d="M24.7327,17.5676a1.1373,1.1373,0,0,0-.902-.44H11.1692a1.1443,1.1443,0,0,0-1.11,1.4218l.2953,1.1813a1.1427,1.1427,0,0,0,1.11.8667h12.071a1.1428,1.1428,0,0,0,1.11-.8668l.2953-1.1812A1.1372,1.1372,0,0,0,24.7327,17.5676Zm-.8661.7132-.2953,1.1812a.0367.0367,0,0,1-.0358.028H11.4645a.0369.0369,0,0,1-.0358-.0279l-.2953-1.1812a.0369.0369,0,0,1,.0358-.0458H23.8308a.0369.0369,0,0,1,.0358.0458Z" fill="#0088cc"/><path d="M32.2651,14.1006a1.7349,1.7349,0,0,0,0-3.47h-.5906A1.7377,1.7377,0,0,0,29.9618,12.09l-1.4771-4.062a2.3324,2.3324,0,0,0-2.1855-1.5308H22.0881l-.3117-1.5583a1.74,1.74,0,0,0-1.7012-1.3947H14.9246a1.74,1.74,0,0,0-1.7012,1.3947l-.3116,1.5583H8.7007A2.3326,2.3326,0,0,0,6.5152,8.0274l-1.477,4.062a1.7375,1.7375,0,0,0-1.7126-1.4586H2.7349a1.7349,1.7349,0,1,0,0,3.47h.5906a1.7241,1.7241,0,0,0,.7606-.176L2.82,15.507a2.9264,2.9264,0,0,0-.6391,1.8216V28.312a1.1456,1.1456,0,0,0,1.1443,1.1443H5.0973A1.1456,1.1456,0,0,0,6.2416,28.312V25.9127H28.7584V28.312a1.1456,1.1456,0,0,0,1.1443,1.1443h1.7718a1.1456,1.1456,0,0,0,1.1443-1.1443V17.3286A2.9263,2.9263,0,0,0,32.18,15.507l-1.2659-1.5824a1.7241,1.7241,0,0,0,.7606.176Zm-28.94-1.1074H2.7349a.6275.6275,0,0,1,0-1.255h.5906a.6275.6275,0,0,1,0,1.255ZM14.3094,5.1554a.6292.6292,0,0,1,.6153-.5045h5.1506a.6291.6291,0,0,1,.6153.5045l.2683,1.3412H14.0411ZM5.1342,28.312a.037.037,0,0,1-.0369.0369H3.3255a.037.037,0,0,1-.0369-.0369V25.5671a2.3114,2.3114,0,0,0,1.2181.3456h.6275V28.312Zm18.8993-3.5067H10.9665V23.5872a.037.037,0,0,1,.0369-.0369H23.9967a.037.037,0,0,1,.0369.0369v1.2181Zm7.6779,3.5067a.037.037,0,0,1-.0369.0369H29.9027a.037.037,0,0,1-.0369-.0369V25.9127h.6275a2.3114,2.3114,0,0,0,1.2181-.3456V28.312Zm-.3963-12.1133a1.8159,1.8159,0,0,1,.3963,1.13v6.2585a1.22,1.22,0,0,1-1.2181,1.2181H25.1409V23.5872a1.1456,1.1456,0,0,0-1.1443-1.1443H11.0034a1.1456,1.1456,0,0,0-1.1443,1.1443v1.2181H4.5067a1.22,1.22,0,0,1-1.2181-1.2181V17.3287a1.8152,1.8152,0,0,1,.3964-1.13l1.6784-2.0981h15.68a.5537.5537,0,1,0,0-1.1074H5.8879L7.556,8.4057A1.2217,1.2217,0,0,1,8.7008,7.604H26.2993a1.2219,1.2219,0,0,1,1.1448.8018l1.6682,4.5875H26.95a.5537.5537,0,0,0,0,1.1074h2.6869Zm-.2682-3.833a.6282.6282,0,0,1,.6275-.6275h.5906a.6275.6275,0,0,1,0,1.255h-.5906A.6283.6283,0,0,1,31.047,12.3657Z" fill="#0088cc"/><path d="M6.8691,21.2617A1.1443,1.1443,0,1,0,8.0134,22.406,1.1456,1.1456,0,0,0,6.8691,21.2617Z" fill="#0088cc"/><path d="M28.1309,21.2617a1.1443,1.1443,0,1,0,1.1443,1.1443A1.1456,1.1456,0,0,0,28.1309,21.2617Z" fill="#0088cc"/><path d="M6.5738,16.5369a2.03,2.03,0,1,0,2.03,2.03A2.0325,2.0325,0,0,0,6.5738,16.5369Zm0,2.953a.9228.9228,0,1,1,.9228-.9228A.9238.9238,0,0,1,6.5738,19.49Z" fill="#0088cc"/><path d="M28.4262,16.5369a2.03,2.03,0,1,0,2.03,2.03A2.0325,2.0325,0,0,0,28.4262,16.5369Zm0,2.953a.9228.9228,0,1,1,.9228-.9228A.9238.9238,0,0,1,28.4262,19.49Z" fill="#0088cc"/></g></g></svg>