<svg xmlns="http://www.w3.org/2000/svg" width="35" height="33" viewBox="0 0 35 33"><title>12</title><g id="Layer_2" data-name="Layer 2"><g id="Layer_1-2" data-name="Layer 1"><rect width="35" height="33" fill="#0088cc" opacity="0"/><path d="M28.584,5.2569H26.9732a.3533.3533,0,0,0-.3927.3206h0v5.209c0,.2164.2565.3286.5209.3286.2565,0,.5209-.1121.5209-.3286V8.9273H28.52a1.6736,1.6736,0,0,0,1.8832-1.8192V7.06A1.632,1.632,0,0,0,28.584,5.2569Zm.7773,1.9314c0,.6251-.3205.9216-.8414.9216h-.8976V6.1705H28.52c.5209,0,.8414.2965.8414.9216v.0962Z" fill="#0088cc"/><path d="M19.8891,7.2933a8.0546,8.0546,0,0,0-11.391,0,.47.47,0,0,0,.6648.6648,7.1145,7.1145,0,0,1,10.0614,0,.47.47,0,0,0,.6649-.6648Z" fill="#0088cc"/><path d="M17.95,9.2327a5.3178,5.3178,0,0,0-7.5121,0,.47.47,0,0,0,.6648.6648,4.3767,4.3767,0,0,1,6.1824,0,.47.47,0,1,0,.6648-.6648Z" fill="#0088cc"/><path d="M16.0409,11.1415a2.6155,2.6155,0,0,0-3.6946,0,.47.47,0,0,0,.6648.6648,1.6743,1.6743,0,0,1,2.365,0,.47.47,0,0,0,.6648-.6648Z" fill="#0088cc"/><path d="M24.1336,20.2974c-.2034-.112-.4041-.2345-.5964-.3645l-3.11-2.1006a5.6662,5.6662,0,0,0-3.1835-.9745H11.5368A5.6512,5.6512,0,0,0,7.523,18.516a7.6187,7.6187,0,0,1-1.8682,1.3667,1.223,1.223,0,0,0,.5638,2.3084H8.1644a.47.47,0,0,0,0-.94H6.2186a.2828.2828,0,0,1-.1305-.5338A8.5576,8.5576,0,0,0,8.1865,19.182a4.7166,4.7166,0,0,1,3.35-1.3841h1.2778v3.4529H11.2526a.47.47,0,1,0,0,.94h12.89a.7016.7016,0,0,0,.7009-.7009A1.3637,1.3637,0,0,0,24.1336,20.2974Zm-10.3787.9535V17.798h3.4893a4.73,4.73,0,0,1,2.6571.8134l3.11,2.1006c.2159.1459.4412.2835.67.4092a.4378.4378,0,0,1,.146.13Z" fill="#0088cc"/><path d="M14.92,22.9058H13.4675a.47.47,0,0,0,0,.94H14.92a.47.47,0,0,0,0-.94Z" fill="#0088cc"/><path d="M33.5944,22.5112l-.1485-.2465a3.87,3.87,0,0,0-2.5539-1.7942l-1.2137-.2414V14.0773h3.1409a1.1741,1.1741,0,0,0,1.1728-1.1728V3.749a1.1741,1.1741,0,0,0-1.1728-1.1728H23.6636A1.1741,1.1741,0,0,0,22.4908,3.749V7.222a.47.47,0,0,0,.94,0V3.749a.2329.2329,0,0,1,.2326-.2326h9.1557a.2329.2329,0,0,1,.2326.2326v9.1557a.2329.2329,0,0,1-.2326.2326H23.6636a.2329.2329,0,0,1-.2326-.2326V10.2782a.47.47,0,1,0-.94,0v2.6264a1.1741,1.1741,0,0,0,1.1728,1.1728h3.5617v5.6641l-.6239-.1241a6.6284,6.6284,0,0,1-2.2572-1.067L21.2347,16.45a7.1032,7.1032,0,0,0-3.9905-1.2216H11.5368a7.0833,7.0833,0,0,0-5.0313,2.0785A6.1736,6.1736,0,0,1,3.4066,18.98l-.675.1413A2.1876,2.1876,0,0,0,1,21.2529v4.5529a1.3769,1.3769,0,0,0,.817,1.2572l1.8725.8322a3.1169,3.1169,0,0,0,6.0617.2559H25.364a3.1167,3.1167,0,0,0,6.001,0h.8918A1.7452,1.7452,0,0,0,34,26.408V23.97A2.8277,2.8277,0,0,0,33.5944,22.5112Zm-5.4289-8.4339h.5726v5.9649l-.5726-.1139ZM8.2912,28.8456A2.1784,2.1784,0,0,1,4.7691,26.4l.0088-.0194c.0112-.0238.0229-.0474.035-.0709l.0173-.0331c.0109-.02.0222-.0406.0338-.0607l.0245-.0413c.0108-.0177.0217-.0354.033-.0529l.0315-.0469.032-.046c.0126-.0173.0257-.0344.0388-.0514l.0308-.04c.0155-.0191.0316-.0378.0478-.0565L5.13,25.85q.036-.04.0741-.0783l.0064-.0067.0148-.0141c.0215-.0211.0432-.042.0653-.0621l.0176-.0152c.022-.02.0442-.0389.0669-.0574l.0065-.0051a2.1826,2.1826,0,0,1,2.742.0026l.0028.0022c.0243.02.0481.0405.0717.0616l.0128.0111q.041.037.08.0764c.0284.0284.0557.0576.0822.0871l.034.04c.0138.0161.0277.0323.0409.0487.0149.0185.0293.0373.0434.0561l.0237.0317q.0258.0356.05.072l.0082.0124A2.1821,2.1821,0,0,1,8.2912,28.8456Zm21.6137,0a2.1786,2.1786,0,0,1-3.3635-2.7334l.008-.0121q.0243-.0365.05-.0723l.0235-.0314c.0142-.0189.0287-.0378.0437-.0565.0132-.0163.0269-.0323.0406-.0483.0114-.0133.0226-.0269.0344-.04.0266-.03.0539-.0587.0822-.0871a2.1785,2.1785,0,0,1,3.0809,0c.0284.0284.0557.0576.0822.0871.0117.013.0228.0264.0341.04.0138.016.0276.0322.0408.0485.015.0186.0293.0374.0436.0563l.0236.0316c.0172.0238.034.0477.05.072l.0082.0124A2.1823,2.1823,0,0,1,29.9049,28.8456ZM33.06,26.408h0a.8039.8039,0,0,1-.803.803h-.7739a3.08,3.08,0,0,0-.6922-1.8657l-.0086-.011c-.0268-.0327-.0546-.0647-.0828-.0965l-.0213-.0246c-.03-.0329-.0608-.0652-.0923-.0971L30.57,25.1a3.1,3.1,0,0,0-1.4434-.82,3.1655,3.1655,0,0,0-1.3752-.0333A3.0971,3.0971,0,0,0,26.159,25.1l-.0153.0162c-.0316.032-.0626.0644-.0926.0975l-.0206.0238c-.0285.0321-.0566.0645-.0836.0975l-.0079.01a3.08,3.08,0,0,0-.6929,1.8665H9.869a3.08,3.08,0,0,0-.6945-1.8686l-.0059-.0075c-.0284-.0347-.0578-.0686-.0878-.1023l-.0163-.0188q-.0527-.0581-.1085-.1142a3.1223,3.1223,0,0,0-4.4106,0c-.0347.0347-.0683.07-.1012.1065l-.0287.0324q-.0348.0393-.0683.08l-.0294.036q-.0345.043-.0674.087l-.02.0273q-.0884.1209-.1641.249l-.0042.0072q-.037.0629-.071.1275l-.002.0037a3.0991,3.0991,0,0,0-.3246.9991L2.199,26.2039a.436.436,0,0,1-.2586-.398v-4.553a1.2436,1.2436,0,0,1,.9843-1.2118L3.6,19.9a7.1119,7.1119,0,0,0,3.57-1.9271,6.1488,6.1488,0,0,1,4.3676-1.8044h5.7073a6.1666,6.1666,0,0,1,3.4642,1.06l3.1095,2.1006a7.497,7.497,0,0,0,2.6,1.21l4.2906.8532a2.9272,2.9272,0,0,1,1.932,1.3572l.1485.2465a1.8853,1.8853,0,0,1,.2706.9732Z" fill="#0088cc"/><path d="M7.76,26.2959a1.4272,1.4272,0,1,0,0,2.0184A1.418,1.418,0,0,0,7.76,26.2959Zm-.6649,1.3536a.4871.4871,0,1,1,0-.6888A.4839.4839,0,0,1,7.0951,27.6494Z" fill="#0088cc"/><path d="M29.3736,26.2959a1.4273,1.4273,0,1,0,.418,1.0092A1.4178,1.4178,0,0,0,29.3736,26.2959ZM28.7087,27.65a.487.487,0,1,1,.1427-.3444A.4838.4838,0,0,1,28.7087,27.65Z" fill="#0088cc"/></g></g></svg>