<svg xmlns="http://www.w3.org/2000/svg" width="32.8011" height="33" viewBox="0 0 32.8011 33"><title>14</title><g id="Layer_2" data-name="Layer 2"><g id="Layer_1-2" data-name="Layer 1"><circle cx="23.5187" cy="9.4818" r="0.5314" fill="#0088cc"/><path d="M20.4676,14.0127c.0046-.0049-.0049.0047,0,0Z" fill="#0088cc"/><path d="M18.9871,12.5328Z" fill="#0088cc"/><path d="M31.4721,8.3029h-.6494a8.57,8.57,0,0,0-.9933-2.3966l.46-.46a1.33,1.33,0,0,0,0-1.8791L29.2334,2.5119a1.33,1.33,0,0,0-1.8791,0l-.46.46a8.571,8.571,0,0,0-2.3966-.9933V1.3287A1.33,1.33,0,0,0,23.1692,0H21.6761a1.33,1.33,0,0,0-1.3287,1.3287v.6494a8.57,8.57,0,0,0-2.3966.9933l-.46-.46a1.33,1.33,0,0,0-1.8791,0L14.5563,3.5675a1.33,1.33,0,0,0,0,1.8792l.46.46a8.572,8.572,0,0,0-.9933,2.3966h-.6494a1.33,1.33,0,0,0-1.3287,1.3288v1.4931a1.33,1.33,0,0,0,1.3287,1.3287h.6494a8.587,8.587,0,0,0,.9865,2.3855l.1144.1968L6.34,23.8189A4.7319,4.7319,0,0,0,.3142,29.9668a.4812.4812,0,0,0,.7894.1678L3.57,27.668l1.2187.5013.54,1.264L2.8655,31.8965a.4811.4811,0,0,0,.1678.7894A4.7319,4.7319,0,0,0,9.1812,26.66L10.8105,25.03a.4811.4811,0,0,0-.68-.68L8.2765,26.2036a.4811.4811,0,0,0-.1.5353A3.77,3.77,0,0,1,4.1324,31.99l2.1069-2.1069a.481.481,0,0,0,.1022-.5292L5.5964,27.61a.4809.4809,0,0,0-.2594-.2559L3.64,26.656a.4812.4812,0,0,0-.5232.1047L1.01,28.8676A3.7694,3.7694,0,0,1,6.261,24.8232a.4812.4812,0,0,0,.5353-.1L18.9871,12.5329a.4811.4811,0,0,0,.1-.5353,3.7694,3.7694,0,0,1,4.0445-5.2513l-.0015.0015L21.018,8.8593l-.0111.0115-.0015.0017-.002.0022-.01.0115-.0023.0027-.0036.0043-.0035.0043L20.9817,8.9l-.0033.0041-.0024.0031-.0033.0044-.0021.0027-.003.0041-.0024.0033-.0028.004L20.96,8.929l-.0027.0041-.0023.0035-.0027.0043-.002.0031-.003.0048-.0017.0028-.0027.0046-.0018.0031-.0024.0043-.002.0035-.0023.0043-.0019.0035L20.93,8.98l-.0014.0028-.0024.0048-.0016.0034-.0021.0044-.0017.0035-.0022.0048-.0014.0032-.0019.0043-.0017.0041-.0017.0041-.0015.0039-.0019.005-.0012.0032-.0018.005-.0012.0033-.0018.0053-.001.003-.0016.005-.0012.0037-.0013.0043-.0012.0042L20.895,9.07l-.0012.0041-.0012.0047-.001.0038-.0013.0052-.0008.0032-.0012.0055-.0007.0033-.001.005-.0007.0037-.001.0052-.0006.0035-.0008.005-.0006.0038-.0007.0048-.0006.0039-.0007.0055,0,.0029-.0006.0059,0,.0029-.0005.0057,0,.0032,0,.0053,0,.0035,0,.0054,0,.0034,0,.0055V9.213l0,.0063V9.222l0,.0061v.0027l0,.0064v.0015l.0006.0072,0,.0017.0008.0073,0,.0024.0008.0063,0,.0026.0009.0064,0,.0023.001.0065,0,.0025.0012.0062,0,.0016.0014.0073,0,.0015.0017.0073,0,.0021.0015.0063.0007.0029.0015.0058.0007.0027.0017.0062.0007.0024.0018.006.0009.003.0017.0055.0011.0032.0018.0053.0012.0034.0018.005.0015.004.0017.0046.0015.0039.0019.0046.0008.0019.7045,1.6908a.4808.4808,0,0,0,.2531.2565l1.7379.7516a.4811.4811,0,0,0,.5312-.1014l2.1132-2.1132a3.7694,3.7694,0,0,1-5.2513,4.0445.4811.4811,0,0,0-.5353.1l-8.976,8.974a.4811.4811,0,0,0,.68.68l5.8454-5.8454a8.5879,8.5879,0,0,0,2.3307.9539v.6494a1.33,1.33,0,0,0,1.3287,1.3287H23.17a1.33,1.33,0,0,0,1.3287-1.3287V18.778a8.5687,8.5687,0,0,0,2.3966-.9933l.46.46a1.3289,1.3289,0,0,0,1.8791,0l1.0557-1.0557a1.3288,1.3288,0,0,0,0-1.8791l-.46-.46a8.5717,8.5717,0,0,0,.9933-2.3966h.6494a1.33,1.33,0,0,0,1.3287-1.3287V9.6315A1.33,1.33,0,0,0,31.4721,8.3029Zm-6.8009,1.7879-.9742.9742-1.2652-.5813L21.9286,9.31l1.21-1.21,1.3553.4067.4066,1.3553Zm7.1674,1.0339a.3669.3669,0,0,1-.3665.3665h-.8936a.66.66,0,0,0-.6407.5185,7.621,7.621,0,0,1-1.048,2.5287.66.66,0,0,0,.0867.82l.6322.6322a.3664.3664,0,0,1,0,.5183l-1.0557,1.0557a.3668.3668,0,0,1-.5183,0l-.6322-.6322a.66.66,0,0,0-.82-.0866,7.6205,7.6205,0,0,1-2.5285,1.048.66.66,0,0,0-.5185.6407v.8936a.3669.3669,0,0,1-.3665.3665h-1.493a.3669.3669,0,0,1-.3665-.3665v-.8936a.66.66,0,0,0-.5184-.6408,7.619,7.619,0,0,1-2.0693-.7741l.9134-.9133a6.4619,6.4619,0,0,0,9.1267-4.5848.4811.4811,0,1,0-.9444-.1841,5.5,5.5,0,0,1-7.4526,4.0393l.5585-.5585A4.7319,4.7319,0,0,0,26.95,8.77a.4812.4812,0,0,0-.7894-.1678l-.4862.4862-.3322-1.1072a.4809.4809,0,0,0-.3225-.3225l-1.1072-.3322.4862-.4862A.4811.4811,0,0,0,24.23,6.051a4.7318,4.7318,0,0,0-6.1478,6.026l-.6369.6369A5.4976,5.4976,0,1,1,27.8743,9.6665a.4811.4811,0,1,0,.9542-.1232A6.46,6.46,0,1,0,16.7293,13.43l-.902.9019a7.6255,7.6255,0,0,1-.92-2.3224.66.66,0,0,0-.6409-.5185h-.8935a.3669.3669,0,0,1-.3665-.3665V9.6319a.367.367,0,0,1,.3665-.3665h.8936a.66.66,0,0,0,.6407-.5184,7.6211,7.6211,0,0,1,1.048-2.5287.66.66,0,0,0-.0867-.82l-.6322-.6321a.367.367,0,0,1,0-.5184l1.0557-1.0557a.3668.3668,0,0,1,.5183,0l.6321.6321a.66.66,0,0,0,.82.0868,7.62,7.62,0,0,1,2.5289-1.048.66.66,0,0,0,.5181-.6407V1.3287a.3669.3669,0,0,1,.3665-.3665H23.17a.3669.3669,0,0,1,.3665.3665v.8936a.66.66,0,0,0,.5184.6407A7.6192,7.6192,0,0,1,26.5829,3.911a.66.66,0,0,0,.82-.0866l.6322-.6322a.3668.3668,0,0,1,.5183,0L29.609,4.248a.367.367,0,0,1,0,.5183l-.632.632a.66.66,0,0,0-.0868.82,7.6207,7.6207,0,0,1,1.0479,2.5285.66.66,0,0,0,.6407.5185h.8936a.3669.3669,0,0,1,.3665.3665v1.493Z" fill="#0088cc"/><path d="M9.7877,9.5294h-.27a3.97,3.97,0,0,0-.1794-.4336l.1905-.19a.7227.7227,0,0,0,0-1.0207L8.69,7.0456a.7218.7218,0,0,0-1.0206,0l-.19.19a3.9773,3.9773,0,0,0-.4336-.1794v-.27a.7225.7225,0,0,0-.7217-.7217H5.1369a.7225.7225,0,0,0-.7217.7217v.27a3.97,3.97,0,0,0-.4336.1794l-.19-.19a.7218.7218,0,0,0-1.0207,0l-.8392.8391a.7227.7227,0,0,0,0,1.0207l.19.19a3.9773,3.9773,0,0,0-.1794.4336h-.27a.7225.7225,0,0,0-.7217.7217v1.1867a.7226.7226,0,0,0,.7218.7217h.27a3.97,3.97,0,0,0,.1794.4336l-.1905.19a.7227.7227,0,0,0,0,1.0207l.8391.8391a.7218.7218,0,0,0,1.0206,0l.19-.19a3.9773,3.9773,0,0,0,.4336.1794v.27a.7225.7225,0,0,0,.7217.7217H6.3237a.7225.7225,0,0,0,.7217-.7217v-.27a3.97,3.97,0,0,0,.4336-.1794l.19.19a.7218.7218,0,0,0,1.0207,0l.8392-.8391a.7227.7227,0,0,0,0-1.0207l-.19-.19a3.9773,3.9773,0,0,0,.1794-.4336h.27a.7225.7225,0,0,0,.7217-.7217V10.2512A.7226.7226,0,0,0,9.7877,9.5294ZM9.547,11.1973H9.1583a.4812.4812,0,0,0-.4676.3678,3.0219,3.0219,0,0,1-.3573.8635.4811.4811,0,0,0,.0706.5908l.2746.2745-.4989.4989-.2746-.2746a.4814.4814,0,0,0-.5907-.0706,3.0227,3.0227,0,0,1-.8635.3573.4811.4811,0,0,0-.3678.4676v.3887H5.3774v-.3887a.4811.4811,0,0,0-.3678-.4676,3.0227,3.0227,0,0,1-.8635-.3573.4808.4808,0,0,0-.5907.0706l-.2746.2746-.4989-.4989.2746-.2745a.4813.4813,0,0,0,.0706-.5908,3.0218,3.0218,0,0,1-.3573-.8635.4811.4811,0,0,0-.4676-.3678H1.9134v-.7056h.3887a.4812.4812,0,0,0,.4676-.3678A3.0218,3.0218,0,0,1,3.127,9.26.4811.4811,0,0,0,3.0565,8.67l-.2746-.2745.4989-.4989.2746.2746a.4812.4812,0,0,0,.5907.0706A3.0227,3.0227,0,0,1,5.01,7.8841a.4811.4811,0,0,0,.3678-.4676V7.0277H6.083v.3887a.4811.4811,0,0,0,.3678.4676,3.0227,3.0227,0,0,1,.8635.3573.4812.4812,0,0,0,.5907-.0706L8.18,7.8962l.4989.4989L8.4039,8.67a.4813.4813,0,0,0-.0706.5908,3.0219,3.0219,0,0,1,.3573.8635.4811.4811,0,0,0,.4676.3678h.3887v.7056Z" fill="#0088cc"/><path d="M5.73,8.5031a2.3414,2.3414,0,1,0,2.3414,2.3414A2.3441,2.3441,0,0,0,5.73,8.5031Zm0,3.7206a1.3792,1.3792,0,1,1,1.3792-1.3792A1.3807,1.3807,0,0,1,5.73,12.2237Z" fill="#0088cc"/><path d="M26.5945,25.4383h-.27a3.97,3.97,0,0,0-.1794-.4336l.1905-.19a.7227.7227,0,0,0,0-1.0207l-.8391-.8391a.7218.7218,0,0,0-1.0206,0l-.19.19a3.9768,3.9768,0,0,0-.4336-.1794v-.27a.7225.7225,0,0,0-.7217-.7217H21.9439a.7225.7225,0,0,0-.7217.7217v.27a3.97,3.97,0,0,0-.4336.1794l-.19-.19a.7218.7218,0,0,0-1.0207,0l-.8392.8391a.7227.7227,0,0,0,0,1.0207l.19.19a3.9768,3.9768,0,0,0-.1794.4336h-.27a.7225.7225,0,0,0-.7217.7217v1.1867a.7225.7225,0,0,0,.7217.7217h.27a3.97,3.97,0,0,0,.1794.4336l-.1905.19a.7227.7227,0,0,0,0,1.0207l.8391.8391a.7218.7218,0,0,0,1.0206,0l.19-.19a3.9768,3.9768,0,0,0,.4336.1794v.27a.7225.7225,0,0,0,.7217.7217H23.13a.7225.7225,0,0,0,.7217-.7217v-.27a3.97,3.97,0,0,0,.4336-.1794l.19.19a.7218.7218,0,0,0,1.0207,0l.8392-.8391a.7227.7227,0,0,0,0-1.0207l-.19-.19a3.9768,3.9768,0,0,0,.1794-.4336h.27a.7225.7225,0,0,0,.7217-.7217V26.16A.7226.7226,0,0,0,26.5945,25.4383Zm-.24,1.6679h-.3887a.4812.4812,0,0,0-.4676.3678,3.0218,3.0218,0,0,1-.3573.8635.4811.4811,0,0,0,.0706.5908l.2746.2745-.4989.4989-.2746-.2746a.4813.4813,0,0,0-.5907-.0706,3.0226,3.0226,0,0,1-.8635.3573.4811.4811,0,0,0-.3678.4676V30.57h-.7056v-.3887a.4811.4811,0,0,0-.3678-.4676,3.0227,3.0227,0,0,1-.8635-.3573.4809.4809,0,0,0-.5907.0706l-.2746.2746-.4989-.4989.2746-.2745a.4813.4813,0,0,0,.0706-.5908,3.0218,3.0218,0,0,1-.3573-.8635.4811.4811,0,0,0-.4676-.3678h-.3887v-.7056h.3887a.4812.4812,0,0,0,.4676-.3678,3.0218,3.0218,0,0,1,.3573-.8635.4811.4811,0,0,0-.0706-.5908l-.2746-.2745.4989-.4989.2746.2746a.4812.4812,0,0,0,.5907.0706,3.0226,3.0226,0,0,1,.8635-.3573.4811.4811,0,0,0,.3678-.4676v-.3887H22.89v.3887a.4811.4811,0,0,0,.3678.4676,3.0227,3.0227,0,0,1,.8635.3573.4812.4812,0,0,0,.5907-.0706l.2746-.2746.4989.4989-.2746.2745a.4813.4813,0,0,0-.0706.5908,3.0218,3.0218,0,0,1,.3573.8635.4811.4811,0,0,0,.4676.3678h.3887Z" fill="#0088cc"/><path d="M22.5372,24.4119a2.3414,2.3414,0,1,0,2.3414,2.3414A2.3441,2.3441,0,0,0,22.5372,24.4119Zm0,3.7206a1.3792,1.3792,0,1,1,1.3792-1.3792A1.3807,1.3807,0,0,1,22.5372,28.1325Z" fill="#0088cc"/></g></g></svg>