<svg xmlns="http://www.w3.org/2000/svg" width="35" height="33" viewBox="0 0 35 33"><title>10</title><g id="Layer_2" data-name="Layer 2"><g id="Layer_1-2" data-name="Layer 1"><rect width="35" height="33" fill="#0088cc" opacity="0"/><path d="M8.7,21.725a3.3,3.3,0,1,0,3.3,3.3A3.3033,3.3033,0,0,0,8.7,21.725Zm0,5.5a2.2,2.2,0,1,1,2.2-2.2A2.2022,2.2022,0,0,1,8.7,27.225Z" fill="#0088cc"/><path d="M27.4,21.725a3.3,3.3,0,1,0,3.3,3.3A3.3033,3.3033,0,0,0,27.4,21.725Zm0,5.5a2.2,2.2,0,1,1,2.2-2.2A2.2022,2.2022,0,0,1,27.4,27.225Z" fill="#0088cc"/><path d="M33.9126,18.6775l-4.95-7.7A.55.55,0,0,0,28.5,10.725H22.45a.55.55,0,0,0-.55.55v13.75a.55.55,0,0,0,.55.55h2.2v-1.1H23V11.825h5.2l4.7,7.3117v5.3383H30.15v1.1h3.3a.55.55,0,0,0,.55-.55v-6.05A.5486.5486,0,0,0,33.9126,18.6775Z" fill="#0088cc"/><path d="M25.2,17.875v-3.85h4.4v-1.1H24.65a.55.55,0,0,0-.55.55v4.95a.55.55,0,0,0,.55.55H32.9v-1.1H25.2Z" fill="#0088cc"/><path d="M22.45,6.875H1.55a.55.55,0,0,0-.55.55v17.6a.55.55,0,0,0,.55.55h4.4v-1.1H2.1V7.975H21.9v16.5H11.45v1.1h11a.55.55,0,0,0,.55-.55V7.425A.55.55,0,0,0,22.45,6.875Z" fill="#0088cc"/><rect x="1.55" y="22.275" width="3.3" height="1.1" fill="#0088cc"/><rect x="12.55" y="22.275" width="9.35" height="1.1" fill="#0088cc"/><rect x="31.25" y="22.275" width="2.2" height="1.1" fill="#0088cc"/><rect x="3.2" y="9.075" width="19.2501" height="1.1" fill="#0088cc"/><rect x="8.15" y="24.475" width="1.1" height="1.1" fill="#0088cc"/><rect x="26.8501" y="24.475" width="1.1" height="1.1" fill="#0088cc"/><rect x="3.2" y="4.675" width="7.7" height="1.1" fill="#0088cc"/><rect x="1" y="4.675" width="1.1" height="1.1" fill="#0088cc"/></g></g></svg>