<svg xmlns="http://www.w3.org/2000/svg" width="27.9064" height="33" viewBox="0 0 27.9064 33"><title>9</title><g id="Layer_2" data-name="Layer 2"><g id="Layer_1-2" data-name="Layer 1"><path d="M13.4692,1.7541A1.8372,1.8372,0,1,0,15.3021,3.59,1.8357,1.8357,0,0,0,13.4692,1.7541Zm0,2.71a.8724.8724,0,1,1,.8681-.8734A.871.871,0,0,1,13.4692,4.4636Z" fill="#0088cc"/><path d="M10.6824,2.2254H10.273a.4824.4824,0,1,0,0,.9648h.4094a.4824.4824,0,1,0,0-.9648Z" fill="#0088cc"/><path d="M10.6824,4.0782H10.273a.4824.4824,0,1,0,0,.9648h.4094a.4824.4824,0,1,0,0-.9648Z" fill="#0088cc"/><path d="M16.7654,2.2254h-.4076a.4824.4824,0,1,0,0,.9648h.4076a.4824.4824,0,1,0,0-.9648Z" fill="#0088cc"/><path d="M16.7654,4.0782h-.4076a.4824.4824,0,1,0,0,.9648h.4076a.4824.4824,0,1,0,0-.9648Z" fill="#0088cc"/><path d="M26.4613,0H1.4452A1.4487,1.4487,0,0,0,0,1.4489V31.5511A1.4487,1.4487,0,0,0,1.4452,33H26.4613a1.4487,1.4487,0,0,0,1.4452-1.4489V1.4489A1.4487,1.4487,0,0,0,26.4613,0ZM7.8321,32.0352H1.4452a.4829.4829,0,0,1-.48-.4842V29.9579H7.8321Zm19.11-.4842a.4831.4831,0,0,1-.4806.4842H8.7968V29.9579H26.9419Zm0-25.2457H15.2092a.4824.4824,0,1,0,0,.9648H26.9419v21.723H.9648V7.27H12.7829a.4824.4824,0,1,0,0-.9648H.9648V1.4489a.4829.4829,0,0,1,.48-.4842H26.4613a.4831.4831,0,0,1,.4806.4842Z" fill="#0088cc"/><path d="M25.209,1.8691H19.552a.7914.7914,0,0,0-.79.7911V4.522a.7914.7914,0,0,0,.79.7913h5.657a.7915.7915,0,0,0,.79-.7913V2.66A.7914.7914,0,0,0,25.209,1.8691Zm-.1747,2.4794H19.7267V2.8339h5.3076Z" fill="#0088cc"/><path d="M6.0858,13.37a.4824.4824,0,1,0,.8424.47,8.0953,8.0953,0,1,1-.7868,1.9923.4824.4824,0,1,0-.9361-.2339,9.0322,9.0322,0,1,0,.88-2.2287Z" fill="#0088cc"/><path d="M19.6519,15.5211a.4821.4821,0,0,0,.2717-.6662,6.6539,6.6539,0,1,0-5.97,9.605,6.6049,6.6049,0,0,0,3.5638-1.04,6.6806,6.6806,0,0,0,2.4064-2.697.4824.4824,0,0,0-.2717-.6664.5537.5537,0,0,1-.3673-.5212V16.0405A.5521.5521,0,0,1,19.6519,15.5211Zm-.8029,5.1663a5.64,5.64,0,0,1-4.8957,2.8077,5.7062,5.7062,0,0,1,0-11.4122A5.6378,5.6378,0,0,1,18.849,14.89a1.5185,1.5185,0,0,0-.5292,1.15v3.4953A1.5217,1.5217,0,0,0,18.849,20.6874Z" fill="#0088cc"/><path d="M6.689,2.2639H4.1517a1.2552,1.2552,0,0,0,0,2.51H6.689a1.2552,1.2552,0,0,0,0-2.51Zm0,1.5456H4.1517a.2906.2906,0,0,1,0-.5811H6.689a.2906.2906,0,0,1,0,.5811Z" fill="#0088cc"/></g></g></svg>