<svg xmlns="http://www.w3.org/2000/svg" width="33" height="32.9999" viewBox="0 0 33 32.9999"><title>1</title><g id="Layer_2" data-name="Layer 2"><g id="Layer_1-2" data-name="Layer 1"><path d="M27.1164,19.1726a1.183,1.183,0,0,0-.7261-1.0309c-.4382-.1787-1.2528-.2641-3.2917.94a3.4984,3.4984,0,0,0-.2447-2.338c.7029-.8774,1.5045-2.0836,1.3926-2.9791a1.193,1.193,0,0,0-.7325-1.0419c-1.6515-.6715-5.4026,2.3422-6.798,3.4576a3.1581,3.1581,0,0,0-.2-1.4455c.6853-.8386,1.5216-2.05,1.41-2.9432a1.1642,1.1642,0,0,0-.7081-1.0051c-.9337-.38-2.4478.4556-3.5053,1.1169-1.5939.9966-1.5527,1.0389-12.5461,9.86A3.1027,3.1027,0,0,0,0,24.1951v6.8886A1.9184,1.9184,0,0,0,1.9162,33H2.9519a.4834.4834,0,1,0,0-.9668H1.9162a.95.95,0,0,1-.9493-.9493V30.0584L14.4563,19.2342c.4147,2.33,3.0214,2.44,4.5135,1.3462a25.6044,25.6044,0,0,0,3.17-3.0009,2.5416,2.5416,0,0,1-.8561,2.6578c-.0087.007-2.014,1.6159-14.704,11.7959H5.2079a.4834.4834,0,1,0,0,.9668H15.4518A3.9574,3.9574,0,0,0,17.92,32.132L21.3117,29.41a.4835.4835,0,0,0-.6052-.7541l-3.3916,2.7217a2.9876,2.9876,0,0,1-1.8632.6552H8.1285l9.2837-7.4495a2.6664,2.6664,0,0,0,.415,1.0575,2.9228,2.9228,0,0,0,3.6565.5084,17.2882,17.2882,0,0,0,2.7184-2.3376,2.6382,2.6382,0,0,1-.8834,2.7484l-.8526.6842a.4835.4835,0,1,0,.6052.7541l.8525-.6842a3.6091,3.6091,0,0,0,1.0194-4.2838C25.5279,22.3876,27.2781,20.4585,27.1164,19.1726ZM14.2316,12.7193c1.9407-1.2124,2.5246-1.0764,2.6219-1.0367.0265.0108.0885.036.1127.2294.1545,1.2346-3.6654,4.9411-4.7087,5.6314a1.95,1.95,0,0,1-2.4193-.08,2.3073,2.3073,0,0,1-.3-1.1778A49.7307,49.7307,0,0,1,14.2316,12.7193Zm.3484,5.1754L.9669,28.798V24.1951a2.14,2.14,0,0,1,.8044-1.677L8.64,17.0066a2.0477,2.0477,0,0,0,1.329,1.6975,3.0653,3.0653,0,0,0,2.1815-.0235,14.766,14.766,0,0,0,3.598-3.0661A2.4265,2.4265,0,0,1,14.58,17.8947Zm3.8252,1.9007c-.9819.7236-2.3735.5925-2.7806-.0965a2.5443,2.5443,0,0,1-.2651-1.1894,52.387,52.387,0,0,1,4.9862-3.79c2.0686-1.2923,2.699-1.1437,2.8045-1.1009.0355.0144.1094.0445.1371.2661C23.454,15.2192,19.5139,18.9805,18.4051,19.7954Zm2.7939,5.4c-.8016.5154-2.1649.5732-2.618-.1673a2.5225,2.5225,0,0,1-.2679-1.1673,48.7528,48.7528,0,0,1,4.9373-3.74c2.0484-1.2723,2.6711-1.1256,2.7751-1.0831.034.0139.1048.0427.1316.2562C26.3243,20.6244,22.2179,24.5351,21.199,25.1951Z" fill="#0088cc"/><path d="M32.5165,2.6073A.4833.4833,0,0,0,33,2.1239V1.2991A1.3006,1.3006,0,0,0,31.7009,0h-4.487a1.3005,1.3005,0,0,0-1.2991,1.2991V4.37a1.4644,1.4644,0,0,0,1.0584,1.4024l1.0151.2895v4.0016a1.3931,1.3931,0,0,0,.2459.7917,7.1169,7.1169,0,0,1-2.1373,4.9689.98.98,0,0,0,.01,1.5066c.8316.6126,1.0972,1.1063,1.7881,1.1063a1.2415,1.2415,0,0,0,1.1144-.6855,15.9449,15.9449,0,0,0,1.457-6.7932,1.3947,1.3947,0,0,0,.3238-.8947V6.8606a1.75,1.75,0,0,0,1.6784-.0736A1.3249,1.3249,0,0,0,33,5.7209V4.38a.4834.4834,0,1,0-.9668,0V5.7209a.3656.3656,0,0,1-.1466.2944c-.2458.1857-.4184-.009-1.4468-.26l-3.2013-.9128a.4934.4934,0,0,1-.3567-.4726V1.2991a.3366.3366,0,0,1,.3322-.3322h4.487a.3366.3366,0,0,1,.3322.3322v.8248A.4831.4831,0,0,0,32.5165,2.6073Zm-4.3711,14.71a.2787.2787,0,0,1-.4267.0879l-.997-.8213a.0171.0171,0,0,1-.0059-.0177,7.6344,7.6344,0,0,0,2.4391-5.1214,1.443,1.443,0,0,0,.3283.0162A14.57,14.57,0,0,1,28.1455,17.3174Zm.81-10.98.8684.2476v3.4782a.4342.4342,0,0,1-.8684,0Z" fill="#0088cc"/></g></g></svg>