<svg xmlns="http://www.w3.org/2000/svg" width="32.8615" height="33" viewBox="0 0 32.8615 33"><title>8</title><g id="Layer_2" data-name="Layer 2"><g id="Layer_1-2" data-name="Layer 1"><path d="M12.7716,16.3888h-.874a1.1507,1.1507,0,0,1-1.1107-1.1847v-.9288a1.1506,1.1506,0,0,1,1.1107-1.1845h.874a1.1506,1.1506,0,0,1,1.1107,1.1845v.9288A1.1505,1.1505,0,0,1,12.7716,16.3888Zm-.874-2.2766a.16.16,0,0,0-.1512.1631v.9288a.16.16,0,0,0,.1512.1633h.874a.16.16,0,0,0,.1514-.1633v-.9288a.16.16,0,0,0-.1514-.1631Z" fill="#0088cc"/><path d="M30.34,25.8573h-.3869v-.8818a1.1688,1.1688,0,0,0-.9685-1.1783V15.79a1.4532,1.4532,0,0,0,.9685-1.3945v-4.71a1.4387,1.4387,0,0,0-1.1214-1.4337,10.2333,10.2333,0,0,0-3.17-5.8427.46.46,0,0,0-.6764.0563.5339.5339,0,0,0,.0532.72A9.1862,9.1862,0,0,1,27.85,8.2263H26.12a6.9051,6.9051,0,0,0-6.5722-5.4106,6.88,6.88,0,0,0-6.4118,4.8526H11.3714a8.6143,8.6143,0,0,1,8.1763-6.6469,8.0346,8.0346,0,0,1,3.8254.9773.4663.4663,0,0,0,.6456-.2226.5273.5273,0,0,0-.2091-.6872A8.9535,8.9535,0,0,0,19.5479,0,9.6092,9.6092,0,0,0,10.38,7.6712,1.1838,1.1838,0,0,0,9.2912,8.8839v.9448a9.5685,9.5685,0,0,0-5.97,2.2573C1.1174,14.0482,0,17.1543,0,21.318v8.9912A1.7974,1.7974,0,0,0,1.7364,32.158h8.9417A4.5055,4.5055,0,0,0,13.2938,33a4.9027,4.9027,0,0,0,4.7372-5.0429,5.149,5.149,0,0,0-1.9388-4.0658l.0221-4.4573a.4959.4959,0,0,0-.4771-.5132h-.0025a.4956.4956,0,0,0-.48.5079l-.02,3.8824a4.4618,4.4618,0,0,0-1.8417-.3969,4.9019,4.9019,0,0,0-4.7355,5.0429,5.2223,5.2223,0,0,0,1.0633,3.18H6.3757V22.61l0-.0112c-.1274-6.1019,1.7981-9.95,5.8835-11.7637h2.1175a.8061.8061,0,0,1,.7787.8295v5.409a.4806.4806,0,1,0,.9592,0v-5.409A1.8526,1.8526,0,0,0,14.99,9.9336v-1.05a1.2062,1.2062,0,0,0-.8437-1.1724,5.8855,5.8855,0,0,1,5.4011-3.8744,5.9224,5.9224,0,0,1,5.6185,4.5473,1.4717,1.4717,0,0,0-.7526,1.3011v4.71a1.4527,1.4527,0,0,0,.9683,1.3948v8.0072a1.1686,1.1686,0,0,0-.9683,1.1783v.8815h-.4613a2.61,2.61,0,0,0-2.5214,2.6852v1.3865a1.2642,1.2642,0,0,0,1.2212,1.3005h8.99a1.2634,1.2634,0,0,0,1.2195-1.3005V28.5424A2.61,2.61,0,0,0,30.34,25.8573ZM13.2938,23.9354a4.0295,4.0295,0,0,1,0,8.0432,4.03,4.03,0,0,1,0-8.0432ZM6.7585,14.9041a17.4436,17.4436,0,0,0-1.3423,7.7115v8.521h-3.68a.8044.8044,0,0,1-.777-.8276V21.318c0-9.1209,5.6047-10.4829,8.9455-10.4829h.2813A9.8872,9.8872,0,0,0,6.7585,14.9041Zm5.4086-5.09H10.25v-.93a.19.19,0,0,1,.18-.1943h3.42a.19.19,0,0,1,.18.1943v.93Zm14.1741,6.04h1.684v7.9311h-1.684Zm-.9685-6.1689a.43.43,0,0,1,.4089-.4374h2.8015a.425.425,0,0,1,.41.4374v4.71a.425.425,0,0,1-.41.4374H25.7816a.43.43,0,0,1-.4089-.4374Zm0,15.29a.1663.1663,0,0,1,.1587-.1689h3.3037a.1682.1682,0,0,1,.1585.1689v.8818H25.3727Zm6.5293,4.9532a.27.27,0,0,1-.26.2792h-8.99a.2747.2747,0,0,1-.262-.2792V28.5422a1.6173,1.6173,0,0,1,1.5622-1.6638H30.34a1.6172,1.6172,0,0,1,1.5619,1.6638Z" fill="#0088cc"/><path d="M13.2938,30.0146a2.0615,2.0615,0,0,0,0-4.1149,2.0615,2.0615,0,0,0,0,4.1149Zm0-3.0935a1.0381,1.0381,0,1,1-.9728,1.0361A1.007,1.007,0,0,1,13.2938,26.9211Z" fill="#0088cc"/></g></g></svg>