<svg xmlns="http://www.w3.org/2000/svg" width="29" height="33" viewBox="0 0 29 33"><title>3</title><g id="Layer_2" data-name="Layer 2"><g id="Layer_1-2" data-name="Layer 1"><path d="M28.9794,31.31l-1.4465-8.5467a2.4254,2.4254,0,0,0-1.6894-1.93L21.942,19.6451a4.3992,4.3992,0,0,0-1.1226-2.5894,4.3437,4.3437,0,0,0-1.897-1.2245c.1235-.1383.238-.2762.3431-.411a7.6766,7.6766,0,0,0,1.551-3.3982h.301a1.4279,1.4279,0,0,0,1.42-1.4329V9.8546a1.4448,1.4448,0,0,0-.7359-1.253V6.8353a.4788.4788,0,1,0-.9576,0V8.8181a2.9308,2.9308,0,0,0-.6366.1859.4788.4788,0,0,0-.0674.03c-.0514.0237-.1029.0486-.1542.0767V5.2167a1.9445,1.9445,0,0,0-1.9333-1.9512H16.7305a1.9753,1.9753,0,0,0-1.2541.4515l-.13.107a1.3281,1.3281,0,0,1-1.6933,0l-.13-.107A1.9756,1.9756,0,0,0,12.27,3.2655H10.9479A1.9445,1.9445,0,0,0,9.0146,5.2167V9.1111c-.0513-.0281-.1028-.053-.1542-.0767a.478.478,0,0,0-.0674-.03,2.9318,2.9318,0,0,0-.6366-.1859V3.8043A2.8282,2.8282,0,0,1,10.9684.9665h7.0633a2.8281,2.8281,0,0,1,2.8119,2.8379v.76a.4788.4788,0,1,0,.9576,0v-.76A3.7914,3.7914,0,0,0,18.0317,0H10.9684a3.7913,3.7913,0,0,0-3.77,3.8043V8.6016a1.4447,1.4447,0,0,0-.7359,1.253v.7345a1.4279,1.4279,0,0,0,1.42,1.4329h.301A7.6759,7.6759,0,0,0,9.7347,15.42c.1049.1347.2194.2724.3428.4106a4.4,4.4,0,0,0-3.0193,3.8143L3.1565,20.8332a2.4253,2.4253,0,0,0-1.6894,1.93L.88,26.2343a.479.479,0,1,0,.944.1627l.5874-3.4707a1.467,1.467,0,0,1,1.022-1.1678L7.0417,20.66v.9559a2.4012,2.4012,0,0,0-1.8209,1.5216,2.47,2.47,0,0,0-.1422.6563L4.73,28.3112a1.2387,1.2387,0,0,0,.32.93,1.2155,1.2155,0,0,0,.8934.3942H6.54a.4833.4833,0,0,0,0-.9665h-.597a.2588.2588,0,0,1-.19-.084.2639.2639,0,0,1-.0681-.1981l.3488-4.5179a1.4955,1.4955,0,0,1,.0861-.3975A1.4483,1.4483,0,0,1,7.4749,22.54l.0789-.0006h.011a1.4341,1.4341,0,0,1,1.337.8654,1.4935,1.4935,0,0,1,.1121.464l.3489,4.518a.2643.2643,0,0,1-.0682.1981.2591.2591,0,0,1-.19.084H8.507a.4833.4833,0,0,0,0,.9665h.597a1.2152,1.2152,0,0,0,.8934-.3942,1.2387,1.2387,0,0,0,.32-.93l-.3489-4.5179a2.4661,2.4661,0,0,0-.1851-.766,2.3744,2.3744,0,0,0-1.7842-1.4151V20.368l1.646-.5013c.15.3183.4465,1.0062,1.0344,2.4891.5925,1.4962,1.3289,3.414,2.0351,5.2784q.0076.0235.0174.0459c.4713,1.2447.9285,2.4637,1.32,3.5153a.4773.4773,0,0,0,.8966,0c.391-1.0516.8482-2.2707,1.32-3.5153a.4835.4835,0,0,0,.0174-.0459c.7058-1.8633,1.4418-3.78,2.034-5.2756.5886-1.4848.8857-2.1733,1.0355-2.4919l1.646.5013v2.8543a2.4773,2.4773,0,1,0,.9576.0021V20.66l3.6087,1.0989a1.4671,1.4671,0,0,1,1.022,1.1678l1.4465,8.5467a.4755.4755,0,0,1-.1052.39.4667.4667,0,0,1-.3634.17H1.4332a.4666.4666,0,0,1-.3634-.17.4756.4756,0,0,1-.1052-.39l.4774-2.8206a.479.479,0,1,0-.944-.1627L.0206,31.31a1.4533,1.4533,0,0,0,.3173,1.1761A1.4251,1.4251,0,0,0,1.4332,33H27.5668a1.4249,1.4249,0,0,0,1.0953-.5136A1.4533,1.4533,0,0,0,28.9794,31.31Zm-8.13-21.5076a2.037,2.037,0,0,1,.4622-.063.4858.4858,0,0,0,.234-.0561.4615.4615,0,0,1,.0339.1711v.7345a.4648.4648,0,0,1-.4621.4664h-.268V9.8026ZM8.1507,11.0555h-.268a.4648.4648,0,0,1-.4621-.4664V9.8546a.4622.4622,0,0,1,.0339-.171.4847.4847,0,0,0,.234.056,2.1161,2.1161,0,0,1,.4622.0632v1.2526Zm.9576.5419v-1.27a.663.663,0,0,0,.45-.0238.677.677,0,0,0,.4136-.6262V5.2167a.9814.9814,0,0,1,.9757-.9847H12.27a1.0207,1.0207,0,0,1,.648.2333l.13.107a2.2792,2.2792,0,0,0,2.9056,0l.13-.107a1.0205,1.0205,0,0,1,.648-.2333h1.3216a.9814.9814,0,0,1,.9757.9847V9.6778a.677.677,0,0,0,.4136.6262.6635.6635,0,0,0,.45.0242v1.2691a6.281,6.281,0,0,1-1.3791,3.2254A6.3419,6.3419,0,0,1,17.365,15.97a.48.48,0,0,0-.0427.0325,4.6335,4.6335,0,0,1-5.6445,0,.4861.4861,0,0,0-.0426-.0324,6.3468,6.3468,0,0,1-1.1477-1.1477A6.2814,6.2814,0,0,1,9.1083,11.5974Zm8.5287,7.8075L14.5,21.7712l-3.137-2.3663a2.305,2.305,0,0,0,.4854-1.3683v-.779a5.5778,5.5778,0,0,0,5.3032,0v.779A2.305,2.305,0,0,0,17.637,19.4049Zm-7.073-.5394a1.2979,1.2979,0,0,0-.8074-.041l-.0344.0093-1.6542.5038A3.4155,3.4155,0,0,1,10.8908,16.63v1.4066A1.2843,1.2843,0,0,1,10.5639,18.8655Zm1.3,3.8793-.0026-.0067-.072-.1834-.0128-.0327-.069-.1754-.0048-.0122q-.1064-.27-.2051-.5181l-.0144-.0361-.0559-.14-.02-.05-.0531-.1327-.0155-.0386-.093-.2311-.0247-.061-.0351-.0864-.0373-.0918-.014-.0344-.0107-.0263q-.083-.2034-.1577-.3836L10.9642,20.5c-.0266-.064-.0526-.1265-.0775-.1861l-.0383-.091,2.6979,2.035-1.1273.4833-.006.0026-.4707.2018Zm1.1425,2.9589q-.1419-.3715-.2853-.7457-.224-.5838-.4284-1.1119l.1787-.0766.73.8565Zm1.5033,3.9276a.482.482,0,0,0-.049-.0811c-.2164-.5772-.491-1.3075-.7949-2.111l.447-2.47h.7752l.447,2.47C15.0161,28.281,14.73,29.0422,14.5093,29.6314Zm.5579-5.6288H13.9328l-.5368-.63L14.5,22.9l1.1039.4733Zm1.2122.9555q-.1432.3733-.2853.7457l-.195-1.0777.73-.8565.1787.0766Q16.503,24.3749,16.2794,24.9581Zm1.834-4.6437c-.0237.0565-.0483.1157-.0734.1762l-.01.0237c-.0248.06-.05.1212-.0763.1849l-.0052.0129-.0694.17-.013.0317-.0162.04-.0319.0784-.04.0979-.013.0322q-.05.1237-.1026.2547l-.0164.0409-.0526.1314-.0208.0521-.0554.1389-.0158.04q-.0974.2448-.2023.5108l-.0069.0175-.0686.1743-.013.0329-.0724.1844-.0013.0034-.08.2037-.4711-.202-.0049-.0021-1.128-.4836,2.6979-2.035Zm1.1645-1.48h0l-.0012,0a1.2973,1.2973,0,0,0-.84.0321,1.284,1.284,0,0,1-.3269-.8289V16.6292a3.3888,3.3888,0,0,1,2.8248,2.7089Zm3.716,6.8427a1.52,1.52,0,1,1-1.52-1.534A1.5287,1.5287,0,0,1,22.9939,25.6765Z" fill="#0088cc"/></g></g></svg>