<svg xmlns="http://www.w3.org/2000/svg" width="33" height="32.9998" viewBox="0 0 33 32.9998"><title>11</title><g id="Layer_2" data-name="Layer 2"><g id="Layer_1-2" data-name="Layer 1"><path d="M8.3018,21.7443a.6874.6874,0,0,0-.9689.0811c-.0969.1147-.1908.23-.2789.3424a.6875.6875,0,1,0,1.0827.8476c.0775-.0989.16-.2006.2461-.3022A.6876.6876,0,0,0,8.3018,21.7443Z" fill="#0088cc"/><path d="M16.5,4.1251c.1178,0,.2345.0038.3473.0112.0155.0011.0306.0014.0458.0014a.6875.6875,0,0,0,.0443-1.3736c-.1426-.0093-.29-.0141-.4373-.0141a.6876.6876,0,0,0,0,1.3751Z" fill="#0088cc"/><path d="M32.3124,31.6248H31.2812V29.5622a14.7706,14.7706,0,0,0-7.467-12.845,16.6192,16.6192,0,0,0,.7274-3.097c.0368-.2236.0759-.4111.1212-.6282.0481-.2307.1043-.5.1692-.8726h.4772a.6876.6876,0,0,0,.6875-.6875A2.728,2.728,0,0,0,25.1848,9.51l.0052-.0466c.0407-.3556.053-.4675.0559-.5249a7.1733,7.1733,0,0,0-.1967-2.4016A9.2239,9.2239,0,0,0,21.7774,1.72a8.9563,8.9563,0,0,0-10.555,0A9.2247,9.2247,0,0,0,7.9506,6.5368a7.0777,7.0777,0,0,0-.2,2.3446c.0033.0676.02.2377.0547.5832l.005.05a2.7253,2.7253,0,0,0-.8074,1.9171.6876.6876,0,0,0,.6875.6875h.4772c.0639.3673.1189.6317.1694.8737.0452.2167.0843.4039.121.6273a16.6229,16.6229,0,0,0,.7273,3.0967,14.7714,14.7714,0,0,0-7.4668,12.845v2.0626H.6875a.6875.6875,0,1,0,0,1.375h31.625a.6875.6875,0,1,0,0-1.375ZM9.2681,6.93a7.4847,7.4847,0,0,1,14.4636,0,5.3949,5.3949,0,0,1,.1537,1.6271,9.0627,9.0627,0,0,0-1.3543-.577,4.475,4.475,0,0,0-.1826-.8659,6.2377,6.2377,0,0,0-3.2792-3.8233.6876.6876,0,0,0-.5716,1.2507,4.8805,4.8805,0,0,1,2.5447,3.0025l.01.03A21.7657,21.7657,0,0,0,16.5,7.1213,16.6849,16.6849,0,0,0,9.1146,8.5574,5.3983,5.3983,0,0,1,9.2681,6.93Zm-.68,3.8139A4.3306,4.3306,0,0,1,10.68,9.36a17.9048,17.9048,0,0,1,5.82-.8639,17.9027,17.9027,0,0,1,5.82.8639,4.33,4.33,0,0,1,2.0912,1.3841Zm14.8466,1.375c-.043.2311-.0819.4177-.1182.5919-.0465.2229-.09.4333-.1319.6859-.5774,3.5068-.9415,3.7383-2.4743,4.7133-.2559.1627-.5452.3467-.8672.5647a6.3324,6.3324,0,0,1-6.6867,0c-.3221-.218-.6115-.4021-.8673-.5648-1.5329-.9752-1.897-1.2068-2.4744-4.7134-.0415-.2522-.0853-.4623-.1317-.6847-.0364-.1744-.0753-.3613-.1184-.5931h13.87ZM24.75,31.6248H8.25v-2.75h7.5627V30.25a.6875.6875,0,0,0,1.375,0V28.8747H24.75v2.75ZM9.5226,27.5l1.7188-1.3748h4.5712V27.5Zm7.6649,0V26.1248h4.5711L23.4775,27.5Zm12.7184,4.125H26.1246V28.2191l.0016-.032a.685.685,0,0,0-.2507-.5294l-.0028-.0023c-.0109-.0089-.0213-.0184-.0328-.0266L22.4289,24.9A.6869.6869,0,0,0,22,24.75H11a.6878.6878,0,0,0-.4294.1506L7.133,27.65l-.0033.003-.0176.0152-.0283.0258-.0168.0171-.0255.028-.0152.018c-.0084.01-.0164.0213-.0241.0322l-.0122.0168c-.01.0157-.02.0318-.0292.0482l-.0126.0247-.0135.0282-.0121.029-.01.0265-.01.03-.0084.0327c-.0033.0137-.0063.0275-.0087.0416l-.0061.04-.0022.0249-.002.0405-.0008.0144v3.4377H3.0937V29.5621A13.3573,13.3573,0,0,1,9.853,17.9174a5.105,5.105,0,0,0,1.1412.99,12.1374,12.1374,0,0,0-1.9175,1.2347.6874.6874,0,1,0,.85,1.08,10.7566,10.7566,0,0,1,1.7395-1.1154l.6551-.3359.0845.0565c.0137.0093.0278.0182.0422.0265a8.0613,8.0613,0,0,0,4.05,1.156H16.5a8.0635,8.0635,0,0,0,4.0521-1.1562c.0144-.0083.0283-.017.042-.0265.3138-.2128.6012-.3954.8547-.5567a6.7025,6.7025,0,0,0,1.6983-1.3531A13.3573,13.3573,0,0,1,29.906,29.562Z" fill="#0088cc"/></g></g></svg>