<svg xmlns="http://www.w3.org/2000/svg" width="33" height="33" viewBox="0 0 33 33"><title>7</title><g id="Layer_2" data-name="Layer 2"><g id="Layer_1-2" data-name="Layer 1"><path d="M22.5593,16.2186v-.94a3.6379,3.6379,0,0,0,.55-.3129l.8032.47a.5452.5452,0,0,0,.7481-.207.5641.5641,0,0,0-.198-.7605l-1.1-.66a.5433.5433,0,0,0-.6326.0614,2.7884,2.7884,0,0,1-.8693.509.5585.5585,0,0,0-.3686.5257v.7551H20.3587v-.7551a.5589.5589,0,0,0-.3686-.5257,2.7884,2.7884,0,0,1-.8693-.509.5433.5433,0,0,0-.6326-.0614l-.6382.38-.55-.9732.6382-.3523a.5623.5623,0,0,0,.2694-.5871,2.6493,2.6493,0,0,1,0-1.018.5626.5626,0,0,0-.2694-.6319L17.3,10.2514l.55-.9732.6382.38a.5428.5428,0,0,0,.6326-.0614,2.7884,2.7884,0,0,1,.8693-.509.5589.5589,0,0,0,.3686-.5257V7.83h1.1v.7551a.5585.5585,0,0,0,.3686.5257,2.7884,2.7884,0,0,1,.8693.509.5433.5433,0,0,0,.6326.0614l.6382-.38.55.9732-.6382.3523a.5619.5619,0,0,0-.2694.5871,2.6493,2.6493,0,0,1,0,1.018.5626.5626,0,0,0,.2694.6319l1.1.6543a.545.545,0,0,0,.7481-.2013.5657.5657,0,0,0,.0575-.4249A.5581.5581,0,0,0,25.53,12.55l-.77-.4921v-.6264l.7978-.47a.56.56,0,0,0,.2555-.3413.5682.5682,0,0,0-.0575-.4249l-1.1-1.935a.5453.5453,0,0,0-.7481-.207l-.7978.47a3.6162,3.6162,0,0,0-.55-.3132V7.27a.5548.5548,0,0,0-.55-.5593H19.8086a.5548.5548,0,0,0-.55.5593v.94a3.6034,3.6034,0,0,0-.55.3132l-.8032-.47a.5452.5452,0,0,0-.7481.207l-1.1,1.935a.5657.5657,0,0,0-.0575.4249.5581.5581,0,0,0,.2555.3413l.7975.47v.6264l-.7975.47a.5581.5581,0,0,0-.2555.3413.5656.5656,0,0,0,.0575.4249l1.1,1.935a.5452.5452,0,0,0,.7481.207l.8032-.47a3.6249,3.6249,0,0,0,.55.3129v.94a.5548.5548,0,0,0,.55.5593h2.2006A.5548.5548,0,0,0,22.5593,16.2186Z" fill="#0088cc"/><path d="M19.2584,11.7445a1.6506,1.6506,0,1,0,1.65-1.6778A1.6644,1.6644,0,0,0,19.2584,11.7445Zm2.2006,0a.55.55,0,1,1-.55-.5593A.5548.5548,0,0,1,21.459,11.7445Z" fill="#0088cc"/><path d="M12.6567,10.626a1.678,1.678,0,1,0-1.65-1.6778A1.6644,1.6644,0,0,0,12.6567,10.626Zm0-2.237a.5593.5593,0,1,1-.55.5593A.5548.5548,0,0,1,12.6567,8.389Z" fill="#0088cc"/><path d="M18.3121,17.5441a.5446.5446,0,0,0-.7755,0L15.2038,19.921l-2.3381-2.3769,2.3381-2.3714a.5667.5667,0,0,0,0-.7884l-.7812-.7944a2.2236,2.2236,0,0,0-3.1082,0L8.2005,16.7779a2.2639,2.2639,0,0,0,0,3.1655l.3906.3913L.8067,28.22a2.8328,2.8328,0,0,0,0,3.96,2.7226,2.7226,0,0,0,3.895,0l6.6678-6.7838a.5664.5664,0,0,0-.029-.7594.5436.5436,0,0,0-.7468-.0292L3.9206,31.3858a1.631,1.631,0,0,1-2.2922-.0412,1.6977,1.6977,0,0,1-.0406-2.33l7.768-7.9078.5832.5926a.5436.5436,0,0,0,.7755,0,.5656.5656,0,0,0,0-.7941l-.9681-.9842-.77-.7941a1.1319,1.1319,0,0,1,0-1.5828l3.13-3.16a1.0873,1.0873,0,0,1,1.5569,0l.3906.3913L11.716,17.1525a.566.566,0,0,0,0,.7886L14.83,21.1067a.5436.5436,0,0,0,.7755,0L17.9435,18.73l.3852.3971a1.1316,1.1316,0,0,1,0,1.5825L15.22,23.8749a1.0879,1.0879,0,0,1-1.5569,0L12.2221,22.41a.5436.5436,0,0,0-.7468.0295.5658.5658,0,0,0-.029.7592l1.4361,1.4653a2.1755,2.1755,0,0,0,3.1136,0L19.11,21.498a2.2632,2.2632,0,0,0,0-3.16Z" fill="#0088cc"/><path d="M4.3111,27.829,2.3636,29.8031a.5656.5656,0,0,0,0,.7941.5437.5437,0,0,0,.7812,0l1.9419-1.98a.5658.5658,0,0,0-.0287-.7592A.5433.5433,0,0,0,4.3111,27.829Z" fill="#0088cc"/><path d="M25.1834,22.0125a.5446.5446,0,0,0-.8472,0l-2.7507,3.3556a.5666.5666,0,0,0-.0752.5956.55.55,0,0,0,.4988.3217h1.1v1.6778a.55.55,0,1,0,1.1,0v-2.237a.5548.5548,0,0,0-.55-.5593h-.473L24.76,23.243l1.5733,1.9238H25.86a.5548.5548,0,0,0-.55.5593v3.3556a.55.55,0,1,0,1.1,0V26.2853h1.1a.55.55,0,0,0,.4988-.3217.5666.5666,0,0,0-.0752-.5956Z" fill="#0088cc"/><path d="M28.2807,7.9807A10.5513,10.5513,0,0,0,18.1581,0a10.3869,10.3869,0,0,0-9.545,6.3083,6.7985,6.7985,0,0,0-1.4578-.1565A7.2808,7.2808,0,0,0,5.9616,20.5865a.5591.5591,0,0,0,.6436-.4642.5664.5664,0,0,0-.4567-.6543,6.0775,6.0775,0,0,1-4.875-4.1063A6.226,6.226,0,0,1,2.668,9.0837,5.9842,5.9842,0,0,1,8.8057,7.5053.5477.5477,0,0,0,9.4714,7.17a9.3021,9.3021,0,0,1,8.6867-6.0511,9.444,9.444,0,0,1,9.1324,7.4662.5541.5541,0,0,0,.451.4306,4.9843,4.9843,0,0,1,4.0632,3.813A5.0753,5.0753,0,0,1,29.8586,18.09a4.8846,4.8846,0,0,1-5.528.1472.5432.5432,0,0,0-.6216,0,9.3592,9.3592,0,0,1-2.437,1.3367.5662.5662,0,0,0-.4567.6543.5591.5591,0,0,0,.6436.4642.54.54,0,0,0,.187-.0336,10.3927,10.3927,0,0,0,2.4206-1.2526,5.9173,5.9173,0,0,0,2.8939.7269,6.1625,6.1625,0,0,0,1.32-12.1527Z" fill="#0088cc"/></g></g></svg>