<svg xmlns="http://www.w3.org/2000/svg" width="26.2907" height="33" viewBox="0 0 26.2907 33"><title>5</title><g id="Layer_2" data-name="Layer 2"><g id="Layer_1-2" data-name="Layer 1"><path d="M19.5937,1.5469h-2.06V1.2891a1.2891,1.2891,0,0,0-2.5781,0v.2578H13.4073V1.2891a1.2891,1.2891,0,0,0-2.5781,0v.2578H9.2823V1.2891a1.2891,1.2891,0,1,0-2.5781,0v.2578H5.1563V1.2891a1.2891,1.2891,0,0,0-2.5781,0v.2578H.5156A.5152.5152,0,0,0,0,2.0625l.0031.015V32.4844A.5152.5152,0,0,0,.5187,33h19.074a.5152.5152,0,0,0,.5156-.5156l.001-3.0968V2.0625A.5152.5152,0,0,0,19.5937,1.5469Zm-3.6073-.2578a.2578.2578,0,0,1,.5156,0V2.8359a.2578.2578,0,0,1-.5156,0Zm-4.126,0a.2578.2578,0,0,1,.5156,0V2.8359a.2578.2578,0,0,1-.5156,0Zm-4.125,0a.2578.2578,0,1,1,.5156,0V2.8359a.2578.2578,0,0,1-.5156,0Zm-4.126,0a.2578.2578,0,0,1,.5156,0V2.8359a.2578.2578,0,0,1-.5156,0Zm15.4677,30.68H1.0343v-.5167H19.0776Zm.0005-1.5479H1.0343v-.5177H19.0781Zm.0005-1.5489H1.0343V2.5781H2.5781v.2578a1.2891,1.2891,0,0,0,2.5781,0V2.5781H6.7042v.2578a1.2891,1.2891,0,0,0,2.5781,0V2.5781h1.5469v.2578a1.2891,1.2891,0,0,0,2.5781,0V2.5781h1.5479v.2578a1.2891,1.2891,0,0,0,2.5781,0V2.5781h1.5448Z" fill="#0088cc"/><path d="M4.1446,17.0167H4.1389a.5185.5185,0,1,0,.0057,0Z" fill="#0088cc"/><path d="M6.1916,17.0167a.5156.5156,0,1,0,0,1.0313H15.476a.5156.5156,0,1,0,0-1.0312Z" fill="#0088cc"/><path d="M4.1446,19.5953H4.1389a.5185.5185,0,1,0,.0057,0Z" fill="#0088cc"/><path d="M6.1916,19.5953a.5156.5156,0,1,0,0,1.0313h7.22a.5156.5156,0,1,0,0-1.0312Z" fill="#0088cc"/><path d="M4.1446,22.1739H4.1389a.5185.5185,0,1,0,.0057,0Z" fill="#0088cc"/><path d="M15.9921,22.1739h-9.8a.5156.5156,0,1,0,0,1.0313h9.801a.5156.5156,0,1,0-.0005-1.0312Z" fill="#0088cc"/><path d="M4.1446,24.7526H4.1389a.5185.5185,0,1,0,.0057,0Z" fill="#0088cc"/><path d="M13.9281,24.7526H6.1916a.5156.5156,0,0,0,0,1.0313h7.7364a.5156.5156,0,1,0,0-1.0312Z" fill="#0088cc"/><path d="M24.7438,5.1532a1.5469,1.5469,0,1,0-3.0937,0V28.8781a.4418.4418,0,0,0,.0093.0454.5.5,0,0,0,.0206.1016.5249.5249,0,0,0,.0392.0964c.0077.0134.0088.0294.0175.0428l.9446,1.4169v.3594a.5156.5156,0,0,0,1.0313,0v-.3594l.9446-1.4169a.3391.3391,0,0,0,.0175-.0428.4785.4785,0,0,0,.0392-.0964.4676.4676,0,0,0,.0206-.1016.4421.4421,0,0,0,.0093-.0454V6.1844a.5158.5158,0,0,1,.5156.5156v9.2843a.5156.5156,0,0,0,1.0313,0V6.7a1.5488,1.5488,0,0,0-1.5469-1.5469ZM23.7126,28.7219l-.5156.7734-.5156-.7734v-.3594h1.0313Zm0-1.3906H22.6813V13.9219h1.0313Zm0-14.4406H22.6813V5.1532a.5156.5156,0,1,1,1.0313,0Z" fill="#0088cc"/><path d="M15.4765,13.9224a.5152.5152,0,0,0-.5156-.5156h-.0057v-.7755l-.0015-.0072a4.9044,4.9044,0,0,0-4.3823-4.8629V7.7333a.5156.5156,0,0,0-1.0312,0v.0278a4.9037,4.9037,0,0,0-4.3808,4.8293c-.001.0139-.0083.0263-.0083.04v.7755a.5156.5156,0,1,0,0,1.0313h9.81a.5144.5144,0,0,0,.5156-.5151Zm-1.5525-.5156H6.1823v-.7446c.0005-.0108.0062-.02.0062-.03a3.8672,3.8672,0,0,1,7.7344,0l.001.0052Z" fill="#0088cc"/><path d="M10.0557,9.2745a.5156.5156,0,1,0,0,1.0312,2.329,2.329,0,0,1,2.3265,2.326.5156.5156,0,0,0,1.0313,0A3.3613,3.3613,0,0,0,10.0557,9.2745Z" fill="#0088cc"/></g></g></svg>