<svg id="Layer_1" data-name="Layer 1" xmlns="http://www.w3.org/2000/svg" width="371" height="339" viewBox="0 0 371 339"><title>home-page-banner</title><ellipse cx="287.962" cy="315.5622" rx="24.4911" ry="2.4776" fill="#e9e8ea" opacity="0.62"/><path d="M137.9222,32.24c30.7146-.3264,61.178-5.7145,89.4051-16.6312,16.8273-6.5078,56.7366-10.5256,82.5149-6.15,22.3786,3.7983,75.6837,21.12,53.16,79.81s-51.2547,64.7926-30.1206,103.097c15.5213,28.1317,42.1932,56.0581,18.78,78.5573-36.41,34.99-185.9437,86.857-263.5693,44.6235S-5.9857,258.1134,17.38,191.9342-19.7157,117.7383,11.902,68.6621C30.8658,39.2272,92.0141,32.7275,137.9222,32.24Z" fill="#f1f3f7"/><path d="M113.8952,109.6881c-8.03,13.2364-9.3726,22.888-5.452,25.7286l29.4056-48.4711C134.7965,88.8357,121.1614,97.71,113.8952,109.6881Z" fill="#f4cf7a"/><path d="M138.4676,86.57s-.22.1292-.6188.3759l-29.4056,48.4711c.09.0654.18.1314.2759.1895,4.2581,2.5833,12.381-3.0224,20.5958-16.5635S138.4676,86.57,138.4676,86.57Z" fill="#fbdb8a"/><path d="M115.2845,124.6344q2.9547-4.9008,5.9225-9.7937,5.9252-9.7926,11.7234-19.661a.0659.0659,0,0,0-.1127-.0683q-4.0968,6.5582-8.1407,13.1491a30.8834,30.8834,0,0,0-1.624-6.4175.1145.1145,0,0,0-.2138.0523,31.7439,31.7439,0,0,0,1.6175,6.7245q-1.8329,2.9843-3.6607,5.9716-2.9739,4.889-5.95,9.7768c-1.9759,3.2368-4.1913,6.4235-5.8962,9.81a.21.21,0,0,0,.3582.2174C111.5234,131.3193,113.3267,127.8817,115.2845,124.6344Z" fill="#2e5175"/><path d="M117.6006,120.4525a64.5656,64.5656,0,0,0-2.6642-10.7824.0719.0719,0,0,0-.14.0342,64.5514,64.5514,0,0,0,2.6178,10.7937A.0958.0958,0,0,0,117.6006,120.4525Z" fill="#2e5175"/><path d="M129.4671,112.3666c-1.4539.2674-2.8961.5944-4.3414.9053a18.8845,18.8845,0,0,0-3.8511,1.0608.1084.1084,0,0,0,.05.2025,18.869,18.869,0,0,0,3.9055-.8382c1.4253-.3919,2.8556-.768,4.2686-1.2026A.0659.0659,0,0,0,129.4671,112.3666Z" fill="#2e5175"/><path d="M121.7884,124.6708a56.51,56.51,0,0,0-7.4706,1.7612.12.12,0,0,0,.0569.2326,56.4935,56.4935,0,0,0,7.44-1.8892A.0539.0539,0,0,0,121.7884,124.6708Z" fill="#2e5175"/><path d="M111.8909,130.6355a50.5575,50.5575,0,0,0-2.2093-8.8485.0779.0779,0,0,0-.1513.0371,50.5623,50.5623,0,0,0,2.1281,8.8684A.12.12,0,0,0,111.8909,130.6355Z" fill="#2e5175"/><path d="M127.13,121.2518c-11.6,5.6265-16.9027,11.77-15.4451,15.5288l42.48-20.6043C151.1756,116.1181,137.6273,116.16,127.13,121.2518Z" fill="#f4cf7a"/><path d="M154.7675,116.1932s-.2125-.0093-.6028-.0169l-42.48,20.6043c.0335.0865.0665.1733.1072.2573,1.81,3.7318,10.0254,3.4838,21.8927-2.2723S154.7675,116.1932,154.7675,116.1932Z" fill="#fbdb8a"/><path d="M121.3445,132.3327q4.282-2.0915,8.57-4.1716,8.5714-4.17,17.0881-8.45a.0549.0549,0,0,0-.0479-.0987q-5.83,2.7342-11.6383,5.5153a25.708,25.708,0,0,0,1.7657-5.2223.0954.0954,0,0,0-.1732-.06A26.43,26.43,0,0,0,135,125.28c-1.7541.839-3.51,1.6746-5.26,2.5212q-4.29,2.0749-8.5815,4.1475c-2.8452,1.37-5.8354,2.5974-8.5587,4.1948a.1746.1746,0,0,0,.1523.314C115.6918,135.3076,118.507,133.7187,121.3445,132.3327Z" fill="#2e5175"/><path d="M124.855,130.4554a53.7655,53.7655,0,0,0,3.0115-8.7453.06.06,0,0,0-.113-.0392,53.7712,53.7712,0,0,0-3.0492,8.7323A.08.08,0,0,0,124.855,130.4554Z" fill="#2e5175"/><path d="M136.81,130.1653c-1.1378-.47-2.2942-.8936-3.4455-1.33a15.7237,15.7237,0,0,0-3.173-.9992.09.09,0,0,0-.0568.164,15.702,15.702,0,0,0,3.11,1.18c1.174.37,2.3444.754,3.5291,1.089A.0549.0549,0,0,0,136.81,130.1653Z" fill="#2e5175"/><path d="M125.8767,135.2988a47.0491,47.0491,0,0,0-6.0211-2.1458.1.1,0,0,0-.0653.1883,47.05,47.05,0,0,0,6.0571,2.0423A.0449.0449,0,0,0,125.8767,135.2988Z" fill="#2e5175"/><path d="M116.2579,134.9956a42.1063,42.1063,0,0,0,2.4554-7.1873.0649.0649,0,0,0-.1225-.0424A42.0925,42.0925,0,0,0,116.07,134.93.1.1,0,0,0,116.2579,134.9956Z" fill="#2e5175"/><path d="M103.3643,109.4179c-3.4626,11.054-2.7091,18.3061.6479,19.6675l12.68-40.4794C114.8132,90.5257,106.4976,99.4152,103.3643,109.4179Z" fill="#f4cf7a"/><path d="M117.0743,88.2219s-.137.1333-.3823.3839l-12.68,40.4794c.0773.0313.1543.0632.2343.0882,3.5559,1.1139,8.4529-4.4134,11.9953-15.7219S117.0743,88.2219,117.0743,88.2219Z" fill="#fbdb8a"/><path d="M107.0507,120.0269q1.2686-4.09,2.5482-8.1755,2.5506-8.1752,4.9951-16.3829a.0493.0493,0,0,0-.094-.0293q-1.8015,5.4981-3.5588,11.01a23.1056,23.1056,0,0,0-2.3293-4.3712.0857.0857,0,0,0-.1459.0763,23.7425,23.7425,0,0,0,2.38,4.5953c-.5313,1.6643-1.0657,3.3273-1.59,4.9939q-1.2847,4.0845-2.5713,8.1683c-.8555,2.7053-1.8942,5.417-2.5262,8.1824a.1569.1569,0,0,0,.2992.0937C105.5158,125.557,106.21,122.7367,107.0507,120.0269Z" fill="#2e5175"/><path d="M107.9842,116.5741a48.3055,48.3055,0,0,0-3.8668-7.3557.0538.0538,0,0,0-.0952.05,48.3108,48.3108,0,0,0,3.8351,7.3723A.0717.0717,0,0,0,107.9842,116.5741Z" fill="#2e5175"/><path d="M115.1565,108.5745c-1.0084.4547-1.9975.9506-2.9916,1.4353a14.13,14.13,0,0,0-2.6077,1.4605.0811.0811,0,0,0,.0724.1381,14.1138,14.1138,0,0,0,2.6871-1.3084c.9653-.54,1.937-1.0694,2.8856-1.6381A.0493.0493,0,0,0,115.1565,108.5745Z" fill="#2e5175"/><path d="M111.7821,118.8884a42.2866,42.2866,0,0,0-5.1117,2.6176.09.09,0,0,0,.083.1587,42.2619,42.2619,0,0,0,5.0661-2.7049A.04.04,0,0,0,111.7821,118.8884Z" fill="#2e5175"/><path d="M105.66,124.9944a37.8315,37.8315,0,0,0-3.19-6.0324.0582.0582,0,0,0-.1031.054,37.826,37.826,0,0,0,3.1344,6.0613A.09.09,0,0,0,105.66,124.9944Z" fill="#2e5175"/><path d="M121.4583,87.3429H36.2751a3.8833,3.8833,0,0,0-3.872,3.872v54.8528a3.8833,3.8833,0,0,0,3.872,3.872h66.1428a8.0477,8.0477,0,0,1,.3259,2.2586c0,4.0035-2.9533,7.41-7.0986,8.7463a12.6063,12.6063,0,0,0,3.872.611c6.0589,0,10.9706-4.1894,10.9706-9.3572a8.0533,8.0533,0,0,0-.3353-2.2586h11.3058a3.8833,3.8833,0,0,0,3.872-3.872V91.2149A3.8833,3.8833,0,0,0,121.4583,87.3429Z" fill="#e2e2e2"/><path d="M119.0381,87.3429H33.8549a3.8833,3.8833,0,0,0-3.872,3.872v54.8528a3.8833,3.8833,0,0,0,3.872,3.872H99.9977a8.0477,8.0477,0,0,1,.3259,2.2586c0,4.0035-2.9533,7.41-7.0986,8.7463a12.6063,12.6063,0,0,0,3.872.611c6.0589,0,10.9706-4.1894,10.9706-9.3572a8.0533,8.0533,0,0,0-.3353-2.2586h11.3058a3.8833,3.8833,0,0,0,3.872-3.872V91.2149A3.8833,3.8833,0,0,0,119.0381,87.3429Z" fill="#fff"/><rect x="37.0816" y="126.7079" width="33.557" height="3.872" rx="1.1201" ry="1.1201" fill="#e2e2e2"/><rect x="37.0816" y="138.3238" width="65.1781" height="3.872" rx="1.561" ry="1.561" fill="#e2e2e2"/><rect x="37.0816" y="103.4761" width="33.557" height="3.872" rx="1.1201" ry="1.1201" fill="#e2e2e2"/><rect x="37.0816" y="115.092" width="65.1781" height="3.872" rx="1.561" ry="1.561" fill="#e2e2e2"/><path d="M215.5051,122.0839l-63.7669,24.1372a3.178,3.178,0,0,0-1.7536,4.1217L166.2033,193.19a3.178,3.178,0,0,0,4.0433,1.9274l49.5135-18.742a6.9935,6.9935,0,0,1,.9118,1.6719,7.9055,7.9055,0,0,1-2.7278,8.8434,9.7065,9.7065,0,0,0,3.0791-.62c4.5356-1.7168,6.9737-6.3811,5.4457-10.4178a6.9973,6.9973,0,0,0-.9188-1.6693l8.4634-3.2036a3.178,3.178,0,0,0,1.7536-4.1217l-16.2187-42.8473A3.178,3.178,0,0,0,215.5051,122.0839Z" fill="#e2e2e2"/><path d="M213.0849,123.294,149.318,147.4312a3.178,3.178,0,0,0-1.7536,4.1217L163.7831,194.4a3.178,3.178,0,0,0,4.0433,1.9274l49.5135-18.742a6.9935,6.9935,0,0,1,.9118,1.6719,7.9055,7.9055,0,0,1-2.7278,8.8434,9.7065,9.7065,0,0,0,3.0791-.62c4.5356-1.7168,6.9737-6.3811,5.4457-10.4178a6.9973,6.9973,0,0,0-.9188-1.6693l8.4634-3.2036a3.178,3.178,0,0,0,1.7536-4.1217l-16.2187-42.8473A3.178,3.178,0,0,0,213.0849,123.294Z" fill="#fff"/><rect x="161.9526" y="168.0489" width="26.8597" height="3.0992" rx="1.1976" ry="1.1976" transform="translate(-48.6821 73.07) rotate(-20.7328)" fill="#e2e2e2"/><rect x="164.4245" y="172.2644" width="52.1697" height="3.0992" rx="1.465" ry="1.465" transform="translate(-49.1948 78.6981) rotate(-20.7328)" fill="#e2e2e2"/><path d="M191.2539,161.5347s-2.3812-2.6908-1.3161-11.4527a8.4267,8.4267,0,0,1,14.4469-5.2237c4,4.4591,3.6608,7.8156.5164,14.4448S193.5985,163.7787,191.2539,161.5347Z" fill="#feadae"/><path d="M224.7681,305.5378s.4685,3.434.527,3.95,5.2105-.3045,5.2105-.3045l.4169-4.0869S225.4119,305.0535,224.7681,305.5378Z" fill="#feadae"/><path d="M225.24,309.05a14.1975,14.1975,0,0,1-3.2115,2.9711c-1.5788.9022-4.0587,1.26-4.9926,2.1922-.6742.6743-2.4541,3.5757,4.1027,3.5172s9.7177.4089,10.42-.7035-1.0158-8.21-1.0158-8.21A18.0474,18.0474,0,0,1,225.24,309.05Z" fill="#473e73"/><path d="M189.0965,305.5378s.4685,3.434.527,3.95,5.2105-.3045,5.2105-.3045l.4169-4.0869S189.74,305.0535,189.0965,305.5378Z" fill="#feadae"/><path d="M189.5684,309.05a14.1808,14.1808,0,0,1-3.21,2.9711c-1.5788.9022-7.3883,1.6428-8.322,2.5754-.6743.6754-1.7946,3.388,7.4309,3.134,6.5545-.181,9.7188.4089,10.421-.7035s-1.017-8.21-1.017-8.21A27.1524,27.1524,0,0,1,189.5684,309.05Z" fill="#473e73"/><path d="M223.033,220.0364s2.6418,8.2084,2.2946,15.2833,1.3653,14.8147,2.0653,22.2041c.781,8.2377,3.9778,27.7405,4.0936,32.1465s-.4966,18.4778-.4966,18.4778l-6.3972.1551s-5.3735-34.0949-6.7646-37.5751c-1.3923-3.4777-8.2928-28.28-8.5254-31.0633S223.033,220.0364,223.033,220.0364Z" fill="#293882"/><path d="M196.5072,219.1824s-3.8835,21.704-4.3475,26.0336-.7731,20.9522-1.0057,23.6569c-.2315,2.707-1.5463,35.4108-2.7823,39.43h7.1332s7.3242-23.7738,7.3242-35.0231,4.85-24.4537,7.9816-31.8756,10.2975-7.5973,12.2223-21.3681C223.033,220.0364,199.1131,214.8146,196.5072,219.1824Z" fill="#0088cc"/><path d="M194.2372,163.1695a6.2022,6.2022,0,0,1,.8172,3.9286c-.4483,1.8011,10.2014-1.4392,10.2014-1.4392a11.9253,11.9253,0,0,1-.3546-6.3559C205.7405,156.2258,194.2372,163.1695,194.2372,163.1695Z" fill="#feadae"/><path d="M223.5477,221.8252s-3.9868,4.0959-27.3977-.6382l.3573-2.0047,26.6134,1.0023Z" fill="#0088cc"/><path d="M193.5225,167.9711s-3.9238,1.2431-5.0237,1.6992-9.1417.4635-10.7578.6287-9.3211-3.0527-9.6525-3.5531-6.2629-9.5273-6.9232-11.61-3.9985-.2414-3.3876,1.1615c1.1423,2.6226,3.2617,9.1255,4.0655,10.97.8678,1.9921,3.0142,6.4672,3.7895,6.9119a47.9889,47.9889,0,0,0,14.1615,4.5272,51.6432,51.6432,0,0,1,11.43,2.6874L220.5234,175.3s8.0068-18.66,7.7416-21.1656-11.8631-17.1105-13.9247-18.8165c-2.0622-1.7035-3.8642,1.5017-3.8642,1.5017s7.8954,13.3643,8.9754,15.2734-3.4085,12.2174-5.1476,12.6079-6.3413.7509-8.3486,1.0823a14.227,14.227,0,0,1-4.2886-.1029Z" fill="#feadae"/><path d="M183.16,181.4789s4.0824,1.6381,5.26,5.66a86.5087,86.5087,0,0,0,4.9452,12.2851c1.1143,2.0741,2.7115,18.9383,2.7858,20.1177s24.0729,3.8361,27.0142.3859c0,0-2.2186-20.4367-2.6942-24.776s-.657-15.0549-.2918-16.5816,5.9852-14.3086,6.0078-15.8444c0,0-5.4671-5.6906-8.4291-5.1595,0,0-3.5377,6.4539-5.0114,7.0164s-11.178.7941-11.1831.78c0,0-.7308,1.6016-6.4951,1.0927,0,0-6.3082,2.0732-7.331,2.4259-1.2389.4276-10.3488.9947-10.3488.9947s-2.3017,6.7294-1.0506,9.6266Z" fill="#fbdb8a"/><path d="M204.9012,159.303a12.6684,12.6684,0,0,1-4.6836.0068c-3.2734-.42-4.613-5.7123-5.1416-4.9423a1.9712,1.9712,0,0,1-3.2045.2866s1.0822-2.2737.1947-3.0751a7.4914,7.4914,0,0,0-2.1566-1.2581s-.0052-10.8015,10.7519-8.1175C213.2649,145.3491,204.9012,159.303,204.9012,159.303Z" fill="#3d4177"/><path d="M195.0544,167.0981l.0332-1.5678a81.2038,81.2038,0,0,1,9.72-1.64l.73,1.7143S201.59,168.4886,195.0544,167.0981Z" fill="#fbdb8a"/><path d="M193.7838,153.27c.3707-1.06,2.3342-2.1314,3.1356.4851.6205,2.0288-2.846,5.106-3.2831,3.1862A5.941,5.941,0,0,1,193.7838,153.27Z" fill="#feadae"/><path d="M161.6357,156.3721s-1.5895-3.6246-.8512-4.9144c.42-.7336,1.398-2.6482,1.4686-2.9155.0712-.265,1.3177-1.3736,1.236-1.7663-.0812-.3906-1.5679-.5852-2.5416.7811s-1.6761,1.7638-2.1842,1.7433-2.0338-3.8845-2.3012-4.8664-1.1955-3.5239-1.7807-3.214-.3148,1.45-.3148,1.45-1.1378-1.84-1.538-1.3466a1.9246,1.9246,0,0,0-.1405,1.4432s-1.1349-.9265-1.2079-.0632a2.88,2.88,0,0,0,.32,1.5381s-1.0407-.3184-.838.9593,1.3061,4.9162,2.2453,6.1039,4.1417,4.1414,4.7193,5.4341S161.6357,156.3721,161.6357,156.3721Z" fill="#feadae"/><path d="M211.7627,138.9989s-3.6795-4.016-4.6907-4.2315a15.9379,15.9379,0,0,1-3.6856-.7564c-1.3153-.5792-2.9707-.9453-2.946-1.2351s1.3982-.4618,2.9742-.1355,2.1468-.108,2.215-.4642a8.6578,8.6578,0,0,0-1.869-2.9328c-.55-.4537-4.31-2.9346-3.8878-3.5057s2.7969.7278,3.1984,1.0138c0,0-2.3129-3.047-1.7188-3.3416s2.0153.6619,2.0153.6619-.7376-2.8617,3.347,1.1814c0,0-.978-1.4182.0836-1.0985s2.597,3.0442,3.2026,4.455,2.9434,5.8186,4.3393,6.7081S211.7627,138.9989,211.7627,138.9989Z" fill="#feadae"/><path d="M161.3081,155.5415a6.3552,6.3552,0,0,0-3.1255,1.737,2.2993,2.2993,0,0,0,.4147,1.0833,14.1939,14.1939,0,0,1,3.2228-1.7985S161.6246,155.75,161.3081,155.5415Z" fill="#0088cc"/><circle cx="159.7413" cy="156.8461" r="0.9887" transform="translate(-24.9869 283.3114) rotate(-78.8717)" fill="#fbdb8a"/><path d="M216.22,57.4593c6.3538,15.4949,13.8877,22.8672,18.8792,21.2822L211.8319,22C211.5142,25.8707,210.47,43.4382,216.22,57.4593Z" fill="#f4cf7a"/><path d="M211.9027,21.22s-.0293.2748-.0708.78l23.2673,56.7414c.115-.0366.23-.0722.3422-.1182,4.9847-2.044,5.3293-12.7144-1.1707-28.5659S211.9027,21.22,211.9027,21.22Z" fill="#fbdb8a"/><path d="M230.1163,65.8585q-2.3644-5.721-4.7133-11.4483-4.7107-11.45-9.569-22.838a.0713.0713,0,0,0-.1318.0542q3.0722,7.78,6.2067,15.535a33.4074,33.4074,0,0,0-6.6272-2.7124.1239.1239,0,0,0-.0919.22,34.3382,34.3382,0,0,0,6.89,2.9155c.9454,2.342,1.8865,4.6857,2.8421,7.0235q2.3418,5.73,4.6809,11.4614c1.5459,3.8,2.8942,7.7756,4.7441,11.4356a.2268.2268,0,0,0,.4194-.1719C233.5145,73.4279,231.683,69.6493,230.1163,65.8585Z" fill="#2e5175"/><path d="M227.9669,61.1553a69.8422,69.8422,0,0,0-11.0933-4.6133.0778.0778,0,0,0-.06.1434,69.827,69.827,0,0,0,11.0733,4.6609A.1036.1036,0,0,0,227.9669,61.1553Z" fill="#2e5175"/><path d="M228.56,45.6335c-.702,1.4368-1.3445,2.9018-2.0031,4.359a20.4278,20.4278,0,0,0-1.5527,4.0324.1173.1173,0,0,0,.2081.0869,20.4111,20.4111,0,0,0,1.7814-3.9366c.5753-1.4919,1.1675-2.9781,1.6977-4.4867A.0712.0712,0,0,0,228.56,45.6335Z" fill="#2e5175"/><path d="M234.3288,60.2235a61.1281,61.1281,0,0,0-3.27,7.6316.13.13,0,0,0,.2389.1,61.11,61.11,0,0,0,3.1387-7.6868A.0583.0583,0,0,0,234.3288,60.2235Z" fill="#2e5175"/><path d="M233.1558,72.6686a54.6893,54.6893,0,0,0-9.1184-3.7659.0843.0843,0,0,0-.065.1554,54.6946,54.6946,0,0,0,9.0835,3.8494A.13.13,0,0,0,233.1558,72.6686Z" fill="#2e5175"/><path d="M234.7882,53.3783c-2.5618,13.7091-.6259,22.2712,3.5816,23.42l9.3813-50.2024C245.7789,29.1587,237.1065,40.9729,234.7882,53.3783Z" fill="#f4cf7a"/><path d="M248.1532,26.082s-.1447.1789-.4022.5136L238.37,76.7979c.0968.0264.1935.0536.2927.0721,4.41.8241,9.4755-6.4826,12.0963-20.5074S248.1532,26.082,248.1532,26.082Z" fill="#fbdb8a"/><path d="M240.7094,65.535q.933-5.07,1.88-10.1373,1.8823-10.1375,3.6333-20.2984a.0594.0594,0,0,0-.1166-.0218q-1.3691,6.83-2.6831,13.6707a27.809,27.809,0,0,0-3.4083-4.8932c-.0679-.074-.2082.022-.1636.1121a28.59,28.59,0,0,0,3.5005,5.154c-.3977,2.0654-.7992,4.13-1.1878,6.197q-.9527,5.0663-1.9081,10.1321c-.6367,3.3563-1.4914,6.7465-1.8523,10.1426a.1889.1889,0,0,0,.3711.0693C239.6639,72.3652,240.0912,68.8946,240.7094,65.535Z" fill="#2e5175"/><path d="M241.3327,61.2741a58.16,58.16,0,0,0-5.6725-8.2417.0647.0647,0,0,0-.1068.0731,58.1657,58.1657,0,0,0,5.637,8.2662A.0863.0863,0,0,0,241.3327,61.2741Z" fill="#2e5175"/><path d="M248.7652,50.6869c-1.1406.6875-2.2522,1.4216-3.3717,2.1429a17.0088,17.0088,0,0,0-2.909,2.1182.0977.0977,0,0,0,.1061.1549,16.9853,16.9853,0,0,0,3.0257-1.9477c1.0769-.7833,2.163-1.5549,3.216-2.37A.0594.0594,0,0,0,248.7652,50.6869Z" fill="#2e5175"/><path d="M246.2033,63.4987a50.8942,50.8942,0,0,0-5.7374,3.859.1079.1079,0,0,0,.1219.1779,50.895,50.895,0,0,0,5.67-3.9568A.0486.0486,0,0,0,246.2033,63.4987Z" fill="#2e5175"/><path d="M239.7563,71.6721a45.5475,45.5475,0,0,0-4.6745-6.7564.07.07,0,0,0-.1157.0793,45.5326,45.5326,0,0,0,4.6123,6.799A.1079.1079,0,0,0,239.7563,71.6721Z" fill="#2e5175"/><path d="M209.2153,66.4475c7.3912,10.1183,14.1849,14.1246,17.5272,12.0791L199.6762,41.4739C200.1387,44.3425,202.5271,57.2916,209.2153,66.4475Z" fill="#f4cf7a"/><path d="M199.5879,40.8945s.0279.2049.0883.5794l27.0663,37.0528c.0769-.0471.1542-.0936.2274-.1471,3.255-2.3776,1.5941-10.1911-5.9671-20.5424S199.5879,40.8945,199.5879,40.8945Z" fill="#fbdb8a"/><path d="M220.8149,70.06q-2.7424-3.7326-5.4746-7.4724-5.4729-7.4742-11.0422-14.8771a.0533.0533,0,0,0-.086.0629q3.6253,5.1016,7.2914,10.1739a24.9939,24.9939,0,0,0-5.3-.7834.0927.0927,0,0,0-.0274.176,25.6829,25.6829,0,0,0,5.5276.8838q1.66,2.2981,3.3227,4.5933,2.7277,3.7433,5.4535,7.4879c1.8037,2.4834,3.4952,5.13,5.4948,7.4577a.17.17,0,0,0,.2738-.2C224.6394,74.95,222.632,72.5334,220.8149,70.06Z" fill="#2e5175"/><path d="M218.4111,67.0284a52.2533,52.2533,0,0,0-8.8852-1.3643.0582.0582,0,0,0-.0178.1149,52.2591,52.2591,0,0,0,8.8792,1.4025A.0775.0775,0,0,0,218.4111,67.0284Z" fill="#2e5175"/><path d="M216.0619,55.6461c-.2526,1.17-.457,2.3489-.6744,3.5254a15.2844,15.2844,0,0,0-.4057,3.2076.0878.0878,0,0,0,.1667.0258,15.2673,15.2673,0,0,0,.589-3.1789c.1508-1.1869.3147-2.3726.43-3.5635A.0534.0534,0,0,0,216.0619,55.6461Z" fill="#2e5175"/><path d="M222.8658,65.2119a45.7425,45.7425,0,0,0-1.0086,6.13.0969.0969,0,0,0,.1914.03,45.7158,45.7158,0,0,0,.9034-6.1463A.0436.0436,0,0,0,222.8658,65.2119Z" fill="#2e5175"/><path d="M224.2429,74.463a40.9233,40.9233,0,0,0-7.2988-1.1024.063.063,0,0,0-.0193.1244,40.9174,40.9174,0,0,0,7.2883,1.1694A.0969.0969,0,0,0,224.2429,74.463Z" fill="#2e5175"/><path d="M341.9668,59.0374s-10.8237,2.8275-19.748.3157c-12.6885-3.4727-18.166-7.275-18.166-7.275l-1.3062.2489,2.6852,5.2293s2.5379,2.865,9.6306,7.4548a30.5174,30.5174,0,0,0,17.8347,4.7642Z" fill="#f4cf7a"/><path d="M306.1752,59.7554l-1.2473.2377-2.3-2.5636a18.87,18.87,0,0,1-2.9808-2.86c-.533-.9164.5315-1.5257.5315-1.5257l2.3752,1.5339-2.371-5.0408s3.8139,2.7483,4.6322,4.3519S306.1752,59.7554,306.1752,59.7554Z" fill="#feadae"/><path d="M308.3393,46.2358H218.4169a4.0994,4.0994,0,0,0-4.0874,4.0874v57.9046a4.0994,4.0994,0,0,0,4.0874,4.0874H288.24a8.4955,8.4955,0,0,1,.3441,2.3843c0,4.2263-3.1176,7.8223-7.4935,9.2329a13.3076,13.3076,0,0,0,4.0874.645c6.396,0,11.5809-4.4225,11.5809-9.8778a8.5013,8.5013,0,0,0-.3539-2.3843h11.9348a4.0994,4.0994,0,0,0,4.0874-4.0874V50.3231A4.0994,4.0994,0,0,0,308.3393,46.2358Z" fill="#e2e2e2"/><path d="M311.3646,46.2358H221.4422a4.0994,4.0994,0,0,0-4.0874,4.0874v57.9046a4.0994,4.0994,0,0,0,4.0874,4.0874h69.8226a8.4955,8.4955,0,0,1,.3441,2.3843c0,4.2263-3.1176,7.8223-7.4935,9.2329a13.3076,13.3076,0,0,0,4.0874.645c6.396,0,11.5809-4.4225,11.5809-9.8778a8.5013,8.5013,0,0,0-.3539-2.3843h11.9348a4.0994,4.0994,0,0,0,4.0874-4.0874V50.3231A4.0994,4.0994,0,0,0,311.3646,46.2358Z" fill="#fff"/><path d="M336.8614,168.3878v3.8508s1.5282,4.8848,1.1227,6.0971-15.0375,3.7122-16.0306,2.1037c-1.497-2.4246,8.3584-5.8118,9.294-8.6643l.25-3.3873Z" fill="#473e73"/><rect x="224.7455" y="58.8" width="74.6461" height="4.4344" rx="1.395" ry="1.395" fill="#e2e2e2"/><path d="M331.497,168.3878l-.2495,3.3873a2.3114,2.3114,0,0,1-.3275.61c1.5678.8188,4.1646,1.8175,6.24.871-.1708-.6059-.2991-1.0179-.2991-1.0179v-3.8508Z" fill="#feadae"/><rect x="224.7455" y="72.1032" width="38.4317" height="4.4344" rx="1.0009" ry="1.0009" fill="#e2e2e2"/><rect x="224.7455" y="85.4065" width="74.6461" height="4.4344" rx="1.395" ry="1.395" fill="#e2e2e2"/><path d="M357.3675,168.3878v3.8508s1.5282,4.8848,1.1228,6.0971-15.0375,3.7122-16.0306,2.1037c-1.497-2.4246,8.3584-5.8118,9.294-8.6643l.25-3.3873Z" fill="#473e73"/><path d="M352.0031,168.3878l-.25,3.3873a3.4117,3.4117,0,0,1-.9436,1.3012c1.4687,1.0406,4.1677,2.3276,6.9332.4557-.2085-.7565-.3758-1.2933-.3758-1.2933v-3.8508Z" fill="#feadae"/><path d="M333.6179,94.9373l25.2212-1.1393-.27,77.6433a10.2855,10.2855,0,0,1-7.9841.4754s-6.0926-48.4549-6.841-59.2942c0,0-5.5723,17.78-5.6554,30.8064s-.354,27.59-.354,27.59-4.4911,1.0459-7.3188,0c0,0-3.0559-25.7831-4.22-34.8158S333.6179,94.9373,333.6179,94.9373Z" fill="#0088cc"/><ellipse cx="304.6501" cy="181.5199" rx="8.5266" ry="0.8995" fill="#e9e8ea"/><path d="M299.5337,162.5852c1.3561,6.692,3.8077,10.2219,5.9281,9.97l-4.9661-24.5058C300.0716,149.575,298.3064,156.53,299.5337,162.5852Z" fill="#f4cf7a"/><path d="M300.5837,147.7425s-.0328.1078-.0881.3069l4.9661,24.5058c.0488-.0058.0977-.0113.1461-.0211,2.1528-.4362,3.109-4.6827,1.7217-11.5287S300.5837,147.7425,300.5837,147.7425Z" fill="#fbdb8a"/><path d="M304.4543,167.0142q-.5081-2.4722-1.01-4.9458-1.0084-4.9462-2.0806-9.8791a.0291.0291,0,0,0-.0569.0116q.6336,3.351,1.2942,6.6968a13.6208,13.6208,0,0,0-2.4458-1.5944c-.0444-.0211-.09.0482-.0536.0809a14,14,0,0,0,2.5355,1.6958c.199,1.01.3961,2.021.6,3.03q.4984,2.4741.9956,4.9486c.3277,1.64.5627,3.3356,1.0229,4.9431a.0925.0925,0,0,0,.1811-.0367C305.2346,170.3059,304.7909,168.6523,304.4543,167.0142Z" fill="#2e5175"/><path d="M303.9542,164.966a28.4759,28.4759,0,0,0-4.0885-2.698.0317.0317,0,0,0-.035.0528,28.47,28.47,0,0,0,4.0768,2.7156A.0422.0422,0,0,0,303.9542,164.966Z" fill="#2e5175"/><path d="M305.3821,158.796c-.3913.5215-.7609,1.0589-1.1364,1.5919a8.3288,8.3288,0,0,0-.931,1.4957.0478.0478,0,0,0,.0766.0508,8.322,8.322,0,0,0,1.0152-1.44c.3448-.5533.6959-1.103,1.0239-1.6665A.029.029,0,0,0,305.3821,158.796Z" fill="#2e5175"/><path d="M306.5733,165.0807a24.923,24.923,0,0,0-1.8947,2.8052.0528.0528,0,0,0,.088.0584,24.9158,24.9158,0,0,0,1.8463-2.8374A.0238.0238,0,0,0,306.5733,165.0807Z" fill="#2e5175"/><path d="M305.1492,169.9743a22.2978,22.2978,0,0,0-3.3626-2.2072.0344.0344,0,0,0-.0379.0573,22.3,22.3,0,0,0,3.3422,2.238A.0528.0528,0,0,0,305.1492,169.9743Z" fill="#2e5175"/><path d="M307.2821,162.3749c-2.0771,5.2932-1.9584,8.87-.3617,9.6528l7.6063-19.3837C313.54,153.5191,309.1617,157.585,307.2821,162.3749Z" fill="#f4cf7a"/><path d="M314.7271,152.4692s-.0717.0606-.2.1748L306.92,172.0277c.0367.018.0734.0363.1117.0513,1.7028.6682,4.2915-1.8693,6.4164-7.2844S314.7271,152.4692,314.7271,152.4692Z" fill="#fbdb8a"/><path d="M308.721,167.697q.7624-1.9586,1.53-3.9153,1.5311-3.9151,3.0114-7.85a.0242.0242,0,0,0-.045-.0177q-1.072,2.63-2.1227,5.2686a11.3382,11.3382,0,0,0-.99-2.2208.0421.0421,0,0,0-.0741.0323,11.6564,11.6564,0,0,0,1.0065,2.3323c-.3176.7966-.6367,1.5925-.9509,2.39q-.77,1.9557-1.541,3.911c-.5123,1.2952-1.1146,2.5872-1.5195,3.9195a.077.077,0,0,0,.1433.0562C307.7786,170.3519,308.2158,168.9949,308.721,167.697Z" fill="#2e5175"/><path d="M309.2973,166.0385a23.7126,23.7126,0,0,0-1.64-3.7353.0264.0264,0,0,0-.0484.0211,23.7151,23.7151,0,0,0,1.6234,3.7424A.0352.0352,0,0,0,309.2973,166.0385Z" fill="#2e5175"/><path d="M313.0855,162.3689c-.5095.1878-1.0109.3965-1.5145.6a6.9348,6.9348,0,0,0-1.3273.6252.04.04,0,0,0,.0306.07,6.9252,6.9252,0,0,0,1.361-.5479c.4913-.2311.9854-.4568,1.47-.7025A.0242.0242,0,0,0,313.0855,162.3689Z" fill="#2e5175"/><path d="M311.0771,167.3028a20.75,20.75,0,0,0-2.5934,1.1053.044.044,0,0,0,.0352.0806,20.7508,20.7508,0,0,0,2.5741-1.15A.02.02,0,0,0,311.0771,167.3028Z" fill="#2e5175"/><path d="M307.8687,170.0814a18.57,18.57,0,0,0-1.3538-3.064.0286.0286,0,0,0-.0524.0229,18.5644,18.5644,0,0,0,1.3256,3.0763A.044.044,0,0,0,307.8687,170.0814Z" fill="#2e5175"/><path d="M296.0395,165.6473c2.1838,4.6186,4.5971,6.7438,6.0924,6.181l-7.9972-16.9129C294.1,156.1,294.0634,161.4681,296.0395,165.6473Z" fill="#f4cf7a"/><path d="M294.1438,154.6766s-.0045.0842-.0091.2388l7.9972,16.9129c.0344-.013.0689-.0257.1023-.0415,1.4858-.7025,1.42-3.9587-.8143-8.6836S294.1438,154.6766,294.1438,154.6766Z" fill="#fbdb8a"/><path d="M300.4074,167.9835q-.8119-1.705-1.6193-3.4121-1.6184-3.4127-3.2809-6.8041a.0217.0217,0,0,0-.0392.0186q1.0605,2.3209,2.14,4.6332a10.19,10.19,0,0,0-2.0624-.72.0378.0378,0,0,0-.0244.0684,10.4713,10.4713,0,0,0,2.1457.7778c.3256.6983.65,1.3972.9783,2.0941q.8052,1.7081,1.61,3.4166c.5318,1.1328,1.0062,2.3224,1.6285,3.4077a.0692.0692,0,0,0,.125-.0591C301.5639,170.235,300.9454,169.1132,300.4074,167.9835Z" fill="#2e5175"/><path d="M299.6773,166.5851a21.3046,21.3046,0,0,0-3.4534-1.2276.0237.0237,0,0,0-.016.0446,21.3069,21.3069,0,0,0,3.4481,1.2425A.0316.0316,0,0,0,299.6773,166.5851Z" fill="#2e5175"/><path d="M299.6094,161.847c-.1909.449-.3631.9056-.54,1.36a6.2317,6.2317,0,0,0-.4084,1.2534.0358.0358,0,0,0,.0648.0231,6.2247,6.2247,0,0,0,.48-1.2278c.1514-.4637.308-.926.4454-1.394A.0218.0218,0,0,0,299.6094,161.847Z" fill="#2e5175"/><path d="M301.6,166.1993a18.65,18.65,0,0,0-.8739,2.3773.04.04,0,0,0,.0744.0266,18.6391,18.6391,0,0,0,.8331-2.392A.0178.0178,0,0,0,301.6,166.1993Z" fill="#2e5175"/><path d="M301.4425,170.0094a16.6851,16.6851,0,0,0-2.8382-1.0011.0257.0257,0,0,0-.0173.0483,16.6827,16.6827,0,0,0,2.8288,1.0272A.04.04,0,0,0,301.4425,170.0094Z" fill="#2e5175"/><path d="M312.1,176.6153l.0024-6.1075-14.7535-.0059,0,.7964,10.2555,10.2636A4.972,4.972,0,0,0,312.1,176.6153Z" fill="#cdd1d3"/><path d="M297.3489,171.4831l-.0021,5.3111a4.9726,4.9726,0,0,0,4.9706,4.9746l4.8083.0019c.1616,0,.321-.0089.4786-.024Z" fill="#e2e2e2"/><path d="M340.7231,32.1094c4.9464-1.1934,9.2725,1.3921,10.1716,5.72,0,0,7.1347,6.9987-2.2855,13.6746l-2.9625.3392-4.2908-3.5155-5.877-8.12s-2.3775-1.8192-2.5723-3.8058C332.3895,31.1261,338.68,30.081,340.7231,32.1094Z" fill="#3d4177"/><path d="M346.5131,51.5117a13.4513,13.4513,0,0,1-2.1819-4.9031s3.1337-.66,2.5939-2.9422c-.4482-1.8971-2.8331-1.25-3.5871.3877l.0081,2.1794s-1.2279-.0275-1.4593-4.2068l-1.4447-1.8375-4.9632.0185a20,20,0,0,0-1.2275,9.2808,44.6813,44.6813,0,0,0,1.28,4.77l4.9481-.0184.0134,4.2073-.9588,2.275,1.1787,1.2852,7.1521-3.0731.7623-.7285-.0177-6.7016Z" fill="#feadae"/><path d="M359.2192,103.1944c-.0012,0-15.33,4.2232-28.007.1042,0,0,1.3853-24.5754,2.0713-36.7414.1869-3.3166,3.0463-8.075,6.3684-8.0873l.8408-.0407.22,3.578,8.1086-3.7727.5871-.0289a6.9427,6.9427,0,0,1,4.1247,1.659,9.7061,9.7061,0,0,1,3.3888,6.5963l2.8127,37.1993Z" fill="#fbdb8a"/><path d="M319.25,79.6349a16.1632,16.1632,0,0,0-2.4613-2.5032s-3.7147-2.97-4.3221-3.3933c0,0-1.0254.4607-.2394,1.5684a23.9166,23.9166,0,0,0,2.0029,2.3555,14.6136,14.6136,0,0,1-3.12-1.12c-1.1592-.66-3.4853-1.9-4.2965-1.7147s-.3369.8867-.3369.8867,3.5744,1.9029,4.3374,2.3168c.67.3633.3373.5357.3373.5357s-4.2857-1.8544-5.1044-2.083-1.2481-.0354-1.1972.6972c0,0,3.2794,1.5476,3.7646,1.787s2.1851.7382,1.9323,1.2659c0,0-3.8012-1.4-4.4665-1.598s-1.1081.1-.8347.7523l5.13,2.1979s.3588.1625.171.3473a12.761,12.761,0,0,1-2.863-.0828c-.2818-.052-1.179-.146-1.1429.5533,0,0,.047.2371.8867.3368s4.623,1.0436,4.623,1.0436a12.9516,12.9516,0,0,0,5.4447-.0134c2.8961-.6637,3.1476-1.7682,2.1558-.4662l-.1974-1.5349Z" fill="#feadae"/><path d="M355.88,63.1156c-.9331-2.4114-5.7821-4.6809-9.6838,3.004-4.914,9.678-6.8452,20.15-27.56,12.0709l-1.0645,5.4255s20.1472,15.5992,34.4857-6.6894C353.8589,74.1257,357.7166,67.8624,355.88,63.1156Z" fill="#f4cf7a"/><path d="M335.029,171.4194a20.9743,20.9743,0,0,0,2.7051-.4008s.2708-14.5635.354-27.59,5.6555-30.8065,5.6555-30.8065-7.3355,15.8235-9.1117,27.4994C333.103,150.1723,334.509,167.173,335.029,171.4194Z" fill="#293882"/><ellipse cx="15.9919" cy="234.9827" rx="10.9919" ry="1.1596" fill="#e9e8ea"/><path d="M5.4215,217.0221c-.0156,11.2278,2.7737,17.7212,6.2728,18.0126l.0569-41.1159C10.5663,196.2372,5.4356,206.862,5.4215,217.0221Z" fill="#f4cf7a"/><path d="M11.9941,193.4532s-.0883.1629-.243.4656l-.0569,41.1159c.0805.0067.1611.014.2423.0141,3.612.005,6.549-6.5223,6.5649-18.0087S11.9941,193.4532,11.9941,193.4532Z" fill="#fbdb8a"/><path d="M11.893,225.7758q-.0056-4.15,0-8.3.0019-8.3009-.1035-16.601a.0478.0478,0,0,0-.0955,0q-.0812,5.6074-.1172,11.2152a22.3882,22.3882,0,0,0-3.4162-3.373c-.0646-.0486-.1616.048-.113.1127a23.0165,23.0165,0,0,0,3.5275,3.5659c-.0116,1.6933-.0264,3.3864-.0306,5.08q-.01,4.15-.0232,8.3c-.0114,2.75-.19,5.5593.0226,8.3a.152.152,0,0,0,.3039,0C12.068,231.3359,11.8968,228.5259,11.893,225.7758Z" fill="#2e5175"/><path d="M11.7609,222.3115a46.8224,46.8224,0,0,0-5.7-5.6913.0521.0521,0,0,0-.0738.0735,46.8273,46.8273,0,0,0,5.6755,5.7158A.07.07,0,0,0,11.7609,222.3115Z" fill="#2e5175"/><path d="M16.09,212.84c-.802.7116-1.5741,1.4559-2.3544,2.1911a13.6932,13.6932,0,0,0-1.9918,2.1037.0786.0786,0,0,0,.1068.107A13.6743,13.6743,0,0,0,13.96,215.256c.7375-.7781,1.4839-1.5483,2.1978-2.3483A.0478.0478,0,0,0,16.09,212.84Z" fill="#2e5175"/><path d="M15.9429,223.3575a40.9733,40.9733,0,0,0-3.9751,3.8968.0869.0869,0,0,0,.1226.1229,40.9739,40.9739,0,0,0,3.9078-3.9645A.0391.0391,0,0,0,15.9429,223.3575Z" fill="#2e5175"/><path d="M12.0394,230.7737a36.6689,36.6689,0,0,0-4.692-4.662.0565.0565,0,0,0-.08.08,36.6568,36.6568,0,0,0,4.649,4.7048A.0869.0869,0,0,0,12.0394,230.7737Z" fill="#2e5175"/><path d="M16.7178,223.034c-.0106,7.63,1.885,12.0432,4.2629,12.2412l.0387-27.9421C20.2142,208.9087,16.7274,216.1292,16.7178,223.034Z" fill="#f4cf7a"/><path d="M21.1846,207.0167s-.06.1107-.1651.3164l-.0387,27.9421c.0547.0046.1095.01.1647.01,2.4547.0034,4.4507-4.4325,4.4615-12.2386S21.1846,207.0167,21.1846,207.0167Z" fill="#fbdb8a"/><path d="M21.1158,228.9829q-.0038-2.82,0-5.6409.0013-5.6412-.07-11.2819a.0325.0325,0,0,0-.0649,0q-.0552,3.8108-.08,7.6218a15.2148,15.2148,0,0,0-2.3216-2.2923c-.0439-.0331-.11.0326-.0768.0766A15.6419,15.6419,0,0,0,20.9,219.89c-.0079,1.1508-.0179,2.3014-.0208,3.4522q-.0071,2.82-.0157,5.6409c-.0077,1.869-.1293,3.778.0153,5.641a.1033.1033,0,0,0,.2065,0C21.2347,232.7615,21.1184,230.8519,21.1158,228.9829Z" fill="#2e5175"/><path d="M21.0261,226.6286a31.82,31.82,0,0,0-3.8737-3.8678.0354.0354,0,0,0-.05.05,31.8235,31.8235,0,0,0,3.857,3.8844A.0472.0472,0,0,0,21.0261,226.6286Z" fill="#2e5175"/><path d="M23.9683,220.1918c-.545.4836-1.07.9894-1.6,1.4891a9.3058,9.3058,0,0,0-1.3536,1.43.0534.0534,0,0,0,.0725.0727,9.293,9.293,0,0,0,1.4334-1.35c.5012-.5288,1.0085-1.0522,1.4936-1.5959A.0325.0325,0,0,0,23.9683,220.1918Z" fill="#2e5175"/><path d="M23.8681,227.3394a27.8452,27.8452,0,0,0-2.7015,2.6483.059.059,0,0,0,.0833.0835,27.8456,27.8456,0,0,0,2.6557-2.6942A.0266.0266,0,0,0,23.8681,227.3394Z" fill="#2e5175"/><path d="M21.2153,232.3794a24.92,24.92,0,0,0-3.1886-3.1683.0384.0384,0,0,0-.0543.0542,24.9117,24.9117,0,0,0,3.1594,3.1974A.059.059,0,0,0,21.2153,232.3794Z" fill="#2e5175"/><path d="M34.7769,160.0353s.3219,1.7481,1.3035,2.0071a5.7109,5.7109,0,0,1,2.0383,1.3778c.3791.364,1.9608,1.0493,1.5058,1.5318s-2.6612-1.0025-3.1863-1.222.2267,2.2109.0146,2.7641-4.3084,1.57-4.6313-.158.4722-3.7864.3551-4.08a10.7693,10.7693,0,0,1-.2844-1.2469Z" fill="#feadae"/><path d="M36.4725,166.073s.6374,5.3556.3817,5.7477-.5485.41-.6291-.0884-.766-5.157-.766-5.157-.31,6.4662-.45,6.8322c-.0817.2164-.6453.2829-.7134.0209S34.17,166.74,34.17,166.74s-.3005,6.0368-.509,6.3081a.4159.4159,0,0,1-.7238-.2787c-.0083-.4492-.0463-6.0658-.0463-6.0658s-.495,4.3791-.807,4.505c-.1908.0779-.6754.158-.5126-.9682s.2693-3.8227.2693-3.8227Z" fill="#feadae"/><path d="M92.2884,94.3376a14.694,14.694,0,0,0,1.18-2.9533,7.6426,7.6426,0,0,1,2.603-3.47c.6665-.4139,5.498-3.8758,6.057-3.8758s.235,1.0742-.2485,1.3873-4.4077,3.37-4.4077,3.37,4.8824-3.3694,5.3925-3.2767c.51.09.873.7393.3254,1.4069a.9141.9141,0,0,1-.0467,1.6223l-2.3076,1.7834s1.3581-.7061.8537.3847c-.2682.58-3.1067,2.2744-3.5611,2.7922a30.8075,30.8075,0,0,1-4.0353,2.2618Z" fill="#feadae"/><path d="M63.6773,244.4118h1.21s-.4035-4.57.7175-4.6161,3.8976,3.72,5.5568,4.3032,10.1724,1.0742,10.2171-.494-3.2705-2.1952-4.3016-2.6434-6.05-5.3337-6.9462-5.9161-2.3762-3.54-2.3762-3.54h-4.57s-.5012,2.4813-.7893,4.4862a17.6218,17.6218,0,0,0-.1966,1.8781C62.1543,239.5721,63.6773,244.4118,63.6773,244.4118Z" fill="#feadae"/><path d="M42.647,243.5082h1.0088v-4.2553c.84.0707,3.6641,2.7433,4.5382,3.5171s2.072.7383,5.7529.9722,4.0276-1.9685,3.4452-2.7194-2.4651-1.0784-3.4452-1.5463-4.8455-4.8283-5.8766-5.86-1.6586-3.984-1.6586-3.984l-4.3016.3744a26.351,26.351,0,0,1-.4628,4.9687v.0011l-.0047.0166q-.0625.2917-.1378.5678C40.8657,237.9176,42.647,243.5082,42.647,243.5082Z" fill="#feadae"/><path d="M52.7113,101.2957s-2.1,4.43-.9785,8.052c0,0-6.46-.8808-6.6529-1.6358s.8091-7.5488.0624-9.6317S52.7113,101.2957,52.7113,101.2957Z" fill="#feadae"/><path d="M52.8648,107.88s3.739,1.6056,5.4454,2.0985c1.706.495,5.2111,2.4292,4.46,8.702a128.48,128.48,0,0,1-2.8171,14.3269,55.646,55.646,0,0,0-.4456,12.9666,50.0277,50.0277,0,0,1-20.0115-1.45s2.3309-5.5646,2.3886-7.0423c.0577-1.48-5.405-14.0836-5.5614-16.023s-.8215-10.4886,2.2145-12.1462,5.3789-1.2416,6.6684-1.9883S51.114,107.15,52.8648,107.88Z" fill="#fbdb8a"/><path d="M52.8466,117.6359s-1.4351-7.5342,5.8677-7.5217c6.42.0115,12.4847-1.2063,13.5017-1.7709s4.9432-2.4948,7.0054-4.6152S92.4559,93.1106,92.4559,93.1106l3.088,3.1239s-11.7859,12.7982-13.6859,14.045-17.8548,10.1579-19.8795,10.4386S54.27,122.5453,52.8466,117.6359Z" fill="#fbdb8a"/><path d="M29.8972,140.9133c-.2189,2.6528,1.2256,20.9709,1.2256,20.9709l5.1938.599s-.3692-18.0913-.66-22.2646a20.9514,20.9514,0,0,1,.6421-5.1569v-.0011c.2808-1.2979.6271-2.66.9838-3.959.9821-3.5887,2.0414-6.7054,2.0414-6.7054s5.8157-15.13-1.4809-14.5182a17.5991,17.5991,0,0,0-3.8591,7.3834c-1.148,4.588-2.4615,11.4629-2.5119,14.2021S30.0578,138.9625,29.8972,140.9133Z" fill="#fbdb8a"/><path d="M38.07,181.1227c.5189,3.4515-.027,7.9865-1.1107,20.608-1.0856,12.6194,1.8974,27.9009,1.8974,27.9009a15.1411,15.1411,0,0,0,8.06,0c-.0988-.887,0-30.7617,0-33.4239s.7649-5.6831.9615-8.74a62.314,62.314,0,0,1,2.1931-9.8407c.3271-1.174.6641-2.3543.9927-3.4973v-.001c.1845-.6406.3649-1.2708.5413-1.88,1.5349-5.3244,3.6-25.8824,3.6-25.8824s-11.4427-9.2168-17.0135-.54c-5.5714,8.675-2.7111,14.9852-2.5141,16.07S37.55,177.6722,38.07,181.1227Z" fill="#293882"/><path d="M58.2551,145.8259a44.3562,44.3562,0,0,1,1.824,4.9645c.1476,1,5.4018,14.0815,5.7679,17.9093.37,3.87,1.4787,14.198,1.8729,15.6768s-.8871,8.0843-1.0841,9.5642-.0988,25.6349,1.6758,37.5638c0,0-4.141,1.775-7.296,0,0,0-5.2256-18.6343-4.93-29.3808s1.6592-15.2816-.0084-19.621C54.41,178.1651,44.6488,165.1506,43.663,163.77s-7.1629-9.0078-1.3138-17.271S58.2551,145.8259,58.2551,145.8259Z" fill="#0088cc"/><path d="M60.2429,130.3187s-1.0165,16.3339,2.0246,25.5257c0,0-12.0832,2.0154-27.4984-3.1791,0,0,4.24-10.98,4.0936-12.6963s-4.6083-21.7092-2.4667-26.183S59.4822,115.661,60.2429,130.3187Z" fill="#fbdb8a"/><path d="M50.3731,83.0847c2.7626-.1113,9.8163.9588,8.5024,11.5888s-5.1523,9.71-8.9547,8.2975-7.8253-10.0071-7.6652-12.22S42.4911,83.403,50.3731,83.0847Z" fill="#feadae"/><path d="M58.8359,89.76s-3.3719,3.7125-6.5431,4.429c0,0-2.6991,4.0993-6.9451,4.8854,0,0-8.272-9.1429-.3354-14.9934S59.1213,86.5008,58.8359,89.76Z" fill="#3d4177"/><path d="M52.9833,92.7643a1.3438,1.3438,0,0,0-2.3633-.6157c-1.0934,1.2553.5018,4.4842,1.19,4.5341S53.2167,95.0053,52.9833,92.7643Z" fill="#feadae"/><path d="M42.814,162.5809c.0889.1966,5.79,12.8524,7.257,15.0465.3271-1.174.6641-2.3543.9927-3.4973v-.001S43.0048,162.86,42.814,162.5809Z" fill="#293882"/><path d="M36.0431,122.0888a91.9681,91.9681,0,0,0,.2553,12.9719c.2808-1.2979.6271-2.66.9838-3.959C37.254,130.9177,36.1486,123.3575,36.0431,122.0888Z" fill="#f4cf7a"/><path d="M48.2455,82.3962s-9.613-.22-8.1685,16.2966c1.11,12.6952-3.5581,18.9659-2.9009,20.817s2.9123,4.9427,7.9585,2.1536,1.7247-17.3385,4.4357-23.0008,8.6625-8.2849,8.6625-8.2849S57.1881,80.7376,48.2455,82.3962Z" fill="#3d4177"/><path d="M61.2168,115.843s2.1948,7.8388,2.7168,9.691c.678,2.4064-2.47,6.9341-5.2578,5.5438C55.8877,129.6853,61.2168,115.843,61.2168,115.843Z" fill="#fbdb8a"/><path d="M42.647,243.5082h1.0088v-4.2553c.84.0707,3.6641,2.7433,4.5382,3.5171s2.072.7383,5.7529.9722,4.0276-1.9685,3.4452-2.7194-2.4651-1.0784-3.4452-1.5463c-3.9372.21-8.7421-5.3254-11.0486-5.314-1.2256.0063-1.2136.6854-1.251.8132v.0011l-.0047.0166q-.0625.2917-.1378.5678C40.8657,237.9176,42.647,243.5082,42.647,243.5082Z" fill="#473e73"/><path d="M63.6773,244.4118h1.21s-.4035-4.57.7175-4.6161,3.8976,3.72,5.5568,4.3032,10.1724,1.0742,10.2171-.494-3.2705-2.1952-4.3016-2.6434c-3.5118-.0083-9.2231-3.8737-10.9946-4.6567a6.3886,6.3886,0,0,0-3.6874-.3131,17.6218,17.6218,0,0,0-.1966,1.8781C62.1543,239.5721,63.6773,244.4118,63.6773,244.4118Z" fill="#473e73"/><rect x="265.0626" y="290.4529" width="38.8091" height="26.2925" fill="#e2e2e2"/><rect x="257.1938" y="290.4529" width="7.8688" height="26.2925" transform="translate(522.2564 607.1983) rotate(180)" fill="#a4a4a5"/><rect x="265.0626" y="290.4529" width="39.3156" height="3.7355" fill="#edeef4"/><rect x="256.5306" y="290.4529" width="8.532" height="3.7355" transform="translate(521.5931 584.6413) rotate(180)" fill="#e8e8ea"/><rect x="262.4848" y="288.3532" width="38.8921" height="2.0997" fill="#a4a4a5"/><rect x="261.1282" y="286.2684" width="38.8921" height="2.0998" fill="#edeef4"/><rect x="260.7966" y="282.0989" width="38.8921" height="2.0997" fill="#edeef4"/><rect x="262.8547" y="280.0141" width="38.8921" height="2.0998" fill="#a4a4a5"/><rect x="263.9779" y="284.1837" width="38.8921" height="2.0997" fill="#a4a4a5"/></svg>