<svg xmlns="http://www.w3.org/2000/svg" width="100" height="100" viewBox="0 0 100 100"><title>hire-web-develpers</title><path d="M25.9537,33.5493A52.8708,52.8708,0,0,0,40.27,21.36c2.3467-2.9,9.0881-7.73,14.16-9.6005,4.4033-1.6237,15.7441-4.0078,17.75,8.834S69.664,37.4885,77.3979,42.1794c5.68,3.4451,13.3378,5.7051,11.4574,12.15-2.9244,10.0229-24.392,34.7218-42.6586,35.1443s-22.7817-.608-25.408-14.8793S6.4966,65.1126,7.1111,53.0577C7.48,45.8274,17.7733,38.3647,25.9537,33.5493Z" fill="#f1f3f7"/><path d="M87.3131,25.8192A2.3826,2.3826,0,0,0,84.93,23.4366H11.3026A2.3826,2.3826,0,0,0,8.92,25.8192V75.0216H87.3131Z" fill="none"/><path d="M87.1428,74.8514H9.09V25.8192a2.2149,2.2149,0,0,1,2.2123-2.2125H84.9305a2.2149,2.2149,0,0,1,2.2123,2.2125ZM9.279,74.6627H86.954V25.8192a2.0259,2.0259,0,0,0-2.0235-2.0237H11.3026A2.0259,2.0259,0,0,0,9.279,25.8192Z" fill="#221f1f"/><path d="M85.6971,77.02H10.5362c-1.5032,0-9.0016-.1075-9.0016-2.2272V73.4719a.7939.7939,0,0,1,.793-.793h91.578a.7939.7939,0,0,1,.793.793v1.3205C94.6985,76.9122,87.2,77.02,85.6971,77.02Zm-83.37-4.152a.6048.6048,0,0,0-.6042.6042v1.3205c0,1.6092,5.54,2.0385,8.8129,2.0385h75.161c3.2731,0,8.8127-.4293,8.8127-2.0385V73.4719a.6048.6048,0,0,0-.6042-.6042Z" fill="#221f1f"/><path d="M83.5053,69.7539H12.7278V27.0494H83.5053Zm-70.5887-.1888h70.4V27.2381h-70.4Z" fill="#221f1f"/><circle cx="48.1166" cy="25.283" r="0.4247" fill="#fff"/><path d="M48.1165,25.802a.5191.5191,0,1,1,.5191-.5191A.52.52,0,0,1,48.1165,25.802Zm0-.8494a.33.33,0,1,0,.33.33A.3307.3307,0,0,0,48.1165,24.9527Z" fill="#221f1f"/><path d="M48.753,25.283a.6364.6364,0,1,0-.6364.6364A.6371.6371,0,0,0,48.753,25.283Zm-.85,0a.2131.2131,0,1,1,.2131.213A.2134.2134,0,0,1,47.9035,25.283Z" fill="#fff"/><path d="M48.1165,26.0138a.7309.7309,0,1,1,.7309-.7309A.7318.7318,0,0,1,48.1165,26.0138Zm0-1.273a.5421.5421,0,1,0,.5421.5421A.5426.5426,0,0,0,48.1165,24.7409Zm0,.85a.3075.3075,0,1,1,.3075-.3075A.3077.3077,0,0,1,48.1165,25.59Zm0-.4262a.1187.1187,0,1,0,.1187.1187A.1189.1189,0,0,0,48.1165,25.1643Z" fill="#221f1f"/><rect x="1.6289" y="74.6981" width="92.9752" height="0.1888" fill="#221f1f"/><g opacity="0.1"><path d="M91.7606,40.8579l2.6235-7.0815,1.0344,3.4823a.2878.2878,0,0,0,.1751.1873L99,38.7081Zm2.604-6.485L92.0688,40.57l6.3348-1.8814L95.528,37.6229a.4775.4775,0,0,1-.29-.31Z" fill="#221f1f"/></g><g opacity="0.1"><path d="M88.7411,31.1425l-.0658-4.2345,6.0325-.0936.0658,4.2344Zm.1259-4.0487.06,3.857,5.655-.0879-.06-3.8569Z" fill="#221f1f"/></g><g opacity="0.13"><path d="M6.4218,65.2561H4.9236v-4.704H3.3555V59.2605H8.007v1.2916H6.4218Zm-1.3095-.1888H6.233v-4.704H7.8183v-.9141H3.5443v.9141H5.1123Z" fill="#221f1f"/></g><g opacity="0.13"><path d="M3.3741,70.3671A2.3741,2.3741,0,1,1,5.7484,67.993,2.3768,2.3768,0,0,1,3.3741,70.3671Zm0-4.56A2.1854,2.1854,0,1,0,5.56,67.993,2.188,2.188,0,0,0,3.3741,65.8076Z" fill="#221f1f"/><path d="M6.7635,71.9267a.54.54,0,0,1-.3847-.1594L4.7876,70.176l.0909-.0647a2.6141,2.6141,0,0,0,.614-.6142l.0647-.0909,1.5913,1.5913a.5443.5443,0,0,1-.3849.9292ZM5.0771,70.1987l1.4352,1.4352a.3641.3641,0,0,0,.5027,0,.3556.3556,0,0,0,0-.5028L5.58,69.696A2.7966,2.7966,0,0,1,5.0771,70.1987Z" fill="#221f1f"/></g><path d="M45.6359,82.9856H36.9167a.6883.6883,0,0,1-.6875-.6875V81.2835a.6883.6883,0,0,1,.6875-.6875h8.7192a.6883.6883,0,0,1,.6875.6875v1.0145A.6883.6883,0,0,1,45.6359,82.9856Zm-8.7192-2.2009a.4994.4994,0,0,0-.4988.4988v1.0145a.4994.4994,0,0,0,.4988.4988h8.7192a.4994.4994,0,0,0,.4988-.4988V81.2835a.4994.4994,0,0,0-.4988-.4988Z" fill="#221f1f"/><path d="M51.4871,86.0056H42.7679a.6883.6883,0,0,1-.6875-.6875V84.3035a.6883.6883,0,0,1,.6875-.6875h8.7192a.6883.6883,0,0,1,.6875.6875v1.0145A.6883.6883,0,0,1,51.4871,86.0056Zm-8.7192-2.2009a.4994.4994,0,0,0-.4988.4988v1.0145a.4994.4994,0,0,0,.4988.4988h8.7192a.4994.4994,0,0,0,.4988-.4988V84.3035a.4994.4994,0,0,0-.4988-.4988Z" fill="#221f1f"/><g opacity="0.13"><path d="M73.9808,67.9485H22.2523a1.6952,1.6952,0,0,1-1.6933-1.6933V30.6918a1.6952,1.6952,0,0,1,1.6933-1.6933H73.9808a1.6952,1.6952,0,0,1,1.6933,1.6933V66.2552A1.6952,1.6952,0,0,1,73.9808,67.9485ZM22.2523,29.2049a1.4886,1.4886,0,0,0-1.4869,1.4869V66.2552a1.4886,1.4886,0,0,0,1.4869,1.4869H73.9808a1.4886,1.4886,0,0,0,1.4869-1.4869V30.6918a1.4886,1.4886,0,0,0-1.4869-1.4869Z" fill="#221f1f"/></g><g opacity="0.13"><path d="M75.6742,31.1668H20.5589v-.4749a1.6952,1.6952,0,0,1,1.6933-1.6933H73.9808a1.6952,1.6952,0,0,1,1.6933,1.6933ZM20.7654,30.96H75.4677v-.2685a1.4886,1.4886,0,0,0-1.4869-1.4869H22.2523a1.4886,1.4886,0,0,0-1.4869,1.4869Z" fill="#221f1f"/></g><ellipse cx="74.1883" cy="30.0826" rx="0.4774" ry="0.4432" fill="#0088cc"/><ellipse cx="72.5176" cy="30.0826" rx="0.4774" ry="0.4432" fill="#0088cc"/><ellipse cx="70.8468" cy="30.0826" rx="0.4774" ry="0.4432" fill="#0088cc"/><path d="M42.3857,55.1232H23.8617V36.5991H42.3857Zm-18.3175-.2064H42.1792V36.8055H24.0681Z" fill="#fbdb8a"/><g opacity="0.13"><path d="M57.3548,55.1232H46.3156V46.4474H57.3548ZM46.522,54.9168H57.1484v-8.263H46.522Z" fill="#221f1f"/></g><rect x="46.4187" y="36.7024" width="24.8173" height="8.4694" fill="none" stroke="#221f1f" stroke-miterlimit="10" stroke-width="0.25" opacity="0.13"/><g opacity="0.13"><path d="M71.3393,55.1232H60.3V46.4474H71.3393Zm-10.833-.2064H71.1328v-8.263H60.5062Z" fill="#221f1f"/></g><rect x="60.4031" y="62.2388" width="10.833" height="2.407" rx="1.2035" ry="1.2035" fill="#fbdb8a"/><path d="M42.3367,58.8659H23.7585V57.0081H42.3367Zm-18.3717-.2064H42.13v-1.445H23.9649Z" fill="#0088cc"/><g opacity="0.13"><path d="M57.4056,58.8659H46.2587V57.0081H57.4056Zm-10.94-.2064H57.1992v-1.445H46.4652Z" fill="#221f1f"/></g><g opacity="0.13"><path d="M71.4425,58.8659H60.2956V57.0081H71.4425Zm-10.94-.2064H71.236v-1.445H60.502Z" fill="#221f1f"/></g><circle cx="33" cy="42" r="4" fill="none" stroke="#221f1f" stroke-miterlimit="10" stroke-width="0.25" opacity="0.13"/><line x1="28" y1="48" x2="38" y2="48" fill="none" stroke="#221f1f" stroke-miterlimit="10" stroke-width="0.25" opacity="0.13"/><line x1="30" y1="49" x2="40" y2="49" fill="none" stroke="#221f1f" stroke-miterlimit="10" stroke-width="0.25" opacity="0.13"/><line x1="27" y1="50" x2="37" y2="50" fill="none" stroke="#221f1f" stroke-miterlimit="10" stroke-width="0.25" opacity="0.13"/><line x1="25" y1="51" x2="35" y2="51" fill="none" stroke="#221f1f" stroke-miterlimit="10" stroke-width="0.25" opacity="0.13"/><line x1="31" y1="52" x2="41" y2="52" fill="none" stroke="#221f1f" stroke-miterlimit="10" stroke-width="0.25" opacity="0.13"/><line x1="26" y1="53" x2="36" y2="53" fill="none" stroke="#221f1f" stroke-miterlimit="10" stroke-width="0.25" opacity="0.13"/></svg>