<svg xmlns="http://www.w3.org/2000/svg" width="100" height="100" viewBox="0 0 100 100"><title>mobile-app-development-icon</title><path d="M23.5313,30.2389A63.1426,63.1426,0,0,0,40.629,15.6815C43.4316,12.2184,51.4827,6.45,57.54,4.2158c5.2588-1.9392,18.8029-4.7864,21.1987,10.55s-3.0054,20.1773,6.231,25.78c6.7834,4.1145,15.9291,6.8135,13.6833,14.5106-3.4926,11.97-29.1309,41.4676-50.9464,41.9722s-27.2077-.7261-30.3443-17.77S.2941,67.9342,1.028,53.5374C1.4681,44.9024,13.7616,35.99,23.5313,30.2389Z" fill="#f1f3f7"/><path d="M65.6546,97.3426H34.4034a5.8537,5.8537,0,0,1-5.6276-6.0442V16.1661a5.8537,5.8537,0,0,1,5.6276-6.0442H65.6546a5.8537,5.8537,0,0,1,5.6276,6.0442V91.2983A5.8537,5.8537,0,0,1,65.6546,97.3426ZM34.4034,10.3473a5.6285,5.6285,0,0,0-5.4022,5.8188V91.2983a5.6285,5.6285,0,0,0,5.4022,5.8188H65.6546a5.6285,5.6285,0,0,0,5.4022-5.8188V16.1661a5.6285,5.6285,0,0,0-5.4022-5.8188Z" fill="#606060"/><path d="M64.0887,94.9757H35.9694c-2.7984,0-5.0751-2.5667-5.0751-5.7215V18.21c0-3.1548,2.2767-5.7215,5.0751-5.7215H41.142l.0338.046a2.5508,2.5508,0,0,1,.3444.8038l.0287.0986a2.1718,2.1718,0,0,0,2.0138,1.6295H57.2844a1.8115,1.8115,0,0,0,1.7043-1.6146,2.0258,2.0258,0,0,1,.3374-.92l.0338-.0438h4.7289c2.7983,0,5.075,2.5667,5.075,5.7215V89.2542C69.1637,92.409,66.887,94.9757,64.0887,94.9757ZM35.9694,12.714c-2.6741,0-4.85,2.4655-4.85,5.4961V89.2542c0,3.0305,2.1755,5.4961,4.85,5.4961H64.0887c2.674,0,4.85-2.4655,4.85-5.4961V18.21c0-3.0305-2.1755-5.4961-4.85-5.4961H59.4727a1.9373,1.9373,0,0,0-.2614.7741,2.0351,2.0351,0,0,1-1.9269,1.8038H43.5627a2.395,2.395,0,0,1-2.2293-1.7891l-.03-.1025a2.5435,2.5435,0,0,0-.2775-.6864Z" fill="#606060"/><path d="M49.6492,40.3087a1,1,0,0,0,.09-.08l5.5981-5.5981a.99.99,0,1,0-1.4-1.4L48.87,38.2994,46.77,36.2a.99.99,0,0,0-1.4,1.4L48.17,40.3987a.99.99,0,0,0,1.4,0A1,1,0,0,0,49.6492,40.3087Zm.8747,4.5081a8.4118,8.4118,0,1,1,8.4118-8.4118A8.4118,8.4118,0,0,1,50.5238,44.8169Z" fill="#fbdb8a"/><path d="M50.5238,44.93a8.5245,8.5245,0,1,1,8.5245-8.5244A8.5341,8.5341,0,0,1,50.5238,44.93Zm0-16.8235a8.299,8.299,0,1,0,8.2991,8.2991A8.3085,8.3085,0,0,0,50.5238,28.106ZM48.87,40.8007a1.0987,1.0987,0,0,1-.7794-.3223L45.291,37.6794A1.1024,1.1024,0,0,1,46.85,36.12l2.02,2.02,4.9884-4.9884a1.1023,1.1023,0,1,1,1.5589,1.5589l-5.5981,5.5981a1.111,1.111,0,0,1-.0894.08,1.1338,1.1338,0,0,1-.08.0895A1.0992,1.0992,0,0,1,48.87,40.8007Zm-2.7991-4.7773a.8767.8767,0,0,0-.62,1.4966L48.25,40.3191a.8781.8781,0,0,0,1.24,0,.8935.8935,0,0,0,.0709-.08l.019-.0192a.8889.8889,0,0,0,.08-.0708l5.5981-5.5981a.8769.8769,0,0,0-1.24-1.24L48.87,38.4588,46.6907,36.28A.8744.8744,0,0,0,46.0705,36.0234Z" fill="#fbdb8a"/><path d="M19.3644,68.7265a.6326.6326,0,0,1-.4488-.1856L17.439,67.0643a.6347.6347,0,0,1,.8976-.8977l1.0278,1.0277L21.9585,64.6a.65.65,0,0,1,.8976,0,.6344.6344,0,0,1,0,.8976l-2.9532,2.9533a.6328.6328,0,0,1-.0471.0426c-.0131.0161-.0273.0317-.0422.0467A.6338.6338,0,0,1,19.3644,68.7265Zm-1.4766-2.52a.4093.4093,0,0,0-.2894.6988l1.4766,1.4766a.41.41,0,0,0,.579,0,.4433.4433,0,0,0,.0331-.0373l.0189-.019a.4246.4246,0,0,0,.0375-.0332l2.9532-2.9533a.4091.4091,0,0,0,0-.5789.4189.4189,0,0,0-.5789,0l-2.7534,2.7533L18.1773,66.326A.4067.4067,0,0,0,17.8878,66.2061Z" fill="#606060"/><path d="M20.9936,21.5469a2.2739,2.2739,0,1,1,2.2738-2.2738A2.2764,2.2764,0,0,1,20.9936,21.5469Zm0-4.3223a2.0484,2.0484,0,1,0,2.0484,2.0485A2.0507,2.0507,0,0,0,20.9936,17.2246Z" fill="#606060"/><path d="M16.3725,28.8144a3.7931,3.7931,0,1,1,3.7931-3.7931A3.7974,3.7974,0,0,1,16.3725,28.8144Zm0-7.3608A3.5677,3.5677,0,1,0,19.94,25.0213,3.5717,3.5717,0,0,0,16.3725,21.4537Z" fill="#606060"/><path d="M34.1951,68.5678H65.8629a.99.99,0,0,1,.99.99h0a.99.99,0,0,1-.99.99H34.1951a.99.99,0,0,1-.99-.99h0A.99.99,0,0,1,34.1951,68.5678Z" fill="#0088cc"/><path d="M65.8629,70.66H34.1951a1.1023,1.1023,0,1,1,0-2.2047H65.8629a1.1023,1.1023,0,1,1,0,2.2047ZM34.1951,68.68a.8769.8769,0,0,0,0,1.7538H65.8629a.8769.8769,0,0,0,0-1.7538Z" fill="#606060"/><path d="M34.1951,72.5262H65.8629a.99.99,0,0,1,.99.99h0a.99.99,0,0,1-.99.99H34.1951a.99.99,0,0,1-.99-.99h0A.99.99,0,0,1,34.1951,72.5262Z" fill="#0088cc"/><path d="M65.8629,74.6182H34.1951a1.1023,1.1023,0,0,1,0-2.2047H65.8629a1.1023,1.1023,0,1,1,0,2.2047ZM34.1951,72.639a.8769.8769,0,1,0,0,1.7538H65.8629a.8769.8769,0,0,0,0-1.7538Z" fill="#606060"/><path d="M34.1951,76.4847H65.8629a.99.99,0,0,1,.99.99h0a.99.99,0,0,1-.99.99H34.1951a.99.99,0,0,1-.99-.99h0A.99.99,0,0,1,34.1951,76.4847Z" fill="#0088cc"/><path d="M65.8629,78.5767H34.1951a1.1023,1.1023,0,0,1,0-2.2047H65.8629a1.1023,1.1023,0,1,1,0,2.2047ZM34.1951,76.5974a.8769.8769,0,1,0,0,1.7538H65.8629a.8769.8769,0,1,0,0-1.7538Z" fill="#606060"/><path d="M46.0705,64.6093h7.917a.99.99,0,0,1,.99.99h0a.99.99,0,0,1-.99.99h-7.917a.99.99,0,0,1-.99-.99h0A.99.99,0,0,1,46.0705,64.6093Z" fill="#0088cc"/><path d="M53.9875,66.7012H46.0705a1.1023,1.1023,0,1,1,0-2.2046h7.9169a1.1023,1.1023,0,1,1,0,2.2046ZM46.0705,64.722a.8769.8769,0,1,0,0,1.7537h7.9169a.8769.8769,0,1,0,0-1.7537Z" fill="#606060"/><path d="M44.5861,84.4017H55.4719a2.4741,2.4741,0,0,1,2.4741,2.4741h0A2.4741,2.4741,0,0,1,55.4719,89.35H44.5861a2.4741,2.4741,0,0,1-2.4741-2.4741h0A2.4741,2.4741,0,0,1,44.5861,84.4017Z" fill="#fbdb8a"/><path d="M55.472,89.4625H44.5861a2.5867,2.5867,0,1,1,0-5.1735H55.472a2.5867,2.5867,0,0,1,0,5.1735Zm-10.8858-4.948a2.3613,2.3613,0,1,0,0,4.7226H55.472a2.3613,2.3613,0,0,0,0-4.7226Z" fill="#fbdb8a"/><path d="M77.9813,51.9991a1.8607,1.8607,0,0,1-1.8585-1.8585V42.4593a1.8585,1.8585,0,1,1,3.7169,0v7.6813A1.8606,1.8606,0,0,1,77.9813,51.9991Zm0-11.1729a1.635,1.635,0,0,0-1.6331,1.6331v7.6813a1.633,1.633,0,1,0,3.2661,0V42.4593A1.6349,1.6349,0,0,0,77.9813,40.8262Z" fill="#606060"/><path d="M82.7152,56.0566a1.8607,1.8607,0,0,1-1.8585-1.8585V46.5168a1.8585,1.8585,0,1,1,3.7169,0v7.6813A1.8606,1.8606,0,0,1,82.7152,56.0566Zm0-11.1729a1.635,1.635,0,0,0-1.6331,1.6331v7.6813a1.633,1.633,0,1,0,3.2661,0V46.5168A1.6349,1.6349,0,0,0,82.7152,44.8837Z" fill="#606060"/></svg>