<svg xmlns="http://www.w3.org/2000/svg" width="100" height="100" viewBox="0 0 100 100"><title>ui-ux-developement</title><path d="M30.8123,32.5456a56.0967,56.0967,0,0,0,15.19-12.9329c2.49-3.0767,9.6426-8.2018,15.0243-10.1863,4.672-1.7228,16.7047-4.2523,18.8332,9.3729s-2.67,17.9257,5.5357,22.9029c6.0265,3.6553,14.1516,6.0532,12.1564,12.8914-3.1028,10.6344-25.88,36.84-45.2614,37.2886s-24.1717-.6451-26.9583-15.7872S10.1681,66.0346,10.82,53.2443C11.2111,45.5729,22.1328,37.6548,30.8123,32.5456Z" fill="#f1f3f7"/><path d="M63.9069,82.4982H44.7479a1.588,1.588,0,0,1,0-3.1759h19.159a1.588,1.588,0,0,1,0,3.1759Zm-19.159-2.9757a1.3877,1.3877,0,0,0,0,2.7754h19.159a1.3877,1.3877,0,0,0,0-2.7754Z" fill="#221f1f"/><path d="M47.5043,57.9337H40.2409V38.0952h7.2634Zm-7.0631-.2h6.8629V38.2955H40.4412Z" fill="#221f1f"/><path d="M46.9829,24.7351H40.7821l3.1-7.2859Zm-5.8981-.2H46.68l-2.7977-6.5742Z" fill="#221f1f"/><path d="M53.4973,36.5846h-19.23l6.229-10.592h6.7715l.0289.0494Zm-18.8795-.2H53.1472L47.1537,26.1929H40.6113Z" fill="#221f1f"/><path d="M38.8567,57.9337h-4.514V38.0952h4.514Zm-4.3138-.2h4.1135V38.2955H34.5429Z" fill="#221f1f"/><path d="M53.4224,57.9337h-4.534V38.0952h4.534Zm-4.3337-.2h4.1334V38.2955H49.0887Z" fill="#221f1f"/><g opacity="0.1"><path d="M84.863,79.9225l-1.1775-3.7148L96.89,72.0229l1.1775,3.7148Zm-.926-3.5844,1.0563,3.333L97.816,75.6073,96.76,72.2743Z" fill="#221f1f"/><path d="M75.9851,82.45l-5.5083-.0173L74.97,79.2455Zm-4.8825-.2156,4.6087.0146-.85-2.681Z" fill="#221f1f"/><path d="M84.8688,83.2152l-8.07-.8905-1.0921-3.4456,6.0839-5.3763ZM76.95,82.14l7.6348.8426-2.8921-9.1259L75.937,78.9428Z" fill="#221f1f"/><path d="M85.7955,82.8652l-.7428-2.3432,13.2047-4.1849L99,78.68Zm-.4913-2.2127.6215,1.9612L98.7485,78.55l-.6213-1.9612Z" fill="#221f1f"/><path d="M83.4955,75.6082,82.75,73.2551,95.9541,69.07,96.7,71.4233Zm-.4944-2.2227.6247,1.9712,12.8228-4.0638-.6247-1.9712Z" fill="#221f1f"/></g><polygon points="63.148 42.942 70.371 42.942 71.969 58.313 61.45 58.313 63.148 42.942" fill="#0088cc"/><path d="M63.2612,41.6171h6.59s4.9928-4.5734,4.3-10.1387c-.4327-3.4683-3.0689-5.9314-4.2206-8.8872-.6857-1.7774-1.3114-3.5482.8055-4.8863C58.9807,22.6112,53.2956,32.0775,63.2612,41.6171Z" fill="#fbdb8a"/><g opacity="0.1"><path d="M5.663,48.3384,1,44.6121l6.6441-6.7959L10.87,40.3939l-.05.0762ZM1.2979,44.594,5.616,48.0447l4.9861-7.6081L7.6605,38.0858Z" fill="#221f1f"/></g><g opacity="0.1"><path d="M10.9824,39.7191l-2.88-2.3014-.0035-.0429c-.2752-3.2465.5764-5.8125,2.4623-7.4207,2.2084-1.8833,5.7958-2.3877,9.8428-1.3835l-.0307.1971c-1.3637-.09-1.7265.951-2.08,1.9571a12.492,12.492,0,0,0-.4711,2.1478,8.8994,8.8994,0,0,1-1.0778,3.4931c-1.8012,2.8619-5.6816,3.3441-5.7207,3.3486ZM8.2948,37.315,11.0414,39.51c.4152-.0592,3.8823-.627,5.5338-3.2508a8.7475,8.7475,0,0,0,1.0494-3.4181,12.8363,12.8363,0,0,1,.48-2.1822c.3-.8549.6335-1.8045,1.6094-2.0412-3.7182-.7839-6.9806-.2524-9.0226,1.4888C8.8647,31.6638,8.0364,34.156,8.2948,37.315Z" fill="#221f1f"/></g><path d="M62.2828,78.331H46.3786V71.234H62.2828Zm-15.704-.2H62.0826V71.4343H46.5789Z" fill="#221f1f"/><path d="M81.5015,69.7634H27.1534a3.3859,3.3859,0,0,1-3.3821-3.3821v-36.92a3.386,3.386,0,0,1,3.3821-3.3821h10.94l-1.749,2.97H27.7794V63.0525H80.8821V29.0489h-5.13l-.0237-.0667a16.1808,16.1808,0,0,0-1.31-2.7526l-.0874-.15h7.1705a3.386,3.386,0,0,1,3.3821,3.3821v36.92A3.3859,3.3859,0,0,1,81.5015,69.7634ZM27.1534,26.2795a3.1854,3.1854,0,0,0-3.1818,3.1819v36.92a3.1853,3.1853,0,0,0,3.1818,3.1818H81.5015a3.1853,3.1853,0,0,0,3.1818-3.1818v-36.92a3.1854,3.1854,0,0,0-3.1818-3.1819H74.6783a16.1954,16.1954,0,0,1,1.2153,2.5692h5.1888V63.2527H27.5791V28.8486h8.65l1.5132-2.5692Z" fill="#221f1f"/><path d="M56.2915,29.0489H51.4142l-1.7418-2.97H57.343l-.07.1438a12.7562,12.7562,0,0,0-.9644,2.7478Zm-4.7626-.2h4.6028a12.9551,12.9551,0,0,1,.8928-2.5692H50.0221Z" fill="#221f1f"/></svg>