<svg xmlns="http://www.w3.org/2000/svg" width="100" height="100" viewBox="0 0 100 100"><title>web-application-develpment</title><path d="M25.9537,33.5493A52.8708,52.8708,0,0,0,40.27,21.36c2.3467-2.9,9.0881-7.73,14.16-9.6005,4.4033-1.6237,15.7441-4.0078,17.75,8.834S69.664,37.4885,77.3978,42.1794c5.68,3.4451,13.3378,5.7051,11.4574,12.15-2.9244,10.0229-24.392,34.7218-42.6586,35.1443s-22.7817-.608-25.408-14.8793S6.4966,65.1126,7.1111,53.0577C7.48,45.8274,17.7733,38.3647,25.9537,33.5493Z" fill="#f1f3f7"/><path d="M87.3131,25.8192A2.3826,2.3826,0,0,0,84.93,23.4366H11.3026A2.3826,2.3826,0,0,0,8.92,25.8192V75.0216H87.3131Z" fill="none"/><path d="M87.1428,74.8514H9.09V25.8192a2.215,2.215,0,0,1,2.2125-2.2124H84.9305a2.2149,2.2149,0,0,1,2.2123,2.2124ZM9.279,74.6627H86.954V25.8192a2.0259,2.0259,0,0,0-2.0235-2.0236H11.3027A2.026,2.026,0,0,0,9.279,25.8192Z" fill="#221f1f"/><path d="M85.697,77.02H10.5361c-1.5032,0-9.0015-.1074-9.0015-2.2272V73.4718a.7939.7939,0,0,1,.793-.793h91.578a.7938.7938,0,0,1,.7929.793v1.3206C94.6985,76.9123,87.2,77.02,85.697,77.02Zm-83.37-4.1521a.6049.6049,0,0,0-.6042.6042v1.3206c0,1.6092,5.54,2.0385,8.8128,2.0385H85.697c3.2732,0,8.8127-.4293,8.8127-2.0385V73.4718a.6049.6049,0,0,0-.6041-.6042Z" fill="#221f1f"/><path d="M83.5054,69.7539H12.7277V27.0494H83.5054Zm-70.5889-.1888h70.4V27.2381h-70.4Z" fill="#221f1f"/><circle cx="48.1165" cy="25.283" r="0.4247" fill="#fff"/><path d="M48.1165,25.8021a.5191.5191,0,1,1,.5191-.5192A.52.52,0,0,1,48.1165,25.8021Zm0-.8495a.33.33,0,1,0,.33.33A.3307.3307,0,0,0,48.1165,24.9526Z" fill="#221f1f"/><path d="M48.753,25.283a.6364.6364,0,1,0-.6364.6364A.6371.6371,0,0,0,48.753,25.283Zm-.85,0a.2131.2131,0,1,1,.2131.213A.2134.2134,0,0,1,47.9034,25.283Z" fill="#fff"/><path d="M48.1165,26.0138a.7308.7308,0,1,1,.7308-.7308A.7316.7316,0,0,1,48.1165,26.0138Zm0-1.2729a.5421.5421,0,1,0,.542.5421A.5428.5428,0,0,0,48.1165,24.7409Zm0,.8495a.3075.3075,0,1,1,.3075-.3074A.3078.3078,0,0,1,48.1165,25.59Zm0-.4262a.1187.1187,0,1,0,.1187.1188A.1189.1189,0,0,0,48.1165,25.1642Z" fill="#221f1f"/><rect x="1.6289" y="74.6981" width="92.9752" height="0.1888" fill="#221f1f"/><g opacity="0.13"><path d="M22.8554,56.6548H19.5837a1.2912,1.2912,0,0,1-1.29-1.29V32.0858a1.2913,1.2913,0,0,1,1.29-1.29h3.2717a1.2913,1.2913,0,0,1,1.29,1.29V55.3651A1.2913,1.2913,0,0,1,22.8554,56.6548Zm-3.2717-25.67a1.1023,1.1023,0,0,0-1.101,1.1011V55.3651a1.1022,1.1022,0,0,0,1.101,1.101h3.2717a1.1023,1.1023,0,0,0,1.1011-1.101V32.0858a1.1023,1.1023,0,0,0-1.1011-1.1011Z" fill="#221f1f"/></g><path d="M21.2954,35.2119a.16.16,0,0,0-.1012.1011L20.75,36.6472l-.94-2.82,2.82.94Z" fill="#fbdb8a"/><rect x="20.3725" y="39.0128" width="2.4538" height="1.6988" fill="#fbdb8a"/><g opacity="0.1"><path d="M91.7606,40.858l2.6236-7.0817,1.0343,3.4823a.2878.2878,0,0,0,.1752.1872L99,38.7079Zm2.6039-6.4852L92.0688,40.57l6.3348-1.8814-2.8754-1.0653a.4777.4777,0,0,1-.2907-.31Z" fill="#221f1f"/></g><g opacity="0.1"><path d="M88.7411,31.1425l-.0658-4.2345,6.0326-.0938.0658,4.2345Zm.1259-4.0486.06,3.8569,5.6551-.0879-.06-3.8569Z" fill="#221f1f"/></g><path d="M21.0654,43.4969h-.5969v-.42h1.6988v.42h-.6034v1.7906h-.4985Z" fill="#0088cc"/><circle cx="21.2688" cy="48.5209" r="0.8678" fill="#0088cc"/><path d="M21.8622,49.3565a1.0342,1.0342,0,0,0,.2422-.2422l.5757.5757a.1712.1712,0,1,1-.2422.2422Z" fill="#0088cc"/><g opacity="0.13"><path d="M6.4218,65.256H4.9236V60.5521H3.3555V59.2606H8.007v1.2915H6.4218Zm-1.3095-.1888H6.233V60.3633H7.8183v-.914H3.5443v.914H5.1123Z" fill="#221f1f"/></g><g opacity="0.13"><path d="M3.3742,70.3671A2.3742,2.3742,0,1,1,5.7484,67.993,2.3769,2.3769,0,0,1,3.3742,70.3671Zm0-4.56A2.1854,2.1854,0,1,0,5.56,67.993,2.188,2.188,0,0,0,3.3742,65.8075Z" fill="#221f1f"/><path d="M6.7636,71.9266a.54.54,0,0,1-.3849-.1594L4.7875,70.176l.0909-.0647a2.6163,2.6163,0,0,0,.6141-.6142l.0647-.0909,1.5913,1.5914a.5442.5442,0,0,1-.3848.929ZM5.0771,70.1987l1.4351,1.435a.3639.3639,0,0,0,.5028,0,.3553.3553,0,0,0,0-.5027L5.58,69.6959A2.8041,2.8041,0,0,1,5.0771,70.1987Z" fill="#221f1f"/></g><path d="M21.3853,52.405a.1972.1972,0,0,1,.2774,0l1.0386,1.0386a.1964.1964,0,0,1,0,.2774l-1.0459,1.0459L20.3394,53.451Z" fill="#0088cc"/><path d="M19.61,54.4574a.1964.1964,0,0,1,0-.2774l.5726-.5726,1.3161,1.3161-.1435.1435H20.22Z" fill="#0088cc"/><g opacity="0.13"><path d="M77.24,66.2811h-47.3a1.55,1.55,0,0,1-1.5484-1.5484V32.2143a1.55,1.55,0,0,1,1.5484-1.5484h47.3a1.55,1.55,0,0,1,1.5484,1.5484V64.7327A1.55,1.55,0,0,1,77.24,66.2811Zm-47.3-35.4265a1.3612,1.3612,0,0,0-1.36,1.36V64.7327a1.3612,1.3612,0,0,0,1.36,1.36h47.3a1.3612,1.3612,0,0,0,1.36-1.36V32.2143a1.3612,1.3612,0,0,0-1.36-1.36Z" fill="#221f1f"/></g><g opacity="0.13"><path d="M78.7886,32.6484H28.3921v-.4341a1.55,1.55,0,0,1,1.5484-1.5484h47.3a1.55,1.55,0,0,1,1.5484,1.5484ZM28.5808,32.46H78.6v-.2453a1.3612,1.3612,0,0,0-1.36-1.36h-47.3a1.3612,1.3612,0,0,0-1.36,1.36Z" fill="#221f1f"/></g><ellipse cx="77.4299" cy="31.6571" rx="0.4366" ry="0.4052" fill="#0088cc"/><ellipse cx="75.9022" cy="31.6571" rx="0.4366" ry="0.4052" fill="#0088cc"/><ellipse cx="74.3745" cy="31.6571" rx="0.4366" ry="0.4052" fill="#0088cc"/><g opacity="0.13"><path d="M48.35,54.5538H31.4121V37.6158H48.35ZM31.6009,54.365h16.56v-16.56h-16.56Z" fill="#221f1f"/></g><path d="M62.0377,54.5538H51.9435v-7.933H62.0377Z" fill="#fbdb8a"/><g opacity="0.13"><polygon points="74.825 45.549 74.542 45.549 74.542 45.36 74.636 45.36 74.636 45.266 74.825 45.266 74.825 45.549" fill="#221f1f"/><path d="M73.9743,45.5489h-.3782V45.36h.3782Zm-.9456,0h-.3781V45.36h.3781Zm-.9455,0H71.705V45.36h.3782Zm-.9456,0h-.3781V45.36h.3781Zm-.9455,0h-.3782V45.36h.3782Zm-.9456,0h-.3781V45.36h.3781Zm-.9455,0h-.3782V45.36h.3782Zm-.9456,0h-.3781V45.36h.3781Zm-.9455,0h-.3782V45.36H66.41Zm-.9456,0h-.3782V45.36h.3782Zm-.9455,0h-.3782V45.36h.3782Zm-.9456,0H63.195V45.36h.3782Zm-.9455,0h-.3782V45.36h.3782Zm-.9456,0h-.3782V45.36h.3782Zm-.9455,0h-.3782V45.36h.3782Zm-.9456,0h-.3782V45.36h.3782Zm-.9455,0h-.3782V45.36h.3782Zm-.9456,0h-.3782V45.36H57.9Zm-.9455,0h-.3782V45.36h.3782Zm-.9456,0h-.3782V45.36h.3782Zm-.9455,0H54.685V45.36h.3782Zm-.9456,0h-.3782V45.36h.3782Zm-.9456,0h-.3781V45.36h.3781Z" fill="#221f1f"/><polygon points="52.227 45.549 51.943 45.549 51.943 45.266 52.132 45.266 52.132 45.36 52.227 45.36 52.227 45.549" fill="#221f1f"/><path d="M52.1322,44.6842h-.1888v-.3877h.1888Zm0-.9693h-.1888v-.3877h.1888Zm0-.9694h-.1888v-.3877h.1888Zm0-.9693h-.1888v-.3877h.1888Zm0-.9693h-.1888v-.3877h.1888Zm0-.9694h-.1888V39.45h.1888Zm0-.9693h-.1888v-.3877h.1888Z" fill="#221f1f"/><polygon points="52.132 37.899 51.943 37.899 51.943 37.616 52.227 37.616 52.227 37.805 52.132 37.805 52.132 37.899" fill="#221f1f"/><path d="M73.9743,37.8046h-.3781v-.1888h.3781Zm-.9455,0h-.3782v-.1888h.3782Zm-.9456,0H71.705v-.1888h.3782Zm-.9455,0h-.3782v-.1888h.3782Zm-.9456,0h-.3782v-.1888h.3782Zm-.9455,0h-.3782v-.1888h.3782Zm-.9456,0h-.3782v-.1888h.3782Zm-.9455,0h-.3782v-.1888h.3782Zm-.9456,0h-.3782v-.1888H66.41Zm-.9455,0h-.3782v-.1888h.3782Zm-.9456,0h-.3782v-.1888h.3782Zm-.9455,0H63.195v-.1888h.3782Zm-.9456,0h-.3782v-.1888h.3782Zm-.9455,0h-.3782v-.1888h.3782Zm-.9456,0h-.3782v-.1888h.3782Zm-.9456,0h-.3781v-.1888h.3781Zm-.9455,0h-.3782v-.1888h.3782Zm-.9456,0h-.3781v-.1888H57.9Zm-.9455,0h-.3782v-.1888h.3782Zm-.9456,0h-.3781v-.1888h.3781Zm-.9455,0H54.685v-.1888h.3782Zm-.9456,0H53.74v-.1888h.3781Zm-.9455,0h-.3782v-.1888h.3782Z" fill="#221f1f"/><polygon points="74.825 37.899 74.636 37.899 74.636 37.805 74.542 37.805 74.542 37.616 74.825 37.616 74.825 37.899" fill="#221f1f"/><path d="M74.8248,44.6841H74.636v-.3877h.1888Zm0-.9693H74.636v-.3877h.1888Zm0-.9694H74.636v-.3877h.1888Zm0-.9693H74.636v-.3877h.1888Zm0-.9693H74.636v-.3877h.1888Zm0-.9694H74.636V39.45h.1888Zm0-.9693H74.636V38.48h.1888Z" fill="#221f1f"/></g><path d="M74.8248,54.5538H64.73v-7.933H74.8248Z" fill="#0088cc"/><rect x="64.8249" y="61.0602" width="9.9055" height="2.2009" rx="0.3026" ry="0.3026" fill="#fbdb8a"/><path d="M45.6358,82.9856h-8.719a.6884.6884,0,0,1-.6876-.6875V81.2835a.6884.6884,0,0,1,.6876-.6875h8.719a.6884.6884,0,0,1,.6876.6875V82.298A.6884.6884,0,0,1,45.6358,82.9856Zm-8.719-2.2009a.4994.4994,0,0,0-.4989.4988V82.298a.4994.4994,0,0,0,.4989.4988h8.719a.4994.4994,0,0,0,.4989-.4988V81.2835a.4994.4994,0,0,0-.4989-.4988Z" fill="#221f1f"/><path d="M51.4871,86.0056H42.768a.6884.6884,0,0,1-.6876-.6875V84.3035a.6884.6884,0,0,1,.6876-.6875h8.719a.6884.6884,0,0,1,.6876.6875v1.0145A.6884.6884,0,0,1,51.4871,86.0056Zm-8.719-2.2009a.4994.4994,0,0,0-.4989.4988v1.0145a.4994.4994,0,0,0,.4989.4988h8.719a.4994.4994,0,0,0,.4989-.4988V84.3035a.4994.4994,0,0,0-.4989-.4988Z" fill="#221f1f"/><g opacity="0.13"><path d="M48.3053,57.9761H31.3177V56.2773H48.3053Zm-16.7988-.1888h16.61V56.4661h-16.61Z" fill="#221f1f"/></g><g opacity="0.13"><path d="M62.0841,57.9761H51.8916V56.2773H62.0841ZM52.08,57.7874h9.815V56.4661H52.08Z" fill="#221f1f"/></g><g opacity="0.13"><path d="M74.9192,57.9761H64.7266V56.2773H74.9192Zm-10.0038-.1888H74.73V56.4661h-9.815Z" fill="#221f1f"/></g></svg>